<svg width="204" height="42" viewBox="0 0 204 42" fill="none" xmlns="http://www.w3.org/2000/svg">
<path d="M18.828 10.316H6.192V18.524C6.744 17.756 7.56 17.132 8.64 16.652C9.72 16.148 10.884 15.896 12.132 15.896C14.124 15.896 15.744 16.316 16.992 17.156C18.24 17.972 19.128 19.04 19.656 20.36C20.208 21.656 20.484 23.036 20.484 24.5C20.484 26.228 20.16 27.776 19.512 29.144C18.864 30.512 17.868 31.592 16.524 32.384C15.204 33.176 13.56 33.572 11.592 33.572C9.072 33.572 7.032 32.924 5.472 31.628C3.912 30.332 2.964 28.604 2.628 26.444H5.832C6.144 27.812 6.804 28.88 7.812 29.648C8.82 30.416 10.092 30.8 11.628 30.8C13.524 30.8 14.952 30.236 15.912 29.108C16.872 27.956 17.352 26.444 17.352 24.572C17.352 22.7 16.872 21.26 15.912 20.252C14.952 19.22 13.536 18.704 11.664 18.704C10.392 18.704 9.276 19.016 8.316 19.64C7.38 20.24 6.696 21.068 6.264 22.124H3.168V7.436H18.828V10.316ZM26.4215 33.716C25.7975 33.716 25.2695 33.5 24.8375 33.068C24.4055 32.636 24.1895 32.108 24.1895 31.484C24.1895 30.86 24.4055 30.332 24.8375 29.9C25.2695 29.468 25.7975 29.252 26.4215 29.252C27.0215 29.252 27.5255 29.468 27.9335 29.9C28.3655 30.332 28.5815 30.86 28.5815 31.484C28.5815 32.108 28.3655 32.636 27.9335 33.068C27.5255 33.5 27.0215 33.716 26.4215 33.716ZM32.3961 20.216C32.3961 16.088 33.0681 12.872 34.4121 10.568C35.7561 8.24 38.1081 7.076 41.4681 7.076C44.8041 7.076 47.1441 8.24 48.4881 10.568C49.8321 12.872 50.5041 16.088 50.5041 20.216C50.5041 24.416 49.8321 27.68 48.4881 30.008C47.1441 32.336 44.8041 33.5 41.4681 33.5C38.1081 33.5 35.7561 32.336 34.4121 30.008C33.0681 27.68 32.3961 24.416 32.3961 20.216ZM47.2641 20.216C47.2641 18.128 47.1201 16.364 46.8321 14.924C46.5681 13.46 46.0041 12.284 45.1401 11.396C44.3001 10.508 43.0761 10.064 41.4681 10.064C39.8361 10.064 38.5881 10.508 37.7241 11.396C36.8841 12.284 36.3201 13.46 36.0321 14.924C35.7681 16.364 35.6361 18.128 35.6361 20.216C35.6361 22.376 35.7681 24.188 36.0321 25.652C36.3201 27.116 36.8841 28.292 37.7241 29.18C38.5881 30.068 39.8361 30.512 41.4681 30.512C43.0761 30.512 44.3001 30.068 45.1401 29.18C46.0041 28.292 46.5681 27.116 46.8321 25.652C47.1201 24.188 47.2641 22.376 47.2641 20.216Z" fill="black"/>
<path d="M84.2164 11.1038L87.4765 17.708L94.7696 18.7669L89.4932 23.8923L90.7366 31.1521L84.2164 27.7239L77.7127 31.1521L78.9564 23.8923L73.6797 18.7669L80.9561 17.708L84.2164 11.1038Z" fill="#E62415"/>
<path d="M90.7356 32.8324C90.4633 32.8325 90.195 32.7661 89.9541 32.6391L84.2169 29.6226L78.4965 32.6391C78.2188 32.7849 77.9059 32.8504 77.593 32.8281C77.2801 32.8058 76.9796 32.6967 76.7253 32.513C76.4717 32.3283 76.2747 32.0764 76.1565 31.7857C76.0384 31.4951 76.0037 31.1772 76.0565 30.8679L77.1504 24.482L72.509 19.9715C72.284 19.7529 72.1248 19.4757 72.0493 19.1713C71.9739 18.8668 71.9852 18.5474 72.082 18.249C72.1789 17.9506 72.3571 17.6852 72.5968 17.4828C72.8364 17.2803 73.1278 17.1488 73.4381 17.103L79.8408 16.172L82.711 10.3609C83.2775 9.21305 85.1577 9.21305 85.7241 10.3609L88.5944 16.172L95.0123 17.103C95.323 17.1484 95.6148 17.2797 95.8548 17.4822C96.0948 17.6847 96.2733 17.9503 96.3702 18.249C96.4672 18.5473 96.4787 18.8669 96.4032 19.1714C96.3277 19.4758 96.1684 19.753 95.9432 19.9715L91.3018 24.482L92.3957 30.8679C92.4483 31.1772 92.4136 31.495 92.2954 31.7856C92.1773 32.0763 91.9804 32.3282 91.7269 32.513C91.4376 32.7197 91.0912 32.8313 90.7356 32.8324ZM84.2154 26.0431C84.4843 26.0431 84.7532 26.107 84.9968 26.2365L88.5039 28.0798L87.8352 24.1778C87.7892 23.9088 87.8094 23.6327 87.894 23.3733C87.9786 23.1139 88.1251 22.879 88.3209 22.6889L91.1491 19.9395L87.2337 19.3716C86.964 19.3325 86.7079 19.2284 86.4875 19.0683C86.267 18.9081 86.0889 18.6968 85.9683 18.4524L84.2157 14.9L82.463 18.4524C82.3426 18.6966 82.1647 18.9078 81.9445 19.0679C81.7243 19.228 81.4686 19.3322 81.1992 19.3716L77.2987 19.938L80.1287 22.6855C80.3245 22.876 80.471 23.1112 80.5556 23.3709C80.6402 23.6306 80.6604 23.907 80.6145 24.1762L79.9457 28.0734L83.4345 26.2349C83.6754 26.1086 83.9434 26.0428 84.2154 26.0431ZM111.103 11.1036L114.363 17.7079L121.657 18.7667L116.38 23.8921L117.623 31.152L111.103 27.7238L104.6 31.152L105.843 23.8921L100.566 18.7667L107.843 17.7079L111.103 11.1036Z" fill="#E62415"/>
<path d="M117.626 32.8324C117.354 32.8325 117.086 32.7661 116.845 32.6391L111.108 29.6226L105.387 32.6391C104.823 32.9381 104.135 32.8861 103.616 32.513C103.362 32.3283 103.165 32.0764 103.047 31.7857C102.929 31.4951 102.894 31.1772 102.947 30.8679L104.041 24.482L99.3996 19.9715C99.1746 19.7529 99.0154 19.4757 98.9399 19.1713C98.8645 18.8668 98.8758 18.5474 98.9726 18.249C99.0695 17.9506 99.2478 17.6852 99.4874 17.4828C99.727 17.2803 100.018 17.1488 100.329 17.103L106.731 16.172L109.602 10.3609C110.168 9.21305 112.048 9.21305 112.615 10.3609L115.485 16.172L121.903 17.103C122.214 17.1484 122.505 17.2797 122.745 17.4822C122.985 17.6847 123.164 17.9503 123.261 18.249C123.358 18.5473 123.369 18.8669 123.294 19.1714C123.218 19.4758 123.059 19.7531 122.834 19.9715L118.192 24.482L119.286 30.8679C119.339 31.1772 119.304 31.495 119.186 31.7856C119.068 32.0763 118.871 32.3282 118.618 32.513C118.328 32.7197 117.982 32.8314 117.626 32.8324ZM111.106 26.0431C111.375 26.0431 111.644 26.107 111.887 26.2365L115.395 28.0798L114.726 24.1778C114.68 23.9088 114.7 23.6327 114.785 23.3733C114.869 23.1139 115.016 22.879 115.212 22.6889L118.04 19.9395L114.124 19.3716C113.855 19.3325 113.599 19.2284 113.378 19.0683C113.158 18.9081 112.979 18.6968 112.859 18.4524L111.106 14.9015L109.354 18.4524C109.233 18.6966 109.055 18.9078 108.835 19.0679C108.615 19.228 108.359 19.3322 108.09 19.3716L104.189 19.938L107.019 22.6855C107.215 22.876 107.362 23.1112 107.446 23.3709C107.531 23.6306 107.551 23.907 107.505 24.1762L106.836 28.0734L110.325 26.2349C110.566 26.1086 110.834 26.0428 111.106 26.0431ZM137.994 11.1036L141.254 17.7079L148.547 18.7667L143.271 23.8921L144.514 31.152L137.994 27.7238L131.49 31.152L132.734 23.8921L127.457 18.7667L134.734 17.7079L137.994 11.1036Z" fill="#E62415"/>
<path d="M131.485 32.8324C131.131 32.8326 130.786 32.7209 130.499 32.5133C130.245 32.3285 130.048 32.0766 129.93 31.786C129.812 31.4953 129.777 31.1774 129.83 30.8681L130.924 24.4822L126.282 19.9717C126.057 19.7532 125.898 19.476 125.823 19.1715C125.747 18.8671 125.759 18.5476 125.855 18.2493C125.952 17.9509 126.131 17.6855 126.37 17.483C126.61 17.2805 126.901 17.149 127.212 17.1033L133.614 16.1723L136.484 10.3611C137.051 9.21329 138.931 9.21329 139.498 10.3611L142.368 16.1723L148.786 17.1033C149.096 17.1487 149.388 17.28 149.628 17.4825C149.868 17.685 150.047 17.9506 150.144 18.2493C150.24 18.5476 150.252 18.8671 150.176 19.1715C150.101 19.4759 149.941 19.7531 149.717 19.9717L145.073 24.4822L146.167 30.8681C146.22 31.177 146.185 31.4945 146.068 31.7848C145.95 32.0752 145.753 32.3269 145.5 32.5117C145.246 32.6969 144.946 32.807 144.633 32.8296C144.32 32.8522 144.006 32.7862 143.729 32.6393L137.992 29.6229L132.271 32.6393C132.029 32.7661 131.759 32.8323 131.485 32.8324ZM137.989 26.0431C138.257 26.0431 138.526 26.107 138.77 26.2364L142.277 28.0798L141.61 24.1778C141.564 23.909 141.584 23.6329 141.668 23.3735C141.752 23.1141 141.898 22.8791 142.094 22.6889L144.924 19.9395L141.008 19.3715C140.739 19.3325 140.483 19.2284 140.262 19.0682C140.042 18.9081 139.864 18.6968 139.743 18.4524L137.99 14.9015L136.238 18.4524C136.117 18.6966 135.939 18.9078 135.719 19.0679C135.499 19.228 135.243 19.3322 134.974 19.3715L131.073 19.938L133.903 22.6855C134.099 22.876 134.246 23.1112 134.33 23.3709C134.415 23.6306 134.435 23.907 134.389 24.1762L133.72 28.0734L137.209 26.2349C137.45 26.1084 137.717 26.0426 137.989 26.0431ZM164.876 11.1036L168.137 17.7079L175.43 18.7667L170.153 23.8921L171.397 31.152L164.876 27.7238L158.373 31.152L159.617 23.8921L154.34 18.7667L161.616 17.7079L164.876 11.1036Z" fill="#E62415"/>
<path d="M158.378 32.8324C158.024 32.8326 157.679 32.7209 157.392 32.5133C157.138 32.3292 156.94 32.0774 156.822 31.7865C156.704 31.4957 156.669 31.1774 156.723 30.8681L157.816 24.4822L153.172 19.9717C152.715 19.5247 152.549 18.8575 152.745 18.2493C152.942 17.6411 153.47 17.1974 154.103 17.1033L160.506 16.1723L163.374 10.3611C163.939 9.21329 165.823 9.21329 166.387 10.3611L169.258 16.1738L175.676 17.1048C175.986 17.1502 176.278 17.2816 176.518 17.4841C176.758 17.6866 176.937 17.9522 177.034 18.2508C177.13 18.5492 177.141 18.8686 177.066 19.173C176.991 19.4774 176.831 19.7546 176.607 19.9733L171.963 24.4838L173.057 30.8697C173.11 31.1786 173.075 31.496 172.957 31.7864C172.84 32.0767 172.643 32.3285 172.39 32.5133C172.137 32.6983 171.836 32.8085 171.523 32.831C171.211 32.8536 170.898 32.7877 170.62 32.6409L164.882 29.6244L159.163 32.6409C158.916 32.7685 158.647 32.8324 158.378 32.8324ZM164.882 26.0431C165.151 26.0431 165.418 26.107 165.663 26.2364L169.172 28.0798L168.505 24.1778C168.459 23.909 168.479 23.6329 168.563 23.3735C168.647 23.1141 168.793 22.8791 168.989 22.6889L171.819 19.9395L167.903 19.3715C167.634 19.3325 167.378 19.2284 167.157 19.0682C166.937 18.9081 166.759 18.6968 166.638 18.4524L164.884 14.9L163.131 18.4509C163.01 18.6952 162.832 18.9066 162.612 19.0667C162.391 19.2268 162.135 19.3309 161.866 19.37L157.967 19.9364L160.797 22.6858C160.993 22.876 161.139 23.1109 161.223 23.3704C161.307 23.6298 161.327 23.9059 161.281 24.1747L160.615 28.0718L164.101 26.2333C164.342 26.1079 164.61 26.0426 164.882 26.0431ZM191.77 11.1036L195.03 17.7079L202.323 18.7667L197.047 23.8921L198.29 31.152L191.77 27.7238L185.266 31.152L186.51 23.8921L181.233 18.7667L188.509 17.7079L191.77 11.1036Z" fill="#E62415"/>
<path d="M185.261 32.8324C184.907 32.8326 184.562 32.7209 184.275 32.5133C184.02 32.3292 183.823 32.0774 183.704 31.7865C183.586 31.4957 183.552 31.1774 183.606 30.8681L184.698 24.4822L180.055 19.9717C179.831 19.7527 179.672 19.4755 179.596 19.1712C179.521 18.867 179.532 18.5477 179.628 18.2493C179.725 17.9508 179.904 17.6853 180.144 17.4828C180.384 17.2804 180.675 17.1489 180.986 17.1033L187.388 16.1723L190.257 10.3611C190.822 9.21329 192.705 9.21329 193.27 10.3611L196.14 16.1738L202.558 17.1048C202.869 17.1502 203.161 17.2816 203.401 17.4841C203.641 17.6866 203.819 17.9522 203.916 18.2508C204.013 18.5492 204.024 18.8686 203.949 19.173C203.873 19.4774 203.714 19.7546 203.489 19.9733L198.846 24.4838L199.94 30.8697C199.992 31.1786 199.958 31.496 199.84 31.7864C199.722 32.0767 199.526 32.3285 199.273 32.5133C199.019 32.6983 198.719 32.8085 198.406 32.831C198.093 32.8536 197.78 32.7877 197.503 32.6409L191.764 29.6244L186.046 32.6409C185.799 32.7685 185.53 32.8324 185.261 32.8324ZM191.765 26.0431C192.034 26.0431 192.301 26.107 192.546 26.2364L196.055 28.0798L195.388 24.1778C195.342 23.909 195.361 23.6329 195.446 23.3735C195.53 23.1141 195.676 22.8791 195.872 22.6889L198.702 19.9395L194.786 19.3715C194.517 19.3325 194.261 19.2284 194.04 19.0682C193.82 18.9081 193.641 18.6968 193.521 18.4524L191.766 14.9L190.014 18.4509C189.893 18.6952 189.715 18.9066 189.495 19.0667C189.274 19.2268 189.018 19.3309 188.748 19.37L184.85 19.9364L187.68 22.6858C187.875 22.876 188.022 23.1109 188.106 23.3704C188.19 23.6298 188.21 23.9059 188.164 24.1747L187.498 28.0718L190.984 26.2333C191.225 26.1078 191.493 26.0426 191.765 26.0431Z" fill="#E62415"/>
</svg>
