<svg width="148" height="148" viewBox="0 0 148 148" fill="none" xmlns="http://www.w3.org/2000/svg">
<g filter="url(#filter0_d_1778_176)">
<circle cx="74" cy="72" r="60" fill="white"/>
</g>
<g clip-path="url(#clip0_1778_176)">
<path d="M89.3762 60.1107C89.1683 60.1107 88.9651 60.0491 88.7924 59.9336C88.677 59.8568 88.5778 59.758 88.5006 59.6429C88.4234 59.5278 88.3696 59.3986 88.3423 59.2627C88.315 59.1268 88.3148 58.9869 88.3416 58.8509C88.3684 58.7149 88.4217 58.5856 88.4985 58.4702L99.8979 41.3421C99.9747 41.2267 100.073 41.1275 100.189 41.0503C100.304 40.9731 100.433 40.9193 100.569 40.892C100.705 40.8647 100.845 40.8645 100.981 40.8913C101.117 40.9181 101.246 40.9714 101.361 41.0483C101.477 41.1251 101.576 41.2238 101.653 41.3389C101.73 41.454 101.784 41.5832 101.812 41.7191C101.839 41.855 101.839 41.9949 101.812 42.1309C101.785 42.2669 101.732 42.3963 101.655 42.5117L90.2559 59.6397C90.1595 59.7847 90.0288 59.9036 89.8753 59.9858C89.7218 60.068 89.5503 60.1109 89.3762 60.1107ZM86.267 60.9284C86.1032 60.9284 85.9416 60.89 85.7953 60.8164L76.0039 55.9124C75.88 55.8503 75.7694 55.7645 75.6787 55.6597C75.5879 55.5549 75.5187 55.4333 75.475 55.3018C75.4312 55.1702 75.4138 55.0314 75.4237 54.8931C75.4337 54.7549 75.4707 54.6199 75.5328 54.496C75.5949 54.372 75.6808 54.2615 75.7855 54.1707C75.8903 54.0799 76.012 54.0107 76.1435 53.967C76.2751 53.9232 76.4139 53.9058 76.5522 53.9158C76.6905 53.9257 76.8254 53.9628 76.9494 54.0249L86.7407 58.9289C86.8647 58.991 86.9752 59.0768 87.0659 59.1816C87.1567 59.2864 87.2259 59.408 87.2697 59.5395C87.3134 59.671 87.3308 59.8099 87.3209 59.9482C87.311 60.0864 87.2739 60.2214 87.2118 60.3453C87.124 60.5206 86.9891 60.6681 86.8222 60.7711C86.6554 60.8741 86.4631 60.9285 86.267 60.9284ZM62.4993 67.0552C62.2907 67.0552 62.0866 66.9934 61.9131 66.8775C61.7395 66.7616 61.6042 66.5969 61.5242 66.4041C61.4443 66.2113 61.4233 65.9992 61.4639 65.7945C61.5045 65.5898 61.6049 65.4017 61.7523 65.254L71.9296 55.0593C72.0275 54.9611 72.1438 54.8833 72.2718 54.8301C72.3998 54.777 72.537 54.7495 72.6757 54.7494C72.8143 54.7493 72.9516 54.7765 73.0797 54.8294C73.2078 54.8824 73.3242 54.9601 73.4223 55.058C73.5203 55.1559 73.5982 55.2722 73.6514 55.4002C73.7045 55.5283 73.7319 55.6655 73.732 55.8041C73.7322 55.9427 73.705 56.08 73.652 56.2081C73.5991 56.3362 73.5214 56.4526 73.4235 56.5507L63.2462 66.7454C63.1483 66.8438 63.0319 66.9218 62.9038 66.975C62.7756 67.0281 62.6381 67.0554 62.4993 67.0552ZM49.5915 74.4036C49.3972 74.4037 49.2066 74.3502 49.0407 74.249C48.8748 74.1477 48.7402 74.0026 48.6516 73.8296C48.5883 73.7063 48.5499 73.5717 48.5386 73.4335C48.5274 73.2954 48.5434 73.1563 48.5859 73.0244C48.6284 72.8924 48.6964 72.7701 48.7862 72.6645C48.8759 72.5588 48.9856 72.4719 49.1089 72.4086L57.8871 67.9051C58.0104 67.8418 58.145 67.8035 58.2831 67.7922C58.4213 67.7809 58.5603 67.797 58.6922 67.8394C58.8242 67.8819 58.9465 67.9499 59.0521 68.0396C59.1578 68.1294 59.2447 68.239 59.308 68.3623C59.3712 68.4857 59.4096 68.6202 59.4209 68.7584C59.4321 68.8966 59.4161 69.0356 59.3736 69.1675C59.3311 69.2995 59.2631 69.4218 59.1734 69.5274C59.0836 69.6331 58.974 69.72 58.8506 69.7833L50.0724 74.2868C49.9237 74.3635 49.7588 74.4036 49.5915 74.4036Z" fill="#B1DBFC"/>
<path d="M47.1153 77.8149C48.9179 77.8149 50.3791 76.3537 50.3791 74.5511C50.3791 72.7486 48.9179 71.2874 47.1153 71.2874C45.3128 71.2874 43.8516 72.7486 43.8516 74.5511C43.8516 76.3537 45.3128 77.8149 47.1153 77.8149Z" fill="#FF656F"/>
<path d="M60.8067 70.9575C62.6093 70.9575 64.0705 69.4963 64.0705 67.6937C64.0705 65.8912 62.6093 64.4299 60.8067 64.4299C59.0042 64.4299 57.543 65.8912 57.543 67.6937C57.543 69.4963 59.0042 70.9575 60.8067 70.9575Z" fill="#FFA85D"/>
<path d="M74.4982 57.2427C76.3007 57.2427 77.7619 55.7814 77.7619 53.9789C77.7619 52.1763 76.3007 50.7151 74.4982 50.7151C72.6956 50.7151 71.2344 52.1763 71.2344 53.9789C71.2344 55.7814 72.6956 57.2427 74.4982 57.2427Z" fill="#FEE55A"/>
<path d="M88.1896 64.1001C89.9921 64.1001 91.4533 62.6388 91.4533 60.8363C91.4533 59.0338 89.9921 57.5725 88.1896 57.5725C86.387 57.5725 84.9258 59.0338 84.9258 60.8363C84.9258 62.6388 86.387 64.1001 88.1896 64.1001Z" fill="#43CB8E"/>
<path d="M101.881 43.5276C103.684 43.5276 105.145 42.0663 105.145 40.2638C105.145 38.4612 103.684 37 101.881 37C100.078 37 98.6172 38.4612 98.6172 40.2638C98.6172 42.0663 100.078 43.5276 101.881 43.5276Z" fill="#23A8FE"/>
<path d="M47.4168 74.5513C47.4168 73.4067 48.0064 72.4005 48.898 71.8178C48.3682 71.4709 47.7486 71.2866 47.1153 71.2874C45.3127 71.2874 43.8516 72.7485 43.8516 74.5511C43.8516 76.3537 45.3129 77.8149 47.1153 77.8149C47.7733 77.8149 48.3854 77.6195 48.898 77.2845C48.0063 76.7021 47.4168 75.6959 47.4168 74.5513Z" fill="#FF4756"/>
<path d="M61.1082 67.6939C61.1082 66.5493 61.6979 65.5431 62.5894 64.9604C62.0596 64.6135 61.44 64.4291 60.8067 64.4299C59.0042 64.4299 57.543 65.8911 57.543 67.6937C57.543 69.4963 59.0042 70.9575 60.8067 70.9575C61.4647 70.9575 62.0768 70.7621 62.5894 70.4271C61.6979 69.8447 61.1082 68.8385 61.1082 67.6939Z" fill="#FF9839"/>
<path d="M74.7996 53.9788C74.7996 52.8342 75.3893 51.828 76.2808 51.2453C75.751 50.8984 75.1314 50.714 74.4982 50.7148C72.6956 50.7148 71.2344 52.176 71.2344 53.9786C71.2344 55.7812 72.6957 57.2424 74.4982 57.2424C75.1562 57.2424 75.7683 57.047 76.2808 56.712C75.3893 56.1296 74.7996 55.1232 74.7996 53.9788Z" fill="#FFD301"/>
<path d="M88.491 60.8362C88.491 59.6916 89.0807 58.6854 89.9722 58.1027C89.4424 57.7558 88.8228 57.5715 88.1896 57.5723C86.387 57.5723 84.9258 59.0335 84.9258 60.8361C84.9258 62.6386 86.3871 64.0998 88.1896 64.0998C88.8476 64.0998 89.4597 63.9044 89.9722 63.5694C89.0805 62.987 88.491 61.9806 88.491 60.8362Z" fill="#00BA66"/>
<path d="M102.182 40.2638C102.182 39.1192 102.772 38.113 103.664 37.5303C103.134 37.1835 102.514 36.9992 101.881 37C100.078 37 98.6172 38.4612 98.6172 40.2638C98.6172 42.0664 100.079 43.5276 101.881 43.5276C102.539 43.5276 103.151 43.3322 103.664 42.9971C102.772 42.4146 102.182 41.4084 102.182 40.2638Z" fill="#0193FA"/>
<path d="M50.6456 86.6321H43.5858C43.3517 86.6321 43.1272 86.7251 42.9616 86.8906C42.7961 87.0561 42.7031 87.2806 42.7031 87.5147V106.944H51.5283V87.5149C51.5283 87.2808 51.4352 87.0563 51.2697 86.8907C51.1042 86.7252 50.8797 86.6322 50.6456 86.6321Z" fill="#FF656F"/>
<path d="M64.337 79.7747H57.2772C57.0431 79.7747 56.8186 79.8677 56.6531 80.0332C56.4875 80.1987 56.3945 80.4232 56.3945 80.6573V106.944H65.2197V80.6574C65.2197 80.4233 65.1267 80.1988 64.9612 80.0332C64.7956 79.8677 64.5711 79.7747 64.337 79.7747Z" fill="#FFA85D"/>
<path d="M78.0284 66H70.9686C70.8527 66 70.7379 66.0228 70.6308 66.0672C70.5237 66.1115 70.4264 66.1766 70.3445 66.2585C70.2625 66.3405 70.1975 66.4378 70.1531 66.5449C70.1088 66.652 70.0859 66.7667 70.0859 66.8826V106.945H78.9112V66.8826C78.9111 66.6486 78.818 66.4241 78.6525 66.2586C78.487 66.093 78.2625 66 78.0284 66Z" fill="#FEE55A"/>
<path d="M91.7198 72.9172H84.66C84.4259 72.9172 84.2014 73.0102 84.0359 73.1758C83.8703 73.3413 83.7773 73.5658 83.7773 73.7999V106.945H92.6026V73.7999C92.6025 73.5658 92.5094 73.3413 92.3439 73.1758C92.1784 73.0103 91.9539 72.9173 91.7198 72.9172Z" fill="#43CB8E"/>
<path d="M105.411 52.2483H98.3514C98.1173 52.2483 97.8928 52.3413 97.7273 52.5068C97.5617 52.6723 97.4688 52.8968 97.4688 53.1309V106.945H106.294V53.1311C106.294 52.8969 106.201 52.6724 106.035 52.5069C105.87 52.3413 105.645 52.2483 105.411 52.2483Z" fill="#23A8FE"/>
<path d="M49.0094 86.6321H43.5858C43.4699 86.6321 43.3551 86.6549 43.248 86.6993C43.1409 86.7436 43.0436 86.8086 42.9616 86.8906C42.8797 86.9726 42.8147 87.0699 42.7703 87.177C42.726 87.284 42.7031 87.3988 42.7031 87.5147V106.944H48.1269V87.5149C48.1268 87.399 48.1497 87.2842 48.194 87.1771C48.2383 87.07 48.3033 86.9727 48.3853 86.8907C48.4672 86.8087 48.5645 86.7437 48.6716 86.6993C48.7787 86.6549 48.8935 86.6321 49.0094 86.6321Z" fill="#FF4756"/>
<path d="M62.7009 79.7747H57.2772C57.0431 79.7747 56.8186 79.8677 56.6531 80.0332C56.4875 80.1987 56.3945 80.4232 56.3945 80.6573V106.944H61.8183V80.6574C61.8182 80.5415 61.8411 80.4267 61.8854 80.3196C61.9298 80.2125 61.9948 80.1152 62.0767 80.0332C62.1587 79.9512 62.256 79.8862 62.3631 79.8419C62.4702 79.7975 62.585 79.7747 62.7009 79.7747Z" fill="#FF9839"/>
<path d="M76.3923 66H70.9686C70.8527 66 70.7379 66.0228 70.6308 66.0672C70.5237 66.1115 70.4264 66.1766 70.3445 66.2585C70.2625 66.3405 70.1975 66.4378 70.1531 66.5449C70.1088 66.652 70.0859 66.7667 70.0859 66.8826V106.945H75.5097V66.8826C75.5097 66.7667 75.5325 66.6519 75.5768 66.5449C75.6212 66.4378 75.6862 66.3404 75.7682 66.2585C75.8501 66.1765 75.9474 66.1115 76.0545 66.0672C76.1616 66.0228 76.2764 66 76.3923 66Z" fill="#FFD301"/>
<path d="M90.0836 72.9172H84.66C84.4259 72.9172 84.2014 73.0102 84.0359 73.1758C83.8703 73.3413 83.7773 73.5658 83.7773 73.7999V106.945H89.2011V73.7999C89.2011 73.684 89.2239 73.5692 89.2682 73.4621C89.3126 73.355 89.3776 73.2577 89.4595 73.1758C89.5415 73.0938 89.6388 73.0288 89.7458 72.9844C89.8529 72.9401 89.9677 72.9172 90.0836 72.9172Z" fill="#00BA66"/>
<path d="M103.775 52.2483H98.3514C98.1173 52.2483 97.8928 52.3413 97.7273 52.5068C97.5617 52.6723 97.4688 52.8968 97.4688 53.1309V106.945H102.892V53.1311C102.892 52.897 102.985 52.6725 103.151 52.5069C103.317 52.3414 103.541 52.2483 103.775 52.2483Z" fill="#0193FA"/>
<path d="M108.656 108H40.3406C39.7576 108 39.2852 107.527 39.2852 106.944C39.2852 106.361 39.7578 105.889 40.3406 105.889H108.656C109.239 105.889 109.712 106.361 109.712 106.944C109.712 107.527 109.239 108 108.656 108Z" fill="#23A8FE"/>
</g>
<defs>
<filter id="filter0_d_1778_176" x="0.666667" y="0.571429" width="146.667" height="146.667" filterUnits="userSpaceOnUse" color-interpolation-filters="sRGB">
<feFlood flood-opacity="0" result="BackgroundImageFix"/>
<feColorMatrix in="SourceAlpha" type="matrix" values="0 0 0 0 0 0 0 0 0 0 0 0 0 0 0 0 0 0 127 0" result="hardAlpha"/>
<feOffset dy="1.90476"/>
<feGaussianBlur stdDeviation="6.66667"/>
<feComposite in2="hardAlpha" operator="out"/>
<feColorMatrix type="matrix" values="0 0 0 0 0.695898 0 0 0 0 0.695898 0 0 0 0 0.695898 0 0 0 0.25 0"/>
<feBlend mode="normal" in2="BackgroundImageFix" result="effect1_dropShadow_1778_176"/>
<feBlend mode="normal" in="SourceGraphic" in2="effect1_dropShadow_1778_176" result="shape"/>
</filter>
<clipPath id="clip0_1778_176">
<rect width="71" height="71" fill="white" transform="translate(39 37)"/>
</clipPath>
</defs>
</svg>
