<svg width="148" height="148" viewBox="0 0 148 148" fill="none" xmlns="http://www.w3.org/2000/svg">
<g filter="url(#filter0_d_1244_2852)">
<circle cx="74" cy="72" r="60" fill="white"/>
</g>
<g clip-path="url(#clip0_1244_2852)">
<path d="M55.2895 62.8617C53.4577 62.8617 51.9727 64.3467 51.9727 66.1785V81.657C51.9727 83.4888 53.4577 84.9738 55.2895 84.9738C57.1213 84.9738 58.6063 83.4888 58.6063 81.657V66.1785C58.6063 64.3467 57.1213 62.8617 55.2895 62.8617ZM92.88 62.8617C91.0482 62.8617 89.5632 64.3467 89.5632 66.1785V81.657C89.5632 83.4888 91.0482 84.9738 92.88 84.9738C94.7118 84.9738 96.1968 83.4888 96.1968 81.657V66.1785C96.1968 64.3467 94.7119 62.8617 92.88 62.8617ZM86.2464 62.8617H61.9231C61.3125 62.8617 60.8175 63.3568 60.8175 63.9674V81.657C60.8169 84.2843 62.6657 86.549 65.2399 87.0745V94.9243C65.2399 96.7561 66.7249 98.2411 68.5567 98.2411C70.3886 98.2411 71.8736 96.7561 71.8736 94.9243V87.185H76.296V94.9243C76.296 96.7561 77.781 98.2411 79.6128 98.2411C81.4447 98.2411 82.9297 96.7561 82.9297 94.9243V87.0745C85.5039 86.549 87.3526 84.2843 87.3521 81.657V63.9674C87.352 63.3568 86.857 62.8617 86.2464 62.8617ZM82.1225 49.7536L84.818 47.0604C85.2571 46.6362 85.2693 45.9363 84.8451 45.497C84.4209 45.0579 83.721 45.0457 83.2818 45.4699C83.2725 45.4788 83.2635 45.4878 83.2546 45.497L80.1147 48.637C78.2122 47.8106 76.1601 47.3841 74.0858 47.3841C72.0116 47.3841 69.9595 47.8106 68.0569 48.637L64.9171 45.4949C64.4779 45.0706 63.7779 45.0828 63.3537 45.522C62.9399 45.9505 62.9399 46.6297 63.3537 47.0581L66.047 49.7535C64.4307 50.8229 63.1063 52.2781 62.1933 53.9875C61.2803 55.6969 60.8075 57.6068 60.8175 59.5448C60.8175 60.1554 61.3125 60.6504 61.9231 60.6504H86.2465C86.8571 60.6504 87.3521 60.1554 87.3521 59.5448C87.362 57.6069 86.8892 55.697 85.9761 53.9876C85.0631 52.2781 83.7387 50.8231 82.1225 49.7536Z" fill="#4CAF50"/>
<path d="M68.5588 56.2276C69.1694 56.2276 69.6644 55.7326 69.6644 55.1219C69.6644 54.5113 69.1694 54.0163 68.5588 54.0163C67.9481 54.0163 67.4531 54.5113 67.4531 55.1219C67.4531 55.7326 67.9481 56.2276 68.5588 56.2276Z" fill="#FAFAFA"/>
<path d="M79.6135 56.2276C80.2241 56.2276 80.7191 55.7326 80.7191 55.1219C80.7191 54.5113 80.2241 54.0163 79.6135 54.0163C79.0028 54.0163 78.5078 54.5113 78.5078 55.1219C78.5078 55.7326 79.0028 56.2276 79.6135 56.2276Z" fill="#FAFAFA"/>
</g>
<defs>
<filter id="filter0_d_1244_2852" x="0.666667" y="0.571429" width="146.667" height="146.667" filterUnits="userSpaceOnUse" color-interpolation-filters="sRGB">
<feFlood flood-opacity="0" result="BackgroundImageFix"/>
<feColorMatrix in="SourceAlpha" type="matrix" values="0 0 0 0 0 0 0 0 0 0 0 0 0 0 0 0 0 0 127 0" result="hardAlpha"/>
<feOffset dy="1.90476"/>
<feGaussianBlur stdDeviation="6.66667"/>
<feComposite in2="hardAlpha" operator="out"/>
<feColorMatrix type="matrix" values="0 0 0 0 0.695898 0 0 0 0 0.695898 0 0 0 0 0.695898 0 0 0 0.25 0"/>
<feBlend mode="normal" in2="BackgroundImageFix" result="effect1_dropShadow_1244_2852"/>
<feBlend mode="normal" in="SourceGraphic" in2="effect1_dropShadow_1244_2852" result="shape"/>
</filter>
<clipPath id="clip0_1244_2852">
<rect width="53.0815" height="53.0815" fill="white" transform="translate(47.543 45.1602)"/>
</clipPath>
</defs>
</svg>
