<svg width="83" height="83" viewBox="0 0 83 83" fill="none" xmlns="http://www.w3.org/2000/svg">
<circle cx="41.5" cy="41.5" r="41.5" fill="#6E7E83"/>
<g clip-path="url(#clip0_1933_88)">
<path d="M25.682 24.3626C25.2439 24.9416 25 25.6539 25 26.416V56.5835C25 57.2915 25.2112 57.9566 25.5926 58.5121L42.007 41.3908L25.682 24.3626ZM43.5099 39.823L48.8349 34.2686L30.1167 23.462C29.3044 22.9927 28.3723 22.8815 27.5026 23.1259L43.5099 39.823ZM43.5099 42.9584L27.3407 59.8239C27.6856 59.9402 28.0471 59.9997 28.4112 60C28.9969 60 29.5829 59.8459 30.1168 59.5377L48.9696 48.6529L43.5099 42.9584ZM56.2425 38.5456L50.7701 35.386L45.0131 41.3906L50.9044 47.5359L56.2425 44.4539C57.3106 43.8374 57.9484 42.7328 57.9484 41.4998C57.9484 40.2665 57.3106 39.1621 56.2425 38.5456Z" fill="#D8E2E4"/>
<path d="M25.682 24.3625C25.2439 24.9415 25 25.6538 25 26.416V56.5835C25 57.2915 25.2112 57.9565 25.5926 58.512L42.007 41.3907L25.682 24.3625ZM43.5099 42.9583L27.3407 59.8238C27.6856 59.9402 28.0471 59.9997 28.4112 60C28.9969 60 29.5829 59.8458 30.1168 59.5376L48.9696 48.6528L43.5099 42.9583ZM56.2425 38.5455L50.7701 35.3859L45.0131 41.3905L50.9044 47.5358L56.2425 44.4538C57.3106 43.8373 57.9484 42.7328 57.9484 41.4997C57.9484 40.2664 57.3106 39.162 56.2425 38.5455Z" fill="white"/>
</g>
<defs>
<clipPath id="clip0_1933_88">
<rect width="37" height="37" fill="white" transform="translate(23 23)"/>
</clipPath>
</defs>
</svg>
