<svg width="148" height="148" viewBox="0 0 148 148" fill="none" xmlns="http://www.w3.org/2000/svg">
<g filter="url(#filter0_d_2030_4809)">
<circle cx="74" cy="72" r="60" fill="white"/>
</g>
<path d="M92.5061 60.4402H56.4888C56.2983 60.4402 56.1096 60.4777 55.9336 60.5506C55.7576 60.6235 55.5977 60.7304 55.463 60.8651C55.3283 60.9998 55.2214 61.1597 55.1485 61.3357C55.0756 61.5117 55.0381 61.7004 55.0381 61.8909V92.0944C55.0381 92.2849 55.0756 92.4735 55.1485 92.6495C55.2214 92.8255 55.3283 92.9855 55.463 93.1202C55.5977 93.2549 55.7576 93.3617 55.9336 93.4346C56.1096 93.5075 56.2983 93.545 56.4888 93.545H62.9098V103.724C62.9098 106.085 64.8243 108 67.1861 108C69.5478 108 71.4624 106.085 71.4624 103.724V93.545H77.4435V103.724C77.4435 106.085 79.358 108 81.7198 108C84.0814 108 85.9961 106.085 85.9961 103.724V93.545H92.5063C92.6968 93.545 92.8855 93.5075 93.0615 93.4346C93.2375 93.3617 93.3974 93.2549 93.5321 93.1202C93.6668 92.9855 93.7737 92.8255 93.8466 92.6495C93.9195 92.4735 93.957 92.2849 93.957 92.0944V61.8909C93.9569 61.5061 93.804 61.1372 93.532 60.8651C93.2599 60.5931 92.8909 60.4402 92.5061 60.4402ZM48.9404 60.4332C46.5787 60.4332 44.6641 62.3477 44.6641 64.7095V82.0781C44.6641 84.4397 46.5785 86.3544 48.9404 86.3544C51.302 86.3544 53.2166 84.4399 53.2166 82.0781V64.7095C53.2165 62.3478 51.302 60.4332 48.9404 60.4332ZM100.055 60.4332C97.6929 60.4332 95.7783 62.3477 95.7783 64.7095V82.0781C95.7783 84.4397 97.6928 86.3544 100.055 86.3544C102.416 86.3544 104.331 84.4399 104.331 82.0781V64.7095C104.331 62.3478 102.416 60.4332 100.055 60.4332ZM56.7802 58.322H92.1296C93.0518 58.322 93.7396 57.4725 93.5502 56.5699C92.3809 50.9969 88.8327 46.3005 84.0182 43.5874L87.0401 38.1349C87.1383 37.9576 87.1621 37.7485 87.1062 37.5537C87.0503 37.3589 86.9193 37.1942 86.742 37.096C86.5647 36.9977 86.3556 36.9739 86.1608 37.0298C85.966 37.0857 85.8013 37.2167 85.7031 37.394L82.6583 42.8876C80.1645 41.7303 77.3852 41.084 74.4549 41.084C71.5244 41.084 68.7452 41.7303 66.2514 42.8876L63.2066 37.3939C63.1074 37.2184 62.9429 37.0892 62.7489 37.0345C62.5549 36.9797 62.3472 37.0038 62.1709 37.1015C61.9946 37.1992 61.864 37.3626 61.8076 37.5561C61.7512 37.7496 61.7735 37.9576 61.8698 38.1347L64.8917 43.5872C60.0771 46.3005 56.529 50.9968 55.3597 56.5699C55.1701 57.4725 55.8579 58.322 56.7802 58.322ZM85.0027 50.1961C85.0027 51.1038 84.2669 51.8399 83.3589 51.8399C82.4512 51.8399 81.7151 51.104 81.7151 50.1961C81.7151 49.2884 82.451 48.5523 83.3589 48.5523C84.2669 48.5523 85.0027 49.2884 85.0027 50.1961ZM65.5506 48.5523C66.4583 48.5523 67.1944 49.2882 67.1944 50.1961C67.1944 51.1038 66.4585 51.8399 65.5506 51.8399C64.6428 51.8399 63.9068 51.104 63.9068 50.1961C63.9068 49.2884 64.6426 48.5523 65.5506 48.5523Z" fill="#AAC148"/>
<defs>
<filter id="filter0_d_2030_4809" x="0.666667" y="0.571429" width="146.667" height="146.667" filterUnits="userSpaceOnUse" color-interpolation-filters="sRGB">
<feFlood flood-opacity="0" result="BackgroundImageFix"/>
<feColorMatrix in="SourceAlpha" type="matrix" values="0 0 0 0 0 0 0 0 0 0 0 0 0 0 0 0 0 0 127 0" result="hardAlpha"/>
<feOffset dy="1.90476"/>
<feGaussianBlur stdDeviation="6.66667"/>
<feComposite in2="hardAlpha" operator="out"/>
<feColorMatrix type="matrix" values="0 0 0 0 0.695898 0 0 0 0 0.695898 0 0 0 0 0.695898 0 0 0 0.25 0"/>
<feBlend mode="normal" in2="BackgroundImageFix" result="effect1_dropShadow_2030_4809"/>
<feBlend mode="normal" in="SourceGraphic" in2="effect1_dropShadow_2030_4809" result="shape"/>
</filter>
</defs>
</svg>
