<svg width="148" height="148" viewBox="0 0 148 148" fill="none" xmlns="http://www.w3.org/2000/svg">
<g filter="url(#filter0_d_2014_1002)">
<circle cx="74" cy="72" r="60" fill="white"/>
</g>
<path d="M102.089 65.7927C101.398 62.9505 100.271 60.2328 98.7471 57.7364L101.891 53.097L93.9036 45.1095L89.2642 48.249C86.7658 46.7259 84.0467 45.5988 81.2034 44.9076L80.1495 39.4117H68.8472L67.7933 44.9076C64.9508 45.5988 62.2324 46.7259 59.7348 48.249L55.0954 45.1073L47.1079 53.0948L50.2474 57.7364C48.7245 60.233 47.5981 62.9508 46.9082 65.7927L41.4102 66.8488V78.1489L46.9082 79.2072C47.5985 82.049 48.7249 84.7667 50.2474 87.2635L47.1057 91.9007L55.0932 99.8882L59.7326 96.7442C62.2293 98.2691 64.9479 99.3964 67.7911 100.086L68.845 105.584H80.1473L81.2012 100.086C84.0451 99.3965 86.7645 98.2692 89.2619 96.7442L93.8991 99.8882L101.887 91.9007L98.7427 87.2635C100.266 84.767 101.393 82.0493 102.084 79.2072L107.582 78.1489V66.8488L102.089 65.7927ZM74.4984 90.301C70.977 90.3014 67.5347 89.2576 64.6066 87.3015C61.6785 85.3455 59.3963 82.565 58.0485 79.3118C56.7008 76.0586 56.348 72.4787 57.0349 69.025C57.7218 65.5713 59.4174 62.3989 61.9074 59.9089C64.3973 57.419 67.5698 55.7233 71.0235 55.0365C74.4772 54.3496 78.057 54.7023 81.3102 56.0501C84.5634 57.3979 87.3439 59.6801 89.2999 62.6082C91.256 65.5362 92.2998 68.9786 92.2994 72.5C92.2994 77.2211 90.4239 81.7489 87.0856 85.0872C83.7473 88.4255 79.2195 90.301 74.4984 90.301Z" fill="#5EB8E1"/>
<path d="M74.4979 49.7755C70.0034 49.7755 65.6099 51.1083 61.8729 53.6053C58.1358 56.1023 55.2232 59.6513 53.5032 63.8037C51.7833 67.956 51.3333 72.5252 52.2101 76.9333C53.0869 81.3414 55.2512 85.3905 58.4293 88.5686C61.6074 91.7466 65.6565 93.9109 70.0646 94.7877C74.4727 95.6646 79.0418 95.2146 83.1941 93.4946C87.3465 91.7746 90.8956 88.862 93.3926 85.125C95.8896 81.388 97.2223 76.9944 97.2223 72.5C97.2223 69.5157 96.6345 66.5607 95.4925 63.8037C94.3505 61.0466 92.6766 58.5415 90.5665 56.4313C88.4563 54.3212 85.9512 52.6473 83.1941 51.5053C80.4371 50.3633 77.4821 49.7755 74.4979 49.7755ZM74.4979 90.301C70.9765 90.3014 67.5342 89.2576 64.6061 87.3015C61.678 85.3454 59.3958 82.565 58.048 79.3118C56.7003 76.0586 56.3475 72.4787 57.0344 69.025C57.7213 65.5713 59.4169 62.3989 61.9069 59.9089C64.3968 57.419 67.5693 55.7233 71.023 55.0365C74.4767 54.3496 78.0565 54.7023 81.3097 56.0501C84.5629 57.3979 87.3434 59.6801 89.2995 62.6082C91.2555 65.5362 92.2994 68.9786 92.2989 72.5C92.2989 77.2211 90.4235 81.7488 87.0851 85.0872C83.7468 88.4255 79.219 90.301 74.4979 90.301Z" fill="#5555A5"/>
<path d="M69.7905 73.3985L67.605 67.967C67.5225 67.7625 67.381 67.5872 67.1984 67.4635C67.0158 67.3398 66.8005 67.2733 66.58 67.2725C66.3601 67.2721 66.145 67.3371 65.9621 67.4592C65.7792 67.5812 65.6367 67.7549 65.5527 67.9581L63.3007 73.3874L61.8341 76.9374C61.7784 77.0722 61.7498 77.2166 61.75 77.3624C61.7502 77.5082 61.779 77.6525 61.835 77.7871C61.8909 77.9218 61.9728 78.0441 62.076 78.1471C62.1792 78.2501 62.3017 78.3317 62.4365 78.3874C62.5712 78.443 62.7156 78.4716 62.8614 78.4714C63.0072 78.4713 63.1515 78.4424 63.2862 78.3865C63.4208 78.3305 63.5431 78.2486 63.6461 78.1454C63.7491 78.0422 63.8308 77.9197 63.8864 77.785L65.0668 74.9272H68.0199L69.1692 77.7761C69.2208 77.9151 69.2998 78.0424 69.4014 78.1505C69.5031 78.2585 69.6254 78.345 69.761 78.4049C69.8967 78.4649 70.043 78.497 70.1913 78.4994C70.3396 78.5018 70.4869 78.4745 70.6244 78.419C70.762 78.3635 70.887 78.281 70.9921 78.1763C71.0972 78.0717 71.1802 77.947 71.2363 77.8097C71.2924 77.6724 71.3204 77.5253 71.3186 77.377C71.3169 77.2286 71.2854 77.0822 71.226 76.9463L69.7905 73.3985ZM67.128 72.7196H65.9831L66.5622 71.3151L67.128 72.7196ZM84.0526 66.5093C83.7584 66.5093 83.4762 66.6262 83.2682 66.8342C83.0601 67.0423 82.9432 67.3244 82.9432 67.6187V77.3812C82.9432 77.6754 83.0601 77.9575 83.2682 78.1656C83.4762 78.3736 83.7584 78.4905 84.0526 78.4905C84.3468 78.4905 84.629 78.3736 84.8371 78.1656C85.0451 77.9575 85.162 77.6754 85.162 77.3812V67.6187C85.162 67.3244 85.0451 67.0423 84.8371 66.8342C84.629 66.6262 84.3468 66.5093 84.0526 66.5093ZM77.0613 66.5093H74.2369C73.9426 66.5093 73.6605 66.6262 73.4524 66.8342C73.2444 67.0423 73.1275 67.3244 73.1275 67.6187V77.3812C73.1275 77.6754 73.2444 77.9575 73.4524 78.1656C73.6605 78.3736 73.9426 78.4905 74.2369 78.4905C74.5311 78.4905 74.8133 78.3736 75.0213 78.1656C75.2294 77.9575 75.3462 77.6754 75.3462 77.3812V73.6093H77.0613C78.0029 73.6093 78.9058 73.2353 79.5716 72.5695C80.2373 71.9038 80.6113 71.0008 80.6113 70.0593C80.6113 69.1178 80.2373 68.2148 79.5716 67.549C78.9058 66.8833 78.0029 66.5093 77.0613 66.5093ZM77.0613 71.3905H75.3462V68.728H77.0613C77.4144 68.728 77.753 68.8683 78.0027 69.1179C78.2523 69.3676 78.3926 69.7062 78.3926 70.0593C78.3926 70.4123 78.2523 70.751 78.0027 71.0006C77.753 71.2503 77.4144 71.3905 77.0613 71.3905Z" fill="#837AFF"/>
<defs>
<filter id="filter0_d_2014_1002" x="0.666667" y="0.571429" width="146.667" height="146.667" filterUnits="userSpaceOnUse" color-interpolation-filters="sRGB">
<feFlood flood-opacity="0" result="BackgroundImageFix"/>
<feColorMatrix in="SourceAlpha" type="matrix" values="0 0 0 0 0 0 0 0 0 0 0 0 0 0 0 0 0 0 127 0" result="hardAlpha"/>
<feOffset dy="1.90476"/>
<feGaussianBlur stdDeviation="6.66667"/>
<feComposite in2="hardAlpha" operator="out"/>
<feColorMatrix type="matrix" values="0 0 0 0 0.695898 0 0 0 0 0.695898 0 0 0 0 0.695898 0 0 0 0.25 0"/>
<feBlend mode="normal" in2="BackgroundImageFix" result="effect1_dropShadow_2014_1002"/>
<feBlend mode="normal" in="SourceGraphic" in2="effect1_dropShadow_2014_1002" result="shape"/>
</filter>
</defs>
</svg>
