<svg width="148" height="148" viewBox="0 0 148 148" fill="none" xmlns="http://www.w3.org/2000/svg">
<g filter="url(#filter0_d_2030_4938)">
<circle cx="74" cy="72" r="60" fill="white"/>
</g>
<g clip-path="url(#clip0_2030_4938)">
<path d="M93.5645 38.0402V106.96C93.5644 107.236 93.4548 107.5 93.2598 107.695C93.0647 107.89 92.8002 108 92.5244 108H48.1494C47.8739 108 47.6095 107.891 47.4145 107.696C47.2191 107.501 47.1094 107.236 47.1094 106.96V38.0402C47.1094 37.7644 47.219 37.4998 47.4141 37.3048C47.6091 37.1097 47.8736 37.0001 48.1494 37H92.5244C93.0985 37 93.5645 37.4659 93.5645 38.0402Z" fill="#56788B"/>
<path d="M93.5645 38.0402V106.96C93.5644 107.236 93.4548 107.5 93.2598 107.695C93.0647 107.89 92.8002 108 92.5244 108H48.1494C47.8739 108 47.6095 107.891 47.4145 107.696C47.2191 107.501 47.1094 107.236 47.1094 106.96V105.226H89.751C90.3251 105.226 90.791 104.76 90.791 104.186V38.0402C90.7909 37.7644 90.6813 37.4998 90.4863 37.3048C90.2913 37.1097 90.0268 37.0001 89.751 37H92.5244C93.0985 37 93.5645 37.4659 93.5645 38.0402Z" fill="#415E6F"/>
<path d="M89.4004 42.1319V99.939C89.4004 100.09 89.3671 100.239 89.3047 100.373C89.2548 100.484 89.1841 100.587 89.0953 100.674L86.1541 103.616C86.0574 103.713 85.9426 103.789 85.8163 103.842C85.6899 103.894 85.5545 103.921 85.4177 103.921H55.2469C54.9709 103.921 54.7061 103.811 54.5119 103.616L51.5693 100.674C51.3747 100.479 51.2655 100.215 51.2656 99.939V42.1319C51.2656 41.9952 51.2924 41.86 51.3446 41.7337C51.3969 41.6075 51.4735 41.4928 51.5701 41.3962C51.6667 41.2996 51.7813 41.223 51.9076 41.1707C52.0338 41.1185 52.1691 41.0916 52.3057 41.0917H58.5459C58.8219 41.0917 59.0853 41.2012 59.2809 41.3968L61.6979 43.8142C61.8387 43.9542 62.0291 44.033 62.2276 44.0333H78.437C78.6353 44.0333 78.8267 43.9543 78.9667 43.8142L81.3838 41.3968C81.4805 41.3 81.5953 41.2233 81.7216 41.171C81.8479 41.1186 81.9834 41.0917 82.1201 41.0917H88.3604C88.6362 41.0917 88.9007 41.2014 89.0957 41.3964C89.2908 41.5915 89.4004 41.856 89.4004 42.1319Z" fill="#99E7FA"/>
<path d="M89.403 47.2899V99.939C89.403 100.09 89.3697 100.239 89.3073 100.373H58.911C57.7614 100.373 56.8281 99.4411 56.8281 98.2898V49.3732C56.8281 48.2235 57.7614 47.2899 58.911 47.2899H89.403Z" fill="#4DD4F7"/>
<path d="M101.896 59.4202V96.4118C101.897 96.5485 101.87 96.6837 101.817 96.81C101.765 96.9362 101.689 97.0509 101.592 97.1475C101.495 97.2441 101.381 97.3207 101.255 97.373C101.128 97.4252 100.993 97.4521 100.856 97.452H60.6416C60.0675 97.452 59.6016 96.986 59.6016 96.4118V51.104L99.123 58.8752L101.896 59.4202Z" fill="#FDEDA5"/>
<path d="M101.899 59.4202V96.4119C101.899 96.5485 101.873 96.6838 101.82 96.81C101.768 96.9363 101.692 97.0509 101.595 97.1475C101.498 97.2441 101.384 97.3208 101.257 97.373C101.131 97.4253 100.996 97.4521 100.859 97.4521H98.0859C98.6614 97.4521 99.126 96.986 99.126 96.4119V58.8752L101.899 59.4202Z" fill="#F9D564"/>
<path d="M101.896 51.104V59.4203H59.6016V51.104C59.6016 50.8282 59.7112 50.5637 59.9063 50.3686C60.1013 50.1736 60.3658 50.064 60.6416 50.0638H100.856C101.432 50.0638 101.896 50.5298 101.896 51.104Z" fill="#FF4656"/>
<path d="M101.899 51.104V59.4203H99.126V51.104C99.126 50.9674 99.0992 50.8321 99.047 50.7059C98.9947 50.5797 98.9181 50.465 98.8215 50.3684C98.7249 50.2718 98.6103 50.1952 98.484 50.1429C98.3578 50.0907 98.2225 50.0638 98.0859 50.0638H100.859C101.435 50.0638 101.899 50.5298 101.899 51.104Z" fill="#ED1D5D"/>
<path d="M81.2687 71.7507H78.5689C78.4323 71.7507 78.297 71.7776 78.1708 71.8299C78.0447 71.8822 77.93 71.9588 77.8334 72.0554C77.7368 72.152 77.6602 72.2667 77.608 72.3929C77.5557 72.5191 77.5288 72.6543 77.5288 72.7909V83.5919C77.5288 83.8678 77.6384 84.1323 77.8335 84.3273C78.0285 84.5224 78.293 84.632 78.5689 84.632C78.8447 84.632 79.1093 84.5224 79.3043 84.3273C79.4993 84.1323 79.6089 83.8678 79.6089 83.5919V79.2317H81.2687C83.3309 79.2317 85.0085 77.5537 85.0085 75.4911C85.0085 73.4288 83.3309 71.7507 81.2687 71.7507ZM81.2687 77.1513H79.6089V73.8312H81.2687C82.1839 73.8312 82.9284 74.5759 82.9284 75.4913C82.9284 76.4066 82.1839 77.1513 81.2687 77.1513ZM72.0175 71.7507C70.1339 71.7507 68.6016 73.2833 68.6016 75.1672V83.5919C68.6016 83.8678 68.7111 84.1323 68.9062 84.3273C69.1012 84.5224 69.3658 84.632 69.6416 84.632C69.9174 84.632 70.182 84.5224 70.377 84.3273C70.5721 84.1323 70.6816 83.8678 70.6816 83.5919V80.6187H73.3532V83.5919C73.3532 83.8678 73.4627 84.1323 73.6578 84.3273C73.8528 84.5224 74.1174 84.632 74.3932 84.632C74.669 84.632 74.9336 84.5224 75.1286 84.3273C75.3237 84.1323 75.4332 83.8678 75.4332 83.5919V75.1672C75.4332 73.2835 73.9009 71.7507 72.0175 71.7507ZM70.6818 78.5383V75.1673C70.6818 74.4307 71.281 73.8312 72.0176 73.8312C72.7541 73.8312 73.3533 74.4306 73.3533 75.1673V78.5383H70.6818ZM91.8659 82.5519H90.5302V73.8312H91.8659C92.4404 73.8312 92.9059 73.3656 92.9059 72.791C92.9059 72.2165 92.4404 71.7509 91.8659 71.7509H87.1143C86.5397 71.7509 86.0742 72.2165 86.0742 72.791C86.0742 73.3656 86.5397 73.8312 87.1143 73.8312H88.4501V82.5519H87.1143C86.5397 82.5519 86.0742 83.0175 86.0742 83.5921C86.0742 84.1666 86.5397 84.6322 87.1143 84.6322H91.8659C92.4404 84.6322 92.9059 84.1666 92.9059 83.5921C92.9059 83.0175 92.4404 82.5519 91.8659 82.5519Z" fill="#56788B"/>
<path d="M64.4152 55.7821C64.9897 55.7821 65.4554 55.3164 65.4554 54.742C65.4554 54.1675 64.9897 53.7018 64.4152 53.7018C63.8407 53.7018 63.375 54.1675 63.375 54.742C63.375 55.3164 63.8407 55.7821 64.4152 55.7821Z" fill="#EEF0F5"/>
<path d="M68.4386 55.7823C69.0131 55.7823 69.4788 55.3166 69.4788 54.7421C69.4788 54.1676 69.0131 53.7019 68.4386 53.7019C67.8641 53.7019 67.3984 54.1676 67.3984 54.7421C67.3984 55.3166 67.8641 55.7823 68.4386 55.7823Z" fill="#EEF0F5"/>
<path d="M72.4621 55.7823C73.0365 55.7823 73.5022 55.3166 73.5022 54.7421C73.5022 54.1676 73.0365 53.7019 72.4621 53.7019C71.8876 53.7019 71.4219 54.1676 71.4219 54.7421C71.4219 55.3166 71.8876 55.7823 72.4621 55.7823Z" fill="#EEF0F5"/>
<path d="M74.7197 67.2615C75.2941 67.2615 75.7598 66.7958 75.7598 66.2214C75.7598 65.647 75.2941 65.1814 74.7197 65.1814C74.1453 65.1814 73.6797 65.647 73.6797 66.2214C73.6797 66.7958 74.1453 67.2615 74.7197 67.2615Z" fill="#F2A34E"/>
<path d="M80.751 67.2616C81.3254 67.2616 81.791 66.796 81.791 66.2216C81.791 65.6472 81.3254 65.1815 80.751 65.1815C80.1766 65.1815 79.7109 65.6472 79.7109 66.2216C79.7109 66.796 80.1766 67.2616 80.751 67.2616Z" fill="#F2A34E"/>
<path d="M86.7822 67.2617C87.3566 67.2617 87.8223 66.7961 87.8223 66.2217C87.8223 65.6473 87.3566 65.1816 86.7822 65.1816C86.2078 65.1816 85.7422 65.6473 85.7422 66.2217C85.7422 66.7961 86.2078 67.2617 86.7822 67.2617Z" fill="#F2A34E"/>
<path d="M74.7197 91.2009C75.2941 91.2009 75.7598 90.7353 75.7598 90.1609C75.7598 89.5865 75.2941 89.1208 74.7197 89.1208C74.1453 89.1208 73.6797 89.5865 73.6797 90.1609C73.6797 90.7353 74.1453 91.2009 74.7197 91.2009Z" fill="#F2A34E"/>
<path d="M80.751 91.201C81.3254 91.201 81.791 90.7354 81.791 90.161C81.791 89.5866 81.3254 89.121 80.751 89.121C80.1766 89.121 79.7109 89.5866 79.7109 90.161C79.7109 90.7354 80.1766 91.201 80.751 91.201Z" fill="#F2A34E"/>
<path d="M86.7822 91.2012C87.3566 91.2012 87.8223 90.7355 87.8223 90.1611C87.8223 89.5867 87.3566 89.1211 86.7822 89.1211C86.2078 89.1211 85.7422 89.5867 85.7422 90.1611C85.7422 90.7355 86.2078 91.2012 86.7822 91.2012Z" fill="#F2A34E"/>
</g>
<defs>
<filter id="filter0_d_2030_4938" x="0.666667" y="0.571429" width="146.667" height="146.667" filterUnits="userSpaceOnUse" color-interpolation-filters="sRGB">
<feFlood flood-opacity="0" result="BackgroundImageFix"/>
<feColorMatrix in="SourceAlpha" type="matrix" values="0 0 0 0 0 0 0 0 0 0 0 0 0 0 0 0 0 0 127 0" result="hardAlpha"/>
<feOffset dy="1.90476"/>
<feGaussianBlur stdDeviation="6.66667"/>
<feComposite in2="hardAlpha" operator="out"/>
<feColorMatrix type="matrix" values="0 0 0 0 0.695898 0 0 0 0 0.695898 0 0 0 0 0.695898 0 0 0 0.25 0"/>
<feBlend mode="normal" in2="BackgroundImageFix" result="effect1_dropShadow_2030_4938"/>
<feBlend mode="normal" in="SourceGraphic" in2="effect1_dropShadow_2030_4938" result="shape"/>
</filter>
<clipPath id="clip0_2030_4938">
<rect width="71" height="71" fill="white" transform="translate(39 37)"/>
</clipPath>
</defs>
</svg>
