<svg width="148" height="148" viewBox="0 0 148 148" fill="none" xmlns="http://www.w3.org/2000/svg">
<g filter="url(#filter0_d_2030_379)">
<circle cx="74" cy="72" r="60" fill="white"/>
</g>
<path d="M64.5156 92.4688L66.7344 94.6875H82.2656L84.4844 92.4688H105.562V54.75C105.562 53.5731 105.095 52.4444 104.263 51.6122C103.431 50.78 102.302 50.3125 101.125 50.3125H47.875C46.6981 50.3125 45.5694 50.78 44.7372 51.6122C43.905 52.4444 43.4375 53.5731 43.4375 54.75V92.4688H64.5156Z" fill="#526173"/>
<path d="M47.875 54.75H101.125V88.0312H47.875V54.75Z" fill="#64A5F8"/>
<path d="M53.4219 54.75C52.5392 54.75 51.6927 55.1006 51.0685 55.7248C50.4444 56.3489 50.0938 57.1955 50.0938 58.0781V84.7031C50.0938 85.5858 50.4444 86.4323 51.0685 87.0565C51.6927 87.6806 52.5392 88.0312 53.4219 88.0312H101.125V54.75H53.4219Z" fill="#84B7F9"/>
<path d="M93.3594 43.6562H55.6406C53.8026 43.6562 52.3125 45.1463 52.3125 46.9844V80.2656C52.3125 82.1037 53.8026 83.5938 55.6406 83.5938H93.3594C95.1974 83.5938 96.6875 82.1037 96.6875 80.2656V46.9844C96.6875 45.1463 95.1974 43.6562 93.3594 43.6562Z" fill="#E3E8F6"/>
<path d="M93.3594 43.6562H58.9688C57.1307 43.6562 55.6406 45.1463 55.6406 46.9844V80.2656C55.6406 82.1037 57.1307 83.5938 58.9688 83.5938H93.3594C95.1974 83.5938 96.6875 82.1037 96.6875 80.2656V46.9844C96.6875 45.1463 95.1974 43.6562 93.3594 43.6562Z" fill="#F8F7FE"/>
<path d="M93.3594 43.6562H55.6406C54.758 43.6562 53.9114 44.0069 53.2873 44.631C52.6631 45.2552 52.3125 46.1017 52.3125 46.9844V52.5312H96.6875V46.9844C96.6875 46.1017 96.3369 45.2552 95.7127 44.631C95.0886 44.0069 94.2421 43.6562 93.3594 43.6562Z" fill="#64A5F8"/>
<path d="M93.3594 43.6562H58.9688C58.0861 43.6562 57.2396 44.0069 56.6154 44.631C55.9913 45.2552 55.6406 46.1017 55.6406 46.9844V52.5312H96.6875V46.9844C96.6875 46.1017 96.3369 45.2552 95.7127 44.631C95.0886 44.0069 94.2421 43.6562 93.3594 43.6562Z" fill="#84B7F9"/>
<path d="M46.7656 101.344C45.2945 101.344 43.8836 100.759 42.8434 99.7191C41.8032 98.6789 41.2188 97.268 41.2188 95.7969V92.4688H64.5156L66.7344 94.6875H82.2656L84.4844 92.4688H107.781V95.7969C107.781 97.268 107.197 98.6789 106.157 99.7191C105.116 100.759 103.705 101.344 102.234 101.344H46.7656Z" fill="#314157"/>
<path d="M107.781 95.7969V92.4688H84.4844L82.2656 94.6875H66.7344L64.5156 92.4688H44.5469V95.7969C44.5469 97.268 45.1313 98.6789 46.1715 99.7191C47.2118 100.759 48.6226 101.344 50.0938 101.344H102.234C103.705 101.344 105.116 100.759 106.157 99.7191C107.197 98.6789 107.781 97.268 107.781 95.7969Z" fill="#47566A"/>
<path d="M92.25 49.2031H90.0312C89.737 49.2031 89.4549 49.0862 89.2468 48.8782C89.0388 48.6701 88.9219 48.388 88.9219 48.0938C88.9219 47.7995 89.0388 47.5174 89.2468 47.3093C89.4549 47.1013 89.737 46.9844 90.0312 46.9844H92.25C92.5442 46.9844 92.8264 47.1013 93.0344 47.3093C93.2425 47.5174 93.3594 47.7995 93.3594 48.0938C93.3594 48.388 93.2425 48.6701 93.0344 48.8782C92.8264 49.0862 92.5442 49.2031 92.25 49.2031ZM85.5938 49.2031H83.375C83.0808 49.2031 82.7986 49.0862 82.5906 48.8782C82.3825 48.6701 82.2656 48.388 82.2656 48.0938C82.2656 47.7995 82.3825 47.5174 82.5906 47.3093C82.7986 47.1013 83.0808 46.9844 83.375 46.9844H85.5938C85.888 46.9844 86.1701 47.1013 86.3782 47.3093C86.5862 47.5174 86.7031 47.7995 86.7031 48.0938C86.7031 48.388 86.5862 48.6701 86.3782 48.8782C86.1701 49.0862 85.888 49.2031 85.5938 49.2031Z" fill="white"/>
<path d="M66.7344 55.8594C65.5579 55.8607 64.43 56.3286 63.598 57.1605C62.7661 57.9925 62.2982 59.1204 62.2969 60.2969V66.9531C62.2969 67.2473 62.4138 67.5295 62.6218 67.7376C62.8299 67.9456 63.112 68.0625 63.4062 68.0625C63.7005 68.0625 63.9826 67.9456 64.1907 67.7376C64.3987 67.5295 64.5156 67.2473 64.5156 66.9531V64.7344H68.9531V66.9531C68.9531 67.2473 69.07 67.5295 69.2781 67.7376C69.4861 67.9456 69.7683 68.0625 70.0625 68.0625C70.3567 68.0625 70.6389 67.9456 70.8469 67.7376C71.055 67.5295 71.1719 67.2473 71.1719 66.9531V60.2969C71.1706 59.1204 70.7026 57.9925 69.8707 57.1605C69.0388 56.3286 67.9109 55.8607 66.7344 55.8594ZM64.5156 62.5156V60.2969C64.5156 59.7084 64.7494 59.1441 65.1655 58.728C65.5816 58.3119 66.1459 58.0781 66.7344 58.0781C67.3228 58.0781 67.8872 58.3119 68.3033 58.728C68.7194 59.1441 68.9531 59.7084 68.9531 60.2969V62.5156H64.5156ZM77.2734 55.8594H74.5C74.2058 55.8594 73.9236 55.9763 73.7156 56.1843C73.5075 56.3924 73.3906 56.6745 73.3906 56.9688V66.9531C73.3906 67.2473 73.5075 67.5295 73.7156 67.7376C73.9236 67.9456 74.2058 68.0625 74.5 68.0625C74.7942 68.0625 75.0764 67.9456 75.2844 67.7376C75.4925 67.5295 75.6094 67.2473 75.6094 66.9531V63.625H77.2734C78.3032 63.625 79.2908 63.2159 80.019 62.4878C80.7472 61.7596 81.1562 60.772 81.1562 59.7422C81.1562 58.7124 80.7472 57.7248 80.019 56.9966C79.2908 56.2685 78.3032 55.8594 77.2734 55.8594ZM77.2734 61.4062H75.6094V58.0781H77.2734C77.7148 58.0781 78.138 58.2534 78.4501 58.5655C78.7622 58.8776 78.9375 59.3009 78.9375 59.7422C78.9375 60.1835 78.7622 60.6068 78.4501 60.9189C78.138 61.2309 77.7148 61.4062 77.2734 61.4062ZM84.4844 55.8594C84.1902 55.8594 83.908 55.9763 83.6999 56.1843C83.4919 56.3924 83.375 56.6745 83.375 56.9688V66.9531C83.375 67.2473 83.4919 67.5295 83.6999 67.7376C83.908 67.9456 84.1902 68.0625 84.4844 68.0625C84.7786 68.0625 85.0608 67.9456 85.2688 67.7376C85.4769 67.5295 85.5938 67.2473 85.5938 66.9531V56.9688C85.5938 56.6745 85.4769 56.3924 85.2688 56.1843C85.0608 55.9763 84.7786 55.8594 84.4844 55.8594Z" fill="#84B7F9"/>
<path d="M70.0633 83.5937H67.8446V79.616L64.8398 76.613L66.4086 75.0432L69.7383 78.3713C69.9463 78.5796 70.0632 78.8619 70.0633 79.1562V83.5937ZM81.1571 83.5937H78.9383V79.1562C78.9385 78.8619 79.0554 78.5796 79.2634 78.3713L82.593 75.0432L84.1618 76.613L81.1571 79.616V83.5937ZM73.3915 74.7181H75.6102V83.5937H73.3915V74.7181Z" fill="#94C1FA"/>
<path d="M74.5 75.8281C75.7254 75.8281 76.7188 74.8348 76.7188 73.6094C76.7188 72.384 75.7254 71.3906 74.5 71.3906C73.2746 71.3906 72.2812 72.384 72.2812 73.6094C72.2812 74.8348 73.2746 75.8281 74.5 75.8281Z" fill="#F3A845"/>
<path d="M75.6094 75.5204C76.2221 75.5204 76.7188 74.6648 76.7188 73.6094C76.7188 72.554 76.2221 71.6984 75.6094 71.6984C74.9967 71.6984 74.5 72.554 74.5 73.6094C74.5 74.6648 74.9967 75.5204 75.6094 75.5204Z" fill="#EECC61"/>
<path d="M84.4844 76.9375C85.7098 76.9375 86.7031 75.9441 86.7031 74.7188C86.7031 73.4934 85.7098 72.5 84.4844 72.5C83.259 72.5 82.2656 73.4934 82.2656 74.7188C82.2656 75.9441 83.259 76.9375 84.4844 76.9375Z" fill="#F3A845"/>
<path d="M85.5938 76.6298C86.2064 76.6298 86.7031 75.7742 86.7031 74.7188C86.7031 73.6633 86.2064 72.8077 85.5938 72.8077C84.9811 72.8077 84.4844 73.6633 84.4844 74.7188C84.4844 75.7742 84.9811 76.6298 85.5938 76.6298Z" fill="#EECC61"/>
<path d="M64.5156 76.9375C65.741 76.9375 66.7344 75.9441 66.7344 74.7188C66.7344 73.4934 65.741 72.5 64.5156 72.5C63.2902 72.5 62.2969 73.4934 62.2969 74.7188C62.2969 75.9441 63.2902 76.9375 64.5156 76.9375Z" fill="#F3A845"/>
<path d="M65.625 76.6298C66.2377 76.6298 66.7344 75.7742 66.7344 74.7188C66.7344 73.6633 66.2377 72.8077 65.625 72.8077C65.0123 72.8077 64.5156 73.6633 64.5156 74.7188C64.5156 75.7742 65.0123 76.6298 65.625 76.6298Z" fill="#EECC61"/>
<defs>
<filter id="filter0_d_2030_379" x="0.666667" y="0.571429" width="146.667" height="146.667" filterUnits="userSpaceOnUse" color-interpolation-filters="sRGB">
<feFlood flood-opacity="0" result="BackgroundImageFix"/>
<feColorMatrix in="SourceAlpha" type="matrix" values="0 0 0 0 0 0 0 0 0 0 0 0 0 0 0 0 0 0 127 0" result="hardAlpha"/>
<feOffset dy="1.90476"/>
<feGaussianBlur stdDeviation="6.66667"/>
<feComposite in2="hardAlpha" operator="out"/>
<feColorMatrix type="matrix" values="0 0 0 0 0.695898 0 0 0 0 0.695898 0 0 0 0 0.695898 0 0 0 0.25 0"/>
<feBlend mode="normal" in2="BackgroundImageFix" result="effect1_dropShadow_2030_379"/>
<feBlend mode="normal" in="SourceGraphic" in2="effect1_dropShadow_2030_379" result="shape"/>
</filter>
</defs>
</svg>
