<svg width="148" height="148" viewBox="0 0 148 148" fill="none" xmlns="http://www.w3.org/2000/svg">
<g filter="url(#filter0_d_2030_7522)">
<circle cx="74" cy="72" r="60" fill="white"/>
</g>
<path d="M105.268 47.65V93.8C105.268 95.3692 104.644 96.8741 103.535 97.9837C102.425 99.0933 100.92 99.7167 99.351 99.7167H49.651C48.0818 99.7167 46.5769 99.0933 45.4673 97.9837C44.3577 96.8741 43.7344 95.3692 43.7344 93.8V47.65L44.9177 46.4667H104.084L105.268 47.65Z" fill="#2A2A49"/>
<path d="M105.268 44.1V47.65H43.7344V44.1C43.7344 42.5308 44.3577 41.0259 45.4673 39.9163C46.5769 38.8067 48.0818 38.1833 49.651 38.1833H99.351C100.128 38.1833 100.897 38.3364 101.615 38.6337C102.333 38.9311 102.985 39.3669 103.535 39.9163C104.084 40.4657 104.52 41.118 104.817 41.8358C105.115 42.5536 105.268 43.323 105.268 44.1Z" fill="#444477"/>
<path d="M69.6182 92.6167H67.403V104.45C67.4011 105.077 67.1512 105.678 66.7078 106.121C66.2643 106.565 65.6634 106.815 65.0363 106.817H57.9363C57.3092 106.815 56.7084 106.565 56.2649 106.121C55.8215 105.678 55.5715 105.077 55.5697 104.45V92.6167H53.3545C52.863 92.6095 52.3841 92.4608 51.9751 92.1883C51.566 91.9159 51.2442 91.5313 51.0481 91.0806C50.8521 90.6299 50.7901 90.1323 50.8696 89.6473C50.9492 89.1623 51.1669 88.7105 51.4966 88.346L59.6285 79.258C59.8603 78.9934 60.146 78.7813 60.4664 78.636C60.7868 78.4907 61.1345 78.4155 61.4863 78.4155C61.8382 78.4155 62.1859 78.4907 62.5063 78.636C62.8267 78.7813 63.1124 78.9934 63.3442 79.258L71.476 88.346C71.8058 88.7105 72.0235 89.1623 72.103 89.6473C72.1826 90.1323 72.1206 90.6299 71.9246 91.0806C71.7285 91.5313 71.4067 91.9159 70.9976 92.1883C70.5886 92.4608 70.1096 92.6095 69.6182 92.6167Z" fill="#25E572"/>
<path d="M79.3869 92.6166H81.6021V80.7833C81.604 80.1562 81.8539 79.5553 82.2973 79.1119C82.7408 78.6684 83.3417 78.4185 83.9688 78.4166H91.0688C91.6959 78.4185 92.2967 78.6684 92.7402 79.1119C93.1836 79.5553 93.4335 80.1562 93.4354 80.7833V92.6166H95.6494C96.1409 92.6238 96.6198 92.7726 97.0288 93.045C97.4379 93.3175 97.7597 93.7021 97.9558 94.1527C98.1519 94.6034 98.2138 95.1011 98.1343 95.5861C98.0547 96.0711 97.837 96.5228 97.5073 96.8873L89.3754 105.975C89.1436 106.24 88.8579 106.452 88.5375 106.597C88.2171 106.743 87.8694 106.818 87.5176 106.818C87.1658 106.818 86.818 106.743 86.4976 106.597C86.1772 106.452 85.8915 106.24 85.6597 105.975L77.5279 96.8873C77.1981 96.5228 76.9803 96.0709 76.9008 95.5858C76.8213 95.1007 76.8834 94.6029 77.0796 94.1522C77.2758 93.7015 77.5978 93.3169 78.007 93.0445C78.4163 92.7722 78.8954 92.6236 79.3869 92.6166Z" fill="#FF4D4D"/>
<path d="M88.7047 67.7667H86.338V58.3H88.7047C89.0185 58.3 89.3195 58.1753 89.5414 57.9534C89.7634 57.7315 89.888 57.4305 89.888 57.1167C89.888 56.8028 89.7634 56.5019 89.5414 56.2799C89.3195 56.058 89.0185 55.9333 88.7047 55.9333H81.6047C81.2908 55.9333 80.9899 56.058 80.7679 56.2799C80.546 56.5019 80.4214 56.8028 80.4214 57.1167C80.4214 57.4305 80.546 57.7315 80.7679 57.9534C80.9899 58.1753 81.2908 58.3 81.6047 58.3H83.9714V67.7667H81.6047C81.2908 67.7667 80.9899 67.8914 80.7679 68.1133C80.546 68.3352 80.4214 68.6362 80.4214 68.95C80.4214 69.2639 80.546 69.5648 80.7679 69.7868C80.9899 70.0087 81.2908 70.1334 81.6047 70.1334H88.7047C89.0185 70.1334 89.3195 70.0087 89.5414 69.7868C89.7634 69.5648 89.888 69.2639 89.888 68.95C89.888 68.6362 89.7634 68.3352 89.5414 68.1133C89.3195 67.8914 89.0185 67.7667 88.7047 67.7667ZM64.4464 55.9333C63.3479 55.9333 62.2945 56.3697 61.5178 57.1464C60.741 57.9231 60.3047 58.9766 60.3047 60.075V68.95C60.3047 69.2639 60.4294 69.5648 60.6513 69.7868C60.8732 70.0087 61.1742 70.1334 61.488 70.1334C61.8019 70.1334 62.1028 70.0087 62.3248 69.7868C62.5467 69.5648 62.6714 69.2639 62.6714 68.95V64.2167H66.2214V68.95C66.2214 69.2639 66.346 69.5648 66.5679 69.7868C66.7899 70.0087 67.0908 70.1334 67.4047 70.1334C67.7185 70.1334 68.0195 70.0087 68.2414 69.7868C68.4634 69.5648 68.588 69.2639 68.588 68.95V60.075C68.588 58.9766 68.1517 57.9231 67.375 57.1464C66.5982 56.3697 65.5448 55.9333 64.4464 55.9333ZM62.6714 61.85V60.075C62.6714 59.6043 62.8584 59.1528 63.1912 58.8199C63.5241 58.487 63.9756 58.3 64.4464 58.3C64.9171 58.3 65.3686 58.487 65.7015 58.8199C66.0343 59.1528 66.2214 59.6043 66.2214 60.075V61.85H62.6714ZM75.0964 55.9333H72.138C71.8242 55.9333 71.5232 56.058 71.3013 56.2799C71.0794 56.5019 70.9547 56.8028 70.9547 57.1167V68.95C70.9547 69.2639 71.0794 69.5648 71.3013 69.7868C71.5232 70.0087 71.8242 70.1334 72.138 70.1334C72.4519 70.1334 72.7528 70.0087 72.9748 69.7868C73.1967 69.5648 73.3214 69.2639 73.3214 68.95V64.2167H75.0964C76.1948 64.2167 77.2482 63.7803 78.025 63.0036C78.8017 62.2269 79.238 61.1735 79.238 60.075C79.238 58.9766 78.8017 57.9231 78.025 57.1464C77.2482 56.3697 76.1948 55.9333 75.0964 55.9333ZM75.0964 61.85H73.3214V58.3H75.0964C75.5671 58.3 76.0186 58.487 76.3515 58.8199C76.6843 59.1528 76.8714 59.6043 76.8714 60.075C76.8714 60.5458 76.6843 60.9973 76.3515 61.3301C76.0186 61.663 75.5671 61.85 75.0964 61.85Z" fill="white"/>
<path d="M50.8354 44.1001H49.6521C49.3382 44.1001 49.0373 43.9754 48.8153 43.7535C48.5934 43.5316 48.4688 43.2306 48.4688 42.9167C48.4688 42.6029 48.5934 42.3019 48.8153 42.08C49.0373 41.8581 49.3382 41.7334 49.6521 41.7334H50.8354C51.1493 41.7334 51.4502 41.8581 51.6722 42.08C51.8941 42.3019 52.0188 42.6029 52.0188 42.9167C52.0188 43.2306 51.8941 43.5316 51.6722 43.7535C51.4502 43.9754 51.1493 44.1001 50.8354 44.1001Z" fill="#FF4D4D"/>
<path d="M56.7495 44.1001H55.5661C55.2523 44.1001 54.9513 43.9754 54.7294 43.7535C54.5075 43.5316 54.3828 43.2306 54.3828 42.9167C54.3828 42.6029 54.5075 42.3019 54.7294 42.08C54.9513 41.8581 55.2523 41.7334 55.5661 41.7334H56.7495C57.0633 41.7334 57.3643 41.8581 57.5862 42.08C57.8081 42.3019 57.9328 42.6029 57.9328 42.9167C57.9328 43.2306 57.8081 43.5316 57.5862 43.7535C57.3643 43.9754 57.0633 44.1001 56.7495 44.1001Z" fill="#F7BB26"/>
<path d="M62.6714 44.1001H61.488C61.1742 44.1001 60.8732 43.9754 60.6513 43.7535C60.4294 43.5316 60.3047 43.2306 60.3047 42.9167C60.3047 42.6029 60.4294 42.3019 60.6513 42.08C60.8732 41.8581 61.1742 41.7334 61.488 41.7334H62.6714C62.9852 41.7334 63.2862 41.8581 63.5081 42.08C63.73 42.3019 63.8547 42.6029 63.8547 42.9167C63.8547 43.2306 63.73 43.5316 63.5081 43.7535C63.2862 43.9754 62.9852 44.1001 62.6714 44.1001Z" fill="#25E572"/>
<path d="M93.437 44.1001H74.5036C74.1898 44.1001 73.8888 43.9754 73.6669 43.7535C73.445 43.5316 73.3203 43.2306 73.3203 42.9167C73.3203 42.6029 73.445 42.3019 73.6669 42.08C73.8888 41.8581 74.1898 41.7334 74.5036 41.7334H93.437C93.7508 41.7334 94.0518 41.8581 94.2737 42.08C94.4956 42.3019 94.6203 42.6029 94.6203 42.9167C94.6203 43.2306 94.4956 43.5316 94.2737 43.7535C94.0518 43.9754 93.7508 44.1001 93.437 44.1001Z" fill="#2A2A49"/>
<defs>
<filter id="filter0_d_2030_7522" x="0.666667" y="0.571429" width="146.667" height="146.667" filterUnits="userSpaceOnUse" color-interpolation-filters="sRGB">
<feFlood flood-opacity="0" result="BackgroundImageFix"/>
<feColorMatrix in="SourceAlpha" type="matrix" values="0 0 0 0 0 0 0 0 0 0 0 0 0 0 0 0 0 0 127 0" result="hardAlpha"/>
<feOffset dy="1.90476"/>
<feGaussianBlur stdDeviation="6.66667"/>
<feComposite in2="hardAlpha" operator="out"/>
<feColorMatrix type="matrix" values="0 0 0 0 0.695898 0 0 0 0 0.695898 0 0 0 0 0.695898 0 0 0 0.25 0"/>
<feBlend mode="normal" in2="BackgroundImageFix" result="effect1_dropShadow_2030_7522"/>
<feBlend mode="normal" in="SourceGraphic" in2="effect1_dropShadow_2030_7522" result="shape"/>
</filter>
</defs>
</svg>
