<svg width="148" height="148" viewBox="0 0 148 148" fill="none" xmlns="http://www.w3.org/2000/svg">
<g filter="url(#filter0_d_2030_1025)">
<circle cx="74" cy="72" r="60" fill="white"/>
</g>
<g clip-path="url(#clip0_2030_1025)">
<path d="M68.4883 54.8088C68.4883 58.1298 71.1806 60.822 74.5015 60.822L75.9334 55.184L74.5015 48.7955C71.1805 48.7955 68.4883 51.4877 68.4883 54.8088Z" fill="#2AD7F5"/>
<path d="M74.5 48.7955V60.8221C77.8211 60.8221 80.5132 58.13 80.5132 54.8089C80.5132 51.4878 77.8211 48.7955 74.5 48.7955Z" fill="#3BA9FF"/>
<path d="M69.5999 54.8087C69.5999 52.103 71.7934 49.9094 74.4992 49.9094L76.1515 43.7286L74.4992 37.8907H70.4444L69.7336 43.0087C68.633 43.4538 67.6002 44.0509 66.6652 44.7826L61.8751 42.8383L57.8203 49.8613L61.8989 53.0373C61.8182 53.6164 61.7755 54.2076 61.7755 54.8089C61.7755 55.4101 61.8182 56.0013 61.8989 56.5804L57.8203 59.7564L61.8751 66.7794L66.6652 64.8351C67.6002 65.5668 68.633 66.1639 69.7336 66.609L70.4444 71.727H74.4992L75.3803 64.7673L74.4992 59.708C71.7934 59.708 69.5999 57.5145 69.5999 54.8087Z" fill="#00607F"/>
<path d="M87.2234 54.8087C87.2233 54.2161 87.182 53.6241 87.1 53.0372L91.1786 49.8612L87.1239 42.8381L82.3337 44.7825C81.3988 44.0508 80.3659 43.4537 79.2653 43.0086L78.5548 37.8907H74.5V49.9094C77.2058 49.9094 79.3993 52.103 79.3993 54.8087C79.3993 57.5145 77.2058 59.708 74.5 59.708V71.7267H78.5548L79.2656 66.6087C80.3662 66.1636 81.3991 65.5665 82.334 64.8348L87.1241 66.7791L91.1789 59.7561L87.1003 56.5801C87.1807 56.0012 87.2234 55.41 87.2234 54.8087Z" fill="#00465F"/>
<path d="M45.2422 59.6836V101.137L74.502 101.211L77.2754 80.761L74.502 59.6836H45.2422Z" fill="#E6F8FC"/>
<path d="M103.76 59.6836H74.5V101.211L103.76 101.284V59.6836Z" fill="#CEE9F8"/>
<path d="M67.2821 98.7891H39V102.196C39 104.909 41.1999 107.109 43.9136 107.109H72.1957L67.2821 98.7891Z" fill="#00607F"/>
<path d="M81.7182 98.7891L76.8047 107.109H105.087C107.8 107.109 110 104.909 110 102.196V98.7891H81.7182Z" fill="#00465F"/>
<path d="M67.2812 102.196C67.2812 104.909 69.4811 107.109 72.1948 107.109H74.4991L75.4698 102.394L74.4991 98.7891H67.2812V102.196Z" fill="#CEE9F8"/>
<path d="M76.8042 107.109C79.5178 107.109 81.7177 104.909 81.7177 102.196V98.7891H74.5V107.109H76.8042Z" fill="#A1D7F3"/>
<path d="M92.3906 69.924H96.5508V88.6447H92.3906V69.924Z" fill="#D10763"/>
<path d="M62.8161 86.1486L63.7655 88.6447H68.0796L68.1993 88.5992L61.0946 69.9216L57.4716 69.9257L50.5078 88.6447H54.9464L55.875 86.1486H62.8161ZM59.3068 76.9235L61.2335 81.9884H57.4225L59.3068 76.9235ZM72.2793 69.924V88.6447H74.498L75.6074 78.9377L74.498 69.924H72.2793Z" fill="#FF3980"/>
<path d="M83.5156 71.842C82.2749 70.6113 80.5681 69.9104 78.8321 69.9239H74.5V88.6446H76.7188V82.9591H78.8539L78.8683 82.9589C82.4901 82.9086 85.4366 79.9729 85.4366 76.4147C85.4366 74.6948 84.7544 73.0709 83.5156 71.842ZM78.823 78.7989H76.7188V74.0841H78.8562L78.875 74.0839C79.5066 74.0839 80.1292 74.3427 80.5859 74.7956C81.0313 75.2375 81.2765 75.8125 81.2765 76.4147C81.2765 77.6847 80.1542 78.7738 78.823 78.7989Z" fill="#D10763"/>
</g>
<defs>
<filter id="filter0_d_2030_1025" x="0.666667" y="0.571429" width="146.667" height="146.667" filterUnits="userSpaceOnUse" color-interpolation-filters="sRGB">
<feFlood flood-opacity="0" result="BackgroundImageFix"/>
<feColorMatrix in="SourceAlpha" type="matrix" values="0 0 0 0 0 0 0 0 0 0 0 0 0 0 0 0 0 0 127 0" result="hardAlpha"/>
<feOffset dy="1.90476"/>
<feGaussianBlur stdDeviation="6.66667"/>
<feComposite in2="hardAlpha" operator="out"/>
<feColorMatrix type="matrix" values="0 0 0 0 0.695898 0 0 0 0 0.695898 0 0 0 0 0.695898 0 0 0 0.25 0"/>
<feBlend mode="normal" in2="BackgroundImageFix" result="effect1_dropShadow_2030_1025"/>
<feBlend mode="normal" in="SourceGraphic" in2="effect1_dropShadow_2030_1025" result="shape"/>
</filter>
<clipPath id="clip0_2030_1025">
<rect width="71" height="71" fill="white" transform="translate(39 37)"/>
</clipPath>
</defs>
</svg>
