<svg width="148" height="148" viewBox="0 0 148 148" fill="none" xmlns="http://www.w3.org/2000/svg">
<g filter="url(#filter0_d_3238_2940)">
<circle cx="74" cy="72" r="60" fill="white"/>
</g>
<g clip-path="url(#clip0_3238_2940)">
<path d="M108.814 70.1334C108.814 71.0445 108.779 71.9675 108.696 72.8669C108.659 73.2058 108.531 73.5283 108.325 73.7995C108.118 74.0706 107.841 74.2801 107.524 74.4052L102.377 76.4642C101.748 79.0093 100.735 81.4435 99.3711 83.6825L101.56 88.7945C101.697 89.1069 101.745 89.4509 101.699 89.7888C101.654 90.1267 101.516 90.4455 101.301 90.7103C100.72 91.4116 100.103 92.0831 99.4539 92.722C98.8147 93.371 98.1433 93.9875 97.4422 94.5692C97.1774 94.784 96.8586 94.9219 96.5207 94.9676C96.1828 95.0133 95.8388 94.9651 95.5264 94.8283L90.4144 92.6392C88.1754 94.0029 85.7412 95.0164 83.1961 95.6448L81.1371 100.792C81.012 101.109 80.8025 101.386 80.5314 101.593C80.2602 101.799 79.9377 101.928 79.5987 101.964C78.6994 102.047 77.7764 102.082 76.8652 102.082C75.9541 102.082 75.0311 102.047 74.1317 101.964C73.7928 101.928 73.4703 101.799 73.1991 101.593C72.928 101.386 72.7185 101.109 72.5934 100.792L70.5344 95.6448C69.0047 95.2602 67.5119 94.7414 66.0732 94.0947C65.7914 93.9653 65.5723 93.7296 65.4637 93.4392C65.355 93.1487 65.3657 92.8271 65.4934 92.5445L66.5584 90.1412C66.6235 89.9987 66.7162 89.8706 66.8311 89.7643C66.9461 89.6579 67.081 89.5754 67.228 89.5216C67.3751 89.4678 67.5313 89.4437 67.6878 89.4507C67.8442 89.4577 67.9977 89.4957 68.1393 89.5625C72.6854 91.6058 77.8039 91.9909 82.6045 90.6507C87.4051 89.3105 91.584 86.3299 94.4143 82.2273C97.2446 78.1248 98.5473 73.1598 98.0956 68.1962C97.6439 63.2325 95.4665 58.5843 91.9422 55.0599C88.4179 51.5356 83.7696 49.3582 78.806 48.9066C73.8423 48.4549 68.8774 49.7575 64.7748 52.5878C60.6722 55.4181 57.6916 59.597 56.3514 64.3976C55.0113 69.1982 55.3963 74.3167 57.4396 78.8628C57.5064 79.0044 57.5444 79.1579 57.5514 79.3144C57.5585 79.4708 57.5344 79.6271 57.4805 79.7741C57.4267 79.9212 57.3442 80.0561 57.2379 80.171C57.1315 80.286 57.0034 80.3787 56.861 80.4437L54.4576 81.5087C54.1751 81.6364 53.8534 81.6471 53.563 81.5385C53.2725 81.4299 53.0369 81.2107 52.9075 80.9289C52.2607 79.4903 51.742 77.9974 51.3573 76.4677L46.2039 74.4052C45.8868 74.2801 45.61 74.0706 45.4035 73.7995C45.197 73.5283 45.0687 73.2058 45.0324 72.8669C44.9496 71.9675 44.9141 71.0445 44.9141 70.1334C44.9141 69.2222 44.9496 68.2992 45.0324 67.3999C45.0687 67.0609 45.197 66.7384 45.4035 66.4672C45.61 66.1961 45.8868 65.9866 46.2039 65.8615L51.3514 63.8025C51.9798 61.2574 52.9934 58.8232 54.3571 56.5842L52.1679 51.4722C52.0311 51.1598 51.9829 50.8158 52.0286 50.4779C52.0744 50.14 52.2122 49.8212 52.427 49.5564C53.0084 48.8551 53.6249 48.1837 54.2742 47.5447C54.9132 46.8954 55.5846 46.2789 56.2859 45.6975C56.5507 45.4822 56.8697 45.3441 57.2078 45.2981C57.546 45.2522 57.8903 45.3003 58.2029 45.4372L63.3149 47.6263C65.5539 46.2627 67.9881 45.2491 70.5332 44.6207L72.5922 39.4732C72.7173 39.1561 72.9268 38.8793 73.198 38.6728C73.4691 38.4663 73.7916 38.338 74.1306 38.3017C75.0299 38.2188 75.9529 38.1833 76.8641 38.1833C77.7752 38.1833 78.6982 38.2188 79.5976 38.3017C79.9365 38.338 80.259 38.4663 80.5302 38.6728C80.8013 38.8793 81.0108 39.1561 81.1359 39.4732L83.1949 44.6207C85.74 45.2491 88.1742 46.2627 90.4132 47.6263L95.5252 45.4372C95.8376 45.3004 96.1816 45.2522 96.5195 45.2979C96.8574 45.3436 97.1763 45.4815 97.441 45.6963C98.1424 46.2777 98.8138 46.8942 99.4527 47.5435C100.102 48.1825 100.719 48.8539 101.3 49.5552C101.515 49.82 101.653 50.1388 101.698 50.4767C101.744 50.8147 101.696 51.1586 101.559 51.471L99.3699 56.583C100.734 58.822 101.747 61.2562 102.376 63.8013L107.523 65.8603C107.84 65.9854 108.117 66.1949 108.323 66.4661C108.53 66.7372 108.658 67.0598 108.695 67.3987C108.779 68.2992 108.814 69.2222 108.814 70.1334Z" fill="#347584"/>
<path d="M100.529 70.1334C100.53 74.1865 99.49 78.1721 97.5085 81.7078C95.5269 85.2436 92.6702 88.2109 89.2123 90.3254C85.7543 92.4398 81.8112 93.6304 77.7609 93.783C73.7106 93.9355 69.689 93.045 66.0818 91.1967L66.5551 90.1435C66.6191 90.001 66.7109 89.8727 66.8251 89.7662C66.9393 89.6596 67.0736 89.5769 67.2202 89.5229C67.3668 89.4689 67.5227 89.4447 67.6787 89.4517C67.8348 89.4587 67.9878 89.4968 68.129 89.5637C72.6757 91.6081 77.7953 91.994 82.5971 90.654C87.3989 89.3141 91.5791 86.3332 94.4103 82.2299C97.2415 78.1266 98.5447 73.1607 98.0931 68.1959C97.6415 63.2311 95.4638 58.5818 91.9387 55.0567C88.4136 51.5316 83.7642 49.3538 78.7994 48.9022C73.8347 48.4506 68.8687 49.7538 64.7654 52.585C60.6622 55.4163 57.6813 59.5964 56.3413 64.3982C55.0014 69.2 55.3872 74.3196 57.4316 78.8664C57.4986 79.0075 57.5367 79.1606 57.5437 79.3166C57.5507 79.4727 57.5265 79.6286 57.4725 79.7751C57.4185 79.9217 57.3358 80.056 57.2292 80.1702C57.1226 80.2844 56.9943 80.3762 56.8518 80.4402L55.7986 80.9135C54.1661 77.7269 53.2778 74.2113 53.2008 70.6316C53.1238 67.0519 53.86 63.5013 55.354 60.2474C56.848 56.9934 59.0608 54.1209 61.8259 51.8461C64.5909 49.5713 67.8361 47.9535 71.317 47.1146C74.7978 46.2757 78.4237 46.2375 81.9214 47.0029C85.4192 47.7684 88.6977 49.3175 91.51 51.5336C94.3223 53.7497 96.5952 56.575 98.1573 59.7968C99.7195 63.0186 100.53 66.5528 100.529 70.1334Z" fill="#266677"/>
<path d="M68.4982 63.7776C68.4106 63.5577 68.259 63.369 68.063 63.2361C67.867 63.1033 67.6357 63.0322 67.3989 63.0322C67.1621 63.0322 66.9308 63.1033 66.7348 63.2361C66.5388 63.369 66.3872 63.5577 66.2996 63.7776L61.5663 75.611C61.4498 75.9025 61.454 76.2284 61.5778 76.5169C61.7016 76.8054 61.935 77.0329 62.2266 77.1493C62.5181 77.2657 62.844 77.2616 63.1325 77.1377C63.421 77.0139 63.6485 76.7806 63.7649 76.489L64.8867 73.6833H69.9111L71.0329 76.489C71.1207 76.7088 71.2724 76.8972 71.4684 77.0298C71.6643 77.1625 71.8956 77.2334 72.1323 77.2333C72.2826 77.2339 72.4317 77.2053 72.5713 77.1493C72.7157 77.0917 72.8473 77.0062 72.9586 76.8977C73.07 76.7892 73.1589 76.6598 73.2202 76.517C73.2815 76.3741 73.3141 76.2205 73.316 76.0651C73.318 75.9096 73.2893 75.7553 73.2316 75.611L68.4982 63.7776ZM65.8334 71.3166L67.3989 67.4022L68.9645 71.3166H65.8334ZM79.2323 63.0333H76.8656C76.5517 63.0333 76.2508 63.158 76.0288 63.3799C75.8069 63.6018 75.6823 63.9028 75.6823 64.2166V76.05C75.6823 76.3638 75.8069 76.6648 76.0288 76.8867C76.2508 77.1086 76.5517 77.2333 76.8656 77.2333C77.1794 77.2333 77.4804 77.1086 77.7023 76.8867C77.9242 76.6648 78.0489 76.3638 78.0489 76.05V72.5H79.2323C80.4876 72.5 81.6916 72.0013 82.5792 71.1136C83.4669 70.2259 83.9656 69.022 83.9656 67.7666C83.9656 66.5113 83.4669 65.3073 82.5792 64.4197C81.6916 63.532 80.4876 63.0333 79.2323 63.0333ZM79.2323 70.1333H78.0489V65.4H79.2323C79.8599 65.4 80.4619 65.6493 80.9057 66.0932C81.3496 66.537 81.5989 67.139 81.5989 67.7666C81.5989 68.3943 81.3496 68.9963 80.9057 69.4401C80.4619 69.884 79.8599 70.1333 79.2323 70.1333ZM91.0656 74.8666H89.8823V65.4H91.0656C91.3794 65.4 91.6804 65.2753 91.9023 65.0534C92.1242 64.8315 92.2489 64.5305 92.2489 64.2166C92.2489 63.9028 92.1242 63.6018 91.9023 63.3799C91.6804 63.158 91.3794 63.0333 91.0656 63.0333H86.3323C86.0184 63.0333 85.7174 63.158 85.4955 63.3799C85.2736 63.6018 85.1489 63.9028 85.1489 64.2166C85.1489 64.5305 85.2736 64.8315 85.4955 65.0534C85.7174 65.2753 86.0184 65.4 86.3323 65.4H87.5156V74.8666H86.3323C86.0184 74.8666 85.7174 74.9913 85.4955 75.2132C85.2736 75.4352 85.1489 75.7361 85.1489 76.05C85.1489 76.3638 85.2736 76.6648 85.4955 76.8867C85.7174 77.1086 86.0184 77.2333 86.3323 77.2333H91.0656C91.3794 77.2333 91.6804 77.1086 91.9023 76.8867C92.1242 76.6648 92.2489 76.3638 92.2489 76.05C92.2489 75.7361 92.1242 75.4352 91.9023 75.2132C91.6804 74.9913 91.3794 74.8666 91.0656 74.8666ZM60.2989 85.5166H55.5656C55.2517 85.5166 54.9508 85.6413 54.7288 85.8632C54.5069 86.0852 54.3822 86.3861 54.3822 86.7C54.3822 87.0138 54.5069 87.3148 54.7288 87.5367C54.9508 87.7586 55.2517 87.8833 55.5656 87.8833H57.4424L39.3456 105.98C39.2326 106.089 39.1425 106.22 39.0804 106.364C39.0184 106.509 38.9858 106.664 38.9844 106.821C38.9831 106.978 39.013 107.134 39.0725 107.279C39.132 107.425 39.2199 107.557 39.331 107.668C39.4421 107.779 39.5742 107.867 39.7196 107.926C39.865 107.986 40.0209 108.016 40.178 108.014C40.3351 108.013 40.4904 107.98 40.6348 107.918C40.7791 107.856 40.9097 107.766 41.0189 107.653L59.1156 89.5566V91.4333C59.1156 91.7472 59.2403 92.0481 59.4622 92.2701C59.6841 92.492 59.9851 92.6166 60.2989 92.6166C60.6128 92.6166 60.9137 92.492 61.1357 92.2701C61.3576 92.0481 61.4823 91.7472 61.4823 91.4333V86.7C61.4823 86.3861 61.3576 86.0852 61.1357 85.8632C60.9137 85.6413 60.6128 85.5166 60.2989 85.5166Z" fill="#31B791"/>
</g>
<defs>
<filter id="filter0_d_3238_2940" x="0.666667" y="0.571429" width="146.667" height="146.667" filterUnits="userSpaceOnUse" color-interpolation-filters="sRGB">
<feFlood flood-opacity="0" result="BackgroundImageFix"/>
<feColorMatrix in="SourceAlpha" type="matrix" values="0 0 0 0 0 0 0 0 0 0 0 0 0 0 0 0 0 0 127 0" result="hardAlpha"/>
<feOffset dy="1.90476"/>
<feGaussianBlur stdDeviation="6.66667"/>
<feComposite in2="hardAlpha" operator="out"/>
<feColorMatrix type="matrix" values="0 0 0 0 0.695898 0 0 0 0 0.695898 0 0 0 0 0.695898 0 0 0 0.25 0"/>
<feBlend mode="normal" in2="BackgroundImageFix" result="effect1_dropShadow_3238_2940"/>
<feBlend mode="normal" in="SourceGraphic" in2="effect1_dropShadow_3238_2940" result="shape"/>
</filter>
<clipPath id="clip0_3238_2940">
<rect width="71" height="71" fill="white" transform="translate(39 37)"/>
</clipPath>
</defs>
</svg>
