<svg width="148" height="148" viewBox="0 0 148 148" fill="none" xmlns="http://www.w3.org/2000/svg">
<g filter="url(#filter0_d_2030_1708)">
<circle cx="74" cy="72" r="60" fill="white"/>
</g>
<path d="M67.8438 92.4688H81.1562V99.125H67.8438V92.4688Z" fill="#686868"/>
<path d="M64.5156 99.125H84.4844C85.367 99.125 86.2136 99.4756 86.8377 100.1C87.4619 100.724 87.8125 101.57 87.8125 102.453V105.781H61.1875V102.453C61.1875 101.57 61.5381 100.724 62.1623 100.1C62.7864 99.4756 63.633 99.125 64.5156 99.125Z" fill="#939393"/>
<path d="M83.375 101.344V99.125H64.5156C63.633 99.125 62.7864 99.4756 62.1623 100.1C61.5381 100.724 61.1875 101.57 61.1875 102.453V103.562H81.1562C81.7447 103.562 82.309 103.329 82.7251 102.913C83.1412 102.497 83.375 101.932 83.375 101.344Z" fill="#B5B5B5"/>
<path d="M76.7188 94.6875V92.4688H67.8438V96.9062H74.5C75.0884 96.9062 75.6528 96.6725 76.0689 96.2564C76.485 95.8403 76.7188 95.2759 76.7188 94.6875Z" fill="#777777"/>
<path d="M107.781 83.5938V54.75C107.781 53.5731 107.314 52.4444 106.482 51.6122C105.649 50.78 104.521 50.3125 103.344 50.3125H45.6562C44.4794 50.3125 43.3507 50.78 42.5185 51.6122C41.6863 52.4444 41.2188 53.5731 41.2188 54.75V83.5938H107.781Z" fill="#E2E7F6"/>
<path d="M102.234 73.6094V50.3125H45.6562C44.4794 50.3125 43.3507 50.78 42.5185 51.6122C41.6863 52.4444 41.2188 53.5731 41.2188 54.75V76.9375H98.9062C99.7889 76.9375 100.635 76.5869 101.26 75.9627C101.884 75.3386 102.234 74.492 102.234 73.6094Z" fill="#F2F2F2"/>
<path d="M107.781 83.5938V88.0312C107.781 89.2081 107.314 90.3368 106.482 91.169C105.649 92.0012 104.521 92.4688 103.344 92.4688H45.6562C44.4794 92.4688 43.3507 92.0012 42.5185 91.169C41.6863 90.3368 41.2188 89.2081 41.2188 88.0312V83.5938H107.781Z" fill="#939393"/>
<path d="M102.234 83.5938H41.2188V88.0312C41.2211 88.3542 41.2583 88.6759 41.3297 88.9909H100.016C100.604 88.9909 101.168 88.7571 101.585 88.341C102.001 87.9249 102.234 87.3606 102.234 86.7721V83.5938Z" fill="#B5B5B5"/>
<path d="M68.9531 86.9219H80.0469V89.1406H68.9531V86.9219Z" fill="#E2E7F6"/>
<path d="M87.8125 54.75V50.3125L84.1516 50.0074C83.9218 49.1248 83.5712 48.2781 83.1099 47.4914L85.4828 44.6869L82.3444 41.5484L79.5399 43.9225C78.7532 43.4608 77.9065 43.1098 77.0238 42.8797L76.7188 39.2188H72.2812L71.9762 42.8797C71.0935 43.1095 70.2469 43.46 69.4601 43.9214L66.6556 41.5484L63.5172 44.6869L65.8912 47.4914C65.4299 48.2781 65.0794 49.1248 64.8495 50.0074L61.1875 50.3125V54.75L64.8484 55.0551C65.0782 55.9377 65.4288 56.7844 65.8901 57.5711L63.5172 60.3756L66.6556 63.5141L69.4601 61.1411C70.2469 61.6025 71.0935 61.953 71.9762 62.1828L72.2812 65.8438H76.7188L77.0238 62.1828C77.9065 61.953 78.7531 61.6025 79.5399 61.1411L82.3444 63.5141L85.4828 60.3756L83.1087 57.5711C83.5701 56.7844 83.9206 55.9377 84.1505 55.0551L87.8125 54.75ZM74.5 58.0781C73.4029 58.0781 72.3305 57.7528 71.4183 57.1433C70.5061 56.5338 69.7952 55.6675 69.3754 54.6539C68.9555 53.6404 68.8457 52.5251 69.0597 51.4491C69.2737 50.3731 69.802 49.3848 70.5778 48.609C71.3535 47.8333 72.3419 47.305 73.4179 47.091C74.4938 46.8769 75.6091 46.9868 76.6227 47.4066C77.6363 47.8264 78.5026 48.5374 79.1121 49.4496C79.7216 50.3618 80.0469 51.4342 80.0469 52.5312C80.0469 54.0024 79.4625 55.4132 78.4222 56.4535C77.382 57.4937 75.9711 58.0781 74.5 58.0781Z" fill="#78A0D4"/>
<path d="M72.2812 80.2656V73.0547C72.2812 72.0249 71.8722 71.0373 71.144 70.3091C70.4158 69.581 69.4282 69.1719 68.3984 69.1719C67.3687 69.1719 66.381 69.581 65.6529 70.3091C64.9247 71.0373 64.5156 72.0249 64.5156 73.0547V80.2656H66.7344V76.9375H70.0625V80.2656H72.2812ZM66.7344 74.7188V73.0547C66.7344 72.6134 66.9097 72.1901 67.2218 71.878C67.5338 71.5659 67.9571 71.3906 68.3984 71.3906C68.8398 71.3906 69.263 71.5659 69.5751 71.878C69.8872 72.1901 70.0625 72.6134 70.0625 73.0547V74.7188H66.7344ZM74.5 69.1719C74.2058 69.1719 73.9236 69.2888 73.7156 69.4968C73.5075 69.7049 73.3906 69.987 73.3906 70.2812V80.2656H75.6094V75.8281H77.8281C78.7108 75.8281 79.5573 75.4775 80.1815 74.8533C80.8056 74.2292 81.1562 73.3827 81.1562 72.5C81.1562 71.6173 80.8056 70.7708 80.1815 70.1467C79.5573 69.5225 78.7108 69.1719 77.8281 69.1719H74.5ZM78.9375 72.5C78.9375 72.7942 78.8206 73.0764 78.6126 73.2844C78.4045 73.4925 78.1223 73.6094 77.8281 73.6094H75.6094V71.3906H77.8281C78.1223 71.3906 78.4045 71.5075 78.6126 71.7156C78.8206 71.9236 78.9375 72.2058 78.9375 72.5ZM82.2656 69.1719H84.4844V80.2656H82.2656V69.1719Z" fill="#78A0D4"/>
<defs>
<filter id="filter0_d_2030_1708" x="0.666667" y="0.571429" width="146.667" height="146.667" filterUnits="userSpaceOnUse" color-interpolation-filters="sRGB">
<feFlood flood-opacity="0" result="BackgroundImageFix"/>
<feColorMatrix in="SourceAlpha" type="matrix" values="0 0 0 0 0 0 0 0 0 0 0 0 0 0 0 0 0 0 127 0" result="hardAlpha"/>
<feOffset dy="1.90476"/>
<feGaussianBlur stdDeviation="6.66667"/>
<feComposite in2="hardAlpha" operator="out"/>
<feColorMatrix type="matrix" values="0 0 0 0 0.695898 0 0 0 0 0.695898 0 0 0 0 0.695898 0 0 0 0.25 0"/>
<feBlend mode="normal" in2="BackgroundImageFix" result="effect1_dropShadow_2030_1708"/>
<feBlend mode="normal" in="SourceGraphic" in2="effect1_dropShadow_2030_1708" result="shape"/>
</filter>
</defs>
</svg>
