<svg width="148" height="148" viewBox="0 0 148 148" fill="none" xmlns="http://www.w3.org/2000/svg">
<g filter="url(#filter0_d_3247_2976)">
<circle cx="74" cy="72" r="60" fill="white"/>
</g>
<path d="M88.7505 61.4031H104.634C105.766 61.4031 106.676 62.2836 106.676 63.3738V103.815C106.676 104.905 105.762 105.786 104.634 105.786H43.2607C42.997 105.792 42.7348 105.745 42.4892 105.649C42.2436 105.552 42.0195 105.409 41.8297 105.225C41.6399 105.042 41.4882 104.823 41.3834 104.581C41.2785 104.339 41.2226 104.079 41.2188 103.815V63.3738C41.2188 62.2836 42.1286 61.4031 43.2607 61.4031H75.6181" fill="#E4EFF8"/>
<path d="M77.2188 61.4031C78.4305 68.5605 81.6046 74.72 83.3825 74.72C84.3385 74.72 85.7096 72.917 86.9549 70.1371C87.4499 70.3982 87.8773 70.7709 88.2033 71.2257C88.5294 71.6806 88.7451 72.2051 88.8333 72.7577C88.9759 73.5711 89.8816 73.8898 90.4351 73.3238C91.5923 72.133 92.2548 70.4725 92.2548 68.7366C92.2548 66.334 91.0095 64.2501 89.1939 63.1893C89.3197 62.6023 89.4413 62.0069 89.5462 61.4073H88.7495L77.2188 61.4031Z" fill="#C4DCF0"/>
<path d="M104.457 61.4031C104.457 90.4186 75.6133 102.453 46.5936 102.453H41.2266V103.811C41.2266 104.901 42.1322 105.782 43.2644 105.782H105.744C106.876 105.782 107.786 104.901 107.786 103.811V63.378C107.786 62.2878 106.876 61.4073 105.744 61.4073L104.457 61.4031Z" fill="#C4DCF0"/>
<path d="M107.783 70.2796V63.3738C107.783 62.2836 106.873 61.4031 105.741 61.4031H43.2607C42.1286 61.4031 41.2188 62.2836 41.2188 63.3738V70.2796H107.783Z" fill="#549AD4"/>
<path d="M104.455 61.4031C104.455 64.5688 104.052 67.5165 103.344 70.2796H107.788V63.378C107.788 62.9828 107.665 62.5976 107.436 62.2752C107.245 62.0046 106.991 61.7844 106.696 61.6332C106.401 61.4821 106.074 61.4046 105.742 61.4073L104.455 61.4031Z" fill="#3588CB"/>
<path d="M47.8843 96.9053H52.9787C53.5676 96.9053 54.1323 97.1392 54.5487 97.5556C54.965 97.9719 55.1989 98.5366 55.1989 99.1255C55.1989 99.7143 54.965 100.279 54.5487 100.695C54.1323 101.112 53.5676 101.346 52.9787 101.346H47.8843C47.2954 101.346 46.7307 101.112 46.3143 100.695C45.898 100.279 45.6641 99.7143 45.6641 99.1255C45.6641 98.5366 45.898 97.9719 46.3143 97.5556C46.7307 97.1392 47.2954 96.9053 47.8843 96.9053Z" fill="#549AD4"/>
<path d="M66.7511 46.9792C66.6048 46.9792 66.46 47.0081 66.3249 47.0642C66.1898 47.1203 66.0672 47.2026 65.9639 47.3062C65.8607 47.4098 65.7789 47.5328 65.7233 47.6681C65.6678 47.8034 65.6394 47.9483 65.64 48.0946V49.2015H64.533C64.2383 49.2015 63.9557 49.3186 63.7473 49.527C63.5389 49.7354 63.4219 50.018 63.4219 50.3127C63.4219 50.6074 63.5389 50.89 63.7473 51.0984C63.9557 51.3068 64.2383 51.4238 64.533 51.4238H65.64V52.535C65.64 52.8291 65.7568 53.1112 65.9648 53.3192C66.1728 53.5272 66.4549 53.644 66.749 53.644C67.0432 53.644 67.3252 53.5272 67.5332 53.3192C67.7412 53.1112 67.8581 52.8291 67.8581 52.535V51.4238H68.9692C69.2639 51.4238 69.5465 51.3068 69.7549 51.0984C69.9633 50.89 70.0804 50.6074 70.0804 50.3127C70.0804 50.018 69.9633 49.7354 69.7549 49.527C69.5465 49.3186 69.2639 49.2015 68.9692 49.2015H67.8581V48.0946C67.8581 47.8006 67.7416 47.5186 67.5341 47.3104C67.3266 47.1021 67.0451 46.9804 66.7511 46.9792ZM97.8128 46.9792C97.6666 46.9792 97.5217 47.0081 97.3866 47.0642C97.2516 47.1203 97.1289 47.2026 97.0256 47.3062C96.9224 47.4098 96.8407 47.5328 96.7851 47.6681C96.7295 47.8034 96.7011 47.9483 96.7017 48.0946V49.2015H95.5947C95.3 49.2015 95.0174 49.3186 94.809 49.527C94.6007 49.7354 94.4836 50.018 94.4836 50.3127C94.4836 50.6074 94.6007 50.89 94.809 51.0984C95.0174 51.3068 95.3 51.4238 95.5947 51.4238H96.7017V52.535C96.7017 52.8291 96.8185 53.1112 97.0265 53.3192C97.2345 53.5272 97.5166 53.644 97.8107 53.644C98.1049 53.644 98.387 53.5272 98.5949 53.3192C98.8029 53.1112 98.9198 52.8291 98.9198 52.535V51.4238H100.035C100.33 51.4238 100.612 51.3068 100.821 51.0984C101.029 50.89 101.146 50.6074 101.146 50.3127C101.146 50.018 101.029 49.7354 100.821 49.527C100.612 49.3186 100.33 49.2015 100.035 49.2015H98.9198V48.0946C98.9198 47.8006 98.8033 47.5186 98.5958 47.3104C98.3883 47.1021 98.1068 46.9804 97.8128 46.9792Z" fill="#FFCA28"/>
<path d="M46.7653 64.7366C46.6139 64.7273 46.4622 64.7491 46.3196 64.8006C46.177 64.8521 46.0464 64.9323 45.9359 65.0362C45.8254 65.1401 45.7374 65.2655 45.6772 65.4047C45.617 65.5439 45.5859 65.694 45.5859 65.8457C45.5859 65.9973 45.617 66.1474 45.6772 66.2866C45.7374 66.4258 45.8254 66.5512 45.9359 66.6551C46.0464 66.759 46.177 66.8392 46.3196 66.8907C46.4622 66.9422 46.6139 66.964 46.7653 66.9547C47.06 66.9547 47.3426 66.8376 47.551 66.6293C47.7594 66.4209 47.8765 66.1383 47.8765 65.8436C47.8765 65.5489 47.7594 65.2662 47.551 65.0579C47.3426 64.8495 47.06 64.7366 46.7653 64.7366ZM51.2015 64.7366C51.0501 64.7273 50.8984 64.7491 50.7558 64.8006C50.6131 64.8521 50.4826 64.9323 50.3721 65.0362C50.2616 65.1401 50.1735 65.2655 50.1134 65.4047C50.0532 65.5439 50.0221 65.694 50.0221 65.8457C50.0221 65.9973 50.0532 66.1474 50.1134 66.2866C50.1735 66.4258 50.2616 66.5512 50.3721 66.6551C50.4826 66.759 50.6131 66.8392 50.7558 66.8907C50.8984 66.9422 51.0501 66.964 51.2015 66.9547C51.4962 66.9547 51.7788 66.8376 51.9872 66.6293C52.1956 66.4209 52.3126 66.1383 52.3126 65.8436C52.3126 65.5489 52.1956 65.2662 51.9872 65.0579C51.7788 64.8495 51.4962 64.7366 51.2015 64.7366ZM55.6419 64.7366C55.4905 64.7273 55.3388 64.7491 55.1962 64.8006C55.0535 64.8521 54.9229 64.9323 54.8125 65.0362C54.702 65.1401 54.6139 65.2655 54.5537 65.4047C54.4936 65.5439 54.4625 65.694 54.4625 65.8457C54.4625 65.9973 54.4936 66.1474 54.5537 66.2866C54.6139 66.4258 54.702 66.5512 54.8125 66.6551C54.9229 66.759 55.0535 66.8392 55.1962 66.8907C55.3388 66.9422 55.4905 66.964 55.6419 66.9547C55.9366 66.9547 56.2192 66.8376 56.4276 66.6293C56.636 66.4209 56.753 66.1383 56.753 65.8436C56.753 65.5489 56.636 65.2662 56.4276 65.0579C56.2192 64.8495 55.9366 64.7366 55.6419 64.7366Z" fill="#E4EFF8"/>
<path d="M45.658 75.8271C45.3633 75.8271 45.0807 75.9442 44.8723 76.1526C44.6639 76.361 44.5469 76.6436 44.5469 76.9383C44.5469 77.233 44.6639 77.5156 44.8723 77.724C45.0807 77.9324 45.3633 78.0494 45.658 78.0494H65.6335C65.9281 78.0494 66.2108 77.9324 66.4191 77.724C66.6275 77.5156 66.7446 77.233 66.7446 76.9383C66.7446 76.6436 66.6275 76.361 66.4191 76.1526C66.2108 75.9442 65.9281 75.8271 65.6335 75.8271H45.658Z" fill="#549AD4"/>
<path d="M78.9523 80.2632V84.7204C78.9534 86.0306 78.6959 87.3282 78.1946 88.5387C77.6934 89.7493 76.9581 90.849 76.0311 91.7749C75.104 92.7008 74.0034 93.4346 72.7922 93.9343C71.581 94.4341 70.2831 94.6899 68.9729 94.6872C68.6788 94.6872 68.3967 94.804 68.1887 95.012C67.9807 95.22 67.8639 95.5021 67.8639 95.7962C67.8639 96.0903 67.9807 96.3724 68.1887 96.5804C68.3967 96.7884 68.6788 96.9052 68.9729 96.9052C72.2047 96.9019 75.3033 95.6175 77.5897 93.3335C79.8761 91.0495 81.1637 87.9522 81.1704 84.7204V80.2632C81.1704 79.9685 81.0533 79.6859 80.8449 79.4775C80.6365 79.2692 80.3539 79.1521 80.0592 79.1521C79.7645 79.1521 79.4819 79.2692 79.2735 79.4775C79.0651 79.6859 78.9523 79.9685 78.9523 80.2632ZM83.4052 80.2632V84.7204C83.4097 87.9507 84.6948 91.0473 86.979 93.3315C89.2631 95.6156 92.3598 96.9008 95.5901 96.9052C95.8848 96.9052 96.1674 96.7882 96.3758 96.5798C96.5841 96.3714 96.7012 96.0888 96.7012 95.7941C96.7012 95.4994 96.5841 95.2168 96.3758 95.0084C96.1674 94.8 95.8848 94.683 95.5901 94.683C94.281 94.6852 92.9843 94.429 91.7743 93.9292C90.5644 93.4293 89.465 92.6957 88.5391 91.7702C87.6132 90.8447 86.879 89.7456 86.3787 88.5358C85.8784 87.3261 85.6217 86.0295 85.6233 84.7204V80.2632C85.6233 79.9691 85.5065 79.687 85.2985 79.479C85.0905 79.271 84.8084 79.1542 84.5143 79.1542C84.2201 79.1542 83.938 79.271 83.7301 79.479C83.5221 79.687 83.4052 79.9691 83.4052 80.2632ZM73.2498 81.9279C73.3189 82.061 73.4142 82.1787 73.53 82.274C73.6458 82.3692 73.7796 82.4401 73.9236 82.4823C74.0675 82.5244 74.2184 82.537 74.3673 82.5193C74.5162 82.5016 74.66 82.4539 74.79 82.3791C74.92 82.3044 75.0335 82.2041 75.1237 82.0843C75.2139 81.9645 75.2789 81.8277 75.3148 81.6821C75.3507 81.5365 75.3568 81.3851 75.3326 81.2371C75.3085 81.0891 75.2547 80.9476 75.1744 80.8209C74.8756 80.3093 74.4458 79.8865 73.9293 79.5962C73.4128 79.3059 72.8282 79.1584 72.2358 79.1691C71.6434 79.1798 71.0645 79.3482 70.5588 79.6569C70.0531 79.9657 69.6389 80.4037 69.3587 80.9257C68.6458 80.5434 67.8577 80.3219 67.0499 80.277C66.2422 80.2321 65.4344 80.3648 64.6835 80.6658C62.13 81.6847 60.7043 84.4395 61.3501 87.1104C61.666 88.4062 62.4366 89.5455 63.5215 90.3212C64.6065 91.0968 65.9339 91.4573 67.2622 91.3369C67.4073 91.3232 67.5482 91.281 67.677 91.2127C67.8058 91.1445 67.9199 91.0515 68.0127 90.9392C68.1056 90.8269 68.1754 90.6974 68.2182 90.5581C68.261 90.4187 68.276 90.2724 68.2622 90.1273C68.2485 89.9822 68.2062 89.8412 68.138 89.7124C68.0698 89.5837 67.9768 89.4696 67.8645 89.3767C67.7522 89.2839 67.6226 89.214 67.4833 89.1712C67.344 89.1284 67.1976 89.1135 67.0525 89.1272C66.2561 89.2044 65.4587 88.9904 64.8081 88.5247C64.1574 88.0591 63.6975 87.3734 63.5137 86.5947C63.1237 84.9804 63.9665 83.3367 65.5095 82.7203C67.0525 82.104 68.7968 82.7078 69.627 84.146C69.9331 84.6785 70.6124 84.8588 71.1449 84.5569C71.2708 84.484 71.3811 84.387 71.4694 84.2714C71.5578 84.1559 71.6225 84.024 71.6599 83.8835C71.6973 83.7429 71.7066 83.5963 71.6873 83.4521C71.668 83.308 71.6205 83.169 71.5474 83.0432C71.4355 82.8502 71.3123 82.664 71.1784 82.4855C71.1784 81.974 71.5139 81.5421 72.0045 81.4121C72.2398 81.3475 72.49 81.3632 72.7155 81.4566C72.941 81.5499 73.129 81.7158 73.2498 81.9279ZM93.4097 84.5569C93.9422 84.863 94.6215 84.6785 94.9276 84.146C95.2271 83.6304 95.6597 83.2049 96.1801 82.9139C96.7005 82.623 97.2896 82.4773 97.8857 82.4922C98.4817 82.5071 99.0628 82.6819 99.5681 82.9985C100.073 83.315 100.484 83.7616 100.758 84.2915C101.031 84.8214 101.157 85.415 101.122 86.0102C101.087 86.6054 100.893 87.1803 100.56 87.6747C100.227 88.1691 99.7665 88.5648 99.2278 88.8204C98.6891 89.0759 98.0916 89.1819 97.4979 89.1272C97.2049 89.1005 96.9132 89.1914 96.6872 89.3797C96.4611 89.568 96.3191 89.8384 96.2924 90.1315C96.2657 90.4245 96.3565 90.7161 96.5448 90.9422C96.7332 91.1683 97.0036 91.3103 97.2966 91.3369C100.03 91.5885 102.555 89.7855 103.2 87.1104C103.446 86.0718 103.387 84.9844 103.031 83.9784C102.675 82.9723 102.036 82.0902 101.192 81.4374C100.348 80.7846 99.3331 80.3888 98.2698 80.2973C97.2065 80.2058 96.1393 80.4225 95.1959 80.9215C94.9166 80.3976 94.5023 79.9579 93.9958 79.6479C93.4894 79.338 92.9093 79.1692 92.3156 79.1589C91.7219 79.1486 91.1363 79.2973 90.6195 79.5895C90.1026 79.8818 89.6733 80.3069 89.376 80.8209C89.3034 80.9473 89.2563 81.0867 89.2375 81.2313C89.2187 81.3759 89.2286 81.5227 89.2665 81.6635C89.3045 81.8042 89.3698 81.9361 89.4587 82.0516C89.5477 82.1671 89.6585 82.264 89.7849 82.3367C89.9112 82.4094 90.0507 82.4564 90.1952 82.4752C90.3398 82.494 90.4867 82.4842 90.6274 82.4462C90.7682 82.4082 90.9001 82.3429 91.0156 82.254C91.1311 82.165 91.2279 82.0542 91.3006 81.9279C91.4214 81.7158 91.6094 81.5499 91.8349 81.4566C92.0604 81.3632 92.3106 81.3475 92.546 81.4121C92.7834 81.4737 92.9936 81.6127 93.1432 81.8071C93.2928 82.0015 93.3733 82.2402 93.372 82.4855C93.2381 82.664 93.1149 82.8502 93.003 83.0432C92.8572 83.2974 92.8181 83.599 92.8943 83.882C92.9706 84.165 93.1559 84.4062 93.4097 84.5527V84.5569Z" fill="#FFCA28"/>
<path d="M45.658 82.4856C45.3633 82.4856 45.0807 82.6027 44.8723 82.811C44.6639 83.0194 44.5469 83.302 44.5469 83.5967C44.5469 83.8914 44.6639 84.1741 44.8723 84.3824C45.0807 84.5908 45.3633 84.7079 45.658 84.7079H57.868C58.1627 84.7079 58.4453 84.5908 58.6537 84.3824C58.8621 84.1741 58.9792 83.8914 58.9792 83.5967C58.9792 83.302 58.8621 83.0194 58.6537 82.811C58.4453 82.6027 58.1627 82.4856 57.868 82.4856H45.658ZM45.658 89.1357C45.3633 89.1357 45.0807 89.2528 44.8723 89.4611C44.6639 89.6695 44.5469 89.9521 44.5469 90.2468C44.5469 90.5415 44.6639 90.8242 44.8723 91.0325C45.0807 91.2409 45.3633 91.358 45.658 91.358H57.868C58.1627 91.358 58.4453 91.2409 58.6537 91.0325C58.8621 90.8242 58.9792 90.5415 58.9792 90.2468C58.9792 89.9521 58.8621 89.6695 58.6537 89.4611C58.4453 89.2528 58.1627 89.1357 57.868 89.1357H45.658Z" fill="#549AD4"/>
<path d="M53.5354 96.9849C53.2712 99.9451 48.4367 100.289 45.9922 100.281C46.1888 100.605 46.4656 100.874 46.7961 101.06C47.1266 101.247 47.4995 101.345 47.879 101.346H52.9777C53.5192 101.35 54.0434 101.155 54.4512 100.799C54.859 100.443 55.1221 99.9497 55.1908 99.4126C55.2595 98.8755 55.1289 98.3319 54.8239 97.8845C54.5189 97.4371 54.0605 97.1171 53.5354 96.9849Z" fill="#3588CB"/>
<path d="M77.2188 61.4031C77.7848 64.7659 78.7869 67.898 79.8729 70.2796H86.8794L86.9549 70.1371C87.0304 70.179 87.0974 70.2377 87.1729 70.2796H92.0703C92.1877 69.7765 92.2548 69.2607 92.2548 68.7366C92.2548 66.334 91.0095 64.2501 89.1939 63.1893C89.3197 62.6023 89.4413 62.0069 89.5462 61.4073L77.2188 61.4031Z" fill="#3588CB"/>
<path d="M84.8832 69.831C86.2962 70.0365 87.4493 71.1895 87.7302 72.7577C87.8728 73.5712 88.7785 73.8898 89.3277 73.3238C90.485 72.133 91.1475 70.4725 91.1475 68.7324C91.1475 65.6464 89.1013 63.0635 86.4094 62.531L84.8832 69.831ZM79.6713 69.831C78.254 70.0365 77.0968 71.1895 76.82 72.7577C76.6775 73.5712 75.7718 73.8898 75.2183 73.3238C74.0407 72.0863 73.3885 70.4406 73.3986 68.7324C73.3986 65.6464 75.4489 63.0635 78.1366 62.531L79.6713 69.831Z" fill="#FFCA28"/>
<path d="M84.8828 69.8268C85.4048 69.9111 85.8995 70.1176 86.3265 70.4295C86.7536 70.7414 87.1008 71.1498 87.3399 71.6214C88.2791 69.8771 89.2016 67.5165 89.9102 64.8539C89.0824 63.6631 87.8319 62.8324 86.4133 62.531L84.8828 69.8268Z" fill="#ECB200"/>
<path d="M88.93 55.86C88.93 65.0511 84.5021 74.7201 82.2757 74.7201C80.0492 74.7201 75.6172 65.0511 75.6172 55.86C75.6172 46.669 80.0492 39.218 82.2757 39.218C84.498 39.218 88.93 46.669 88.93 55.86Z" fill="#E4EFF8"/>
<path d="M82.271 39.2222C81.9482 39.2222 81.5666 39.3983 81.1641 39.7044C83.4954 41.4697 86.7114 48.0233 86.7114 55.86C86.7114 63.6967 83.4954 71.8563 81.1641 74.0995C81.5666 74.4853 81.9482 74.7201 82.2752 74.7201C84.4975 74.7201 88.9295 65.0511 88.9295 55.86C88.9295 46.669 84.5017 39.218 82.2752 39.218L82.271 39.2222Z" fill="#C4DCF0"/>
<path d="M85.6055 52.5307C85.6055 53.4137 85.2548 54.2605 84.6304 54.8849C84.0061 55.5092 83.1593 55.86 82.2763 55.86C81.3933 55.86 80.5465 55.5092 79.9222 54.8849C79.2978 54.2605 78.9471 53.4137 78.9471 52.5307C78.9471 51.6478 79.2978 50.801 79.9222 50.1766C80.5465 49.5523 81.3933 49.2015 82.2763 49.2015C83.1593 49.2015 84.0061 49.5523 84.6304 50.1766C85.2548 50.801 85.6055 51.6478 85.6055 52.5307ZM88.3729 61.7637C87.6474 62.686 86.7222 63.4319 85.667 63.9453C84.6117 64.4587 83.4539 64.7262 82.2804 64.7278C81.1069 64.7295 79.9483 64.4651 78.8916 63.9546C77.835 63.4441 76.9078 62.7008 76.1797 61.7805C77.4376 68.7744 80.532 74.7201 82.2763 74.7201C84.0206 74.7201 87.115 68.766 88.3729 61.7637ZM82.2721 39.2222C81.161 39.2222 79.5005 41.0797 78.1169 44.086C78.4326 44.934 79 45.6651 79.7431 46.1814C80.4862 46.6976 81.3694 46.9743 82.2742 46.9743C83.179 46.9743 84.0622 46.6976 84.8053 46.1814C85.5484 45.6651 86.1158 44.934 86.4316 44.086C85.0479 41.0755 83.3874 39.2222 82.2763 39.2222H82.2721Z" fill="#549AD4"/>
<path d="M80.0581 53.6419C79.7312 53.6406 79.4063 53.5912 79.0938 53.4952C79.2596 54.0466 79.5656 54.5457 79.9819 54.9435C80.3983 55.3414 80.9107 55.6244 81.4691 55.765C82.0275 55.9056 82.6129 55.899 83.168 55.7457C83.7231 55.5925 84.2289 55.2979 84.6361 54.8907C85.0433 54.4835 85.3379 53.9776 85.4912 53.4225C85.6444 52.8674 85.6511 52.2821 85.5105 51.7236C85.3699 51.1652 85.0868 50.6528 84.689 50.2365C84.2911 49.8201 83.7921 49.5141 83.2406 49.3483C83.3912 49.8457 83.4232 50.3715 83.3341 50.8835C83.245 51.3955 83.0372 51.8795 82.7275 52.2968C82.4178 52.7142 82.0146 53.0532 81.5504 53.2867C81.0861 53.5203 80.5778 53.642 80.0581 53.6419ZM88.3728 61.7638C87.656 62.6771 86.7432 63.4179 85.7019 63.9315C84.5614 68.6948 82.6746 72.653 81.1567 74.1079C81.5634 74.5021 81.945 74.7201 82.2762 74.7201C84.0205 74.7201 87.1149 68.7661 88.3728 61.7638ZM82.272 39.2222C81.9492 39.2222 81.5676 39.3983 81.1651 39.7044C82.402 40.6394 83.878 42.9246 85.0017 46.0358C85.6516 45.5327 86.1464 44.8534 86.4315 44.0819C85.0478 41.0755 83.3874 39.218 82.2762 39.218L82.272 39.2222Z" fill="#3588CB"/>
<path d="M99.0394 82.7203C99.7893 83.0119 100.408 83.5655 100.781 84.2786C101.154 84.9916 101.256 85.8157 101.067 86.598C100.879 87.3803 100.413 88.0677 99.7565 88.5328C99.0998 88.9979 98.2968 89.2091 97.4963 89.1272C97.2033 89.1006 96.9117 89.1914 96.6856 89.3797C96.4595 89.568 96.3175 89.8384 96.2908 90.1315C96.2642 90.4245 96.355 90.7161 96.5433 90.9422C96.7316 91.1683 97.002 91.3103 97.2951 91.337C100.029 91.5885 102.553 89.7855 103.199 87.1104C103.508 85.8145 103.34 84.4508 102.728 83.2678C102.115 82.0848 101.098 81.1614 99.8612 80.6658C99.6515 80.5819 99.4377 80.5316 99.2238 80.4729C98.7938 81.1585 98.3392 81.8284 97.8611 82.4813C98.2553 82.4897 98.6494 82.5652 99.0352 82.7203H99.0394ZM88.343 91.5592C87.7308 91.9743 87.1061 92.381 86.4688 92.771C88.7036 95.2993 91.9616 96.9053 95.5885 96.9053C95.8832 96.9053 96.1658 96.7882 96.3742 96.5798C96.5826 96.3714 96.6997 96.0888 96.6997 95.7941C96.6997 95.4994 96.5826 95.2168 96.3742 95.0084C96.1658 94.8 95.8832 94.683 95.5885 94.683C94.2314 94.6853 92.8882 94.4093 91.642 93.872C90.3958 93.3347 89.273 92.5476 88.343 91.5592Z" fill="#ECB200"/>
<defs>
<filter id="filter0_d_3247_2976" x="0.666667" y="0.571429" width="146.667" height="146.667" filterUnits="userSpaceOnUse" color-interpolation-filters="sRGB">
<feFlood flood-opacity="0" result="BackgroundImageFix"/>
<feColorMatrix in="SourceAlpha" type="matrix" values="0 0 0 0 0 0 0 0 0 0 0 0 0 0 0 0 0 0 127 0" result="hardAlpha"/>
<feOffset dy="1.90476"/>
<feGaussianBlur stdDeviation="6.66667"/>
<feComposite in2="hardAlpha" operator="out"/>
<feColorMatrix type="matrix" values="0 0 0 0 0.695898 0 0 0 0 0.695898 0 0 0 0 0.695898 0 0 0 0.25 0"/>
<feBlend mode="normal" in2="BackgroundImageFix" result="effect1_dropShadow_3247_2976"/>
<feBlend mode="normal" in="SourceGraphic" in2="effect1_dropShadow_3247_2976" result="shape"/>
</filter>
</defs>
</svg>
