<svg width="83" height="83" viewBox="0 0 83 83" fill="none" xmlns="http://www.w3.org/2000/svg">
<circle cx="41.5" cy="41.5" r="41.5" fill="#6E7E83"/>
<path d="M46.6453 29.0063C47.8521 27.4494 48.7668 25.2474 48.4359 23C46.4628 23.1371 44.1588 24.3989 42.8136 26.0434C41.587 27.5341 40.5793 29.7499 40.9734 31.9024C43.1296 31.9698 45.3549 30.6777 46.6453 29.0063Z" fill="white"/>
<path d="M56.2317 35.4133C54.3385 33.0377 51.6761 31.6609 49.1622 31.6609C45.8445 31.6609 44.4403 33.2494 42.1363 33.2494C39.7589 33.2494 37.9534 31.6657 35.0835 31.6657C32.2637 31.6657 29.2614 33.3889 27.3587 36.3345C24.6838 40.484 25.1399 48.2822 29.4779 54.9259C31.0288 57.3039 33.0997 59.9752 35.8098 59.9996C38.2217 60.0235 38.9021 58.4529 42.1703 58.435C45.4373 58.4159 46.058 60.0199 48.4652 59.9925C51.1771 59.971 53.363 57.0099 54.9133 54.6319C56.0248 52.929 56.4398 52.0697 57.3026 50.1461C51.0274 47.7592 50.0215 38.8377 56.2317 35.4133Z" fill="#D8E2E4"/>
<path d="M52.4288 39.9998C47.686 43.8398 40.9809 46.2392 33.5387 46.2392C30.8721 46.2392 28.2998 45.9303 25.8789 45.3591C26.2885 48.4753 27.4561 51.824 29.4816 54.9252C31.0325 57.3032 33.1034 59.9745 35.8135 59.9989C38.2255 60.0228 38.9058 58.4522 42.174 58.4343C45.441 58.4152 46.0618 60.0192 48.4689 59.9918C51.1808 59.9703 53.3668 57.0092 54.9171 54.6312C56.0286 52.9283 56.4436 52.069 57.3064 50.1454C53.0394 48.5236 51.2124 43.8827 52.4288 39.9998Z" fill="white"/>
</svg>
