<svg width="148" height="148" viewBox="0 0 148 148" fill="none" xmlns="http://www.w3.org/2000/svg">
<g filter="url(#filter0_d_3238_2942)">
<circle cx="74" cy="72" r="60" fill="white"/>
</g>
<path d="M46.7656 58.0781H102.234C102.823 58.0781 103.387 58.3119 103.803 58.728C104.219 59.1441 104.453 59.7084 104.453 60.2969V100.234H44.5469V60.2969C44.5469 59.7084 44.7806 59.1441 45.1967 58.728C45.6128 58.3119 46.1772 58.0781 46.7656 58.0781Z" fill="#A7D6DD"/>
<path d="M48.9844 62.5156H100.016V95.7969H48.9844V62.5156Z" fill="#E6E6E6"/>
<path d="M42.3281 100.234H106.672V102.453C106.672 103.042 106.438 103.606 106.022 104.022C105.606 104.438 105.042 104.672 104.453 104.672H44.5469C43.9584 104.672 43.3941 104.438 42.978 104.022C42.5619 103.606 42.3281 103.042 42.3281 102.453V100.234Z" fill="#6CBBC7"/>
<path d="M74.5 79.1562L67.8438 86.9219H71.1719V91.3594H77.8281V86.9219H81.1562L74.5 79.1562Z" fill="#FF6536"/>
<path d="M74.5 73.6094C83.6904 73.6094 91.1406 66.1591 91.1406 56.9688C91.1406 47.7784 83.6904 40.3281 74.5 40.3281C65.3096 40.3281 57.8594 47.7784 57.8594 56.9688C57.8594 66.1591 65.3096 73.6094 74.5 73.6094Z" fill="#FDB62F"/>
<path d="M90.7257 60.6196C90.7346 60.5797 90.7479 60.542 90.7568 60.5021C90.8677 60.0117 90.9409 59.5103 91.0042 59.0044C91.0142 58.9168 91.0341 58.8324 91.043 58.7448C91.1075 58.155 91.1401 57.5621 91.1406 56.9687C91.1385 56.3447 91.1015 55.7214 91.0297 55.1016C91.0086 54.9175 90.9731 54.7377 90.9465 54.5547C90.8864 54.125 90.8091 53.6979 90.7146 53.2745C90.6714 53.0814 90.6181 52.8917 90.5682 52.702C90.4573 52.2882 90.3352 51.88 90.1943 51.4817C90.1377 51.3175 90.0834 51.1545 90.0157 50.9936C89.8441 50.5498 89.6537 50.1139 89.4444 49.6856C89.3945 49.5858 89.349 49.4837 89.2991 49.3839C88.1607 47.1804 86.5482 45.2564 84.5776 43.7505L83.3861 44.5992C82.4707 45.2531 81.8305 46.2236 81.5897 47.3226C81.3489 48.4215 81.5245 49.5708 82.0826 50.5476L82.7637 51.7391C83.2581 52.604 83.4542 53.6074 83.3219 54.5948C83.1896 55.5822 82.7362 56.4986 82.0315 57.2028C81.5381 57.6966 81.1651 58.2976 80.9415 58.959C80.718 59.6203 80.65 60.3244 80.7427 61.0163C80.8354 61.7083 81.0864 62.3695 81.4762 62.9487C81.8659 63.528 82.384 64.0095 82.99 64.356L83.4837 64.6378C84.1327 65.0086 84.8633 65.2135 85.6105 65.2342C86.3577 65.2549 87.0984 65.0908 87.767 64.7565L89.653 63.8124C90.1171 62.787 90.4765 61.7173 90.7257 60.6196ZM74.8151 65.7328C73.4012 65.1043 72.1998 64.0795 71.3563 62.7824C70.5128 61.4853 70.0634 59.9714 70.0625 58.4242C70.0626 56.7561 69.5413 55.1297 68.5715 53.7726L68.049 53.0404C67.0926 51.7076 65.749 50.7016 64.2008 50.1592C62.6526 49.6167 60.975 49.5641 59.3959 50.0085C59.1529 50.5359 58.937 51.0754 58.7491 51.6248L58.7413 51.647C58.567 52.1673 58.4189 52.6961 58.2976 53.2312C58.2854 53.2833 58.2687 53.3333 58.2576 53.3854C58.1467 53.8746 58.0702 54.3772 58.0047 54.8831C57.9925 54.9796 57.9714 55.0728 57.9614 55.1704C57.8943 55.7675 57.8602 56.3678 57.8594 56.9687C57.8594 61.3821 59.6126 65.6147 62.7333 68.7354C65.854 71.8561 70.0866 73.6093 74.5 73.6093C75.0358 73.6093 75.5639 73.5783 76.0875 73.5294C76.4436 73.4939 76.7942 73.4374 77.1436 73.3797C77.2879 73.3564 77.4332 73.3409 77.5752 73.3142C78.0278 73.2262 78.4742 73.1208 78.9142 72.9981L78.9885 72.9792C79.4567 72.8475 79.9163 72.6959 80.3675 72.5243C80.0372 71.0371 79.3629 69.648 78.3986 68.4685C77.4343 67.289 76.207 66.352 74.8151 65.7328Z" fill="#02998A"/>
<defs>
<filter id="filter0_d_3238_2942" x="0.666667" y="0.571429" width="146.667" height="146.667" filterUnits="userSpaceOnUse" color-interpolation-filters="sRGB">
<feFlood flood-opacity="0" result="BackgroundImageFix"/>
<feColorMatrix in="SourceAlpha" type="matrix" values="0 0 0 0 0 0 0 0 0 0 0 0 0 0 0 0 0 0 127 0" result="hardAlpha"/>
<feOffset dy="1.90476"/>
<feGaussianBlur stdDeviation="6.66667"/>
<feComposite in2="hardAlpha" operator="out"/>
<feColorMatrix type="matrix" values="0 0 0 0 0.695898 0 0 0 0 0.695898 0 0 0 0 0.695898 0 0 0 0.25 0"/>
<feBlend mode="normal" in2="BackgroundImageFix" result="effect1_dropShadow_3238_2942"/>
<feBlend mode="normal" in="SourceGraphic" in2="effect1_dropShadow_3238_2942" result="shape"/>
</filter>
</defs>
</svg>
