<svg width="148" height="148" viewBox="0 0 148 148" fill="none" xmlns="http://www.w3.org/2000/svg">
<g filter="url(#filter0_d_2030_2354)">
<circle cx="74" cy="72" r="60" fill="white"/>
</g>
<path d="M93.6699 105H55.3301C47.9799 105 42 99.0201 42 91.6699V53.3301C42 45.9799 47.9799 40 55.3301 40H93.6699C101.02 40 107 45.9799 107 53.3301V91.6699C107 99.0201 101.02 105 93.6699 105Z" fill="#00C3FF"/>
<path d="M93.6699 40H74.5V105H93.6699C101.02 105 107 99.0201 107 91.6699V53.3301C107 45.9799 101.02 40 93.6699 40Z" fill="#00AAF0"/>
<path d="M62.015 90.0849C61.4279 91.1019 60.3588 91.671 59.261 91.6711C58.7056 91.6713 58.1601 91.5249 57.6794 91.2466C56.1639 90.3717 55.6427 88.4267 56.5177 86.9112L57.1419 85.83H64.4716L62.015 90.0849ZM56.0293 83.291C54.2792 83.291 52.8555 81.8672 52.8555 80.1171C52.8555 78.3671 54.2792 76.9433 56.0293 76.9433H62.2726L70.8361 62.1109L68.5153 58.091C67.6403 56.5755 68.1613 54.6305 69.6769 53.7554C71.1925 52.8805 73.1375 53.4018 74.0125 54.9172L74.501 55.7633L74.9895 54.9173C75.8648 53.4016 77.8098 52.8806 79.3249 53.7556C80.0591 54.1795 80.5843 54.8639 80.8037 55.6827C81.0232 56.5016 80.9105 57.357 80.4866 58.0912L69.6022 76.9433H76.4677L80.1326 83.291H56.0293Z" fill="white"/>
<path d="M92.9717 83.2909H90.3931L92.4832 86.911C93.3583 88.4264 92.8371 90.3714 91.3217 91.2464C90.8325 91.5288 90.2897 91.6731 89.7397 91.6731C89.464 91.6731 89.1867 91.637 88.9131 91.5636C88.0941 91.3441 87.4097 90.8189 86.9858 90.0846L75.9658 70.9974L79.6306 64.6498L86.7284 76.9433H92.9717C94.7217 76.9433 96.1455 78.3671 96.1455 80.1171C96.1455 81.8671 94.7217 83.2909 92.9717 83.2909ZM74.5 76.9433V83.2909H80.1316L76.4669 76.9433H74.5ZM80.8027 55.6826C80.5832 54.8637 80.0581 54.1792 79.324 53.7554C77.8087 52.8804 75.8637 53.4013 74.9885 54.9172L74.5 55.7632V68.4585L80.4856 58.091C80.9095 57.3568 81.0222 56.5015 80.8027 55.6826Z" fill="#F2F2F2"/>
<defs>
<filter id="filter0_d_2030_2354" x="0.666667" y="0.571429" width="146.667" height="146.667" filterUnits="userSpaceOnUse" color-interpolation-filters="sRGB">
<feFlood flood-opacity="0" result="BackgroundImageFix"/>
<feColorMatrix in="SourceAlpha" type="matrix" values="0 0 0 0 0 0 0 0 0 0 0 0 0 0 0 0 0 0 127 0" result="hardAlpha"/>
<feOffset dy="1.90476"/>
<feGaussianBlur stdDeviation="6.66667"/>
<feComposite in2="hardAlpha" operator="out"/>
<feColorMatrix type="matrix" values="0 0 0 0 0.695898 0 0 0 0 0.695898 0 0 0 0 0.695898 0 0 0 0.25 0"/>
<feBlend mode="normal" in2="BackgroundImageFix" result="effect1_dropShadow_2030_2354"/>
<feBlend mode="normal" in="SourceGraphic" in2="effect1_dropShadow_2030_2354" result="shape"/>
</filter>
</defs>
</svg>
