<svg width="148" height="148" viewBox="0 0 148 148" fill="none" xmlns="http://www.w3.org/2000/svg">
<g filter="url(#filter0_d_2030_6771)">
<circle cx="74" cy="72" r="60" fill="white"/>
</g>
<g clip-path="url(#clip0_2030_6771)">
<path d="M102.508 37.832H46.4844C42.8082 37.832 39.8281 40.8121 39.8281 44.4883V100.512C39.8281 104.188 42.8082 107.168 46.4844 107.168H102.508C106.184 107.168 109.164 104.188 109.164 100.512V44.4883C109.164 40.8121 106.184 37.832 102.508 37.832Z" fill="#E0F7FA"/>
<path d="M109.164 44.4883V52.8086H39.8281V44.4883C39.8281 42.7229 40.5294 41.0299 41.7777 39.7816C43.026 38.5333 44.719 37.832 46.4844 37.832H102.508C104.273 37.832 105.966 38.5333 107.214 39.7816C108.463 41.0299 109.164 42.7229 109.164 44.4883Z" fill="#455A64"/>
<path d="M47.5938 47.2617C48.5128 47.2617 49.2578 46.5167 49.2578 45.5977C49.2578 44.6786 48.5128 43.9336 47.5938 43.9336C46.6747 43.9336 45.9297 44.6786 45.9297 45.5977C45.9297 46.5167 46.6747 47.2617 47.5938 47.2617Z" fill="#E91E63"/>
<path d="M65.3438 47.2617C66.2628 47.2617 67.0078 46.5167 67.0078 45.5977C67.0078 44.6786 66.2628 43.9336 65.3438 43.9336C64.4247 43.9336 63.6797 44.6786 63.6797 45.5977C63.6797 46.5167 64.4247 47.2617 65.3438 47.2617Z" fill="#CDDC39"/>
<path d="M56.4688 47.2617C57.3878 47.2617 58.1328 46.5167 58.1328 45.5977C58.1328 44.6786 57.3878 43.9336 56.4688 43.9336C55.5497 43.9336 54.8047 44.6786 54.8047 45.5977C54.8047 46.5167 55.5497 47.2617 56.4688 47.2617Z" fill="#FFC107"/>
<path d="M100.844 43.9336H91.9688C91.5274 43.9336 91.1042 44.1089 90.7921 44.421C90.48 44.7331 90.3047 45.1563 90.3047 45.5977C90.3047 46.039 90.48 46.4623 90.7921 46.7743C91.1042 47.0864 91.5274 47.2617 91.9688 47.2617H100.844C101.285 47.2617 101.708 47.0864 102.02 46.7743C102.332 46.4623 102.508 46.039 102.508 45.5977C102.508 45.1563 102.332 44.7331 102.02 44.421C101.708 44.1089 101.285 43.9336 100.844 43.9336Z" fill="white"/>
<path d="M103.062 57.8008H45.9297C45.0107 57.8008 44.2656 58.5458 44.2656 59.4648V68.8945C44.2656 69.8136 45.0107 70.5586 45.9297 70.5586H103.062C103.982 70.5586 104.727 69.8136 104.727 68.8945V59.4648C104.727 58.5458 103.982 57.8008 103.062 57.8008Z" fill="white"/>
<path d="M103.062 76.6602H85.3125C84.3935 76.6602 83.6484 77.4052 83.6484 78.3242V82.207C83.6484 83.1261 84.3935 83.8711 85.3125 83.8711H103.062C103.982 83.8711 104.727 83.1261 104.727 82.207V78.3242C104.727 77.4052 103.982 76.6602 103.062 76.6602Z" fill="white"/>
<path d="M76.4375 76.6602H46.4844C45.5653 76.6602 44.8203 77.4052 44.8203 78.3242V100.512C44.8203 101.431 45.5653 102.176 46.4844 102.176H76.4375C77.3565 102.176 78.1016 101.431 78.1016 100.512V78.3242C78.1016 77.4052 77.3565 76.6602 76.4375 76.6602Z" fill="#80DEEA"/>
<path d="M62.1931 92.3844L53.6914 84.971C53.0679 84.4272 52.2642 84.1351 51.437 84.1517C50.6098 84.1683 49.8185 84.4925 49.2173 85.0609L44.8203 89.2177V100.512C44.8203 100.953 44.9956 101.376 45.3077 101.688C45.6198 102 46.043 102.176 46.4844 102.176H76.4375C76.8788 102.176 77.3021 102 77.6142 101.688C77.9262 101.376 78.1016 100.953 78.1016 100.512V91.9789L75.3176 89.0103C74.7281 88.3816 73.9176 88.0061 73.0569 87.9629C72.1961 87.9196 71.3522 88.212 70.7026 88.7784L66.5679 92.3839C65.9619 92.9125 65.1849 93.2038 64.3806 93.2039C63.5764 93.2041 62.7993 92.9129 62.1931 92.3844Z" fill="#CDDC39"/>
<path d="M64.5117 84.9805C65.8903 84.9805 67.0078 83.8629 67.0078 82.4844C67.0078 81.1058 65.8903 79.9883 64.5117 79.9883C63.1332 79.9883 62.0156 81.1058 62.0156 82.4844C62.0156 83.8629 63.1332 84.9805 64.5117 84.9805Z" fill="#FFC239"/>
<path d="M104.73 96.3516H84.207C83.9864 96.3516 83.7747 96.2639 83.6187 96.1079C83.4627 95.9518 83.375 95.7402 83.375 95.5195C83.375 95.2989 83.4627 95.0872 83.6187 94.9312C83.7747 94.7752 83.9864 94.6875 84.207 94.6875H104.73C104.951 94.6875 105.163 94.7752 105.319 94.9312C105.475 95.0872 105.562 95.2989 105.562 95.5195C105.562 95.7402 105.475 95.9518 105.319 96.1079C105.163 96.2639 104.951 96.3516 104.73 96.3516ZM104.73 103.008H84.207C83.9864 103.008 83.7747 102.92 83.6187 102.764C83.4627 102.608 83.375 102.396 83.375 102.176C83.375 101.955 83.4627 101.743 83.6187 101.587C83.7747 101.431 83.9864 101.344 84.207 101.344H104.73C104.951 101.344 105.163 101.431 105.319 101.587C105.475 101.743 105.562 101.955 105.562 102.176C105.562 102.396 105.475 102.608 105.319 102.764C105.163 102.92 104.951 103.008 104.73 103.008ZM104.73 89.6953H84.207C83.9864 89.6953 83.7747 89.6077 83.6187 89.4516C83.4627 89.2956 83.375 89.0839 83.375 88.8633C83.375 88.6426 83.4627 88.431 83.6187 88.2749C83.7747 88.1189 83.9864 88.0312 84.207 88.0312H104.73C104.951 88.0312 105.163 88.1189 105.319 88.2749C105.475 88.431 105.562 88.6426 105.562 88.8633C105.562 89.0839 105.475 89.2956 105.319 89.4516C105.163 89.6077 104.951 89.6953 104.73 89.6953Z" fill="#455A64"/>
<path d="M59.7979 68.0625C59.5772 68.0625 59.3656 67.9748 59.2095 67.8188C59.0535 67.6628 58.9658 67.4511 58.9658 67.2305V61.1289C58.9658 60.9082 59.0535 60.6966 59.2095 60.5406C59.3656 60.3845 59.5772 60.2969 59.7979 60.2969C60.0185 60.2969 60.2302 60.3845 60.3862 60.5406C60.5422 60.6966 60.6299 60.9082 60.6299 61.1289V67.2305C60.6299 67.4511 60.5422 67.6628 60.3862 67.8188C60.2302 67.9748 60.0185 68.0625 59.7979 68.0625ZM54.6792 66.7895L53.6808 65.1937C54.0345 64.7541 54.2281 64.2074 54.23 63.6433C54.2319 63.0791 54.0418 62.5311 53.6911 62.0893C53.3403 61.6474 52.8497 61.338 52.2998 61.2118C51.75 61.0857 51.1735 61.1503 50.6653 61.3951C50.157 61.6399 49.7471 62.0502 49.5028 62.5588C49.2586 63.0673 49.1946 63.6438 49.3214 64.1936C49.4481 64.7433 49.7581 65.2336 50.2003 65.5838C50.6425 65.9341 51.1907 66.1236 51.7549 66.1211C51.9266 66.1202 52.0978 66.1016 52.2658 66.0656L53.2681 67.6742C53.385 67.8613 53.5715 67.9943 53.7866 68.044C54.0016 68.0936 54.2275 68.0558 54.4146 67.9388C54.6017 67.8219 54.7347 67.6353 54.7844 67.4203C54.834 67.2053 54.7962 66.9794 54.6792 66.7923V66.7895Z" fill="#80DEEA"/>
</g>
<defs>
<filter id="filter0_d_2030_6771" x="0.666667" y="0.571429" width="146.667" height="146.667" filterUnits="userSpaceOnUse" color-interpolation-filters="sRGB">
<feFlood flood-opacity="0" result="BackgroundImageFix"/>
<feColorMatrix in="SourceAlpha" type="matrix" values="0 0 0 0 0 0 0 0 0 0 0 0 0 0 0 0 0 0 127 0" result="hardAlpha"/>
<feOffset dy="1.90476"/>
<feGaussianBlur stdDeviation="6.66667"/>
<feComposite in2="hardAlpha" operator="out"/>
<feColorMatrix type="matrix" values="0 0 0 0 0.695898 0 0 0 0 0.695898 0 0 0 0 0.695898 0 0 0 0.25 0"/>
<feBlend mode="normal" in2="BackgroundImageFix" result="effect1_dropShadow_2030_6771"/>
<feBlend mode="normal" in="SourceGraphic" in2="effect1_dropShadow_2030_6771" result="shape"/>
</filter>
<clipPath id="clip0_2030_6771">
<rect width="71" height="71" fill="white" transform="translate(39 37)"/>
</clipPath>
</defs>
</svg>
