<svg width="49" height="49" viewBox="0 0 49 49" fill="none" xmlns="http://www.w3.org/2000/svg">
<circle cx="24.5674" cy="24.4345" r="23.9345" stroke="url(#paint0_linear_735_83)"/>
<g clip-path="url(#clip0_735_83)">
<path d="M14.9632 32.0557V29.7098H18.8307C19.521 29.7098 20.0564 29.4985 20.4368 29.0758C20.8313 28.6531 21.0286 28.1529 21.0286 27.5753C21.0286 27.1808 20.9441 26.8215 20.775 26.4974C20.6059 26.1734 20.3523 25.9198 20.0142 25.7366C19.6901 25.5394 19.2956 25.4407 18.8307 25.4407H14.9632V23.116H18.5137C19.1054 23.116 19.5774 22.9681 19.9296 22.6722C20.296 22.3763 20.4791 21.9325 20.4791 21.3408C20.4791 20.7349 20.296 20.2841 19.9296 19.9882C19.5774 19.6923 19.1054 19.5444 18.5137 19.5444H14.9632V17.1985H18.8518C19.8381 17.1985 20.6623 17.3817 21.3245 17.748C22.0008 18.1002 22.508 18.5722 22.8461 19.164C23.1843 19.7416 23.3533 20.3756 23.3533 21.066C23.3533 21.9114 23.0927 22.644 22.5714 23.2639C22.0642 23.8698 21.3174 24.3206 20.3312 24.6165L20.458 23.6866C21.5569 23.9966 22.4023 24.5109 22.9941 25.2294C23.5999 25.9339 23.9028 26.7863 23.9028 27.7866C23.9028 28.5756 23.7056 29.2942 23.3111 29.9423C22.9307 30.5763 22.3671 31.0905 21.6203 31.485C20.8877 31.8655 19.993 32.0557 18.9363 32.0557H14.9632ZM12.8498 32.0557V17.1985H15.7028V32.0557H12.8498ZM30.7684 32.267C29.6976 32.267 28.7466 32.0416 27.9153 31.5907C27.084 31.1258 26.4218 30.4918 25.9287 29.6887C25.4497 28.8856 25.2101 27.9698 25.2101 26.9413C25.2101 25.9268 25.4426 25.0251 25.9076 24.2361C26.3866 23.433 27.0347 22.799 27.8519 22.3341C28.6691 21.855 29.5778 21.6155 30.5782 21.6155C31.5644 21.6155 32.4309 21.8409 33.1776 22.2918C33.9385 22.7286 34.5302 23.3344 34.9529 24.1093C35.3897 24.8701 35.608 25.7366 35.608 26.7088C35.608 26.8919 35.5939 27.0821 35.5658 27.2794C35.5517 27.4626 35.5165 27.6739 35.4601 27.9134L26.8797 27.9345V25.8634L34.1709 25.8423L33.0508 26.7088C33.0227 26.1029 32.9099 25.5957 32.7127 25.1871C32.5295 24.7785 32.2548 24.4686 31.8885 24.2572C31.5362 24.0318 31.0995 23.9191 30.5782 23.9191C30.0287 23.9191 29.5496 24.0459 29.1411 24.2995C28.7325 24.539 28.4155 24.8842 28.19 25.3351C27.9787 25.7718 27.873 26.2931 27.873 26.899C27.873 27.5189 27.9857 28.0614 28.2112 28.5263C28.4507 28.9772 28.7888 29.3294 29.2256 29.583C29.6624 29.8225 30.1696 29.9423 30.7472 29.9423C31.2685 29.9423 31.7405 29.8577 32.1632 29.6887C32.5859 29.5055 32.9522 29.2378 33.2622 28.8856L34.8895 30.5129C34.3964 31.0905 33.7905 31.5273 33.072 31.8232C32.3675 32.1191 31.5996 32.267 30.7684 32.267Z" fill="url(#paint1_linear_735_83)"/>
<rect x="25.9336" y="17.2002" width="8.6006" height="2.45732" rx="1.22866" fill="url(#paint2_linear_735_83)"/>
</g>
<defs>
<linearGradient id="paint0_linear_735_83" x1="0.132813" y1="0" x2="58.7161" y2="29.7219" gradientUnits="userSpaceOnUse">
<stop stop-color="#3AC3EB"/>
<stop offset="1" stop-color="#792F85"/>
</linearGradient>
<linearGradient id="paint1_linear_735_83" x1="11.3281" y1="11.0557" x2="42.1992" y2="25.5577" gradientUnits="userSpaceOnUse">
<stop stop-color="#3AC3EB"/>
<stop offset="1" stop-color="#792F85"/>
</linearGradient>
<linearGradient id="paint2_linear_735_83" x1="25.9336" y1="17.2002" x2="29.0551" y2="22.7431" gradientUnits="userSpaceOnUse">
<stop stop-color="#3AC3EB"/>
<stop offset="1" stop-color="#792F85"/>
</linearGradient>
<clipPath id="clip0_735_83">
<rect width="24.4346" height="24.4346" fill="white" transform="translate(12.418 12.2861)"/>
</clipPath>
</defs>
</svg>
