<svg width="100" height="100" viewBox="0 0 100 100" fill="none" xmlns="http://www.w3.org/2000/svg">
<path d="M25.0279 65.2279H13.6848C12.9528 65.2279 12.3594 65.8213 12.3594 66.5533V87.4185C12.3594 88.1505 12.9528 88.7439 13.6848 88.7439H25.0279C25.7599 88.7439 26.3533 88.1505 26.3533 87.4185V66.5533C26.3533 65.8213 25.7599 65.2279 25.0279 65.2279Z" fill="#D1D1D6"/>
<path fill-rule="evenodd" clip-rule="evenodd" d="M18.1953 78.4888C18.1953 77.8489 18.7139 77.3304 19.3537 77.3304C19.9936 77.3304 20.5121 77.8489 20.5121 78.4888V84.5462C20.5121 85.186 19.9936 85.7046 19.3537 85.7046C18.7139 85.7046 18.1953 85.186 18.1953 84.5462V78.4888Z" fill="#ECEFF1"/>
<path fill-rule="evenodd" clip-rule="evenodd" d="M38.8988 76.3337C39.2012 79.7808 41.1365 79.8669 46.076 80.0849C50.4406 80.2782 54.8967 80.1657 59.2736 80.1657C64.3766 80.1657 64.2482 72.4999 59.2736 72.4999H47.8268C46.2236 72.4929 44.8736 72.1519 43.6309 71.4769C41.8467 70.5083 39.7936 67.7977 38.8285 67.5042C37.1516 66.9944 28.6473 67.3565 26.3516 67.3565V85.8628C32.0293 87.371 49.2172 92.9345 54.2147 92.1013C56.5543 91.711 57.9148 90.644 59.9434 89.6579C77.0838 80.4856 85.9484 76.0032 87.6412 75.1542C82.5857 67.571 70.3795 74.3333 63.7068 76.5534C63.5908 78.9054 61.6291 80.7739 59.2736 80.7739C54.8879 80.7739 50.423 80.8829 46.0496 80.6895C40.7252 80.454 38.6404 80.3608 38.2924 76.3847L38.8988 76.3319V76.3337Z" fill="#F6DCCD"/>
<path d="M50.0006 63.8762C65.4821 63.8762 78.0324 51.3259 78.0324 35.8443C78.0324 20.3628 65.4821 7.8125 50.0006 7.8125C34.519 7.8125 21.9688 20.3628 21.9688 35.8443C21.9688 51.3259 34.519 63.8762 50.0006 63.8762Z" fill="#FFE177"/>
<path d="M64.3806 50.2325C72.3264 42.2866 72.3264 29.4038 64.3806 21.4579C56.4347 13.5121 43.5519 13.5121 35.606 21.4579C27.6602 29.4038 27.6602 42.2866 35.606 50.2325C43.5519 58.1784 56.4347 58.1784 64.3806 50.2325Z" fill="#F6B92B"/>
<path fill-rule="evenodd" clip-rule="evenodd" d="M56.3379 30.599C56.3379 32.0334 54.1582 32.0334 54.1582 30.599C54.1582 28.3033 52.2984 26.4435 50.0027 26.4435C47.707 26.4435 45.8473 28.3033 45.8473 30.599C45.8473 37.3876 56.3396 32.0562 56.3396 41.0914C56.3396 44.2185 54.0738 46.8166 51.0926 47.3333V50.5959C51.0926 50.8849 50.9778 51.1621 50.7734 51.3665C50.569 51.5709 50.2918 51.6857 50.0027 51.6857C49.7137 51.6857 49.4365 51.5709 49.2321 51.3665C49.0277 51.1621 48.9129 50.8849 48.9129 50.5959V47.3333C45.9334 46.8166 43.6658 44.2185 43.6658 41.0914C43.6658 39.657 45.8455 39.657 45.8455 41.0914C45.8455 43.3871 47.7053 45.2468 50.001 45.2468C52.2967 45.2468 54.1564 43.3871 54.1564 41.0914C54.1564 34.3027 43.6641 39.6341 43.6641 30.599C43.6641 27.4718 45.9299 24.8738 48.9111 24.357V21.0945C48.9111 20.8054 49.026 20.5282 49.2303 20.3238C49.4347 20.1195 49.7119 20.0046 50.001 20.0046C50.29 20.0046 50.5672 20.1195 50.7716 20.3238C50.976 20.5282 51.0908 20.8054 51.0908 21.0945V24.357C54.0703 24.8738 56.3379 27.4718 56.3379 30.599Z" fill="#FFE177"/>
</svg>
