<svg width="147" height="190" viewBox="0 0 147 190" fill="none" xmlns="http://www.w3.org/2000/svg">
<path d="M73 144C73 143.448 72.5523 143 72 143C71.4477 143 71 143.448 71 144L73 144ZM72 189.774L77.7735 184L72 178.226L66.2265 184L72 189.774ZM71 144L71 184L73 184L73 144L71 144Z" fill="#5AB8A2"/>
<path d="M11.5664 37.7426L73.5 1.98527L135.434 37.7426V109.257L73.5 145.015L11.5664 109.257V37.7426Z" stroke="#5AB8A2" stroke-width="3.4386"/>
<g clip-path="url(#clip0_935_90)">
<path d="M60.496 81.6743H53.2969V77.2384C53.2969 77.1697 53.3104 77.1016 53.3367 77.0381C53.363 76.9746 53.4015 76.9169 53.4501 76.8683C53.4987 76.8197 53.5564 76.7812 53.6199 76.7549C53.6834 76.7286 53.7515 76.7151 53.8202 76.7151H59.9728C60.0416 76.7151 60.1096 76.7286 60.1731 76.7549C60.2366 76.7812 60.2943 76.8197 60.3429 76.8683C60.3915 76.9169 60.43 76.9746 60.4563 77.0381C60.4826 77.1016 60.4961 77.1697 60.4961 77.2384V81.6743H60.496Z" fill="#EC7462"/>
<path d="M57.875 76.7151V81.6743H60.4923V77.2383C60.4922 77.1695 60.4787 77.1015 60.4524 77.038C60.4261 76.9745 60.3875 76.9169 60.3389 76.8683C60.2903 76.8197 60.2326 76.7812 60.1691 76.7549C60.1056 76.7286 60.0376 76.7151 59.9688 76.7151H57.875Z" fill="#DB4E40"/>
<path d="M73.0858 81.6743H65.8867V77.2384C65.8867 77.1697 65.9002 77.1016 65.9265 77.0381C65.9528 76.9746 65.9914 76.9169 66.04 76.8683C66.0885 76.8197 66.1462 76.7812 66.2097 76.7549C66.2732 76.7286 66.3413 76.7151 66.41 76.7151H72.5627C72.7015 76.7151 72.8346 76.7702 72.9327 76.8684C73.0308 76.9665 73.086 77.0996 73.086 77.2384L73.0858 81.6743Z" fill="#EC7462"/>
<path d="M70.4688 76.7151V81.6743H73.086V77.2383C73.086 77.1695 73.0724 77.1015 73.0461 77.038C73.0198 76.9745 72.9813 76.9169 72.9327 76.8683C72.884 76.8197 72.8264 76.7812 72.7629 76.7549C72.6994 76.7286 72.6313 76.7151 72.5626 76.7151H70.4688Z" fill="#DB4E40"/>
<path d="M55.9258 46.297H48.7266V41.5235C48.7266 41.4548 48.7401 41.3868 48.7664 41.3233C48.7927 41.2598 48.8312 41.2021 48.8798 41.1535C48.9284 41.1049 48.9861 41.0664 49.0496 41.0401C49.1131 41.0138 49.1811 41.0002 49.2499 41.0002H55.4025C55.4712 41.0002 55.5393 41.0138 55.6028 41.04C55.6663 41.0663 55.724 41.1049 55.7726 41.1535C55.8212 41.2021 55.8597 41.2598 55.886 41.3233C55.9123 41.3868 55.9258 41.4548 55.9258 41.5235V46.297Z" fill="#FAD06A"/>
<path d="M53.3086 41.0002V46.297H55.9259V41.5234C55.9258 41.4547 55.9123 41.3867 55.886 41.3232C55.8597 41.2597 55.8211 41.202 55.7725 41.1534C55.7239 41.1048 55.6662 41.0663 55.6027 41.04C55.5392 41.0137 55.4712 41.0002 55.4024 41.0002H53.3086Z" fill="#F5BE48"/>
<path d="M68.5196 46.297H61.3203V41.5235C61.3203 41.4548 61.3338 41.3868 61.3601 41.3233C61.3864 41.2598 61.425 41.2021 61.4735 41.1535C61.5221 41.1049 61.5798 41.0663 61.6433 41.04C61.7068 41.0138 61.7749 41.0002 61.8436 41.0002H67.9963C68.065 41.0002 68.133 41.0138 68.1965 41.04C68.26 41.0663 68.3177 41.1049 68.3663 41.1535C68.4149 41.2021 68.4535 41.2598 68.4798 41.3233C68.5061 41.3868 68.5196 41.4548 68.5196 41.5235V46.297Z" fill="#FAD06A"/>
<path d="M65.9023 41.0002V46.297H68.5196V41.5234C68.5196 41.4547 68.506 41.3867 68.4797 41.3232C68.4534 41.2597 68.4149 41.202 68.3662 41.1534C68.3176 41.1048 68.2599 41.0663 68.1964 41.04C68.133 41.0137 68.0649 41.0002 67.9962 41.0002H65.9023Z" fill="#F5BE48"/>
<path d="M85.6796 57.6283H78.4805V51.9249C78.4805 51.7861 78.5356 51.653 78.6337 51.5549C78.7319 51.4567 78.865 51.4016 79.0038 51.4016H85.1564C85.2252 51.4016 85.2932 51.4151 85.3567 51.4414C85.4202 51.4677 85.4779 51.5062 85.5265 51.5548C85.5751 51.6034 85.6136 51.6611 85.6399 51.7246C85.6662 51.7881 85.6797 51.8562 85.6797 51.9249L85.6796 57.6283Z" fill="#76D3BD"/>
<path d="M83.0625 51.4021V57.6286H85.6798V51.9253C85.6798 51.8566 85.6662 51.7885 85.6399 51.725C85.6136 51.6615 85.575 51.6039 85.5264 51.5553C85.4778 51.5067 85.4201 51.4682 85.3566 51.4419C85.2931 51.4156 85.2251 51.4021 85.1563 51.4021H83.0625Z" fill="#5AB8A2"/>
<path d="M98.2694 57.6283H91.0703V51.9249C91.0703 51.8562 91.0838 51.7881 91.1101 51.7247C91.1364 51.6612 91.175 51.6035 91.2236 51.5549C91.2722 51.5063 91.3299 51.4677 91.3934 51.4414C91.4568 51.4151 91.5249 51.4016 91.5936 51.4016H97.7463C97.815 51.4016 97.8831 51.4151 97.9465 51.4414C98.01 51.4677 98.0677 51.5062 98.1163 51.5548C98.1649 51.6034 98.2035 51.6611 98.2298 51.7246C98.2561 51.7881 98.2696 51.8562 98.2696 51.9249V57.6283H98.2694Z" fill="#76D3BD"/>
<path d="M95.6523 51.4016V57.6282H98.2696V51.9248C98.2696 51.8561 98.256 51.788 98.2297 51.7245C98.2034 51.6611 98.1649 51.6034 98.1162 51.5548C98.0676 51.5062 98.0099 51.4677 97.9464 51.4414C97.883 51.4151 97.8149 51.4016 97.7462 51.4016H95.6523Z" fill="#5AB8A2"/>
<path d="M101.111 81.2099V105.477C101.111 105.546 101.097 105.614 101.071 105.677C101.044 105.741 101.006 105.798 100.957 105.847C100.909 105.896 100.851 105.934 100.787 105.96C100.724 105.987 100.656 106 100.587 106H50.9766C50.9078 106 50.8398 105.987 50.7763 105.96C50.7128 105.934 50.6551 105.896 50.6065 105.847C50.5579 105.798 50.5193 105.741 50.493 105.677C50.4667 105.614 50.4531 105.546 50.4531 105.477V81.2099C50.4531 81.1412 50.4667 81.0732 50.493 81.0097C50.5193 80.9462 50.5579 80.8885 50.6065 80.8399C50.6551 80.7914 50.7128 80.7528 50.7763 80.7266C50.8398 80.7003 50.9078 80.6868 50.9766 80.6868H100.587C100.656 80.6868 100.724 80.7003 100.787 80.7266C100.851 80.7528 100.909 80.7914 100.957 80.8399C101.006 80.8885 101.044 80.9462 101.071 81.0097C101.097 81.0732 101.111 81.1412 101.111 81.2099Z" fill="#FAD06A"/>
<path d="M98.4922 80.6868V106H100.586C100.655 106 100.723 105.987 100.786 105.96C100.85 105.934 100.908 105.896 100.956 105.847C101.005 105.798 101.043 105.741 101.07 105.677C101.096 105.614 101.11 105.546 101.11 105.477V81.2099C101.11 81.1412 101.096 81.0732 101.07 81.0097C101.043 80.9462 101.005 80.8885 100.956 80.8399C100.908 80.7914 100.85 80.7528 100.786 80.7266C100.723 80.7003 100.655 80.6868 100.586 80.6868H98.4922Z" fill="#F5BE48"/>
<path d="M100.591 80.6867H76.3085C76.1697 80.6867 76.0366 80.6316 75.9384 80.5334C75.8403 80.4353 75.7852 80.3022 75.7852 80.1634V55.8968C75.7851 55.8281 75.7987 55.7601 75.825 55.6966C75.8512 55.6331 75.8898 55.5754 75.9384 55.5268C75.987 55.4782 76.0447 55.4396 76.1082 55.4133C76.1717 55.387 76.2397 55.3735 76.3085 55.3735H100.59C100.729 55.3735 100.862 55.4287 100.96 55.5268C101.059 55.6249 101.114 55.758 101.114 55.8968V80.1634C101.114 80.2321 101.1 80.3002 101.074 80.3637C101.048 80.4272 101.009 80.4849 100.961 80.5335C100.912 80.5821 100.854 80.6206 100.791 80.6469C100.727 80.6732 100.659 80.6867 100.591 80.6867Z" fill="#EC7462"/>
<path d="M98.4922 55.3735V80.6867H100.586C100.655 80.6867 100.723 80.6732 100.786 80.6469C100.85 80.6206 100.907 80.5821 100.956 80.5335C101.005 80.485 101.043 80.4273 101.07 80.3638C101.096 80.3003 101.109 80.2323 101.109 80.1635V55.8967C101.109 55.828 101.096 55.7599 101.07 55.6965C101.043 55.633 101.005 55.5753 100.956 55.5267C100.907 55.4781 100.85 55.4396 100.786 55.4133C100.723 55.387 100.655 55.3735 100.586 55.3735H98.4922Z" fill="#DB4E40"/>
<path d="M70.692 70.2851H46.41C46.3413 70.2851 46.2732 70.2716 46.2097 70.2453C46.1462 70.219 46.0885 70.1805 46.04 70.1319C45.9914 70.0833 45.9528 70.0256 45.9265 69.9621C45.9002 69.8986 45.8867 69.8305 45.8867 69.7618V45.4952C45.8867 45.4265 45.9002 45.3584 45.9265 45.2949C45.9528 45.2314 45.9914 45.1738 46.04 45.1252C46.0885 45.0766 46.1462 45.038 46.2097 45.0117C46.2732 44.9854 46.3413 44.9719 46.41 44.9719H70.692C70.7607 44.9719 70.8287 44.9854 70.8922 45.0117C70.9557 45.038 71.0134 45.0766 71.062 45.1252C71.1106 45.1738 71.1492 45.2314 71.1755 45.2949C71.2018 45.3584 71.2153 45.4265 71.2153 45.4952V69.7618C71.2153 69.8305 71.2017 69.8986 71.1754 69.9621C71.1491 70.0256 71.1106 70.0832 71.062 70.1318C71.0134 70.1804 70.9557 70.219 70.8922 70.2453C70.8287 70.2716 70.7607 70.2851 70.692 70.2851Z" fill="#76D3BD"/>
<path d="M68.5938 44.9719V70.2851H70.6939C70.7627 70.2851 70.8307 70.2716 70.8942 70.2453C70.9577 70.219 71.0154 70.1805 71.064 70.1319C71.1126 70.0833 71.1512 70.0257 71.1775 69.9622C71.2038 69.8987 71.2173 69.8307 71.2174 69.7619V45.4951C71.2173 45.4264 71.2038 45.3583 71.1775 45.2948C71.1512 45.2314 71.1126 45.1737 71.064 45.1251C71.0154 45.0765 70.9577 45.038 70.8942 45.0117C70.8307 44.9854 70.7627 44.9719 70.6939 44.9719H68.5938Z" fill="#5AB8A2"/>
<path d="M54.3818 103.029C54.1293 103.029 53.8871 102.929 53.7086 102.75C53.53 102.571 53.4297 102.329 53.4297 102.077V84.6104C53.4297 84.3578 53.53 84.1156 53.7086 83.9371C53.8871 83.7585 54.1293 83.6582 54.3818 83.6582H97.1874C97.7132 83.6582 98.1395 84.0844 98.1395 84.6104C98.1395 85.1363 97.7132 85.5625 97.1874 85.5625H55.334V102.077C55.334 102.329 55.2337 102.571 55.0551 102.75C54.8765 102.929 54.6344 103.029 54.3818 103.029Z" fill="#F5BE48"/>
<path d="M79.7061 77.7154C79.4535 77.7154 79.2113 77.615 79.0328 77.4365C78.8542 77.2579 78.7539 77.0157 78.7539 76.7632V59.2971C78.7539 59.0446 78.8542 58.8024 79.0328 58.6238C79.2113 58.4453 79.4535 58.345 79.7061 58.345H97.1828C97.7086 58.345 98.135 58.7712 98.135 59.2971C98.135 59.8231 97.7086 60.2493 97.1828 60.2493H80.6582V76.7632C80.6582 77.0157 80.5579 77.2579 80.3793 77.4365C80.2008 77.615 79.9586 77.7154 79.7061 77.7154Z" fill="#DB4E40"/>
<path d="M49.8115 67.3139C49.559 67.3139 49.3168 67.2136 49.1383 67.035C48.9597 66.8564 48.8594 66.6142 48.8594 66.3617V48.8955C48.8594 48.643 48.9597 48.4008 49.1383 48.2222C49.3168 48.0437 49.559 47.9434 49.8115 47.9434H67.2881C67.814 47.9434 68.2403 48.3695 68.2403 48.8955C68.2403 49.4215 67.814 49.8477 67.2881 49.8477H50.7637V66.3617C50.7637 66.6142 50.6634 66.8564 50.4848 67.035C50.3062 67.2136 50.064 67.3139 49.8115 67.3139Z" fill="#5AB8A2"/>
</g>
<defs>
<clipPath id="clip0_935_90">
<rect width="65" height="65" fill="white" transform="translate(41 41)"/>
</clipPath>
</defs>
</svg>
