<svg width="89" height="89" viewBox="0 0 89 89" fill="none" xmlns="http://www.w3.org/2000/svg">
<circle cx="44.5" cy="44.5" r="43.5" fill="white" stroke="#D8E2E4" stroke-width="2"/>
<path d="M61.7412 54.2C60.6488 53.2838 54.2413 49.2263 53.1763 49.4125C52.6763 49.5013 52.2938 49.9275 51.27 51.1488C50.7966 51.7499 50.2766 52.3128 49.715 52.8325C48.686 52.5839 47.6899 52.2147 46.7475 51.7325C43.0516 49.9331 40.0658 46.9464 38.2675 43.25C37.7853 42.3076 37.4161 41.3115 37.1675 40.2825C37.6872 39.7209 38.2501 39.2009 38.8513 38.7275C40.0712 37.7038 40.4988 37.3237 40.5875 36.8212C40.7738 35.7537 36.7125 29.3487 35.8 28.2563C35.4175 27.8038 35.07 27.5 34.625 27.5C33.335 27.5 27.5 34.715 27.5 35.65C27.5 35.7263 27.625 43.2375 37.1112 52.8888C46.7625 62.375 54.2738 62.5 54.35 62.5C55.285 62.5 62.5 56.665 62.5 55.375C62.5 54.93 62.1963 54.5825 61.7412 54.2ZM53.75 43.75H56.25C56.247 41.0987 55.1925 38.5569 53.3178 36.6822C51.4431 34.8075 48.9013 33.753 46.25 33.75V36.25C48.2385 36.252 50.145 37.0428 51.5511 38.4489C52.9572 39.855 53.748 41.7615 53.75 43.75Z" fill="url(#paint0_linear_2127_211)"/>
<path d="M60 43.75H62.5C62.495 39.4418 60.7814 35.3114 57.735 32.265C54.6886 29.2186 50.5582 27.505 46.25 27.5V30C49.8954 30.0043 53.3903 31.4543 55.968 34.032C58.5457 36.6097 59.9957 40.1046 60 43.75Z" fill="url(#paint1_linear_2127_211)"/>
<defs>
<linearGradient id="paint0_linear_2127_211" x1="27.5" y1="27.5" x2="69.4573" y2="48.7868" gradientUnits="userSpaceOnUse">
<stop stop-color="#3AC3EB"/>
<stop offset="1" stop-color="#792F85"/>
</linearGradient>
<linearGradient id="paint1_linear_2127_211" x1="46.25" y1="27.5" x2="65.7302" y2="37.3831" gradientUnits="userSpaceOnUse">
<stop stop-color="#3AC3EB"/>
<stop offset="1" stop-color="#792F85"/>
</linearGradient>
</defs>
</svg>
