<svg width="507" height="388" viewBox="0 0 507 388" fill="none" xmlns="http://www.w3.org/2000/svg">
<rect x="1" y="20.5" width="504.326" height="366" rx="13.3721" fill="white" stroke="#D8E2E4" stroke-width="2"/>
<g clip-path="url(#clip0_2155_104)">
<path d="M67.717 9.13352C68.6929 8.72452 69.1022 7.56045 68.6614 6.6166L67.1188 3.37607C66.6781 2.464 65.6077 2.05469 64.6633 2.464C61.9873 3.59661 59.6891 5.0753 57.8632 6.86861C55.628 8.97622 54.1169 11.3988 53.2983 14.073C52.4798 16.779 52.0391 20.4597 52.0391 25.1474V34.8061C52.0391 35.8443 52.8891 36.6938 53.928 36.6938H66.3003C67.3392 36.6938 68.1892 35.8443 68.1892 34.8061V22.4417C68.1892 21.4032 67.3392 20.5541 66.3003 20.5541H60.3817C60.4447 17.3761 61.2003 14.8281 62.5855 12.9086C63.7188 11.3676 65.4188 10.1091 67.717 9.13352ZM89.9431 9.13352C90.9191 8.72452 91.328 7.56045 90.8876 6.6166L89.345 3.40785C88.9042 2.49546 87.8339 2.08646 86.8894 2.49546C84.2449 3.62808 81.9779 5.10677 80.1208 6.86861C77.8853 9.00799 76.343 11.4305 75.5242 14.1048C74.7056 16.7472 74.2967 20.4285 74.2967 25.1477V34.8064C74.2967 35.8447 75.1467 36.6941 76.1856 36.6941H88.5579C89.5968 36.6941 90.4468 35.8447 90.4468 34.8064V22.4421C90.4468 21.4035 89.5968 20.5544 88.5579 20.5544H82.6079C82.6708 17.3764 83.4267 14.8284 84.8116 12.9089C85.9449 11.3676 87.645 10.1091 89.9431 9.13352Z" fill="#43555A"/>
</g>
<defs>
<clipPath id="clip0_2155_104">
<rect width="39.0251" height="39" fill="white" transform="translate(52.0312)"/>
</clipPath>
</defs>
</svg>
