<svg width="1920" height="1266" viewBox="0 0 1920 1266" fill="none" xmlns="http://www.w3.org/2000/svg">
<path fill-rule="evenodd" clip-rule="evenodd" d="M-41 1301.57C-20.356 1181.65 588.035 1346.99 692.469 1032.67C796.903 718.345 1203.71 887.31 1474.51 1007.68C1745.31 1128.04 1920.18 954.535 1920.18 954.535C1920.18 954.535 2097.48 -105.622 1920.18 8.8423C1742.88 123.306 1658.15 139.204 1355.51 37.9123C1052.87 -63.3797 902.553 66.0743 862.479 104.685C782.1 182.129 765.161 306.177 770.188 352.235C781.244 453.527 684.576 651.114 441.098 622.952C197.62 594.79 -20.356 464.885 -20.356 464.885" fill="#F7FAFB"/>
<g opacity="0.11" clip-path="url(#clip0_1398_1354)">
<path d="M1837.57 310.377C1831.44 307.808 1828.87 300.495 1831.64 294.566L1841.32 274.209C1844.09 268.479 1850.81 265.908 1856.74 268.479C1873.54 275.594 1887.96 284.884 1899.43 296.149C1913.46 309.389 1922.95 324.608 1928.09 341.407C1933.23 358.407 1935.99 381.529 1935.99 410.978V471.654C1935.99 478.176 1930.66 483.513 1924.13 483.513H1846.46C1839.94 483.513 1834.6 478.176 1834.6 471.654V393.98C1834.6 387.456 1839.94 382.122 1846.46 382.122H1883.62C1883.22 362.158 1878.48 346.151 1869.78 334.093C1862.67 324.412 1851.99 316.506 1837.57 310.377ZM1698.03 310.377C1691.9 307.808 1689.34 300.495 1692.1 294.566L1701.79 274.408C1704.55 268.677 1711.27 266.107 1717.2 268.677C1733.8 275.792 1748.04 285.081 1759.69 296.149C1773.73 309.589 1783.41 324.807 1788.55 341.607C1793.69 358.207 1796.26 381.333 1796.26 410.98V471.656C1796.26 478.178 1790.92 483.515 1784.4 483.515H1706.73C1700.2 483.515 1694.87 478.178 1694.87 471.656V393.982C1694.87 387.458 1700.2 382.124 1706.73 382.124H1744.08C1743.69 362.16 1738.94 346.153 1730.25 334.095C1723.13 324.412 1712.46 316.506 1698.03 310.377Z" fill="#B1C4C9"/>
</g>
<g opacity="0.11" clip-path="url(#clip1_1398_1354)">
<path d="M79.434 791.377C85.5609 788.808 88.1302 781.495 85.3632 775.566L75.6787 755.209C72.9117 749.479 66.1919 746.908 60.2626 749.479C43.463 756.594 29.035 765.884 17.5717 777.149C3.5391 790.389 -5.94776 805.608 -11.0865 822.407C-16.2252 839.407 -18.9922 862.529 -18.9922 891.978V952.654C-18.9922 959.176 -13.6558 964.513 -7.13362 964.513H70.54C77.0622 964.513 82.3986 959.176 82.3986 952.654V874.98C82.3986 868.456 77.0622 863.122 70.54 863.122H33.3832C33.7785 843.158 38.5219 827.151 47.2182 815.093C54.3333 805.412 65.006 797.506 79.434 791.377ZM218.97 791.377C225.097 788.808 227.664 781.495 224.899 775.566L215.215 755.408C212.448 749.677 205.728 747.107 199.798 749.677C183.196 756.792 168.964 766.081 157.305 777.149C143.271 790.589 133.588 805.807 128.447 822.607C123.309 839.207 120.741 862.333 120.741 891.98V952.656C120.741 959.178 126.078 964.515 132.6 964.515H210.274C216.796 964.515 222.132 959.178 222.132 952.656V874.982C222.132 868.458 216.796 863.124 210.274 863.124H172.919C173.314 843.16 178.06 827.153 186.754 815.095C193.869 805.412 204.542 797.506 218.97 791.377Z" fill="#B1C4C9"/>
</g>
<g filter="url(#filter0_d_1398_1354)">
<path d="M514 498.372C514 490.435 520.435 484 528.372 484H1391.63C1399.57 484 1406 490.435 1406 498.372V969.628C1406 977.565 1399.57 984 1391.63 984H528.372C520.435 984 514 977.565 514 969.628V498.372Z" fill="white"/>
</g>
<g filter="url(#filter1_d_1398_1354)">
<path d="M478 466.372C478 458.435 484.435 452 492.372 452H1427.63C1435.57 452 1442 458.435 1442 466.372V937.628C1442 945.565 1435.57 952 1427.63 952H492.372C484.435 952 478 945.565 478 937.628V466.372Z" fill="white"/>
</g>
<g filter="url(#filter2_d_1398_1354)">
<path d="M442 434.372C442 426.435 448.435 420 456.372 420H1463.63C1471.57 420 1478 426.435 1478 434.372V905.628C1478 913.565 1471.57 920 1463.63 920H456.372C448.435 920 442 913.565 442 905.628V434.372Z" fill="white"/>
</g>
<g opacity="0.11" clip-path="url(#clip2_1398_1354)">
<path d="M947.606 491.166C950.507 489.95 951.723 486.488 950.413 483.68L945.828 474.042C944.518 471.329 941.336 470.111 938.529 471.329C930.575 474.698 923.743 479.096 918.316 484.43C911.672 490.699 907.18 497.904 904.747 505.858C902.314 513.907 901.004 524.854 901.004 538.798V567.526C901.004 570.614 903.531 573.141 906.619 573.141H943.395C946.483 573.141 949.009 570.614 949.009 567.526V530.75C949.009 527.661 946.483 525.135 943.395 525.135H925.802C925.989 515.683 928.235 508.104 932.352 502.395C935.721 497.811 940.774 494.068 947.606 491.166ZM1013.67 491.166C1016.57 489.95 1017.79 486.488 1016.48 483.68L1011.89 474.136C1010.58 471.422 1007.4 470.206 1004.59 471.422C996.734 474.791 989.995 479.189 984.475 484.43C977.83 490.793 973.246 497.999 970.812 505.953C968.379 513.812 967.163 524.762 967.163 538.798V567.527C967.163 570.615 969.69 573.142 972.778 573.142H1009.55C1012.64 573.142 1015.17 570.615 1015.17 567.527V530.751C1015.17 527.662 1012.64 525.136 1009.55 525.136H991.868C992.055 515.684 994.302 508.105 998.418 502.396C1001.79 497.811 1006.84 494.068 1013.67 491.166Z" fill="#B1C4C9"/>
</g>
<defs>
<filter id="filter0_d_1398_1354" x="413.396" y="426.512" width="1093.21" height="701.209" filterUnits="userSpaceOnUse" color-interpolation-filters="sRGB">
<feFlood flood-opacity="0" result="BackgroundImageFix"/>
<feColorMatrix in="SourceAlpha" type="matrix" values="0 0 0 0 0 0 0 0 0 0 0 0 0 0 0 0 0 0 127 0" result="hardAlpha"/>
<feOffset dy="43.1162"/>
<feGaussianBlur stdDeviation="50.3022"/>
<feComposite in2="hardAlpha" operator="out"/>
<feColorMatrix type="matrix" values="0 0 0 0 0.8 0 0 0 0 0.8 0 0 0 0 0.8 0 0 0 0.14 0"/>
<feBlend mode="normal" in2="BackgroundImageFix" result="effect1_dropShadow_1398_1354"/>
<feBlend mode="normal" in="SourceGraphic" in2="effect1_dropShadow_1398_1354" result="shape"/>
</filter>
<filter id="filter1_d_1398_1354" x="377.396" y="394.512" width="1165.21" height="701.209" filterUnits="userSpaceOnUse" color-interpolation-filters="sRGB">
<feFlood flood-opacity="0" result="BackgroundImageFix"/>
<feColorMatrix in="SourceAlpha" type="matrix" values="0 0 0 0 0 0 0 0 0 0 0 0 0 0 0 0 0 0 127 0" result="hardAlpha"/>
<feOffset dy="43.1162"/>
<feGaussianBlur stdDeviation="50.3022"/>
<feComposite in2="hardAlpha" operator="out"/>
<feColorMatrix type="matrix" values="0 0 0 0 0.8 0 0 0 0 0.8 0 0 0 0 0.8 0 0 0 0.14 0"/>
<feBlend mode="normal" in2="BackgroundImageFix" result="effect1_dropShadow_1398_1354"/>
<feBlend mode="normal" in="SourceGraphic" in2="effect1_dropShadow_1398_1354" result="shape"/>
</filter>
<filter id="filter2_d_1398_1354" x="341.396" y="362.512" width="1237.21" height="701.209" filterUnits="userSpaceOnUse" color-interpolation-filters="sRGB">
<feFlood flood-opacity="0" result="BackgroundImageFix"/>
<feColorMatrix in="SourceAlpha" type="matrix" values="0 0 0 0 0 0 0 0 0 0 0 0 0 0 0 0 0 0 127 0" result="hardAlpha"/>
<feOffset dy="43.1162"/>
<feGaussianBlur stdDeviation="50.3022"/>
<feComposite in2="hardAlpha" operator="out"/>
<feColorMatrix type="matrix" values="0 0 0 0 0.8 0 0 0 0 0.8 0 0 0 0 0.8 0 0 0 0.14 0"/>
<feBlend mode="normal" in2="BackgroundImageFix" result="effect1_dropShadow_1398_1354"/>
<feBlend mode="normal" in="SourceGraphic" in2="effect1_dropShadow_1398_1354" result="shape"/>
</filter>
<clipPath id="clip0_1398_1354">
<rect width="245" height="245" fill="white" transform="matrix(-1 0 0 1 1936 253)"/>
</clipPath>
<clipPath id="clip1_1398_1354">
<rect width="245" height="245" fill="white" transform="translate(-19 734)"/>
</clipPath>
<clipPath id="clip2_1398_1354">
<rect width="116" height="116" fill="white" transform="translate(901 464)"/>
</clipPath>
</defs>
</svg>
