<svg width="361" height="159" viewBox="0 0 361 159" fill="none" xmlns="http://www.w3.org/2000/svg">
<g clip-path="url(#clip0_735_534)">
<path d="M136.37 0H125.785V65.8138H136.37V0Z" fill="#092A35"/>
<path d="M173.42 44.8737C173.42 54.7686 164.906 55.689 162.605 55.689C156.392 55.689 155.011 49.7057 155.011 46.0241V21.1714H144.426V46.2542C144.426 52.4676 146.497 57.5305 149.719 61.2121C152.71 64.2033 157.313 65.8148 162.376 65.8148C166.058 65.8148 170.89 64.8944 173.191 62.1324V65.8148H183.776V21.1714H173.191V44.8737H173.421H173.42Z" fill="#092A35"/>
<path d="M204.718 5.29102H194.133V21.1692H186.309V31.7544H194.133V65.8118H204.718V31.7544H212.542V21.1692H204.718V5.29102Z" fill="#092A35"/>
<path d="M245.679 52.4654C243.378 54.5363 240.386 55.6868 237.165 55.6868C229.801 55.6868 224.508 50.3938 224.508 42.7998C224.508 35.2059 229.801 30.143 237.165 30.143C240.386 30.143 243.378 31.0634 245.679 33.3643L247.29 34.7449L254.193 27.8412L252.583 26.2306C248.21 22.549 242.918 20.2473 237.165 20.2473C224.048 20.0172 214.383 29.4519 214.383 42.7991C214.383 56.1462 224.278 65.5809 237.165 65.5809C243.148 65.5809 248.67 63.5101 253.043 59.5977L254.654 57.987L247.29 50.6231L245.679 52.4639V52.4654Z" fill="#092A35"/>
<path d="M292.162 25.0828C289.17 22.0916 285.488 20.4801 280.655 20.4801C276.974 20.4801 273.061 21.4005 270.3 24.1617V0H259.715V65.8138H270.3V40.9611C270.3 31.0661 277.664 30.1457 279.965 30.1457C286.178 30.1457 286.178 36.129 286.178 39.8106V65.8138H296.763V39.5805C296.994 33.8273 295.613 28.5351 292.161 25.0828H292.162Z" fill="#092A35"/>
<path d="M236.703 50.6274C240.897 50.6274 244.297 47.2274 244.297 43.0334C244.297 38.8394 240.897 35.4395 236.703 35.4395C232.509 35.4395 229.109 38.8394 229.109 43.0334C229.109 47.2274 232.509 50.6274 236.703 50.6274Z" fill="#FF3D2E"/>
<path d="M111.29 49.2449C107.378 53.1565 101.625 55.4582 96.102 55.4582C84.1355 55.4582 75.6211 46.2536 75.6211 33.5967C75.6211 20.9399 84.1355 11.7353 95.8719 11.7353C101.395 11.7353 106.687 14.0362 111.06 17.9486L112.671 19.5593L119.574 12.6556L117.964 11.045C111.98 5.06246 104.156 1.84033 95.8719 1.84033C78.383 2.07043 65.4961 15.6477 65.4961 33.8268C65.4961 52.006 78.383 65.5833 95.8719 65.5833C104.386 65.5833 112.44 62.3619 117.964 56.3786L119.574 54.768L112.671 47.4041L111.29 49.2449Z" fill="#092A35"/>
</g>
<path d="M1.06779 132.958L12.8643 109.517H21.5591L9.50839 132.958H1.06779ZM1.06779 137.432V132.958L3.71183 130.669H29.8472V137.432H1.06779ZM17.9998 145.415V123.195H25.8303V145.415H17.9998ZM37.2712 145.974C35.9492 145.974 34.8475 145.517 33.9662 144.601C33.0848 143.686 32.6442 142.585 32.6442 141.296C32.6442 139.941 33.0848 138.822 33.9662 137.941C34.8475 137.025 35.9492 136.568 37.2712 136.568C38.6272 136.568 39.7288 137.025 40.5763 137.941C41.4576 138.822 41.8983 139.941 41.8983 141.296C41.8983 142.585 41.4576 143.686 40.5763 144.601C39.7288 145.517 38.6272 145.974 37.2712 145.974ZM48.0532 145.415L60.2565 113.992H68.036L56.2904 145.415H48.0532ZM43.2736 116.28V109.517H68.036V113.992L65.392 116.28H43.2736Z" fill="#092A35"/>
<path d="M135.126 122.843L125.847 131.888L128.038 144.664C128.085 144.937 128.054 145.219 127.95 145.477C127.845 145.734 127.67 145.957 127.445 146.12C127.22 146.284 126.954 146.381 126.677 146.401C126.4 146.421 126.123 146.363 125.877 146.234L114.403 140.202L102.931 146.232C102.685 146.361 102.408 146.419 102.131 146.399C101.854 146.379 101.588 146.282 101.363 146.119C101.138 145.956 100.963 145.733 100.858 145.475C100.754 145.218 100.723 144.936 100.77 144.662L102.961 131.887L93.6806 122.843C93.4814 122.649 93.3405 122.403 93.2739 122.133C93.2072 121.863 93.2175 121.58 93.3035 121.315C93.3896 121.051 93.5479 120.816 93.7607 120.637C93.9734 120.457 94.2321 120.341 94.5073 120.302L107.332 118.44L113.067 106.817C113.569 105.8 115.237 105.8 115.739 106.817L121.475 118.44L134.299 120.302C134.574 120.342 134.832 120.459 135.044 120.638C135.256 120.817 135.413 121.052 135.499 121.316C135.585 121.58 135.596 121.863 135.53 122.133C135.464 122.403 135.324 122.648 135.126 122.843Z" fill="#FEA705"/>
<path d="M190.739 122.843L181.46 131.888L183.651 144.664C183.698 144.937 183.668 145.219 183.563 145.477C183.458 145.734 183.283 145.957 183.059 146.12C182.834 146.284 182.568 146.381 182.29 146.401C182.013 146.421 181.736 146.363 181.49 146.234L170.016 140.202L158.545 146.232C158.299 146.361 158.021 146.419 157.744 146.399C157.467 146.379 157.201 146.282 156.976 146.119C156.751 145.956 156.576 145.733 156.472 145.475C156.367 145.218 156.336 144.936 156.383 144.662L158.574 131.887L149.294 122.843C149.095 122.649 148.954 122.403 148.887 122.133C148.821 121.863 148.831 121.58 148.917 121.315C149.003 121.051 149.161 120.816 149.374 120.637C149.587 120.457 149.845 120.341 150.121 120.302L162.945 118.44L168.68 106.817C169.182 105.8 170.851 105.8 171.353 106.817L177.088 118.44L189.912 120.302C190.187 120.342 190.445 120.459 190.657 120.638C190.869 120.817 191.027 121.052 191.113 121.316C191.199 121.58 191.209 121.863 191.143 122.133C191.077 122.403 190.937 122.648 190.739 122.843Z" fill="#FEA705"/>
<path d="M246.356 122.843L237.077 131.888L239.269 144.664C239.315 144.937 239.285 145.219 239.18 145.477C239.075 145.734 238.901 145.957 238.676 146.12C238.451 146.284 238.185 146.381 237.908 146.401C237.63 146.421 237.353 146.363 237.107 146.234L225.634 140.202L214.162 146.232C213.916 146.361 213.639 146.419 213.361 146.399C213.084 146.379 212.818 146.282 212.593 146.119C212.368 145.956 212.194 145.733 212.089 145.475C211.984 145.218 211.953 144.936 212 144.662L214.192 131.887L204.911 122.843C204.712 122.649 204.571 122.403 204.504 122.133C204.438 121.863 204.448 121.58 204.534 121.315C204.62 121.051 204.778 120.816 204.991 120.637C205.204 120.457 205.463 120.341 205.738 120.302L218.562 118.44L224.297 106.817C224.799 105.8 226.468 105.8 226.97 106.817L232.705 118.44L245.53 120.302C245.804 120.342 246.062 120.459 246.274 120.638C246.486 120.817 246.644 121.052 246.73 121.316C246.816 121.58 246.826 121.863 246.76 122.133C246.694 122.403 246.554 122.648 246.356 122.843Z" fill="#FEA705"/>
<path d="M301.97 122.843L292.691 131.888L294.882 144.664C294.929 144.937 294.898 145.219 294.793 145.477C294.689 145.734 294.514 145.957 294.289 146.12C294.064 146.284 293.798 146.381 293.521 146.401C293.244 146.421 292.966 146.363 292.72 146.234L281.247 140.202L269.775 146.232C269.529 146.361 269.252 146.419 268.975 146.399C268.697 146.379 268.431 146.282 268.206 146.119C267.982 145.956 267.807 145.733 267.702 145.475C267.597 145.218 267.567 144.936 267.614 144.662L269.805 131.887L260.524 122.843C260.325 122.649 260.184 122.403 260.118 122.133C260.051 121.863 260.061 121.58 260.147 121.315C260.233 121.051 260.392 120.816 260.604 120.637C260.817 120.457 261.076 120.341 261.351 120.302L274.176 118.44L279.911 106.817C280.413 105.8 282.081 105.8 282.583 106.817L288.318 118.44L301.143 120.302C301.417 120.342 301.675 120.459 301.887 120.638C302.099 120.817 302.257 121.052 302.343 121.316C302.429 121.58 302.44 121.863 302.374 122.133C302.308 122.403 302.168 122.648 301.97 122.843Z" fill="#FEA705"/>
<path d="M357.583 122.843L348.304 131.888L350.495 144.663C350.542 144.937 350.511 145.219 350.407 145.476C350.302 145.734 350.127 145.957 349.902 146.12C349.677 146.283 349.411 146.38 349.134 146.4C348.857 146.42 348.58 146.362 348.334 146.233L336.86 140.202L325.388 146.232C325.142 146.361 324.865 146.419 324.588 146.399C324.311 146.379 324.045 146.282 323.82 146.118C323.595 145.955 323.42 145.732 323.315 145.475C323.211 145.217 323.18 144.936 323.227 144.662L325.418 131.886L316.138 122.843C315.938 122.648 315.798 122.402 315.731 122.132C315.664 121.862 315.675 121.579 315.761 121.315C315.847 121.05 316.005 120.815 316.218 120.636C316.43 120.457 316.689 120.341 316.964 120.301L329.789 118.439L335.524 106.817C336.026 105.799 337.694 105.799 338.196 106.817L343.932 118.439L356.756 120.301C357.031 120.342 357.289 120.458 357.501 120.638C357.713 120.817 357.87 121.052 357.956 121.316C358.042 121.58 358.053 121.863 357.987 122.132C357.921 122.402 357.781 122.648 357.583 122.843Z" fill="#CCCCCC"/>
<path d="M325.388 146.232L336.86 140.202V106.333C336.764 106.126 336.066 106.334 335.524 106.817L329.789 118.44L316.964 120.302C316.689 120.342 316.43 120.458 316.218 120.637C316.005 120.816 315.847 121.051 315.761 121.315C315.675 121.58 315.664 121.863 315.731 122.133C315.798 122.403 315.938 122.649 316.138 122.843L325.418 131.887L323.227 144.662C323.18 144.936 323.211 145.218 323.315 145.475C323.42 145.733 323.595 145.956 323.82 146.119C324.045 146.282 324.311 146.38 324.588 146.4C324.865 146.42 325.142 146.362 325.388 146.232Z" fill="#FEA705"/>
<defs>
<clipPath id="clip0_735_534">
<rect width="231.294" height="65.8138" fill="white" transform="translate(65.4961)"/>
</clipPath>
</defs>
</svg>
