<svg width="263" height="116" viewBox="0 0 263 116" fill="none" xmlns="http://www.w3.org/2000/svg">
<g clip-path="url(#clip0_1098_27)">
<path d="M99.6022 0H91.918V47.7769H99.6022V0Z" fill="#233D63"/>
<path d="M126.498 32.5756C126.498 39.7587 120.317 40.4269 118.646 40.4269C114.136 40.4269 113.133 36.0834 113.133 33.4108V15.3691H105.449V33.5778C105.449 38.0884 106.953 41.7637 109.292 44.4363C111.463 46.6078 114.804 47.7776 118.48 47.7776C121.153 47.7776 124.661 47.1095 126.331 45.1045V47.7776H134.015V15.3691H126.331V32.5756H126.498H126.498Z" fill="#233D63"/>
<path d="M149.22 3.84094H141.535V15.3676H135.855V23.0518H141.535V47.7755H149.22V23.0518H154.899V15.3676H149.22V3.84094Z" fill="#233D63"/>
<path d="M178.954 38.0868C177.283 39.5901 175.111 40.4253 172.773 40.4253C167.427 40.4253 163.585 36.5829 163.585 31.0701C163.585 25.5574 167.427 21.882 172.773 21.882C175.111 21.882 177.283 22.5501 178.954 24.2205L180.123 25.2227L185.134 20.2111L183.965 19.0418C180.791 16.3692 176.949 14.6983 172.773 14.6983C163.25 14.5313 156.234 21.3803 156.234 31.0696C156.234 40.7588 163.418 47.6079 172.773 47.6079C177.116 47.6079 181.125 46.1045 184.299 43.2644L185.469 42.0951L180.123 36.7494L178.954 38.0857V38.0868Z" fill="#233D63"/>
<path d="M212.699 18.2087C210.527 16.0372 207.854 14.8674 204.346 14.8674C201.673 14.8674 198.833 15.5355 196.829 17.54V0H189.145V47.7769H196.829V29.7353C196.829 22.5522 202.175 21.884 203.845 21.884C208.355 21.884 208.355 26.2275 208.355 28.9001V47.7769H216.04V28.7331C216.207 24.5566 215.204 20.7148 212.698 18.2087H212.699Z" fill="#233D63"/>
<path d="M172.439 36.7525C175.483 36.7525 177.951 34.2843 177.951 31.2397C177.951 28.1951 175.483 25.7269 172.439 25.7269C169.394 25.7269 166.926 28.1951 166.926 31.2397C166.926 34.2843 169.394 36.7525 172.439 36.7525Z" fill="#FF3D2E"/>
<path d="M81.396 35.7488C78.5564 38.5885 74.3799 40.2594 70.3704 40.2594C61.6834 40.2594 55.5025 33.5774 55.5025 24.3892C55.5025 15.2011 61.6834 8.51907 70.2034 8.51907C74.2128 8.51907 78.0547 10.1894 81.2289 13.0296L82.3982 14.1989L87.4099 9.18722L86.2406 8.01796C81.8971 3.67501 76.2173 1.33594 70.2034 1.33594C57.5075 1.50297 48.1523 11.3593 48.1523 24.5563C48.1523 37.7533 57.5075 47.6096 70.2034 47.6096C76.3843 47.6096 82.2312 45.271 86.2406 40.9275L87.4099 39.7583L82.3982 34.4125L81.396 35.7488Z" fill="#233D63"/>
</g>
<path d="M1.38062 96.4963L9.94418 79.4799H16.2561L7.508 96.4963H1.38062ZM1.38062 99.7445V96.4963L3.30004 94.8352H22.2728V99.7445H1.38062ZM13.6723 105.54V89.4092H19.3567V105.54H13.6723ZM27.6622 105.946C26.7025 105.946 25.9027 105.613 25.2629 104.949C24.6231 104.285 24.3032 103.485 24.3032 102.55C24.3032 101.565 24.6231 100.753 25.2629 100.114C25.9027 99.4492 26.7025 99.117 27.6622 99.117C28.6465 99.117 29.4463 99.4492 30.0615 100.114C30.7013 100.753 31.0212 101.565 31.0212 102.55C31.0212 103.485 30.7013 104.285 30.0615 104.949C29.4463 105.613 28.6465 105.946 27.6622 105.946ZM35.4892 105.54L44.3481 82.7281H49.9956L41.469 105.54H35.4892ZM32.0195 84.3891V79.4799H49.9956V82.7281L48.0762 84.3891H32.0195Z" fill="#233D63"/>
<path d="M98.6948 89.1767L91.9588 95.743L93.5495 105.017C93.5836 105.216 93.5613 105.42 93.4853 105.607C93.4092 105.794 93.2824 105.956 93.1192 106.075C92.9559 106.193 92.7628 106.264 92.5615 106.278C92.3603 106.293 92.159 106.251 91.9804 106.157L83.6514 101.778L75.3235 106.156C75.1449 106.25 74.9436 106.292 74.7424 106.277C74.5411 106.263 74.348 106.192 74.1847 106.074C74.0215 105.955 73.8947 105.793 73.8186 105.606C73.7426 105.419 73.7203 105.215 73.7544 105.016L75.3452 95.7419L68.608 89.1767C68.4634 89.0358 68.3611 88.8573 68.3127 88.6612C68.2644 88.4652 68.2718 88.2596 68.3343 88.0676C68.3968 87.8756 68.5117 87.7049 68.6662 87.5749C68.8206 87.4449 69.0084 87.3607 69.2082 87.3318L78.518 85.9801L82.6814 77.543C83.0458 76.8044 84.257 76.8044 84.6214 77.543L88.7848 85.9801L98.0946 87.3318C98.294 87.3614 98.4812 87.446 98.6351 87.5762C98.789 87.7063 98.9036 87.8768 98.966 88.0684C99.0283 88.2601 99.036 88.4654 98.9881 88.6611C98.9402 88.8569 98.8386 89.0355 98.6948 89.1767Z" fill="#FEA705"/>
<path d="M139.066 89.1767L132.33 95.743L133.921 105.017C133.955 105.216 133.932 105.42 133.856 105.607C133.78 105.794 133.654 105.956 133.49 106.075C133.327 106.193 133.134 106.264 132.933 106.278C132.731 106.293 132.53 106.251 132.351 106.157L124.023 101.778L115.695 106.156C115.516 106.25 115.315 106.292 115.113 106.277C114.912 106.263 114.719 106.192 114.556 106.074C114.393 105.955 114.266 105.793 114.19 105.606C114.114 105.419 114.091 105.215 114.126 105.016L115.716 95.7419L108.979 89.1767C108.834 89.0358 108.732 88.8573 108.684 88.6612C108.635 88.4652 108.643 88.2596 108.705 88.0676C108.768 87.8756 108.883 87.7049 109.037 87.5749C109.192 87.4449 109.379 87.3607 109.579 87.3318L118.889 85.9801L123.052 77.543C123.417 76.8044 124.628 76.8044 124.993 77.543L129.156 85.9801L138.466 87.3318C138.665 87.3614 138.852 87.446 139.006 87.5762C139.16 87.7063 139.275 87.8768 139.337 88.0684C139.399 88.2601 139.407 88.4654 139.359 88.6611C139.311 88.8569 139.21 89.0355 139.066 89.1767Z" fill="#FEA705"/>
<path d="M179.441 89.1767L172.705 95.743L174.296 105.017C174.33 105.216 174.307 105.42 174.231 105.607C174.155 105.794 174.029 105.956 173.865 106.075C173.702 106.193 173.509 106.264 173.308 106.278C173.106 106.293 172.905 106.251 172.726 106.157L164.398 101.778L156.07 106.156C155.891 106.25 155.69 106.292 155.488 106.277C155.287 106.263 155.094 106.192 154.931 106.074C154.768 105.955 154.641 105.793 154.565 105.606C154.489 105.419 154.466 105.215 154.501 105.016L156.091 95.7419L149.354 89.1767C149.209 89.0358 149.107 88.8573 149.059 88.6612C149.01 88.4652 149.018 88.2596 149.08 88.0676C149.143 87.8756 149.258 87.7049 149.412 87.5749C149.567 87.4449 149.754 87.3607 149.954 87.3318L159.264 85.9801L163.427 77.543C163.792 76.8044 165.003 76.8044 165.368 77.543L169.531 85.9801L178.841 87.3318C179.04 87.3614 179.227 87.446 179.381 87.5762C179.535 87.7063 179.65 87.8768 179.712 88.0684C179.774 88.2601 179.782 88.4654 179.734 88.6611C179.686 88.8569 179.585 89.0355 179.441 89.1767Z" fill="#FEA705"/>
<path d="M219.82 89.1767L213.084 95.743L214.675 105.017C214.709 105.216 214.686 105.42 214.61 105.607C214.534 105.794 214.407 105.956 214.244 106.075C214.081 106.193 213.888 106.264 213.687 106.278C213.485 106.293 213.284 106.251 213.105 106.157L204.776 101.778L196.449 106.156C196.27 106.25 196.069 106.292 195.867 106.277C195.666 106.263 195.473 106.192 195.31 106.074C195.146 105.955 195.02 105.793 194.944 105.606C194.868 105.419 194.845 105.215 194.879 105.016L196.47 95.7419L189.733 89.1767C189.588 89.0358 189.486 88.8573 189.438 88.6612C189.389 88.4652 189.397 88.2596 189.459 88.0676C189.522 87.8756 189.637 87.7049 189.791 87.5749C189.946 87.4449 190.133 87.3607 190.333 87.3318L199.643 85.9801L203.806 77.543C204.171 76.8044 205.382 76.8044 205.746 77.543L209.91 85.9801L219.22 87.3318C219.419 87.3614 219.606 87.446 219.76 87.5762C219.914 87.7063 220.029 87.8768 220.091 88.0684C220.153 88.2601 220.161 88.4654 220.113 88.6611C220.065 88.8569 219.964 89.0355 219.82 89.1767Z" fill="#FEA705"/>
<path d="M260.191 89.1763L253.455 95.7426L255.046 105.017C255.08 105.216 255.057 105.42 254.981 105.607C254.905 105.794 254.779 105.956 254.615 106.074C254.452 106.193 254.259 106.263 254.058 106.278C253.856 106.292 253.655 106.25 253.476 106.157L245.148 101.778L236.82 106.155C236.641 106.249 236.44 106.291 236.238 106.277C236.037 106.262 235.844 106.192 235.681 106.073C235.518 105.955 235.391 105.793 235.315 105.606C235.239 105.419 235.216 105.215 235.251 105.016L236.841 95.7415L230.104 89.1763C229.959 89.0354 229.857 88.8569 229.809 88.6609C229.76 88.4649 229.768 88.2592 229.83 88.0672C229.893 87.8752 230.008 87.7046 230.162 87.5745C230.317 87.4445 230.504 87.3603 230.704 87.3315L240.014 85.9797L244.177 77.5426C244.542 76.804 245.753 76.804 246.118 77.5426L250.281 85.9797L259.591 87.3315C259.79 87.3611 259.977 87.4457 260.131 87.5758C260.285 87.7059 260.4 87.8764 260.462 88.0681C260.524 88.2597 260.532 88.465 260.484 88.6608C260.436 88.8566 260.335 89.0351 260.191 89.1763Z" fill="#CCCCCC"/>
<path d="M236.82 106.156L245.148 101.778V77.1916C245.078 77.0414 244.571 77.1921 244.177 77.543L240.014 85.9801L230.704 87.3319C230.504 87.3607 230.317 87.4449 230.162 87.575C230.008 87.705 229.893 87.8757 229.83 88.0677C229.768 88.2596 229.76 88.4653 229.809 88.6613C229.857 88.8573 229.959 89.0359 230.104 89.1768L236.841 95.742L235.251 105.016C235.216 105.215 235.239 105.419 235.315 105.606C235.391 105.793 235.518 105.955 235.681 106.074C235.844 106.192 236.037 106.263 236.238 106.277C236.44 106.292 236.641 106.25 236.82 106.156Z" fill="#FEA705"/>
<defs>
<clipPath id="clip0_1098_27">
<rect width="167.906" height="47.7769" fill="white" transform="translate(48.1523)"/>
</clipPath>
</defs>
</svg>
