<svg width="148" height="148" viewBox="0 0 148 148" fill="none" xmlns="http://www.w3.org/2000/svg">
<g filter="url(#filter0_d_2030_1671)">
<circle cx="74" cy="72" r="60" fill="white"/>
</g>
<path d="M102.08 56.3884H47.0546C45.4162 56.3884 44.0508 57.7538 44.0508 59.3923V97.35H105.083V59.5288C105.083 57.7538 103.582 56.3884 102.08 56.3884Z" fill="#94D5FF"/>
<path d="M43.9141 93.9365H104.947V97.35H43.9141V93.9365Z" fill="#8AC6ED"/>
<g opacity="0.2">
<mask id="mask0_2030_1671" style="mask-type:luminance" maskUnits="userSpaceOnUse" x="55" y="56" width="39" height="42">
<path d="M55.3828 56.9346H93.6136V97.4865H55.3828V56.9346Z" fill="white"/>
</mask>
<g mask="url(#mask0_2030_1671)">
<path d="M86.2405 56.9346L61.6636 97.35H55.3828L79.9597 56.9346H86.2405Z" fill="white"/>
</g>
<mask id="mask1_2030_1671" style="mask-type:luminance" maskUnits="userSpaceOnUse" x="55" y="56" width="39" height="42">
<path d="M55.3828 56.9346H93.6136V97.4865H55.3828V56.9346Z" fill="white"/>
</mask>
<g mask="url(#mask1_2030_1671)">
<path d="M93.6148 56.9346L69.0379 97.35H65.2148L89.6552 56.9346H93.6148Z" fill="white"/>
</g>
</g>
<path d="M106.586 105.133H42.4127C41.8665 105.133 41.1839 104.723 41.0473 104.313L39.1358 99.5345C38.7262 98.4422 39.4089 97.4865 40.5012 97.4865H108.497C109.59 97.4865 110.272 98.5788 109.863 99.5345L107.951 104.313C107.815 104.723 107.132 105.133 106.586 105.133Z" fill="#DBE2F2"/>
<path d="M40.6367 103.221L41.0463 104.177C41.3194 104.723 41.729 104.996 42.4117 104.996H106.585C107.131 104.996 107.814 104.586 107.95 104.177L108.36 103.221H40.6367Z" fill="#CCD6EC"/>
<path d="M77.5031 102.129H71.6319C71.2223 102.129 70.9492 101.856 70.9492 101.446C70.9492 101.037 71.2223 100.763 71.6319 100.763H77.5031C77.9127 100.763 78.1858 101.037 78.1858 101.446C78.1858 101.856 77.9127 102.129 77.5031 102.129Z" fill="#AAB6D6"/>
<path d="M94.2989 88.748H54.7027C52.9277 88.748 51.4258 87.2461 51.4258 85.4711V43.0076C51.4258 41.2326 52.9277 39.7307 54.7027 39.7307H94.1623C95.9373 39.7307 97.4392 41.2326 97.4392 43.0076V85.6076C97.5758 87.3826 96.0739 88.748 94.2989 88.748Z" fill="#DBE2F2"/>
<path d="M97.5758 48.7423H51.4258V43.0076C51.4258 41.2326 52.9277 39.7307 54.7027 39.7307H94.1623C95.9373 39.7307 97.4392 41.2326 97.4392 43.0076V48.6057H97.5758V48.7423Z" fill="#A5E09C"/>
<path d="M86.1057 69.4961C86.2423 68.8134 86.3788 67.9942 86.3788 67.3115C86.3788 66.6288 86.2423 65.8095 86.1057 65.1268L83.3749 64.8538C83.2384 64.1711 82.9653 63.4884 82.5557 62.8057L84.1942 60.7576C83.7846 60.2115 83.2384 59.5288 82.8288 58.9826C82.2826 58.4365 81.5999 57.8903 81.0538 57.4807L79.1423 59.2557C78.5961 58.9826 77.7769 58.7095 77.0942 58.4365L76.8211 55.7057C76.1384 55.5692 75.3192 55.4326 74.6365 55.4326C73.9538 55.4326 73.1346 55.5692 72.4519 55.7057L72.1788 58.4365C71.4961 58.573 70.8134 58.8461 70.1307 59.2557L68.0826 57.6172C67.5365 58.0268 66.8538 58.573 66.3076 59.1192C65.7615 59.6653 65.2153 60.348 64.8057 60.8942L66.4442 62.9422C66.1711 63.4884 65.898 64.3076 65.4884 64.9903L62.7576 65.2634C62.6211 65.9461 62.6211 66.7653 62.6211 67.448C62.6211 68.1307 62.7576 68.9499 62.7576 69.6326L65.4884 69.9057C65.6249 70.1788 65.6249 70.4518 65.7615 70.8615C65.898 71.2711 66.0346 71.5442 66.1711 71.9538L64.5326 74.0019C65.3519 75.3672 66.4442 76.323 67.8096 77.2788L69.8576 75.6403C70.4038 75.9134 71.223 76.1865 71.9057 76.4595L72.1788 79.1903C72.8615 79.3268 73.5442 79.3268 74.2269 79.3268H74.3634C75.0461 79.3268 76.0019 79.1903 76.548 79.0538L76.8211 76.323C77.5038 76.1865 78.1865 75.9134 78.8692 75.5038L80.9173 77.1422C82.2826 76.1865 83.2384 75.2307 84.1942 73.8653L82.6922 71.8172C82.9653 71.2711 83.2384 70.4518 83.5115 69.7692L86.1057 69.4961Z" fill="#ED8C8C"/>
<path d="M79.0037 67.175C79.0037 69.6327 77.0922 71.6807 74.498 71.6807C72.0403 71.6807 69.9922 69.7692 69.9922 67.175C69.9922 64.5807 71.9037 62.6692 74.498 62.6692C76.9556 62.9423 79.0037 64.8538 79.0037 67.175Z" fill="#DBE2F2"/>
<path d="M79.0037 67.175C79.0037 69.6327 77.0922 71.6807 74.498 71.6807C72.0403 71.6807 69.9922 69.7692 69.9922 67.175C69.9922 64.5807 71.9037 62.6692 74.498 62.6692C76.9556 62.9423 79.0037 64.8538 79.0037 67.175Z" fill="#DBE2F2"/>
<path d="M78.4576 65.2634C77.9114 64.9903 77.2287 64.8537 76.546 64.8537C74.0883 64.8537 72.0403 66.7653 72.0403 69.3595C72.0403 70.0422 72.1768 70.7249 72.4499 71.2711C70.948 70.5884 69.9922 69.0864 69.9922 67.3114C69.9922 64.8537 71.9037 62.8057 74.498 62.8057C76.273 62.9422 77.7749 63.7614 78.4576 65.2634Z" fill="#CCD6EC"/>
<path d="M57.1573 45.1923H55.6553C55.2457 45.1923 54.9727 44.9192 54.9727 44.5096C54.9727 44.1 55.2457 43.8269 55.6553 43.8269H57.1573C57.5669 43.8269 57.84 44.1 57.84 44.5096C57.9765 44.6461 57.7034 45.1923 57.1573 45.1923ZM61.39 45.1923H59.888C59.4784 45.1923 59.2053 44.9192 59.2053 44.5096C59.2053 44.1 59.4784 43.8269 59.888 43.8269H61.39C61.7996 43.8269 62.0727 44.1 62.0727 44.5096C62.2092 44.6461 61.9361 45.1923 61.39 45.1923ZM65.6227 45.1923H64.1207C63.7111 45.1923 63.438 44.9192 63.438 44.5096C63.438 44.1 63.7111 43.8269 64.1207 43.8269H65.6227C66.0323 43.8269 66.3053 44.1 66.3053 44.5096C66.3053 44.6461 66.0323 45.1923 65.6227 45.1923Z" fill="white"/>
<defs>
<filter id="filter0_d_2030_1671" x="0.666667" y="0.571429" width="146.667" height="146.667" filterUnits="userSpaceOnUse" color-interpolation-filters="sRGB">
<feFlood flood-opacity="0" result="BackgroundImageFix"/>
<feColorMatrix in="SourceAlpha" type="matrix" values="0 0 0 0 0 0 0 0 0 0 0 0 0 0 0 0 0 0 127 0" result="hardAlpha"/>
<feOffset dy="1.90476"/>
<feGaussianBlur stdDeviation="6.66667"/>
<feComposite in2="hardAlpha" operator="out"/>
<feColorMatrix type="matrix" values="0 0 0 0 0.695898 0 0 0 0 0.695898 0 0 0 0 0.695898 0 0 0 0.25 0"/>
<feBlend mode="normal" in2="BackgroundImageFix" result="effect1_dropShadow_2030_1671"/>
<feBlend mode="normal" in="SourceGraphic" in2="effect1_dropShadow_2030_1671" result="shape"/>
</filter>
</defs>
</svg>
