<svg width="148" height="148" viewBox="0 0 148 148" fill="none" xmlns="http://www.w3.org/2000/svg">
<g filter="url(#filter0_d_1273_378)">
<circle cx="74" cy="72" r="60" fill="white"/>
</g>
<g clip-path="url(#clip0_1273_378)">
<mask id="mask0_1273_378" style="mask-type:luminance" maskUnits="userSpaceOnUse" x="39" y="37" width="71" height="71">
<path d="M39 37.0002H110V108H39V37.0002Z" fill="white"/>
</mask>
<g mask="url(#mask0_1273_378)">
<path d="M57.8574 99.6797C56.7077 99.6797 55.7773 100.61 55.7773 101.76V105.92C55.7773 107.07 56.7077 108 57.8574 108C59.0071 108 59.9375 107.07 59.9375 105.92V101.76C59.9375 100.61 59.0071 99.6797 57.8574 99.6797Z" fill="#CDC0BA"/>
<path d="M67.6523 96.1288C66.8398 95.3163 65.5234 95.3163 64.7109 96.1288C63.8984 96.9412 63.8984 98.2577 64.7109 99.0701L68.8711 103.23C69.064 103.424 69.2932 103.577 69.5456 103.682C69.798 103.786 70.0686 103.84 70.3418 103.84C70.615 103.84 70.8856 103.786 71.1379 103.682C71.3903 103.577 71.6195 103.424 71.8124 103.23C72.6249 102.418 72.6249 101.101 71.8124 100.289L67.6523 96.1288Z" fill="#CDC0BA"/>
<path d="M48.0664 96.1289L43.9062 100.289C43.0938 101.101 43.0938 102.418 43.9062 103.23C44.7187 104.043 46.0351 104.043 46.8476 103.23L51.0077 99.0702C51.8202 98.2578 51.8202 96.9414 51.0077 96.1289C50.1953 95.3164 48.8789 95.3164 48.0664 96.1289Z" fill="#CDC0BA"/>
<path d="M91.1387 45.3206C92.2884 45.3206 93.2187 44.3902 93.2187 43.2405V39.0803C93.2187 37.9306 92.2884 37.0003 91.1387 37.0003C89.9889 37.0003 89.0586 37.9306 89.0586 39.0803V43.2405C89.0586 44.3902 89.9889 45.3206 91.1387 45.3206Z" fill="#EFE2DD"/>
<path d="M100.93 48.8713L105.09 44.7111C105.902 43.8986 105.902 42.5822 105.09 41.7697C104.277 40.9573 102.961 40.9573 102.148 41.7697L97.9883 45.9299C97.1758 46.7424 97.1758 48.0588 97.9883 48.8713C98.8007 49.6839 100.117 49.6839 100.93 48.8713Z" fill="#EFE2DD"/>
<path d="M81.3476 48.8713C82.1601 49.6839 83.4765 49.6839 84.289 48.8713C85.1015 48.0588 85.1015 46.7424 84.289 45.9299L80.1288 41.7697C79.3164 40.9573 78 40.9573 77.1875 41.7697C76.375 42.5822 76.375 43.8986 77.1875 44.7111L81.3476 48.8713Z" fill="#EFE2DD"/>
<path d="M101.542 72.5001C101.542 74.7882 103.414 76.6602 105.702 76.6602H107.921C109.086 76.6602 110.001 77.5753 110.001 78.7403V89.1407C110.001 90.3054 109.086 91.2207 107.921 91.2207H97.3817V93.3008C97.3817 96.7536 94.5944 99.541 91.1415 99.541C87.6886 99.541 84.9013 96.7536 84.9013 93.3008V91.2207H74.5009L65.1406 86.1452L66.8461 72.5001L68.0111 63.1398L74.5009 53.7794H84.9013C86.0661 53.7794 86.9814 54.6945 86.9814 55.8595V57.9396C86.9814 60.2277 88.8534 62.0997 91.1415 62.0997C93.4296 62.0997 95.3017 60.2277 95.3017 57.9396V55.8595C95.3017 54.6945 96.2169 53.7794 97.3817 53.7794H107.921C109.086 53.7794 110.001 54.6945 110.001 55.8595V66.2599C110.001 67.4246 109.086 68.3399 107.921 68.3399H105.702C103.414 68.3399 101.542 70.212 101.542 72.5001Z" fill="#FF637B"/>
<path d="M110.001 78.7403V89.1407C110.001 90.3054 109.086 91.2207 107.921 91.2207H97.3817V93.3008C97.3817 96.7536 94.5944 99.541 91.1415 99.541C87.6886 99.541 84.9013 96.7536 84.9013 93.3008V91.2207H74.5009L65.1406 86.1452L66.8461 72.5001H101.542C101.542 74.7882 103.414 76.6602 105.702 76.6602H107.921C109.086 76.6602 110.001 77.5753 110.001 78.7403Z" fill="#E63950"/>
<path d="M82.8202 72.5001C82.8202 74.7881 80.9481 76.6602 78.66 76.6602H76.58C75.4151 76.6602 74.4999 77.5753 74.4999 78.7403V91.2207H64.0995C62.9347 91.2207 62.0195 90.3053 62.0195 89.1406V87.0606C62.0195 84.7725 60.1474 82.9004 57.8593 82.9004C55.5712 82.9004 53.6992 84.7725 53.6992 87.0606V89.1406C53.6992 90.3053 52.7839 91.2207 51.6191 91.2207H41.0801C39.9152 91.2207 39 90.3053 39 89.1406V78.7403C39 77.5753 39.9152 76.6602 41.0801 76.6602H43.2988C45.5869 76.6602 47.459 74.7881 47.459 72.5001C47.459 70.212 45.5869 68.3399 43.2988 68.3399H41.0801C39.9152 68.3399 39 67.4245 39 66.2598V55.8595C39 54.6945 39.9152 53.7794 41.0801 53.7794H51.6191V51.6993C51.6191 48.2464 54.4064 45.4591 57.8593 45.4591C61.3122 45.4591 64.0995 48.2464 64.0995 51.6993V53.7794H74.4999V66.2598C74.4999 67.4245 75.4151 68.3399 76.58 68.3399H78.66C80.9481 68.3399 82.8202 70.212 82.8202 72.5001Z" fill="#7ED8F6"/>
<path d="M82.8202 72.5001C82.8202 74.7881 80.9481 76.6602 78.66 76.6602H76.58C75.4151 76.6602 74.4999 77.5753 74.4999 78.7403V91.2207H64.0995C62.9347 91.2207 62.0195 90.3053 62.0195 89.1406V87.0606C62.0195 84.7725 60.1474 82.9004 57.8593 82.9004C55.5712 82.9004 53.6992 84.7725 53.6992 87.0606V89.1406C53.6992 90.3053 52.7839 91.2207 51.6191 91.2207H41.0801C39.9152 91.2207 39 90.3053 39 89.1406V78.7403C39 77.5753 39.9152 76.6602 41.0801 76.6602H43.2988C45.5869 76.6602 47.459 74.7881 47.459 72.5001H82.8202Z" fill="#6AA9FF"/>
</g>
</g>
<defs>
<filter id="filter0_d_1273_378" x="0.666667" y="0.571429" width="146.667" height="146.667" filterUnits="userSpaceOnUse" color-interpolation-filters="sRGB">
<feFlood flood-opacity="0" result="BackgroundImageFix"/>
<feColorMatrix in="SourceAlpha" type="matrix" values="0 0 0 0 0 0 0 0 0 0 0 0 0 0 0 0 0 0 127 0" result="hardAlpha"/>
<feOffset dy="1.90476"/>
<feGaussianBlur stdDeviation="6.66667"/>
<feComposite in2="hardAlpha" operator="out"/>
<feColorMatrix type="matrix" values="0 0 0 0 0.695898 0 0 0 0 0.695898 0 0 0 0 0.695898 0 0 0 0.25 0"/>
<feBlend mode="normal" in2="BackgroundImageFix" result="effect1_dropShadow_1273_378"/>
<feBlend mode="normal" in="SourceGraphic" in2="effect1_dropShadow_1273_378" result="shape"/>
</filter>
<clipPath id="clip0_1273_378">
<rect width="71" height="71" fill="white" transform="translate(39 37)"/>
</clipPath>
</defs>
</svg>
