<svg width="148" height="148" viewBox="0 0 148 148" fill="none" xmlns="http://www.w3.org/2000/svg">
<g filter="url(#filter0_d_1778_161)">
<path d="M134 72C134 105.137 107.137 132 74 132C40.8629 132 14 105.137 14 72C14 38.8629 40.8629 12 74 12C107.137 12 134 38.8629 134 72Z" fill="white"/>
</g>
<path d="M95.1944 41.9166H51.8056C49.0825 41.9166 46.875 44.1241 46.875 46.8472V96.1527C46.875 98.8758 49.0825 101.083 51.8056 101.083H95.1944C97.9175 101.083 100.125 98.8758 100.125 96.1527V46.8472C100.125 44.1241 97.9175 41.9166 95.1944 41.9166Z" fill="#F7F7F7"/>
<path d="M95.1944 41.9166H51.8056C50.4984 41.9182 49.2452 42.4382 48.3209 43.3625C47.3965 44.2868 46.8766 45.54 46.875 46.8472V54.7361C46.875 54.9976 46.9789 55.2484 47.1638 55.4334C47.3488 55.6183 47.5996 55.7222 47.8611 55.7222H64.7236C66.7993 55.7207 68.8091 54.993 70.4046 53.6652L71.9331 52.3921C73.1759 51.357 74.7423 50.7907 76.3597 50.7916H99.1389C99.4004 50.7916 99.6512 50.6877 99.8362 50.5028C100.021 50.3179 100.125 50.067 100.125 49.8055V46.8472C100.123 45.54 99.6035 44.2868 98.6791 43.3625C97.7548 42.4382 96.5016 41.9182 95.1944 41.9166Z" fill="#275C89"/>
<path d="M53.7808 50.7916C54.87 50.7916 55.753 49.9086 55.753 48.8194C55.753 47.7302 54.87 46.8472 53.7808 46.8472C52.6916 46.8472 51.8086 47.7302 51.8086 48.8194C51.8086 49.9086 52.6916 50.7916 53.7808 50.7916Z" fill="#FA566A"/>
<path d="M59.6949 50.7916C60.7841 50.7916 61.6671 49.9086 61.6671 48.8194C61.6671 47.7302 60.7841 46.8472 59.6949 46.8472C58.6057 46.8472 57.7227 47.7302 57.7227 48.8194C57.7227 49.9086 58.6057 50.7916 59.6949 50.7916Z" fill="#FFC42E"/>
<path d="M65.6128 50.7916C66.7021 50.7916 67.5851 49.9086 67.5851 48.8194C67.5851 47.7302 66.7021 46.8472 65.6128 46.8472C64.5236 46.8472 63.6406 47.7302 63.6406 48.8194C63.6406 49.9086 64.5236 50.7916 65.6128 50.7916Z" fill="#52B1E8"/>
<path d="M98.1541 81.3611H84.3485C81.6255 81.3611 79.418 83.5686 79.418 86.2916V96.1528C79.418 98.8758 81.6255 101.083 84.3485 101.083H98.1541C100.877 101.083 103.085 98.8758 103.085 96.1528V86.2916C103.085 83.5686 100.877 81.3611 98.1541 81.3611Z" fill="#FE3745"/>
<path d="M69.5569 68.5416V80.375C69.5577 81.5352 69.1485 82.6585 68.4015 83.5462C67.6545 84.434 66.6177 85.0292 65.4744 85.2266C65.1945 85.2778 64.9108 85.3042 64.6263 85.3055H48.8485C47.5409 85.3055 46.2868 84.7861 45.3621 83.8614C44.4374 82.9367 43.918 81.6826 43.918 80.375V68.5416C43.918 67.234 44.4374 65.9799 45.3621 65.0552C46.2868 64.1306 47.5409 63.6111 48.8485 63.6111H64.6263C65.934 63.6111 67.1881 64.1306 68.1127 65.0552C69.0374 65.9799 69.5569 67.234 69.5569 68.5416Z" fill="#91E0E8"/>
<path d="M97.1697 56.7083H83.3641C80.6411 56.7083 78.4336 58.9157 78.4336 61.6388V69.5277C78.4336 72.2508 80.6411 74.4583 83.3641 74.4583H97.1697C99.8928 74.4583 102.1 72.2508 102.1 69.5277V61.6388C102.1 58.9157 99.8928 56.7083 97.1697 56.7083Z" fill="#52BBEF"/>
<path d="M96.6749 90.3662L89.7721 86.4218C89.6221 86.3352 89.4519 86.2896 89.2786 86.2897C89.1053 86.2898 88.9351 86.3355 88.7852 86.4223C88.6352 86.5091 88.5108 86.6338 88.4244 86.784C88.3379 86.9342 88.2926 87.1045 88.293 87.2777V95.1666C88.2926 95.3399 88.3379 95.5102 88.4244 95.6604C88.5108 95.8105 88.6352 95.9353 88.7852 96.0221C88.9351 96.1089 89.1053 96.1546 89.2786 96.1547C89.4519 96.1548 89.6221 96.1092 89.7721 96.0226L96.6749 92.0781C96.8257 91.9918 96.9511 91.8672 97.0383 91.7169C97.1254 91.5666 97.1714 91.3959 97.1714 91.2222C97.1714 91.0484 97.1254 90.8777 97.0383 90.7274C96.9511 90.5771 96.8257 90.4525 96.6749 90.3662Z" fill="white"/>
<path d="M65.4744 85.2266C65.1945 85.2778 64.9108 85.3042 64.6263 85.3055H48.8485C47.5409 85.3055 46.2868 84.7861 45.3621 83.8614C44.4374 82.9367 43.918 81.6826 43.918 80.375V76.894L49.9332 71.4211C50.3172 71.0751 50.8216 70.8936 51.338 70.9158C51.8544 70.9379 52.3414 71.1618 52.6944 71.5394L59.0153 78.314L65.4744 85.2266Z" fill="#0D7C76"/>
<path d="M61.669 68.5417C61.6693 69.0847 61.5191 69.6172 61.2351 70.08C61.0028 70.4638 60.6863 70.7896 60.3095 71.033C59.9326 71.2764 59.5054 71.4309 59.0601 71.4848C58.6148 71.5388 58.163 71.4907 57.739 71.3443C57.3149 71.1979 56.9298 70.957 56.6126 70.6398C56.2954 70.3226 56.0545 69.9374 55.9081 69.5134C55.7617 69.0894 55.7136 68.6376 55.7676 68.1923C55.8215 67.747 55.976 67.3197 56.2194 66.9429C56.4627 66.5661 56.7886 66.2496 57.1724 66.0172C57.6207 65.7443 58.1337 65.5955 58.6585 65.5863C59.1833 65.577 59.7012 65.7076 60.1589 65.9645C60.6166 66.2215 60.9977 66.5956 61.2631 67.0485C61.5285 67.5014 61.6686 68.0168 61.669 68.5417Z" fill="#F7F7F7"/>
<path d="M61.6665 68.5416C61.6667 69.0846 61.5165 69.6171 61.2326 70.0799C60.6665 70.4226 60.0018 70.5656 59.3449 70.4861C58.6879 70.4065 58.0766 70.109 57.6087 69.6411C57.1407 69.1731 56.8432 68.5618 56.7636 67.9049C56.6841 67.2479 56.8271 66.5832 57.1698 66.0171C57.6182 65.7442 58.1311 65.5954 58.6559 65.5862C59.1808 65.5769 59.6986 65.7075 60.1564 65.9644C60.6141 66.2214 60.9952 66.5955 61.2606 67.0484C61.5259 67.5013 61.666 68.0167 61.6665 68.5416ZM96.0818 64.1564L95.0956 62.1841C95.0134 62.0195 94.8866 61.8811 94.7298 61.7847C94.5729 61.6883 94.3922 61.6378 94.2081 61.6388H86.3193C86.1352 61.6378 85.9545 61.6883 85.7976 61.7847C85.6408 61.8811 85.514 62.0195 85.4318 62.1841L84.4456 64.1564C84.3878 64.2723 84.3533 64.3984 84.3441 64.5276C84.335 64.6569 84.3514 64.7866 84.3925 64.9095C84.4335 65.0324 84.4983 65.146 84.5832 65.2438C84.6682 65.3417 84.7715 65.4218 84.8874 65.4797C85.0033 65.5376 85.1295 65.5721 85.2587 65.5812C85.388 65.5903 85.5177 65.5739 85.6406 65.5329C85.7635 65.4919 85.8771 65.4271 85.9749 65.3421C86.0728 65.2572 86.1529 65.1538 86.2108 65.0379L86.9287 63.611H89.2776V69.5277C89.2776 69.7892 89.3815 70.0401 89.5664 70.225C89.7513 70.4099 90.0022 70.5138 90.2637 70.5138C90.5252 70.5138 90.7761 70.4099 90.961 70.225C91.1459 70.0401 91.2498 69.7892 91.2498 69.5277V63.611H93.5987L94.3117 65.0379C94.3696 65.1538 94.4497 65.2572 94.5476 65.3421C94.6454 65.4271 94.759 65.4919 94.8819 65.5329C95.0048 65.5739 95.1345 65.5903 95.2638 65.5812C95.393 65.5721 95.5191 65.5376 95.635 65.4797C95.7509 65.4218 95.8543 65.3417 95.9392 65.2438C96.0242 65.146 96.089 65.0324 96.13 64.9095C96.171 64.7866 96.1875 64.6569 96.1783 64.5276C96.1692 64.3984 96.1347 64.2723 96.0768 64.1564H96.0818Z" fill="white"/>
<path d="M69.5561 80.3454V80.375C69.557 81.5352 69.1478 82.6585 68.4008 83.5462C67.6537 84.434 66.617 85.0292 65.4736 85.2266C65.1938 85.2778 64.91 85.3042 64.6256 85.3055H51.2539L52.1414 84.566L59.0146 78.314L62.2589 75.3655C62.6429 75.0195 63.1473 74.8381 63.6637 74.8602C64.18 74.8823 64.6671 75.1063 65.02 75.4839L69.5561 80.3454Z" fill="#0F9390"/>
<defs>
<filter id="filter0_d_1778_161" x="0.666667" y="0.571429" width="146.667" height="146.667" filterUnits="userSpaceOnUse" color-interpolation-filters="sRGB">
<feFlood flood-opacity="0" result="BackgroundImageFix"/>
<feColorMatrix in="SourceAlpha" type="matrix" values="0 0 0 0 0 0 0 0 0 0 0 0 0 0 0 0 0 0 127 0" result="hardAlpha"/>
<feOffset dy="1.90476"/>
<feGaussianBlur stdDeviation="6.66667"/>
<feComposite in2="hardAlpha" operator="out"/>
<feColorMatrix type="matrix" values="0 0 0 0 0.695898 0 0 0 0 0.695898 0 0 0 0 0.695898 0 0 0 0.25 0"/>
<feBlend mode="normal" in2="BackgroundImageFix" result="effect1_dropShadow_1778_161"/>
<feBlend mode="normal" in="SourceGraphic" in2="effect1_dropShadow_1778_161" result="shape"/>
</filter>
</defs>
</svg>
