<svg width="148" height="148" viewBox="0 0 148 148" fill="none" xmlns="http://www.w3.org/2000/svg">
<g filter="url(#filter0_d_3238_2826)">
<circle cx="74" cy="72" r="60" fill="white"/>
</g>
<path d="M105.384 50.5975V53.4741H41.9062V50.5975C41.9062 44.2378 47.0569 39.0872 53.4156 39.0872H93.8751C100.234 39.0872 105.384 44.2378 105.384 50.5975Z" fill="#33527D"/>
<path d="M105.392 53.4783V85.5849C105.392 91.9519 100.234 97.1005 93.8756 97.1005H53.4192C47.0616 97.0994 41.9141 91.9519 41.9141 85.5828V53.4793L105.392 53.4783Z" fill="#E5E8EF"/>
<path d="M105.384 85.5879V88.9834C105.384 95.342 100.234 100.493 93.8741 100.493H53.4156C47.0569 100.493 41.9062 95.342 41.9062 88.9834V85.5879C41.9062 91.9466 47.0569 97.0982 53.4156 97.0982H93.8751C100.234 97.0982 105.384 91.9476 105.384 85.5879Z" fill="#CDD4DF"/>
<path d="M53.4879 46.2812C53.4879 47.4976 52.5242 48.4875 51.3078 48.4875C50.0914 48.4875 49.1016 47.4976 49.1016 46.2812C49.1016 45.0648 50.0903 44.074 51.3078 44.074C52.5252 44.074 53.4879 45.0638 53.4879 46.2812Z" fill="#4CC66E"/>
<path d="M60.3494 46.2812C60.3494 47.4976 59.3595 48.4875 58.1672 48.4875C56.9508 48.4875 55.9609 47.4976 55.9609 46.2812C55.9609 45.0648 56.9508 44.074 58.1682 44.074C59.3595 44.074 60.3494 45.0638 60.3494 46.2812Z" fill="#FFBE00"/>
<path d="M67.2067 46.2812C67.2067 47.4976 66.2179 48.4875 65.0265 48.4875C63.8091 48.4875 62.8203 47.4976 62.8203 46.2812C62.8203 45.0648 63.8091 44.074 65.0265 44.074C66.2168 44.074 67.2067 45.0638 67.2067 46.2812Z" fill="#B244F1"/>
<path d="M59.7651 61.3551V68.6389C59.7651 69.5723 59.0102 70.3282 58.0758 70.3282H50.792C50.5702 70.3282 50.3506 70.2845 50.1456 70.1996C49.9407 70.1147 49.7546 69.9902 49.5978 69.8334C49.441 69.6765 49.3167 69.4902 49.2319 69.2853C49.1471 69.0803 49.1035 68.8607 49.1037 68.6389V61.3551C49.1037 60.43 49.8585 59.6667 50.792 59.6667H58.0758C59.0102 59.6667 59.7651 60.429 59.7651 61.3551ZM98.813 62.3616V73.9879C98.8133 74.342 98.7438 74.6927 98.6084 75.0199C98.473 75.3471 98.2744 75.6444 98.024 75.8948C97.7736 76.1452 97.4763 76.3437 97.1491 76.4791C96.8219 76.6145 96.4712 76.6841 96.1171 76.6838H67.7109C67.3568 76.6841 67.0061 76.6145 66.6789 76.4791C66.3517 76.3437 66.0544 76.1452 65.804 75.8948C65.5536 75.6444 65.355 75.3471 65.2196 75.0199C65.0842 74.6927 65.0147 74.342 65.015 73.9879V62.3627C65.0166 61.6482 65.3012 60.9634 65.8064 60.4582C66.3116 59.953 66.9964 59.6684 67.7109 59.6667H96.1171C96.8316 59.6684 97.5164 59.953 98.0216 60.4582C98.5268 60.9634 98.8114 61.6471 98.813 62.3616ZM59.7651 81.9472V89.2299C59.7651 90.1633 59.0102 90.9193 58.0758 90.9193H50.792C50.5702 90.9193 50.3506 90.8756 50.1456 90.7907C49.9407 90.7058 49.7546 90.5813 49.5978 90.4244C49.441 90.2675 49.3167 90.0813 49.2319 89.8763C49.1471 89.6714 49.1035 89.4517 49.1037 89.2299V81.9472C49.1037 81.021 49.8585 80.2578 50.792 80.2578H58.0758C59.0102 80.2578 59.7651 81.02 59.7651 81.9472ZM59.7672 75.2878V75.2961C59.7672 76.0636 59.146 76.6838 58.3785 76.6838H50.4892C50.3069 76.6839 50.1264 76.6481 49.958 76.5784C49.7896 76.5087 49.6366 76.4065 49.5077 76.2777C49.3788 76.1488 49.2766 75.9957 49.2069 75.8273C49.1372 75.6589 49.1014 75.4784 49.1016 75.2961V75.2878C49.1016 74.5214 49.7228 73.8929 50.4902 73.8929H58.3785C59.146 73.8929 59.7672 74.5214 59.7672 75.2878ZM75.6796 83.0487V83.0571C75.6796 83.8245 75.0594 84.4447 74.2909 84.4447H66.4026C66.2202 84.445 66.0394 84.4092 65.8708 84.3396C65.7022 84.2699 65.549 84.1676 65.42 84.0386C65.291 83.9096 65.1887 83.7564 65.1191 83.5878C65.0494 83.4192 65.0136 83.2385 65.0139 83.056V83.0487C65.0139 82.2813 65.6352 81.6538 66.4026 81.6538H74.2909C75.0583 81.6538 75.6775 82.2813 75.6775 83.0487H75.6796ZM89.2677 83.0487V83.0571C89.2677 83.8245 88.6475 84.4447 87.8801 84.4447H79.9918C79.8094 84.4448 79.6288 84.409 79.4604 84.3393C79.2919 84.2695 79.1388 84.1672 79.0099 84.0382C78.881 83.9092 78.7788 83.7561 78.7092 83.5875C78.6396 83.419 78.6039 83.2384 78.6041 83.056V83.0487C78.6041 82.2813 79.2244 81.6538 79.9928 81.6538H87.8811C88.6486 81.6538 89.2698 82.2813 89.2698 83.0487H89.2677ZM98.813 83.0487V83.0571C98.813 83.8245 98.1928 84.4447 97.4265 84.4447H93.5799C93.3975 84.445 93.2168 84.4092 93.0482 84.3396C92.8796 84.2699 92.7264 84.1676 92.5974 84.0386C92.4684 83.9096 92.3661 83.7564 92.2964 83.5878C92.2267 83.4192 92.191 83.2385 92.1912 83.056V83.0487C92.1912 82.2813 92.8125 81.6538 93.5799 81.6538H97.4265C98.1928 81.6538 98.813 82.2813 98.813 83.0487ZM71.6357 89.5233V89.5316C71.6357 90.2991 71.0155 90.9193 70.2481 90.9193H66.4026C66.2202 90.9196 66.0394 90.8838 65.8708 90.8141C65.7022 90.7444 65.549 90.6422 65.42 90.5132C65.291 90.3842 65.1887 90.231 65.1191 90.0624C65.0494 89.8937 65.0136 89.713 65.0139 89.5306V89.5233C65.0139 88.7559 65.6352 88.1284 66.4026 88.1284H70.2481C71.0155 88.1284 71.6357 88.7559 71.6357 89.5233ZM81.1403 89.5233V89.5316C81.1403 90.2991 80.5201 90.9193 79.7527 90.9193H75.9072C75.7248 90.9196 75.5441 90.8838 75.3754 90.8141C75.2068 90.7444 75.0536 90.6422 74.9246 90.5132C74.7956 90.3842 74.6934 90.231 74.6237 90.0624C74.554 89.8937 74.5182 89.713 74.5185 89.5306V89.5233C74.5185 88.7559 75.1398 88.1284 75.9072 88.1284H79.7527C80.5201 88.1284 81.1403 88.7559 81.1403 89.5233ZM90.6449 89.5233V89.5316C90.6449 90.2991 90.0247 90.9193 89.2573 90.9193H85.4118C85.2294 90.9196 85.0487 90.8838 84.88 90.8141C84.7114 90.7444 84.5582 90.6422 84.4292 90.5132C84.3002 90.3842 84.198 90.231 84.1283 90.0624C84.0586 89.8937 84.0228 89.713 84.0231 89.5306V89.5233C84.0231 88.7559 84.6444 88.1284 85.4118 88.1284H89.2573C90.0247 88.1284 90.6449 88.7559 90.6449 89.5233Z" fill="#ADB9CA"/>
<path d="M61.1562 91.6669L90.9564 61.8657L101.492 72.4009L71.6924 102.203L61.1562 91.6669Z" fill="#008732"/>
<path d="M61.1562 91.6669L90.9554 61.8657L96.2229 67.1333L66.4228 96.9345L61.1562 91.6669Z" fill="#4CC66E"/>
<path d="M64.5703 95.0843L94.3715 65.2852L98.0698 68.9845L68.2696 98.7846L64.5703 95.0843Z" fill="#14A142"/>
<path d="M90.9531 61.8678L92.7323 60.0886L103.267 70.6238L101.488 72.4029L90.9531 61.8678Z" fill="#E5E8EF"/>
<path d="M92.7422 60.0853L95.388 57.4396C96.1332 56.6945 97.1439 56.2759 98.1977 56.2759C99.2515 56.2759 100.262 56.6945 101.007 57.4396L105.925 62.3573C106.67 63.1026 107.089 64.1132 107.089 65.1671C107.089 66.2209 106.67 67.2316 105.925 67.9768L103.279 70.6205L92.7422 60.0853Z" fill="#B244F1"/>
<path d="M101.005 57.4385L104.653 61.0867C103.908 60.3434 102.898 59.9259 101.846 59.9259C100.793 59.9259 99.7835 60.3434 99.0382 61.0867L96.3914 63.7335L92.7422 60.0854L95.3901 57.4385C96.1354 56.6955 97.1448 56.2783 98.1972 56.2783C99.2496 56.2783 100.26 56.6955 101.005 57.4385Z" fill="#8D30D6"/>
<path d="M71.6978 102.205L64.7586 104.494L58.875 98.6091L61.1616 91.6709L71.6978 102.205Z" fill="#FFD80C"/>
<path d="M58.8745 98.6091L57.5871 102.518C56.924 104.531 58.8348 106.442 60.8489 105.779L64.757 104.492L58.8745 98.6091Z" fill="#435E88"/>
<defs>
<filter id="filter0_d_3238_2826" x="0.666667" y="0.571429" width="146.667" height="146.667" filterUnits="userSpaceOnUse" color-interpolation-filters="sRGB">
<feFlood flood-opacity="0" result="BackgroundImageFix"/>
<feColorMatrix in="SourceAlpha" type="matrix" values="0 0 0 0 0 0 0 0 0 0 0 0 0 0 0 0 0 0 127 0" result="hardAlpha"/>
<feOffset dy="1.90476"/>
<feGaussianBlur stdDeviation="6.66667"/>
<feComposite in2="hardAlpha" operator="out"/>
<feColorMatrix type="matrix" values="0 0 0 0 0.695898 0 0 0 0 0.695898 0 0 0 0 0.695898 0 0 0 0.25 0"/>
<feBlend mode="normal" in2="BackgroundImageFix" result="effect1_dropShadow_3238_2826"/>
<feBlend mode="normal" in="SourceGraphic" in2="effect1_dropShadow_3238_2826" result="shape"/>
</filter>
</defs>
</svg>
