<svg width="148" height="148" viewBox="0 0 148 148" fill="none" xmlns="http://www.w3.org/2000/svg">
<g filter="url(#filter0_d_2030_6876)">
<circle cx="74" cy="72" r="60" fill="white"/>
</g>
<path d="M101.125 46.9844L91.1406 51.4219V101.344H101.125V46.9844Z" fill="#9C27B0"/>
<path d="M88.9219 60.2969L78.9375 61.4062V101.344H88.9219V60.2969Z" fill="#1E88E5"/>
<path d="M66.7344 65.8438H76.7188V101.344H66.7344V65.8438Z" fill="#FFCF4D"/>
<path d="M54.5312 73.1922V101.344H64.5156V64.7344C64.5156 64.2729 54.5312 73.1922 54.5312 73.1922Z" fill="#F44336"/>
<path d="M104.449 39.2188H94.9243C94.4855 39.2188 94.0566 39.349 93.6918 39.5928C93.327 39.8366 93.0427 40.1831 92.8748 40.5885C92.707 40.9939 92.663 41.4399 92.7486 41.8702C92.8342 42.3006 93.0454 42.6959 93.3556 43.0062L95.1151 44.7656L79.5838 60.2969H62.8323C62.4961 60.296 62.1642 60.372 61.8619 60.5191C61.5597 60.6662 61.2951 60.8805 61.0883 61.1455L49.8259 75.4787C49.4906 75.9053 49.3232 76.4401 49.3555 76.9819C49.3878 77.5236 49.6175 78.0347 50.0012 78.4185L51.7751 80.1913C52.1917 80.6072 52.7562 80.841 53.3449 80.8414C53.3782 80.8414 53.4114 80.8414 53.4447 80.8392C53.7525 80.8247 54.054 80.7465 54.33 80.6094C54.6059 80.4723 54.8504 80.2793 55.0478 80.0426L65.0299 68.0625L82.3406 68.1257H82.3484C82.646 68.1251 82.9405 68.0649 83.2145 67.9487C83.4884 67.8325 83.7364 67.6626 83.9437 67.449L101.135 49.6746L102.881 51.4219C103.191 51.7321 103.586 51.9433 104.017 52.0289C104.447 52.1145 104.893 52.0705 105.298 51.9026C105.704 51.7347 106.05 51.4504 106.294 51.0856C106.538 50.7209 106.668 50.292 106.668 49.8532V41.4375C106.668 40.8492 106.434 40.2852 106.018 39.8693C105.602 39.4533 105.038 39.2193 104.449 39.2188Z" fill="#8BC34A"/>
<path d="M107.3 99.4855L105.272 97.2667C105.073 97.0496 104.797 96.9202 104.503 96.9071C104.209 96.894 103.921 96.9982 103.704 97.1968C103.487 97.3955 103.358 97.6722 103.345 97.9661C103.332 98.2601 103.436 98.5473 103.634 98.7644L103.964 99.1249H47.875V43.0349L48.2355 43.3655C48.3431 43.4639 48.4689 43.5401 48.6059 43.5898C48.7428 43.6395 48.8882 43.6617 49.0338 43.6552C49.1794 43.6487 49.3222 43.6137 49.4542 43.552C49.5862 43.4903 49.7048 43.4032 49.8031 43.2956C49.9014 43.1881 49.9776 43.0623 50.0273 42.9253C50.077 42.7884 50.0993 42.643 50.0928 42.4974C50.0863 42.3518 50.0512 42.209 49.9895 42.077C49.9278 41.945 49.8407 41.8264 49.7332 41.7281L47.5145 39.7002C47.3099 39.5131 47.0428 39.4093 46.7656 39.4093C46.4884 39.4093 46.2213 39.5131 46.0168 39.7002L43.798 41.7281C43.5809 41.9267 43.4516 42.2034 43.4385 42.4974C43.4253 42.7914 43.5296 43.0785 43.7282 43.2956C43.9268 43.5128 44.2035 43.6421 44.4975 43.6552C44.7914 43.6683 45.0786 43.5641 45.2957 43.3655L45.6562 43.0349V46.9843H43.4375C43.1433 46.9843 42.8611 47.1012 42.6531 47.3092C42.445 47.5173 42.3281 47.7995 42.3281 48.0937C42.3281 48.3879 42.445 48.6701 42.6531 48.8781C42.8611 49.0862 43.1433 49.2031 43.4375 49.2031H45.6562V53.6406H43.4375C43.1433 53.6406 42.8611 53.7574 42.6531 53.9655C42.445 54.1735 42.3281 54.4557 42.3281 54.7499C42.3281 55.0442 42.445 55.3263 42.6531 55.5344C42.8611 55.7424 43.1433 55.8593 43.4375 55.8593H45.6562V60.2968H43.4375C43.1433 60.2968 42.8611 60.4137 42.6531 60.6217C42.445 60.8298 42.3281 61.112 42.3281 61.4062C42.3281 61.7004 42.445 61.9826 42.6531 62.1906C42.8611 62.3987 43.1433 62.5156 43.4375 62.5156H45.6562V66.9531H43.4375C43.1433 66.9531 42.8611 67.0699 42.6531 67.278C42.445 67.486 42.3281 67.7682 42.3281 68.0624C42.3281 68.3567 42.445 68.6388 42.6531 68.8469C42.8611 69.0549 43.1433 69.1718 43.4375 69.1718H45.6562V73.6093H43.4375C43.1433 73.6093 42.8611 73.7262 42.6531 73.9342C42.445 74.1423 42.3281 74.4245 42.3281 74.7187C42.3281 75.0129 42.445 75.2951 42.6531 75.5031C42.8611 75.7112 43.1433 75.8281 43.4375 75.8281H45.6562V80.2656H43.4375C43.1433 80.2656 42.8611 80.3824 42.6531 80.5905C42.445 80.7985 42.3281 81.0807 42.3281 81.3749C42.3281 81.6692 42.445 81.9513 42.6531 82.1594C42.8611 82.3674 43.1433 82.4843 43.4375 82.4843H45.6562V86.9218H43.4375C43.1433 86.9218 42.8611 87.0387 42.6531 87.2467C42.445 87.4548 42.3281 87.737 42.3281 88.0312C42.3281 88.3254 42.445 88.6076 42.6531 88.8156C42.8611 89.0237 43.1433 89.1406 43.4375 89.1406H45.6562V93.5781H43.4375C43.1433 93.5781 42.8611 93.6949 42.6531 93.903C42.445 94.111 42.3281 94.3932 42.3281 94.6874C42.3281 94.9817 42.445 95.2638 42.6531 95.4719C42.8611 95.6799 43.1433 95.7968 43.4375 95.7968H45.6562V99.1249H42.3281C42.0339 99.1249 41.7517 99.2418 41.5437 99.4499C41.3356 99.6579 41.2188 99.9401 41.2188 100.234C41.2188 100.529 41.3356 100.811 41.5437 101.019C41.7517 101.227 42.0339 101.344 42.3281 101.344H45.6562V104.672C45.6562 104.966 45.7731 105.248 45.9812 105.456C46.1892 105.664 46.4714 105.781 46.7656 105.781C47.0598 105.781 47.342 105.664 47.5501 105.456C47.7581 105.248 47.875 104.966 47.875 104.672V101.344H103.965L103.634 101.704C103.536 101.812 103.46 101.938 103.41 102.075C103.36 102.212 103.338 102.357 103.345 102.502C103.351 102.648 103.386 102.791 103.448 102.923C103.51 103.055 103.597 103.173 103.704 103.272C103.812 103.37 103.938 103.446 104.075 103.496C104.212 103.546 104.357 103.568 104.503 103.561C104.648 103.555 104.791 103.52 104.923 103.458C105.055 103.397 105.174 103.309 105.272 103.202L107.3 100.983C107.487 100.779 107.59 100.511 107.59 100.234C107.59 99.9572 107.487 99.6901 107.3 99.4855Z" fill="#212121"/>
<defs>
<filter id="filter0_d_2030_6876" x="0.666667" y="0.571429" width="146.667" height="146.667" filterUnits="userSpaceOnUse" color-interpolation-filters="sRGB">
<feFlood flood-opacity="0" result="BackgroundImageFix"/>
<feColorMatrix in="SourceAlpha" type="matrix" values="0 0 0 0 0 0 0 0 0 0 0 0 0 0 0 0 0 0 127 0" result="hardAlpha"/>
<feOffset dy="1.90476"/>
<feGaussianBlur stdDeviation="6.66667"/>
<feComposite in2="hardAlpha" operator="out"/>
<feColorMatrix type="matrix" values="0 0 0 0 0.695898 0 0 0 0 0.695898 0 0 0 0 0.695898 0 0 0 0.25 0"/>
<feBlend mode="normal" in2="BackgroundImageFix" result="effect1_dropShadow_2030_6876"/>
<feBlend mode="normal" in="SourceGraphic" in2="effect1_dropShadow_2030_6876" result="shape"/>
</filter>
</defs>
</svg>
