<svg width="148" height="148" viewBox="0 0 148 148" fill="none" xmlns="http://www.w3.org/2000/svg">
<g filter="url(#filter0_d_3238_2937)">
<circle cx="74" cy="72" r="60" fill="white"/>
</g>
<g clip-path="url(#clip0_3238_2937)">
<path fill-rule="evenodd" clip-rule="evenodd" d="M44.123 95.116H94.0624V98.0201H41.2188V49.6086H44.123V95.116Z" fill="#A79BA7"/>
<path fill-rule="evenodd" clip-rule="evenodd" d="M49.3398 73.59C49.0639 73.6823 48.7627 73.6622 48.5015 73.534C48.2404 73.4058 48.0402 73.1798 47.9444 72.9051C47.8487 72.6304 47.865 72.329 47.9899 72.0662C48.1148 71.8035 48.3382 71.6005 48.6118 71.5013C54.8899 69.315 61.3359 66.5679 67.739 63.0854C73.4171 59.9974 79.069 56.3259 84.5498 51.9479L82.5191 51.9475C82.2291 51.9429 81.9524 51.8244 81.7489 51.6177C81.5455 51.4109 81.4314 51.1325 81.4314 50.8424C81.4314 50.5523 81.5455 50.2738 81.7489 50.0671C81.9524 49.8603 82.2291 49.7419 82.5191 49.7373L87.6386 49.7386C87.8049 49.7386 87.9691 49.7761 88.1189 49.8484C88.2686 49.9206 88.4002 50.0258 88.5037 50.1559C88.6072 50.2861 88.68 50.438 88.7166 50.6002C88.7533 50.7624 88.7529 50.9308 88.7154 51.0928L87.7096 56.0786C87.5899 56.677 87.0079 57.065 86.4096 56.9453C85.8112 56.8257 85.4232 56.2436 85.5429 55.6453L85.941 53.6714C80.3599 58.1296 74.595 61.8733 68.7964 65.027C62.2743 68.5739 55.7184 71.3686 49.3398 73.59Z" fill="#A79BA7"/>
<path fill-rule="evenodd" clip-rule="evenodd" d="M50.5473 78.5989H55.1414C55.6364 78.5989 56.0402 79.0027 56.0402 79.4978V89.9625C56.0402 90.4575 55.6364 90.8614 55.1414 90.8614H50.5473C50.0523 90.8614 49.6484 90.4575 49.6484 89.9625V79.4978C49.6483 79.0027 50.0521 78.5989 50.5473 78.5989Z" fill="#FE646F"/>
<path fill-rule="evenodd" clip-rule="evenodd" d="M53.5938 78.5989H55.1401C55.6351 78.5989 56.039 79.0027 56.039 79.4978V89.9625C56.039 90.4575 55.6351 90.8614 55.1401 90.8614H53.5938C54.0888 90.8614 54.4926 90.4575 54.4926 89.9625V79.4978C54.4926 79.0027 54.0888 78.5989 53.5938 78.5989Z" fill="#FD4755"/>
<path fill-rule="evenodd" clip-rule="evenodd" d="M67.0087 72.1741H62.4145C61.9194 72.1741 61.5156 72.5779 61.5156 73.0729V89.9626C61.5156 90.4577 61.9194 90.8616 62.4145 90.8616H67.0087C67.5038 90.8616 67.9076 90.4578 67.9076 89.9626V73.0729C67.9076 72.5779 67.5038 72.1741 67.0087 72.1741Z" fill="#FFE177"/>
<path fill-rule="evenodd" clip-rule="evenodd" d="M67.0073 72.1741H65.4609C65.956 72.1741 66.3598 72.5779 66.3598 73.0729V89.9626C66.3598 90.4577 65.956 90.8616 65.4609 90.8616H67.0073C67.5023 90.8616 67.9061 90.4578 67.9061 89.9626V73.0729C67.9061 72.5779 67.5023 72.1741 67.0073 72.1741Z" fill="#FFD064"/>
<path fill-rule="evenodd" clip-rule="evenodd" d="M78.8759 65.4653H74.2817C73.7866 65.4653 73.3828 65.8691 73.3828 66.3642V89.9626C73.3828 90.4576 73.7866 90.8614 74.2817 90.8614H78.8759C79.3709 90.8614 79.7748 90.4576 79.7748 89.9626V66.3643C79.7748 65.8691 79.3709 65.4653 78.8759 65.4653Z" fill="#6CF5C2"/>
<path fill-rule="evenodd" clip-rule="evenodd" d="M78.8823 65.4653H77.3359C77.831 65.4653 78.2348 65.8691 78.2348 66.3642V89.9626C78.2348 90.4576 77.831 90.8614 77.3359 90.8614H78.8823C79.3773 90.8614 79.7811 90.4576 79.7811 89.9626V66.3643C79.7811 65.8691 79.3773 65.4653 78.8823 65.4653Z" fill="#00E499"/>
<path fill-rule="evenodd" clip-rule="evenodd" d="M86.1567 59.4303H90.7509C91.2459 59.4303 91.6498 59.8341 91.6498 60.3292V89.9627C91.6498 90.4577 91.2459 90.8615 90.7509 90.8615H86.1567C85.6616 90.8615 85.2578 90.4577 85.2578 89.9627V60.3292C85.2578 59.8341 85.6616 59.4303 86.1567 59.4303Z" fill="#8AC9FE"/>
<path fill-rule="evenodd" clip-rule="evenodd" d="M89.2031 59.4303H90.7495C91.2445 59.4303 91.6483 59.8341 91.6483 60.3292V89.9627C91.6483 90.4577 91.2445 90.8615 90.7495 90.8615H89.2031C89.6982 90.8615 90.102 90.4577 90.102 89.9627V60.3292C90.102 59.8341 89.6982 59.4303 89.2031 59.4303Z" fill="#60B7FF"/>
<path d="M69.536 59.5126C74.1608 54.8878 74.1608 47.3895 69.536 42.7647C64.9111 38.1399 57.4128 38.1399 52.788 42.7647C48.1632 47.3895 48.1632 54.8878 52.788 59.5126C57.4128 64.1375 64.9111 64.1375 69.536 59.5126Z" fill="#FFD064"/>
<path fill-rule="evenodd" clip-rule="evenodd" d="M60.6641 39.3056C66.9729 39.5672 72.0073 44.7647 72.0073 51.1379C72.0073 57.5111 66.9729 62.7084 60.6641 62.9701C60.8296 62.9769 60.996 62.9803 61.1634 62.9803C67.7039 62.9803 73.006 57.6782 73.006 51.1377C73.006 44.5973 67.7039 39.2952 61.1634 39.2952C60.9969 39.2953 60.8304 39.2988 60.6641 39.3056Z" fill="#F5B829"/>
<path d="M61.1603 60.181C66.1546 60.181 70.2033 56.1323 70.2033 51.1379C70.2033 46.1436 66.1546 42.0948 61.1603 42.0948C56.1659 42.0948 52.1172 46.1436 52.1172 51.1379C52.1172 56.1323 56.1659 60.181 61.1603 60.181Z" fill="#FFC338"/>
<path fill-rule="evenodd" clip-rule="evenodd" d="M53.1958 51.1379C53.1958 46.3246 56.9563 42.3897 61.6996 42.1107C61.52 42.1001 61.3401 42.0948 61.1603 42.0948C56.1659 42.0948 52.1172 46.1435 52.1172 51.1379C52.1172 56.1322 56.1659 60.181 61.1603 60.181C61.3401 60.181 61.52 60.1758 61.6996 60.1652C56.9563 59.886 53.1958 55.9511 53.1958 51.1379Z" fill="#F5B829"/>
<path fill-rule="evenodd" clip-rule="evenodd" d="M64.848 47.9617C64.9557 48.2318 64.953 48.5333 64.8405 48.8014C64.7281 49.0695 64.5148 49.2828 64.2467 49.3953C63.9786 49.5078 63.6771 49.5105 63.407 49.4028C63.1369 49.2952 62.9199 49.0858 62.8026 48.8198C62.5793 48.2881 62.1558 47.9812 61.691 47.8634C61.3893 47.7873 61.0745 47.7794 60.7694 47.8403C60.4866 47.8973 60.2279 48.011 60.0278 48.1737C59.7984 48.3602 59.6527 48.6281 59.6688 48.9589C59.6826 49.2463 59.8364 49.4457 60.0509 49.5858C60.3942 49.8099 60.8817 49.9366 61.349 50.0133C62.0883 50.1347 62.8976 50.3387 63.5824 50.752C64.3964 51.2435 65.0105 51.9841 65.1489 53.1247C65.1591 53.2083 65.1656 53.3126 65.1685 53.4364C65.1936 54.4901 64.7148 55.2737 63.995 55.8199C63.4971 56.1978 62.8869 56.4454 62.2725 56.5764V56.8604C62.2725 57.1546 62.1556 57.4368 61.9475 57.6448C61.7395 57.8529 61.4573 57.9698 61.1631 57.9698C60.8689 57.9698 60.5867 57.8529 60.3786 57.6448C60.1706 57.4368 60.0537 57.1546 60.0537 56.8604V56.5539C59.5689 56.4368 59.1081 56.2426 58.7011 55.9716C57.9771 55.4895 57.4223 54.7773 57.1872 53.8349C57.1185 53.5503 57.1652 53.2501 57.3173 52.9999C57.4694 52.7498 57.7144 52.5701 57.9987 52.5001C58.283 52.4302 58.5834 52.4758 58.8341 52.6269C59.0849 52.778 59.2656 53.0222 59.3366 53.3062C59.4259 53.6643 59.641 53.9377 59.9232 54.1256C60.2918 54.3711 60.7687 54.488 61.2552 54.4763C61.3559 54.4726 61.4564 54.4643 61.5564 54.4512C61.9713 54.4009 62.3797 54.2736 62.6603 54.0607C62.8427 53.9225 62.9642 53.7328 62.9583 53.4886C62.9557 53.454 62.952 53.4194 62.9474 53.385C62.9059 53.0435 62.7055 52.8117 62.4382 52.6503C62.0416 52.4108 61.5021 52.281 60.9935 52.1976C60.2753 52.0797 59.4931 51.8631 58.846 51.4407C58.0702 50.9343 57.513 50.1838 57.4585 49.063C57.4048 47.956 57.881 47.0686 58.6322 46.4578C59.0395 46.1266 59.529 45.884 60.0536 45.7406V45.4155C60.0536 45.1213 60.1705 44.8391 60.3785 44.6311C60.5866 44.423 60.8687 44.3062 61.1629 44.3062C61.4572 44.3062 61.7393 44.423 61.9474 44.6311C62.1554 44.8391 62.2723 45.1213 62.2723 45.4155V45.7256C63.3523 46.0115 64.3309 46.7301 64.848 47.9617Z" fill="#FFE177"/>
<path d="M92.1316 105.712C101.042 105.462 108.064 98.0362 107.814 89.1255C107.565 80.2147 100.139 73.1934 91.2281 73.4429C82.3173 73.6924 75.296 81.1182 75.5455 90.029C75.795 98.9397 83.2209 105.961 92.1316 105.712Z" fill="#ECEFF1"/>
<path fill-rule="evenodd" clip-rule="evenodd" d="M91.6502 73.436C100.561 73.436 107.785 80.6597 107.785 89.5704C107.785 98.4811 100.561 105.705 91.6502 105.705C91.3375 105.705 91.027 105.695 90.7188 105.677C99.1959 105.195 105.922 98.1683 105.922 89.5704C105.922 80.9723 99.196 73.9462 90.7188 73.4635C91.027 73.4459 91.3375 73.436 91.6502 73.436Z" fill="#D1D1D6"/>
<path fill-rule="evenodd" clip-rule="evenodd" d="M96.3083 94.9005C96.6838 88.5115 99.4527 88.7705 99.4527 84.436C99.4527 80.1258 95.9585 76.6316 91.6482 76.6316C87.3379 76.6316 83.8438 80.1258 83.8438 84.436C83.8438 88.7705 86.6126 88.5115 86.9881 94.9005C87.1554 96.1626 87.8765 96.4471 88.2936 96.4471C94.5046 96.4471 95.6047 97.0605 96.3083 94.9005Z" fill="#FFE177"/>
<path fill-rule="evenodd" clip-rule="evenodd" d="M96.3046 94.9005C96.6802 88.5115 99.449 88.7705 99.449 84.436C99.449 80.1258 95.9549 76.6316 91.6446 76.6316C91.499 76.6316 91.3545 76.6359 91.2109 76.6438C95.3195 76.8689 98.5818 80.2713 98.5818 84.436C98.5818 88.7705 95.8129 88.5115 95.4374 94.9005C95.0197 96.1828 94.4622 96.4876 92.7786 96.5237C95.1532 96.5586 95.8222 96.3814 96.3046 94.9005Z" fill="#FFD064"/>
<path fill-rule="evenodd" clip-rule="evenodd" d="M89.1896 96.193V87.4163H88.4854C87.6804 87.4163 86.9495 87.0878 86.4203 86.5585C85.8912 86.0293 85.5625 85.2982 85.5625 84.4934C85.5625 83.6884 85.891 82.9574 86.4203 82.4283C86.9495 81.8991 87.6806 81.5704 88.4854 81.5704C89.2903 81.5704 90.0215 81.8989 90.5507 82.4283C91.0798 82.9574 91.4084 83.6885 91.4084 84.4934V85.1975H91.885V84.4934C91.885 83.6885 92.2135 82.9574 92.7427 82.4283C93.2718 81.8991 94.0029 81.5704 94.8078 81.5704C95.6127 81.5704 96.3437 81.8989 96.8729 82.4283C97.4022 82.9574 97.7305 83.6885 97.7305 84.4934C97.7305 85.2984 97.402 86.0293 96.8729 86.5586C96.3437 87.0878 95.6126 87.4163 94.8076 87.4163H94.1034V96.193H91.8847V87.4163H91.4081V96.193H89.1896ZM89.1896 85.1974V84.4932C89.1896 84.3007 89.11 84.1249 88.9819 83.9968C88.8537 83.8686 88.6779 83.789 88.4854 83.789C88.2929 83.789 88.1171 83.8686 87.989 83.9968C87.8608 84.1249 87.7812 84.3007 87.7812 84.4932C87.7812 84.6857 87.8608 84.8615 87.989 84.9897C88.1171 85.1178 88.2929 85.1974 88.4854 85.1974H89.1896ZM94.1036 85.1974H94.8078C95.0002 85.1974 95.1761 85.1178 95.3042 84.9897C95.4323 84.8615 95.5119 84.6857 95.5119 84.4932C95.5119 84.3007 95.4323 84.1249 95.3042 83.9968C95.1761 83.8686 95.0002 83.789 94.8078 83.789C94.6153 83.789 94.4394 83.8686 94.3113 83.9968C94.1832 84.1249 94.1036 84.3007 94.1036 84.4932V85.1974Z" fill="#FFC338"/>
<path fill-rule="evenodd" clip-rule="evenodd" d="M92.949 99.319H89.6016V101.242C89.6016 101.939 90.1722 102.51 90.8697 102.51H92.5156C93.2131 102.51 93.7838 101.94 93.7838 101.242V99.319H92.949Z" fill="#B1B1B5"/>
<path fill-rule="evenodd" clip-rule="evenodd" d="M88.2656 96.8477L88.2936 98.7054C88.3042 99.4029 88.8643 99.9735 89.5619 99.9735H93.809C94.5065 99.9735 95.0877 99.4029 95.0772 98.7054L95.049 96.847C92.834 96.9171 90.4946 96.8477 88.2656 96.8477Z" fill="#D1D1D6"/>
<path fill-rule="evenodd" clip-rule="evenodd" d="M92.9453 99.9735H93.8126C94.5101 99.9735 95.0913 99.4029 95.0807 98.7054L95.0526 96.847C94.7655 96.8561 94.4763 96.8629 94.1856 96.8677L94.2133 98.7054C94.224 99.4029 93.6428 99.9735 92.9453 99.9735Z" fill="#B1B1B5"/>
<path fill-rule="evenodd" clip-rule="evenodd" d="M86.9844 94.9005V96.1689C86.9844 96.8665 87.5552 97.4371 88.2525 97.4371H95.0362C95.7336 97.4371 96.3044 96.8665 96.3044 96.1689V94.9005H86.9844Z" fill="#ECEFF1"/>
<path fill-rule="evenodd" clip-rule="evenodd" d="M94.1719 97.4371H95.0391C95.7365 97.4371 96.3073 96.8665 96.3073 96.1689V94.9005H95.44V96.1689C95.44 96.8665 94.8694 97.4371 94.1719 97.4371Z" fill="#D1D1D6"/>
</g>
<defs>
<filter id="filter0_d_3238_2937" x="0.666667" y="0.571429" width="146.667" height="146.667" filterUnits="userSpaceOnUse" color-interpolation-filters="sRGB">
<feFlood flood-opacity="0" result="BackgroundImageFix"/>
<feColorMatrix in="SourceAlpha" type="matrix" values="0 0 0 0 0 0 0 0 0 0 0 0 0 0 0 0 0 0 127 0" result="hardAlpha"/>
<feOffset dy="1.90476"/>
<feGaussianBlur stdDeviation="6.66667"/>
<feComposite in2="hardAlpha" operator="out"/>
<feColorMatrix type="matrix" values="0 0 0 0 0.695898 0 0 0 0 0.695898 0 0 0 0 0.695898 0 0 0 0.25 0"/>
<feBlend mode="normal" in2="BackgroundImageFix" result="effect1_dropShadow_3238_2937"/>
<feBlend mode="normal" in="SourceGraphic" in2="effect1_dropShadow_3238_2937" result="shape"/>
</filter>
<clipPath id="clip0_3238_2937">
<rect width="71" height="71" fill="white" transform="translate(39 37)"/>
</clipPath>
</defs>
</svg>
