<svg width="148" height="148" viewBox="0 0 148 148" fill="none" xmlns="http://www.w3.org/2000/svg">
<g filter="url(#filter0_d_3238_2921)">
<circle cx="74" cy="72" r="60" fill="white"/>
</g>
<g clip-path="url(#clip0_3238_2921)">
<path d="M110 51.6896V105.552C109.998 106.2 109.739 106.822 109.281 107.281C108.822 107.739 108.2 107.998 107.552 108H74.5C75.7986 108 77.0441 107.484 77.9624 106.566C78.8807 105.648 79.3966 104.402 79.3966 103.103V51.6896H110Z" fill="#ECF0F1"/>
<path d="M105.105 104.328H101.433C101.108 104.328 100.797 104.199 100.567 103.969C100.338 103.739 100.209 103.428 100.209 103.103C100.209 102.779 100.338 102.467 100.567 102.238C100.797 102.008 101.108 101.879 101.433 101.879H105.105C105.43 101.879 105.741 102.008 105.971 102.238C106.201 102.467 106.329 102.779 106.329 103.103C106.329 103.428 106.201 103.739 105.971 103.969C105.741 104.199 105.43 104.328 105.105 104.328ZM96.5364 104.328H80.6226C80.2979 104.328 79.9865 104.199 79.757 103.969C79.5274 103.739 79.3984 103.428 79.3984 103.103C79.3984 102.779 79.5274 102.467 79.757 102.238C79.9865 102.008 80.2979 101.879 80.6226 101.879H96.5364C96.861 101.879 97.1724 102.008 97.402 102.238C97.6315 102.467 97.7605 102.779 97.7605 103.103C97.7605 103.428 97.6315 103.739 97.402 103.969C97.1724 104.199 96.861 104.328 96.5364 104.328Z" fill="#464F5D"/>
<path d="M103.881 56.5862H80.6226C80.2979 56.5862 79.9865 56.7152 79.757 56.9447C79.5274 57.1743 79.3984 57.4857 79.3984 57.8103C79.3984 58.135 79.5274 58.4463 79.757 58.6759C79.9865 58.9055 80.2979 59.0345 80.6226 59.0345H98.6174L79.9432 71.4815C79.7309 71.6309 79.5712 71.8434 79.4867 72.0888C79.4022 72.3341 79.3972 72.5999 79.4724 72.8483C79.5477 73.0967 79.6993 73.3151 79.9058 73.4723C80.1123 73.6295 80.3631 73.7176 80.6226 73.7241H103.881C104.531 73.7241 105.153 73.4662 105.612 73.007C106.072 72.5479 106.329 71.9252 106.329 71.2758V59.0345C106.329 58.3851 106.072 57.7624 105.612 57.3033C105.153 56.8441 104.531 56.5862 103.881 56.5862ZM103.881 71.2758H84.6622L103.024 59.0345H103.881V71.2758Z" fill="#E64C3C"/>
<path d="M110.002 45.5689V52.9138H79.3984V43.1207H107.554C108.202 43.1226 108.824 43.3812 109.283 43.8399C109.741 44.2986 110 44.9202 110.002 45.5689Z" fill="#547580"/>
<path d="M105.107 49.2414C105.783 49.2414 106.331 48.6933 106.331 48.0172C106.331 47.3412 105.783 46.7931 105.107 46.7931C104.431 46.7931 103.883 47.3412 103.883 48.0172C103.883 48.6933 104.431 49.2414 105.107 49.2414Z" fill="#24AE5F"/>
<path d="M100.209 49.2414C100.885 49.2414 101.433 48.6933 101.433 48.0172C101.433 47.3412 100.885 46.7931 100.209 46.7931C99.5324 46.7931 98.9844 47.3412 98.9844 48.0172C98.9844 48.6933 99.5324 49.2414 100.209 49.2414Z" fill="#F0C419"/>
<path d="M95.3101 49.2414C95.9861 49.2414 96.5342 48.6933 96.5342 48.0172C96.5342 47.3412 95.9861 46.7931 95.3101 46.7931C94.634 46.7931 94.0859 47.3412 94.0859 48.0172C94.0859 48.6933 94.634 49.2414 95.3101 49.2414Z" fill="#E64C3C"/>
<path d="M103.877 76.1724H91.6358C90.9865 76.1724 90.3637 76.4304 89.9046 76.8895C89.4454 77.3486 89.1875 77.9714 89.1875 78.6207V90.8621C89.1875 91.5114 89.4454 92.1341 89.9046 92.5933C90.3637 93.0524 90.9865 93.3104 91.6358 93.3104H103.877C104.526 93.3104 105.149 93.0524 105.608 92.5933C106.067 92.1341 106.325 91.5114 106.325 90.8621V78.6207C106.325 77.9714 106.067 77.3486 105.608 76.8895C105.149 76.4304 104.526 76.1724 103.877 76.1724ZM103.19 78.6207L91.6358 88.2485V78.6207H103.19ZM92.3225 90.8621L103.877 81.2342V90.8621H92.3225Z" fill="#E64C3C"/>
<path d="M72.0517 37H75.7241C77.0228 37 78.2682 37.5159 79.1865 38.4342C80.1048 39.3524 80.6207 40.5979 80.6207 41.8966V103.103C80.6207 104.402 80.1048 105.648 79.1865 106.566C78.2682 107.484 77.0228 108 75.7241 108H43.8966C42.5979 108 41.3524 107.484 40.4342 106.566C39.5159 105.648 39 104.402 39 103.103V41.8966C39 40.5979 39.5159 39.3524 40.4342 38.4342C41.3524 37.5159 42.5979 37 43.8966 37H72.0517Z" fill="#2FA8CC"/>
<path d="M80.6207 41.8966C80.6207 41.8966 40.7872 43.0962 39.0612 103.862C39.0221 103.611 39.0016 103.358 39 103.103V41.8966C39 40.5979 39.5159 39.3524 40.4342 38.4342C41.3524 37.5159 42.5979 37 43.8966 37H47.569V39.4483C47.5709 40.097 47.8295 40.7186 48.2882 41.1773C48.7469 41.636 49.3685 41.8946 50.0172 41.8966H69.6034C70.2522 41.8946 70.8738 41.636 71.3325 41.1773C71.7912 40.7186 72.0498 40.097 72.0517 39.4483V37H75.7241C77.0228 37 78.2682 37.5159 79.1865 38.4342C80.1048 39.3524 80.6207 40.5979 80.6207 41.8966Z" fill="#67B9CC"/>
<path d="M72.0531 37V39.4483C72.0511 40.097 71.7926 40.7186 71.3339 41.1773C70.8751 41.636 70.2535 41.8946 69.6048 41.8966H50.0186C49.3699 41.8946 48.7483 41.636 48.2895 41.1773C47.8308 40.7186 47.5722 40.097 47.5703 39.4483V37H72.0531ZM65.9324 104.328H53.691C53.3663 104.328 53.055 104.199 52.8254 103.969C52.5958 103.739 52.4669 103.428 52.4669 103.103C52.4669 102.779 52.5958 102.467 52.8254 102.238C53.055 102.008 53.3663 101.879 53.691 101.879H65.9324C66.257 101.879 66.5684 102.008 66.798 102.238C67.0275 102.467 67.1565 102.779 67.1565 103.103C67.1565 103.428 67.0275 103.739 66.798 103.969C66.5684 104.199 66.257 104.328 65.9324 104.328Z" fill="#464F5D"/>
<path d="M75.7262 49.2413V61.4827C75.7262 61.8074 75.5972 62.1188 75.3676 62.3483C75.138 62.5779 74.8267 62.7069 74.502 62.7069H45.1227C44.8742 62.7073 44.6316 62.6311 44.4279 62.4887C44.2242 62.3464 44.0693 62.1447 43.9843 61.9112C43.9254 61.7761 43.8962 61.63 43.8986 61.4827V49.2413C43.8986 48.9167 44.0275 48.6053 44.2571 48.3758C44.4867 48.1462 44.798 48.0172 45.1227 48.0172H74.502C75.0113 48.0172 75.4666 48.3355 75.6405 48.8129C75.6992 48.9476 75.7286 49.0945 75.7262 49.2413Z" fill="#ECF0F1"/>
<path d="M52.462 68.8276H46.3413C46.0167 68.8276 45.7053 68.6986 45.4757 68.4691C45.2462 68.2395 45.1172 67.9281 45.1172 67.6035C45.1172 67.2788 45.2462 66.9674 45.4757 66.7379C45.7053 66.5083 46.0167 66.3793 46.3413 66.3793H52.462C52.7867 66.3793 53.098 66.5083 53.3276 66.7379C53.5572 66.9674 53.6862 67.2788 53.6862 67.6035C53.6862 67.9281 53.5572 68.2395 53.3276 68.4691C53.098 68.6986 52.7867 68.8276 52.462 68.8276ZM73.2724 68.8276H57.3586C57.0339 68.8276 56.7225 68.6986 56.493 68.4691C56.2634 68.2395 56.1344 67.9281 56.1344 67.6035C56.1344 67.2788 56.2634 66.9674 56.493 66.7379C56.7225 66.5083 57.0339 66.3793 57.3586 66.3793H73.2724C73.597 66.3793 73.9084 66.5083 74.138 66.7379C74.3675 66.9674 74.4965 67.2788 74.4965 67.6035C74.4965 67.9281 74.3675 68.2395 74.138 68.4691C73.9084 68.6986 73.597 68.8276 73.2724 68.8276ZM61.031 77.3966H46.3413C46.0167 77.3966 45.7053 77.2676 45.4757 77.038C45.2462 76.8085 45.1172 76.4971 45.1172 76.1724C45.1172 75.8478 45.2462 75.5364 45.4757 75.3068C45.7053 75.0773 46.0167 74.9483 46.3413 74.9483H61.031C61.3556 74.9483 61.667 75.0773 61.8966 75.3068C62.1261 75.5364 62.2551 75.8478 62.2551 76.1724C62.2551 76.4971 62.1261 76.8085 61.8966 77.038C61.667 77.2676 61.3556 77.3966 61.031 77.3966ZM73.2724 77.3966H65.9275C65.6029 77.3966 65.2915 77.2676 65.0619 77.038C64.8324 76.8085 64.7034 76.4971 64.7034 76.1724C64.7034 75.8478 64.8324 75.5364 65.0619 75.3068C65.2915 75.0773 65.6029 74.9483 65.9275 74.9483H73.2724C73.597 74.9483 73.9084 75.0773 74.138 75.3068C74.3675 75.5364 74.4965 75.8478 74.4965 76.1724C74.4965 76.4971 74.3675 76.8085 74.138 77.038C73.9084 77.2676 73.597 77.3966 73.2724 77.3966ZM73.2724 82.2931H46.3413C46.0167 82.2931 45.7053 82.1642 45.4757 81.9346C45.2462 81.705 45.1172 81.3937 45.1172 81.069C45.1172 80.7443 45.2462 80.433 45.4757 80.2034C45.7053 79.9738 46.0167 79.8449 46.3413 79.8449H73.2724C73.597 79.8449 73.9084 79.9738 74.138 80.2034C74.3675 80.433 74.4965 80.7443 74.4965 81.069C74.4965 81.3937 74.3675 81.705 74.138 81.9346C73.9084 82.1642 73.597 82.2931 73.2724 82.2931ZM61.031 87.1897H46.3413C46.0167 87.1897 45.7053 87.0607 45.4757 86.8311C45.2462 86.6016 45.1172 86.2902 45.1172 85.9655C45.1172 85.6409 45.2462 85.3295 45.4757 85.0999C45.7053 84.8704 46.0167 84.7414 46.3413 84.7414H61.031C61.3556 84.7414 61.667 84.8704 61.8966 85.0999C62.1261 85.3295 62.2551 85.6409 62.2551 85.9655C62.2551 86.2902 62.1261 86.6016 61.8966 86.8311C61.667 87.0607 61.3556 87.1897 61.031 87.1897ZM73.2724 87.1897H65.9275C65.6029 87.1897 65.2915 87.0607 65.0619 86.8311C64.8324 86.6016 64.7034 86.2902 64.7034 85.9655C64.7034 85.6409 64.8324 85.3295 65.0619 85.0999C65.2915 84.8704 65.6029 84.7414 65.9275 84.7414H73.2724C73.597 84.7414 73.9084 84.8704 74.138 85.0999C74.3675 85.3295 74.4965 85.6409 74.4965 85.9655C74.4965 86.2902 74.3675 86.6016 74.138 86.8311C73.9084 87.0607 73.597 87.1897 73.2724 87.1897ZM73.2724 92.0862H46.3413C46.0167 92.0862 45.7053 91.9573 45.4757 91.7277C45.2462 91.4981 45.1172 91.1868 45.1172 90.8621C45.1172 90.5374 45.2462 90.2261 45.4757 89.9965C45.7053 89.7669 46.0167 89.638 46.3413 89.638H73.2724C73.597 89.638 73.9084 89.7669 74.138 89.9965C74.3675 90.2261 74.4965 90.5374 74.4965 90.8621C74.4965 91.1868 74.3675 91.4981 74.138 91.7277C73.9084 91.9573 73.597 92.0862 73.2724 92.0862Z" fill="white"/>
<path d="M76.7866 48.3845C76.6124 47.9182 76.3002 47.5161 75.8917 47.2318C75.4832 46.9475 74.9977 46.7945 74.4999 46.7931H45.1206C44.4713 46.7931 43.8486 47.051 43.3894 47.5102C42.9303 47.9693 42.6723 48.592 42.6723 49.2414V61.4827C42.6662 61.7765 42.7213 62.0679 42.8339 62.3396C43.0081 62.8059 43.3203 63.208 43.7288 63.4923C44.1374 63.7766 44.6229 63.9297 45.1206 63.931H74.4999C75.1492 63.931 75.772 63.6731 76.2311 63.2139C76.6903 62.7548 76.9482 62.1321 76.9482 61.4827V49.2414C76.9543 48.9476 76.8992 48.6562 76.7866 48.3845ZM69.3255 49.2414L45.1206 61.342V49.2414H69.3255ZM50.2987 61.4827L74.4999 49.3821V61.4827H50.2987Z" fill="#2980BA"/>
</g>
<defs>
<filter id="filter0_d_3238_2921" x="0.666667" y="0.571429" width="146.667" height="146.667" filterUnits="userSpaceOnUse" color-interpolation-filters="sRGB">
<feFlood flood-opacity="0" result="BackgroundImageFix"/>
<feColorMatrix in="SourceAlpha" type="matrix" values="0 0 0 0 0 0 0 0 0 0 0 0 0 0 0 0 0 0 127 0" result="hardAlpha"/>
<feOffset dy="1.90476"/>
<feGaussianBlur stdDeviation="6.66667"/>
<feComposite in2="hardAlpha" operator="out"/>
<feColorMatrix type="matrix" values="0 0 0 0 0.695898 0 0 0 0 0.695898 0 0 0 0 0.695898 0 0 0 0.25 0"/>
<feBlend mode="normal" in2="BackgroundImageFix" result="effect1_dropShadow_3238_2921"/>
<feBlend mode="normal" in="SourceGraphic" in2="effect1_dropShadow_3238_2921" result="shape"/>
</filter>
<clipPath id="clip0_3238_2921">
<rect width="71" height="71" fill="white" transform="translate(39 37)"/>
</clipPath>
</defs>
</svg>
