<svg width="148" height="148" viewBox="0 0 148 148" fill="none" xmlns="http://www.w3.org/2000/svg">
<g filter="url(#filter0_d_2030_7438)">
<circle cx="74" cy="72" r="60" fill="white"/>
</g>
<path d="M57.1345 40.4751C56.1638 40.4751 55.3636 41.2669 55.3636 42.2376V45.391H51.8594V42.2376C51.8594 41.2669 52.6512 40.4751 53.6302 40.4751H57.1345Z" fill="#FD5426"/>
<path d="M97.1454 42.2376V45.391H55.3594V42.2376C55.3594 41.2669 56.1581 40.4751 57.1302 40.4751H95.3759C96.3536 40.4751 97.1454 41.2669 97.1454 42.2376Z" fill="#FE7D43"/>
<path d="M57.1345 85.7653H53.6302C52.6512 85.7653 51.8594 84.9735 51.8594 84.0028V45.391H55.3636V84.0028C55.3636 84.9735 56.1624 85.7653 57.1345 85.7653Z" fill="#F9DA82"/>
<path d="M97.1468 45.391V84.0028C97.1468 84.9735 96.3549 85.7653 95.3759 85.7653H57.1302C56.1595 85.7653 55.3594 84.9735 55.3594 84.0028V45.391H97.1468Z" fill="#FFE8A0"/>
<path d="M87.5736 42.9324C87.5736 43.4857 87.1257 43.9267 86.5724 43.9267C86.0274 43.9267 85.5781 43.4857 85.5781 42.9324C85.5781 42.8575 85.5851 42.7909 85.6086 42.7161C85.7057 43.157 86.1023 43.4857 86.5724 43.4857C87.0508 43.4857 87.446 43.157 87.5431 42.7161C87.5667 42.7909 87.5736 42.8575 87.5736 42.9324ZM91.1305 42.9324C91.1305 43.4857 90.6896 43.9267 90.1363 43.9267C89.5913 43.9267 89.142 43.4857 89.142 42.9324C89.142 42.8575 89.1489 42.7909 89.1725 42.7161C89.2696 43.157 89.6662 43.4857 90.1363 43.4857C90.6147 43.4857 91.003 43.157 91.1 42.7161C91.1236 42.7909 91.1305 42.8575 91.1305 42.9324ZM94.6944 42.9324C94.6944 43.4857 94.2465 43.9267 93.7001 43.9267C93.1552 43.9267 92.7059 43.4857 92.7059 42.9324C92.7059 42.8575 92.7128 42.7909 92.7364 42.7161C92.8334 43.157 93.23 43.4857 93.7001 43.4857C94.1702 43.4857 94.5668 43.157 94.6639 42.7161C94.6875 42.7909 94.6944 42.8575 94.6944 42.9324Z" fill="#D5E3F4"/>
<path d="M87.5438 42.716C87.4468 43.157 87.0502 43.4856 86.5731 43.4856C86.103 43.4856 85.7064 43.157 85.6094 42.716C85.6995 42.275 86.103 41.9395 86.5731 41.9395C87.0502 41.9395 87.4537 42.275 87.5438 42.716ZM91.0994 42.716C91.0023 43.157 90.614 43.4856 90.1356 43.4856C89.6655 43.4856 89.2689 43.157 89.1719 42.716C89.262 42.275 89.6655 41.9395 90.1356 41.9395C90.614 41.9395 91.0106 42.275 91.0994 42.716ZM94.6633 42.716C94.5662 43.157 94.1696 43.4856 93.6995 43.4856C93.2294 43.4856 92.8328 43.157 92.7357 42.716C92.8259 42.275 93.2294 41.9395 93.6995 41.9395C94.1696 41.9395 94.5745 42.275 94.6633 42.716Z" fill="#E4ECF4"/>
<path d="M109.863 99.4828V99.9307C109.863 102.471 107.801 104.525 105.261 104.525H43.7431C41.2027 104.525 39.1406 102.471 39.1406 99.9307V99.4828H39.4096C40.0295 101.276 41.7407 102.561 43.7431 102.561H105.261C107.263 102.561 108.974 101.276 109.594 99.4828H109.863Z" fill="#94BADD"/>
<path d="M109.591 99.4828C108.971 101.276 107.26 102.561 105.257 102.561H43.7397C41.7373 102.561 40.0261 101.276 39.4062 99.4828H109.591Z" fill="#B3CEEC"/>
<path d="M105.334 61.8126C104.937 60.9833 104.079 60.4078 103.1 60.4078H97.1451V63.1203H102.883V96.7704H46.1166V63.1203H51.8549V61.5588H47.043C45.6604 61.5588 44.5469 62.6793 44.5469 64.0466V99.4828H105.594V62.9039C105.596 62.5143 105.506 62.1412 105.334 61.8126Z" fill="#0AB69F"/>
<path d="M51.8569 60.4078V61.5588H47.045C45.6624 61.5588 44.5489 62.6793 44.5489 64.0466V99.4828H43.4062V62.9039C43.4062 61.5366 44.5198 60.4078 45.901 60.4078H51.8569Z" fill="#0ED2B3"/>
<path d="M102.884 63.1202V96.7704H46.1172V93.9456H98.0498C99.223 93.9456 100.178 92.9888 100.178 91.8156V63.1202H102.884Z" fill="#D5E3F4"/>
<path d="M100.18 63.1202V91.817C100.18 92.9902 99.223 93.947 98.0512 93.947H46.1172V63.1202H51.8554V84.0028C51.8554 84.9735 52.6472 85.7654 53.6179 85.7654H95.3748C96.3538 85.7654 97.1457 84.9735 97.1457 84.0028V63.1202H100.18Z" fill="#E4ECF4"/>
<path d="M93.4572 55.9246V57.6801C93.4572 58.7341 92.6058 59.5855 91.5519 59.5855H80.5538C79.4999 59.5855 78.6484 58.7341 78.6484 57.6801V55.9246C78.6484 56.9785 79.4999 57.8299 80.5538 57.8299H91.5519C92.6044 57.8299 93.4572 56.9785 93.4572 55.9246Z" fill="#D5E3F4"/>
<path d="M93.4572 51.6285V55.9246C93.4572 56.9785 92.6058 57.8299 91.5519 57.8299H80.5538C79.4999 57.8299 78.6484 56.9785 78.6484 55.9246V51.6285C78.6484 50.5746 79.4999 49.7231 80.5538 49.7231H91.5519C92.6044 49.7245 93.4572 50.576 93.4572 51.6285Z" fill="#E4ECF4"/>
<path d="M85.5447 56.9632L84.954 57.2988C84.5061 57.5608 83.9375 57.2308 83.9375 56.7163V52.5922C83.9375 52.0694 84.5047 51.7408 84.954 52.0015L85.5516 52.3454C85.1634 52.2858 84.782 52.577 84.782 53.011V56.2906C84.782 56.7163 85.1564 57.0159 85.5447 56.9632Z" fill="#FD5426"/>
<path d="M88.5254 55.2381L85.5439 56.9646C85.1557 57.0173 84.7812 56.7178 84.7812 56.292V53.0124C84.7812 52.5798 85.1626 52.2872 85.5509 52.3468L88.524 54.065C88.9733 54.3257 88.9733 54.976 88.5254 55.2381Z" fill="#FE7D43"/>
<path d="M72.2827 71.643H70.6783C70.5085 70.8748 70.2048 70.1426 69.7811 69.4797L70.9182 68.3454C71.0097 68.2525 71.0097 68.1041 70.9182 68.0125L69.218 66.3124C69.1265 66.2209 68.9781 66.2209 68.888 66.3124L67.7509 67.4495C67.0991 67.0321 66.3683 66.7229 65.5876 66.5537V64.9465C65.5876 64.8175 65.4836 64.7122 65.3533 64.7122H62.9529C62.8211 64.7122 62.7185 64.8175 62.7185 64.9465V66.5537C61.9498 66.7212 61.2172 67.0246 60.5552 67.4495L59.4181 66.3124C59.3266 66.2209 59.1782 66.2209 59.0881 66.3124L57.3879 68.0125C57.2964 68.1041 57.2964 68.2525 57.3879 68.3454L58.5251 69.4797C58.1063 70.1315 57.7984 70.8623 57.6279 71.643H56.0234C55.8917 71.643 55.7891 71.7484 55.7891 71.8773V74.2805C55.7891 74.4095 55.8931 74.5135 56.0234 74.5135H57.6279C57.7998 75.2942 58.1063 76.025 58.5251 76.6768L57.3879 77.8139C57.2964 77.9054 57.2964 78.0538 57.3879 78.1467L59.0881 79.844C59.1796 79.9356 59.328 79.9356 59.4181 79.844L60.5552 78.7069C61.207 79.1257 61.9378 79.4336 62.7185 79.6041V81.2086C62.7185 81.3403 62.8225 81.4429 62.9529 81.4429H65.3533C65.485 81.4429 65.5876 81.3389 65.5876 81.2086V79.6041C66.3683 79.4322 67.0991 79.1257 67.7509 78.7069L68.888 79.844C68.9795 79.9356 69.1279 79.9356 69.218 79.844L70.9182 78.1467C71.0097 78.0538 71.0097 77.9054 70.9182 77.8139L69.7811 76.6768C70.1985 76.025 70.5077 75.2942 70.6783 74.5135H72.2827C72.4117 74.5135 72.517 74.4095 72.517 74.2805V71.8773C72.517 71.7484 72.4117 71.643 72.2827 71.643ZM64.151 77.1177C61.9197 77.1177 60.1115 75.3095 60.1115 73.0782C60.1115 70.8484 61.9197 69.0415 64.151 69.0415C66.3808 69.0415 68.1905 70.8498 68.1905 73.0782C68.1905 75.3095 66.3808 77.1177 64.151 77.1177Z" fill="#0AB69F"/>
<path d="M94.2067 80.4902C94.2067 80.9007 93.8711 81.2377 93.4593 81.2377H75.7162C75.3057 81.2377 74.9688 80.9021 74.9688 80.4902C74.9688 80.4084 74.984 80.3335 75.0062 80.2586C75.1033 80.5582 75.3875 80.7745 75.7162 80.7745H93.4606C93.7893 80.7745 94.0736 80.5582 94.1706 80.2586C94.1928 80.3335 94.2067 80.4084 94.2067 80.4902ZM94.2067 71.7858C94.2067 72.1963 93.8711 72.5332 93.4593 72.5332H85.0696C84.6591 72.5332 84.3222 72.1976 84.3222 71.7858C84.3222 71.704 84.3374 71.6291 84.3596 71.5542C84.4567 71.8537 84.741 72.0701 85.0696 72.0701H93.4593C93.7879 72.0701 94.0722 71.8537 94.1693 71.5542C94.1928 71.6291 94.2067 71.704 94.2067 71.7858ZM94.2067 76.1123C94.2067 76.5228 93.8711 76.8598 93.4593 76.8598H78.6519C78.2414 76.8598 77.9044 76.5242 77.9044 76.1123C77.9044 76.0305 77.9197 75.9556 77.9419 75.8808C78.0389 76.1789 78.3232 76.3966 78.6519 76.3966H93.4593C93.7879 76.3966 94.0722 76.1803 94.1693 75.8808C94.1928 75.9556 94.2067 76.0305 94.2067 76.1123Z" fill="#FD5426"/>
<path d="M94.1631 80.2586C94.114 80.4083 94.019 80.5388 93.8915 80.6314C93.764 80.724 93.6106 80.7741 93.4531 80.7745H75.71C75.3814 80.7745 75.0971 80.5582 75 80.2586C75.0971 79.9591 75.3814 79.7428 75.71 79.7428H93.4545C93.7831 79.7428 94.066 79.9605 94.1631 80.2586ZM94.1631 71.5542C94.114 71.7039 94.019 71.8343 93.8915 71.927C93.764 72.0196 93.6106 72.0696 93.4531 72.07H85.0634C84.7348 72.07 84.4505 71.8537 84.3534 71.5542C84.4505 71.256 84.7348 71.0383 85.0634 71.0383H93.4531C93.6105 71.0391 93.7638 71.0893 93.8912 71.1819C94.0186 71.2744 94.1137 71.4047 94.1631 71.5542ZM94.1631 75.8808C94.066 76.1789 93.7817 76.3966 93.4531 76.3966H78.6457C78.317 76.3966 78.0328 76.1803 77.9357 75.8808C78.0328 75.5812 78.317 75.3649 78.6457 75.3649H93.4531C93.7831 75.3649 94.066 75.5812 94.1631 75.8808Z" fill="#FE7D43"/>
<path d="M64.6571 51.7714V52.473C64.6568 52.556 64.6236 52.6356 64.5649 52.6942C64.5062 52.7529 64.4267 52.7861 64.3437 52.7864H56.1025C56.0195 52.7861 55.94 52.7529 55.8813 52.6942C55.8226 52.6356 55.7894 52.556 55.7891 52.473V51.7714C55.7891 51.9502 55.9305 52.0931 56.1025 52.0931H64.3437C64.5157 52.0917 64.6571 51.9502 64.6571 51.7714ZM70.7018 59.2652V59.9669C70.7018 60.1458 70.5604 60.2886 70.3884 60.2886H56.1025C55.9305 60.2886 55.7891 60.1471 55.7891 59.9669V59.2652C55.7891 59.4441 55.9305 59.5869 56.1025 59.5869H70.3871C70.559 59.5855 70.7018 59.4441 70.7018 59.2652Z" fill="#D5E3F4"/>
<path d="M64.6571 50.0379V51.7713C64.6571 51.9502 64.5157 52.093 64.3437 52.093H56.1025C55.9305 52.093 55.7891 51.9516 55.7891 51.7713V50.0379C55.7894 49.9549 55.8226 49.8754 55.8813 49.8167C55.94 49.758 56.0195 49.7249 56.1025 49.7245H64.3437C64.4267 49.7249 64.5062 49.758 64.5649 49.8167C64.6236 49.8754 64.6568 49.9549 64.6571 50.0379ZM70.7018 57.5317V59.2651C70.7018 59.444 70.5604 59.5868 70.3884 59.5868H56.1025C55.9305 59.5868 55.7891 59.4454 55.7891 59.2651V57.5317C55.7894 57.4487 55.8226 57.3692 55.8813 57.3105C55.94 57.2518 56.0195 57.2187 56.1025 57.2183H70.3871C70.559 57.2169 70.7018 57.3598 70.7018 57.5317Z" fill="#E4ECF4"/>
<path d="M93.6962 66.4816V67.1014C93.6962 67.2956 93.5395 67.4523 93.3454 67.4523H85.179C84.9848 67.4523 84.8281 67.2956 84.8281 67.1014V66.4816C84.8281 66.6757 84.9848 66.8324 85.179 66.8324H93.3454C93.5395 66.8324 93.6962 66.6757 93.6962 66.4816Z" fill="#0AB69F"/>
<path d="M93.6962 64.7412V66.4816C93.6962 66.6757 93.5395 66.8324 93.3454 66.8324H85.179C84.9848 66.8324 84.8281 66.6757 84.8281 66.4816V64.7412C84.8281 64.5471 84.9848 64.3821 85.179 64.3821H93.3454C93.5395 64.3821 93.6962 64.5471 93.6962 64.7412Z" fill="#0ED2B3"/>
<defs>
<filter id="filter0_d_2030_7438" x="0.666667" y="0.571429" width="146.667" height="146.667" filterUnits="userSpaceOnUse" color-interpolation-filters="sRGB">
<feFlood flood-opacity="0" result="BackgroundImageFix"/>
<feColorMatrix in="SourceAlpha" type="matrix" values="0 0 0 0 0 0 0 0 0 0 0 0 0 0 0 0 0 0 127 0" result="hardAlpha"/>
<feOffset dy="1.90476"/>
<feGaussianBlur stdDeviation="6.66667"/>
<feComposite in2="hardAlpha" operator="out"/>
<feColorMatrix type="matrix" values="0 0 0 0 0.695898 0 0 0 0 0.695898 0 0 0 0 0.695898 0 0 0 0.25 0"/>
<feBlend mode="normal" in2="BackgroundImageFix" result="effect1_dropShadow_2030_7438"/>
<feBlend mode="normal" in="SourceGraphic" in2="effect1_dropShadow_2030_7438" result="shape"/>
</filter>
</defs>
</svg>
