<svg width="148" height="148" viewBox="0 0 148 148" fill="none" xmlns="http://www.w3.org/2000/svg">
<g filter="url(#filter0_d_2030_2225)">
<circle cx="74" cy="72" r="60" fill="white"/>
</g>
<g clip-path="url(#clip0_2030_2225)">
<path d="M74.5 108C94.1061 108 110 92.1061 110 72.5C110 52.8939 94.1061 37 74.5 37C54.8939 37 39 52.8939 39 72.5C39 92.1061 54.8939 108 74.5 108Z" fill="#333333"/>
<path d="M73.5275 56.3823L82.8201 65.6415L61.3789 92.879L77.2299 107.897C95.5604 106.503 110 91.1875 110 72.5C110 72.042 109.988 71.5866 109.971 71.1327L83.5885 44.7501L73.5275 56.3823Z" fill="#1A1A1A"/>
<path d="M65.5128 95.1774C64.0889 95.1218 61.9619 93.5694 61.0405 92.5248C58.6828 89.8515 56.7622 86.8893 55.4039 83.5885C53.8577 79.8313 52.9354 75.9348 52.9822 71.8442C53.0157 68.9019 53.5901 66.0798 55.0631 63.5114C56.8843 60.336 59.573 58.2476 63.1664 57.4034C64.5962 57.0675 66.0538 56.9327 67.4828 57.3555C68.9115 57.7782 70.3193 58.2771 71.7212 58.7843C72.9358 59.2237 74.1278 59.5417 75.403 58.9891C76.2409 58.6259 77.1123 58.3399 77.9704 58.0242C79.3759 57.5069 80.7964 57.0274 82.3095 56.9824C85.2359 56.895 87.9354 57.6128 90.3168 59.3646C91.2989 60.0871 92.1244 60.9649 92.8093 61.9933C92.7151 62.0643 92.643 62.1231 92.5666 62.1756C91.541 62.8808 90.6327 63.7131 89.847 64.6791C87.7613 67.243 87.0375 70.1696 87.5298 73.4151C87.8733 75.6796 88.8491 77.6345 90.441 79.2822C91.414 80.2892 93.0475 81.3426 94.3047 81.953C94.0856 82.4725 93.656 83.3107 93.4473 83.8351C92.5568 86.0729 91.3582 88.1387 89.9479 90.0871C88.945 91.4725 87.9358 92.8464 86.5656 93.9103C85.3118 94.8837 83.9242 95.3703 82.3251 95.2593C81.107 95.1747 79.9795 94.7942 78.8882 94.289C76.5034 93.1849 74.0557 92.9645 71.5403 93.7519C70.913 93.9483 70.3211 94.2564 69.6956 94.4597C68.7024 94.7824 66.5565 95.2182 65.5128 95.1774Z" fill="white"/>
<path d="M90.4411 79.2822C88.8491 77.6344 87.8733 75.6796 87.5299 73.4151C87.0377 70.1696 87.7615 67.243 89.8472 64.6791C90.6329 63.7131 91.5412 62.8808 92.5668 62.1756C92.6432 62.1231 92.7152 62.0643 92.8093 61.9933C92.1244 60.9649 91.2989 60.0871 90.3168 59.3646C87.9354 57.6129 85.2358 56.8951 82.3095 56.9824C80.7966 57.0276 79.3759 57.507 77.9705 58.0242C77.1124 58.34 76.2408 58.626 75.4031 58.9891C74.7807 59.2588 74.1783 59.3202 73.5832 59.2623V93.3327C75.3859 93.1531 77.1538 93.4861 78.8882 94.289C79.9795 94.7943 81.1072 95.1747 82.3252 95.2593C83.9243 95.3703 85.312 94.8836 86.5656 93.9103C87.9358 92.8464 88.9451 91.4726 89.948 90.0871C91.3583 88.1388 92.5568 86.073 93.4474 83.8351C93.6559 83.3109 94.0857 82.4726 94.3048 81.953C93.0476 81.3426 91.414 80.2892 90.4411 79.2822ZM83.5894 44.7501C83.5833 45.5526 83.6749 46.3702 83.5535 47.1548C83.1035 50.0631 81.7383 52.4887 79.4398 54.3368C77.7361 55.7066 75.8079 56.5241 73.5285 56.3823C73.399 55.504 73.4278 54.6324 73.6171 53.7792C74.2941 50.7277 75.9173 48.2985 78.5238 46.5646C79.869 45.6698 81.3452 45.0589 82.9593 44.8232C83.0366 44.8118 83.4548 44.7501 83.5894 44.7501Z" fill="#CCCCCC"/>
</g>
<defs>
<filter id="filter0_d_2030_2225" x="0.666667" y="0.571429" width="146.667" height="146.667" filterUnits="userSpaceOnUse" color-interpolation-filters="sRGB">
<feFlood flood-opacity="0" result="BackgroundImageFix"/>
<feColorMatrix in="SourceAlpha" type="matrix" values="0 0 0 0 0 0 0 0 0 0 0 0 0 0 0 0 0 0 127 0" result="hardAlpha"/>
<feOffset dy="1.90476"/>
<feGaussianBlur stdDeviation="6.66667"/>
<feComposite in2="hardAlpha" operator="out"/>
<feColorMatrix type="matrix" values="0 0 0 0 0.695898 0 0 0 0 0.695898 0 0 0 0 0.695898 0 0 0 0.25 0"/>
<feBlend mode="normal" in2="BackgroundImageFix" result="effect1_dropShadow_2030_2225"/>
<feBlend mode="normal" in="SourceGraphic" in2="effect1_dropShadow_2030_2225" result="shape"/>
</filter>
<clipPath id="clip0_2030_2225">
<rect width="71" height="71" fill="white" transform="translate(39 37)"/>
</clipPath>
</defs>
</svg>
