<svg width="148" height="148" viewBox="0 0 148 148" fill="none" xmlns="http://www.w3.org/2000/svg">
<g filter="url(#filter0_d_2014_933)">
<circle cx="74" cy="72" r="60" fill="white"/>
</g>
<path d="M66.6289 92.0494H82.3671V100.863H66.6289V92.0494Z" fill="#939598"/>
<path d="M80.9803 92.0494V98.0897C80.9803 98.4575 80.8342 98.8102 80.5742 99.0703C80.3141 99.3303 79.9614 99.4764 79.5936 99.4764H66.6289V100.863H82.3671V92.0494H80.9803Z" fill="#808285"/>
<path d="M59.8924 106.39H89.1025C90.1342 106.39 90.8046 105.303 90.342 104.381L89.3441 102.393C89.1134 101.933 88.7594 101.546 88.3216 101.276C87.8838 101.006 87.3796 100.863 86.8652 100.863H62.1297C61.6153 100.863 61.1111 101.006 60.6733 101.276C60.2356 101.546 59.8816 101.933 59.6508 102.393L58.6529 104.381C58.1903 105.303 58.8607 106.39 59.8924 106.39Z" fill="#58595B"/>
<path d="M90.3433 104.381L89.3454 102.393C89.0606 101.826 88.59 101.374 88.0122 101.113L88.9566 102.995C89.4194 103.917 88.7488 105.003 87.7171 105.003H58.5078C58.5084 105.731 59.09 106.39 59.8934 106.39H89.1035C90.1355 106.39 90.8059 105.303 90.3433 104.381Z" fill="#414042"/>
<path d="M44.9102 92.0494H104.087C105.619 92.0494 106.86 90.8078 106.86 89.276V48.7028C106.86 47.1711 105.619 45.9294 104.087 45.9294H44.9102C43.3784 45.9294 42.1367 47.1711 42.1367 48.7028V89.276C42.1367 90.8078 43.3784 92.0494 44.9102 92.0494Z" fill="#58595B"/>
<path d="M105.226 46.1765C105.388 46.5345 105.473 46.9231 105.473 47.3163V87.8895C105.473 89.4213 104.231 90.6629 102.699 90.6629H43.5227C43.1295 90.6628 42.7409 90.5786 42.3828 90.4161C42.818 91.3788 43.7842 92.0497 44.9094 92.0497H104.086C105.618 92.0497 106.86 90.808 106.86 89.2762V48.7028C106.86 47.5779 106.189 46.6113 105.226 46.1765Z" fill="#414042"/>
<path d="M77.1783 89.4415H71.8164C71.5222 89.4415 71.24 89.3246 71.032 89.1166C70.8239 88.9085 70.707 88.6264 70.707 88.3322C70.707 88.0379 70.8239 87.7558 71.032 87.5477C71.24 87.3397 71.5222 87.2228 71.8164 87.2228H77.1783C77.4725 87.2228 77.7547 87.3397 77.9627 87.5477C78.1708 87.7558 78.2877 88.0379 78.2877 88.3322C78.2877 88.6264 78.1708 88.9085 77.9627 89.1166C77.7547 89.3246 77.4725 89.4415 77.1783 89.4415Z" fill="#B2B0AD"/>
<path d="M45.8828 84.4873H103.111C103.479 84.4873 103.831 84.3412 104.091 84.0812C104.351 83.8211 104.497 83.4684 104.497 83.1006V49.8859C104.497 49.5181 104.351 49.1654 104.091 48.9054C103.831 48.6453 103.479 48.4992 103.111 48.4992H45.8828C45.515 48.4992 45.1623 48.6453 44.9023 48.9054C44.6422 49.1654 44.4961 49.5181 44.4961 49.8859V83.1009C44.4961 83.283 44.532 83.4633 44.6017 83.6315C44.6713 83.7997 44.7735 83.9526 44.9023 84.0813C45.031 84.2101 45.1839 84.3122 45.3522 84.3819C45.5204 84.4515 45.7007 84.4874 45.8828 84.4873Z" fill="#478CF7"/>
<path d="M46.1602 75.4662C46.013 75.4662 45.872 75.4077 45.7679 75.3037C45.6639 75.1997 45.6055 75.0586 45.6055 74.9115V58.8256C45.6055 58.6784 45.6639 58.5374 45.7679 58.4333C45.872 58.3293 46.013 58.2709 46.1602 58.2709C46.3073 58.2709 46.4484 58.3293 46.5524 58.4333C46.6564 58.5374 46.7148 58.6784 46.7148 58.8256V74.9115C46.7148 75.0586 46.6564 75.1997 46.5524 75.3037C46.4484 75.4077 46.3073 75.4662 46.1602 75.4662ZM46.1602 57.1615C46.013 57.1615 45.872 57.1031 45.7679 56.999C45.6639 56.895 45.6055 56.7539 45.6055 56.6068V56.4681C45.6055 56.321 45.6639 56.1799 45.7679 56.0759C45.872 55.9719 46.013 55.9135 46.1602 55.9135C46.3073 55.9135 46.4484 55.9719 46.5524 56.0759C46.6564 56.1799 46.7148 56.321 46.7148 56.4681V56.6068C46.7148 56.7539 46.6564 56.895 46.5524 56.999C46.4484 57.1031 46.3073 57.1615 46.1602 57.1615Z" fill="#5E9CF7"/>
<path d="M103.11 48.4992H101.724V80.3272C101.724 80.5093 101.688 80.6896 101.618 80.8578C101.549 81.0261 101.446 81.179 101.318 81.3077C101.189 81.4365 101.036 81.5386 100.868 81.6083C100.699 81.678 100.519 81.7139 100.337 81.7139H44.4961V83.1006C44.4961 83.4684 44.6422 83.8211 44.9023 84.0812C45.1623 84.3412 45.515 84.4873 45.8828 84.4873H103.111C103.479 84.4873 103.831 84.3412 104.091 84.0812C104.351 83.8211 104.497 83.4684 104.497 83.1006V49.8859C104.497 49.7038 104.462 49.5234 104.392 49.3552C104.322 49.1869 104.22 49.034 104.091 48.9053C103.962 48.7765 103.81 48.6744 103.641 48.6047C103.473 48.535 103.293 48.4992 103.11 48.4992Z" fill="#377DE2"/>
<path d="M103.11 48.4992V81.7139C103.11 82.0817 102.964 82.4344 102.704 82.6945C102.444 82.9545 102.092 83.1006 101.724 83.1006H44.4961C44.4961 83.4684 44.6422 83.8211 44.9023 84.0812C45.1623 84.3412 45.515 84.4873 45.8828 84.4873H103.111C103.479 84.4873 103.831 84.3412 104.091 84.0812C104.351 83.8211 104.497 83.4684 104.497 83.1006V49.8859C104.497 49.7038 104.462 49.5234 104.392 49.3552C104.322 49.1869 104.22 49.034 104.091 48.9053C103.962 48.7765 103.81 48.6744 103.641 48.6047C103.473 48.535 103.293 48.4992 103.11 48.4992Z" fill="#2266D3"/>
<path d="M86.7672 68.843H61.1365C60.9894 68.843 60.8483 68.7845 60.7442 68.6805C60.6402 68.5765 60.5818 68.4354 60.5818 68.2883C60.5818 68.1412 60.6402 68.0001 60.7442 67.896C60.8483 67.792 60.9894 67.7336 61.1365 67.7336H86.7672C86.9143 67.7336 87.0554 67.792 87.1594 67.896C87.2634 68.0001 87.3219 68.1412 87.3219 68.2883C87.3219 68.4354 87.2634 68.5765 87.1594 68.6805C87.0554 68.7845 86.9143 68.843 86.7672 68.843ZM58.1023 68.843H50.6016C50.4545 68.843 50.3134 68.7845 50.2093 68.6805C50.1053 68.5765 50.0469 68.4354 50.0469 68.2883C50.0469 68.1412 50.1053 68.0001 50.2093 67.896C50.3134 67.792 50.4545 67.7336 50.6016 67.7336H58.1023C58.2494 67.7336 58.3905 67.792 58.4945 67.896C58.5986 68.0001 58.657 68.1412 58.657 68.2883C58.657 68.4354 58.5986 68.5765 58.4945 68.6805C58.3905 68.7845 58.2494 68.843 58.1023 68.843ZM98.3984 72.383H90.6558C90.5087 72.383 90.3676 72.3245 90.2636 72.2205C90.1596 72.1165 90.1011 71.9754 90.1011 71.8283C90.1011 71.6812 90.1596 71.5401 90.2636 71.4361C90.3676 71.332 90.5087 71.2736 90.6558 71.2736H98.3984C98.5455 71.2736 98.6866 71.332 98.7906 71.4361C98.8947 71.5401 98.9531 71.6812 98.9531 71.8283C98.9531 71.9754 98.8947 72.1165 98.7906 72.2205C98.6866 72.3245 98.5455 72.383 98.3984 72.383ZM88.0438 72.383H53.1298C52.9827 72.383 52.8416 72.3245 52.7376 72.2205C52.6336 72.1165 52.5751 71.9754 52.5751 71.8283C52.5751 71.6812 52.6336 71.5401 52.7376 71.4361C52.8416 71.332 52.9827 71.2736 53.1298 71.2736H88.0438C88.1909 71.2736 88.332 71.332 88.436 71.4361C88.54 71.5401 88.5985 71.6812 88.5985 71.8283C88.5985 71.9754 88.54 72.1165 88.436 72.2205C88.332 72.3245 88.1909 72.383 88.0438 72.383ZM98.3984 75.923H62.4453C62.2981 75.923 62.1571 75.8645 62.053 75.7605C61.949 75.6565 61.8906 75.5154 61.8906 75.3683C61.8906 75.2212 61.949 75.0801 62.053 74.9761C62.1571 74.8721 62.2981 74.8136 62.4453 74.8136H98.3987C98.5458 74.8136 98.6869 74.8721 98.7909 74.9762C98.8949 75.0802 98.9533 75.2213 98.9533 75.3684C98.9532 75.5156 98.8947 75.6566 98.7907 75.7606C98.6866 75.8646 98.5455 75.923 98.3984 75.923ZM59.3667 75.923H53.1298C52.9827 75.923 52.8416 75.8645 52.7376 75.7605C52.6336 75.6565 52.5751 75.5154 52.5751 75.3683C52.5751 75.2212 52.6336 75.0801 52.7376 74.9761C52.8416 74.8721 52.9827 74.8136 53.1298 74.8136H59.3665C59.4393 74.8136 59.5114 74.8279 59.5787 74.8558C59.646 74.8836 59.7072 74.9245 59.7587 74.976C59.8102 75.0275 59.8511 75.0886 59.879 75.1559C59.9069 75.2232 59.9213 75.2953 59.9213 75.3682C59.9213 75.441 59.907 75.5131 59.8791 75.5804C59.8513 75.6477 59.8104 75.7089 59.7589 75.7604C59.7074 75.8119 59.6463 75.8528 59.579 75.8807C59.5117 75.9086 59.4396 75.923 59.3667 75.923ZM86.7672 79.463H59.3667C59.2196 79.463 59.0785 79.4046 58.9745 79.3005C58.8705 79.1965 58.812 79.0554 58.812 78.9083C58.812 78.7612 58.8705 78.6201 58.9745 78.5161C59.0785 78.4121 59.2196 78.3536 59.3667 78.3536H86.7675C86.9146 78.3537 87.0556 78.4121 87.1596 78.5162C87.2636 78.6202 87.3221 78.7613 87.322 78.9085C87.322 79.0556 87.2635 79.1966 87.1595 79.3006C87.0554 79.4046 86.9143 79.463 86.7672 79.463ZM57.3438 79.463H50.6016C50.4545 79.463 50.3134 79.4046 50.2093 79.3005C50.1053 79.1965 50.0469 79.0554 50.0469 78.9083C50.0469 78.7612 50.1053 78.6201 50.2093 78.5161C50.3134 78.4121 50.4545 78.3536 50.6016 78.3536H57.3441C57.4169 78.3536 57.489 78.368 57.5563 78.3959C57.6236 78.4238 57.6848 78.4647 57.7362 78.5162C57.7877 78.5677 57.8286 78.6289 57.8564 78.6962C57.8843 78.7635 57.8986 78.8356 57.8986 78.9085C57.8986 78.9813 57.8842 79.0534 57.8563 79.1207C57.8284 79.188 57.7876 79.2491 57.7361 79.3006C57.6845 79.3521 57.6234 79.393 57.5561 79.4208C57.4888 79.4487 57.4166 79.463 57.3438 79.463Z" fill="#FFC91D"/>
<path d="M56.7485 61.5882C56.6608 61.5882 56.5718 61.5674 56.4889 61.5233L50.3418 58.2581C50.2528 58.211 50.1783 58.1405 50.1263 58.0542C50.0743 57.9679 50.0469 57.8691 50.0469 57.7683C50.0469 57.6676 50.0743 57.5688 50.1263 57.4825C50.1783 57.3962 50.2528 57.3257 50.3418 57.2785L56.4889 54.0136C56.5532 53.9795 56.6236 53.9583 56.6961 53.9514C56.7686 53.9444 56.8418 53.9518 56.9114 53.9732C56.9811 53.9945 57.0458 54.0293 57.102 54.0757C57.1582 54.122 57.2047 54.179 57.2388 54.2433C57.273 54.3076 57.2941 54.378 57.3011 54.4505C57.308 54.523 57.3006 54.5962 57.2793 54.6658C57.258 54.7355 57.2232 54.8002 57.1768 54.8564C57.1305 54.9126 57.0735 54.9591 57.0092 54.9932L51.7843 57.7683L57.0089 60.5434C57.0733 60.5775 57.1303 60.624 57.1767 60.6802C57.223 60.7364 57.2579 60.8011 57.2792 60.8708C57.3006 60.9404 57.3079 61.0136 57.301 61.0861C57.294 61.1586 57.2728 61.2291 57.2385 61.2934C57.1914 61.3824 57.1209 61.457 57.0345 61.5089C56.9482 61.5609 56.8493 61.5883 56.7485 61.5882ZM63.8637 61.5882C63.7398 61.5884 63.6194 61.5471 63.5217 61.4709C63.424 61.3947 63.3547 61.288 63.3247 61.1678C63.2947 61.0476 63.3058 60.9208 63.3562 60.8076C63.4067 60.6945 63.4936 60.6015 63.603 60.5434L68.8276 57.7683L63.603 54.9932C63.5387 54.9591 63.4817 54.9126 63.4353 54.8565C63.3889 54.8003 63.354 54.7355 63.3327 54.6659C63.3114 54.5962 63.304 54.523 63.311 54.4505C63.318 54.378 63.3392 54.3076 63.3734 54.2433C63.4075 54.1789 63.4539 54.1219 63.5101 54.0755C63.5663 54.0291 63.631 53.9942 63.7007 53.9729C63.7704 53.9515 63.8436 53.9441 63.9161 53.9511C63.9886 53.9581 64.059 53.9794 64.1233 54.0136L70.2704 57.2785C70.3593 57.3258 70.4336 57.3963 70.4855 57.4826C70.5373 57.5689 70.5647 57.6677 70.5647 57.7683C70.5647 57.869 70.5373 57.9678 70.4855 58.054C70.4336 58.1403 70.3593 58.2109 70.2704 58.2581L64.1233 61.523C64.0407 61.5674 63.9517 61.5882 63.8637 61.5882ZM58.3501 63.402C58.2601 63.402 58.1715 63.38 58.0918 63.338C58.0122 63.296 57.944 63.2353 57.8931 63.1611C57.8422 63.0868 57.8101 63.0013 57.7996 62.9119C57.7891 62.8225 57.8005 62.7319 57.8329 62.6479L61.7448 52.4902C61.7702 52.4211 61.809 52.3577 61.8591 52.3038C61.9091 52.2498 61.9695 52.2064 62.0365 52.1759C62.1035 52.1455 62.176 52.1288 62.2495 52.1266C62.3231 52.1245 62.3964 52.137 62.4651 52.1635C62.5338 52.19 62.5965 52.2298 62.6496 52.2808C62.7027 52.3318 62.7452 52.3928 62.7745 52.4603C62.8038 52.5278 62.8193 52.6005 62.8203 52.6741C62.8212 52.7477 62.8075 52.8208 62.7799 52.889L58.8677 63.0465C58.8274 63.1511 58.7564 63.241 58.6641 63.3045C58.5717 63.368 58.4622 63.402 58.3501 63.402Z" fill="white"/>
<path d="M87.4631 57.5126C81.4107 57.5126 76.5039 55.9995 76.5039 54.1329V60.2215C76.5039 62.088 81.4104 63.6012 87.4631 63.6012C93.5156 63.6012 98.4224 62.088 98.4224 60.2215V54.1329C98.4224 55.9995 93.5159 57.5126 87.4631 57.5126Z" fill="#A54AF4"/>
<path d="M97.3505 55.5915V59.1506C97.3505 61.0171 92.444 62.5303 86.3912 62.5303C82.1104 62.5303 78.4054 61.7729 76.6016 60.6696C77.3124 62.3242 81.9022 63.6014 87.4621 63.6014C93.5145 63.6014 98.4213 62.0882 98.4213 60.2217V54.1332C98.4213 54.6554 98.0366 55.1499 97.3505 55.5915Z" fill="#893ADD"/>
<path d="M79.7748 60.1956C80.3128 60.1956 80.7488 59.7595 80.7488 59.2216C80.7488 58.6836 80.3128 58.2476 79.7748 58.2476C79.2369 58.2476 78.8008 58.6836 78.8008 59.2216C78.8008 59.7595 79.2369 60.1956 79.7748 60.1956Z" fill="#FFC91D"/>
<path d="M83.3998 61.1478C83.9378 61.1478 84.3738 60.7117 84.3738 60.1737C84.3738 59.6358 83.9378 59.1997 83.3998 59.1997C82.8619 59.1997 82.4258 59.6358 82.4258 60.1737C82.4258 60.7117 82.8619 61.1478 83.3998 61.1478Z" fill="#FFC91D"/>
<path d="M87.4631 51.4241C81.4107 51.4241 76.5039 49.9109 76.5039 48.0444V54.1329C76.5039 55.9994 81.4104 57.5126 87.4631 57.5126C93.5156 57.5126 98.4224 55.9994 98.4224 54.1329V48.0444C98.4224 49.9109 93.5159 51.4241 87.4631 51.4241Z" fill="#A54AF4"/>
<path d="M97.3505 49.5029V53.0621C97.3505 54.9286 92.444 56.4418 86.3912 56.4418C82.1104 56.4418 78.4054 55.6844 76.6016 54.5808C77.3124 56.2354 81.9022 57.5126 87.4621 57.5126C93.5145 57.5126 98.4213 55.9994 98.4213 54.1329V48.0444C98.4213 48.5669 98.0366 49.0614 97.3505 49.5029Z" fill="#893ADD"/>
<path d="M79.7748 54.1071C80.3128 54.1071 80.7488 53.671 80.7488 53.1331C80.7488 52.5951 80.3128 52.1591 79.7748 52.1591C79.2369 52.1591 78.8008 52.5951 78.8008 53.1331C78.8008 53.671 79.2369 54.1071 79.7748 54.1071Z" fill="#FFC91D"/>
<path d="M83.3998 55.0593C83.9378 55.0593 84.3738 54.6232 84.3738 54.0852C84.3738 53.5473 83.9378 53.1112 83.3998 53.1112C82.8619 53.1112 82.4258 53.5473 82.4258 54.0852C82.4258 54.6232 82.8619 55.0593 83.3998 55.0593Z" fill="#FFC91D"/>
<path d="M87.4631 45.3694C81.4107 45.3694 76.5039 43.8562 76.5039 41.9897V48.0444C76.5039 49.9109 81.4104 51.4241 87.4631 51.4241C93.5156 51.4241 98.4224 49.9109 98.4224 48.0444V41.9897C98.4224 43.8562 93.5159 45.3694 87.4631 45.3694Z" fill="#A54AF4"/>
<path d="M97.3505 43.4483V46.9736C97.3505 48.8401 92.444 50.3533 86.3912 50.3533C82.1104 50.3533 78.4054 49.5961 76.6016 48.4926C77.3124 50.1472 81.9022 51.4244 87.4621 51.4244C93.5145 51.4244 98.4213 49.9112 98.4213 48.0447V41.99C98.4213 42.5122 98.0366 43.0067 97.3505 43.4483Z" fill="#893ADD"/>
<path d="M79.7748 48.0189C80.3128 48.0189 80.7488 47.5828 80.7488 47.0448C80.7488 46.5069 80.3128 46.0708 79.7748 46.0708C79.2369 46.0708 78.8008 46.5069 78.8008 47.0448C78.8008 47.5828 79.2369 48.0189 79.7748 48.0189Z" fill="#FFC91D"/>
<path d="M83.3998 48.9707C83.9378 48.9707 84.3738 48.5346 84.3738 47.9967C84.3738 47.4587 83.9378 47.0226 83.3998 47.0226C82.8619 47.0226 82.4258 47.4587 82.4258 47.9967C82.4258 48.5346 82.8619 48.9707 83.3998 48.9707Z" fill="#FFC91D"/>
<path d="M87.4631 45.3694C93.5158 45.3694 98.4224 43.8563 98.4224 41.9897C98.4224 40.1231 93.5158 38.61 87.4631 38.61C81.4105 38.61 76.5039 40.1231 76.5039 41.9897C76.5039 43.8563 81.4105 45.3694 87.4631 45.3694Z" fill="#893ADD"/>
<path d="M97.2515 40.4709C97.3146 40.6119 97.3482 40.7644 97.3502 40.9189C97.3502 42.7854 92.4437 44.2986 86.391 44.2986C82.1102 44.2986 78.4051 43.5411 76.6016 42.4376C77.3124 44.0922 81.9022 45.3694 87.4621 45.3694C93.5145 45.3694 98.4213 43.8562 98.4213 41.9897C98.421 41.4433 97.9981 40.9277 97.2515 40.4709Z" fill="#6C2BC1"/>
<defs>
<filter id="filter0_d_2014_933" x="0.666667" y="0.571429" width="146.667" height="146.667" filterUnits="userSpaceOnUse" color-interpolation-filters="sRGB">
<feFlood flood-opacity="0" result="BackgroundImageFix"/>
<feColorMatrix in="SourceAlpha" type="matrix" values="0 0 0 0 0 0 0 0 0 0 0 0 0 0 0 0 0 0 127 0" result="hardAlpha"/>
<feOffset dy="1.90476"/>
<feGaussianBlur stdDeviation="6.66667"/>
<feComposite in2="hardAlpha" operator="out"/>
<feColorMatrix type="matrix" values="0 0 0 0 0.695898 0 0 0 0 0.695898 0 0 0 0 0.695898 0 0 0 0.25 0"/>
<feBlend mode="normal" in2="BackgroundImageFix" result="effect1_dropShadow_2014_933"/>
<feBlend mode="normal" in="SourceGraphic" in2="effect1_dropShadow_2014_933" result="shape"/>
</filter>
</defs>
</svg>
