<svg width="148" height="148" viewBox="0 0 148 148" fill="none" xmlns="http://www.w3.org/2000/svg">
<g filter="url(#filter0_d_2030_287)">
<circle cx="74" cy="72" r="60" fill="white"/>
</g>
<path d="M106.5 77.8156V67.1844H99.4664C98.8184 64.1309 97.6124 61.2232 95.9092 58.6073L100.887 53.6295L93.3681 46.1124L88.3909 51.0891C85.7751 49.3854 82.8674 48.1791 79.8138 47.5307V40.4979H69.1827V47.5319C66.1291 48.1798 63.2214 49.3857 60.6055 51.0891L55.6278 46.1124L48.1106 53.6295L53.0873 58.6073C51.3837 61.2231 50.1773 64.1308 49.529 67.1844H42.4961V77.8156H49.5301C50.1781 80.8691 51.384 83.7768 53.0873 86.3927L48.1095 91.3699L55.6278 98.8876L60.6055 93.9098C63.2213 95.6136 66.129 96.8199 69.1827 97.4682V104.502H79.8138V97.4682C82.8673 96.8201 85.7751 95.6142 88.3909 93.9109L93.3681 98.8887L100.886 91.371L95.9092 86.3927C97.6128 83.7769 98.8191 80.8692 99.4675 77.8156H106.5Z" fill="#1DAEF1"/>
<path d="M74.4966 87.395C82.7229 87.395 89.3916 80.7263 89.3916 72.5C89.3916 64.2737 82.7229 57.605 74.4966 57.605C66.2703 57.605 59.6016 64.2737 59.6016 72.5C59.6016 80.7263 66.2703 87.395 74.4966 87.395Z" fill="#CEF4FF"/>
<path d="M81.6151 79.6167C80.1472 81.085 78.2605 82.0627 76.2144 82.4153C74.1683 82.7679 72.0632 82.4781 70.1885 81.5858L66.6274 85.1469C64.6917 83.9405 63.0579 82.3068 61.8516 80.371L65.4127 76.8099C64.5196 74.9351 64.2292 72.8298 64.5814 70.7832C64.9336 68.7367 65.9111 66.8495 67.3795 65.3811C68.8479 63.9127 70.7351 62.9352 72.7816 62.583C74.8282 62.2308 76.9336 62.5212 78.8084 63.4142L72.1077 70.1093V74.8907H76.8819L83.5842 68.1901C84.4742 70.0653 84.7627 72.1698 84.4102 74.2154C84.0577 76.2609 83.0814 78.1475 81.6151 79.6167Z" fill="#FF4155"/>
<defs>
<filter id="filter0_d_2030_287" x="0.666667" y="0.571429" width="146.667" height="146.667" filterUnits="userSpaceOnUse" color-interpolation-filters="sRGB">
<feFlood flood-opacity="0" result="BackgroundImageFix"/>
<feColorMatrix in="SourceAlpha" type="matrix" values="0 0 0 0 0 0 0 0 0 0 0 0 0 0 0 0 0 0 127 0" result="hardAlpha"/>
<feOffset dy="1.90476"/>
<feGaussianBlur stdDeviation="6.66667"/>
<feComposite in2="hardAlpha" operator="out"/>
<feColorMatrix type="matrix" values="0 0 0 0 0.695898 0 0 0 0 0.695898 0 0 0 0 0.695898 0 0 0 0.25 0"/>
<feBlend mode="normal" in2="BackgroundImageFix" result="effect1_dropShadow_2030_287"/>
<feBlend mode="normal" in="SourceGraphic" in2="effect1_dropShadow_2030_287" result="shape"/>
</filter>
</defs>
</svg>
