<svg width="148" height="148" viewBox="0 0 148 148" fill="none" xmlns="http://www.w3.org/2000/svg">
<g filter="url(#filter0_d_3238_2786)">
<circle cx="74" cy="72" r="60" fill="white"/>
</g>
<g clip-path="url(#clip0_3238_2786)">
<path d="M59.7148 97.2126H74.8036V106.755H59.7148V97.2126Z" fill="#ACBADF"/>
<path d="M77.9815 107.492H56.5346C56.4379 107.492 56.3421 107.473 56.2527 107.436C56.1633 107.399 56.0821 107.344 56.0137 107.276C55.9453 107.208 55.891 107.126 55.854 107.037C55.817 106.948 55.798 106.852 55.798 106.755C55.798 106.658 55.817 106.563 55.854 106.473C55.891 106.384 55.9453 106.303 56.0137 106.234C56.0821 106.166 56.1633 106.112 56.2527 106.075C56.3421 106.038 56.4379 106.018 56.5346 106.019H77.9815C78.3886 106.019 78.7181 106.348 78.7181 106.755C78.7181 107.162 78.3886 107.492 77.9815 107.492ZM94.6412 61.558V95.8682C94.6412 97.4798 93.3348 98.7862 91.7232 98.7862H42.7931C41.1814 98.7862 39.875 97.4798 39.875 95.8682V61.558C39.875 59.9463 41.1814 58.6399 42.7931 58.6399H91.7232C93.3348 58.6398 94.6412 59.9463 94.6412 61.558Z" fill="#474747"/>
<path opacity="0.12" d="M94.6412 61.5599V95.8704C94.6412 97.4784 93.3362 98.7835 91.7223 98.7835H42.7939C41.18 98.7835 39.875 97.4784 39.875 95.8704V92.3164C43.1551 93.231 46.616 93.7204 50.1932 93.7204C70.2819 93.7204 86.7759 78.2984 88.4597 58.6409H91.7223C93.3362 58.641 94.6412 59.946 94.6412 61.5599Z" fill="black"/>
<path d="M43.7656 62.2603H90.7502V92.3441H43.7656V62.2603Z" fill="#E8F1F8"/>
<path opacity="0.12" d="M90.7482 62.259V92.3457H43.7656V84.3637C47.9488 86.8923 52.8486 88.3431 58.0922 88.3431C72.8616 88.3431 84.9394 76.8072 85.8016 62.2592H90.7482V62.259Z" fill="black"/>
<path d="M68.6246 69.7523H49.1194C48.7123 69.7523 48.3828 69.4224 48.3828 69.0157C48.3828 68.609 48.7123 68.2791 49.1194 68.2791H68.6246C69.0317 68.2791 69.3612 68.609 69.3612 69.0157C69.3612 69.4224 69.0317 69.7523 68.6246 69.7523ZM85.3938 75.277H49.1194C49.0227 75.277 48.9269 75.258 48.8375 75.221C48.7481 75.1839 48.6669 75.1297 48.5985 75.0613C48.5301 74.9929 48.4759 74.9117 48.4388 74.8223C48.4018 74.7329 48.3828 74.6371 48.3828 74.5404C48.3828 74.4436 48.4018 74.3478 48.4388 74.2584C48.4758 74.169 48.5301 74.0878 48.5985 74.0194C48.6669 73.951 48.7481 73.8967 48.8375 73.8597C48.9269 73.8227 49.0227 73.8037 49.1194 73.8037H85.3939C85.5868 73.8075 85.7705 73.8868 85.9056 74.0245C86.0407 74.1623 86.1163 74.3475 86.1163 74.5404C86.1163 74.7334 86.0406 74.9186 85.9055 75.0563C85.7704 75.194 85.5867 75.2733 85.3938 75.277ZM85.3938 80.8013H49.1194C49.0227 80.8013 48.9269 80.7822 48.8375 80.7452C48.7481 80.7082 48.6669 80.654 48.5985 80.5856C48.5301 80.5171 48.4759 80.4359 48.4388 80.3466C48.4018 80.2572 48.3828 80.1614 48.3828 80.0646C48.3828 79.9679 48.4018 79.8721 48.4388 79.7827C48.4758 79.6933 48.5301 79.6121 48.5985 79.5437C48.6669 79.4753 48.7481 79.421 48.8375 79.384C48.9269 79.347 49.0227 79.328 49.1194 79.328H85.3939C85.5868 79.3318 85.7705 79.411 85.9056 79.5488C86.0407 79.6865 86.1163 79.8718 86.1163 80.0647C86.1163 80.2576 86.0406 80.4429 85.9055 80.5806C85.7704 80.7183 85.5867 80.7975 85.3938 80.8013ZM69.5619 86.3259H49.1194C49.0227 86.326 48.9269 86.3069 48.8375 86.2699C48.7481 86.2329 48.6669 86.1786 48.5985 86.1102C48.5301 86.0418 48.4759 85.9606 48.4388 85.8712C48.4018 85.7819 48.3828 85.6861 48.3828 85.5893C48.3828 85.4926 48.4018 85.3968 48.4388 85.3074C48.4758 85.218 48.5301 85.1368 48.5985 85.0684C48.6669 85 48.7481 84.9457 48.8375 84.9087C48.9269 84.8717 49.0227 84.8527 49.1194 84.8527H69.562C69.9692 84.8527 70.2987 85.1826 70.2987 85.5893C70.2987 85.996 69.9692 86.3259 69.5619 86.3259Z" fill="#E77C6A"/>
<path d="M109.122 49.2924C109.122 55.8005 103.846 61.0764 97.3376 61.0764H82.6736L75.1289 66.7787C73.8719 67.7288 72.0703 66.8321 72.0703 65.2565V49.2924C72.0703 42.7842 77.3462 37.5083 83.8544 37.5083H97.3379C103.846 37.5083 109.122 42.7842 109.122 49.2924Z" fill="#0E9C4A"/>
<path opacity="0.1" d="M109.122 49.2886V49.296C109.122 55.8021 103.848 61.0764 97.3416 61.0764H82.6757L75.1291 66.7812C73.8722 67.7314 72.0703 66.8347 72.0703 65.2591V56.5174C74.4129 57.2611 76.8969 57.6627 79.4851 57.6627C90.968 57.6627 100.599 49.7571 103.239 39.0923C106.757 41.1301 109.122 44.9305 109.122 49.2886Z" fill="black"/>
<path d="M85.7923 51.5676L82.8802 49.2881C82.5038 48.9937 82.5031 48.4226 82.8802 48.1277L85.7923 45.8482C86.1125 45.5964 86.575 45.6543 86.8261 45.9744C86.8858 46.0505 86.9298 46.1377 86.9558 46.2309C86.9818 46.3241 86.9891 46.4215 86.9774 46.5175C86.9657 46.6135 86.9352 46.7063 86.8876 46.7906C86.8401 46.8748 86.7764 46.9488 86.7002 47.0085L84.529 48.7077L86.7002 50.407C86.7764 50.4666 86.84 50.5407 86.8876 50.6249C86.9352 50.7092 86.9657 50.802 86.9773 50.898C86.989 50.994 86.9817 51.0914 86.9557 51.1846C86.9298 51.2778 86.8857 51.3649 86.8261 51.4411C86.7058 51.595 86.5293 51.6947 86.3354 51.7184C86.1415 51.7422 85.9462 51.6879 85.7923 51.5676ZM94.3661 51.4412C94.3064 51.3651 94.2624 51.2779 94.2364 51.1847C94.2104 51.0915 94.2031 50.9941 94.2148 50.8981C94.2265 50.8021 94.257 50.7093 94.3045 50.6251C94.3521 50.5408 94.4158 50.4668 94.492 50.4072L96.6632 48.7079L94.492 47.0086C94.4158 46.949 94.3521 46.8749 94.3046 46.7907C94.257 46.7065 94.2265 46.6137 94.2148 46.5176C94.2032 46.4216 94.2105 46.3242 94.2364 46.231C94.2624 46.1378 94.3065 46.0507 94.3661 45.9745C94.4256 45.8982 94.4996 45.8344 94.5838 45.7868C94.668 45.7392 94.7608 45.7086 94.8568 45.6969C94.9528 45.6852 95.0503 45.6925 95.1434 45.7185C95.2366 45.7445 95.3238 45.7886 95.3999 45.8483L98.312 48.1278C98.6884 48.4222 98.6891 48.9933 98.312 49.2882L95.3999 51.5677C95.246 51.688 95.0507 51.7423 94.8568 51.7186C94.6629 51.6949 94.4864 51.5951 94.3661 51.4412ZM87.7295 55.7159C87.5488 55.6418 87.4049 55.4991 87.3294 55.3189C87.2538 55.1388 87.2529 54.9361 87.3267 54.7552L92.5021 42.1031C92.656 41.7258 93.0891 41.5488 93.4632 41.6998C93.6439 41.7739 93.7879 41.9167 93.8634 42.0968C93.9389 42.277 93.9399 42.4797 93.866 42.6605L88.6907 55.3127C88.6541 55.4023 88.6002 55.4838 88.532 55.5526C88.4639 55.6213 88.3829 55.676 88.2937 55.7135C88.2044 55.7509 88.1086 55.7704 88.0119 55.7708C87.9151 55.7713 87.8191 55.7526 87.7295 55.7159Z" fill="#E8F1F8"/>
</g>
<defs>
<filter id="filter0_d_3238_2786" x="0.666667" y="0.571429" width="146.667" height="146.667" filterUnits="userSpaceOnUse" color-interpolation-filters="sRGB">
<feFlood flood-opacity="0" result="BackgroundImageFix"/>
<feColorMatrix in="SourceAlpha" type="matrix" values="0 0 0 0 0 0 0 0 0 0 0 0 0 0 0 0 0 0 127 0" result="hardAlpha"/>
<feOffset dy="1.90476"/>
<feGaussianBlur stdDeviation="6.66667"/>
<feComposite in2="hardAlpha" operator="out"/>
<feColorMatrix type="matrix" values="0 0 0 0 0.695898 0 0 0 0 0.695898 0 0 0 0 0.695898 0 0 0 0.25 0"/>
<feBlend mode="normal" in2="BackgroundImageFix" result="effect1_dropShadow_3238_2786"/>
<feBlend mode="normal" in="SourceGraphic" in2="effect1_dropShadow_3238_2786" result="shape"/>
</filter>
<clipPath id="clip0_3238_2786">
<rect width="71" height="71" fill="white" transform="translate(39 37)"/>
</clipPath>
</defs>
</svg>
