<svg width="148" height="148" viewBox="0 0 148 148" fill="none" xmlns="http://www.w3.org/2000/svg">
<g filter="url(#filter0_d_1273_231)">
<circle cx="74" cy="72" r="60" fill="white"/>
</g>
<path d="M91.5187 67.9441H88.5336V48.0324H91.5187C92.2966 48.0324 92.9272 48.663 92.9272 49.4409V66.5357C92.9272 67.3136 92.2966 67.9441 91.5187 67.9441ZM48.596 56.4075H51.5811V48.0324H48.596C47.818 48.0324 47.1875 48.663 47.1875 49.4409V54.999C47.1875 55.7768 47.8182 56.4075 48.596 56.4075ZM48.596 67.9441H51.5811V59.5691H48.596C47.818 59.5691 47.1875 60.1997 47.1875 60.9776V66.5358C47.1875 67.3136 47.8182 67.9441 48.596 67.9441Z" fill="#B5ADB6"/>
<path d="M85.4401 107H54.6745C52.3409 107 50.4492 105.108 50.4492 102.775V41.2253C50.4491 38.8918 52.3409 37 54.6745 37H85.4401C87.7737 37 89.6654 38.8918 89.6654 41.2253V102.775C89.6654 105.108 87.7737 107 85.4401 107Z" fill="#7A6E79"/>
<path d="M89.6645 41.2253V102.775C89.6645 105.108 87.773 107 85.4392 107H80.6406C82.9744 107 84.8659 105.108 84.8659 102.775V41.2253C84.8659 38.8915 82.9744 37 80.6406 37H85.4392C87.773 37 89.6645 38.8915 89.6645 41.2253Z" fill="#685E67"/>
<path d="M86.1459 41.2253V102.775C86.1458 102.961 86.0716 103.14 85.9395 103.272C85.8075 103.405 85.6284 103.479 85.4416 103.479H54.6769C54.4901 103.479 54.3111 103.405 54.179 103.272C54.0469 103.14 53.9727 102.961 53.9727 102.775V41.2253C53.9727 41.0385 54.0469 40.8595 54.179 40.7274C54.3111 40.5953 54.4901 40.5211 54.6769 40.5211H62.4346C62.5758 40.5209 62.7138 40.5633 62.8306 40.6427C62.9474 40.722 63.0376 40.8347 63.0895 40.9661L63.8952 43.0084C63.999 43.2712 64.1794 43.4967 64.413 43.6557C64.6465 43.8146 64.9225 43.8997 65.2051 43.8999H74.9121C75.4896 43.8999 76.0093 43.5464 76.222 43.0084L77.0277 40.9661C77.0795 40.8347 77.1697 40.722 77.2865 40.6427C77.4033 40.5633 77.5413 40.5209 77.6826 40.5211H85.4418C85.6285 40.5212 85.8075 40.5954 85.9395 40.7275C86.0715 40.8595 86.1458 41.0386 86.1459 41.2253Z" fill="#107295"/>
<path d="M86.146 55.8676V74.3901H73.3108C72.5333 74.3901 71.9023 73.7592 71.9023 72.9817V57.2761C71.9023 56.4986 72.5333 55.8676 73.3108 55.8676H86.146Z" fill="#0D5F7F"/>
<path d="M86.1461 41.2253V102.775C86.146 102.961 86.0718 103.14 85.9398 103.272C85.8077 103.405 85.6286 103.479 85.4419 103.479H81.418C81.6047 103.479 81.7838 103.405 81.9159 103.272C82.0479 103.14 82.1221 102.961 82.1222 102.775V41.2253C82.1221 41.0385 82.0479 40.8595 81.9159 40.7274C81.7838 40.5953 81.6047 40.5211 81.418 40.5211H85.4419C85.6286 40.5212 85.8077 40.5954 85.9397 40.7274C86.0718 40.8595 86.146 41.0386 86.1461 41.2253Z" fill="#0D5F7F"/>
<path d="M69.7519 41.5775H66.9274C66.7887 41.5775 66.6513 41.5502 66.5232 41.4971C66.395 41.444 66.2786 41.3662 66.1805 41.2681C66.0824 41.17 66.0046 41.0536 65.9515 40.9254C65.8984 40.7973 65.8711 40.6599 65.8711 40.5212C65.8711 40.3825 65.8984 40.2451 65.9515 40.117C66.0046 39.9888 66.0824 39.8724 66.1805 39.7743C66.2786 39.6762 66.395 39.5984 66.5232 39.5453C66.6513 39.4922 66.7887 39.4649 66.9274 39.4649H69.7519C70.3354 39.4649 70.8081 39.9378 70.8081 40.5212C70.8081 41.1046 70.3354 41.5775 69.7519 41.5775ZM73.1888 41.5847C73.0501 41.5847 72.9127 41.5574 72.7846 41.5044C72.6564 41.4513 72.54 41.3735 72.4419 41.2754C72.3438 41.1773 72.266 41.0608 72.2129 40.9327C72.1598 40.8045 72.1325 40.6672 72.1325 40.5284V40.5138C72.1325 40.2337 72.2438 39.965 72.4419 39.7669C72.64 39.5688 72.9087 39.4575 73.1888 39.4575C73.469 39.4575 73.7376 39.5688 73.9357 39.7669C74.1338 39.965 74.2451 40.2337 74.2451 40.5138V40.5284C74.2451 40.6672 74.2178 40.8045 74.1647 40.9327C74.1117 41.0608 74.0339 41.1773 73.9358 41.2754C73.8377 41.3735 73.7212 41.4513 73.5931 41.5044C73.4649 41.5574 73.3275 41.5847 73.1888 41.5847Z" fill="#433F43"/>
<path d="M75.4896 99.9595H64.6266C64.3465 99.9595 64.0778 99.8482 63.8797 99.6502C63.6816 99.4521 63.5703 99.1834 63.5703 98.9032C63.5703 98.6231 63.6816 98.3544 63.8797 98.1563C64.0778 97.9582 64.3465 97.847 64.6266 97.847H75.4896C75.6283 97.8469 75.7657 97.8742 75.8938 97.9273C76.022 97.9804 76.1385 98.0582 76.2365 98.1563C76.3346 98.2544 76.4124 98.3708 76.4655 98.499C76.5186 98.6272 76.5459 98.7645 76.5459 98.9032C76.5459 99.042 76.5186 99.1793 76.4655 99.3075C76.4124 99.4356 76.3346 99.5521 76.2365 99.6502C76.1385 99.7483 76.022 99.8261 75.8938 99.8792C75.7657 99.9322 75.6283 99.9595 75.4896 99.9595ZM99.4072 71.0238H73.3103C72.5324 71.0238 71.9018 70.3933 71.9018 69.6154V53.9101C71.9018 53.1321 72.5324 52.5016 73.3103 52.5016H99.4072C100.185 52.5016 100.816 53.1321 100.816 53.9101V69.6154C100.816 70.3931 100.185 71.0238 99.4072 71.0238Z" fill="#64E0C4"/>
<path d="M100.816 53.9099V69.6155C100.816 70.393 100.185 71.024 99.4077 71.024H95.6641C96.4416 71.024 97.0725 70.393 97.0725 69.6155V53.9099C97.0725 53.1324 96.4416 52.5015 95.6641 52.5015H99.4077C100.185 52.5015 100.816 53.1324 100.816 53.9099Z" fill="#27D1B3"/>
<path d="M81.1741 66.321C80.903 66.3213 80.6422 66.217 80.446 66.0299L76.7658 62.5278C76.6621 62.4292 76.5795 62.3105 76.523 62.179C76.4666 62.0474 76.4375 61.9058 76.4375 61.7626C76.4375 61.6195 76.4666 61.4778 76.523 61.3463C76.5795 61.2147 76.6621 61.0961 76.7658 60.9974L80.446 57.4955C80.6499 57.3074 80.9195 57.2069 81.1968 57.2159C81.474 57.2249 81.7366 57.3426 81.9278 57.5436C82.1191 57.7445 82.2236 58.0126 82.2188 58.29C82.214 58.5673 82.1004 58.8317 81.9024 59.0259L79.0265 61.7626L81.9024 64.4995C82.1053 64.6926 82.2232 64.9585 82.2302 65.2385C82.2372 65.5186 82.1326 65.79 81.9395 65.993C81.8409 66.0968 81.7222 66.1794 81.5906 66.2358C81.459 66.2922 81.3172 66.3212 81.1741 66.321ZM91.5406 66.321C91.3294 66.321 91.1231 66.2578 90.9482 66.1394C90.7733 66.021 90.6379 65.8529 90.5595 65.6568C90.4811 65.4607 90.4633 65.2456 90.5084 65.0393C90.5534 64.833 90.6593 64.6449 90.8123 64.4993L93.6881 61.7625L90.8123 59.0258C90.6132 58.8318 90.4985 58.5671 90.4932 58.2891C90.488 58.0111 90.5925 57.7423 90.7841 57.5409C90.9758 57.3394 91.2391 57.2217 91.517 57.2131C91.7949 57.2046 92.065 57.306 92.2686 57.4952L95.9487 60.9971C96.0524 61.0958 96.135 61.2145 96.1915 61.346C96.2479 61.4776 96.277 61.6192 96.277 61.7624C96.277 61.9055 96.2479 62.0472 96.1915 62.1787C96.135 62.3102 96.0524 62.4289 95.9487 62.5276L92.2686 66.0296C92.0726 66.217 91.8118 66.3213 91.5406 66.321ZM84.9577 66.3212C84.7852 66.3212 84.6152 66.2789 84.4627 66.198C84.3103 66.117 84.18 66 84.0832 65.8571C83.9865 65.7142 83.9262 65.5497 83.9077 65.3781C83.8892 65.2065 83.913 65.033 83.9771 64.8727L86.7756 57.8687C86.8831 57.6138 87.0864 57.4112 87.3418 57.3045C87.5971 57.1978 87.8841 57.1956 88.1411 57.2983C88.3981 57.401 88.6045 57.6004 88.716 57.8536C88.8275 58.1069 88.8352 58.3938 88.7375 58.6527L85.939 65.6567C85.8606 65.8528 85.7252 66.021 85.5503 66.1394C85.3754 66.2579 85.169 66.3212 84.9577 66.3212Z" fill="#0D5F7F"/>
<path d="M59.3063 77.0654C59.1676 77.0655 59.0302 77.0381 58.902 76.9851C58.7739 76.932 58.6574 76.8542 58.5593 76.7561C58.4613 76.658 58.3834 76.5416 58.3304 76.4134C58.2773 76.2852 58.25 76.1479 58.25 76.0092V75.9945C58.25 75.7144 58.3613 75.4457 58.5594 75.2476C58.7575 75.0495 59.0261 74.9382 59.3063 74.9382C59.5864 74.9382 59.8551 75.0495 60.0532 75.2476C60.2513 75.4457 60.3626 75.7144 60.3626 75.9945V76.0092C60.3626 76.1479 60.3353 76.2852 60.2822 76.4134C60.2291 76.5416 60.1513 76.658 60.0532 76.7561C59.9551 76.8542 59.8387 76.932 59.7105 76.9851C59.5824 77.0381 59.445 77.0655 59.3063 77.0654ZM68.1445 77.0654H63.2122C62.9321 77.0654 62.6634 76.9542 62.4653 76.7561C62.2672 76.558 62.1559 76.2893 62.1559 76.0092C62.1559 75.729 62.2672 75.4603 62.4653 75.2622C62.6634 75.0642 62.9321 74.9529 63.2122 74.9529H68.1445C68.728 74.9529 69.2008 75.4258 69.2008 76.0092C69.2008 76.5925 68.728 77.0654 68.1445 77.0654Z" fill="#64B9FC"/>
<path d="M59.3063 81.5573C59.1676 81.5573 59.0302 81.53 58.902 81.477C58.7739 81.4239 58.6574 81.3461 58.5593 81.248C58.4613 81.1499 58.3834 81.0334 58.3304 80.9053C58.2773 80.7771 58.25 80.6397 58.25 80.501V80.4864C58.25 80.2063 58.3613 79.9376 58.5594 79.7395C58.7575 79.5414 59.0261 79.4301 59.3063 79.4301C59.5864 79.4301 59.8551 79.5414 60.0532 79.7395C60.2513 79.9376 60.3626 80.2063 60.3626 80.4864V80.501C60.3626 80.6397 60.3353 80.7771 60.2822 80.9053C60.2291 81.0334 60.1513 81.1499 60.0532 81.248C59.9551 81.3461 59.8387 81.4239 59.7105 81.477C59.5824 81.53 59.445 81.5573 59.3063 81.5573ZM77.6397 81.5573H63.2122C62.9321 81.5573 62.6634 81.446 62.4653 81.2479C62.2672 81.0499 62.1559 80.7812 62.1559 80.501C62.1559 80.2209 62.2672 79.9522 62.4653 79.7541C62.6634 79.556 62.9321 79.4447 63.2122 79.4447H77.6397C77.9199 79.4447 78.1885 79.556 78.3866 79.7541C78.5847 79.9522 78.696 80.2209 78.696 80.501C78.696 80.7812 78.5847 81.0499 78.3866 81.2479C78.1885 81.446 77.9199 81.5573 77.6397 81.5573Z" fill="#27D1B3"/>
<path d="M59.3063 86.0493C59.1676 86.0493 59.0302 86.022 58.902 85.969C58.7739 85.9159 58.6574 85.8381 58.5593 85.74C58.4613 85.6419 58.3834 85.5254 58.3304 85.3973C58.2773 85.2691 58.25 85.1318 58.25 84.993V84.9784C58.25 84.6983 58.3613 84.4296 58.5594 84.2315C58.7575 84.0334 59.0261 83.9221 59.3063 83.9221C59.5864 83.9221 59.8551 84.0334 60.0532 84.2315C60.2513 84.4296 60.3626 84.6983 60.3626 84.9784V84.993C60.3626 85.1318 60.3353 85.2691 60.2822 85.3973C60.2291 85.5254 60.1513 85.6419 60.0532 85.74C59.9551 85.8381 59.8387 85.9159 59.7105 85.969C59.5824 86.022 59.445 86.0493 59.3063 86.0493ZM80.8048 86.0493H63.2122C62.9321 86.0493 62.6634 85.938 62.4653 85.7399C62.2672 85.5419 62.1559 85.2732 62.1559 84.993C62.1559 84.7129 62.2672 84.4442 62.4653 84.2461C62.6634 84.048 62.9321 83.9367 63.2122 83.9367H80.8048C81.082 83.9412 81.3463 84.0545 81.5408 84.2521C81.7352 84.4497 81.8442 84.7158 81.8442 84.993C81.8442 85.2703 81.7352 85.5364 81.5408 85.734C81.3463 85.9316 81.082 86.0449 80.8048 86.0493ZM59.3063 90.5412C59.1676 90.5412 59.0302 90.5139 58.902 90.4609C58.7739 90.4078 58.6574 90.33 58.5593 90.2319C58.4613 90.1338 58.3834 90.0173 58.3304 89.8892C58.2773 89.761 58.25 89.6237 58.25 89.4849V89.4703C58.25 89.1902 58.3613 88.9215 58.5594 88.7234C58.7575 88.5253 59.0261 88.414 59.3063 88.414C59.5864 88.414 59.8551 88.5253 60.0532 88.7234C60.2513 88.9215 60.3626 89.1902 60.3626 89.4703V89.4849C60.3626 89.6237 60.3353 89.761 60.2822 89.8892C60.2291 90.0173 60.1513 90.1338 60.0532 90.2319C59.9551 90.33 59.8387 90.4078 59.7105 90.4609C59.5824 90.5139 59.445 90.5412 59.3063 90.5412ZM80.8048 90.5412H63.2122C62.9321 90.5412 62.6634 90.4299 62.4653 90.2318C62.2672 90.0338 62.1559 89.7651 62.1559 89.4849C62.1559 89.2048 62.2672 88.9361 62.4653 88.738C62.6634 88.5399 62.9321 88.4286 63.2122 88.4286H80.8048C81.082 88.4331 81.3463 88.5464 81.5408 88.744C81.7352 88.9416 81.8442 89.2077 81.8442 89.4849C81.8442 89.7622 81.7352 90.0283 81.5408 90.2259C81.3463 90.4235 81.082 90.5368 80.8048 90.5412Z" fill="#A3E440"/>
<path d="M67.6567 69.7567H59.361C59.0808 69.7567 58.8122 69.6454 58.6141 69.4473C58.416 69.2492 58.3047 68.9806 58.3047 68.7004C58.3047 68.4203 58.416 68.1516 58.6141 67.9535C58.8122 67.7554 59.0808 67.6441 59.361 67.6441H67.6565C68.24 67.6441 68.7128 68.117 68.7128 68.7004C68.7128 69.2838 68.24 69.7567 67.6567 69.7567ZM67.6567 65.2647H59.361C59.0808 65.2647 58.8122 65.1534 58.6141 64.9553C58.416 64.7572 58.3047 64.4885 58.3047 64.2084C58.3047 63.9282 58.416 63.6596 58.6141 63.4615C58.8122 63.2634 59.0808 63.1521 59.361 63.1521H67.6565C68.24 63.1521 68.7128 63.625 68.7128 64.2084C68.7128 64.7918 68.24 65.2647 67.6567 65.2647Z" fill="#FCC16D"/>
<path d="M67.6567 60.7728H59.361C59.0808 60.7728 58.8122 60.6615 58.6141 60.4634C58.416 60.2653 58.3047 59.9967 58.3047 59.7165C58.3047 59.4364 58.416 59.1677 58.6141 58.9696C58.8122 58.7715 59.0808 58.6602 59.361 58.6602H67.6565C67.7952 58.6602 67.9326 58.6875 68.0608 58.7406C68.1889 58.7937 68.3054 58.8715 68.4035 58.9696C68.5016 59.0677 68.5794 59.1841 68.6324 59.3123C68.6855 59.4404 68.7128 59.5778 68.7128 59.7165C68.7128 59.8552 68.6856 59.9926 68.6325 60.1208C68.5794 60.2489 68.5016 60.3654 68.4036 60.4635C68.3055 60.5615 68.189 60.6394 68.0609 60.6924C67.9327 60.7455 67.7954 60.7728 67.6567 60.7728ZM67.6567 56.2809H59.361C59.0808 56.2809 58.8122 56.1696 58.6141 55.9715C58.416 55.7734 58.3047 55.5048 58.3047 55.2246C58.3047 54.9445 58.416 54.6758 58.6141 54.4777C58.8122 54.2796 59.0808 54.1683 59.361 54.1683H67.6565C67.7952 54.1683 67.9326 54.1956 68.0608 54.2487C68.1889 54.3018 68.3054 54.3796 68.4035 54.4777C68.5016 54.5758 68.5794 54.6922 68.6324 54.8204C68.6855 54.9485 68.7128 55.0859 68.7128 55.2246C68.7128 55.3633 68.6856 55.5007 68.6325 55.6289C68.5794 55.757 68.5016 55.8735 68.4036 55.9716C68.3055 56.0697 68.189 56.1475 68.0609 56.2005C67.9327 56.2536 67.7954 56.2809 67.6567 56.2809Z" fill="#FC5A95"/>
<defs>
<filter id="filter0_d_1273_231" x="0.666667" y="0.571429" width="146.667" height="146.667" filterUnits="userSpaceOnUse" color-interpolation-filters="sRGB">
<feFlood flood-opacity="0" result="BackgroundImageFix"/>
<feColorMatrix in="SourceAlpha" type="matrix" values="0 0 0 0 0 0 0 0 0 0 0 0 0 0 0 0 0 0 127 0" result="hardAlpha"/>
<feOffset dy="1.90476"/>
<feGaussianBlur stdDeviation="6.66667"/>
<feComposite in2="hardAlpha" operator="out"/>
<feColorMatrix type="matrix" values="0 0 0 0 0.695898 0 0 0 0 0.695898 0 0 0 0 0.695898 0 0 0 0.25 0"/>
<feBlend mode="normal" in2="BackgroundImageFix" result="effect1_dropShadow_1273_231"/>
<feBlend mode="normal" in="SourceGraphic" in2="effect1_dropShadow_1273_231" result="shape"/>
</filter>
</defs>
</svg>
