<svg width="147" height="190" viewBox="0 0 147 190" fill="none" xmlns="http://www.w3.org/2000/svg">
<path d="M75 46C75 46.5523 74.5523 47 74 47C73.4477 47 73 46.5523 73 46L75 46ZM74 0.226498L79.7735 6L74 11.7735L68.2265 6L74 0.226498ZM73 46L73 6L75 6L75 46L73 46Z" fill="#4193D2"/>
<path d="M11.5664 80.7426L73.5 44.9853L135.434 80.7426V152.257L73.5 188.015L11.5664 152.257V80.7426Z" stroke="#4193D2" stroke-width="3.4386"/>
<g clip-path="url(#clip0_935_91)">
<path d="M58.4886 145.122C61.9657 141.563 61.9657 135.774 58.4886 132.217C55.0115 128.658 49.3548 128.658 45.8789 132.217C43.3979 134.756 42.4217 138.688 42.1103 142.25C41.8225 145.547 42.1326 148.195 42.1438 148.307C42.1971 148.812 42.671 148.925 42.7529 148.941C42.7603 148.942 42.7678 148.943 42.7764 148.943C42.9762 148.951 45.8256 149.009 46.7039 146.169C46.8937 145.556 47.1306 145.065 47.3911 144.671C47.9654 143.804 49.2891 144.327 49.1427 145.363C48.9405 146.795 49.4503 147.936 49.7629 148.48C49.8857 148.693 50.1227 148.807 50.3608 148.77C53.3405 148.304 56.3971 147.26 58.4874 145.119L58.4886 145.122Z" fill="#FAAB48"/>
<ellipse cx="88.0343" cy="101.885" rx="10.335" ry="10.5769" fill="white"/>
<path d="M105.492 89.736C105.307 86.5672 103.095 84.3024 99.999 84.1145C89.4833 83.4734 77.7643 88.0373 68.6243 97.39L66.1867 99.8846C65.3085 100.783 64.4748 101.708 63.6834 102.651H55.9985C54.3673 102.716 52.9233 103.678 52.1083 105.091L47.5904 114.338C47.4651 114.659 47.4019 114.981 47.3398 115.365C47.3398 116.585 48.3434 117.612 49.5355 117.612H55.2468C54.5074 120.164 55.0012 122.673 56.584 124.293L66.2302 134.164C67.813 135.784 70.2655 136.29 72.7577 135.533V141.378C72.7577 142.598 73.7612 143.626 74.9533 143.625C75.3304 143.56 75.6431 143.497 75.9569 143.369L84.9927 138.745C86.3734 137.91 87.3149 136.433 87.3769 134.764V126.899C88.2999 126.089 89.2017 125.236 90.08 124.337L92.5175 121.842C101.658 112.489 106.116 100.495 105.489 89.7334L105.492 89.736ZM94.9663 108.076C91.4073 111.718 85.6377 111.718 82.0788 108.076C78.5198 104.433 78.5198 98.5288 82.0788 94.8865C85.6377 91.2442 91.4073 91.2442 94.9663 94.8865C98.5253 98.5288 98.5253 104.433 94.9663 108.076Z" fill="#4193D2"/>
<path d="M102.581 106.532C104.82 100.952 105.807 95.1861 105.491 89.736C105.306 86.5672 103.094 84.3024 99.9981 84.1145C89.4824 83.4734 77.7634 88.0373 68.6234 97.39L66.1858 99.8846C65.3075 100.783 64.4739 101.708 63.6825 102.651H55.9976C54.5797 102.707 53.3057 103.442 52.4609 104.559C53.0006 105.196 53.5625 105.82 54.1542 106.425C67.5218 120.106 89.171 120.14 102.582 106.531L102.581 106.532ZM82.0778 94.8865C85.6368 91.2442 91.4064 91.2442 94.9654 94.8865C98.5244 98.5288 98.5244 104.433 94.9654 108.076C91.4064 111.718 85.6368 111.718 82.0778 108.076C78.5188 104.433 78.5188 98.5288 82.0778 94.8865Z" fill="#48A4DF"/>
</g>
<defs>
<clipPath id="clip0_935_91">
<rect width="63.5135" height="65" fill="white" transform="translate(42 84)"/>
</clipPath>
</defs>
</svg>
