<svg width="147" height="190" viewBox="0 0 147 190" fill="none" xmlns="http://www.w3.org/2000/svg">
<path d="M75 46C75 46.5523 74.5523 47 74 47C73.4477 47 73 46.5523 73 46L75 46ZM74 0.226498L79.7735 6L74 11.7735L68.2265 6L74 0.226498ZM73 46L73 6L75 6L75 46L73 46Z" fill="#FFBA00"/>
<path d="M11.5664 80.7426L73.5 44.9853L135.434 80.7426V152.257L73.5 188.015L11.5664 152.257V80.7426Z" stroke="#FFBA00" stroke-width="3.4386"/>
<path d="M64.6321 135.704L57.9844 122.409L72.0185 94.3408V118.28C71.2408 118.619 70.6038 119.216 70.2144 119.97C69.825 120.724 69.7071 121.589 69.8805 122.419C70.0538 123.25 70.5079 123.996 71.1663 124.531C71.8247 125.066 72.6473 125.358 73.4957 125.358C74.3442 125.358 75.1668 125.066 75.8252 124.531C76.4836 123.996 76.9377 123.25 77.111 122.419C77.2844 121.589 77.1664 120.724 76.7771 119.97C76.3877 119.216 75.7506 118.619 74.973 118.28V94.3408L89.0071 122.409L82.3594 135.704H64.6321ZM63.1548 140.136H83.8366V147.523H63.1548V140.136Z" fill="#FFBA00"/>
<path d="M60.9375 135.705H86.0511V140.137H60.9375V135.705Z" fill="#FF8E00"/>
<path d="M71.2809 85.4773H75.7127V89.9091H71.2809V85.4773ZM47.6445 111.33H52.0763V115.761H47.6445V111.33ZM94.9173 111.33H99.3491V115.761H94.9173V111.33Z" fill="#FFBA00"/>
<path d="M97.1339 89.9091C98.3577 89.9091 99.3498 88.917 99.3498 87.6932C99.3498 86.4694 98.3577 85.4773 97.1339 85.4773C95.9101 85.4773 94.918 86.4694 94.918 87.6932C94.918 88.917 95.9101 89.9091 97.1339 89.9091Z" fill="#FFBA00"/>
<path d="M49.8604 89.9091C51.0843 89.9091 52.0763 88.917 52.0763 87.6932C52.0763 86.4694 51.0843 85.4773 49.8604 85.4773C48.6366 85.4773 47.6445 86.4694 47.6445 87.6932C47.6445 88.917 48.6366 89.9091 49.8604 89.9091Z" fill="#FFBA00"/>
<path d="M75.6341 94.0107C75.5598 93.8617 75.4373 93.7421 75.2865 93.6714C75.1357 93.6007 74.9655 93.5831 74.8034 93.6213C74.6413 93.6595 74.4969 93.7514 74.3936 93.882C74.2903 94.0127 74.2342 94.1744 74.2343 94.3409V118.28C74.2344 118.423 74.2759 118.563 74.3539 118.683C74.432 118.803 74.5431 118.897 74.6738 118.955C75.2966 119.226 75.8071 119.703 76.1194 120.306C76.4317 120.909 76.5266 121.601 76.3883 122.266C76.25 122.931 75.8869 123.528 75.3601 123.957C74.8332 124.385 74.1748 124.619 73.4957 124.619C72.8166 124.619 72.1582 124.385 71.6313 123.957C71.1045 123.528 70.7414 122.931 70.6031 122.266C70.4648 121.601 70.5597 120.909 70.872 120.306C71.1843 119.703 71.6948 119.226 72.3176 118.955C72.4483 118.897 72.5594 118.803 72.6375 118.683C72.7155 118.563 72.757 118.423 72.7571 118.28V94.3409C72.7569 94.1746 72.7006 94.0133 72.5974 93.883C72.4941 93.7527 72.3499 93.661 72.1881 93.6228C72.0263 93.5846 71.8563 93.6021 71.7057 93.6725C71.5551 93.7429 71.4326 93.8621 71.3581 94.0107L57.324 122.079C57.2728 122.181 57.2461 122.294 57.2461 122.409C57.2461 122.524 57.2728 122.637 57.324 122.739L63.4369 134.966H60.9389C60.743 134.966 60.5551 135.044 60.4166 135.182C60.2781 135.321 60.2002 135.509 60.2002 135.705V140.136C60.2002 140.332 60.2781 140.52 60.4166 140.659C60.5551 140.797 60.743 140.875 60.9389 140.875H62.4162V147.523C62.4162 147.719 62.494 147.906 62.6325 148.045C62.771 148.184 62.9589 148.261 63.1548 148.261C63.3507 148.261 63.5386 148.184 63.6771 148.045C63.8156 147.906 63.8934 147.719 63.8934 147.523V140.875H83.098V147.523C83.098 147.719 83.1758 147.906 83.3143 148.045C83.4528 148.184 83.6407 148.261 83.8366 148.261C84.0325 148.261 84.2204 148.184 84.3589 148.045C84.4974 147.906 84.5752 147.719 84.5752 147.523V140.875H86.0525C86.2484 140.875 86.4363 140.797 86.5748 140.659C86.7133 140.52 86.7912 140.332 86.7912 140.136V135.705C86.7912 135.509 86.7133 135.321 86.5748 135.182C86.4363 135.044 86.2484 134.966 86.0525 134.966H83.5544L89.6681 122.739C89.7194 122.637 89.746 122.524 89.746 122.409C89.746 122.294 89.7194 122.181 89.6681 122.079L75.6341 94.0107ZM85.3139 139.398H61.6775V136.443H85.3139V139.398ZM81.9029 134.966H65.0885L58.8101 122.409L71.2798 97.4698V117.83C70.4349 118.317 69.7746 119.07 69.4012 119.972C69.0279 120.873 68.9624 121.872 69.2149 122.815C69.4674 123.757 70.0238 124.59 70.7978 125.184C71.5718 125.777 72.5201 126.099 73.4957 126.099C74.4713 126.099 75.4196 125.777 76.1936 125.184C76.9676 124.59 77.524 123.757 77.7765 122.815C78.029 121.872 77.9635 120.873 77.5902 119.972C77.2168 119.07 76.5565 118.317 75.7116 117.83V97.4698L88.1813 122.409L81.9029 134.966Z" fill="#32233F"/>
<path d="M99.3488 110.591H97.8545C97.7308 105.722 96.1423 101.003 93.2962 97.0499C90.4501 93.097 86.4786 90.0937 81.9 88.432H94.2832C94.463 89.1282 94.8905 89.7351 95.4857 90.1387C96.0809 90.5423 96.8028 90.7149 97.5162 90.6243C98.2296 90.5337 98.8855 90.186 99.3608 89.6464C99.8362 89.1069 100.098 88.4124 100.098 87.6933C100.098 86.9742 99.8362 86.2798 99.3608 85.7402C98.8855 85.2006 98.2296 84.8529 97.5162 84.7623C96.8028 84.6717 96.0809 84.8444 95.4857 85.248C94.8905 85.6516 94.463 86.2584 94.2832 86.9547H76.4511V85.4774C76.4511 85.2815 76.3732 85.0936 76.2347 84.9551C76.0962 84.8166 75.9083 84.7388 75.7124 84.7388H71.2806C71.0847 84.7388 70.8968 84.8166 70.7583 84.9551C70.6198 85.0936 70.542 85.2815 70.542 85.4774V86.9547H52.7098C52.53 86.2584 52.1025 85.6516 51.5073 85.248C50.9121 84.8444 50.1902 84.6717 49.4768 84.7623C48.7634 84.8529 48.1076 85.2006 47.6322 85.7402C47.1568 86.2798 46.8945 86.9742 46.8945 87.6933C46.8945 88.4124 47.1568 89.1069 47.6322 89.6464C48.1076 90.186 48.7634 90.5337 49.4768 90.6243C50.1902 90.7149 50.9121 90.5423 51.5073 90.1387C52.1025 89.7351 52.53 89.1282 52.7098 88.432H65.093C60.5144 90.0937 56.5429 93.097 53.6968 97.0499C50.8507 101.003 49.2622 105.722 49.1385 110.591H47.6442C47.4483 110.591 47.2605 110.669 47.1219 110.807C46.9834 110.946 46.9056 111.134 46.9056 111.33V115.762C46.9056 115.957 46.9834 116.145 47.1219 116.284C47.2605 116.422 47.4483 116.5 47.6442 116.5H52.0761C52.272 116.5 52.4598 116.422 52.5983 116.284C52.7369 116.145 52.8147 115.957 52.8147 115.762V111.33C52.8147 111.134 52.7369 110.946 52.5983 110.807C52.4598 110.669 52.272 110.591 52.0761 110.591H50.6158C50.764 105.153 52.8552 99.9473 56.5106 95.918C60.166 91.8886 65.1437 89.3018 70.542 88.6262V89.9092C70.542 90.1051 70.6198 90.293 70.7583 90.4315C70.8968 90.57 71.0847 90.6479 71.2806 90.6479H75.7124C75.9083 90.6479 76.0962 90.57 76.2347 90.4315C76.3732 90.293 76.4511 90.1051 76.4511 89.9092V88.6262C81.8493 89.3018 86.827 91.8886 90.4824 95.918C94.1378 99.9473 96.229 105.153 96.3773 110.591H94.917C94.7211 110.591 94.5332 110.669 94.3947 110.807C94.2561 110.946 94.1783 111.134 94.1783 111.33V115.762C94.1783 115.957 94.2561 116.145 94.3947 116.284C94.5332 116.422 94.7211 116.5 94.917 116.5H99.3488C99.5447 116.5 99.7326 116.422 99.8711 116.284C100.01 116.145 100.087 115.957 100.087 115.762V111.33C100.087 111.134 100.01 110.946 99.8711 110.807C99.7326 110.669 99.5447 110.591 99.3488 110.591ZM51.3374 115.023H48.3829V112.068H51.3374V115.023ZM97.1329 86.216C97.4251 86.216 97.7107 86.3027 97.9536 86.465C98.1965 86.6273 98.3859 86.8581 98.4977 87.128C98.6095 87.3979 98.6388 87.695 98.5818 87.9815C98.5248 88.2681 98.3841 88.5313 98.1775 88.7379C97.9709 88.9445 97.7076 89.0852 97.4211 89.1422C97.1345 89.1992 96.8375 89.17 96.5676 89.0581C96.2976 88.9463 96.0669 88.757 95.9046 88.5141C95.7422 88.2711 95.6556 87.9855 95.6556 87.6933C95.656 87.3016 95.8118 86.9261 96.0887 86.6492C96.3657 86.3722 96.7412 86.2164 97.1329 86.216ZM49.8601 89.1706C49.568 89.1706 49.2824 89.084 49.0394 88.9216C48.7965 88.7593 48.6071 88.5286 48.4953 88.2586C48.3835 87.9887 48.3543 87.6917 48.4113 87.4051C48.4683 87.1186 48.609 86.8553 48.8156 86.6487C49.0222 86.4421 49.2854 86.3014 49.5719 86.2444C49.8585 86.1874 50.1555 86.2167 50.4255 86.3285C50.6954 86.4403 50.9261 86.6297 51.0885 86.8726C51.2508 87.1155 51.3374 87.4011 51.3374 87.6933C51.337 88.085 51.1813 88.4605 50.9043 88.7375C50.6273 89.0144 50.2518 89.1702 49.8601 89.1706ZM74.9738 89.1706H72.0192V86.216H74.9738V89.1706ZM98.6101 115.023H95.6556V112.068H98.6101V115.023Z" fill="#32233F"/>
</svg>
