<svg width="147" height="190" viewBox="0 0 147 190" fill="none" xmlns="http://www.w3.org/2000/svg">
<path d="M11.5664 37.7426L73.5 1.98527L135.434 37.7426V109.257L73.5 145.015L11.5664 109.257V37.7426Z" stroke="#FE7B60" stroke-width="3.4386"/>
<g clip-path="url(#clip0_935_92)">
<path d="M82.2969 88.4421L77.5093 83.6544L83.7334 77.4305L88.521 82.2183L82.2969 88.4421Z" fill="#344A5E"/>
<path d="M64.7005 85.6873C76.2927 85.6873 85.69 76.29 85.69 64.6978C85.69 53.1056 76.2927 43.7083 64.7005 43.7083C53.1083 43.7083 43.7109 53.1056 43.7109 64.6978C43.7109 76.29 53.1083 85.6873 64.7005 85.6873Z" fill="#8AD7F8"/>
<path d="M81.4895 81.4895C72.2812 90.6978 57.1145 90.6978 47.9062 81.4895C38.6979 72.2812 38.6979 57.1145 47.9062 47.9062C57.1145 38.6979 72.2812 38.6979 81.4895 47.9062C90.6978 57.1145 90.8333 72.2812 81.4895 81.4895ZM51.8333 51.8333C44.6562 59.0103 44.6562 70.5208 51.8333 77.6978C59.0103 84.8748 70.5208 84.8748 77.6978 77.6978C84.8748 70.5208 84.8748 59.0103 77.6978 51.8333C70.5208 44.6562 58.875 44.6562 51.8333 51.8333Z" fill="#415A6B"/>
<path d="M89.3464 81.0833C96.5234 86.0937 101.94 90.0208 103.565 91.7812C106.815 95.0312 106.815 100.312 103.565 103.562C100.315 106.812 95.0339 106.812 91.7839 103.562C90.1589 101.937 86.0964 96.5208 81.0859 89.3437L89.3464 81.0833Z" fill="#F3705A"/>
<path d="M83.7917 93.1352C82.9792 91.9165 82.0312 90.6977 81.2188 89.479L89.4792 81.2185C90.8334 82.1665 92.0522 82.979 93.1355 83.7915L83.7917 93.1352Z" fill="#F05540"/>
<path d="M82.573 90.8332L90.8334 82.5727C91.6459 81.7602 91.6459 80.406 90.8334 79.5935C90.0209 78.781 88.6667 78.781 87.8542 79.5935L79.5937 87.8541C78.7813 88.6666 78.7813 90.0208 79.5937 90.8333C80.4062 91.7811 81.7605 91.7811 82.573 90.8332Z" fill="#F3705A"/>
<path d="M64.7005 56.7084C68.2155 56.7084 71.065 55.3746 71.065 53.7292C71.065 52.0838 68.2155 50.75 64.7005 50.75C61.1854 50.75 58.3359 52.0838 58.3359 53.7292C58.3359 55.3746 61.1854 56.7084 64.7005 56.7084Z" fill="white"/>
</g>
<path d="M74 144C74 143.448 73.5523 143 73 143C72.4477 143 72 143.448 72 144L74 144ZM73 189.774L78.7735 184L73 178.226L67.2265 184L73 189.774ZM72 144L72 184L74 184L74 144L72 144Z" fill="#FE7B60"/>
<defs>
<clipPath id="clip0_935_92">
<rect width="65" height="65" fill="white" transform="translate(41 41)"/>
</clipPath>
</defs>
</svg>
