<svg width="148" height="148" viewBox="0 0 148 148" fill="none" xmlns="http://www.w3.org/2000/svg">
<g filter="url(#filter0_d_1778_186)">
<circle cx="74" cy="72" r="60" fill="white"/>
</g>
<g clip-path="url(#clip0_1778_186)">
<path d="M101.125 79.0619C100.513 79.0619 100.016 78.5705 100.016 77.9581V77.947C100.016 77.6528 100.133 77.3706 100.341 77.1626C100.549 76.9545 100.831 76.8376 101.125 76.8376C101.419 76.8376 101.701 76.9545 101.909 77.1626C102.117 77.3706 102.234 77.6528 102.234 77.947C102.234 78.5594 101.737 79.0619 101.125 79.0619Z" fill="black"/>
<path d="M102.234 105.781C102.234 107.002 101.236 108 100.016 108H48.9844C47.7641 108 46.7656 107.002 46.7656 105.781V39.2188C46.7656 37.9984 47.7641 37 48.9844 37H92.25L93.3594 38.1094V45.875H101.125L102.234 46.9844V105.781Z" fill="#F0E7DC"/>
<path d="M102.234 46.9844H94.4688C93.2484 46.9844 92.25 45.9859 92.25 44.7656V37L102.234 46.9844Z" fill="#C8AD90"/>
<path d="M95.5781 80.2656C103.543 80.2656 110 73.8087 110 65.8438C110 57.8788 103.543 51.4219 95.5781 51.4219C87.6131 51.4219 81.1562 57.8788 81.1562 65.8438C81.1562 73.8087 87.6131 80.2656 95.5781 80.2656Z" fill="#C8AD90"/>
<path d="M74.5 48.0938H58.9688C58.6745 48.0938 58.3924 47.9769 58.1843 47.7688C57.9763 47.5608 57.8594 47.2786 57.8594 46.9844C57.8594 46.6902 57.9763 46.408 58.1843 46.1999C58.3924 45.9919 58.6745 45.875 58.9688 45.875H74.5C74.7942 45.875 75.0764 45.9919 75.2844 46.1999C75.4925 46.408 75.6094 46.6902 75.6094 46.9844C75.6094 47.2786 75.4925 47.5608 75.2844 47.7688C75.0764 47.9769 74.7942 48.0938 74.5 48.0938ZM74.5 52.5312H54.5312C54.237 52.5312 53.9549 52.4144 53.7468 52.2063C53.5388 51.9983 53.4219 51.7161 53.4219 51.4219C53.4219 51.1277 53.5388 50.8455 53.7468 50.6374C53.9549 50.4294 54.237 50.3125 54.5312 50.3125H74.5C74.7942 50.3125 75.0764 50.4294 75.2844 50.6374C75.4925 50.8455 75.6094 51.1277 75.6094 51.4219C75.6094 51.7161 75.4925 51.9983 75.2844 52.2063C75.0764 52.4144 74.7942 52.5312 74.5 52.5312ZM74.5 56.9688H54.5312C54.237 56.9688 53.9549 56.8519 53.7468 56.6438C53.5388 56.4358 53.4219 56.1536 53.4219 55.8594C53.4219 55.5652 53.5388 55.283 53.7468 55.0749C53.9549 54.8669 54.237 54.75 54.5312 54.75H74.5C74.7942 54.75 75.0764 54.8669 75.2844 55.0749C75.4925 55.283 75.6094 55.5652 75.6094 55.8594C75.6094 56.1536 75.4925 56.4358 75.2844 56.6438C75.0764 56.8519 74.7942 56.9688 74.5 56.9688ZM63.4062 61.4062H54.5312C54.237 61.4062 53.9549 61.2894 53.7468 61.0813C53.5388 60.8733 53.4219 60.5911 53.4219 60.2969C53.4219 60.0027 53.5388 59.7205 53.7468 59.5124C53.9549 59.3044 54.237 59.1875 54.5312 59.1875H63.4062C63.7005 59.1875 63.9826 59.3044 64.1907 59.5124C64.3987 59.7205 64.5156 60.0027 64.5156 60.2969C64.5156 60.5911 64.3987 60.8733 64.1907 61.0813C63.9826 61.2894 63.7005 61.4062 63.4062 61.4062ZM93.3594 86.9219H86.7031C86.4089 86.9219 86.1267 86.805 85.9187 86.5969C85.7106 86.3889 85.5938 86.1067 85.5938 85.8125C85.5938 85.5183 85.7106 85.2361 85.9187 85.0281C86.1267 84.82 86.4089 84.7031 86.7031 84.7031H93.3594C93.6536 84.7031 93.9358 84.82 94.1438 85.0281C94.3519 85.2361 94.4688 85.5183 94.4688 85.8125C94.4688 86.1067 94.3519 86.3889 94.1438 86.5969C93.9358 86.805 93.6536 86.9219 93.3594 86.9219ZM93.3594 91.3594H82.2656C81.9714 91.3594 81.6892 91.2425 81.4812 91.0344C81.2731 90.8264 81.1562 90.5442 81.1562 90.25C81.1562 89.9558 81.2731 89.6736 81.4812 89.4656C81.6892 89.2575 81.9714 89.1406 82.2656 89.1406H93.3594C93.6536 89.1406 93.9358 89.2575 94.1438 89.4656C94.3519 89.6736 94.4688 89.9558 94.4688 90.25C94.4688 90.5442 94.3519 90.8264 94.1438 91.0344C93.9358 91.2425 93.6536 91.3594 93.3594 91.3594ZM93.3594 95.7969H82.2656C81.9714 95.7969 81.6892 95.68 81.4812 95.4719C81.2731 95.2639 81.1562 94.9817 81.1562 94.6875C81.1562 94.3933 81.2731 94.1111 81.4812 93.9031C81.6892 93.695 81.9714 93.5781 82.2656 93.5781H93.3594C93.6536 93.5781 93.9358 93.695 94.1438 93.9031C94.3519 94.1111 94.4688 94.3933 94.4688 94.6875C94.4688 94.9817 94.3519 95.2639 94.1438 95.4719C93.9358 95.68 93.6536 95.7969 93.3594 95.7969ZM86.7031 100.234H82.2656C81.9714 100.234 81.6892 100.117 81.4812 99.9094C81.2731 99.7014 81.1562 99.4192 81.1562 99.125C81.1562 98.8308 81.2731 98.5486 81.4812 98.3406C81.6892 98.1325 81.9714 98.0156 82.2656 98.0156H86.7031C86.9973 98.0156 87.2795 98.1325 87.4876 98.3406C87.6956 98.5486 87.8125 98.8308 87.8125 99.125C87.8125 99.4192 87.6956 99.7014 87.4876 99.9094C87.2795 100.117 86.9973 100.234 86.7031 100.234ZM74.5 68.0625H58.9688C58.6745 68.0625 58.3924 67.9456 58.1843 67.7376C57.9763 67.5295 57.8594 67.2473 57.8594 66.9531C57.8594 66.6589 57.9763 66.3767 58.1843 66.1687C58.3924 65.9606 58.6745 65.8438 58.9688 65.8438H74.5C74.7942 65.8438 75.0764 65.9606 75.2844 66.1687C75.4925 66.3767 75.6094 66.6589 75.6094 66.9531C75.6094 67.2473 75.4925 67.5295 75.2844 67.7376C75.0764 67.9456 74.7942 68.0625 74.5 68.0625ZM63.4062 72.5H54.5312C54.237 72.5 53.9549 72.3831 53.7468 72.1751C53.5388 71.967 53.4219 71.6848 53.4219 71.3906C53.4219 71.0964 53.5388 70.8142 53.7468 70.6062C53.9549 70.3981 54.237 70.2812 54.5312 70.2812H63.4062C63.7005 70.2812 63.9826 70.3981 64.1907 70.6062C64.3987 70.8142 64.5156 71.0964 64.5156 71.3906C64.5156 71.6848 64.3987 71.967 64.1907 72.1751C63.9826 72.3831 63.7005 72.5 63.4062 72.5Z" fill="#57555C"/>
<path d="M67.8438 61.4062C68.4564 61.4062 68.9531 60.9096 68.9531 60.2969C68.9531 59.6842 68.4564 59.1875 67.8438 59.1875C67.2311 59.1875 66.7344 59.6842 66.7344 60.2969C66.7344 60.9096 67.2311 61.4062 67.8438 61.4062Z" fill="#57555C"/>
<path d="M67.8438 72.5C68.4564 72.5 68.9531 72.0033 68.9531 71.3906C68.9531 70.7779 68.4564 70.2812 67.8438 70.2812C67.2311 70.2812 66.7344 70.7779 66.7344 71.3906C66.7344 72.0033 67.2311 72.5 67.8438 72.5Z" fill="#57555C"/>
<path d="M91.1406 100.234C91.7533 100.234 92.25 99.7377 92.25 99.125C92.25 98.5123 91.7533 98.0156 91.1406 98.0156C90.5279 98.0156 90.0312 98.5123 90.0312 99.125C90.0312 99.7377 90.5279 100.234 91.1406 100.234Z" fill="#57555C"/>
<path d="M95.5781 52.5312V65.8438H82.2656C82.2656 58.4886 88.223 52.5312 95.5781 52.5312Z" fill="#FFB74F"/>
<path d="M104.997 75.2623C102.59 77.6697 99.2619 79.1562 95.5788 79.1562C91.8956 79.1562 88.5675 77.6697 86.1602 75.2623L95.5788 65.8438L104.997 75.2623Z" fill="#84CAFF"/>
<path d="M108.891 65.8438C108.891 69.5269 107.404 72.855 104.997 75.2623L95.5781 65.8438V52.5312C102.933 52.5312 108.891 58.4886 108.891 65.8438Z" fill="#00A6FF"/>
<path d="M95.5782 65.8438L86.1596 75.2623C84.9218 74.0265 83.9406 72.5582 83.2724 70.9418C82.6041 69.3254 82.262 67.5928 82.2657 65.8438H95.5782Z" fill="#FF9A00"/>
<path d="M44.5469 100.234V89.1406C44.5469 88.5294 45.045 88.0312 45.6562 88.0312H50.0938C50.705 88.0312 51.2031 88.5294 51.2031 89.1406V100.234H44.5469Z" fill="#FFB74F"/>
<path d="M51.2031 100.234V84.7031C51.2031 84.0919 51.7012 83.5938 52.3125 83.5938H56.75C57.3613 83.5938 57.8594 84.0919 57.8594 84.7031V100.234H51.2031Z" fill="#FF9A00"/>
<path d="M57.8594 100.234V86.9219C57.8594 86.3106 58.3575 85.8125 58.9688 85.8125H63.4062C64.0175 85.8125 64.5156 86.3106 64.5156 86.9219V100.234H57.8594Z" fill="#84CAFF"/>
<path d="M64.5156 100.234V79.1562C64.5156 78.545 65.0137 78.0469 65.625 78.0469H70.0625C70.6738 78.0469 71.1719 78.545 71.1719 79.1562V100.234H64.5156Z" fill="#00A6FF"/>
<path d="M75.6094 101.344H40.1094C39.8152 101.344 39.533 101.227 39.3249 101.019C39.1169 100.811 39 100.529 39 100.234C39 99.9402 39.1169 99.658 39.3249 99.4499C39.533 99.2419 39.8152 99.125 40.1094 99.125H75.6094C75.9036 99.125 76.1858 99.2419 76.3938 99.4499C76.6019 99.658 76.7188 99.9402 76.7188 100.234C76.7188 100.529 76.6019 100.811 76.3938 101.019C76.1858 101.227 75.9036 101.344 75.6094 101.344Z" fill="#C8AD90"/>
</g>
<defs>
<filter id="filter0_d_1778_186" x="0.666667" y="0.571429" width="146.667" height="146.667" filterUnits="userSpaceOnUse" color-interpolation-filters="sRGB">
<feFlood flood-opacity="0" result="BackgroundImageFix"/>
<feColorMatrix in="SourceAlpha" type="matrix" values="0 0 0 0 0 0 0 0 0 0 0 0 0 0 0 0 0 0 127 0" result="hardAlpha"/>
<feOffset dy="1.90476"/>
<feGaussianBlur stdDeviation="6.66667"/>
<feComposite in2="hardAlpha" operator="out"/>
<feColorMatrix type="matrix" values="0 0 0 0 0.695898 0 0 0 0 0.695898 0 0 0 0 0.695898 0 0 0 0.25 0"/>
<feBlend mode="normal" in2="BackgroundImageFix" result="effect1_dropShadow_1778_186"/>
<feBlend mode="normal" in="SourceGraphic" in2="effect1_dropShadow_1778_186" result="shape"/>
</filter>
<clipPath id="clip0_1778_186">
<rect width="71" height="71" fill="white" transform="translate(39 37)"/>
</clipPath>
</defs>
</svg>
