<svg width="148" height="148" viewBox="0 0 148 148" fill="none" xmlns="http://www.w3.org/2000/svg">
<g filter="url(#filter0_d_1273_244)">
<circle cx="74" cy="72" r="60" fill="white"/>
</g>
<path d="M103.344 51.4219H45.6562C43.8182 51.4219 42.3281 52.9119 42.3281 54.75V96.9062C42.3281 98.7443 43.8182 100.234 45.6562 100.234H103.344C105.182 100.234 106.672 98.7443 106.672 96.9062V54.75C106.672 52.9119 105.182 51.4219 103.344 51.4219Z" fill="#F5F5F5"/>
<path d="M48.8956 56.5472C48.8714 56.4765 48.8378 56.4093 48.7958 56.3475L48.6627 56.1811L48.4963 56.048C48.4344 56.0059 48.3673 55.9724 48.2966 55.9481C48.2337 55.9161 48.1664 55.8936 48.0969 55.8815C47.8807 55.8362 47.6558 55.8595 47.4534 55.9481C47.319 56.0044 47.1952 56.0832 47.0873 56.1811L46.9542 56.3475C46.9122 56.4093 46.8786 56.4765 46.8544 56.5472C46.8223 56.61 46.7999 56.6773 46.7878 56.7469C46.7749 56.8202 46.7675 56.8943 46.7656 56.9687C46.7674 57.1137 46.7975 57.2569 46.8544 57.3903C46.9042 57.528 46.9837 57.653 47.0872 57.7565C47.1907 57.86 47.3158 57.9395 47.4534 57.9894C47.5868 58.0462 47.73 58.0764 47.875 58.0781C47.9494 58.0762 48.0236 58.0688 48.0969 58.0559C48.1664 58.0438 48.2337 58.0214 48.2966 57.9894C48.3673 57.9651 48.4344 57.9315 48.4963 57.8895L48.6627 57.7564C48.7606 57.6485 48.8393 57.5247 48.8956 57.3903C48.9525 57.2569 48.9826 57.1137 48.9844 56.9687C48.9825 56.8943 48.9751 56.8202 48.9622 56.7469C48.9501 56.6773 48.9277 56.61 48.8956 56.5472ZM51.5248 56.1811C51.3223 56.3938 51.2074 56.6751 51.2031 56.9687C51.2049 57.1137 51.235 57.2569 51.2919 57.3903C51.3455 57.5261 51.4246 57.6503 51.5248 57.7564C51.5776 57.8041 51.6331 57.8486 51.6912 57.8895C51.7531 57.9315 51.8202 57.9651 51.8909 57.9894C51.9538 58.0214 52.0211 58.0438 52.0906 58.0559C52.2371 58.0855 52.3879 58.0855 52.5344 58.0559C52.6039 58.0438 52.6712 58.0214 52.7341 57.9894C52.8048 57.9651 52.8719 57.9315 52.9338 57.8895C52.9919 57.8486 53.0474 57.8041 53.1002 57.7564C53.2004 57.6503 53.2795 57.5261 53.3331 57.3903C53.39 57.2569 53.4201 57.1137 53.4219 56.9687C53.4232 56.7484 53.3588 56.5326 53.237 56.349C53.1152 56.1654 52.9414 56.0222 52.7379 55.9377C52.5344 55.8532 52.3104 55.8312 52.0943 55.8746C51.8783 55.9179 51.68 56.0246 51.5248 56.1811ZM57.7706 56.5472C57.7143 56.4128 57.6356 56.289 57.5377 56.1811C57.4335 56.0784 57.3087 55.999 57.1716 55.9481C56.9686 55.8689 56.7473 55.8487 56.5333 55.89C56.3193 55.9312 56.1214 56.0321 55.9623 56.1811C55.8644 56.289 55.7857 56.4128 55.7294 56.5472C55.6708 56.68 55.6406 56.8236 55.6406 56.9687C55.6406 57.1139 55.6708 57.2575 55.7294 57.3903C55.7857 57.5247 55.8644 57.6485 55.9623 57.7564C56.0151 57.8041 56.0706 57.8486 56.1287 57.8895C56.1906 57.9315 56.2577 57.9651 56.3284 57.9894C56.3913 58.0214 56.4586 58.0438 56.5281 58.0559C56.6014 58.0688 56.6756 58.0762 56.75 58.0781C56.8955 58.0819 57.0399 58.0515 57.1716 57.9894C57.3073 57.9357 57.4316 57.8567 57.5377 57.7564C57.7402 57.5437 57.8551 57.2624 57.8594 56.9687C57.8576 56.8238 57.8275 56.6805 57.7706 56.5472Z" fill="#FFA91F"/>
<path d="M55.6406 65.8438H48.9844C47.759 65.8438 46.7656 66.8371 46.7656 68.0625V70.2812C46.7656 71.5066 47.759 72.5 48.9844 72.5H55.6406C56.866 72.5 57.8594 71.5066 57.8594 70.2812V68.0625C57.8594 66.8371 56.866 65.8438 55.6406 65.8438Z" fill="#00A6FF"/>
<path d="M56.75 76.9375H47.875C47.5808 76.9375 47.2986 76.8206 47.0906 76.6126C46.8825 76.4045 46.7656 76.1223 46.7656 75.8281C46.7656 75.5339 46.8825 75.2517 47.0906 75.0437C47.2986 74.8356 47.5808 74.7188 47.875 74.7188H56.75C57.0442 74.7188 57.3264 74.8356 57.5344 75.0437C57.7425 75.2517 57.8594 75.5339 57.8594 75.8281C57.8594 76.1223 57.7425 76.4045 57.5344 76.6126C57.3264 76.8206 57.0442 76.9375 56.75 76.9375ZM56.75 81.375H47.875C47.5808 81.375 47.2986 81.2581 47.0906 81.0501C46.8825 80.842 46.7656 80.5598 46.7656 80.2656C46.7656 79.9714 46.8825 79.6892 47.0906 79.4812C47.2986 79.2731 47.5808 79.1562 47.875 79.1562H56.75C57.0442 79.1562 57.3264 79.2731 57.5344 79.4812C57.7425 79.6892 57.8594 79.9714 57.8594 80.2656C57.8594 80.5598 57.7425 80.842 57.5344 81.0501C57.3264 81.2581 57.0442 81.375 56.75 81.375ZM101.125 93.5781H61.1875C60.8933 93.5781 60.6111 93.4612 60.4031 93.2532C60.195 93.0451 60.0781 92.763 60.0781 92.4688C60.0781 92.1745 60.195 91.8924 60.4031 91.6843C60.6111 91.4763 60.8933 91.3594 61.1875 91.3594H101.125C101.419 91.3594 101.701 91.4763 101.909 91.6843C102.117 91.8924 102.234 92.1745 102.234 92.4688C102.234 92.763 102.117 93.0451 101.909 93.2532C101.701 93.4612 101.419 93.5781 101.125 93.5781Z" fill="#57555C"/>
<path d="M95.5781 44.7656H66.7344C65.8517 44.7656 65.0052 45.1163 64.381 45.7404C63.7569 46.3646 63.4063 47.2111 63.4062 48.0938V83.5938C63.4062 83.888 63.5231 84.1702 63.7312 84.3782C63.9392 84.5862 64.2214 84.7031 64.5156 84.7031H97.7969C98.0911 84.7031 98.3733 84.5862 98.5813 84.3782C98.7894 84.1702 98.9062 83.888 98.9062 83.5938V48.0938C98.9062 47.2111 98.5556 46.3646 97.9315 45.7404C97.3073 45.1163 96.4608 44.7656 95.5781 44.7656Z" fill="#FFB74F"/>
<path d="M90.0301 49.2031C89.1734 49.2041 88.3352 49.4531 87.6169 49.92C86.8985 50.3869 86.3307 51.0517 85.982 51.8343C85.6332 52.6168 85.5184 53.4836 85.6515 54.3299C85.7846 55.1763 86.1599 55.966 86.732 56.6038C86.8361 56.7189 86.9634 56.8109 87.1053 56.8738C87.2473 56.9366 87.4009 56.969 87.5562 56.9688H87.5662C87.7228 56.9672 87.8774 56.9325 88.0196 56.8669C88.1619 56.8013 88.2887 56.7063 88.3916 56.5882C88.604 56.3682 88.8586 56.1932 89.1401 56.0737C89.4216 55.9542 89.7243 55.8926 90.0301 55.8926C90.336 55.8926 90.6387 55.9542 90.9202 56.0737C91.2017 56.1932 91.4562 56.3682 91.6687 56.5882C91.7716 56.7063 91.8983 56.8013 92.0406 56.8669C92.1829 56.9325 92.3374 56.9672 92.494 56.9688H92.504C92.6593 56.969 92.8129 56.9366 92.9549 56.8738C93.0969 56.8109 93.2241 56.7189 93.3283 56.6038C93.9004 55.966 94.2756 55.1763 94.4087 54.3299C94.5418 53.4836 94.427 52.6168 94.0783 51.8343C93.7295 51.0517 93.1617 50.3869 92.4434 49.92C91.725 49.4531 90.8869 49.2041 90.0301 49.2031Z" fill="#FFE670"/>
<path d="M93.3416 55.1306C92.7433 54.4603 91.9557 53.9875 91.0828 53.7746C90.21 53.5617 89.2931 53.6187 88.4534 53.9382C87.6137 54.2577 86.8907 54.8245 86.3801 55.5637C85.8695 56.3029 85.5953 57.1797 85.5938 58.0782C85.5938 59.2551 86.0613 60.3838 86.8935 61.216C87.7257 62.0482 88.8544 62.5157 90.0312 62.5157C91.2081 62.5157 92.3368 62.0482 93.169 61.216C94.0012 60.3838 94.4688 59.2551 94.4688 58.0782C94.4708 56.99 94.0692 55.9398 93.3416 55.1306Z" fill="#FF7A53"/>
<path d="M86.7031 80.2656C86.4089 80.2656 86.1267 80.1487 85.9187 79.9407C85.7106 79.7326 85.5938 79.4505 85.5938 79.1562V74.7188C85.5938 74.4245 85.7106 74.1424 85.9187 73.9343C86.1267 73.7263 86.4089 73.6094 86.7031 73.6094C86.9973 73.6094 87.2795 73.7263 87.4876 73.9343C87.6956 74.1424 87.8125 74.4245 87.8125 74.7188V79.1562C87.8125 79.4505 87.6956 79.7326 87.4876 79.9407C87.2795 80.1487 86.9973 80.2656 86.7031 80.2656ZM86.7031 71.3906C86.4089 71.3906 86.1267 71.2737 85.9187 71.0657C85.7106 70.8576 85.5938 70.5755 85.5938 70.2812V65.8438C85.5938 65.5495 85.7106 65.2674 85.9187 65.0593C86.1267 64.8513 86.4089 64.7344 86.7031 64.7344C86.9973 64.7344 87.2795 64.8513 87.4876 65.0593C87.6956 65.2674 87.8125 65.5495 87.8125 65.8438V70.2812C87.8125 70.5755 87.6956 70.8576 87.4876 71.0657C87.2795 71.2737 86.9973 71.3906 86.7031 71.3906ZM93.3594 84.7031C93.0652 84.7031 92.783 84.5862 92.5749 84.3782C92.3669 84.1701 92.25 83.888 92.25 83.5938V65.8438C92.25 65.5495 92.3669 65.2674 92.5749 65.0593C92.783 64.8513 93.0652 64.7344 93.3594 64.7344C93.6536 64.7344 93.9358 64.8513 94.1438 65.0593C94.3519 65.2674 94.4688 65.5495 94.4688 65.8438V83.5938C94.4688 83.888 94.3519 84.1701 94.1438 84.3782C93.9358 84.5862 93.6536 84.7031 93.3594 84.7031Z" fill="#78777F"/>
<path d="M75.6094 84.7031H68.9531C68.6589 84.7031 68.3767 84.5862 68.1687 84.3782C67.9606 84.1702 67.8438 83.888 67.8438 83.5938V45.875C67.8438 45.5808 67.9606 45.2986 68.1687 45.0906C68.3767 44.8825 68.6589 44.7656 68.9531 44.7656H75.6094C75.9036 44.7656 76.1858 44.8825 76.3938 45.0906C76.6019 45.2986 76.7188 45.5808 76.7188 45.875V83.5938C76.7188 83.888 76.6019 84.1702 76.3938 84.3782C76.1858 84.5862 75.9036 84.7031 75.6094 84.7031ZM70.0625 82.4844H74.5V46.9844H70.0625V82.4844Z" fill="black"/>
<path d="M75.6075 81.375C75.3133 81.375 75.0311 81.2581 74.8231 81.05L68.1669 74.3937C67.9648 74.1845 67.853 73.9043 67.8555 73.6134C67.858 73.3225 67.9747 73.0443 68.1804 72.8386C68.3861 72.6329 68.6643 72.5162 68.9552 72.5137C69.2461 72.5112 69.5263 72.623 69.7355 72.8251L76.3918 79.4813C76.5469 79.6365 76.6525 79.8341 76.6953 80.0493C76.7381 80.2645 76.7161 80.4875 76.6322 80.6902C76.5482 80.8929 76.4061 81.0661 76.2237 81.188C76.0413 81.3099 75.8268 81.375 75.6075 81.375ZM72.2793 84.7032C71.9851 84.7031 71.703 84.5862 71.495 84.3781L68.1669 81.05C67.9648 80.8408 67.853 80.5605 67.8555 80.2697C67.858 79.9788 67.9747 79.7005 68.1804 79.4948C68.3861 79.2892 68.6643 79.1725 68.9552 79.17C69.2461 79.1674 69.5263 79.2793 69.7355 79.4813L73.0637 82.8095C73.2188 82.9646 73.3244 83.1623 73.3672 83.3774C73.41 83.5926 73.388 83.8156 73.304 84.0183C73.2201 84.221 73.0779 84.3942 72.8955 84.5161C72.7132 84.638 72.4987 84.7031 72.2793 84.7032ZM75.6075 74.7188C75.3133 74.7187 75.0311 74.6018 74.8231 74.3937L68.1669 67.7375C67.9648 67.5283 67.853 67.248 67.8555 66.9572C67.858 66.6663 67.9747 66.388 68.1804 66.1824C68.3861 65.9767 68.6643 65.86 68.9552 65.8575C69.2461 65.8549 69.5263 65.9668 69.7355 66.1688L76.3918 72.8251C76.5469 72.9802 76.6525 73.1779 76.6953 73.3931C76.7381 73.6082 76.7161 73.8312 76.6322 74.0339C76.5482 74.2366 76.4061 74.4098 76.2237 74.5317C76.0413 74.6537 75.8268 74.7187 75.6075 74.7188ZM75.6075 68.0625C75.3133 68.0625 75.0311 67.9456 74.8231 67.7375L68.1669 61.0812C67.9648 60.872 67.853 60.5918 67.8555 60.3009C67.858 60.01 67.9747 59.7318 68.1804 59.5261C68.3861 59.3204 68.6643 59.2037 68.9552 59.2012C69.2461 59.1987 69.5263 59.3105 69.7355 59.5126L76.3918 66.1688C76.5469 66.324 76.6525 66.5216 76.6953 66.7368C76.7381 66.952 76.7161 67.175 76.6322 67.3777C76.5482 67.5804 76.4061 67.7536 76.2237 67.8755C76.0413 67.9974 75.8268 68.0625 75.6075 68.0625ZM75.6075 61.4063C75.3133 61.4062 75.0311 61.2893 74.8231 61.0812L68.1669 54.425C67.9648 54.2158 67.853 53.9355 67.8555 53.6447C67.858 53.3538 67.9747 53.0755 68.1804 52.8699C68.3861 52.6642 68.6643 52.5475 68.9552 52.545C69.2461 52.5424 69.5263 52.6543 69.7355 52.8563L76.3918 59.5126C76.5469 59.6677 76.6525 59.8654 76.6953 60.0806C76.7381 60.2957 76.7161 60.5187 76.6322 60.7214C76.5482 60.9241 76.4061 61.0973 76.2237 61.2193C76.0413 61.3412 75.8268 61.4062 75.6075 61.4063ZM75.6075 54.75C75.3133 54.75 75.0311 54.6331 74.8231 54.425L68.1669 47.7687C67.9648 47.5595 67.853 47.2793 67.8555 46.9884C67.858 46.6975 67.9747 46.4193 68.1804 46.2136C68.3861 46.0079 68.6643 45.8912 68.9552 45.8887C69.2461 45.8862 69.5263 45.998 69.7355 46.2001L76.3918 52.8563C76.5469 53.0115 76.6525 53.2091 76.6953 53.4243C76.7381 53.6395 76.7161 53.8625 76.6322 54.0652C76.5482 54.2679 76.4061 54.4411 76.2237 54.563C76.0413 54.6849 75.8268 54.75 75.6075 54.75Z" fill="black"/>
<path d="M67.8438 44.7656H76.7188V84.7031H67.8438V44.7656Z" fill="#78777F"/>
<path d="M72.7472 82.4844H69.5966L67.8438 80.7316V77.5809L72.7472 82.4844ZM76.7188 79.7997V82.4844H76.2528L67.8438 74.0753V71.3906H68.3097L76.7188 79.7997ZM67.8438 64.2684L76.7188 73.1434V76.2941L67.8438 67.4191V64.2684ZM67.8438 57.6122L76.7188 66.4872V69.6378L67.8438 60.7628V57.6122ZM67.8438 50.9559L76.7188 59.8309V62.9816L67.8438 54.1066V50.9559ZM67.8438 44.7656H68.3097L76.7188 53.1747V56.3253L67.8438 47.4503V44.7656Z" fill="#AEADB3"/>
<path d="M101.125 81.375C100.831 81.375 100.549 81.4919 100.341 81.6999C100.133 81.908 100.016 82.1902 100.016 82.4844H62.2969C62.2969 82.1902 62.18 81.908 61.9719 81.6999C61.7639 81.4919 61.4817 81.375 61.1875 81.375C60.8933 81.375 60.6111 81.4919 60.4031 81.6999C60.195 81.908 60.0781 82.1902 60.0781 82.4844V86.9219C60.0781 87.5103 60.3119 88.0747 60.728 88.4908C61.1441 88.9069 61.7084 89.1406 62.2969 89.1406H100.016C100.604 89.1406 101.168 88.9069 101.585 88.4908C102.001 88.0747 102.234 87.5103 102.234 86.9219V82.4844C102.234 82.1902 102.117 81.908 101.909 81.6999C101.701 81.4919 101.419 81.375 101.125 81.375Z" fill="#57555C"/>
<defs>
<filter id="filter0_d_1273_244" x="0.666667" y="0.571429" width="146.667" height="146.667" filterUnits="userSpaceOnUse" color-interpolation-filters="sRGB">
<feFlood flood-opacity="0" result="BackgroundImageFix"/>
<feColorMatrix in="SourceAlpha" type="matrix" values="0 0 0 0 0 0 0 0 0 0 0 0 0 0 0 0 0 0 127 0" result="hardAlpha"/>
<feOffset dy="1.90476"/>
<feGaussianBlur stdDeviation="6.66667"/>
<feComposite in2="hardAlpha" operator="out"/>
<feColorMatrix type="matrix" values="0 0 0 0 0.695898 0 0 0 0 0.695898 0 0 0 0 0.695898 0 0 0 0.25 0"/>
<feBlend mode="normal" in2="BackgroundImageFix" result="effect1_dropShadow_1273_244"/>
<feBlend mode="normal" in="SourceGraphic" in2="effect1_dropShadow_1273_244" result="shape"/>
</filter>
</defs>
</svg>
