<svg width="148" height="148" viewBox="0 0 148 148" fill="none" xmlns="http://www.w3.org/2000/svg">
<g filter="url(#filter0_d_2030_3609)">
<circle cx="74" cy="72" r="60" fill="white"/>
</g>
<path d="M46.7656 61.4062H102.234C102.823 61.4062 103.387 61.64 103.803 62.0561C104.219 62.4722 104.453 63.0366 104.453 63.625V100.234H44.5469V63.625C44.5469 63.0366 44.7806 62.4722 45.1967 62.0561C45.6128 61.64 46.1772 61.4062 46.7656 61.4062Z" fill="#A7D6DD"/>
<path d="M42.3281 100.234H106.672V102.453C106.672 103.042 106.438 103.606 106.022 104.022C105.606 104.438 105.042 104.672 104.453 104.672H44.5469C43.9584 104.672 43.3941 104.438 42.978 104.022C42.5619 103.606 42.3281 103.042 42.3281 102.453V100.234Z" fill="#6CBBC7"/>
<path d="M48.9844 51.4219H100.016V95.7969H48.9844V51.4219Z" fill="#02998A"/>
<path d="M80.0469 51.4219L78.9375 40.3281H70.0625L68.9531 51.4219C68.9531 52.893 69.5375 54.3039 70.5778 55.3441C71.618 56.3843 73.0289 56.9688 74.5 56.9688C75.9711 56.9688 77.382 56.3843 78.4222 55.3441C79.4625 54.3039 80.0469 52.893 80.0469 51.4219Z" fill="#FDB62F"/>
<path d="M91.1406 51.4219L87.8125 40.3281H78.9375L80.0469 51.4219C80.0469 52.893 80.6313 54.3039 81.6715 55.3441C82.7118 56.3843 84.1226 56.9688 85.5938 56.9688C87.0649 56.9688 88.4757 56.3843 89.516 55.3441C90.5562 54.3039 91.1406 52.893 91.1406 51.4219Z" fill="#FF6536"/>
<path d="M102.234 51.4219L96.6875 40.3281H87.8125L91.1406 51.4219C91.1406 52.893 91.725 54.3039 92.7653 55.3441C93.8055 56.3843 95.2164 56.9688 96.6875 56.9688C98.1586 56.9688 99.5695 56.3843 100.61 55.3441C101.65 54.3039 102.234 52.893 102.234 51.4219Z" fill="#FDB62F"/>
<path d="M57.8594 51.4219L61.1875 40.3281H70.0625L68.9531 51.4219C68.9531 52.893 68.3687 54.3039 67.3285 55.3441C66.2882 56.3843 64.8774 56.9688 63.4062 56.9688C61.9351 56.9688 60.5243 56.3843 59.484 55.3441C58.4438 54.3039 57.8594 52.893 57.8594 51.4219Z" fill="#FF6536"/>
<path d="M57.8594 51.4219C57.8594 52.893 57.275 54.3039 56.2347 55.3441C55.1945 56.3843 53.7836 56.9688 52.3125 56.9688C50.8414 56.9688 49.4305 56.3843 48.3903 55.3441C47.35 54.3039 46.7656 52.893 46.7656 51.4219L52.3125 40.3281H61.1875L57.8594 51.4219ZM93.5169 66.9531H62.0972L60.9878 61.4062H55.6406V63.625H59.1684L60.0471 68.017L63.6059 85.8125H91.0075L93.5169 66.9531ZM89.0605 83.5938H65.4253L62.5409 69.1719H90.9831L89.0605 83.5938ZM65.625 89.1406C65.625 89.7989 65.8202 90.4423 66.1859 90.9896C66.5516 91.5369 67.0714 91.9635 67.6795 92.2154C68.2876 92.4673 68.9568 92.5332 69.6024 92.4048C70.248 92.2764 70.841 91.9594 71.3065 91.494C71.7719 91.0285 72.0889 90.4355 72.2173 89.7899C72.3457 89.1443 72.2798 88.4751 72.0279 87.867C71.776 87.2589 71.3494 86.7391 70.8021 86.3734C70.2548 86.0077 69.6114 85.8125 68.9531 85.8125C68.0705 85.8125 67.2239 86.1631 66.5998 86.7873C65.9756 87.4114 65.625 88.2579 65.625 89.1406ZM68.9531 88.0312C69.1725 88.0312 69.387 88.0963 69.5695 88.2182C69.7519 88.3401 69.8941 88.5134 69.9781 88.7161C70.062 88.9188 70.084 89.1419 70.0412 89.3571C69.9984 89.5723 69.8927 89.7699 69.7376 89.9251C69.5824 90.0802 69.3848 90.1859 69.1696 90.2287C68.9544 90.2715 68.7313 90.2495 68.5286 90.1656C68.3259 90.0816 68.1526 89.9394 68.0307 89.757C67.9088 89.5745 67.8438 89.36 67.8438 89.1406C67.8438 88.8464 67.9606 88.5642 68.1687 88.3562C68.3767 88.1481 68.6589 88.0312 68.9531 88.0312ZM82.2656 89.1406C82.2656 89.7989 82.4608 90.4423 82.8265 90.9896C83.1922 91.5369 83.712 91.9635 84.3201 92.2154C84.9283 92.4673 85.5974 92.5332 86.243 92.4048C86.8886 92.2764 87.4816 91.9594 87.9471 91.494C88.4125 91.0285 88.7295 90.4355 88.8579 89.7899C88.9863 89.1443 88.9204 88.4751 88.6685 87.867C88.4166 87.2589 87.9901 86.7391 87.4428 86.3734C86.8955 86.0077 86.252 85.8125 85.5938 85.8125C84.7111 85.8125 83.8646 86.1631 83.2404 86.7873C82.6163 87.4114 82.2656 88.2579 82.2656 89.1406ZM85.5938 88.0312C85.8132 88.0312 86.0276 88.0963 86.2101 88.2182C86.3925 88.3401 86.5347 88.5134 86.6187 88.7161C86.7026 88.9188 86.7246 89.1419 86.6818 89.3571C86.639 89.5723 86.5333 89.7699 86.3782 89.9251C86.223 90.0802 86.0254 90.1859 85.8102 90.2287C85.595 90.2715 85.3719 90.2495 85.1692 90.1656C84.9665 90.0816 84.7932 89.9394 84.6713 89.757C84.5494 89.5745 84.4844 89.36 84.4844 89.1406C84.4844 88.8464 84.6013 88.5642 84.8093 88.3562C85.0173 88.1481 85.2995 88.0312 85.5938 88.0312Z" fill="#FDB62F"/>
<defs>
<filter id="filter0_d_2030_3609" x="0.666667" y="0.571429" width="146.667" height="146.667" filterUnits="userSpaceOnUse" color-interpolation-filters="sRGB">
<feFlood flood-opacity="0" result="BackgroundImageFix"/>
<feColorMatrix in="SourceAlpha" type="matrix" values="0 0 0 0 0 0 0 0 0 0 0 0 0 0 0 0 0 0 127 0" result="hardAlpha"/>
<feOffset dy="1.90476"/>
<feGaussianBlur stdDeviation="6.66667"/>
<feComposite in2="hardAlpha" operator="out"/>
<feColorMatrix type="matrix" values="0 0 0 0 0.695898 0 0 0 0 0.695898 0 0 0 0 0.695898 0 0 0 0.25 0"/>
<feBlend mode="normal" in2="BackgroundImageFix" result="effect1_dropShadow_2030_3609"/>
<feBlend mode="normal" in="SourceGraphic" in2="effect1_dropShadow_2030_3609" result="shape"/>
</filter>
</defs>
</svg>
