<svg width="148" height="148" viewBox="0 0 148 148" fill="none" xmlns="http://www.w3.org/2000/svg">
<g filter="url(#filter0_d_2030_1648)">
<circle cx="74" cy="72" r="60" fill="white"/>
</g>
<path d="M92.3987 53.3894C92.3987 55.5059 91.6062 57.4458 90.2812 58.9723C90.2812 58.9723 90.2457 59.0078 90.1872 59.0903C89.7852 59.5518 88.3057 61.3498 87.9873 62.9462H77.8489C77.5304 61.3487 76.0509 59.5529 75.6489 59.0903C75.5905 59.0078 75.555 58.9723 75.555 58.9723C74.2289 57.4458 73.4375 55.5059 73.4375 53.3894C73.4375 48.503 77.6839 44.5405 82.9244 44.5405C88.1523 44.5405 92.3987 48.504 92.3987 53.3894Z" fill="#FFD80C"/>
<path d="M92.3978 53.3884C92.3978 55.5038 91.6043 57.4469 90.2824 58.9702C90.2824 58.9702 90.2469 59.0057 90.1874 59.0893C89.7844 59.5508 88.3038 61.3508 87.9843 62.9462H85.4931C85.8126 61.3508 87.289 59.5508 87.692 59.0893C87.7203 59.0473 87.7518 59.0076 87.786 58.9702C89.1099 57.4458 89.9034 55.5038 89.9034 53.3884C89.9034 48.8987 86.319 45.1889 81.6758 44.6199C82.083 44.5677 82.5006 44.5405 82.9235 44.5405C88.1504 44.5405 92.3978 48.505 92.3978 53.3884Z" fill="#FFBE00"/>
<path d="M88.9321 64.2357C88.9321 64.9572 88.3526 65.5367 87.6312 65.5367H78.2049C77.8615 65.5367 77.5322 65.4003 77.2894 65.1575C77.0466 64.9147 76.9102 64.5854 76.9102 64.242C76.9102 63.8986 77.0466 63.5693 77.2894 63.3265C77.5322 63.0837 77.8615 62.9473 78.2049 62.9473H87.6312C87.8012 62.9465 87.9697 62.9791 88.1271 63.0434C88.2845 63.1077 88.4277 63.2024 88.5485 63.3221C88.6693 63.4417 88.7654 63.584 88.8312 63.7407C88.897 63.8975 88.9313 64.0657 88.9321 64.2357Z" fill="#5E7599"/>
<path d="M88.93 64.2368C88.9306 64.4078 88.8972 64.5772 88.832 64.7353C88.7667 64.8933 88.6707 65.0368 88.5497 65.1576C88.4286 65.2784 88.2849 65.374 88.1267 65.4389C87.9685 65.5038 87.799 65.5367 87.628 65.5357H85.1367C85.4801 65.5357 85.8094 65.3993 86.0522 65.1565C86.295 64.9137 86.4314 64.5844 86.4314 64.241C86.4314 63.8976 86.295 63.5683 86.0522 63.3255C85.8094 63.0827 85.4801 62.9463 85.1367 62.9463H87.628C88.3505 62.9463 88.93 63.5258 88.93 64.2368Z" fill="#435E88"/>
<path d="M87.9633 66.8262C87.9633 67.5477 87.3838 68.1272 86.6613 68.1272H79.1697C78.8263 68.1272 78.497 67.9907 78.2542 67.7479C78.0114 67.5051 77.875 67.1758 77.875 66.8324C77.875 66.4891 78.0114 66.1598 78.2542 65.917C78.497 65.6741 78.8263 65.5377 79.1697 65.5377H86.6613C86.8314 65.5368 87 65.5693 87.1575 65.6336C87.315 65.6978 87.4583 65.7925 87.5793 65.9121C87.7002 66.0318 87.7963 66.1741 87.8622 66.331C87.9281 66.4878 87.9624 66.6561 87.9633 66.8262Z" fill="#435E88"/>
<path d="M87.9623 66.8272C87.9623 67.5487 87.3818 68.1251 86.6592 68.1251H84.168C84.5113 68.1251 84.8407 67.9886 85.0835 67.7458C85.3263 67.503 85.4627 67.1737 85.4627 66.8304C85.4627 66.487 85.3263 66.1577 85.0835 65.9149C84.8407 65.6721 84.5113 65.5356 84.168 65.5356H86.6592C87.3818 65.5356 87.9623 66.1162 87.9623 66.8272Z" fill="#33527D"/>
<path d="M84.832 62.9463H83.7555V56.2284H82.0765V62.9463H81V56.2284H80.0739C79.0444 56.2284 78.207 55.39 78.207 54.3605C78.207 53.331 79.0444 52.4926 80.0739 52.4926H80.2096C80.705 52.4931 81.1798 52.6903 81.5299 53.0407C81.8799 53.3911 82.0765 53.8662 82.0765 54.3615V55.1519H83.7555V54.3605C83.756 53.8655 83.9529 53.391 84.3029 53.041C84.6529 52.691 85.1274 52.4941 85.6224 52.4936H85.7581C86.2532 52.4939 86.728 52.6906 87.0782 53.0406C87.4285 53.3907 87.6255 53.8653 87.626 54.3605C87.6257 54.856 87.4287 55.3311 87.0782 55.6814C86.7278 56.0316 86.2525 56.2284 85.757 56.2284H84.832V62.9463ZM84.832 55.1519H85.7581C85.9629 55.1445 86.1568 55.0579 86.2991 54.9104C86.4413 54.7629 86.5208 54.5659 86.5208 54.361C86.5208 54.1561 86.4413 53.9591 86.2991 53.8116C86.1568 53.6641 85.9629 53.5775 85.7581 53.5701H85.6224C85.4128 53.5704 85.2119 53.6537 85.0638 53.8019C84.9156 53.9501 84.8322 54.1509 84.832 54.3605V55.1519ZM80.0739 53.5701C79.8691 53.5775 79.6752 53.6641 79.5329 53.8116C79.3907 53.9591 79.3112 54.1561 79.3112 54.361C79.3112 54.5659 79.3907 54.7629 79.5329 54.9104C79.6752 55.0579 79.8691 55.1445 80.0739 55.1519H81V54.3605C80.9998 54.1508 80.9163 53.9497 80.7679 53.8015C80.6195 53.6533 80.4183 53.5701 80.2086 53.5701H80.0739Z" fill="white"/>
<path opacity="0.3" d="M79.0666 50.5265C77.8721 51.7209 76.4531 52.2179 75.8966 51.6614C75.3286 51.0945 75.8382 49.6745 77.0211 48.4925C78.2156 47.297 79.6346 46.7885 80.1911 47.3565C80.758 47.9245 80.2496 49.3435 79.0666 50.5265Z" fill="white"/>
<path d="M85.3084 68.1251C85.3081 68.7592 85.0561 69.3672 84.6077 69.8155C84.1594 70.2639 83.5514 70.5159 82.9173 70.5162C82.2835 70.5156 81.6757 70.2635 81.2276 69.8152C80.7795 69.3668 80.5276 68.759 80.5273 68.1251H85.3084Z" fill="#33527D"/>
<path d="M89.4929 40.6303C89.4912 40.8072 89.4195 40.9761 89.2935 41.1002L87.1843 43.2093C87.11 43.2847 87.0186 43.3413 86.918 43.3743C86.8173 43.4072 86.7103 43.4157 86.6057 43.399C86.5011 43.3822 86.402 43.3407 86.3167 43.278C86.2314 43.2152 86.1623 43.1329 86.1152 43.0381C86.0565 42.9062 86.04 42.7594 86.0679 42.6178C86.0957 42.4761 86.1665 42.3465 86.2707 42.2466L88.3297 40.1876C88.4298 40.0834 88.5596 40.0125 88.7014 39.9846C88.8432 39.9568 88.9902 39.9733 89.1222 40.0321C89.2338 40.0871 89.3277 40.1724 89.3932 40.2782C89.4587 40.3839 89.4932 40.5059 89.4929 40.6303ZM83.3869 39.2824C83.5109 39.4088 83.5796 39.5793 83.578 39.7564V42.7395C83.5787 42.8454 83.5541 42.9499 83.5062 43.0444C83.4584 43.1389 83.3886 43.2205 83.3028 43.2826C83.2171 43.3447 83.1177 43.3854 83.013 43.4014C82.9083 43.4173 82.8013 43.408 82.7009 43.3743C82.5662 43.3223 82.4508 43.2301 82.3704 43.1101C82.2901 42.9901 82.2487 42.8483 82.2519 42.704V39.7909C82.2519 39.4985 82.4232 39.2197 82.7009 39.1226C82.8187 39.0824 82.9455 39.076 83.0668 39.1042C83.188 39.1325 83.299 39.1942 83.3869 39.2824ZM77.0031 39.9694C77.18 39.9711 77.3489 40.0428 77.473 40.1688L79.5821 42.278C79.6573 42.3523 79.7137 42.4436 79.7465 42.5441C79.7794 42.6447 79.7878 42.7516 79.7711 42.856C79.7543 42.9605 79.7129 43.0594 79.6503 43.1446C79.5876 43.2299 79.5056 43.2989 79.4109 43.3461C79.2791 43.4048 79.1324 43.4215 78.9907 43.3939C78.8491 43.3662 78.7195 43.2956 78.6194 43.1916L76.5594 41.1326C76.4552 41.0325 76.3844 40.9026 76.3567 40.7608C76.3291 40.6189 76.3459 40.472 76.4049 40.3401C76.4599 40.2285 76.5452 40.1346 76.651 40.0691C76.7567 40.0036 76.8787 39.9691 77.0031 39.9694Z" fill="#FFD80C"/>
<path d="M59.8164 65.5189H103.442C103.848 65.519 104.249 65.6154 104.611 65.8001C104.972 65.9849 105.285 66.2528 105.524 66.5818C105.762 66.9109 105.919 67.2918 105.982 67.6932C106.045 68.0947 106.012 68.5053 105.885 68.8914L99.6203 87.9936C99.3929 88.6865 98.9525 89.2899 98.3619 89.7176C97.7712 90.1453 97.0605 90.3754 96.3313 90.3752H66.7671L59.8164 65.5189Z" fill="#5CBEFF"/>
<path d="M105.893 68.8977L99.6201 87.9977C99.3931 88.6901 98.9525 89.2927 98.3616 89.7189C97.7706 90.1452 97.0597 90.3731 96.3311 90.37H66.7617L103.446 65.5189C105.193 65.5189 106.429 67.2281 105.893 68.8977Z" fill="#079CFF"/>
<path d="M95.6094 97.7258C95.6094 98.6123 94.8911 99.3306 94.0057 99.3306H71.7994C70.5141 99.3277 69.265 98.9049 68.2421 98.1267C67.2192 97.3485 66.4786 96.2574 66.1329 95.0194L57.4856 63.8003C57.3913 63.4627 57.1894 63.1651 56.9104 62.9529C56.6315 62.7407 56.2908 62.6254 55.9403 62.6246H47.9319C47.5065 62.6246 47.0986 62.4557 46.7979 62.1549C46.4971 61.8541 46.3281 61.4462 46.3281 61.0209C46.3281 60.5955 46.4971 60.1876 46.7979 59.8868C47.0986 59.5861 47.5065 59.4171 47.9319 59.4171H55.9382C56.9896 59.4193 58.0115 59.765 58.8483 60.4015C59.6852 61.038 60.2912 61.9305 60.5741 62.9431L68.8978 92.9876C69.1473 93.8889 69.6855 94.6836 70.4298 95.25C71.1742 95.8163 72.0836 96.123 73.0189 96.1231H94.0046C94.89 96.1231 95.6084 96.8414 95.6084 97.7268L95.6094 97.7258Z" fill="#33527D"/>
<path d="M79.5915 101.022C79.5904 102.32 79.0735 103.565 78.1547 104.482C77.2359 105.4 75.9903 105.914 74.692 105.913C73.3936 105.912 72.1489 105.395 71.2316 104.476C70.3144 103.558 69.7997 102.312 69.8008 101.014C69.8019 99.7154 70.3187 98.4707 71.2376 97.5534C72.1564 96.6361 73.402 96.1215 74.7003 96.1226C75.9986 96.1237 77.2433 96.6405 78.1606 97.5593C79.0779 98.4782 79.5926 99.7238 79.5915 101.022Z" fill="#435E88"/>
<path d="M77.3798 72.5438V83.3504C77.3798 83.8286 77.1898 84.2873 76.8517 84.6255C76.5135 84.9636 76.0549 85.1536 75.5766 85.1536C75.0984 85.1536 74.6397 84.9636 74.3016 84.6255C73.9634 84.2873 73.7734 83.8286 73.7734 83.3504V72.5438C73.7734 72.0656 73.9634 71.6069 74.3016 71.2687C74.6397 70.9306 75.0984 70.7406 75.5766 70.7406C76.0549 70.7406 76.5135 70.9306 76.8517 71.2687C77.1898 71.6069 77.3798 72.0656 77.3798 72.5438ZM84.8025 72.5438V83.3504C84.8025 83.8286 84.6125 84.2873 84.2743 84.6255C83.9361 84.9636 83.4775 85.1536 82.9993 85.1536C82.521 85.1536 82.0624 84.9636 81.7242 84.6255C81.386 84.2873 81.1961 83.8286 81.1961 83.3504V72.5438C81.1961 72.0656 81.386 71.6069 81.7242 71.2687C82.0624 70.9306 82.521 70.7406 82.9993 70.7406C83.4775 70.7406 83.9361 70.9306 84.2743 71.2687C84.6125 71.6069 84.8025 72.0656 84.8025 72.5438ZM92.2251 72.5448V83.3504C92.2251 83.8286 92.0351 84.2873 91.6969 84.6255C91.3588 84.9636 90.9001 85.1536 90.4219 85.1536C89.9437 85.1536 89.485 84.9636 89.1468 84.6255C88.8087 84.2873 88.6187 83.8286 88.6187 83.3504V72.5438C88.6187 72.0656 88.8087 71.6069 89.1468 71.2687C89.485 70.9306 89.9437 70.7406 90.4219 70.7406C90.9001 70.7406 91.3588 70.9306 91.6969 71.2687C92.0351 71.6069 92.2251 72.0666 92.2251 72.5448Z" fill="white"/>
<path d="M55.2789 59.7397V62.2655C55.2789 63.0715 54.619 63.7314 53.8129 63.7314H44.4503C44.0619 63.7303 43.6896 63.5755 43.415 63.3008C43.1403 63.0261 42.9855 62.6539 42.9844 62.2655V59.7491C42.9844 58.94 43.6401 58.2832 44.4503 58.2832H53.8223C54.6263 58.2832 55.2789 58.9347 55.2789 59.7397Z" fill="#FFD80C"/>
<path d="M76.8144 101.02C76.8204 101.302 76.7701 101.582 76.6664 101.844C76.5627 102.106 76.4077 102.345 76.2104 102.546C76.0132 102.748 75.7777 102.908 75.5178 103.017C75.2579 103.126 74.9788 103.182 74.6969 103.182C74.415 103.182 74.136 103.125 73.8763 103.016C73.6165 102.906 73.3813 102.746 73.1843 102.544C72.9874 102.342 72.8327 102.103 72.7293 101.841C72.626 101.579 72.5761 101.299 72.5826 101.017C72.5953 100.464 72.824 99.9377 73.2197 99.5513C73.6155 99.1648 74.1469 98.9486 74.7 98.949C75.2532 98.9494 75.7842 99.1664 76.1794 99.5534C76.5746 99.9405 76.8025 100.467 76.8144 101.02Z" fill="white"/>
<path d="M99.1256 101.022C99.1245 102.32 98.6077 103.565 97.689 104.482C96.7702 105.399 95.5248 105.914 94.2266 105.913C92.9284 105.912 91.6838 105.395 90.7666 104.476C89.8495 103.557 89.3348 102.312 89.3359 101.014C89.337 99.7155 89.8538 98.4709 90.7726 97.5538C91.6913 96.6366 92.9368 96.1219 94.2349 96.123C95.5331 96.1242 96.7777 96.6409 97.6949 97.5597C98.6121 98.4784 99.1267 99.7239 99.1256 101.022Z" fill="#435E88"/>
<path d="M96.35 101.02C96.3496 101.581 96.1263 102.119 95.729 102.516C95.3318 102.913 94.7934 103.135 94.232 103.135C93.6707 103.134 93.1326 102.911 92.736 102.514C92.3394 102.117 92.1168 101.578 92.1172 101.017C92.1176 100.456 92.341 99.9174 92.7382 99.5208C92.9349 99.3244 93.1683 99.1687 93.4251 99.0625C93.682 98.9563 93.9572 98.9018 94.2352 98.902C94.5131 98.9022 94.7883 98.9571 95.045 99.0637C95.3017 99.1702 95.5349 99.3263 95.7313 99.523C95.9276 99.7196 96.0834 99.9531 96.1895 100.21C96.2957 100.467 96.3502 100.742 96.35 101.02Z" fill="white"/>
<defs>
<filter id="filter0_d_2030_1648" x="0.666667" y="0.571429" width="146.667" height="146.667" filterUnits="userSpaceOnUse" color-interpolation-filters="sRGB">
<feFlood flood-opacity="0" result="BackgroundImageFix"/>
<feColorMatrix in="SourceAlpha" type="matrix" values="0 0 0 0 0 0 0 0 0 0 0 0 0 0 0 0 0 0 127 0" result="hardAlpha"/>
<feOffset dy="1.90476"/>
<feGaussianBlur stdDeviation="6.66667"/>
<feComposite in2="hardAlpha" operator="out"/>
<feColorMatrix type="matrix" values="0 0 0 0 0.695898 0 0 0 0 0.695898 0 0 0 0 0.695898 0 0 0 0.25 0"/>
<feBlend mode="normal" in2="BackgroundImageFix" result="effect1_dropShadow_2030_1648"/>
<feBlend mode="normal" in="SourceGraphic" in2="effect1_dropShadow_2030_1648" result="shape"/>
</filter>
</defs>
</svg>
