<svg width="148" height="148" viewBox="0 0 148 148" fill="none" xmlns="http://www.w3.org/2000/svg">
<g filter="url(#filter0_d_2030_6816)">
<circle cx="74" cy="72" r="60" fill="white"/>
</g>
<g clip-path="url(#clip0_2030_6816)">
<path d="M107.785 65.0117H105.305C104.262 65.0118 103.243 64.7028 102.377 64.1238C101.51 63.5448 100.835 62.7218 100.436 61.7588C100.037 60.7959 99.9324 59.7363 100.136 58.714C100.339 57.6917 100.841 56.7528 101.578 56.0158L103.332 54.2619C103.696 53.8976 103.9 53.4039 103.9 52.889C103.9 52.3742 103.696 51.8804 103.332 51.5162L95.4877 43.6718C95.3075 43.4914 95.0935 43.3482 94.858 43.2506C94.6224 43.1529 94.3699 43.1026 94.1149 43.1026C93.8599 43.1026 93.6074 43.1529 93.3718 43.2506C93.1362 43.3482 92.9222 43.4914 92.742 43.6718L90.9881 45.4312C90.2508 46.1687 89.3113 46.6707 88.2885 46.8739C87.2658 47.0771 86.2057 46.9723 85.2425 46.5727C84.2793 46.1732 83.4564 45.4968 82.8778 44.6293C82.2992 43.7618 81.991 42.7421 81.9922 41.6993V39.2188C81.9919 38.7039 81.7873 38.2103 81.4232 37.8463C81.0592 37.4823 80.5656 37.2776 80.0508 37.2773H68.957C68.4422 37.2776 67.9486 37.4823 67.5846 37.8463C67.2206 38.2103 67.0159 38.7039 67.0156 39.2188V41.6993C67.0168 42.7421 66.7086 43.7618 66.13 44.6293C65.5514 45.4968 64.7285 46.1732 63.7653 46.5727C62.8021 46.9723 61.742 47.0771 60.7193 46.8739C59.6965 46.6707 58.757 46.1687 58.0197 45.4312L56.2658 43.6718C56.0856 43.4914 55.8716 43.3482 55.636 43.2506C55.4004 43.1529 55.1479 43.1026 54.8929 43.1026C54.6379 43.1026 54.3854 43.1529 54.1499 43.2506C53.9143 43.3482 53.7003 43.4914 53.5201 43.6718L45.6757 51.5162C45.3118 51.8804 45.1075 52.3742 45.1075 52.889C45.1075 53.4039 45.3118 53.8976 45.6757 54.2619L47.4352 56.0158C48.1726 56.7531 48.6746 57.6926 48.8778 58.7154C49.081 59.7381 48.9762 60.7982 48.5766 61.7614C48.1771 62.7246 47.5007 63.5475 46.6332 64.1261C45.7657 64.7047 44.746 65.0129 43.7032 65.0117H41.2227C40.7079 65.012 40.2142 65.2166 39.8502 65.5807C39.4862 65.9447 39.2815 66.4383 39.2812 66.9531V78.0469C39.2815 78.5617 39.4862 79.0553 39.8502 79.4193C40.2142 79.7834 40.7079 79.988 41.2227 79.9883H43.7032C44.746 79.9871 45.7657 80.2953 46.6332 80.8739C47.5007 81.4525 48.1771 82.2754 48.5766 83.2386C48.9762 84.2018 49.081 85.2619 48.8778 86.2846C48.6746 87.3074 48.1726 88.2469 47.4352 88.9842L45.6757 90.7381C45.3118 91.1024 45.1075 91.5961 45.1075 92.111C45.1075 92.6258 45.3118 93.1196 45.6757 93.4838L53.5201 101.329C53.7004 101.51 53.9144 101.653 54.1499 101.75C54.3855 101.848 54.638 101.898 54.8929 101.898C55.1479 101.898 55.4004 101.848 55.6359 101.75C55.8715 101.653 56.0855 101.51 56.2658 101.329L58.0197 99.5688C58.7569 98.8322 59.696 98.3307 60.7182 98.1276C61.7404 97.9246 62.7998 98.0292 63.7626 98.4281C64.7253 98.827 65.5482 99.5024 66.1273 100.369C66.7063 101.235 67.0154 102.254 67.0156 103.296V105.781C67.0159 106.296 67.2206 106.79 67.5846 107.154C67.9486 107.518 68.4422 107.722 68.957 107.723H80.0508C80.5656 107.722 81.0592 107.518 81.4232 107.154C81.7873 106.79 81.9919 106.296 81.9922 105.781V103.301C81.9921 102.259 82.301 101.24 82.8799 100.373C83.4588 99.5065 84.2816 98.831 85.2444 98.4321C86.2071 98.0331 87.2666 97.9286 88.2887 98.1317C89.3109 98.3348 90.2499 98.8364 90.987 99.5732L92.742 101.329C93.1063 101.693 93.6 101.898 94.1149 101.898C94.6297 101.898 95.1235 101.693 95.4877 101.329L103.332 93.4838C103.696 93.1196 103.9 92.6258 103.9 92.111C103.9 91.5961 103.696 91.1024 103.332 90.7381L101.578 88.9842C100.841 88.2472 100.339 87.3083 100.136 86.286C99.9324 85.2637 100.037 84.2041 100.436 83.2412C100.835 82.2782 101.51 81.4552 102.377 80.8762C103.243 80.2972 104.262 79.9882 105.305 79.9883H107.785C108.3 79.988 108.794 79.7834 109.158 79.4193C109.522 79.0553 109.726 78.5617 109.727 78.0469V66.9531C109.726 66.4383 109.522 65.9447 109.158 65.5807C108.794 65.2166 108.3 65.012 107.785 65.0117Z" fill="#91EDFF"/>
<path d="M74.5 89.1406C83.6904 89.1406 91.1406 81.6904 91.1406 72.5C91.1406 63.3096 83.6904 55.8594 74.5 55.8594C65.3096 55.8594 57.8594 63.3096 57.8594 72.5C57.8594 81.6904 65.3096 89.1406 74.5 89.1406Z" fill="#F5F7F7"/>
<path d="M76.4558 77.2004L73.1277 73.8723C72.7638 73.5081 72.5595 73.0143 72.5595 72.4994C72.5595 71.9846 72.7638 71.4908 73.1277 71.1266L77.8348 66.4206C78.015 66.2402 78.229 66.0971 78.4646 65.9994C78.7001 65.9017 78.9526 65.8515 79.2076 65.8515C79.4626 65.8515 79.7151 65.9017 79.9507 65.9994C80.1863 66.0971 80.4003 66.2402 80.5805 66.4206C80.7609 66.6008 80.9041 66.8148 81.0017 67.0504C81.0994 67.286 81.1496 67.5385 81.1496 67.7935C81.1496 68.0485 81.0994 68.301 81.0017 68.5366C80.9041 68.7721 80.7609 68.9861 80.5805 69.1663L77.2524 72.4945L79.2082 74.4492C79.3885 74.6294 79.5315 74.8435 79.6291 75.079C79.7267 75.3146 79.7769 75.5671 79.7769 75.822C79.7769 76.077 79.7267 76.3295 79.6291 76.565C79.5315 76.8006 79.3885 77.0146 79.2082 77.1949C79.0283 77.3768 78.8142 77.5213 78.5782 77.6201C78.3422 77.719 78.089 77.7701 77.8332 77.7706C77.5773 77.7711 77.3239 77.721 77.0875 77.6231C76.8511 77.5253 76.6364 77.3816 76.4558 77.2004ZM57.8594 70.5586H61.1875C61.7023 70.5589 62.1959 70.7635 62.56 71.1275C62.924 71.4916 63.1286 71.9852 63.1289 72.5C63.1286 73.0148 62.924 73.5084 62.56 73.8725C62.1959 74.2365 61.7023 74.4411 61.1875 74.4414H57.8594V70.5586ZM91.1406 74.4414H87.8125C87.2977 74.4411 86.8041 74.2365 86.44 73.8725C86.076 73.5084 85.8714 73.0148 85.8711 72.5C85.8714 71.9852 86.076 71.4916 86.44 71.1275C86.8041 70.7635 87.2977 70.5589 87.8125 70.5586H91.1406V74.4414ZM76.4414 55.8594V59.1875C76.4411 59.7023 76.2365 60.1959 75.8725 60.56C75.5084 60.924 75.0148 61.1286 74.5 61.1289C73.9852 61.1286 73.4916 60.924 73.1275 60.56C72.7635 60.1959 72.5589 59.7023 72.5586 59.1875V55.8594H76.4414Z" fill="#5E6C8E"/>
<path d="M74.5063 53.918C71.2171 53.9139 67.9858 54.784 65.1434 56.4394C62.3011 58.0947 59.9497 60.4757 58.3301 63.3386C56.7105 66.2014 55.8809 69.4433 55.9262 72.7322C55.9715 76.0212 56.8901 79.239 58.5879 82.0562L57.2 81.811C56.949 81.7666 56.6917 81.7721 56.4428 81.8272C56.1939 81.8823 55.9583 81.986 55.7495 82.1321C55.5407 82.2783 55.3627 82.4643 55.2257 82.6793C55.0888 82.8943 54.9955 83.1341 54.9513 83.3852C54.862 83.8921 54.9777 84.4138 55.2729 84.8355C55.5681 85.2572 56.0186 85.5444 56.5255 85.6339L63.0797 86.791C63.5868 86.88 64.1084 86.7641 64.5301 86.4687C64.9517 86.1733 65.2389 85.7226 65.3284 85.2157L66.4844 78.6604C66.5346 78.4069 66.5338 78.146 66.4819 77.8929C66.43 77.6398 66.328 77.3995 66.1821 77.1863C66.0361 76.9731 65.8491 76.7912 65.6319 76.6512C65.4148 76.5112 65.1718 76.4159 64.9174 76.371C64.6629 76.3261 64.4021 76.3325 64.1501 76.3897C63.8981 76.4469 63.6601 76.5539 63.45 76.7043C63.2399 76.8547 63.0619 77.0455 62.9265 77.2656C62.7911 77.4856 62.701 77.7305 62.6615 77.9859L62.2177 80.523C60.4804 77.8549 59.6571 74.6944 59.872 71.5177C60.0868 68.3411 61.3281 65.3203 63.4089 62.9104C65.4897 60.5004 68.2973 58.832 71.4087 58.1563C74.5201 57.4806 77.7669 57.8344 80.6598 59.1642C83.5527 60.494 85.9351 62.7279 87.4482 65.5293C88.9612 68.3308 89.5229 71.548 89.0487 74.6964C88.5744 77.8448 87.0899 80.7539 84.8188 82.9853C82.5476 85.2167 79.6129 86.6497 76.4566 87.0683V85.8125C76.4566 85.2976 76.252 84.8038 75.8879 84.4397C75.5239 84.0756 75.0301 83.8711 74.5152 83.8711C74.0003 83.8711 73.5065 84.0756 73.1424 84.4397C72.7783 84.8038 72.5738 85.2976 72.5738 85.8125V89.1406C72.5738 89.654 72.7771 90.1465 73.1392 90.5103C73.5014 90.8741 73.9929 91.0797 74.5063 91.082C79.4346 91.082 84.161 89.1243 87.6458 85.6395C91.1306 82.1547 93.0883 77.4283 93.0883 72.5C93.0883 67.5718 91.1306 62.8453 87.6458 59.3605C84.161 55.8757 79.4346 53.918 74.5063 53.918Z" fill="#FF6284"/>
</g>
<defs>
<filter id="filter0_d_2030_6816" x="0.666667" y="0.571429" width="146.667" height="146.667" filterUnits="userSpaceOnUse" color-interpolation-filters="sRGB">
<feFlood flood-opacity="0" result="BackgroundImageFix"/>
<feColorMatrix in="SourceAlpha" type="matrix" values="0 0 0 0 0 0 0 0 0 0 0 0 0 0 0 0 0 0 127 0" result="hardAlpha"/>
<feOffset dy="1.90476"/>
<feGaussianBlur stdDeviation="6.66667"/>
<feComposite in2="hardAlpha" operator="out"/>
<feColorMatrix type="matrix" values="0 0 0 0 0.695898 0 0 0 0 0.695898 0 0 0 0 0.695898 0 0 0 0.25 0"/>
<feBlend mode="normal" in2="BackgroundImageFix" result="effect1_dropShadow_2030_6816"/>
<feBlend mode="normal" in="SourceGraphic" in2="effect1_dropShadow_2030_6816" result="shape"/>
</filter>
<clipPath id="clip0_2030_6816">
<rect width="71" height="71" fill="white" transform="translate(39 37)"/>
</clipPath>
</defs>
</svg>
