<svg width="148" height="148" viewBox="0 0 148 148" fill="none" xmlns="http://www.w3.org/2000/svg">
<g filter="url(#filter0_d_2030_4901)">
<circle cx="74" cy="72" r="60" fill="white"/>
</g>
<path d="M53.2036 81.9666V54.7499H55.4768C56.5773 54.7499 57.1572 53.4246 56.4235 52.5726L49.4276 44.5804C48.8655 43.9343 48.0739 43.9461 47.5106 44.5804L40.5148 52.5726C39.7811 53.4246 40.3609 54.7499 41.4614 54.7499H43.7346V81.9666C43.7346 82.2775 43.7959 82.5853 43.9149 82.8726C44.0339 83.1598 44.2083 83.4207 44.4282 83.6405C44.6481 83.8603 44.9091 84.0346 45.1964 84.1535C45.4837 84.2723 45.7916 84.3334 46.1025 84.3333H50.8382C51.4658 84.3333 52.0678 84.0839 52.5116 83.6401C52.9555 83.1963 53.2048 82.5943 53.2048 81.9666H53.2036ZM95.8036 81.9666V54.7499H93.5305C92.43 54.7499 91.8501 53.4246 92.5838 52.5726L99.5797 44.5804C100.142 43.9343 100.933 43.9461 101.497 44.5804L108.493 52.5726C109.226 53.4246 108.646 54.7499 107.546 54.7499H105.273V81.9666C105.273 82.2775 105.211 82.5853 105.092 82.8726C104.973 83.1598 104.799 83.4207 104.579 83.6405C104.359 83.8603 104.098 84.0346 103.811 84.1535C103.524 84.2723 103.216 84.3334 102.905 84.3333H98.1691C97.5415 84.3333 96.9395 84.0839 96.4956 83.6401C96.0518 83.1963 95.8036 82.5943 95.8036 81.9666ZM69.7703 59.4833V48.8321H67.4983C66.3978 48.8321 65.818 47.5068 66.5516 46.6548L73.5451 38.6661C74.1013 38.0152 74.8941 38.0271 75.4621 38.6661L82.4556 46.6548C83.1893 47.5068 82.6095 48.8321 81.509 48.8321H79.237V59.4833H69.7703Z" fill="#24BC8D"/>
<path d="M74.5062 106.817C88.2305 106.817 99.3562 95.6908 99.3562 81.9666C99.3562 68.2423 88.2305 57.1166 74.5062 57.1166C60.782 57.1166 49.6562 68.2423 49.6562 81.9666C49.6562 95.6908 60.782 106.817 74.5062 106.817Z" fill="#DFE5EA"/>
<path d="M66.9813 74.4406C65.9906 75.4275 65.2046 76.6004 64.6685 77.8919C64.1324 79.1835 63.8567 80.5682 63.8573 81.9666C63.8573 82.6174 63.3248 83.1499 62.674 83.1499H55.574C54.9231 83.1499 54.3906 82.6174 54.3906 81.9666C54.3906 76.4286 56.6508 71.3876 60.2955 67.7548L61.4906 67.7666L67.4073 73.6833L66.9813 74.4406Z" fill="#FF5B45"/>
<path d="M74.5009 61.85L75.6842 63.0333V70.1333L74.5009 71.3167C71.5662 71.3167 68.9037 72.5118 66.9749 74.4407L60.2891 67.7548C62.1518 65.8823 64.3663 64.3967 66.8054 63.3833C69.2444 62.3699 71.8597 61.8488 74.5009 61.85Z" fill="#FF8243"/>
<path d="M74.5 61.85V71.3167C77.4347 71.3167 80.0972 72.5118 82.026 74.4407L83.9667 73.6833L88.7 68.95L88.7118 67.7548C86.8491 65.8823 84.6346 64.3967 82.1955 63.3833C79.7565 62.3699 77.1412 61.8488 74.5 61.85Z" fill="#F2CA25"/>
<path d="M79.2359 92.6166H69.7693C69.1157 92.6166 68.5859 93.1464 68.5859 93.7999V97.3499C68.5859 98.0034 69.1157 98.5332 69.7693 98.5332H79.2359C79.8895 98.5332 80.4193 98.0034 80.4193 97.3499V93.7999C80.4193 93.1464 79.8895 92.6166 79.2359 92.6166Z" fill="white"/>
<path d="M82.0312 74.4406C83.022 75.4275 83.8079 76.6004 84.344 77.8919C84.8801 79.1835 85.1558 80.5682 85.1553 81.9666C85.1553 82.6174 85.6878 83.1499 86.3386 83.1499H93.4386C94.0894 83.1499 94.6219 82.6174 94.6219 81.9666C94.6219 76.4286 92.3618 71.3876 88.7171 67.7548L82.0312 74.4406Z" fill="#2C39E5"/>
<path d="M74.4297 78.4166C80.0269 73.3046 85.411 69.4706 86.2039 70.2634C86.9967 71.0562 83.1627 76.4404 78.0507 82.0376L74.4297 78.4166Z" fill="#272E68"/>
<path d="M74.5031 85.5166C76.4637 85.5166 78.0531 83.9272 78.0531 81.9666C78.0531 80.006 76.4637 78.4166 74.5031 78.4166C72.5425 78.4166 70.9531 80.006 70.9531 81.9666C70.9531 83.9272 72.5425 85.5166 74.5031 85.5166Z" fill="#13193A"/>
<defs>
<filter id="filter0_d_2030_4901" x="0.666667" y="0.571429" width="146.667" height="146.667" filterUnits="userSpaceOnUse" color-interpolation-filters="sRGB">
<feFlood flood-opacity="0" result="BackgroundImageFix"/>
<feColorMatrix in="SourceAlpha" type="matrix" values="0 0 0 0 0 0 0 0 0 0 0 0 0 0 0 0 0 0 127 0" result="hardAlpha"/>
<feOffset dy="1.90476"/>
<feGaussianBlur stdDeviation="6.66667"/>
<feComposite in2="hardAlpha" operator="out"/>
<feColorMatrix type="matrix" values="0 0 0 0 0.695898 0 0 0 0 0.695898 0 0 0 0 0.695898 0 0 0 0.25 0"/>
<feBlend mode="normal" in2="BackgroundImageFix" result="effect1_dropShadow_2030_4901"/>
<feBlend mode="normal" in="SourceGraphic" in2="effect1_dropShadow_2030_4901" result="shape"/>
</filter>
</defs>
</svg>
