<svg width="148" height="148" viewBox="0 0 148 148" fill="none" xmlns="http://www.w3.org/2000/svg">
<g filter="url(#filter0_d_3238_2930)">
<circle cx="74" cy="72" r="60" fill="white"/>
</g>
<g clip-path="url(#clip0_3238_2930)">
<path d="M90.548 73.1181H87.2851C86.8754 73.1181 86.5176 72.8503 86.3919 72.4605C86.1854 71.8219 85.9275 71.2012 85.6207 70.6043C85.4331 70.2391 85.4963 69.7959 85.7866 69.5057L88.0955 67.1968C88.2711 67.0212 88.3698 66.7829 88.3698 66.5345C88.3698 66.286 88.2711 66.0478 88.0955 65.8721L84.9272 62.7039C84.7516 62.5282 84.5133 62.4295 84.2649 62.4295C84.0164 62.4295 83.7782 62.5282 83.6025 62.7039L81.2936 65.0127C81.0034 65.303 80.5602 65.3661 80.195 65.1786C79.5982 64.8718 78.9775 64.6139 78.3389 64.4074C77.9491 64.2815 77.6813 63.9239 77.6813 63.5143V60.2513C77.6813 60.0029 77.5826 59.7646 77.407 59.5889C77.2313 59.4133 76.993 59.3146 76.7446 59.3146H72.7148C72.7603 59.7769 72.784 60.2453 72.784 60.7195C72.784 68.5761 66.3922 74.9679 58.5355 74.9679C58.1952 74.9679 57.8579 74.9551 57.5234 74.9315V78.5356C57.5234 78.784 57.6221 79.0223 57.7978 79.198C57.9735 79.3736 58.2117 79.4723 58.4602 79.4723H61.7233C62.1329 79.4723 62.4905 79.7401 62.6164 80.1299C62.8228 80.7685 63.0807 81.3892 63.3876 81.986C63.5752 82.3512 63.512 82.7944 63.2217 83.0846L60.9129 85.3935C60.7372 85.5692 60.6385 85.8074 60.6385 86.0558C60.6385 86.3043 60.7372 86.5425 60.9129 86.7182L64.0811 89.8865C64.2568 90.0621 64.495 90.1608 64.7435 90.1608C64.9919 90.1608 65.2302 90.0621 65.4058 89.8865L67.7147 87.5776C68.005 87.2873 68.4481 87.2242 68.8133 87.4117C69.4101 87.7185 70.0309 87.9764 70.6694 88.1829C71.0592 88.3088 71.327 88.6664 71.327 89.0761V92.3391C71.327 92.5876 71.4257 92.8258 71.6013 93.0015C71.777 93.1772 72.0153 93.2759 72.2637 93.2759H76.7443C76.9928 93.2759 77.231 93.1772 77.4067 93.0015C77.5824 92.8258 77.6811 92.5876 77.6811 92.3391V89.0761C77.6811 88.6664 77.9488 88.3086 78.3386 88.1829C78.9772 87.9765 79.598 87.7186 80.1948 87.4117C80.5599 87.2241 81.0029 87.2873 81.2933 87.5776L83.6022 89.8865C83.7779 90.0621 84.0161 90.1608 84.2646 90.1608C84.513 90.1608 84.7513 90.0621 84.9269 89.8865L88.0952 86.7182C88.2708 86.5425 88.3695 86.3043 88.3695 86.0558C88.3695 85.8074 88.2708 85.5692 88.0952 85.3935L85.7863 83.0846C85.4961 82.7944 85.4328 82.3512 85.6204 81.986C85.9273 81.3892 86.1852 80.7685 86.3916 80.1299C86.5175 79.7401 86.8751 79.4723 87.2848 79.4723H90.5479C90.7963 79.4723 91.0346 79.3736 91.2102 79.198C91.3859 79.0223 91.4846 78.784 91.4846 78.5356V74.0551C91.4846 73.9321 91.4605 73.8103 91.4134 73.6966C91.3664 73.5829 91.2974 73.4796 91.2104 73.3926C91.1234 73.3056 91.0202 73.2365 90.9065 73.1894C90.7929 73.1424 90.671 73.1181 90.548 73.1181Z" fill="#BAAFB9"/>
<path d="M65.4804 76.2952C65.4804 75.1958 65.6119 74.127 65.8598 73.1038C63.7143 74.3754 61.2104 75.1063 58.5355 75.1063C58.1952 75.1063 57.8579 75.0937 57.5234 75.0704V78.5354C57.5234 78.7838 57.6221 79.0221 57.7978 79.1978C57.9735 79.3734 58.2117 79.4721 58.4602 79.4721H61.7233C62.1329 79.4721 62.4905 79.7399 62.6164 80.1297C62.8228 80.7683 63.0807 81.389 63.3876 81.9858C63.5752 82.351 63.512 82.7941 63.2217 83.0844L60.9129 85.3933C60.7372 85.5689 60.6385 85.8072 60.6385 86.0556C60.6385 86.3041 60.7372 86.5423 60.9129 86.718L64.0811 89.8862C64.2568 90.0619 64.495 90.1606 64.7435 90.1606C64.9919 90.1606 65.2302 90.0619 65.4058 89.8862L67.7147 87.5774C68.005 87.2871 68.4481 87.224 68.8133 87.4115C69.4101 87.7184 70.0309 87.9763 70.6695 88.1827C71.0593 88.3086 71.3271 88.6662 71.3271 89.0758V92.3389C71.3271 92.5874 71.4258 92.8256 71.6015 93.0013C71.7771 93.177 72.0154 93.2757 72.2638 93.2757H76.7443C76.9928 93.2757 77.231 93.177 77.4067 93.0013C77.5824 92.8256 77.6811 92.5874 77.6811 92.3389V89.7411C70.8343 89.0829 65.4804 83.3146 65.4804 76.2952Z" fill="#AA9EA9"/>
<path d="M74.5032 84.0328C78.7766 84.0328 82.2409 80.5686 82.2409 76.2952C82.2409 72.0219 78.7766 68.5576 74.5032 68.5576C70.2299 68.5576 66.7656 72.0219 66.7656 76.2952C66.7656 80.5686 70.2299 84.0328 74.5032 84.0328Z" fill="#E5E1E5"/>
<path d="M74.5042 67.5176C73.096 67.5165 71.7086 67.8565 70.4604 68.5085C69.4451 70.057 68.14 71.3945 66.617 72.4475C66.0299 73.6452 65.7253 74.9615 65.7266 76.2954C65.7266 81.1354 69.6643 85.073 74.5042 85.073C79.3441 85.073 83.2819 81.1353 83.2819 76.2954C83.2819 71.4552 79.3441 67.5176 74.5042 67.5176ZM74.5042 82.9928C70.8112 82.9928 67.8066 79.9882 67.8066 76.2952C67.8066 72.6023 70.8112 69.5977 74.5042 69.5977C78.1972 69.5977 81.2018 72.6023 81.2018 76.2952C81.2018 79.9883 78.1972 82.9928 74.5042 82.9928Z" fill="#9B8E99"/>
<path d="M74.501 80.1086C76.6071 80.1086 78.3145 78.4013 78.3145 76.2952C78.3145 74.189 76.6071 72.4817 74.501 72.4817C72.3949 72.4817 70.6875 74.189 70.6875 76.2952C70.6875 78.4013 72.3949 80.1086 74.501 80.1086Z" fill="#BAAFB9"/>
<path d="M73.9111 76.2952C73.9111 74.7652 74.8124 73.4464 76.1128 72.8389C75.6082 72.6031 75.0579 72.4811 74.501 72.4817C72.3948 72.4817 70.6875 74.189 70.6875 76.2952C70.6875 78.4013 72.3948 80.1086 74.501 80.1086C75.0772 80.1086 75.623 79.9801 76.1128 79.7514C74.8124 79.1439 73.9111 77.8251 73.9111 76.2952Z" fill="#AA9EA9"/>
<path d="M55.7188 41.7218V46.7506C56.6453 46.5643 57.5881 46.4707 58.5332 46.4709C59.4966 46.4709 60.4376 46.5676 61.3477 46.7506V41.7218H55.7188Z" fill="#BAAFB9"/>
<path d="M55.7188 41.7218V46.7506C56.6453 46.5643 57.5881 46.4707 58.5332 46.4709C58.5689 46.4709 58.6044 46.472 58.64 46.4723V41.7218H55.7188Z" fill="#AA9EA9"/>
<path d="M46.9823 52.3911C48.0929 50.8544 49.497 49.5529 51.1133 48.5616L48.8987 46.347C48.3408 45.7891 47.4363 45.7891 46.8784 46.347L44.9184 48.307C44.3605 48.8649 44.3605 49.7694 44.9184 50.3273L46.9823 52.3911Z" fill="#BAAFB9"/>
<path d="M46.9823 52.3912C47.6093 51.524 48.3311 50.7296 49.1344 50.0227L46.4391 47.3273C46.3479 47.2356 46.2695 47.1319 46.2063 47.019L44.9184 48.3069C44.3605 48.8648 44.3605 49.7693 44.9184 50.3272L46.9823 52.3912Z" fill="#AA9EA9"/>
<path d="M64.5082 37.7768V41.0836C64.5082 41.2896 64.4264 41.4872 64.2807 41.6329C64.135 41.7786 63.9374 41.8604 63.7314 41.8604H53.3315C53.1255 41.8604 52.9279 41.7786 52.7822 41.6329C52.6365 41.4872 52.5547 41.2896 52.5547 41.0836V37.7768C52.5547 37.6748 52.5748 37.5738 52.6138 37.4796C52.6529 37.3853 52.7101 37.2997 52.7822 37.2275C52.8544 37.1554 52.94 37.0982 53.0342 37.0591C53.1285 37.0201 53.2295 37 53.3315 37H63.7314C63.9374 37 64.135 37.0818 64.2807 37.2275C64.4264 37.3732 64.5082 37.5708 64.5082 37.7768Z" fill="#FE646F"/>
<path d="M57.0668 41.0836V37.7768C57.0668 37.5708 57.1486 37.3732 57.2943 37.2275C57.44 37.0818 57.6376 37 57.8436 37H53.3315C53.1255 37 52.9279 37.0818 52.7822 37.2275C52.6365 37.3732 52.5547 37.5708 52.5547 37.7768V41.0836C52.5547 41.2896 52.6365 41.4872 52.7822 41.6329C52.9279 41.7786 53.1255 41.8604 53.3315 41.8604H57.8436C57.7416 41.8604 57.6406 41.8404 57.5463 41.8013C57.4521 41.7623 57.3665 41.7051 57.2943 41.6329C57.2222 41.5608 57.165 41.4751 57.1259 41.3809C57.0869 41.2866 57.0668 41.1856 57.0668 41.0836Z" fill="#FD4755"/>
<path d="M58.5355 75.1063C66.4813 75.1063 72.9226 68.665 72.9226 60.7192C72.9226 52.7735 66.4813 46.3322 58.5355 46.3322C50.5897 46.3322 44.1484 52.7735 44.1484 60.7192C44.1484 68.665 50.5897 75.1063 58.5355 75.1063Z" fill="#FE646F"/>
<path d="M58.5333 71.2604C64.355 71.2604 69.0745 66.541 69.0745 60.7192C69.0745 54.8975 64.355 50.1781 58.5333 50.1781C52.7116 50.1781 47.9922 54.8975 47.9922 60.7192C47.9922 66.541 52.7116 71.2604 58.5333 71.2604Z" fill="white"/>
<path d="M52.4971 60.7192C52.4971 55.68 56.0524 51.4577 60.7858 50.423C60.0459 50.2606 59.2908 50.1786 58.5333 50.1782C52.721 50.1782 47.9922 54.9069 47.9922 60.7194C47.9922 66.5318 52.7209 71.2605 58.5333 71.2605C59.3064 71.2605 60.0596 71.1745 60.7858 71.0158C56.0524 69.9807 52.4971 65.7584 52.4971 60.7192Z" fill="#FFF3DE"/>
<path d="M58.5343 72.3004C52.1485 72.3004 46.9531 67.1052 46.9531 60.7192C46.9531 54.3333 52.1485 49.1381 58.5343 49.1381C64.9201 49.1381 70.1155 54.3333 70.1155 60.7192C70.1155 67.1052 64.9203 72.3004 58.5343 72.3004ZM58.5343 51.2181C53.2954 51.2181 49.0332 55.4802 49.0332 60.7192C49.0332 65.9583 53.2953 70.2203 58.5343 70.2203C63.7733 70.2203 68.0354 65.9583 68.0354 60.7192C68.0354 55.4802 63.7733 51.2181 58.5343 51.2181Z" fill="#FD8087"/>
<path d="M58.5322 58.7779C58.915 58.7779 59.2712 58.8907 59.5723 59.0827V53.4541C59.5723 53.1783 59.4627 52.9137 59.2676 52.7187C59.0726 52.5236 58.8081 52.4141 58.5322 52.4141C58.2564 52.4141 57.9919 52.5236 57.7968 52.7187C57.6018 52.9137 57.4922 53.1783 57.4922 53.4541V59.0827C57.8026 58.8837 58.1635 58.7779 58.5322 58.7779Z" fill="#0182FC"/>
<path d="M58.5332 62.7993C59.682 62.7993 60.6133 61.868 60.6133 60.7192C60.6133 59.5704 59.682 58.6392 58.5332 58.6392C57.3844 58.6392 56.4531 59.5704 56.4531 60.7192C56.4531 61.868 57.3844 62.7993 58.5332 62.7993Z" fill="#0593FC"/>
<path d="M105.886 76.1468L99.8765 76.1465L99.5488 76.2852C99.5489 90.1117 88.3167 101.344 74.4902 101.344L74.3516 101.66L74.3517 107.709L74.4904 108C92.0575 108 106.205 93.8525 106.205 76.2853L105.886 76.1468Z" fill="#0593FC"/>
<path d="M75.2904 44.5809C75.1866 44.5783 75.0833 44.5965 74.9866 44.6345C74.8899 44.6724 74.8018 44.7292 74.7275 44.8017C74.6531 44.8742 74.594 44.9608 74.5536 45.0565C74.5132 45.1521 74.4923 45.2549 74.4922 45.3587V50.4633C74.4922 50.8829 74.8258 51.2259 75.2453 51.2384C88.7361 51.6367 99.5503 62.6981 99.5505 76.2853L106.207 76.2856C106.207 59.0369 92.437 45.0044 75.2904 44.5809Z" fill="#97D729"/>
<path d="M74.4937 101.344C60.9065 101.344 49.8451 90.5296 49.4468 77.0388C49.441 76.8371 49.3568 76.6455 49.212 76.5049C49.0673 76.3643 48.8734 76.2856 48.6716 76.2856H43.5671C43.4633 76.2857 43.3605 76.3066 43.2648 76.347C43.1692 76.3874 43.0826 76.4465 43.0101 76.5209C42.9376 76.5953 42.8807 76.6834 42.8428 76.7801C42.8049 76.8767 42.7867 76.98 42.7893 77.0838C43.2129 94.2303 57.2454 108 74.494 108L74.4937 101.344Z" fill="#FED402"/>
<path d="M45.7846 77.0837C45.782 76.9799 45.8002 76.8766 45.8381 76.78C45.8761 76.6833 45.9329 76.5952 46.0054 76.5208C46.0779 76.4464 46.1645 76.3873 46.2601 76.3469C46.3558 76.3065 46.4586 76.2856 46.5624 76.2855H43.5671C43.4633 76.2856 43.3605 76.3065 43.2648 76.3469C43.1692 76.3873 43.0826 76.4464 43.0101 76.5208C42.9376 76.5952 42.8807 76.6833 42.8428 76.78C42.8049 76.8766 42.7867 76.9799 42.7893 77.0837C43.2128 94.2304 57.2453 108 74.4939 108V107.859C58.6438 106.374 46.1834 93.226 45.7846 77.0837Z" fill="#FAC600"/>
</g>
<defs>
<filter id="filter0_d_3238_2930" x="0.666667" y="0.571429" width="146.667" height="146.667" filterUnits="userSpaceOnUse" color-interpolation-filters="sRGB">
<feFlood flood-opacity="0" result="BackgroundImageFix"/>
<feColorMatrix in="SourceAlpha" type="matrix" values="0 0 0 0 0 0 0 0 0 0 0 0 0 0 0 0 0 0 127 0" result="hardAlpha"/>
<feOffset dy="1.90476"/>
<feGaussianBlur stdDeviation="6.66667"/>
<feComposite in2="hardAlpha" operator="out"/>
<feColorMatrix type="matrix" values="0 0 0 0 0.695898 0 0 0 0 0.695898 0 0 0 0 0.695898 0 0 0 0.25 0"/>
<feBlend mode="normal" in2="BackgroundImageFix" result="effect1_dropShadow_3238_2930"/>
<feBlend mode="normal" in="SourceGraphic" in2="effect1_dropShadow_3238_2930" result="shape"/>
</filter>
<clipPath id="clip0_3238_2930">
<rect width="71" height="71" fill="white" transform="translate(39 37)"/>
</clipPath>
</defs>
</svg>
