<svg width="148" height="148" viewBox="0 0 148 148" fill="none" xmlns="http://www.w3.org/2000/svg">
<g filter="url(#filter0_d_1778_168)">
<circle cx="74" cy="72" r="60" fill="white"/>
</g>
<path d="M103.299 63.625C103.299 62.1273 102.578 60.6297 101.125 59.7865L96.6875 57.2239H52.3125L47.875 59.7865C46.4217 60.6297 45.7006 62.1273 45.7006 63.625H45.6562V96.9062C45.6562 99.3579 47.642 101.344 50.0938 101.344H98.9062C101.358 101.344 103.344 99.3579 103.344 96.9062V63.625H103.299Z" fill="#FD9200"/>
<path opacity="0.2" d="M54.5312 70.0261V71.1354L69.0308 79.5001L70.0625 80.0992C74.1783 82.4733 79.2592 82.4733 83.375 80.0992L84.4067 79.5001L98.9062 71.1354V58.5052L96.6875 57.2239H54.5312V58.3333V70.0261Z" fill="black"/>
<path d="M94.4688 43.6562H54.5312C53.3109 43.6562 52.3125 44.6547 52.3125 45.875V71.1355L66.812 79.5002L67.8438 80.0992C71.9595 82.4733 77.0405 82.4733 81.1562 80.0992L82.188 79.5002L96.6875 71.1355V45.875C96.6875 44.6547 95.6891 43.6562 94.4688 43.6562Z" fill="#F0F7FF"/>
<path opacity="0.2" d="M81.1562 76.7711C79.1319 77.9377 76.8365 78.5517 74.5 78.5517C72.1635 78.5517 69.8681 77.9377 67.8438 76.7711L66.812 76.1721L52.3125 67.8074V71.1355L66.812 79.5002L67.8438 80.0992C71.9595 82.4733 77.0405 82.4733 81.1562 80.0992L82.188 79.5002L96.6875 71.1355V67.8074L82.188 76.1721L81.1562 76.7711Z" fill="black"/>
<path d="M103.299 63.625C103.299 65.1227 102.578 66.6203 101.125 67.4634L96.6875 70.0261L82.188 78.3908L81.1562 78.9898C79.1319 80.1564 76.8365 80.7705 74.5 80.7705C72.1635 80.7705 69.8681 80.1564 67.8438 78.9898L66.812 78.3908L52.3125 70.0261L47.875 67.4634C46.4217 66.6203 45.7006 65.1227 45.7006 63.625H45.6562V96.9062C45.6562 99.358 47.642 101.344 50.0938 101.344H98.9062C101.358 101.344 103.344 99.358 103.344 96.9062V63.625H103.299Z" fill="#FDBF00"/>
<path d="M80.2127 74.9629H68.7862C68.639 74.9629 68.498 74.9044 68.3939 74.8004C68.2899 74.6964 68.2315 74.5553 68.2315 74.4082C68.2315 74.2611 68.2899 74.12 68.3939 74.0159C68.498 73.9119 68.639 73.8535 68.7862 73.8535H80.2127C80.3598 73.8535 80.5009 73.9119 80.6049 74.0159C80.709 74.12 80.7674 74.2611 80.7674 74.4082C80.7674 74.5553 80.709 74.6964 80.6049 74.8004C80.5009 74.9044 80.3598 74.9629 80.2127 74.9629ZM87.9051 70.5254H61.0938C60.9466 70.5254 60.8056 70.4669 60.7015 70.3629C60.5975 70.2589 60.5391 70.1178 60.5391 69.9707C60.5391 69.8236 60.5975 69.6825 60.7015 69.5784C60.8056 69.4744 60.9466 69.416 61.0938 69.416H87.9051C88.0522 69.416 88.1933 69.4744 88.2973 69.5784C88.4014 69.6825 88.4598 69.8236 88.4598 69.9707C88.4598 70.1178 88.4014 70.2589 88.2973 70.3629C88.1933 70.4669 88.0522 70.5254 87.9051 70.5254ZM77.9563 54.6924C77.874 54.6923 77.7927 54.674 77.7183 54.6388C77.644 54.6036 77.5784 54.5522 77.5263 54.4885C77.4741 54.4249 77.4368 54.3504 77.417 54.2705C77.3971 54.1907 77.3953 54.1074 77.4115 54.0267C77.4778 53.7098 77.4171 53.3796 77.2424 53.107C77.0677 52.8344 76.7931 52.6412 76.4775 52.569C76.4065 52.5524 76.3395 52.522 76.2803 52.4795C76.2211 52.437 76.1709 52.3833 76.1325 52.3213C76.094 52.2594 76.0682 52.1906 76.0564 52.1187C76.0446 52.0468 76.047 51.9732 76.0637 51.9023C76.0803 51.8313 76.1107 51.7643 76.1532 51.7052C76.1957 51.646 76.2494 51.5957 76.3113 51.5573C76.3732 51.5189 76.4421 51.493 76.514 51.4812C76.5859 51.4694 76.6594 51.4719 76.7304 51.4885C77.328 51.6252 77.848 51.9909 78.1787 52.5071C78.5094 53.0233 78.6243 53.6486 78.4987 54.2486C78.4734 54.3738 78.4055 54.4864 78.3067 54.5673C78.2078 54.6481 78.084 54.6923 77.9563 54.6924Z" fill="#61729B"/>
<path d="M73.2018 61.7757C72.3914 61.7746 71.6048 61.5011 70.9686 60.9991L70.4749 60.5187C69.8995 59.8261 69.5764 58.9585 69.5586 58.0581L69.583 57.3548C69.7375 56.0678 70.2555 54.8514 71.0762 53.8481L71.5732 53.2723C72.493 52.2279 73.7682 51.5629 75.151 51.4063C75.6766 51.3492 76.2079 51.3758 76.7252 51.4851C76.7962 51.5011 76.8634 51.5308 76.9229 51.5728C76.9824 51.6147 77.0331 51.6679 77.072 51.7294C77.1109 51.7909 77.1374 51.8595 77.1498 51.9312C77.1623 52.0029 77.1604 52.0764 77.1445 52.1474C77.1285 52.2184 77.0988 52.2856 77.0568 52.3451C77.0149 52.4046 76.9617 52.4553 76.9002 52.4942C76.8387 52.5332 76.7701 52.5596 76.6984 52.5721C76.6267 52.5845 76.5532 52.5827 76.4822 52.5667C76.0816 52.4843 75.6707 52.4648 75.2641 52.5091C74.1658 52.6333 73.1474 53.1636 72.4086 54.0001L71.9249 54.5603C71.2499 55.3857 70.8212 56.3846 70.6879 57.4424L70.6669 58.067C70.683 58.689 70.9037 59.2883 71.2948 59.7721L71.7019 60.166C72.0846 60.4666 72.6182 60.6574 73.1607 60.6652L73.8718 60.6019C74.1802 60.5443 74.5219 60.4211 74.8392 60.2414C74.9026 60.2054 74.9724 60.1823 75.0447 60.1733C75.1171 60.1643 75.1905 60.1696 75.2607 60.189C75.331 60.2084 75.3967 60.2414 75.4542 60.2861C75.5117 60.3309 75.5598 60.3866 75.5958 60.45C75.6318 60.5133 75.6549 60.5832 75.6639 60.6555C75.6729 60.7278 75.6676 60.8012 75.6482 60.8715C75.6289 60.9417 75.5958 61.0075 75.5511 61.065C75.5063 61.1225 75.4506 61.1706 75.3872 61.2066C74.9621 61.4481 74.4987 61.6151 74.0172 61.7002L73.2018 61.7757Z" fill="#61729B"/>
<path d="M75.3774 66.1533C73.5148 66.1533 71.6854 65.7572 70.2066 65.0517C67.5574 63.7881 65.8967 61.3131 65.6493 58.2612C65.241 53.2346 68.3462 48.7239 72.8724 47.7687C76.5012 47.001 79.9769 48.106 81.9393 50.6498C83.5025 52.6755 83.8208 55.5399 82.7492 57.9483C82.2921 58.9756 80.7789 61.2476 79.0184 61.7125C78.6783 61.8092 78.3203 61.8256 77.9728 61.7603C77.6253 61.695 77.2978 61.5499 77.0159 61.3364C76.2971 60.8061 76.2649 60.0362 76.3037 59.5026C76.3925 58.2789 76.7009 57.0265 76.9993 55.815C77.1491 55.2104 77.2966 54.6113 77.4131 54.0278C77.4252 53.9544 77.4519 53.8841 77.4917 53.8212C77.5316 53.7583 77.5836 53.704 77.6448 53.6617C77.7061 53.6193 77.7752 53.5897 77.8481 53.5746C77.921 53.5595 77.9962 53.5593 78.0692 53.5739C78.1422 53.5885 78.2115 53.6176 78.273 53.6596C78.3345 53.7016 78.387 53.7555 78.4272 53.8181C78.4674 53.8808 78.4946 53.9509 78.5072 54.0243C78.5197 54.0976 78.5174 54.1728 78.5003 54.2453C78.3805 54.8443 78.2285 55.4589 78.0765 56.0802C77.7892 57.2472 77.4919 58.4531 77.4098 59.5825C77.372 60.1094 77.4819 60.3024 77.6738 60.4433C77.9977 60.6818 78.3361 60.744 78.7344 60.6397C79.9192 60.3268 81.2382 58.6129 81.7341 57.4968C82.6416 55.4556 82.3775 53.0338 81.0596 51.3265C79.0283 48.6928 75.617 48.3234 73.0998 48.8537C69.1194 49.6935 66.3915 53.6983 66.7542 58.1702C66.9683 60.8183 68.4005 62.9605 70.6836 64.0488C73.8986 65.582 78.9263 65.5209 81.7763 62.7664C81.8286 62.7154 81.8904 62.6753 81.9583 62.6483C82.0261 62.6213 82.0986 62.608 82.1716 62.6091C82.2446 62.6102 82.3167 62.6257 82.3837 62.6547C82.4507 62.6838 82.5113 62.7257 82.5621 62.7782C82.6128 62.8307 82.6527 62.8927 82.6794 62.9607C82.7062 63.0286 82.7192 63.1012 82.7179 63.1742C82.7165 63.2472 82.7007 63.3192 82.6714 63.3861C82.6422 63.453 82.6 63.5134 82.5473 63.564C80.6802 65.3712 77.9955 66.1533 75.3774 66.1533Z" fill="#61729B"/>
<path d="M75.1155 61.282C74.9932 61.2814 74.8745 61.2404 74.7778 61.1655C74.6811 61.0905 74.6118 60.9858 74.5808 60.8675C74.5497 60.7492 74.5585 60.6239 74.6058 60.5111C74.6531 60.3983 74.7364 60.3043 74.8426 60.2436C75.5484 59.849 76.1219 59.2546 76.4911 58.5352C76.5242 58.4702 76.5698 58.4125 76.6253 58.3653C76.6809 58.3181 76.7452 58.2823 76.8146 58.2602C76.8841 58.238 76.9572 58.2298 77.0298 58.2361C77.1025 58.2423 77.1731 58.2629 77.2377 58.2967C77.3026 58.3299 77.3602 58.3755 77.4073 58.4311C77.4545 58.4866 77.4901 58.551 77.5123 58.6203C77.5345 58.6897 77.5427 58.7628 77.5365 58.8354C77.5303 58.908 77.5098 58.9786 77.4762 59.0433C77.0071 59.9558 76.2793 60.7098 75.384 61.211C75.3023 61.2579 75.2097 61.2824 75.1155 61.282Z" fill="#61729B"/>
<path d="M96.2788 94.5755C96.3782 94.6841 96.5167 94.7487 96.6638 94.7551C96.8109 94.7616 96.9545 94.7093 97.0631 94.6099C97.1717 94.5105 97.2363 94.3719 97.2427 94.2249C97.2492 94.0778 97.1969 93.9341 97.0975 93.8256L82.6856 78.1046L82.1886 78.3908L81.7227 78.6615C81.7426 78.6959 81.7559 78.7336 81.7848 78.7647L96.2788 94.5755ZM51.9382 94.6099C51.9918 94.6595 52.0546 94.6979 52.1232 94.723C52.1917 94.7482 52.2646 94.7595 52.3375 94.7563C52.4104 94.7531 52.482 94.7354 52.5481 94.7044C52.6142 94.6734 52.6734 94.6296 52.7225 94.5755L67.2165 78.7647C67.2442 78.7336 67.2586 78.6959 67.2786 78.6615L66.8127 78.3908L66.3157 78.1046L51.9038 93.8256C51.8545 93.8793 51.8163 93.9422 51.7913 94.0107C51.7664 94.0793 51.7552 94.152 51.7583 94.2249C51.7615 94.2977 51.7791 94.3692 51.8099 94.4353C51.8408 94.5014 51.8844 94.5607 51.9382 94.6099Z" fill="#FD9200"/>
<defs>
<filter id="filter0_d_1778_168" x="0.666667" y="0.571429" width="146.667" height="146.667" filterUnits="userSpaceOnUse" color-interpolation-filters="sRGB">
<feFlood flood-opacity="0" result="BackgroundImageFix"/>
<feColorMatrix in="SourceAlpha" type="matrix" values="0 0 0 0 0 0 0 0 0 0 0 0 0 0 0 0 0 0 127 0" result="hardAlpha"/>
<feOffset dy="1.90476"/>
<feGaussianBlur stdDeviation="6.66667"/>
<feComposite in2="hardAlpha" operator="out"/>
<feColorMatrix type="matrix" values="0 0 0 0 0.695898 0 0 0 0 0.695898 0 0 0 0 0.695898 0 0 0 0.25 0"/>
<feBlend mode="normal" in2="BackgroundImageFix" result="effect1_dropShadow_1778_168"/>
<feBlend mode="normal" in="SourceGraphic" in2="effect1_dropShadow_1778_168" result="shape"/>
</filter>
</defs>
</svg>
