<svg width="148" height="148" viewBox="0 0 148 148" fill="none" xmlns="http://www.w3.org/2000/svg">
<g filter="url(#filter0_d_2030_7462)">
<circle cx="74" cy="72" r="60" fill="white"/>
</g>
<path fill-rule="evenodd" clip-rule="evenodd" d="M64.0391 85.774H84.9587V97.6898H64.0391V85.774Z" fill="#A79BA7"/>
<path fill-rule="evenodd" clip-rule="evenodd" d="M83.3359 85.774H84.9583V97.6898H83.3359V85.774Z" fill="#837683"/>
<path fill-rule="evenodd" clip-rule="evenodd" d="M51.8906 102.77H97.1155V99.2835C97.1155 97.3659 95.152 95.797 92.7518 95.797H56.2544C53.8542 95.797 51.8906 97.3659 51.8906 99.2835V102.77Z" fill="#ECEFF1"/>
<path fill-rule="evenodd" clip-rule="evenodd" d="M51.8906 102.77H97.1155V99.2835C97.1155 98.1439 96.4219 97.1274 95.3554 96.4902C95.5951 96.9209 95.7287 97.397 95.7287 97.8968V101.383H51.8906V102.77Z" fill="#D1D1D6"/>
<path fill-rule="evenodd" clip-rule="evenodd" d="M46.3357 42.2299H102.664C105.479 42.2299 107.781 44.5326 107.781 47.347V82.55C107.781 85.3643 105.478 87.6671 102.664 87.6671H46.3357C43.5214 87.6671 41.2188 85.3644 41.2188 82.55V47.347C41.2188 44.5325 43.5214 42.2299 46.3357 42.2299Z" fill="#ECEFF1"/>
<path fill-rule="evenodd" clip-rule="evenodd" d="M105.518 43.1058C106.88 44.0277 107.78 45.5874 107.78 47.347V82.5499C107.78 85.3643 105.477 87.6671 102.663 87.6671H46.3348C44.5751 87.6671 43.0156 86.767 42.0938 85.4044C42.936 85.9756 43.9303 86.2808 44.948 86.2802H101.276C104.091 86.2802 106.394 83.9776 106.394 81.1632V45.9603C106.394 44.9425 106.089 43.9481 105.518 43.1058Z" fill="#D1D1D6"/>
<path fill-rule="evenodd" clip-rule="evenodd" d="M46.2097 46.5089H102.795C103.185 46.5089 103.505 46.8286 103.505 47.2186V79.0843H45.5V47.2186C45.5 46.8284 45.8194 46.5089 46.2097 46.5089Z" fill="#D8ECFE"/>
<path fill-rule="evenodd" clip-rule="evenodd" d="M100.016 46.5089H102.789C103.18 46.5089 103.499 46.8286 103.499 47.2186V79.0843H100.725V47.2186C100.725 46.8284 100.406 46.5089 100.016 46.5089Z" fill="#C4E2FF"/>
<path fill-rule="evenodd" clip-rule="evenodd" d="M64.5581 70.7311H66.8861C67.4389 70.7311 67.8896 71.1819 67.8896 71.7345V78.0441C67.8896 78.5968 67.4387 79.0475 66.8861 79.0475H64.5581C64.0054 79.0475 63.5547 78.5967 63.5547 78.0441V71.7345C63.5547 71.1819 64.0054 70.7311 64.5581 70.7311Z" fill="#FE646F"/>
<path fill-rule="evenodd" clip-rule="evenodd" d="M65.6328 70.7311H66.8872C67.4398 70.7311 67.8907 71.1819 67.8907 71.7345V78.0441C67.8907 78.5968 67.4398 79.0475 66.8872 79.0475H65.6328C66.1856 79.0475 66.6362 78.5967 66.6362 78.0441V71.7345C66.6362 71.1819 66.1854 70.7311 65.6328 70.7311Z" fill="#FD4755"/>
<path fill-rule="evenodd" clip-rule="evenodd" d="M73.7925 63.4174H76.1205C76.6733 63.4174 77.1239 63.8682 77.1239 64.4208V78.0441C77.1239 78.5968 76.6733 79.0475 76.1205 79.0475H73.7925C73.2397 79.0475 72.7891 78.5967 72.7891 78.0441V64.4208C72.7891 63.8682 73.2399 63.4174 73.7925 63.4174Z" fill="#FFE177"/>
<path fill-rule="evenodd" clip-rule="evenodd" d="M74.8672 63.4174H76.1216C76.6744 63.4174 77.125 63.8682 77.125 64.4208V78.0441C77.125 78.5968 76.6744 79.0475 76.1216 79.0475H74.8672C75.4199 79.0475 75.8706 78.5967 75.8706 78.0441V64.4208C75.8706 63.8682 75.4199 63.4174 74.8672 63.4174Z" fill="#FFD064"/>
<path fill-rule="evenodd" clip-rule="evenodd" d="M83.0269 66.3739H85.355C85.9078 66.3739 86.3585 66.8247 86.3585 67.3773V78.0441C86.3585 78.5969 85.9076 79.0475 85.355 79.0475H83.0269C82.4741 79.0475 82.0234 78.5967 82.0234 78.0441V67.3773C82.0234 66.8247 82.4741 66.3739 83.0269 66.3739Z" fill="#6CF5C2"/>
<path fill-rule="evenodd" clip-rule="evenodd" d="M84.1016 66.3739H85.356C85.9087 66.3739 86.3594 66.8247 86.3594 67.3773V78.0441C86.3594 78.5969 85.9087 79.0477 85.356 79.0477H84.1016C84.6543 79.0477 85.1051 78.5969 85.105 78.0441V67.3773C85.1051 66.8247 84.6542 66.3739 84.1016 66.3739Z" fill="#00E499"/>
<path fill-rule="evenodd" clip-rule="evenodd" d="M92.2612 57.731H94.5894C95.1421 57.731 95.5928 58.1816 95.5928 58.7344V78.044C95.5928 78.5966 95.1421 79.0475 94.5894 79.0475H92.2612C91.7085 79.0475 91.2578 78.5966 91.2578 78.044V58.7344C91.2578 58.1816 91.7085 57.731 92.2612 57.731Z" fill="#8AC9FE"/>
<path fill-rule="evenodd" clip-rule="evenodd" d="M93.3281 57.731H94.5825C95.1353 57.731 95.586 58.1816 95.586 58.7344V78.044C95.586 78.5968 95.1352 79.0475 94.5825 79.0475H93.3281C93.8809 79.0475 94.3316 78.5966 94.3316 78.044V58.7344C94.3316 58.1816 93.8807 57.731 93.3281 57.731Z" fill="#60B7FF"/>
<path fill-rule="evenodd" clip-rule="evenodd" d="M66.3938 63.2199C66.1602 63.3927 65.8679 63.4665 65.5803 63.4253C65.2927 63.384 65.0329 63.2311 64.8573 62.9996C64.6817 62.7681 64.6044 62.4768 64.6422 62.1887C64.68 61.9006 64.8297 61.639 65.0591 61.4606L74.2921 54.4499C74.4477 54.3318 74.6318 54.2571 74.8256 54.2334C75.0195 54.2097 75.2161 54.2379 75.3956 54.315L75.3972 54.3111L83.9759 58L89.6955 52.7965L89.1178 52.7986C88.8278 52.794 88.5512 52.6755 88.3477 52.4688C88.1442 52.262 88.0301 51.9836 88.0301 51.6935C88.0301 51.4034 88.1442 51.125 88.3477 50.9182C88.5512 50.7115 88.8278 50.593 89.1178 50.5884L92.5674 50.5758C92.7305 50.5758 92.8916 50.6119 93.039 50.6815C93.1865 50.7511 93.3167 50.8525 93.4204 50.9783C93.5241 51.1042 93.5986 51.2515 93.6387 51.4095C93.6788 51.5676 93.6833 51.7326 93.6521 51.8926L93.6552 51.8932L92.9862 55.2773C92.9583 55.4202 92.9026 55.5561 92.8222 55.6774C92.7417 55.7987 92.6382 55.903 92.5175 55.9842C92.3968 56.0655 92.2612 56.1222 92.1186 56.1511C91.9759 56.18 91.829 56.1805 91.6862 56.1526C91.5433 56.1247 91.4074 56.069 91.2861 55.9886C91.1648 55.9081 91.0606 55.8046 90.9793 55.6839C90.898 55.5632 90.8413 55.4276 90.8124 55.285C90.7835 55.1423 90.783 54.9954 90.8109 54.8526L90.8293 54.7593L84.9772 60.0833C84.8204 60.2402 84.6201 60.3464 84.4023 60.3882C84.1844 60.4301 83.959 60.4056 83.7553 60.3181L75.111 56.601L66.3938 63.2199Z" fill="#A79BA7"/>
<path fill-rule="evenodd" clip-rule="evenodd" d="M60.138 52.6294C60.8965 52.8101 61.6213 53.1106 62.2851 53.5196L63.6802 52.9L65.3246 54.5444L64.7052 55.9391C65.1142 56.6031 65.4148 57.3281 65.5954 58.0867L67.0189 58.6346V60.96L65.5952 61.5081C65.4145 62.2665 65.114 62.9913 64.705 63.6551L65.3248 65.0503L63.6804 66.6947L62.2856 66.0752C61.6216 66.4843 60.8967 66.7848 60.138 66.9655L59.5901 68.3888H57.2647L56.7167 66.9651C55.9583 66.7844 55.2335 66.4839 54.5696 66.0749L53.1745 66.6945L51.5301 65.0501L52.1495 63.6554C51.7405 62.9914 51.44 62.2664 51.2593 61.5078L49.8359 60.9599V58.6344L51.2595 58.0865C51.4402 57.328 51.7407 56.6031 52.1497 55.9393L51.5301 54.5442L53.1745 52.8999L54.5696 53.5194C55.2335 53.1105 55.9583 52.81 56.7167 52.6293L57.2647 51.2056H59.5901L60.138 52.6294Z" fill="#FFE177"/>
<path fill-rule="evenodd" clip-rule="evenodd" d="M54.5709 66.0748L53.1757 66.6944L52.9609 66.4796L54.269 65.8987C54.3683 65.9598 54.469 66.0185 54.5709 66.0748ZM60.1394 52.6294C60.8979 52.8101 61.6227 53.1106 62.2865 53.5196L61.8899 53.6957C61.2259 53.2869 60.1995 52.81 59.4409 52.6294L58.8929 51.2057H59.5914L60.1394 52.6294ZM62.2869 66.0749C61.6229 66.484 60.8979 66.7845 60.1393 66.9652L59.5914 68.3885H58.8929L59.4408 66.9652C60.1996 66.7846 61.2262 66.3077 61.8903 65.8988L62.2869 66.0749ZM52.9609 53.1146L53.1757 52.8998L54.5709 53.5194C54.469 53.5757 54.3683 53.6344 54.269 53.6955L52.9609 53.1146ZM63.1978 53.1146L63.6815 52.8998L65.3259 54.5442L64.7064 55.939C65.1155 56.603 65.416 57.3279 65.5967 58.0866L67.0202 58.6345V60.9599L65.5964 61.5079C65.4157 62.2663 65.1152 62.9911 64.7063 63.655L65.326 65.0501L63.6817 66.6945L63.198 66.4797L64.6274 65.0501L64.0078 63.655C64.4168 62.9911 64.7173 62.2664 64.898 61.5079L66.3217 60.9599V58.6345L64.8982 58.0866C64.7176 57.3279 64.4171 56.6029 64.008 55.939L64.6274 54.5442L63.1978 53.1146Z" fill="#FFD064"/>
<path d="M58.4303 63.8525C60.67 63.8525 62.4856 62.0368 62.4856 59.7971C62.4856 57.5575 60.67 55.7418 58.4303 55.7418C56.1906 55.7418 54.375 57.5575 54.375 59.7971C54.375 62.0368 56.1906 63.8525 58.4303 63.8525Z" fill="#ECEFF1"/>
<path fill-rule="evenodd" clip-rule="evenodd" d="M58.4302 55.7418C56.1904 55.7418 54.375 57.5572 54.375 59.7971C54.375 62.037 56.1905 63.8523 58.4302 63.8523C58.5388 63.8523 58.6464 63.8479 58.7527 63.8396C56.6638 63.6752 55.02 61.9284 55.02 59.7971C55.02 57.6659 56.6636 55.9189 58.7527 55.7546C58.6454 55.7461 58.5378 55.7419 58.4302 55.7418Z" fill="#D1D1D6"/>
<defs>
<filter id="filter0_d_2030_7462" x="0.666667" y="0.571429" width="146.667" height="146.667" filterUnits="userSpaceOnUse" color-interpolation-filters="sRGB">
<feFlood flood-opacity="0" result="BackgroundImageFix"/>
<feColorMatrix in="SourceAlpha" type="matrix" values="0 0 0 0 0 0 0 0 0 0 0 0 0 0 0 0 0 0 127 0" result="hardAlpha"/>
<feOffset dy="1.90476"/>
<feGaussianBlur stdDeviation="6.66667"/>
<feComposite in2="hardAlpha" operator="out"/>
<feColorMatrix type="matrix" values="0 0 0 0 0.695898 0 0 0 0 0.695898 0 0 0 0 0.695898 0 0 0 0.25 0"/>
<feBlend mode="normal" in2="BackgroundImageFix" result="effect1_dropShadow_2030_7462"/>
<feBlend mode="normal" in="SourceGraphic" in2="effect1_dropShadow_2030_7462" result="shape"/>
</filter>
</defs>
</svg>
