<svg width="148" height="148" viewBox="0 0 148 148" fill="none" xmlns="http://www.w3.org/2000/svg">
<g filter="url(#filter0_d_2030_6792)">
<circle cx="74" cy="72" r="60" fill="white"/>
</g>
<path fill-rule="evenodd" clip-rule="evenodd" d="M85.4056 90.0448L62.8226 91.3776L57.3186 100.823C57.0259 101.325 57.4217 101.876 57.9238 101.876H91.0813C91.5833 101.876 91.9794 101.325 91.6865 100.823L85.4056 90.0448Z" fill="#292E33"/>
<path fill-rule="evenodd" clip-rule="evenodd" d="M105.239 43.124C107.21 43.124 108.822 44.7364 108.822 46.7076V89.8454C108.822 91.8166 107.21 93.4289 105.239 93.4289H43.7632C41.7923 93.4289 40.1797 91.8166 40.1797 89.8454V46.7076C40.1797 44.7364 41.7923 43.124 43.7632 43.124H105.239Z" fill="#62A4FB"/>
<path fill-rule="evenodd" clip-rule="evenodd" d="M105.239 43.124C107.21 43.124 108.822 44.7364 108.822 46.7076V87.5299H40.1797V46.7076C40.1797 44.7364 41.7923 43.124 43.7632 43.124H105.239Z" fill="#E6F8FF"/>
<path fill-rule="evenodd" clip-rule="evenodd" d="M74.5003 59.3447C84.3464 59.3447 92.3283 67.3268 92.3283 77.1727H101.196C101.196 62.4291 89.2439 50.4773 74.5001 50.4773C59.7567 50.4773 47.8047 62.4291 47.8047 77.1727H56.6722C56.6723 67.3266 64.6543 59.3447 74.5003 59.3447Z" fill="#62A4FB"/>
<path fill-rule="evenodd" clip-rule="evenodd" d="M61.1478 54.0496C57.0925 56.3978 53.7231 59.7672 51.375 63.8225L59.0556 68.2571C60.6238 65.5489 62.874 63.2988 65.5822 61.7307C68.2048 60.2134 71.2497 59.3448 74.4976 59.3448V50.4773C69.6345 50.4773 65.0749 51.7775 61.1478 54.0496Z" fill="#1980F2"/>
<path fill-rule="evenodd" clip-rule="evenodd" d="M83.4137 61.7305L87.8483 54.0496C83.9211 51.7775 79.3616 50.4773 74.4984 50.4773C69.6352 50.4773 65.0756 51.7776 61.1484 54.0498L65.583 61.7307C68.2056 60.2134 71.2505 59.3448 74.4984 59.3448C77.7462 59.3448 80.7913 60.2132 83.4137 61.7305Z" fill="#FAD808"/>
<path fill-rule="evenodd" clip-rule="evenodd" d="M89.9421 68.257L97.6228 63.8224C92.8396 55.5559 84.0521 50.4773 74.5 50.4773V59.3447C80.8792 59.3447 86.7476 62.7364 89.9421 68.257Z" fill="#FCBC04"/>
<path fill-rule="evenodd" clip-rule="evenodd" d="M97.6217 63.8225C95.2734 59.7673 91.9039 56.3978 87.8487 54.0496L83.4141 61.7305C86.1222 63.2987 88.3724 65.5488 89.9408 68.2569C91.4581 70.8795 92.3268 73.9246 92.3268 77.1725H101.194C101.194 72.3093 99.894 67.7496 97.6217 63.8225Z" fill="#EB3B48"/>
<path fill-rule="evenodd" clip-rule="evenodd" d="M101.199 77.1726C101.199 72.3094 99.8983 67.7497 97.6261 63.8225L89.9453 68.2571C91.4627 70.8797 92.3313 73.9248 92.3313 77.1727H101.199V77.1726Z" fill="#EE0033"/>
<path fill-rule="evenodd" clip-rule="evenodd" d="M80.5122 69.1642C81.0644 68.6118 81.9601 68.6118 82.5126 69.1642C83.0647 69.7164 83.0647 70.6121 82.5126 71.1644C80.1933 73.4837 77.8744 75.8029 75.5551 78.1219C75.0029 78.6741 74.1072 78.6741 73.5548 78.1219C73.0026 77.5697 73.0026 76.674 73.5548 76.1217L80.5122 69.1642Z" fill="#4D5C7D"/>
<path fill-rule="evenodd" clip-rule="evenodd" d="M74.5049 80.4824C76.3278 80.4824 77.8145 78.9957 77.8145 77.1727C77.8145 75.3499 76.3277 73.863 74.5049 73.863C72.682 73.863 71.1953 75.35 71.1953 77.1727C71.1953 78.9957 72.682 80.4824 74.5049 80.4824Z" fill="#62A4FB"/>
<path fill-rule="evenodd" clip-rule="evenodd" d="M74.5049 78.2636C75.1059 78.2636 75.5958 77.7737 75.5958 77.1727C75.5958 76.572 75.1059 76.0818 74.5049 76.0818C73.904 76.0818 73.4141 76.572 73.4141 77.1727C73.4141 77.7736 73.904 78.2636 74.5049 78.2636Z" fill="#EFF4F7"/>
<defs>
<filter id="filter0_d_2030_6792" x="0.666667" y="0.571429" width="146.667" height="146.667" filterUnits="userSpaceOnUse" color-interpolation-filters="sRGB">
<feFlood flood-opacity="0" result="BackgroundImageFix"/>
<feColorMatrix in="SourceAlpha" type="matrix" values="0 0 0 0 0 0 0 0 0 0 0 0 0 0 0 0 0 0 127 0" result="hardAlpha"/>
<feOffset dy="1.90476"/>
<feGaussianBlur stdDeviation="6.66667"/>
<feComposite in2="hardAlpha" operator="out"/>
<feColorMatrix type="matrix" values="0 0 0 0 0.695898 0 0 0 0 0.695898 0 0 0 0 0.695898 0 0 0 0.25 0"/>
<feBlend mode="normal" in2="BackgroundImageFix" result="effect1_dropShadow_2030_6792"/>
<feBlend mode="normal" in="SourceGraphic" in2="effect1_dropShadow_2030_6792" result="shape"/>
</filter>
</defs>
</svg>
