<svg width="129" height="56" viewBox="0 0 129 56" fill="none" xmlns="http://www.w3.org/2000/svg">
<g clip-path="url(#clip0_735_100)">
<path d="M49.8373 0.891113H46.3672V22.4667H49.8373V0.891113Z" fill="#17313B"/>
<path d="M61.9818 15.6018C61.9818 18.8456 59.1905 19.1474 58.4362 19.1474C56.3993 19.1474 55.9467 17.1859 55.9467 15.979V7.83154H52.4766V16.0544C52.4766 18.0913 53.1555 19.7511 54.2118 20.958C55.1924 21.9386 56.7013 22.4669 58.361 22.4669C59.5682 22.4669 61.1523 22.1652 61.9066 21.2597V22.4669H65.3767V7.83154H61.9066V15.6018H61.982H61.9818Z" fill="#17313B"/>
<path d="M72.2382 2.62598H68.7681V7.8313H66.2031V11.3014H68.7681V22.4664H72.2382V11.3014H74.8031V7.8313H72.2382V2.62598Z" fill="#17313B"/>
<path d="M85.6699 18.0907C84.9156 18.7696 83.9347 19.1468 82.8787 19.1468C80.4646 19.1468 78.7294 17.4116 78.7294 14.9221C78.7294 12.4325 80.4646 10.7728 82.8787 10.7728C83.9347 10.7728 84.9156 11.0745 85.6699 11.8288L86.198 12.2814L88.4612 10.0182L87.9332 9.49018C86.4997 8.28327 84.7648 7.52869 82.8787 7.52869C78.5786 7.45326 75.4102 10.5462 75.4102 14.9218C75.4102 19.2974 78.654 22.3903 82.8787 22.3903C84.8402 22.3903 86.6506 21.7114 88.084 20.4288L88.612 19.9008L86.198 17.4867L85.6699 18.0902V18.0907Z" fill="#17313B"/>
<path d="M100.91 9.11397C99.9298 8.13335 98.7226 7.60507 97.1383 7.60507C95.9314 7.60507 94.6488 7.9068 93.7436 8.81199V0.891113H90.2734V22.4667H93.7436V14.3193C93.7436 11.0755 96.1576 10.7737 96.912 10.7737C98.9489 10.7737 98.9489 12.7352 98.9489 13.9421V22.4667H102.419V13.8667C102.494 11.9806 102.042 10.2457 100.91 9.11397H100.91Z" fill="#17313B"/>
<path d="M82.7278 17.4883C84.1027 17.4883 85.2173 16.3737 85.2173 14.9988C85.2173 13.6239 84.1027 12.5093 82.7278 12.5093C81.3529 12.5093 80.2383 13.6239 80.2383 14.9988C80.2383 16.3737 81.3529 17.4883 82.7278 17.4883Z" fill="#FF3D2E"/>
<path d="M41.6141 17.0352C40.3317 18.3175 38.4457 19.0721 36.635 19.0721C32.7121 19.0721 29.9208 16.0545 29.9208 11.9053C29.9208 7.756 32.7121 4.73846 36.5596 4.73846C38.3702 4.73846 40.1052 5.49278 41.5386 6.77538L42.0667 7.30341L44.3299 5.04019L43.8018 4.51217C41.8404 2.55093 39.2754 1.49463 36.5596 1.49463C30.8263 1.57006 26.6016 6.02106 26.6016 11.9807C26.6016 17.9403 30.8263 22.3913 36.5596 22.3913C39.3509 22.3913 41.9912 21.3353 43.8018 19.3738L44.3299 18.8458L42.0667 16.4317L41.6141 17.0352Z" fill="#17313B"/>
</g>
<path d="M0.380255 46.2155L4.58117 37.868H7.67754L3.38608 46.2155H0.380255ZM0.380255 47.809V46.2155L1.32184 45.4007H10.629V47.809H0.380255ZM6.41002 50.6519V42.7389H9.19856V50.6519H6.41002ZM13.2729 50.851C12.8021 50.851 12.4097 50.6881 12.0959 50.3621C11.782 50.0362 11.6251 49.6439 11.6251 49.1852C11.6251 48.7023 11.782 48.3039 12.0959 47.9901C12.4097 47.6641 12.8021 47.5012 13.2729 47.5012C13.7557 47.5012 14.1481 47.6641 14.4498 47.9901C14.7637 48.3039 14.9206 48.7023 14.9206 49.1852C14.9206 49.6439 14.7637 50.0362 14.4498 50.3621C14.1481 50.6881 13.7557 50.851 13.2729 50.851ZM17.1125 50.6519L21.4583 39.4615H24.2287L20.0459 50.6519H17.1125ZM15.4104 40.2763V37.868H24.2287V39.4615L23.2871 40.2763H15.4104Z" fill="black"/>
<path d="M48.1188 42.7751L44.8144 45.9963L45.5947 50.5458C45.6114 50.6433 45.6005 50.7436 45.5632 50.8353C45.5259 50.927 45.4637 51.0064 45.3836 51.0646C45.3036 51.1227 45.2088 51.1573 45.1101 51.1645C45.0113 51.1716 44.9126 51.151 44.825 51.1049L40.7392 48.9569L36.6539 51.1044C36.5662 51.1504 36.4675 51.1711 36.3688 51.1639C36.2701 51.1568 36.1753 51.1222 36.0952 51.064C36.0151 51.0059 35.9529 50.9264 35.9156 50.8348C35.8783 50.7431 35.8674 50.6428 35.8841 50.5452L36.6645 45.9957L33.3595 42.7751C33.2886 42.706 33.2384 42.6184 33.2147 42.5223C33.1909 42.4261 33.1946 42.3252 33.2252 42.2311C33.2559 42.1369 33.3123 42.0532 33.388 41.9894C33.4638 41.9256 33.5559 41.8843 33.6539 41.8701L38.2209 41.207L40.2633 37.0681C40.4421 36.7058 41.0362 36.7058 41.215 37.0681L43.2574 41.207L47.8244 41.8701C47.9222 41.8846 48.014 41.9262 48.0895 41.99C48.165 42.0538 48.2212 42.1375 48.2518 42.2315C48.2824 42.3255 48.2862 42.4262 48.2627 42.5222C48.2392 42.6183 48.1893 42.7059 48.1188 42.7751Z" fill="#FEA705"/>
<path d="M67.9313 42.7751L64.6269 45.9963L65.4072 50.5458C65.4239 50.6433 65.413 50.7436 65.3757 50.8353C65.3384 50.927 65.2762 51.0064 65.1961 51.0646C65.1161 51.1227 65.0213 51.1573 64.9226 51.1645C64.8238 51.1716 64.7251 51.151 64.6375 51.1049L60.5517 48.9569L56.4664 51.1044C56.3787 51.1504 56.28 51.1711 56.1813 51.1639C56.0826 51.1568 55.9878 51.1222 55.9077 51.064C55.8276 51.0059 55.7654 50.9264 55.7281 50.8348C55.6908 50.7431 55.6799 50.6428 55.6966 50.5452L56.477 45.9957L53.172 42.7751C53.1011 42.706 53.0509 42.6184 53.0272 42.5223C53.0034 42.4261 53.0071 42.3252 53.0377 42.2311C53.0684 42.1369 53.1248 42.0532 53.2005 41.9894C53.2763 41.9256 53.3684 41.8843 53.4664 41.8701L58.0334 41.207L60.0758 37.0681C60.2546 36.7058 60.8487 36.7058 61.0275 37.0681L63.0699 41.207L67.6369 41.8701C67.7347 41.8846 67.8265 41.9262 67.902 41.99C67.9775 42.0538 68.0337 42.1375 68.0643 42.2315C68.0949 42.3255 68.0987 42.4262 68.0752 42.5222C68.0517 42.6183 68.0018 42.7059 67.9313 42.7751Z" fill="#FEA705"/>
<path d="M87.7321 42.7751L84.4277 45.9963L85.208 50.5458C85.2247 50.6433 85.2138 50.7436 85.1765 50.8353C85.1392 50.927 85.077 51.0064 84.9969 51.0646C84.9168 51.1227 84.8221 51.1573 84.7234 51.1645C84.6246 51.1716 84.5259 51.151 84.4383 51.1049L80.3524 48.9569L76.2671 51.1044C76.1795 51.1504 76.0808 51.1711 75.9821 51.1639C75.8833 51.1568 75.7886 51.1222 75.7085 51.064C75.6284 51.0059 75.5662 50.9264 75.5289 50.8348C75.4916 50.7431 75.4807 50.6428 75.4974 50.5452L76.2777 45.9957L72.9728 42.7751C72.9019 42.706 72.8517 42.6184 72.828 42.5223C72.8042 42.4261 72.8079 42.3252 72.8385 42.2311C72.8692 42.1369 72.9256 42.0532 73.0013 41.9894C73.0771 41.9256 73.1692 41.8843 73.2672 41.8701L77.8342 41.207L79.8766 37.0681C80.0554 36.7058 80.6495 36.7058 80.8283 37.0681L82.8707 41.207L87.4377 41.8701C87.5355 41.8846 87.6273 41.9262 87.7028 41.99C87.7783 42.0538 87.8345 42.1375 87.8651 42.2315C87.8957 42.3255 87.8994 42.4262 87.8759 42.5222C87.8524 42.6183 87.8026 42.7059 87.7321 42.7751Z" fill="#FEA705"/>
<path d="M107.537 42.7751L104.232 45.9963L105.013 50.5458C105.029 50.6433 105.019 50.7436 104.981 50.8353C104.944 50.927 104.882 51.0064 104.802 51.0646C104.722 51.1227 104.627 51.1573 104.528 51.1645C104.429 51.1716 104.331 51.151 104.243 51.1049L100.157 48.9569L96.0718 51.1044C95.9842 51.1504 95.8855 51.1711 95.7867 51.1639C95.688 51.1568 95.5933 51.1222 95.5132 51.064C95.4331 51.0059 95.3709 50.9264 95.3336 50.8348C95.2963 50.7431 95.2854 50.6428 95.3021 50.5452L96.0824 45.9957L92.7775 42.7751C92.7065 42.706 92.6564 42.6184 92.6326 42.5223C92.6089 42.4261 92.6126 42.3252 92.6432 42.2311C92.6739 42.1369 92.7302 42.0532 92.806 41.9894C92.8818 41.9256 92.9739 41.8843 93.0719 41.8701L97.6389 41.207L99.6813 37.0681C99.8601 36.7058 100.454 36.7058 100.633 37.0681L102.675 41.207L107.242 41.8701C107.34 41.8846 107.432 41.9262 107.507 41.99C107.583 42.0538 107.639 42.1375 107.67 42.2315C107.7 42.3255 107.704 42.4262 107.681 42.5222C107.657 42.6183 107.607 42.7059 107.537 42.7751Z" fill="#FEA705"/>
<path d="M127.345 42.7751L124.041 45.9963L124.821 50.5458C124.838 50.6433 124.827 50.7436 124.79 50.8353C124.752 50.927 124.69 51.0064 124.61 51.0646C124.53 51.1227 124.435 51.1573 124.337 51.1645C124.238 51.1716 124.139 51.151 124.052 51.1049L119.966 48.9569L115.88 51.1044C115.793 51.1504 115.694 51.1711 115.595 51.1639C115.497 51.1568 115.402 51.1222 115.322 51.064C115.242 51.0059 115.179 50.9264 115.142 50.8348C115.105 50.7431 115.094 50.6428 115.111 50.5452L115.891 45.9957L112.586 42.7751C112.515 42.706 112.465 42.6184 112.441 42.5223C112.418 42.4261 112.421 42.3252 112.452 42.2311C112.482 42.1369 112.539 42.0532 112.615 41.9894C112.69 41.9256 112.782 41.8843 112.88 41.8701L117.447 41.207L119.49 37.0681C119.669 36.7058 120.263 36.7058 120.442 37.0681L122.484 41.207L127.051 41.8701C127.149 41.8846 127.241 41.9262 127.316 41.99C127.392 42.0538 127.448 42.1375 127.478 42.2315C127.509 42.3255 127.513 42.4262 127.489 42.5222C127.466 42.6183 127.416 42.7059 127.345 42.7751Z" fill="#CCCCCC"/>
<path d="M115.88 51.1048L119.966 48.9574V36.8961C119.931 36.8225 119.683 36.8964 119.49 37.0685L117.447 41.2074L112.88 41.8705C112.782 41.8847 112.69 41.926 112.615 41.9898C112.539 42.0536 112.482 42.1373 112.452 42.2315C112.421 42.3257 112.418 42.4265 112.441 42.5227C112.465 42.6189 112.515 42.7064 112.586 42.7756L115.891 45.9962L115.111 50.5456C115.094 50.6432 115.105 50.7435 115.142 50.8352C115.179 50.9269 115.242 51.0063 115.322 51.0644C115.402 51.1226 115.497 51.1572 115.595 51.1643C115.694 51.1715 115.793 51.1508 115.88 51.1048Z" fill="#FEA705"/>
<defs>
<clipPath id="clip0_735_100">
<rect width="75.8247" height="21.5756" fill="white" transform="translate(26.6016 0.891113)"/>
</clipPath>
</defs>
</svg>
