<svg width="174" height="174" viewBox="0 0 174 174" fill="none" xmlns="http://www.w3.org/2000/svg">
<path d="M65.5698 122.204L61.8203 155.819H105.319L99.6536 122.204H65.5698Z" fill="#3E497A"/>
<path d="M114.688 162.697H51.026C49.2968 162.697 47.9981 161.464 48.3346 160.144L49.1515 156.915C49.3971 155.943 50.4658 155.23 51.7353 155.19L113.109 153.276C114.436 153.235 115.61 153.938 115.899 154.948L117.372 160.092C117.752 161.428 116.447 162.697 114.688 162.697Z" fill="#4F5D99"/>
<path d="M11 49.6923V126.678C11 133.012 16.0465 138.19 22.3826 138.354C50.5109 139.079 122.959 140.837 149.735 140.442C151.95 140.408 154.066 139.522 155.643 137.967C157.219 136.412 158.134 134.308 158.198 132.095C158.714 114.21 159.552 71.2032 156.449 51.2371C156.134 49.1993 155.116 47.3358 153.572 45.9687C152.028 44.6016 150.054 43.8168 147.993 43.7501C124.425 42.9967 46.0672 40.6033 19.3037 41.2042C17.0844 41.2533 14.9726 42.1691 13.4205 43.7557C11.8685 45.3422 10.9996 47.4732 11 49.6923Z" fill="#4F5D99"/>
<path d="M15.832 49.317V122.459C15.8321 124.236 16.5315 125.942 17.779 127.207C19.0265 128.473 20.7221 129.198 22.4995 129.225L145.881 131.069C146.752 131.082 147.617 130.922 148.426 130.599C149.235 130.275 149.972 129.795 150.594 129.185C151.216 128.575 151.71 127.848 152.049 127.045C152.388 126.243 152.564 125.381 152.567 124.51L152.817 52.0216C152.822 50.7615 152.332 49.5498 151.454 48.6464C150.575 47.743 149.377 47.2199 148.117 47.1893L21.1796 44.1002C20.4836 44.0832 19.7912 44.2056 19.1432 44.4601C18.4951 44.7147 17.9046 45.0962 17.4063 45.5823C16.9081 46.0685 16.5121 46.6493 16.2417 47.2907C15.9713 47.9321 15.832 48.621 15.832 49.317Z" fill="#EDEDFF"/>
<path d="M33.9647 56.3134C34.1691 55.0548 33.3141 53.8688 32.055 53.6645C30.796 53.4602 29.6096 54.3149 29.4052 55.5735C29.2008 56.8322 30.0558 58.0182 31.3149 58.2225C32.574 58.4268 33.7603 57.5721 33.9647 56.3134Z" fill="#0F1B63"/>
<path d="M33.9608 68.5292C34.1652 67.2706 33.3102 66.0846 32.0511 65.8803C30.792 65.676 29.6057 66.5307 29.4013 67.7894C29.1969 69.048 30.0519 70.234 31.311 70.4383C32.5701 70.6426 33.7564 69.7879 33.9608 68.5292Z" fill="white"/>
<path d="M33.9647 80.7451C34.1691 79.4864 33.3141 78.3004 32.055 78.0961C30.7959 77.8918 29.6096 78.7465 29.4052 80.0052C29.2008 81.2638 30.0558 82.4498 31.3149 82.6541C32.574 82.8584 33.7603 82.0037 33.9647 80.7451Z" fill="white"/>
<path d="M32.5655 94.7185C33.744 94.2306 34.3036 92.88 33.8155 91.7019C33.3273 90.5239 31.9763 89.9644 30.7978 90.4524C29.6194 90.9404 29.0598 92.291 29.5479 93.469C30.036 94.6471 31.3871 95.2065 32.5655 94.7185Z" fill="white"/>
<path d="M31.6807 108.446C32.9562 108.446 33.9903 107.412 33.9903 106.137C33.9903 104.862 32.9562 103.828 31.6807 103.828C30.4051 103.828 29.3711 104.862 29.3711 106.137C29.3711 107.412 30.4051 108.446 31.6807 108.446Z" fill="white"/>
<path d="M31.6807 120.661C32.9562 120.661 33.9903 119.627 33.9903 118.352C33.9903 117.077 32.9562 116.043 31.6807 116.043C30.4051 116.043 29.3711 117.077 29.3711 118.352C29.3711 119.627 30.4051 120.661 31.6807 120.661Z" fill="white"/>
<path d="M42.1076 46.915H39.9326C39.7951 46.915 39.6836 47.0265 39.6836 47.1639V128.163C39.6836 128.301 39.7951 128.412 39.9326 128.412H42.1076C42.2451 128.412 42.3565 128.301 42.3565 128.163V47.1639C42.3565 47.0265 42.2451 46.915 42.1076 46.915Z" fill="#0F1B63"/>
<g opacity="0.6">
<path d="M114.086 61.8027H46.4247C46.2872 61.8027 46.1758 61.9142 46.1758 62.0516V64.2259C46.1758 64.3634 46.2872 64.4748 46.4247 64.4748H114.086C114.224 64.4748 114.335 64.3634 114.335 64.2259V62.0516C114.335 61.9142 114.224 61.8027 114.086 61.8027Z" fill="#0F1B63"/>
<path d="M71.1922 70.4648H46.4247C46.2872 70.4648 46.1758 70.5763 46.1758 70.7137V72.888C46.1758 73.0255 46.2872 73.1369 46.4247 73.1369H71.1922C71.3297 73.1369 71.4411 73.0255 71.4411 72.888V70.7137C71.4411 70.5763 71.3297 70.4648 71.1922 70.4648Z" fill="#0F1B63"/>
<path d="M143.743 87.585H118.976C118.838 87.585 118.727 87.6964 118.727 87.8338V90.0081C118.727 90.1456 118.838 90.257 118.976 90.257H143.743C143.88 90.257 143.992 90.1456 143.992 90.0081V87.8338C143.992 87.6964 143.88 87.585 143.743 87.585Z" fill="#0F1B63"/>
<path d="M110.122 96.085H85.3544C85.2169 96.085 85.1055 96.1964 85.1055 96.3338V98.5081C85.1055 98.6456 85.2169 98.757 85.3544 98.757H110.122C110.259 98.757 110.371 98.6456 110.371 98.5081V96.3338C110.371 96.1964 110.259 96.085 110.122 96.085Z" fill="#0F1B63"/>
<path d="M90.921 103.828H75.8271C75.6896 103.828 75.5781 103.94 75.5781 104.077V106.251C75.5781 106.389 75.6896 106.5 75.8271 106.5H90.921C91.0585 106.5 91.17 106.389 91.17 106.251V104.077C91.17 103.94 91.0585 103.828 90.921 103.828Z" fill="#0F1B63"/>
<path d="M62.4757 110.891H47.3818C47.2443 110.891 47.1328 111.002 47.1328 111.139V113.314C47.1328 113.451 47.2443 113.563 47.3818 113.563H62.4757C62.6132 113.563 62.7247 113.451 62.7247 113.314V111.139C62.7247 111.002 62.6132 110.891 62.4757 110.891Z" fill="#0F1B63"/>
<path d="M72.1492 103.828H47.3818C47.2443 103.828 47.1328 103.94 47.1328 104.077V106.251C47.1328 106.389 47.2443 106.5 47.3818 106.5H72.1492C72.2867 106.5 72.3982 106.389 72.3982 106.251V104.077C72.3982 103.94 72.2867 103.828 72.1492 103.828Z" fill="#0F1B63"/>
<path d="M136.105 103.828H94.8544C94.7169 103.828 94.6055 103.94 94.6055 104.077V106.251C94.6055 106.389 94.7169 106.5 94.8544 106.5H136.105C136.243 106.5 136.354 106.389 136.354 106.251V104.077C136.354 103.94 136.243 103.828 136.105 103.828Z" fill="#0F1B63"/>
<path d="M140.563 79.0352H104.468C104.33 79.0352 104.219 79.1466 104.219 79.284V81.4583C104.219 81.5958 104.33 81.7072 104.468 81.7072H140.563C140.701 81.7072 140.812 81.5958 140.812 81.4583V79.284C140.812 79.1466 140.701 79.0352 140.563 79.0352Z" fill="#0F1B63"/>
<path d="M82.5203 96.085H46.4247C46.2872 96.085 46.1758 96.1964 46.1758 96.3338V98.5081C46.1758 98.6456 46.2872 98.757 46.4247 98.757H82.5203C82.6578 98.757 82.7693 98.6456 82.7693 98.5081V96.3338C82.7693 96.1964 82.6578 96.085 82.5203 96.085Z" fill="#0F1B63"/>
<path d="M129.231 70.4648H75.0615C74.924 70.4648 74.8125 70.5763 74.8125 70.7137V72.888C74.8125 73.0255 74.924 73.1369 75.0615 73.1369H129.231C129.369 73.1369 129.48 73.0255 129.48 72.888V70.7137C129.48 70.5763 129.369 70.4648 129.231 70.4648Z" fill="#0F1B63"/>
<path d="M100.594 79.0352H46.4247C46.2872 79.0352 46.1758 79.1466 46.1758 79.284V81.4583C46.1758 81.5958 46.2872 81.7072 46.4247 81.7072H100.594C100.732 81.7072 100.843 81.5958 100.843 81.4583V79.284C100.843 79.1466 100.732 79.0352 100.594 79.0352Z" fill="#0F1B63"/>
<path d="M114.086 87.585H46.4247C46.2872 87.585 46.1758 87.6964 46.1758 87.8338V90.0081C46.1758 90.1456 46.2872 90.257 46.4247 90.257H114.086C114.224 90.257 114.335 90.1456 114.335 90.0081V87.8338C114.335 87.6964 114.224 87.585 114.086 87.585Z" fill="#0F1B63"/>
</g>
<path d="M53.3417 57.2344L50.4961 55.1251L50.5522 54.4609L53.7107 52.8662L53.6299 53.8242L51.4527 54.8712L53.423 56.2765L53.3417 57.2344Z" fill="#0F1B63"/>
<path d="M57.7253 52.2316L54.8791 58.2601L53.7891 58.1682L56.6347 52.1396L57.7253 52.2316Z" fill="#0F1B63"/>
<path d="M57.862 56.6505L60.0522 55.5961L58.0683 54.1982L58.1491 53.2402L60.9958 55.3411L60.9398 56.0053L57.7812 57.6084L57.862 56.6505Z" fill="#0F1B63"/>
<path d="M50.8925 122.694L48.0469 120.585L48.1029 119.921L51.2609 118.326L51.1802 119.284L49.0035 120.331L50.9733 121.736L50.8925 122.694Z" fill="#0F1B63"/>
<path d="M55.2794 117.692L52.4338 123.72L51.3438 123.631L54.1894 117.603L55.2794 117.692Z" fill="#0F1B63"/>
<path d="M55.4128 122.111L57.6035 121.056L55.6197 119.658L55.7004 118.698L58.5472 120.799L58.4911 121.463L55.332 123.066L55.4128 122.111Z" fill="#0F1B63"/>
<g opacity="0.24">
<path d="M114.589 40.084C114.508 40.0835 114.43 40.109 114.365 40.1566C114.3 40.2043 114.252 40.2716 114.229 40.3486C114.17 40.5414 114.114 40.7351 114.06 40.9298C114.034 41.0251 114.047 41.127 114.095 41.213C114.144 41.2991 114.225 41.3622 114.32 41.3886C114.416 41.415 114.518 41.4025 114.604 41.3537C114.69 41.305 114.753 41.2241 114.779 41.1288C114.831 40.9401 114.886 40.7533 114.942 40.5683C114.957 40.5215 114.962 40.4724 114.957 40.4237C114.952 40.375 114.938 40.3278 114.915 40.2846C114.892 40.2414 114.861 40.2033 114.823 40.1722C114.785 40.1411 114.741 40.1178 114.695 40.1036C114.66 40.0922 114.625 40.0855 114.589 40.084Z" fill="#0F1B63"/>
<path d="M114.047 42.5487C114.144 42.5673 114.229 42.6237 114.285 42.7055C114.34 42.7873 114.361 42.8878 114.343 42.9848C114.269 43.3665 114.205 43.7556 114.15 44.1418C114.144 44.1902 114.127 44.2368 114.102 44.279C114.078 44.3211 114.045 44.3579 114.006 44.3874C113.967 44.4168 113.922 44.4383 113.875 44.4505C113.827 44.4627 113.778 44.4656 113.73 44.4587C113.681 44.4519 113.634 44.4357 113.592 44.4108C113.55 44.386 113.513 44.3531 113.484 44.3141C113.454 44.275 113.433 44.2305 113.421 44.1832C113.408 44.1358 113.406 44.0865 113.412 44.0381C113.468 43.6395 113.535 43.2382 113.61 42.8447C113.627 42.759 113.672 42.6818 113.74 42.6265C113.807 42.5712 113.892 42.5413 113.979 42.542C114.002 42.542 114.024 42.5443 114.047 42.5487ZM113.611 45.6445C113.71 45.6505 113.802 45.6951 113.867 45.7686C113.933 45.8421 113.967 45.9386 113.961 46.0369C113.938 46.4254 113.925 46.8217 113.92 47.2095C113.92 47.2584 113.91 47.3067 113.891 47.3517C113.872 47.3967 113.844 47.4375 113.809 47.4717C113.774 47.506 113.733 47.533 113.687 47.5513C113.642 47.5696 113.594 47.5788 113.545 47.5784C113.446 47.5773 113.352 47.5371 113.282 47.4666C113.213 47.3961 113.175 47.301 113.176 47.2023C113.18 46.8004 113.194 46.3934 113.218 45.9926C113.223 45.8973 113.266 45.8077 113.335 45.7425C113.405 45.6773 113.497 45.6414 113.593 45.6423L113.611 45.6445ZM113.977 49.1198C114.004 49.5088 114.041 49.9018 114.089 50.288C114.097 50.3842 114.067 50.4799 114.006 50.5547C113.945 50.6294 113.857 50.6776 113.761 50.6889C113.665 50.7003 113.569 50.6739 113.492 50.6154C113.415 50.5569 113.364 50.4709 113.349 50.3754C113.302 49.9774 113.264 49.5722 113.237 49.1714C113.23 49.0728 113.263 48.9756 113.328 48.9011C113.392 48.8266 113.484 48.7809 113.583 48.774H113.613C113.705 48.7758 113.794 48.8119 113.861 48.8753C113.928 48.9387 113.97 49.0248 113.977 49.117V49.1198ZM114.386 52.1702C114.462 52.5508 114.549 52.9354 114.644 53.3137C114.658 53.3617 114.662 53.412 114.656 53.4616C114.65 53.5111 114.634 53.559 114.609 53.6023C114.584 53.6455 114.551 53.6834 114.511 53.7135C114.471 53.7436 114.425 53.7654 114.377 53.7776C114.329 53.7898 114.278 53.7922 114.229 53.7845C114.179 53.7769 114.132 53.7594 114.09 53.7331C114.047 53.7069 114.01 53.6723 113.981 53.6316C113.953 53.5908 113.932 53.5447 113.922 53.4959C113.823 53.1035 113.733 52.7111 113.655 52.3188C113.645 52.2708 113.645 52.2214 113.654 52.1733C113.664 52.1253 113.683 52.0796 113.71 52.0389C113.737 51.9982 113.772 51.9632 113.813 51.936C113.854 51.9088 113.899 51.8899 113.947 51.8804C113.973 51.8755 113.998 51.8731 114.024 51.8731C114.109 51.8739 114.191 51.9034 114.257 51.9569C114.322 52.0104 114.368 52.0846 114.386 52.1674V52.1702ZM115.184 55.141C115.31 55.5093 115.446 55.8798 115.59 56.2419C115.623 56.3332 115.62 56.434 115.58 56.5227C115.54 56.6115 115.468 56.6813 115.377 56.7171C115.287 56.753 115.186 56.752 115.096 56.7146C115.006 56.6771 114.935 56.6061 114.897 56.5166C114.749 56.1433 114.608 55.761 114.479 55.381C114.447 55.2874 114.454 55.1852 114.497 55.0966C114.541 55.008 114.618 54.9403 114.712 54.9084C114.751 54.8948 114.793 54.8882 114.835 54.8888C114.912 54.8892 114.987 54.9133 115.049 54.958C115.112 55.0027 115.159 55.0657 115.184 55.1382V55.141ZM116.362 57.9846C116.534 58.3333 116.718 58.6836 116.908 59.0244C116.932 59.0672 116.947 59.1143 116.953 59.1631C116.959 59.2118 116.955 59.2613 116.942 59.3085C116.929 59.3558 116.906 59.4 116.876 59.4385C116.845 59.4771 116.807 59.5092 116.764 59.5331C116.722 59.557 116.674 59.5721 116.626 59.5777C116.577 59.5833 116.527 59.5792 116.48 59.5657C116.433 59.5521 116.389 59.5293 116.35 59.4987C116.312 59.468 116.28 59.4301 116.256 59.3871C116.061 59.035 115.871 58.6741 115.696 58.3142C115.674 58.2704 115.661 58.2228 115.658 58.174C115.654 58.1252 115.661 58.0762 115.676 58.0299C115.692 57.9835 115.716 57.9407 115.749 57.9039C115.781 57.8671 115.82 57.837 115.864 57.8153C115.916 57.7893 115.974 57.776 116.032 57.7767C116.101 57.7764 116.169 57.7954 116.228 57.8317C116.287 57.8679 116.335 57.9199 116.366 57.9818L116.362 57.9846ZM117.902 60.6516C118.119 60.9756 118.346 61.2985 118.578 61.6118C118.634 61.6913 118.657 61.7896 118.642 61.8857C118.626 61.9818 118.574 62.0681 118.496 62.126C118.417 62.184 118.32 62.2091 118.223 62.196C118.127 62.1828 118.039 62.1325 117.979 62.0557C117.739 61.7323 117.505 61.3994 117.282 61.0653C117.253 61.0246 117.233 60.9786 117.223 60.9301C117.212 60.8815 117.211 60.8313 117.221 60.7825C117.23 60.7336 117.248 60.6871 117.276 60.6456C117.303 60.6041 117.339 60.5685 117.38 60.5409C117.421 60.5134 117.468 60.4943 117.517 60.4849C117.566 60.4756 117.616 60.476 117.664 60.4864C117.713 60.4967 117.759 60.5166 117.8 60.545C117.841 60.5734 117.875 60.6096 117.902 60.6516ZM119.774 63.0966C120.031 63.3898 120.298 63.6807 120.568 63.961C120.604 63.9959 120.632 64.0376 120.651 64.0835C120.67 64.1294 120.68 64.1787 120.679 64.2285C120.679 64.2782 120.669 64.3274 120.649 64.3731C120.63 64.4188 120.601 64.4602 120.565 64.4947C120.53 64.5293 120.487 64.5563 120.441 64.5742C120.394 64.5921 120.345 64.6005 120.295 64.599C120.245 64.5975 120.196 64.586 120.151 64.5653C120.106 64.5446 120.065 64.515 120.032 64.4783C119.751 64.1897 119.478 63.8892 119.213 63.5866C119.148 63.5122 119.115 63.4151 119.122 63.3166C119.129 63.2181 119.174 63.1263 119.248 63.0613C119.323 62.9964 119.42 62.9636 119.518 62.9702C119.617 62.9768 119.709 63.0223 119.774 63.0966H119.774ZM121.945 65.2793C122.238 65.5378 122.54 65.7917 122.843 66.0344C122.882 66.0645 122.915 66.1023 122.94 66.1454C122.964 66.1885 122.98 66.2361 122.986 66.2853C122.992 66.3346 122.988 66.3846 122.975 66.4324C122.961 66.4802 122.938 66.5247 122.907 66.5635C122.876 66.6023 122.838 66.6344 122.794 66.6581C122.75 66.6818 122.702 66.6966 122.653 66.7015C122.604 66.7064 122.554 66.7014 122.506 66.6867C122.459 66.6721 122.415 66.6481 122.377 66.6162C122.064 66.3657 121.752 66.1039 121.451 65.8376C121.414 65.8052 121.384 65.7659 121.362 65.7219C121.341 65.6779 121.328 65.6301 121.325 65.5812C121.322 65.5322 121.328 65.4832 121.344 65.4368C121.36 65.3904 121.385 65.3475 121.417 65.3107C121.45 65.2739 121.489 65.2439 121.533 65.2223C121.577 65.2007 121.625 65.1879 121.674 65.1848C121.723 65.1817 121.772 65.1882 121.818 65.2041C121.865 65.2199 121.907 65.2447 121.944 65.2771L121.945 65.2793ZM124.378 67.165C124.701 67.3836 125.033 67.596 125.365 67.7978C125.45 67.849 125.51 67.9317 125.534 68.0276C125.557 68.1235 125.542 68.2249 125.491 68.3093C125.439 68.3937 125.357 68.4544 125.261 68.4779C125.165 68.5014 125.063 68.4858 124.979 68.4346C124.636 68.2266 124.294 68.0069 123.961 67.7821C123.894 67.7371 123.844 67.6721 123.818 67.5965C123.792 67.5209 123.79 67.4389 123.814 67.3625C123.838 67.2862 123.886 67.2195 123.951 67.1724C124.015 67.1253 124.094 67.1003 124.174 67.1011C124.247 67.1003 124.319 67.1216 124.381 67.1622L124.378 67.165ZM149.415 68.5798C149.462 68.6668 149.472 68.7688 149.443 68.8634C149.415 68.958 149.35 69.0374 149.263 69.0842C148.907 69.2742 148.544 69.4581 148.182 69.6296C148.094 69.6658 147.995 69.6667 147.906 69.6323C147.817 69.5978 147.744 69.5306 147.704 69.4444C147.663 69.3582 147.656 69.2596 147.686 69.169C147.716 69.0783 147.779 69.0024 147.863 68.957C148.213 68.7888 148.566 68.6128 148.911 68.4284C148.966 68.3987 149.027 68.3835 149.09 68.3841C149.157 68.3838 149.222 68.4015 149.28 68.4355C149.338 68.4694 149.385 68.5183 149.417 68.5769L149.415 68.5798ZM127.033 68.721C127.38 68.8953 127.737 69.0635 128.093 69.221C128.137 69.2408 128.178 69.2691 128.211 69.3045C128.245 69.3399 128.272 69.3816 128.289 69.4272C128.307 69.4728 128.315 69.5214 128.314 69.5703C128.313 69.6191 128.302 69.6673 128.283 69.712C128.263 69.7567 128.234 69.7971 128.199 69.8309C128.164 69.8646 128.122 69.8911 128.076 69.9087C128.031 69.9264 127.982 69.9349 127.933 69.9337C127.884 69.9326 127.836 69.9218 127.791 69.902C127.425 69.7406 127.057 69.5657 126.698 69.3869C126.654 69.3648 126.615 69.3344 126.583 69.2972C126.551 69.2601 126.527 69.217 126.512 69.1705C126.496 69.124 126.49 69.0749 126.494 69.026C126.498 68.9772 126.511 68.9295 126.533 68.8858C126.555 68.8421 126.586 68.8031 126.623 68.7712C126.66 68.7392 126.703 68.7149 126.75 68.6996C126.796 68.6843 126.845 68.6783 126.894 68.682C126.943 68.6857 126.991 68.6989 127.034 68.721H127.033ZM146.589 69.9161C146.624 70.0085 146.621 70.1111 146.58 70.2012C146.539 70.2912 146.464 70.3615 146.372 70.3964C145.997 70.5382 145.613 70.6728 145.229 70.7966C145.135 70.827 145.033 70.8187 144.945 70.7736C144.857 70.7285 144.79 70.6503 144.76 70.5562C144.73 70.4621 144.738 70.3598 144.783 70.2718C144.828 70.1838 144.906 70.1173 145 70.087C145.372 69.9676 145.744 69.837 146.108 69.6997C146.152 69.6833 146.197 69.675 146.244 69.675C146.319 69.6759 146.392 69.6993 146.453 69.7423C146.515 69.7853 146.562 69.8458 146.589 69.9161ZM129.865 69.9161C130.233 70.0444 130.608 70.1649 130.98 70.2742C131.071 70.305 131.147 70.3699 131.191 70.4554C131.236 70.5409 131.246 70.6402 131.218 70.7327C131.191 70.8251 131.129 70.9034 131.046 70.9512C130.962 70.999 130.863 71.0125 130.769 70.9889C130.386 70.8768 129.999 70.7524 129.619 70.6195C129.529 70.5846 129.456 70.516 129.416 70.4282C129.375 70.3405 129.37 70.2404 129.402 70.1491C129.434 70.0579 129.5 69.9825 129.586 69.939C129.673 69.8956 129.773 69.8873 129.865 69.9161ZM143.611 70.8751C143.623 70.923 143.624 70.9726 143.616 71.0211C143.608 71.0696 143.591 71.1161 143.565 71.1578C143.539 71.1995 143.505 71.2356 143.465 71.264C143.424 71.2925 143.379 71.3127 143.331 71.3235C142.939 71.416 142.541 71.499 142.146 71.5719C142.098 71.5807 142.049 71.58 142.001 71.5698C141.953 71.5596 141.908 71.54 141.867 71.5122C141.786 71.4562 141.73 71.37 141.712 71.2728C141.694 71.1756 141.716 71.0752 141.772 70.9938C141.828 70.9124 141.914 70.8566 142.011 70.8387C142.394 70.7686 142.781 70.6879 143.161 70.5982C143.208 70.5868 143.258 70.585 143.306 70.5928C143.355 70.6006 143.401 70.6179 143.443 70.6436C143.484 70.6694 143.521 70.7032 143.549 70.743C143.578 70.7829 143.598 70.8279 143.609 70.8757L143.611 70.8751ZM132.828 70.7378C133.208 70.8168 133.596 70.8875 133.982 70.948C134.032 70.9539 134.08 70.9698 134.124 70.9947C134.167 71.0196 134.205 71.053 134.236 71.093C134.266 71.1329 134.288 71.1786 134.3 71.2272C134.312 71.2758 134.315 71.3264 134.307 71.3759C134.299 71.4254 134.281 71.4729 134.255 71.5154C134.228 71.558 134.193 71.5947 134.152 71.6235C134.111 71.6522 134.065 71.6724 134.016 71.6828C133.967 71.6932 133.916 71.6936 133.867 71.684C133.469 71.6217 133.068 71.5483 132.676 71.467C132.585 71.4488 132.504 71.3972 132.449 71.3223C132.394 71.2475 132.369 71.1548 132.379 71.0624C132.389 70.9701 132.433 70.8848 132.503 70.8232C132.572 70.7617 132.663 70.7284 132.755 70.7299C132.781 70.7303 132.806 70.7333 132.831 70.7389L132.828 70.7378ZM140.535 71.4407C140.545 71.539 140.515 71.6372 140.453 71.7138C140.39 71.7904 140.3 71.8391 140.202 71.8493C139.852 71.8852 139.496 71.9138 139.147 71.9345L138.995 71.9429C138.896 71.9481 138.799 71.9139 138.726 71.8479C138.652 71.7818 138.608 71.6893 138.603 71.5906C138.598 71.492 138.632 71.3953 138.698 71.3219C138.764 71.2485 138.857 71.2043 138.955 71.1991L139.102 71.1907C139.442 71.1705 139.786 71.1425 140.126 71.1077C140.14 71.1069 140.154 71.1069 140.168 71.1077C140.26 71.1082 140.348 71.1426 140.417 71.2042C140.485 71.2659 140.528 71.3505 140.537 71.4418L140.535 71.4407ZM135.879 71.1655C136.268 71.1952 136.664 71.2148 137.051 71.2215C137.15 71.2241 137.244 71.2658 137.312 71.3374C137.38 71.4091 137.417 71.5049 137.414 71.6038C137.412 71.7027 137.37 71.7965 137.299 71.8646C137.227 71.9327 137.131 71.9696 137.032 71.967C136.631 71.9564 136.224 71.9362 135.824 71.9059C135.727 71.8985 135.638 71.854 135.574 71.7818C135.51 71.7096 135.476 71.6153 135.48 71.5189C135.484 71.4224 135.525 71.3313 135.595 71.2646C135.665 71.198 135.758 71.161 135.855 71.1616L135.879 71.1655Z" fill="#0F1B63"/>
<path d="M151.27 67.0589C151.194 67.058 151.12 67.0805 151.057 67.1233C150.896 67.2332 150.733 67.3412 150.568 67.4473C150.488 67.5022 150.433 67.5862 150.414 67.6813C150.394 67.7765 150.413 67.8754 150.466 67.9569C150.519 68.0385 150.601 68.0963 150.696 68.118C150.79 68.1398 150.89 68.1238 150.973 68.0734C151.141 67.9641 151.309 67.8526 151.477 67.7371C151.543 67.6924 151.592 67.6279 151.619 67.553C151.645 67.4782 151.647 67.3969 151.624 67.321C151.6 67.2451 151.554 67.1785 151.49 67.131C151.427 67.0834 151.35 67.0574 151.27 67.0566V67.0589Z" fill="#0F1B63"/>
</g>
<g opacity="0.24">
<path d="M161.425 51.5557C161.338 51.555 161.253 51.585 161.185 51.6405C161.118 51.6961 161.072 51.7736 161.056 51.8595C161.018 52.0523 160.98 52.244 160.941 52.4346C160.929 52.4831 160.926 52.5336 160.934 52.5831C160.942 52.6325 160.96 52.6799 160.986 52.7223C161.013 52.7648 161.048 52.8015 161.089 52.8302C161.13 52.8589 161.176 52.8791 161.225 52.8896C161.274 52.9 161.324 52.9005 161.374 52.8909C161.423 52.8814 161.469 52.8621 161.511 52.8341C161.552 52.8061 161.588 52.7701 161.615 52.7281C161.642 52.6862 161.661 52.6391 161.67 52.5899C161.712 52.3925 161.752 52.1949 161.789 51.9968C161.799 51.9432 161.797 51.8881 161.784 51.8352C161.77 51.7824 161.745 51.7332 161.71 51.6911C161.676 51.649 161.632 51.615 161.583 51.5916C161.534 51.5682 161.48 51.5559 161.425 51.5557Z" fill="#0F1B63"/>
<path d="M138.166 22.9709C138.215 22.9715 138.263 22.9818 138.308 23.0012C138.353 23.0205 138.394 23.0485 138.428 23.0836C138.462 23.1187 138.489 23.1602 138.507 23.2056C138.525 23.2511 138.534 23.2997 138.534 23.3487C138.533 23.3976 138.523 23.446 138.503 23.4909C138.484 23.5359 138.456 23.5766 138.421 23.6108C138.386 23.6449 138.344 23.6718 138.299 23.6899C138.253 23.7081 138.205 23.717 138.156 23.7164H138.153L137.938 23.713C137.627 23.7102 137.311 23.713 136.997 23.7225C136.9 23.7229 136.807 23.6853 136.737 23.6177C136.667 23.5501 136.626 23.4579 136.623 23.3607C136.62 23.2635 136.656 23.1691 136.721 23.0975C136.787 23.0259 136.878 22.9829 136.975 22.9776C137.298 22.9681 137.624 22.9647 137.945 22.9681L138.166 22.9709ZM140.098 23.083C140.491 23.1217 140.89 23.1704 141.28 23.2276C141.375 23.2451 141.459 23.2988 141.516 23.3772C141.572 23.4557 141.595 23.5528 141.581 23.6483C141.567 23.7437 141.517 23.83 141.44 23.889C141.364 23.948 141.268 23.9752 141.172 23.9647C140.793 23.9086 140.408 23.8621 140.026 23.8251C139.93 23.8161 139.841 23.7703 139.779 23.6975C139.716 23.6247 139.683 23.5304 139.689 23.4344C139.694 23.3383 139.736 23.248 139.806 23.1822C139.876 23.1164 139.969 23.0802 140.065 23.0813L140.098 23.083ZM135.455 23.4412C135.465 23.5394 135.436 23.6378 135.374 23.7148C135.312 23.7917 135.222 23.8409 135.124 23.8515C134.743 23.8924 134.357 23.9434 133.978 24.0028C133.882 24.0139 133.785 23.9873 133.709 23.9287C133.632 23.8701 133.581 23.784 133.566 23.6886C133.552 23.5932 133.575 23.4958 133.631 23.4171C133.687 23.3383 133.771 23.2842 133.866 23.2663C134.258 23.2052 134.655 23.1542 135.047 23.1104C135.062 23.1096 135.076 23.1096 135.091 23.1104C135.181 23.1121 135.268 23.1465 135.335 23.2072C135.402 23.268 135.444 23.3509 135.455 23.4406V23.4412ZM143.182 23.5852C143.568 23.6738 143.956 23.7724 144.336 23.8795C144.384 23.8924 144.428 23.9146 144.467 23.9448C144.506 23.975 144.538 24.0126 144.563 24.0555C144.587 24.0983 144.603 24.1456 144.609 24.1945C144.614 24.2434 144.611 24.293 144.597 24.3404C144.584 24.3878 144.561 24.4321 144.531 24.4707C144.5 24.5094 144.462 24.5415 144.419 24.5654C144.376 24.5892 144.328 24.6043 144.279 24.6097C144.23 24.6152 144.181 24.6108 144.134 24.597C143.766 24.4933 143.389 24.3974 143.015 24.3117C142.926 24.291 142.847 24.2382 142.794 24.1631C142.742 24.0881 142.718 23.9962 142.729 23.905C142.74 23.8138 142.784 23.7298 142.852 23.6691C142.921 23.6083 143.01 23.575 143.102 23.5757C143.129 23.5757 143.156 23.5787 143.182 23.5847V23.5852ZM132.412 23.9176C132.435 24.0136 132.419 24.1148 132.367 24.1988C132.315 24.2829 132.232 24.343 132.136 24.366C131.762 24.4552 131.387 24.5549 131.02 24.6614C130.973 24.6751 130.923 24.6794 130.875 24.674C130.826 24.6686 130.779 24.6538 130.736 24.6302C130.693 24.6067 130.655 24.5749 130.625 24.5367C130.594 24.4986 130.571 24.4548 130.558 24.4078C130.544 24.3608 130.54 24.3116 130.545 24.263C130.551 24.2144 130.565 24.1673 130.589 24.1245C130.613 24.0816 130.644 24.0438 130.682 24.0132C130.721 23.9826 130.764 23.9598 130.811 23.9462C131.19 23.8341 131.577 23.7332 131.963 23.6413C131.993 23.6342 132.023 23.6306 132.053 23.6306C132.137 23.6315 132.217 23.6601 132.282 23.7121C132.347 23.764 132.393 23.8361 132.412 23.917V23.9176ZM146.175 24.4781C146.545 24.6143 146.916 24.7623 147.28 24.917C147.371 24.9557 147.443 25.0289 147.479 25.1205C147.516 25.2121 147.515 25.3146 147.477 25.4055C147.438 25.4964 147.365 25.5683 147.273 25.6052C147.182 25.6422 147.079 25.6412 146.988 25.6026C146.635 25.4523 146.275 25.3094 145.917 25.1771C145.834 25.1468 145.765 25.0882 145.722 25.0119C145.678 24.9356 145.663 24.8463 145.679 24.7599C145.695 24.6735 145.741 24.5955 145.808 24.5396C145.876 24.4838 145.962 24.4536 146.05 24.4546C146.092 24.4547 146.135 24.4622 146.175 24.477V24.4781ZM129.456 24.778C129.474 24.8238 129.482 24.8725 129.48 24.9214C129.479 24.9703 129.468 25.0185 129.448 25.0631C129.428 25.1077 129.399 25.1479 129.363 25.1814C129.328 25.2149 129.286 25.2411 129.24 25.2584C128.881 25.3952 128.521 25.5387 128.171 25.695C128.08 25.7347 127.977 25.7367 127.885 25.7006C127.793 25.6646 127.719 25.5934 127.679 25.5028C127.64 25.4122 127.638 25.3095 127.674 25.2175C127.71 25.1254 127.781 25.0514 127.872 25.0118C128.234 24.8542 128.605 24.7023 128.976 24.5633C129.019 24.5469 129.065 24.5387 129.111 24.5392C129.186 24.5398 129.259 24.5627 129.32 24.6051C129.382 24.6475 129.429 24.7073 129.456 24.7769V24.778ZM149.028 25.7444C149.377 25.9265 149.727 26.1205 150.069 26.3212C150.153 26.3719 150.214 26.4536 150.238 26.5486C150.262 26.6435 150.247 26.7441 150.198 26.8286C150.148 26.913 150.067 26.9746 149.973 27C149.878 27.0253 149.777 27.0124 149.692 26.9641C149.361 26.7696 149.019 26.5818 148.683 26.4036C148.609 26.3647 148.55 26.3022 148.515 26.2259C148.481 26.1495 148.474 26.064 148.494 25.9828C148.514 25.9017 148.561 25.8298 148.627 25.7786C148.694 25.7274 148.775 25.7 148.859 25.7007C148.918 25.7009 148.976 25.7156 149.028 25.7432V25.7444ZM126.635 26.0095C126.658 26.0526 126.672 26.0999 126.677 26.1486C126.682 26.1973 126.677 26.2465 126.663 26.2934C126.649 26.3402 126.626 26.3838 126.595 26.4217C126.564 26.4596 126.525 26.4909 126.482 26.514C126.146 26.695 125.807 26.8867 125.477 27.084C125.393 27.1316 125.293 27.1442 125.199 27.1194C125.105 27.0945 125.025 27.034 124.975 26.9508C124.925 26.8676 124.91 26.7683 124.932 26.6738C124.954 26.5794 125.012 26.4973 125.094 26.445C125.434 26.2416 125.782 26.0437 126.13 25.8576C126.173 25.8344 126.22 25.82 126.269 25.8151C126.318 25.8102 126.367 25.815 126.414 25.8292C126.461 25.8433 126.505 25.8666 126.542 25.8976C126.58 25.9287 126.612 25.9669 126.635 26.0101V26.0095ZM151.699 27.3643C152.023 27.5885 152.346 27.8267 152.659 28.0683C152.737 28.1287 152.788 28.2176 152.801 28.3156C152.813 28.4136 152.786 28.5125 152.726 28.5907C152.666 28.6689 152.577 28.72 152.479 28.7326C152.381 28.7452 152.282 28.7184 152.203 28.658C151.9 28.4243 151.587 28.1944 151.273 27.9753C151.207 27.9297 151.158 27.8644 151.133 27.789C151.107 27.7136 151.107 27.632 151.131 27.5562C151.155 27.4804 151.203 27.4144 151.268 27.3677C151.332 27.3211 151.41 27.2963 151.49 27.297C151.564 27.2974 151.637 27.3205 151.698 27.3632L151.699 27.3643ZM154.143 29.3093C154.436 29.5745 154.727 29.8503 155.006 30.1294C155.076 30.1992 155.116 30.2939 155.116 30.3928C155.116 30.4917 155.077 30.5866 155.007 30.6566C154.937 30.7266 154.843 30.766 154.744 30.7662C154.645 30.7663 154.55 30.7272 154.48 30.6574C154.209 30.3861 153.927 30.1187 153.643 29.862C153.605 29.8296 153.574 29.7899 153.552 29.7454C153.53 29.7009 153.517 29.6524 153.514 29.6028C153.511 29.5532 153.518 29.5034 153.534 29.4565C153.551 29.4096 153.576 29.3664 153.61 29.3295C153.643 29.2927 153.683 29.2629 153.728 29.2418C153.774 29.2208 153.822 29.209 153.872 29.2071C153.922 29.2053 153.971 29.2133 154.018 29.2309C154.064 29.2484 154.107 29.2751 154.143 29.3093ZM156.322 31.5515C156.579 31.8519 156.833 32.1624 157.075 32.4752C157.132 32.5536 157.156 32.651 157.142 32.7469C157.129 32.8428 157.078 32.9296 157.001 32.9889C156.925 33.0482 156.828 33.0754 156.732 33.0647C156.636 33.054 156.547 33.0062 156.486 32.9315C156.251 32.6288 156.005 32.3278 155.757 32.0346C155.692 31.9595 155.661 31.862 155.668 31.7636C155.676 31.6651 155.723 31.5737 155.798 31.5094C155.835 31.4776 155.878 31.4533 155.924 31.4381C155.971 31.4229 156.02 31.417 156.069 31.4207C156.117 31.4245 156.165 31.4378 156.209 31.4599C156.252 31.4821 156.291 31.5126 156.323 31.5498L156.322 31.5515ZM158.2 34.0497C158.417 34.381 158.629 34.7224 158.829 35.0621C158.854 35.1042 158.87 35.1508 158.877 35.1992C158.884 35.2477 158.881 35.297 158.869 35.3443C158.857 35.3916 158.835 35.4361 158.806 35.4751C158.776 35.5142 158.739 35.5471 158.697 35.5719C158.655 35.5967 158.609 35.6129 158.56 35.6197C158.512 35.6265 158.462 35.6237 158.415 35.6114C158.368 35.5992 158.323 35.5777 158.284 35.5483C158.245 35.5188 158.212 35.482 158.187 35.4399C157.993 35.1097 157.788 34.7796 157.577 34.4584C157.55 34.4175 157.531 34.3717 157.522 34.3237C157.513 34.2756 157.513 34.2262 157.523 34.1783C157.533 34.1304 157.553 34.085 157.58 34.0445C157.608 34.0041 157.643 33.9695 157.684 33.9427C157.745 33.9019 157.818 33.8806 157.891 33.8816C157.952 33.8816 158.012 33.8966 158.066 33.9252C158.119 33.9539 158.165 33.9953 158.199 34.0458L158.2 34.0497ZM159.745 36.7678C159.918 37.1237 160.085 37.4892 160.24 37.8535C160.261 37.8988 160.273 37.9479 160.275 37.9978C160.276 38.0477 160.268 38.0974 160.25 38.144C160.232 38.1906 160.205 38.2331 160.17 38.2691C160.135 38.305 160.094 38.3336 160.048 38.3532C160.002 38.3727 159.953 38.3829 159.903 38.383C159.853 38.3831 159.803 38.3732 159.757 38.3538C159.711 38.3345 159.669 38.306 159.635 38.2703C159.6 38.2345 159.573 38.1921 159.554 38.1455C159.404 37.793 159.242 37.4387 159.074 37.0934C159.053 37.0494 159.04 37.0017 159.038 36.9529C159.035 36.904 159.041 36.8551 159.057 36.8089C159.073 36.7627 159.098 36.72 159.131 36.6834C159.163 36.6469 159.203 36.617 159.247 36.5957C159.299 36.57 159.357 36.5572 159.415 36.5581C159.483 36.5588 159.55 36.5783 159.609 36.6146C159.667 36.6509 159.714 36.7026 159.744 36.7638L159.745 36.7678ZM160.929 39.6612C161.054 40.0345 161.173 40.4174 161.28 40.7991C161.306 40.8939 161.293 40.995 161.245 41.0804C161.196 41.1659 161.116 41.2288 161.022 41.2554C160.927 41.2821 160.826 41.2703 160.74 41.2228C160.654 41.1752 160.59 41.0957 160.563 41.0014C160.458 40.6315 160.344 40.2604 160.222 39.8983C160.19 39.8047 160.198 39.7024 160.242 39.614C160.286 39.5257 160.363 39.4584 160.457 39.4269C160.496 39.4133 160.537 39.4067 160.579 39.4073C160.656 39.4079 160.731 39.4322 160.793 39.4769C160.856 39.5217 160.903 39.5847 160.928 39.6573L160.929 39.6612ZM161.731 42.6797C161.808 43.067 161.876 43.4644 161.935 43.8529C161.943 43.902 161.942 43.9524 161.931 44.001C161.92 44.0497 161.9 44.0957 161.87 44.1362C161.841 44.1768 161.804 44.211 161.762 44.237C161.719 44.263 161.672 44.2802 161.622 44.2875C161.573 44.2948 161.523 44.2921 161.474 44.2796C161.426 44.2671 161.381 44.2451 161.341 44.2147C161.301 44.1844 161.268 44.1464 161.243 44.103C161.219 44.0596 161.203 44.0117 161.197 43.9622C161.141 43.5832 161.074 43.2004 161 42.8243C160.981 42.7274 161.001 42.6268 161.056 42.5447C161.111 42.4626 161.196 42.4057 161.293 42.3865C161.318 42.3816 161.344 42.3792 161.369 42.3792C161.454 42.38 161.537 42.4099 161.602 42.4638C161.668 42.5177 161.713 42.5925 161.731 42.6757L161.731 42.6797ZM162.143 45.7755C162.149 45.8562 162.154 45.9369 162.159 46.0176C162.178 46.3326 162.191 46.6516 162.198 46.9644C162.2 47.0142 162.193 47.0642 162.176 47.1111C162.159 47.1581 162.133 47.2012 162.099 47.2378C162.065 47.2745 162.024 47.3039 161.978 47.3244C161.933 47.3449 161.883 47.356 161.833 47.3571C161.783 47.3582 161.734 47.3492 161.687 47.3307C161.641 47.3123 161.599 47.2846 161.563 47.2495C161.528 47.2144 161.499 47.1725 161.48 47.1263C161.461 47.0801 161.452 47.0306 161.452 46.9806C161.446 46.6768 161.433 46.368 161.415 46.0625C161.41 45.9834 161.405 45.905 161.4 45.8265C161.393 45.7279 161.426 45.6307 161.49 45.5562C161.555 45.4817 161.647 45.436 161.746 45.4291H161.775C161.869 45.4301 161.958 45.466 162.026 45.5297C162.094 45.5934 162.136 45.6803 162.143 45.7732L162.143 45.7755ZM161.812 48.5058C161.911 48.5115 162.003 48.5559 162.069 48.6295C162.135 48.703 162.169 48.7997 162.163 48.8982C162.141 49.2906 162.107 49.6925 162.067 50.0848C162.063 50.1346 162.05 50.1831 162.027 50.2274C162.004 50.2718 161.972 50.3111 161.934 50.3431C161.896 50.375 161.851 50.399 161.803 50.4135C161.756 50.428 161.706 50.4327 161.656 50.4275C161.606 50.4222 161.558 50.4071 161.514 50.3829C161.471 50.3587 161.432 50.326 161.402 50.2867C161.371 50.2475 161.348 50.2024 161.335 50.1542C161.322 50.1061 161.319 50.0558 161.326 50.0064C161.366 49.6263 161.397 49.239 161.419 48.8556C161.425 48.76 161.467 48.6701 161.537 48.6047C161.607 48.5393 161.699 48.5033 161.795 48.5041L161.812 48.5058Z" fill="#0F1B63"/>
<path d="M123.684 27.4434C123.606 27.4423 123.529 27.4665 123.465 27.5123C123.301 27.6293 123.138 27.7485 122.977 27.87C122.898 27.9294 122.846 28.0178 122.832 28.1158C122.818 28.2137 122.844 28.3131 122.903 28.3921C122.963 28.4711 123.051 28.5233 123.149 28.5371C123.247 28.5509 123.346 28.5253 123.425 28.4658C123.582 28.3481 123.74 28.2324 123.899 28.1188C123.962 28.0728 124.009 28.0082 124.033 27.934C124.058 27.8599 124.058 27.78 124.034 27.7057C124.011 27.6314 123.964 27.5663 123.902 27.5198C123.839 27.4732 123.764 27.4475 123.686 27.4462L123.684 27.4434Z" fill="#0F1B63"/>
</g>
<path d="M122.073 37.4147C122.035 37.4612 122.011 37.5185 122.007 37.5788C122.002 37.6392 122.017 37.6994 122.048 37.7511L123.876 40.7661C123.128 42.259 122.629 43.8637 122.397 45.5172L119.185 46.965C119.13 46.9901 119.085 47.0315 119.055 47.0835C119.025 47.1355 119.011 47.1956 119.017 47.2554L119.403 51.4667C119.409 51.5266 119.433 51.5833 119.472 51.6289C119.512 51.6745 119.564 51.7068 119.623 51.7211L123.043 52.5619C123.572 54.1457 124.355 55.6327 125.362 56.9643L124.113 60.2614C124.092 60.3178 124.089 60.3796 124.104 60.438C124.119 60.4963 124.153 60.5485 124.199 60.5871L127.451 63.291C127.498 63.3298 127.555 63.3531 127.615 63.3576C127.676 63.3621 127.736 63.3477 127.788 63.3163L130.804 61.4889C132.297 62.2368 133.902 62.736 135.556 62.9671L137.001 66.1767C137.026 66.2313 137.068 66.2769 137.12 66.307C137.172 66.3372 137.232 66.3504 137.292 66.3448L141.504 65.9586C141.564 65.9532 141.621 65.9291 141.667 65.8898C141.712 65.8505 141.745 65.798 141.759 65.7394L142.6 62.3202C144.184 61.7923 145.672 61.0097 147.004 60.003L150.303 61.2507C150.359 61.2721 150.421 61.2753 150.479 61.2601C150.537 61.2448 150.589 61.2117 150.628 61.1655L153.333 57.9144C153.371 57.868 153.395 57.8106 153.399 57.7503C153.404 57.69 153.389 57.6298 153.358 57.5781L151.531 54.563C152.278 53.0703 152.777 51.4658 153.009 49.8125L156.222 48.3641C156.276 48.3393 156.322 48.298 156.352 48.2459C156.382 48.1938 156.395 48.1337 156.39 48.0738L156.003 43.8631C155.998 43.8031 155.974 43.7462 155.935 43.7005C155.895 43.6548 155.843 43.6225 155.784 43.608L152.361 42.7672C151.833 41.1836 151.05 39.6966 150.043 38.3648L151.293 35.0672C151.315 35.0109 151.318 34.9493 151.303 34.891C151.288 34.8327 151.255 34.7806 151.208 34.7421L147.956 32.0376C147.91 31.9988 147.852 31.9755 147.792 31.971C147.731 31.9665 147.671 31.9809 147.62 32.0123L144.603 33.8397C143.11 33.0921 141.505 32.5928 139.851 32.3616L138.403 29.1508C138.378 29.0962 138.337 29.0506 138.285 29.0205C138.233 28.9903 138.172 28.9771 138.113 28.9827L133.9 29.3689C133.84 29.3746 133.784 29.3987 133.738 29.4381C133.692 29.4775 133.66 29.5301 133.645 29.5886L132.804 33.0078C131.22 33.5357 129.732 34.3184 128.4 35.3251L125.102 34.0773C125.045 34.056 124.984 34.0528 124.925 34.0681C124.867 34.0835 124.815 34.1167 124.777 34.1631L122.073 37.4147Z" fill="#0F1B63"/>
<path d="M138.335 43.6594C139.367 43.8233 140.295 44.3807 140.924 45.2143C141.553 46.0479 141.835 47.0929 141.709 48.1297C141.584 49.1665 141.061 50.1143 140.251 50.7739C139.441 51.4336 138.407 51.7537 137.366 51.6671C136.325 51.5804 135.358 51.0938 134.669 50.3093C133.979 49.5248 133.62 48.5037 133.668 47.4605C133.716 46.4173 134.167 45.4332 134.925 44.715C135.684 43.9969 136.691 43.6006 137.736 43.6095C137.936 43.6117 138.137 43.6284 138.335 43.6594ZM139.742 50.457C140.295 50.0545 140.716 49.4972 140.952 48.8554C141.188 48.2137 141.228 47.5165 141.067 46.8519C140.907 46.1873 140.553 45.5852 140.05 45.1218C139.547 44.6584 138.918 44.3545 138.242 44.2485C137.791 44.1713 137.328 44.1845 136.882 44.2875C136.436 44.3905 136.014 44.5811 135.642 44.8483C135.27 45.1155 134.954 45.454 134.714 45.844C134.474 46.2341 134.314 46.668 134.243 47.1204C134.172 47.5729 134.192 48.035 134.301 48.4798C134.41 48.9246 134.607 49.3433 134.879 49.7115C135.152 50.0797 135.495 50.3902 135.888 50.6247C136.282 50.8593 136.718 51.0134 137.171 51.078C137.34 51.1047 137.511 51.1189 137.682 51.1206C138.422 51.1272 139.145 50.8944 139.742 50.457Z" fill="white"/>
<path d="M137.875 37.3745C137.524 37.3711 137.173 37.3855 136.823 37.4177C136.682 37.4308 136.542 37.4464 136.402 37.4648C135.91 37.5301 135.424 37.6303 134.947 37.7646L134.906 37.7759C134.824 37.7994 134.743 37.8241 134.661 37.8493C134.631 37.8587 134.605 37.8774 134.586 37.9027C134.567 37.928 134.557 37.9585 134.557 37.99C134.556 38.0056 134.559 38.0211 134.564 38.0359C134.569 38.0546 134.579 38.072 134.591 38.0871C134.604 38.1021 134.619 38.1145 134.637 38.1236C134.654 38.1328 134.673 38.1384 134.692 38.1401C134.712 38.1419 134.732 38.1398 134.75 38.134C135.434 37.9201 136.138 37.7795 136.851 37.7148C139.432 37.4801 142.003 38.2495 144.031 39.8628C146.059 41.476 147.386 43.8088 147.736 46.3755C147.756 46.5184 147.772 46.6631 147.785 46.8082C147.817 47.152 147.831 47.4972 147.827 47.8424C147.798 50.3301 146.848 52.7187 145.16 54.5467C143.472 56.3747 141.166 57.5123 138.688 57.7397C133.164 58.2442 128.258 54.1663 127.754 48.6457C127.587 46.836 127.915 45.015 128.701 43.3767C128.716 43.3414 128.717 43.3018 128.703 43.266C128.69 43.2302 128.663 43.201 128.628 43.1844C128.594 43.1678 128.554 43.1652 128.518 43.177C128.482 43.1888 128.451 43.2141 128.433 43.2477C127.776 44.6139 127.429 46.1077 127.415 47.6232C127.411 47.9739 127.426 48.3245 127.458 48.6737C127.979 54.358 133.03 58.5603 138.716 58.0345C141.267 57.8 143.641 56.6291 145.378 54.7477C147.116 52.8663 148.095 50.408 148.126 47.8475C148.129 47.4919 148.114 47.1365 148.082 46.7824C147.593 41.4501 143.12 37.4216 137.875 37.3745Z" fill="white"/>
<g opacity="0.3">
<path d="M92.3806 21.5323C92.3356 21.5317 92.2918 21.5458 92.2555 21.5724C92.2193 21.599 92.1928 21.6367 92.1798 21.6797C92.1288 21.8479 92.0812 22.016 92.0357 22.1842C92.0279 22.2108 92.0255 22.2388 92.0287 22.2664C92.0319 22.2939 92.0405 22.3206 92.0542 22.3448C92.0678 22.369 92.0861 22.3902 92.1081 22.4072C92.1301 22.4242 92.1552 22.4366 92.1821 22.4437C92.2089 22.4508 92.2369 22.4525 92.2644 22.4486C92.2919 22.4447 92.3184 22.4354 92.3422 22.4211C92.366 22.4069 92.3868 22.388 92.4032 22.3656C92.4196 22.3432 92.4314 22.3177 92.4378 22.2907C92.4815 22.1225 92.5281 21.9617 92.578 21.7985C92.5939 21.7458 92.5882 21.6888 92.5623 21.6402C92.5363 21.5916 92.4922 21.5552 92.4395 21.539C92.4202 21.5341 92.4004 21.5318 92.3806 21.5323Z" fill="#0F1B63"/>
<path d="M92.044 23.0653C92.0711 23.0701 92.0969 23.0801 92.1201 23.0949C92.1432 23.1097 92.1632 23.129 92.1789 23.1515C92.1945 23.1741 92.2055 23.1996 92.2112 23.2265C92.217 23.2533 92.2173 23.2811 92.2122 23.3081C92.1483 23.6444 92.0961 23.9941 92.0569 24.3377C92.0544 24.3654 92.0465 24.3922 92.0335 24.4168C92.0205 24.4413 92.0027 24.4629 91.9812 24.4805C91.9597 24.498 91.9349 24.5111 91.9082 24.5189C91.8816 24.5267 91.8537 24.5291 91.8261 24.526C91.7985 24.5228 91.7719 24.5142 91.7477 24.5006C91.7235 24.487 91.7023 24.4687 91.6853 24.4468C91.6683 24.4248 91.6558 24.3997 91.6487 24.3729C91.6415 24.3461 91.6398 24.3181 91.6436 24.2907C91.684 23.937 91.7378 23.5805 91.8034 23.2307C91.8128 23.183 91.8386 23.1401 91.8763 23.1094C91.914 23.0787 91.9612 23.0621 92.0098 23.0625C92.0213 23.0623 92.0327 23.0632 92.044 23.0653ZM91.7754 25.1606C91.8027 25.1616 91.8295 25.168 91.8543 25.1794C91.8791 25.1908 91.9014 25.207 91.9199 25.2271C91.9384 25.2471 91.9527 25.2707 91.9621 25.2963C91.9715 25.3219 91.9757 25.3492 91.9745 25.3764C91.9689 25.5261 91.9649 25.6769 91.9632 25.8248C91.9632 26.021 91.9632 26.2172 91.9694 26.4156C91.9714 26.4436 91.9678 26.4717 91.9587 26.4982C91.9495 26.5248 91.9351 26.5492 91.9163 26.57C91.8975 26.5908 91.8747 26.6076 91.8492 26.6194C91.8237 26.6312 91.7961 26.6377 91.7681 26.6385C91.74 26.6394 91.7121 26.6345 91.686 26.6243C91.6599 26.614 91.6361 26.5986 91.6161 26.5789C91.5961 26.5593 91.5802 26.5357 91.5696 26.5098C91.5589 26.4839 91.5536 26.456 91.5539 26.428C91.5476 26.2251 91.5455 26.0227 91.5478 25.8209C91.5478 25.6658 91.5515 25.5111 91.559 25.3568C91.5613 25.3029 91.5844 25.2519 91.6235 25.2147C91.6627 25.1775 91.7147 25.1569 91.7687 25.1572L91.7754 25.1606ZM92.0389 27.4588C92.0743 27.8035 92.1225 28.1505 92.1825 28.4902C92.1886 28.5176 92.189 28.5459 92.1838 28.5735C92.1787 28.6011 92.168 28.6273 92.1524 28.6507C92.1368 28.674 92.1166 28.6939 92.0931 28.7093C92.0696 28.7246 92.0432 28.735 92.0156 28.7399C91.9879 28.7448 91.9596 28.744 91.9322 28.7377C91.9049 28.7313 91.8791 28.7195 91.8565 28.7029C91.8338 28.6863 91.8148 28.6653 91.8005 28.6412C91.7861 28.6171 91.7768 28.5903 91.7732 28.5625C91.7115 28.2127 91.661 27.8556 91.6251 27.5014C91.6201 27.4467 91.6368 27.3923 91.6717 27.3499C91.7065 27.3075 91.7567 27.2806 91.8113 27.2749H91.8348C91.8852 27.2756 91.9336 27.2945 91.9711 27.3281C92.0086 27.3617 92.0327 27.4077 92.0389 27.4577V27.4588ZM92.4 29.5086C92.4847 29.845 92.5823 30.1813 92.691 30.5086C92.702 30.5588 92.694 30.6112 92.6686 30.6558C92.6432 30.7003 92.6022 30.734 92.5535 30.7502C92.5048 30.7664 92.4518 30.764 92.4048 30.7435C92.3577 30.7231 92.3199 30.6859 92.2985 30.6392C92.1864 30.3029 92.086 29.9554 91.9991 29.6101C91.9924 29.5836 91.991 29.5561 91.9949 29.5291C91.9989 29.5021 92.0081 29.4761 92.0221 29.4527C92.0362 29.4292 92.0547 29.4088 92.0766 29.3925C92.0985 29.3762 92.1235 29.3645 92.15 29.3579C92.1672 29.3534 92.1849 29.3513 92.2027 29.3517C92.2481 29.3525 92.292 29.3681 92.3277 29.3963C92.3633 29.4244 92.3887 29.4635 92.4 29.5075V29.5086ZM93.0544 31.4845C93.1867 31.804 93.3348 32.123 93.4884 32.4329C93.5107 32.4819 93.5131 32.5376 93.4952 32.5883C93.4772 32.6391 93.4403 32.6809 93.3922 32.705C93.344 32.7291 93.2885 32.7336 93.2371 32.7175C93.1857 32.7015 93.1425 32.6662 93.1166 32.619C92.9568 32.3006 92.8066 31.9727 92.6681 31.6437C92.6469 31.5928 92.6468 31.5355 92.6678 31.4846C92.6888 31.4336 92.7293 31.393 92.7802 31.3718C92.806 31.3614 92.8336 31.3561 92.8615 31.3561C92.9026 31.3561 92.9428 31.3681 92.9771 31.3907C93.0114 31.4133 93.0383 31.4456 93.0544 31.4834V31.4845ZM93.9902 33.3455C94.1674 33.642 94.3581 33.9368 94.5571 34.2205C94.5887 34.2656 94.6011 34.3214 94.5915 34.3756C94.582 34.4299 94.5512 34.4781 94.5061 34.5097C94.461 34.5413 94.4051 34.5537 94.3509 34.5441C94.2966 34.5345 94.2484 34.5038 94.2168 34.4587C94.0121 34.1666 93.8158 33.864 93.6331 33.5618C93.6047 33.5145 93.5964 33.4578 93.6098 33.4043C93.6233 33.3508 93.6575 33.3048 93.7048 33.2765C93.7522 33.2482 93.8089 33.2399 93.8624 33.2533C93.9159 33.2668 93.9619 33.3009 93.9902 33.3483V33.3455ZM95.1857 35.0512C95.4032 35.318 95.6343 35.582 95.8726 35.8359C95.8926 35.8555 95.9084 35.879 95.9191 35.9049C95.9299 35.9307 95.9352 35.9585 95.9349 35.9865C95.9346 36.0146 95.9287 36.0422 95.9175 36.0679C95.9062 36.0935 95.8899 36.1167 95.8695 36.1359C95.849 36.1551 95.825 36.1699 95.7987 36.1796C95.7724 36.1893 95.7444 36.1935 95.7164 36.1921C95.6884 36.1907 95.661 36.1836 95.6358 36.1713C95.6106 36.1591 95.5881 36.1418 95.5698 36.1207C95.3247 35.8606 95.087 35.5893 94.8633 35.3146C94.8285 35.2718 94.8122 35.217 94.8177 35.1622C94.8233 35.1074 94.8504 35.057 94.893 35.022C94.9309 34.9917 94.9779 34.9753 95.0264 34.9755C95.0568 34.9756 95.0868 34.9823 95.1143 34.9952C95.1418 35.008 95.1662 35.0268 95.1857 35.05V35.0512ZM96.6144 36.5646C96.8678 36.7972 97.1342 37.0253 97.4061 37.2412C97.4475 37.276 97.4737 37.3256 97.479 37.3794C97.4844 37.4332 97.4686 37.487 97.435 37.5294C97.4014 37.5718 97.3526 37.5994 97.2989 37.6064C97.2453 37.6134 97.191 37.5992 97.1476 37.5668C96.8673 37.3426 96.5936 37.11 96.3329 36.8706C96.3107 36.8529 96.2923 36.8307 96.279 36.8055C96.2657 36.7803 96.2576 36.7527 96.2554 36.7243C96.2532 36.6959 96.2569 36.6674 96.2662 36.6405C96.2755 36.6135 96.2902 36.5888 96.3094 36.5678C96.3287 36.5468 96.352 36.53 96.378 36.5184C96.404 36.5068 96.4322 36.5006 96.4607 36.5003C96.4891 36.5 96.5174 36.5056 96.5436 36.5166C96.5699 36.5277 96.5936 36.544 96.6133 36.5646H96.6144ZM98.2455 37.8589C98.5292 38.0528 98.8259 38.24 99.1264 38.4149C99.1509 38.4281 99.1725 38.4462 99.19 38.4679C99.2074 38.4897 99.2202 38.5147 99.2278 38.5415C99.2353 38.5684 99.2374 38.5964 99.2339 38.6241C99.2304 38.6517 99.2213 38.6784 99.2073 38.7025C99.1933 38.7265 99.1746 38.7476 99.1523 38.7643C99.13 38.781 99.1045 38.793 99.0775 38.7997C99.0504 38.8064 99.0223 38.8076 98.9948 38.8032C98.9672 38.7988 98.9409 38.789 98.9173 38.7742C98.6077 38.5943 98.3033 38.4014 98.0106 38.2025C97.9738 38.1773 97.9461 38.1409 97.9316 38.0988C97.917 38.0567 97.9164 38.011 97.9298 37.9685C97.9431 37.926 97.9698 37.8889 98.0059 37.8627C98.0419 37.8365 98.0854 37.8226 98.13 37.823C98.1714 37.8234 98.2116 37.8363 98.2455 37.86V37.8589ZM113.376 38.7658C113.402 38.8143 113.408 38.8711 113.392 38.9237C113.375 38.9762 113.339 39.0202 113.291 39.0461C112.976 39.2142 112.651 39.3712 112.326 39.5152C112.276 39.5375 112.218 39.5389 112.167 39.5189C112.116 39.499 112.074 39.4595 112.052 39.409C112.029 39.3585 112.028 39.3013 112.048 39.2498C112.068 39.1984 112.108 39.1569 112.158 39.1346C112.474 38.9956 112.789 38.842 113.095 38.6795C113.144 38.6537 113.2 38.6483 113.253 38.6644C113.305 38.6804 113.35 38.7167 113.375 38.7652L113.376 38.7658ZM100.045 38.9087C100.356 39.0606 100.676 39.2024 100.998 39.3308C101.023 39.341 101.047 39.3561 101.066 39.3752C101.086 39.3943 101.101 39.4171 101.112 39.4423C101.123 39.4674 101.128 39.4944 101.129 39.5217C101.129 39.5491 101.124 39.5762 101.114 39.6015C101.103 39.6269 101.088 39.65 101.069 39.6695C101.05 39.6891 101.027 39.7046 101.002 39.7153C100.977 39.7261 100.95 39.7317 100.923 39.732C100.895 39.7323 100.868 39.7272 100.843 39.717C100.514 39.5847 100.184 39.4367 99.8637 39.282C99.8226 39.2606 99.7899 39.2261 99.7706 39.184C99.7514 39.1418 99.7467 39.0944 99.7575 39.0494C99.7683 39.0043 99.7938 38.9641 99.83 38.9352C99.8662 38.9062 99.911 38.8902 99.9574 38.8897C99.9874 38.8889 100.017 38.8944 100.045 38.9059V38.9087ZM111.456 39.6475C111.475 39.6994 111.472 39.7565 111.448 39.8063C111.425 39.8561 111.382 39.8946 111.33 39.9132C110.994 40.0326 110.652 40.1413 110.308 40.2366C110.255 40.2515 110.198 40.2447 110.15 40.2176C110.102 40.1906 110.066 40.1456 110.051 40.0926C110.037 40.0395 110.043 39.9827 110.07 39.9346C110.097 39.8866 110.142 39.8513 110.196 39.8364C110.532 39.7434 110.864 39.638 111.189 39.5219C111.212 39.5136 111.236 39.5094 111.261 39.5096C111.303 39.5097 111.345 39.5227 111.379 39.5468C111.414 39.5709 111.441 39.6051 111.456 39.6447V39.6475ZM101.976 39.6834C102.306 39.7888 102.643 39.8829 102.979 39.9636C103.006 39.97 103.031 39.9816 103.053 39.9976C103.075 40.0137 103.094 40.0339 103.108 40.0572C103.122 40.0805 103.132 40.1064 103.136 40.1334C103.14 40.1603 103.139 40.1879 103.133 40.2145C103.127 40.2411 103.115 40.2661 103.099 40.2882C103.083 40.3103 103.063 40.3291 103.039 40.3434C103.016 40.3577 102.99 40.3672 102.963 40.3715C102.936 40.3758 102.909 40.3747 102.882 40.3683C102.537 40.2854 102.189 40.1884 101.849 40.0797C101.802 40.0644 101.762 40.0328 101.736 39.9904C101.71 39.9481 101.7 39.8979 101.708 39.8489C101.716 39.7999 101.741 39.7553 101.779 39.7232C101.817 39.6911 101.865 39.6736 101.914 39.6739C101.935 39.6731 101.956 39.6754 101.976 39.6806V39.6834ZM109.427 40.2405C109.433 40.2673 109.433 40.2949 109.427 40.3216C109.422 40.3484 109.412 40.3739 109.397 40.3966C109.381 40.4193 109.362 40.4388 109.339 40.454C109.316 40.4691 109.291 40.4796 109.264 40.4849C108.915 40.555 108.559 40.6127 108.206 40.6576C108.152 40.6633 108.098 40.6476 108.055 40.6138C108.012 40.58 107.985 40.5309 107.978 40.4769C107.971 40.4228 107.986 40.3683 108.018 40.325C108.051 40.2816 108.1 40.2529 108.154 40.245C108.497 40.2013 108.844 40.1453 109.183 40.0769C109.197 40.0742 109.211 40.0729 109.225 40.0729C109.273 40.0733 109.319 40.0899 109.355 40.1198C109.392 40.1498 109.417 40.1914 109.427 40.2377V40.2405ZM104 40.1671C104.341 40.2232 104.688 40.2669 105.033 40.2983C105.088 40.3032 105.139 40.3297 105.174 40.3719C105.209 40.4142 105.226 40.4688 105.221 40.5236C105.216 40.5785 105.19 40.6291 105.148 40.6645C105.105 40.6998 105.051 40.7169 104.996 40.712C104.641 40.68 104.283 40.6346 103.931 40.5769C103.878 40.5692 103.831 40.5419 103.798 40.5005C103.765 40.459 103.749 40.4066 103.754 40.354C103.758 40.3013 103.783 40.2523 103.822 40.2171C103.862 40.1818 103.913 40.1629 103.966 40.1643C103.977 40.164 103.989 40.165 104 40.1671ZM107.334 40.532C107.336 40.5593 107.332 40.5865 107.323 40.6123C107.314 40.638 107.3 40.6617 107.281 40.682C107.263 40.7024 107.241 40.7189 107.217 40.7306C107.192 40.7424 107.165 40.7492 107.138 40.7506C106.823 40.7674 106.504 40.7747 106.189 40.7714H106.066C106.013 40.7679 105.963 40.7441 105.926 40.7049C105.89 40.6657 105.87 40.6141 105.871 40.5608C105.872 40.5074 105.893 40.4564 105.931 40.4183C105.968 40.3802 106.019 40.3579 106.072 40.356H106.191C106.497 40.356 106.808 40.3521 107.113 40.3353H107.127C107.18 40.3352 107.231 40.3555 107.27 40.392C107.308 40.4285 107.331 40.4784 107.334 40.5315V40.532Z" fill="#0F1B63"/>
<path d="M114.55 37.8336C114.508 37.8331 114.466 37.8456 114.431 37.8694C114.29 37.9655 114.148 38.0589 114.003 38.1497C113.956 38.1794 113.923 38.2265 113.911 38.2804C113.899 38.3344 113.909 38.3909 113.939 38.4375C113.969 38.4841 114.016 38.517 114.07 38.529C114.124 38.5409 114.18 38.5309 114.227 38.5012C114.376 38.4077 114.523 38.3115 114.668 38.2125C114.704 38.1875 114.732 38.1515 114.746 38.1098C114.761 38.068 114.762 38.0227 114.749 37.9804C114.736 37.9381 114.71 37.901 114.675 37.8745C114.639 37.848 114.596 37.8335 114.552 37.833L114.55 37.8336Z" fill="#0F1B63"/>
</g>
<g opacity="0.3">
<path d="M120.717 28.3076C120.668 28.3072 120.62 28.3241 120.582 28.3555C120.544 28.387 120.519 28.4308 120.51 28.4791C120.481 28.6473 120.448 28.8155 120.413 28.9836C120.406 29.0108 120.404 29.039 120.409 29.0667C120.413 29.0944 120.423 29.121 120.437 29.1448C120.452 29.1687 120.472 29.1893 120.495 29.2054C120.517 29.2215 120.543 29.2329 120.571 29.2387C120.598 29.2446 120.627 29.2448 120.654 29.2395C120.682 29.2341 120.708 29.2233 120.731 29.2076C120.754 29.1918 120.774 29.1716 120.789 29.1481C120.804 29.1245 120.815 29.0981 120.819 29.0705C120.856 28.899 120.889 28.7269 120.92 28.5531C120.924 28.5263 120.924 28.4988 120.918 28.4722C120.912 28.4456 120.901 28.4204 120.885 28.3981C120.87 28.3757 120.85 28.3567 120.827 28.342C120.804 28.3274 120.778 28.3174 120.751 28.3127C120.74 28.3098 120.728 28.3081 120.717 28.3076Z" fill="#0F1B63"/>
<path d="M106.855 11.1953C107.206 11.2071 107.561 11.2317 107.907 11.2682C107.934 11.271 107.961 11.2791 107.985 11.2921C108.009 11.3051 108.03 11.3227 108.047 11.3439C108.064 11.3651 108.077 11.3894 108.085 11.4156C108.093 11.4418 108.095 11.4692 108.092 11.4963C108.09 11.5236 108.082 11.55 108.069 11.5742C108.056 11.5983 108.038 11.6196 108.017 11.6369C107.996 11.6541 107.971 11.6669 107.945 11.6746C107.919 11.6822 107.891 11.6845 107.864 11.6813C107.528 11.646 107.183 11.6224 106.841 11.6107C106.788 11.607 106.738 11.583 106.702 11.5436C106.666 11.5042 106.646 11.4524 106.647 11.399C106.648 11.3456 106.67 11.2946 106.708 11.2567C106.745 11.2188 106.796 11.1968 106.85 11.1953H106.855ZM106.014 11.3977C106.015 11.425 106.011 11.4522 106.001 11.4778C105.992 11.5034 105.977 11.5268 105.959 11.5468C105.94 11.5668 105.918 11.583 105.893 11.5943C105.868 11.6057 105.841 11.612 105.814 11.6129C105.705 11.6166 105.596 11.6221 105.487 11.6292C105.255 11.6426 105.021 11.6622 104.791 11.6852C104.763 11.6895 104.734 11.6882 104.707 11.6812C104.68 11.6742 104.654 11.6617 104.632 11.6446C104.61 11.6274 104.591 11.6059 104.577 11.5813C104.563 11.5567 104.555 11.5296 104.552 11.5016C104.549 11.4736 104.552 11.4453 104.56 11.4184C104.568 11.3915 104.582 11.3665 104.6 11.3451C104.618 11.3236 104.641 11.3061 104.666 11.2935C104.691 11.281 104.719 11.2737 104.747 11.2721C104.984 11.2463 105.224 11.2267 105.462 11.2121C105.574 11.2054 105.686 11.2 105.798 11.1959H105.808C105.862 11.196 105.914 11.2171 105.953 11.2548C105.991 11.2925 106.014 11.3437 106.015 11.3977H106.014ZM108.95 11.4156C109.296 11.4773 109.643 11.5518 109.981 11.6398C110.008 11.6458 110.034 11.6573 110.057 11.6734C110.079 11.6895 110.099 11.71 110.113 11.7337C110.128 11.7574 110.138 11.7838 110.142 11.8113C110.146 11.8388 110.145 11.8669 110.138 11.8939C110.131 11.9208 110.119 11.9462 110.102 11.9683C110.085 11.9905 110.064 12.0091 110.04 12.023C110.016 12.0369 109.989 12.0458 109.962 12.0492C109.934 12.0526 109.906 12.0505 109.879 12.0428C109.551 11.9599 109.214 11.887 108.877 11.827C108.825 11.8185 108.779 11.7907 108.747 11.7491C108.714 11.7075 108.699 11.6553 108.704 11.603C108.709 11.5507 108.734 11.5022 108.773 11.4673C108.812 11.4324 108.863 11.4138 108.916 11.415C108.928 11.4143 108.939 11.4145 108.951 11.4156H108.95ZM103.943 11.5916C103.948 11.6185 103.948 11.6461 103.942 11.6728C103.936 11.6995 103.925 11.7248 103.909 11.7473C103.894 11.7697 103.874 11.7889 103.851 11.8036C103.828 11.8183 103.802 11.8284 103.775 11.8332C103.439 11.8937 103.102 11.9666 102.773 12.0507C102.747 12.0575 102.719 12.0589 102.692 12.0551C102.665 12.0512 102.639 12.042 102.616 12.0281C102.592 12.0142 102.572 11.9958 102.555 11.9739C102.539 11.9521 102.527 11.9272 102.52 11.9007C102.513 11.8743 102.512 11.8467 102.516 11.8197C102.52 11.7927 102.529 11.7666 102.543 11.7431C102.557 11.7196 102.575 11.6991 102.597 11.6827C102.619 11.6664 102.644 11.6544 102.67 11.6477C103.006 11.5613 103.356 11.4862 103.701 11.4234C103.714 11.4212 103.727 11.4201 103.74 11.4201C103.789 11.4203 103.836 11.4375 103.874 11.4689C103.911 11.5002 103.936 11.5436 103.945 11.5916H103.943ZM110.993 11.933C111.324 12.0451 111.657 12.1661 111.981 12.3001C112.007 12.3096 112.032 12.3244 112.052 12.3435C112.073 12.3627 112.089 12.3858 112.101 12.4116C112.112 12.4373 112.118 12.4651 112.119 12.4932C112.119 12.5214 112.114 12.5493 112.103 12.5753C112.092 12.6013 112.076 12.6249 112.056 12.6445C112.036 12.6642 112.012 12.6796 111.986 12.6898C111.959 12.7 111.931 12.7047 111.903 12.7037C111.875 12.7027 111.848 12.6961 111.822 12.6841C111.507 12.554 111.184 12.4341 110.862 12.3276C110.815 12.3119 110.775 12.28 110.75 12.2376C110.724 12.1952 110.714 12.1451 110.723 12.0962C110.731 12.0474 110.756 12.003 110.794 11.9711C110.832 11.9393 110.88 11.9219 110.929 11.9223C110.951 11.9227 110.973 11.9263 110.994 11.933H110.993ZM101.921 12.0765C101.939 12.1288 101.935 12.1858 101.91 12.2351C101.885 12.2843 101.842 12.3218 101.79 12.3394C101.466 12.447 101.143 12.5675 100.829 12.6981C100.804 12.709 100.777 12.7149 100.749 12.7152C100.722 12.7155 100.694 12.7104 100.669 12.7001C100.643 12.6898 100.62 12.6745 100.6 12.6551C100.581 12.6357 100.565 12.6126 100.554 12.5871C100.544 12.5617 100.538 12.5344 100.539 12.5068C100.539 12.4793 100.544 12.452 100.555 12.4266C100.565 12.4012 100.581 12.3782 100.601 12.3589C100.62 12.3396 100.644 12.3243 100.669 12.3141C100.992 12.1802 101.325 12.0557 101.659 11.9447C101.68 11.9377 101.703 11.9341 101.726 11.9341C101.769 11.9345 101.812 11.9484 101.847 11.9739C101.882 11.9994 101.909 12.0352 101.923 12.0765H101.921ZM112.94 12.7362C113.253 12.892 113.564 13.0619 113.866 13.2407C113.912 13.2697 113.944 13.3153 113.957 13.3678C113.969 13.4202 113.961 13.4755 113.933 13.5219C113.906 13.5683 113.861 13.6022 113.809 13.6165C113.757 13.6307 113.702 13.6242 113.654 13.5983C113.361 13.4251 113.058 13.262 112.757 13.109C112.716 13.0875 112.683 13.0529 112.664 13.0106C112.645 12.9684 112.64 12.9209 112.651 12.8757C112.662 12.8306 112.688 12.7904 112.724 12.7616C112.761 12.7327 112.806 12.7169 112.852 12.7166C112.883 12.7163 112.913 12.723 112.941 12.7362H112.94ZM99.9876 12.8455C100 12.87 100.008 12.8966 100.01 12.924C100.012 12.9514 100.008 12.9789 99.9999 13.005C99.9913 13.031 99.9776 13.0551 99.9596 13.0759C99.9416 13.0966 99.9196 13.1136 99.895 13.1258C99.5906 13.2788 99.2878 13.4447 98.9979 13.6185C98.9744 13.6324 98.9484 13.6416 98.9214 13.6455C98.8943 13.6494 98.8668 13.648 98.8403 13.6412C98.8138 13.6345 98.7889 13.6226 98.7671 13.6062C98.7452 13.5899 98.7267 13.5694 98.7128 13.5459C98.6988 13.5224 98.6896 13.4964 98.6857 13.4694C98.6818 13.4424 98.6833 13.4148 98.69 13.3883C98.6968 13.3619 98.7087 13.337 98.725 13.3151C98.7414 13.2933 98.7619 13.2748 98.7854 13.2609C99.0865 13.0821 99.3982 12.9117 99.7111 12.7564C99.7406 12.7413 99.7733 12.7336 99.8065 12.734C99.8443 12.7342 99.8815 12.7446 99.9139 12.7643C99.9462 12.7839 99.9727 12.812 99.9904 12.8455H99.9876ZM114.753 13.8091C115.042 14.0092 115.326 14.2211 115.598 14.4391C115.641 14.4737 115.668 14.5238 115.674 14.5784C115.679 14.633 115.663 14.6877 115.629 14.7305C115.595 14.7733 115.545 14.8009 115.49 14.8071C115.436 14.8133 115.381 14.7977 115.338 14.7636C115.074 14.5512 114.797 14.3449 114.516 14.1504C114.479 14.1252 114.451 14.0889 114.437 14.0467C114.422 14.0046 114.422 13.9589 114.435 13.9165C114.449 13.8741 114.476 13.8371 114.512 13.8111C114.548 13.7851 114.592 13.7714 114.636 13.7721C114.679 13.7717 114.721 13.7846 114.756 13.8091H114.753ZM116.397 15.128C116.655 15.3668 116.907 15.6168 117.145 15.8713C117.18 15.9119 117.198 15.9646 117.195 16.0182C117.193 16.0719 117.169 16.1224 117.13 16.1592C117.091 16.1959 117.039 16.2161 116.985 16.2154C116.931 16.2147 116.88 16.1932 116.842 16.1554C116.609 15.9082 116.365 15.665 116.113 15.4329C116.082 15.4044 116.06 15.3672 116.051 15.3262C116.042 15.2853 116.045 15.2425 116.061 15.2035C116.076 15.1645 116.103 15.1311 116.138 15.1078C116.173 15.0844 116.214 15.0721 116.256 15.0725C116.309 15.0716 116.361 15.0915 116.4 15.128H116.397ZM117.839 16.6661C118.059 16.9385 118.274 17.2221 118.474 17.5069C118.505 17.552 118.518 17.6078 118.508 17.6621C118.499 17.7163 118.468 17.7645 118.423 17.7961C118.378 17.8277 118.322 17.8401 118.268 17.8305C118.213 17.8209 118.165 17.7902 118.133 17.7451C117.938 17.4648 117.731 17.1907 117.517 16.9262C117.5 16.905 117.487 16.8806 117.479 16.8545C117.471 16.8283 117.469 16.8009 117.472 16.7738C117.474 16.7466 117.483 16.7203 117.496 16.6964C117.509 16.6724 117.526 16.6513 117.548 16.6341C117.585 16.6033 117.632 16.5868 117.68 16.5876C117.711 16.5878 117.742 16.595 117.77 16.6086C117.798 16.6222 117.822 16.6418 117.841 16.6661H117.839ZM119.048 18.3936C119.228 18.6952 119.4 19.0063 119.557 19.3185C119.571 19.343 119.579 19.3699 119.582 19.3978C119.585 19.4256 119.582 19.4537 119.574 19.4804C119.566 19.5071 119.552 19.5319 119.534 19.5532C119.516 19.5746 119.494 19.5921 119.469 19.6047C119.444 19.6173 119.417 19.6247 119.389 19.6266C119.361 19.6284 119.333 19.6246 119.306 19.6153C119.28 19.6061 119.256 19.5916 119.235 19.5728C119.214 19.554 119.198 19.5311 119.186 19.5057C119.033 19.2025 118.866 18.8998 118.691 18.6089C118.663 18.5615 118.654 18.5049 118.668 18.4514C118.681 18.3979 118.715 18.3519 118.763 18.3236C118.81 18.2953 118.867 18.2869 118.92 18.3004C118.974 18.3138 119.02 18.348 119.048 18.3953V18.3936ZM120.001 20.277C120.136 20.6004 120.261 20.9328 120.372 21.2641C120.384 21.2906 120.39 21.3192 120.39 21.3481C120.391 21.3771 120.385 21.4058 120.373 21.4323C120.361 21.4588 120.344 21.4826 120.323 21.5022C120.302 21.5217 120.276 21.5366 120.249 21.5458C120.221 21.5551 120.192 21.5585 120.164 21.5559C120.135 21.5532 120.107 21.5446 120.081 21.5305C120.056 21.5165 120.034 21.4973 120.016 21.4742C119.999 21.4511 119.987 21.4246 119.98 21.3964C119.872 21.0741 119.751 20.7518 119.619 20.4373C119.598 20.3864 119.598 20.3292 119.619 20.2782C119.64 20.2272 119.681 20.1867 119.732 20.1655C119.757 20.1547 119.785 20.1492 119.813 20.1492C119.854 20.15 119.893 20.1625 119.927 20.1852C119.96 20.2078 119.986 20.2398 120.002 20.277H120.001ZM120.674 22.2753C120.761 22.6144 120.837 22.9608 120.898 23.3056C120.903 23.3324 120.903 23.3599 120.897 23.3866C120.891 23.4132 120.88 23.4385 120.865 23.4609C120.849 23.4833 120.829 23.5024 120.806 23.5172C120.783 23.5319 120.758 23.542 120.731 23.5469C120.704 23.5517 120.677 23.5513 120.65 23.5455C120.623 23.5397 120.598 23.5287 120.576 23.5132C120.553 23.4977 120.534 23.4779 120.519 23.4549C120.505 23.432 120.494 23.4064 120.49 23.3796C120.428 23.0432 120.354 22.7069 120.269 22.3796C120.262 22.3531 120.261 22.3256 120.265 22.2985C120.269 22.2714 120.278 22.2454 120.292 22.2219C120.305 22.1983 120.324 22.1778 120.346 22.1614C120.368 22.145 120.392 22.133 120.419 22.1262C120.437 22.1216 120.456 22.1194 120.475 22.1195C120.52 22.1204 120.564 22.1361 120.6 22.1643C120.636 22.1924 120.661 22.2314 120.673 22.2753H120.674ZM121.053 24.3493C121.08 24.5987 121.101 24.8537 121.116 25.1004C121.122 25.2002 121.127 25.3005 121.131 25.4003C121.133 25.4554 121.113 25.5091 121.076 25.5497C121.039 25.5902 120.987 25.6143 120.931 25.6166C120.904 25.6179 120.877 25.6137 120.851 25.6044C120.825 25.595 120.802 25.5806 120.782 25.562C120.762 25.5435 120.745 25.5211 120.734 25.4962C120.723 25.4713 120.716 25.4444 120.716 25.4171C120.712 25.3195 120.707 25.2226 120.701 25.125C120.687 24.8829 120.666 24.6374 120.639 24.3964C120.633 24.3415 120.649 24.2865 120.684 24.2435C120.718 24.2004 120.768 24.1727 120.823 24.1665H120.848C120.898 24.1673 120.946 24.1861 120.984 24.2195C121.021 24.2528 121.045 24.2985 121.051 24.3482L121.053 24.3493ZM120.934 26.2411C120.962 26.2419 120.988 26.248 121.013 26.2592C121.038 26.2704 121.061 26.2864 121.079 26.3063C121.098 26.3262 121.113 26.3496 121.122 26.3752C121.132 26.4007 121.136 26.4279 121.136 26.4552C121.125 26.8055 121.101 27.1598 121.065 27.5079C121.063 27.535 121.055 27.5613 121.042 27.5853C121.029 27.6093 121.011 27.6305 120.99 27.6477C120.969 27.6649 120.944 27.6777 120.918 27.6855C120.892 27.6933 120.865 27.6959 120.838 27.6931C120.81 27.6903 120.784 27.6822 120.76 27.6692C120.736 27.6563 120.715 27.6387 120.698 27.6176C120.68 27.5964 120.668 27.5721 120.66 27.5459C120.652 27.5198 120.649 27.4924 120.652 27.4653C120.686 27.1289 120.708 26.7831 120.72 26.4423C120.722 26.388 120.745 26.3365 120.784 26.2988C120.823 26.2612 120.875 26.2404 120.93 26.2411H120.934Z" fill="#0F1B63"/>
<path d="M98.0092 13.7998C97.9661 13.7995 97.924 13.8124 97.8886 13.8368C97.7447 13.9377 97.6024 14.0407 97.4619 14.1457C97.4401 14.1621 97.4217 14.1826 97.4078 14.2061C97.3939 14.2297 97.3848 14.2557 97.381 14.2827C97.3732 14.3373 97.3875 14.3928 97.4207 14.4369C97.4538 14.4809 97.5032 14.51 97.5578 14.5178C97.6124 14.5255 97.6679 14.5112 97.712 14.4781C97.848 14.3753 97.9862 14.2751 98.1263 14.1776C98.1626 14.1525 98.1899 14.1165 98.2042 14.0748C98.2186 14.0331 98.2193 13.9879 98.2062 13.9458C98.1932 13.9037 98.167 13.8668 98.1316 13.8406C98.0961 13.8143 98.0533 13.8 98.0092 13.7998Z" fill="#0F1B63"/>
</g>
<path d="M96.9035 19.901C96.8802 19.9291 96.8662 19.9637 96.8635 20.0001C96.8608 20.0364 96.8695 20.0727 96.8884 20.1039L97.993 21.9262C97.5411 22.8284 97.2392 23.7981 97.0992 24.7973L95.158 25.6722C95.1248 25.6872 95.097 25.7121 95.0786 25.7435C95.0602 25.775 95.0521 25.8114 95.0554 25.8477L95.2892 28.3925C95.2925 28.4288 95.307 28.4631 95.3307 28.4907C95.3544 28.5184 95.3862 28.5379 95.4216 28.5466L97.49 29.0539C97.8094 30.0112 98.2829 30.9099 98.8918 31.7148L98.1371 33.7069C98.1243 33.741 98.1224 33.7782 98.1316 33.8135C98.1408 33.8487 98.1608 33.8802 98.1887 33.9036L100.154 35.5376C100.182 35.561 100.217 35.5752 100.253 35.578C100.289 35.5808 100.326 35.5722 100.357 35.5533L102.181 34.4507C103.083 34.9025 104.053 35.204 105.053 35.3436L105.928 37.2847C105.943 37.3179 105.968 37.3455 106 37.3638C106.031 37.3821 106.068 37.3901 106.104 37.3868L108.65 37.1536C108.686 37.1503 108.721 37.1357 108.748 37.1118C108.776 37.088 108.795 37.0561 108.804 37.0207L109.308 34.9529C110.266 34.6338 111.165 34.1605 111.97 33.5516L113.963 34.3055C113.997 34.3186 114.035 34.3207 114.07 34.3115C114.105 34.3022 114.136 34.2821 114.16 34.254L115.795 32.2893C115.818 32.2613 115.832 32.2268 115.835 32.1905C115.837 32.1543 115.829 32.1181 115.81 32.087L114.705 30.2647C115.157 29.3626 115.459 28.3929 115.599 27.3936L117.54 26.5186C117.573 26.5037 117.601 26.4787 117.619 26.4473C117.638 26.4159 117.646 26.3795 117.643 26.3432L117.41 23.8006C117.407 23.7643 117.392 23.73 117.368 23.7024C117.344 23.6748 117.313 23.6553 117.277 23.6465L115.209 23.1392C114.889 22.182 114.416 21.2832 113.807 20.4784L114.562 18.4862C114.575 18.4522 114.577 18.4149 114.567 18.3796C114.558 18.3444 114.538 18.3129 114.51 18.2895L112.548 16.655C112.519 16.6317 112.485 16.6177 112.448 16.615C112.412 16.6123 112.376 16.621 112.345 16.6399L110.522 17.7441C109.619 17.2917 108.648 16.9898 107.648 16.8501L106.773 14.9089C106.758 14.8757 106.733 14.848 106.701 14.8296C106.669 14.8112 106.633 14.8031 106.597 14.8064L104.051 15.0401C104.015 15.0434 103.98 15.058 103.953 15.0819C103.925 15.1057 103.906 15.1375 103.897 15.173L103.39 17.2402C102.432 17.5596 101.533 18.0329 100.728 18.6415L98.7348 17.887C98.7008 17.8742 98.6635 17.8723 98.6283 17.8816C98.5931 17.891 98.5618 17.9111 98.5386 17.9392L96.9035 19.901Z" fill="#0F1B63"/>
<path d="M106.732 23.6485C107.364 23.7484 107.932 24.0891 108.318 24.5991C108.703 25.1091 108.876 25.7486 108.799 26.3833C108.723 27.0179 108.404 27.5983 107.908 28.0024C107.413 28.4065 106.78 28.6029 106.143 28.5503C105.505 28.4977 104.913 28.2002 104.491 27.7203C104.069 27.2405 103.849 26.6156 103.878 25.977C103.906 25.3384 104.182 24.7359 104.646 24.296C105.11 23.8562 105.726 23.6132 106.365 23.6182C106.488 23.6194 106.611 23.6296 106.732 23.6485ZM107.562 27.7617C107.891 27.5214 108.141 27.1892 108.281 26.807C108.421 26.4248 108.445 26.0096 108.349 25.6139C108.254 25.2182 108.043 24.8597 107.744 24.5835C107.445 24.3074 107.07 24.126 106.668 24.0622C106.4 24.0187 106.126 24.0286 105.862 24.0913C105.597 24.154 105.348 24.2684 105.128 24.4277C104.908 24.5871 104.722 24.7884 104.58 25.0199C104.438 25.2515 104.343 25.5088 104.301 25.7771C104.259 26.0454 104.27 26.3194 104.335 26.5833C104.399 26.8472 104.514 27.0958 104.675 27.3149C104.835 27.5339 105.038 27.7191 105.27 27.8597C105.503 28.0004 105.76 28.0937 106.029 28.1344C106.13 28.1506 106.232 28.159 106.334 28.1597C106.775 28.1632 107.206 28.0236 107.562 27.7617Z" fill="white"/>
<path d="M106.455 19.7591C106.239 19.757 106.023 19.7658 105.807 19.7854H105.778C105.344 19.827 104.915 19.9129 104.499 20.0416L104.476 20.0489C104.434 20.062 104.397 20.0879 104.371 20.1231C104.345 20.1582 104.331 20.2007 104.33 20.2445C104.33 20.2664 104.333 20.2881 104.34 20.309C104.348 20.335 104.361 20.3592 104.379 20.3801C104.396 20.4011 104.418 20.4184 104.442 20.431C104.466 20.4437 104.492 20.4514 104.52 20.4539C104.547 20.4563 104.574 20.4533 104.6 20.4452C105.005 20.3185 105.422 20.2353 105.845 20.1969H105.85C107.024 20.0902 108.203 20.3338 109.238 20.8969C110.274 21.46 111.119 22.3173 111.667 23.3605C112.215 24.4037 112.441 25.5858 112.317 26.7576C112.193 27.9293 111.724 29.038 110.97 29.9435C110.216 30.849 109.21 31.5106 108.08 31.8447C106.95 32.1788 105.746 32.1704 104.62 31.8206C103.495 31.4707 102.498 30.7952 101.757 29.8793C101.015 28.9634 100.562 27.8483 100.454 26.6749C100.354 25.6021 100.548 24.5223 101.015 23.5511C101.028 23.5236 101.035 23.4935 101.036 23.4631C101.035 23.4169 101.019 23.3723 100.99 23.3364C100.96 23.3005 100.92 23.2752 100.875 23.2647C100.83 23.2542 100.783 23.2589 100.741 23.2782C100.699 23.2975 100.665 23.3302 100.643 23.3711C100.23 24.2316 100.016 25.1738 100.016 26.1281C100.016 27.0825 100.23 28.0248 100.643 28.8853C101.055 29.7458 101.656 30.5027 102.401 31.1001C103.145 31.6975 104.015 32.1201 104.944 32.3368C105.874 32.5535 106.841 32.5587 107.773 32.352C108.705 32.1454 109.579 31.7321 110.33 31.1428C111.081 30.5535 111.689 29.8031 112.112 28.947C112.534 28.091 112.758 27.1511 112.768 26.1968C112.77 25.9803 112.761 25.7638 112.741 25.5482C112.594 23.9772 111.871 22.5163 110.71 21.4472C109.549 20.3782 108.033 19.7768 106.455 19.7591Z" fill="white"/>
<path d="M76.9753 23.0051C76.8997 23.0028 76.828 22.9714 76.775 22.9175C76.7221 22.8636 76.692 22.7914 76.691 22.7159C76.6618 21.0982 76.1633 13.0635 69.1723 11.3842C61.3884 9.51537 57.8273 17.5265 57.8273 17.5265C57.8273 17.5265 48.1965 13.7877 46.3495 23.8005C40.3111 25.2668 38.7422 33.2482 42.67 37.1484C43.2906 37.7664 44.1284 38.1172 45.0043 38.1259L82.8207 38.4707C83.3641 38.4739 83.8937 38.2996 84.3289 37.9743C84.7642 37.649 85.0812 37.1905 85.2318 36.6686C86.411 32.6344 87.9597 23.2652 76.9753 23.0051Z" fill="#7D97F4"/>
<path d="M76.1113 23.1764C76.0359 23.1743 75.9643 23.1431 75.9113 23.0894C75.8583 23.0357 75.8281 22.9637 75.827 22.8883C75.7962 21.3362 75.3022 13.8862 68.7177 12.3246C61.3599 10.5791 57.99 18.0599 57.99 18.0599C57.99 18.0599 48.884 14.5689 47.1374 23.9197C41.4825 25.2767 39.9731 32.6006 43.5527 36.2788C43.8616 36.5975 44.2307 36.8517 44.6386 37.0267C45.0465 37.2017 45.4852 37.2941 45.929 37.2984L81.5273 37.619C82.0716 37.6219 82.6018 37.4467 83.0372 37.1201C83.4725 36.7935 83.789 36.3335 83.9383 35.8102C85.0486 31.9779 86.3679 23.4247 76.1113 23.1764Z" fill="#91B3FA"/>
<path d="M59.1421 20.1278L62.0554 20.0104C62.1174 20.0079 62.1778 20.0301 62.2234 20.0721C62.269 20.1141 62.296 20.1725 62.2985 20.2345L62.6862 29.8426L59.319 29.9784L58.9307 20.3563C58.9295 20.3274 58.934 20.2985 58.944 20.2714C58.9539 20.2442 58.9692 20.2193 58.9888 20.1981C59.0085 20.1768 59.0321 20.1597 59.0584 20.1476C59.0847 20.1356 59.1131 20.1289 59.1421 20.1278Z" fill="white"/>
<path d="M58.3419 29.8264C58.3419 29.8264 60.4009 33.4732 61.0961 34.578C61.1171 34.6111 61.1466 34.638 61.1816 34.6558C61.2166 34.6736 61.2557 34.6816 61.2949 34.679C61.334 34.6764 61.3717 34.6633 61.4041 34.6411C61.4364 34.6189 61.4621 34.5884 61.4786 34.5528L63.7601 29.6363C63.842 29.4917 63.7663 29.2636 63.6384 29.2686L58.4501 29.4783C58.3346 29.4828 58.2718 29.6823 58.3419 29.8264Z" fill="white"/>
<path d="M68.6139 34.635L65.6985 34.6778C65.6365 34.6787 65.5767 34.6549 65.5322 34.6117C65.4877 34.5685 65.4622 34.5095 65.4613 34.4475L65.3203 24.8332L68.6876 24.7838L68.8288 34.4121C68.8298 34.4702 68.8078 34.5262 68.7675 34.568C68.7272 34.6098 68.672 34.6339 68.6139 34.635Z" fill="white"/>
<path d="M69.6622 24.9571C69.6622 24.9571 67.6997 21.2576 67.0308 20.1365C67.0107 20.1029 66.9819 20.0752 66.9475 20.0565C66.913 20.0379 66.8741 20.0288 66.8349 20.0305C66.7957 20.0321 66.7577 20.0442 66.7249 20.0657C66.692 20.0871 66.6656 20.117 66.6484 20.1522L64.2407 25.0081C64.1554 25.151 64.225 25.3809 64.3528 25.3786L69.5467 25.3024C69.6617 25.3007 69.729 25.1028 69.6622 24.9571Z" fill="white"/>
</svg>
