<svg width="174" height="174" viewBox="0 0 174 174" fill="none" xmlns="http://www.w3.org/2000/svg">
<path d="M104.286 135.668H66V154.022H104.286V135.668Z" fill="#3E497A"/>
<path d="M148.742 49.0167V132.625C148.742 135.31 146.564 137.487 143.875 137.487H26.4055C23.7204 137.487 21.5391 135.31 21.5391 132.625V49.0167C21.5391 46.3316 23.7204 44.1502 26.4055 44.1502H143.875C146.564 44.1502 148.742 46.3316 148.742 49.0167Z" fill="#4F5D99"/>
<path opacity="0.5" d="M87.4291 131.605C87.4291 132.983 86.3093 134.103 84.9314 134.103C83.5534 134.103 82.4336 132.983 82.4336 131.605C82.4336 130.227 83.5534 129.107 84.9314 129.107C86.3093 129.107 87.4291 130.227 87.4291 131.605Z" fill="white"/>
<path d="M147.209 126.097V49.9532C147.209 47.6469 145.403 45.7736 143.175 45.7736H27.1003C24.8731 45.7736 23.0664 47.6428 23.0664 49.9532V126.097H147.209Z" fill="#EDEDFF"/>
<path d="M62.2869 152.045H107.983C110.094 152.045 111.809 153.76 111.809 155.871V156H58.457V155.871C58.457 153.76 60.1722 152.045 62.2828 152.045H62.2869Z" fill="#4F5D99"/>
<path d="M119.582 35.1958H97.0026C94.915 35.1958 93.2227 36.8881 93.2227 38.9757V46.4857C93.2227 48.5733 94.915 50.2656 97.0026 50.2656H119.582C121.67 50.2656 123.362 48.5733 123.362 46.4857V38.9757C123.362 36.8881 121.67 35.1958 119.582 35.1958Z" fill="#70C1F9"/>
<path d="M46.1566 79.8892H23.5768C21.4892 79.8892 19.7969 81.5815 19.7969 83.6691V91.179C19.7969 93.2666 21.4892 94.959 23.5768 94.959H46.1566C48.2442 94.959 49.9365 93.2666 49.9365 91.179V83.6691C49.9365 81.5815 48.2442 79.8892 46.1566 79.8892Z" fill="#70C1F9"/>
<path d="M150.465 69.1614H122.236C120.54 69.1614 119.164 70.5369 119.164 72.2336V130.894C119.164 132.59 120.54 133.966 122.236 133.966H150.465C152.162 133.966 153.537 132.59 153.537 130.894V72.2336C153.537 70.5369 152.162 69.1614 150.465 69.1614Z" fill="#ED524E"/>
<path d="M142.663 71.501H127.136C126.867 71.501 126.648 71.719 126.648 71.988V72.0546C126.648 72.3236 126.867 72.5417 127.136 72.5417H142.663C142.932 72.5417 143.15 72.3236 143.15 72.0546V71.988C143.15 71.719 142.932 71.501 142.663 71.501Z" fill="#0F1B63"/>
<path d="M146.047 72.0207C146.047 72.3075 145.814 72.5404 145.528 72.5404C145.241 72.5404 145.008 72.3075 145.008 72.0207C145.008 71.7338 145.241 71.501 145.528 71.501C145.814 71.501 146.047 71.7338 146.047 72.0207Z" fill="#0F1B63"/>
<path d="M151.64 75.0478H121.055V93.8434H151.64V75.0478Z" fill="white"/>
<path d="M142.161 82.8991L139.921 85.5842L134.118 78.6404L124.414 90.2467H136.02H143.817H148.305L142.161 82.8991Z" fill="#FFC655"/>
<path d="M135.496 118.738H121.055V127.209H135.496V118.738Z" fill="white"/>
<path d="M131.009 122.026L129.952 123.296L127.212 120.016L122.629 125.498H128.111H131.792H133.91L131.009 122.026Z" fill="#FFC655"/>
<g style="mix-blend-mode:multiply">
<path d="M135.492 98.6765H121.051V99.4882H135.492V98.6765Z" fill="#ED524E"/>
<path d="M135.492 96.9739H121.051V97.7857H135.492V96.9739Z" fill="#ED524E"/>
<path d="M130.18 100.337H121.051V101.149H130.18V100.337Z" fill="#ED524E"/>
<path d="M135.491 100.337H130.828V101.149H135.491V100.337Z" fill="#ED524E"/>
<path d="M133.827 101.995H121.051V102.806H133.827V101.995Z" fill="#ED524E"/>
<path d="M125.488 103.701H121.051V104.513H125.488V103.701Z" fill="#ED524E"/>
<path d="M129.451 103.701H126.254V104.513H129.451V103.701Z" fill="#ED524E"/>
</g>
<g style="mix-blend-mode:multiply">
<path d="M151.652 110.037H137.211V110.849H151.652V110.037Z" fill="#ED524E"/>
<path d="M151.652 108.339H137.211V109.151H151.652V108.339Z" fill="#ED524E"/>
<path d="M146.34 111.698H137.211V112.51H146.34V111.698Z" fill="#ED524E"/>
<path d="M151.655 111.698H146.992V112.51H151.655V111.698Z" fill="#ED524E"/>
<path d="M149.987 113.359H137.211V114.171H149.987V113.359Z" fill="#ED524E"/>
<path d="M141.649 115.062H137.211V115.874H141.649V115.062Z" fill="#ED524E"/>
<path d="M145.615 115.062H142.418V115.874H145.615V115.062Z" fill="#ED524E"/>
</g>
<g style="mix-blend-mode:multiply">
<path d="M151.652 98.6765H137.211V99.4883H151.652V98.6765Z" fill="#ED524E"/>
<path d="M151.652 96.974H137.211V97.7858H151.652V96.974Z" fill="#ED524E"/>
<path d="M146.34 100.337H137.211V101.149H146.34V100.337Z" fill="#ED524E"/>
<path d="M151.655 100.337H146.992V101.149H151.655V100.337Z" fill="#ED524E"/>
<path d="M151.652 101.994H137.211V102.806H151.652V101.994Z" fill="#ED524E"/>
<path d="M141.649 103.701H137.211V104.513H141.649V103.701Z" fill="#ED524E"/>
<path d="M151.656 103.701H142.418V104.513H151.656V103.701Z" fill="#ED524E"/>
</g>
<g style="mix-blend-mode:multiply">
<path d="M135.492 110.037H121.051V110.849H135.492V110.037Z" fill="#ED524E"/>
<path d="M135.492 108.339H121.051V109.151H135.492V108.339Z" fill="#ED524E"/>
<path d="M135.492 111.698H121.051V112.51H135.492V111.698Z" fill="#ED524E"/>
<path d="M135.492 113.359H121.051V114.171H135.492V113.359Z" fill="#ED524E"/>
<path d="M135.492 115.062H121.051V115.874H135.492V115.062Z" fill="#ED524E"/>
</g>
<g style="mix-blend-mode:multiply">
<path d="M151.652 120.715H137.211V121.527H151.652V120.715Z" fill="#ED524E"/>
<path d="M151.652 119.012H137.211V119.824H151.652V119.012Z" fill="#ED524E"/>
<path d="M151.657 122.376H142.527V123.188H151.657V122.376Z" fill="#ED524E"/>
<path d="M141.873 122.376H137.211V123.188H141.873V122.376Z" fill="#ED524E"/>
<path d="M148.301 124.033H137.211V124.845H148.301V124.033Z" fill="#ED524E"/>
<path d="M151.651 124.033H149.07V124.845H151.651V124.033Z" fill="#ED524E"/>
<path d="M151.649 125.74H140.996V126.551H151.649V125.74Z" fill="#ED524E"/>
<path d="M140.408 125.74H137.211V126.551H140.408V125.74Z" fill="#ED524E"/>
</g>
<path d="M126.008 133.965H103.428C101.341 133.965 99.6484 135.658 99.6484 137.745V145.255C99.6484 147.343 101.341 149.035 103.428 149.035H126.008C128.096 149.035 129.788 147.343 129.788 145.255V137.745C129.788 135.658 128.096 133.965 126.008 133.965Z" fill="#70C1F9"/>
<path d="M91.3035 106.174H81.8203V107.036H91.3035V106.174Z" fill="#0F1B63"/>
<path d="M115.706 106.174H93.7422V107.036H115.706V106.174Z" fill="#0F1B63"/>
<path d="M104.447 113.576C100.676 113.576 96.9 113.572 93.1367 113.563V112.702C100.659 112.718 108.248 112.718 115.7 112.702V113.563C111.974 113.572 108.215 113.576 104.443 113.576H104.447Z" fill="#0F1B63"/>
<path d="M115.706 109.438H89.6875V110.3H115.706V109.438Z" fill="#0F1B63"/>
<path d="M115.7 115.982H88.2617V116.844H115.7V115.982Z" fill="#0F1B63"/>
<path d="M115.704 119.246H84.4609V120.107H115.704V119.246Z" fill="#0F1B63"/>
<path d="M45.2571 56.9722H30.5703V57.834H45.2571V56.9722Z" fill="#ED524E"/>
<path d="M79.3916 56.9722H64.2344V57.834H79.3916V56.9722Z" fill="#ED524E"/>
<path d="M79.3984 60.236H68.8828V61.0977H79.3984V60.236Z" fill="#FFC655"/>
<path d="M79.3995 66.7802H64.5586V67.6419H79.3995V66.7802Z" fill="#FFC655"/>
<path d="M79.3989 70.0479H61.6523V70.9096H79.3989V70.0479Z" fill="#FFC655"/>
<path d="M79.3918 73.8613H56.5664V74.723H79.3918V73.8613Z" fill="#FFC655"/>
<path d="M62.3196 56.9722H47.6328V57.834H62.3196V56.9722Z" fill="#FFC655"/>
<path d="M67.5362 64.3781C65.2924 64.3781 63.0402 64.3781 58.5359 64.3698H55.6094V63.5039H58.5359C64.5389 63.515 70.521 63.515 76.4823 63.5039H79.3922V64.3615H76.4865C72.0155 64.3698 69.78 64.374 67.5362 64.374V64.3781Z" fill="#FFC655"/>
<path d="M41.8269 64.3781C38.0553 64.3781 34.2961 64.374 30.5703 64.3656V63.5039C38.022 63.5206 45.6152 63.5206 53.1334 63.5039V64.3656C49.3743 64.374 45.5943 64.3781 41.8269 64.3781Z" fill="#ED524E"/>
<path d="M66.8003 60.236H30.5703V61.0977H66.8003V60.236Z" fill="#ED524E"/>
<path d="M54.5613 73.8613H30.5703V74.723H54.5613V73.8613Z" fill="#ED524E"/>
<path d="M62.6874 66.78H30.5703V67.6418H62.6874V66.78Z" fill="#ED524E"/>
<path d="M59.6775 70.0479H30.5703V70.9096H59.6775V70.0479Z" fill="#ED524E"/>
<path d="M27.4891 57.9947C27.8174 57.9947 28.0836 57.7285 28.0836 57.4002C28.0836 57.0718 27.8174 56.8057 27.4891 56.8057C27.1607 56.8057 26.8945 57.0718 26.8945 57.4002C26.8945 57.7285 27.1607 57.9947 27.4891 57.9947Z" fill="#4F5D99"/>
<path d="M28.0836 60.6681C28.0836 60.9965 27.8175 61.2626 27.4891 61.2626C27.1606 61.2626 26.8945 60.9965 26.8945 60.6681C26.8945 60.3396 27.1606 60.0735 27.4891 60.0735C27.8175 60.0735 28.0836 60.3396 28.0836 60.6681Z" fill="#4F5D99"/>
<path d="M27.4891 64.5261C27.8174 64.5261 28.0836 64.26 28.0836 63.9316C28.0836 63.6033 27.8174 63.3371 27.4891 63.3371C27.1607 63.3371 26.8945 63.6033 26.8945 63.9316C26.8945 64.26 27.1607 64.5261 27.4891 64.5261Z" fill="#4F5D99"/>
<path d="M28.0836 67.1957C28.0836 67.5242 27.8175 67.7902 27.4891 67.7902C27.1606 67.7902 26.8945 67.5242 26.8945 67.1957C26.8945 66.8673 27.1606 66.6012 27.4891 66.6012C27.8175 66.6012 28.0836 66.8673 28.0836 67.1957Z" fill="#4F5D99"/>
<path d="M27.4891 71.0705C27.8174 71.0705 28.0836 70.8043 28.0836 70.476C28.0836 70.1476 27.8174 69.8815 27.4891 69.8815C27.1607 69.8815 26.8945 70.1476 26.8945 70.476C26.8945 70.8043 27.1607 71.0705 27.4891 71.0705Z" fill="#4F5D99"/>
<path d="M28.0836 74.2932C28.0836 74.6216 27.8175 74.8877 27.4891 74.8877C27.1606 74.8877 26.8945 74.6216 26.8945 74.2932C26.8945 73.9647 27.1606 73.6987 27.4891 73.6987C27.8175 73.6987 28.0836 73.9647 28.0836 74.2932Z" fill="#4F5D99"/>
<path d="M83.3141 76.2384C83.1934 76.2384 83.0977 76.1426 83.0977 76.0219V56.9182C83.0977 56.7975 83.1934 56.7017 83.3141 56.7017C83.4349 56.7017 83.5306 56.7975 83.5306 56.9182V76.0219C83.5306 76.1426 83.4349 76.2384 83.3141 76.2384Z" fill="#4F5D99"/>
<path d="M46.6914 117.447H45.3675C45.2468 117.447 45.1469 117.347 45.1469 117.226C45.1469 117.106 45.2468 117.006 45.3675 117.006H46.6914C46.8121 117.006 46.912 117.106 46.912 117.226C46.912 117.347 46.8121 117.447 46.6914 117.447ZM44.0479 117.447H42.7241C42.6034 117.447 42.5034 117.347 42.5034 117.226C42.5034 117.106 42.6034 117.006 42.7241 117.006H44.0479C44.1686 117.006 44.2685 117.106 44.2685 117.226C44.2685 117.347 44.1686 117.447 44.0479 117.447ZM41.4044 117.447H40.8674C40.5677 117.447 40.268 117.372 40.0057 117.226C39.8975 117.168 39.86 117.035 39.9183 116.927C39.9765 116.818 40.1139 116.781 40.218 116.839C40.4137 116.948 40.6385 117.006 40.8633 117.006H41.4003C41.521 117.006 41.6209 117.106 41.6209 117.226C41.6209 117.347 41.521 117.447 41.4003 117.447H41.4044ZM39.3479 116.223C39.248 116.223 39.1565 116.152 39.1315 116.048C39.1023 115.923 39.0898 115.794 39.0898 115.67V114.683C39.0898 114.562 39.1898 114.462 39.3105 114.462C39.4312 114.462 39.5311 114.562 39.5311 114.683V115.67C39.5311 115.765 39.5394 115.861 39.5603 115.957C39.5852 116.077 39.5103 116.194 39.3937 116.219C39.3771 116.219 39.3604 116.223 39.3479 116.223ZM39.3146 113.58C39.1939 113.58 39.094 113.48 39.094 113.359V112.035C39.094 111.915 39.1939 111.815 39.3146 111.815C39.4354 111.815 39.5353 111.915 39.5353 112.035V113.359C39.5353 113.48 39.4354 113.58 39.3146 113.58ZM39.3146 110.936C39.1939 110.936 39.094 110.836 39.094 110.716V109.392C39.094 109.271 39.1939 109.171 39.3146 109.171C39.4354 109.171 39.5353 109.271 39.5353 109.392V110.716C39.5353 110.836 39.4354 110.936 39.3146 110.936ZM39.3146 108.293C39.1939 108.293 39.094 108.193 39.094 108.072V106.748C39.094 106.628 39.1939 106.528 39.3146 106.528C39.4354 106.528 39.5353 106.628 39.5353 106.748V108.072C39.5353 108.193 39.4354 108.293 39.3146 108.293ZM39.3146 105.649C39.1939 105.649 39.094 105.549 39.094 105.429V105.266C39.094 104.817 39.2605 104.388 39.5644 104.059C39.6477 103.972 39.7851 103.963 39.8766 104.047C39.9641 104.13 39.9724 104.267 39.8891 104.359C39.6602 104.604 39.5353 104.929 39.5353 105.266V105.429C39.5353 105.549 39.4354 105.649 39.3146 105.649ZM47.5198 103.934H46.196C46.0752 103.934 45.9753 103.834 45.9753 103.714C45.9753 103.593 46.0752 103.493 46.196 103.493H47.5198C47.6405 103.493 47.7404 103.593 47.7404 103.714C47.7404 103.834 47.6405 103.934 47.5198 103.934ZM44.8763 103.934H43.5525C43.4318 103.934 43.3319 103.834 43.3319 103.714C43.3319 103.593 43.4318 103.493 43.5525 103.493H44.8763C44.997 103.493 45.097 103.593 45.097 103.714C45.097 103.834 44.997 103.934 44.8763 103.934ZM42.2329 103.934H40.909C40.7883 103.934 40.6884 103.834 40.6884 103.714C40.6884 103.593 40.7883 103.493 40.909 103.493H42.2329C42.3536 103.493 42.4535 103.593 42.4535 103.714C42.4535 103.834 42.3536 103.934 42.2329 103.934Z" fill="#0F1B63"/>
<path d="M51.4913 111.723H44.4102V112.606H51.4913V111.723Z" fill="#0F1B63"/>
<path d="M64.7793 111.723H53.3438V112.606H64.7793V111.723Z" fill="#0F1B63"/>
<path d="M64.7801 119.225H57.7031V120.107H64.7801V119.225Z" fill="#0F1B63"/>
<path d="M55.8457 119.225H44.4102V120.107H55.8457V119.225Z" fill="#0F1B63"/>
<path d="M56.8615 114.279H44.4102V115.162H56.8615V114.279Z" fill="#0F1B63"/>
<path d="M64.7802 114.279H58.7148V115.162H64.7802V114.279Z" fill="#0F1B63"/>
<path d="M54.6551 116.785H44.4102V117.668H54.6551V116.785Z" fill="#0F1B63"/>
<path d="M64.7802 116.785H57.8281V117.668H64.7802V116.785Z" fill="#0F1B63"/>
<path d="M48.123 101.074H44.418V107.976H48.123V101.074Z" fill="#FFC655"/>
<path d="M53.9316 98.4515H50.2266V107.972H53.9316V98.4515Z" fill="#4F5D99"/>
<path d="M59.5605 93.0229H55.8555V107.972H59.5605V93.0229Z" fill="#70C1F9"/>
<path d="M56.9689 116.785H55.6367V117.668H56.9689V116.785Z" fill="#0F1B63"/>
<path d="M115.375 69.6027H87.6328V100.554H115.375V69.6027Z" fill="#ED524E"/>
<path d="M109.208 75.1021H89.8633V75.7474H109.208V75.1021Z" fill="white"/>
<path d="M99.5171 80.4431C96.1951 80.4431 92.8814 80.4431 89.8633 80.4306V79.7853C95.8912 79.802 103.122 79.802 109.208 79.7853V80.4306C106.169 80.4389 102.839 80.4431 99.5171 80.4431Z" fill="white"/>
<path d="M109.208 77.4459H89.8633V78.0911H109.208V77.4459Z" fill="white"/>
<path d="M103.963 82.1415H89.8633V82.7868H103.963V82.1415Z" fill="white"/>
<path d="M109.208 97.915H89.8633V98.5602H109.208V97.915Z" fill="white"/>
<path d="M109.208 93.8727C103.126 93.8602 95.8951 93.8602 89.8672 93.8727V93.2274C95.8951 93.215 103.126 93.215 109.212 93.2274V93.8727H109.208Z" fill="white"/>
<path d="M109.208 95.5712H89.8633V96.2164H109.208V95.5712Z" fill="white"/>
<path d="M103.963 90.8755H89.8633V91.5207H103.963V90.8755Z" fill="white"/>
<path d="M115.803 100.983H87.1992V69.1614H115.803V100.983ZM87.6322 100.554H115.374V69.5944H87.6322V100.554Z" fill="#70C1F9"/>
<path d="M115.589 69.3777H87.418V73.0869H115.589V69.3777Z" fill="#70C1F9"/>
<path d="M107.544 89.2268C107.469 89.2268 107.39 89.2018 107.332 89.1477L105.163 87.2327C105.092 87.1703 105.055 87.0829 105.055 86.9913C105.055 86.8997 105.092 86.8123 105.163 86.7498L107.332 84.8349C107.465 84.7183 107.669 84.7308 107.786 84.864C107.902 84.9972 107.89 85.2012 107.756 85.3178L105.862 86.9913L107.756 88.6648C107.89 88.7813 107.902 88.9853 107.786 89.1185C107.723 89.1893 107.632 89.2268 107.544 89.2268Z" fill="white"/>
<path d="M110.888 89.2268C110.8 89.2268 110.709 89.1893 110.646 89.1185C110.53 88.9853 110.542 88.7813 110.675 88.6648L112.569 86.9913L110.675 85.3178C110.542 85.2012 110.53 84.9972 110.646 84.864C110.763 84.7308 110.967 84.7183 111.1 84.8349L113.269 86.7498C113.34 86.8123 113.377 86.8997 113.377 86.9913C113.377 87.0829 113.34 87.1703 113.269 87.2327L111.1 89.1477C111.037 89.2018 110.963 89.2268 110.888 89.2268Z" fill="white"/>
<path d="M90.0884 71.2304L90.8419 70.4769C90.9127 70.4062 90.9127 70.2896 90.8419 70.2188C90.7711 70.1481 90.6546 70.1481 90.5838 70.2188L89.8303 70.9723L89.0768 70.2188C89.006 70.1481 88.8895 70.1481 88.8187 70.2188C88.7479 70.2896 88.7479 70.4062 88.8187 70.4769L89.5722 71.2304L88.8187 71.9839C88.7479 72.0547 88.7479 72.1713 88.8187 72.242C88.8562 72.2795 88.902 72.2962 88.9478 72.2962C88.9935 72.2962 89.0393 72.2795 89.0768 72.242L89.8303 71.4885L90.5838 72.242C90.6213 72.2795 90.667 72.2962 90.7128 72.2962C90.7586 72.2962 90.8044 72.2795 90.8419 72.242C90.9127 72.1713 90.9127 72.0547 90.8419 71.9839L90.0884 71.2304Z" fill="white"/>
<path d="M93.3076 72.2919C92.7207 72.2919 92.2461 71.8173 92.2461 71.2304C92.2461 70.6434 92.7207 70.1688 93.3076 70.1688C93.8946 70.1688 94.3692 70.6434 94.3692 71.2304C94.3692 71.8173 93.8946 72.2919 93.3076 72.2919ZM93.3076 70.506C92.908 70.506 92.5875 70.8307 92.5875 71.2262C92.5875 71.6217 92.9122 71.9464 93.3076 71.9464C93.7031 71.9464 94.0278 71.6217 94.0278 71.2262C94.0278 70.8307 93.7031 70.506 93.3076 70.506Z" fill="white"/>
<path d="M97.4228 72.2919H95.691C95.5911 72.2919 95.5078 72.2087 95.5078 72.1088C95.5078 72.0089 95.5911 71.9256 95.691 71.9256H97.4228C97.5227 71.9256 97.6059 72.0089 97.6059 72.1088C97.6059 72.2087 97.5227 72.2919 97.4228 72.2919Z" fill="white"/>
<path d="M78.7616 27.9315L76.2556 28.7225C76.1723 28.7474 76.0932 28.7849 76.0183 28.8224C75.2648 27.5235 74.2948 26.3954 73.175 25.4629C73.2291 25.3921 73.2749 25.3213 73.3165 25.2422L74.5154 22.9027C74.8901 22.1742 74.6029 21.2791 73.8744 20.9045L71.5348 19.7055C70.8063 19.3309 69.9112 19.6181 69.5366 20.3466L68.3377 22.6862C68.296 22.7653 68.2669 22.8444 68.2419 22.9277C66.8723 22.5696 65.4278 22.4406 63.9749 22.5655C63.9624 22.4822 63.9458 22.399 63.9208 22.3157L63.1298 19.8096C62.8842 19.0312 62.0475 18.5982 61.269 18.8438L58.7629 19.6348C57.9844 19.8804 57.5515 20.7171 57.7971 21.4956L58.5881 24.0017C58.613 24.085 58.6505 24.164 58.688 24.239C57.3891 24.9925 56.261 25.9624 55.3285 27.0823C55.2577 27.0281 55.1869 26.9824 55.1079 26.9407L52.7683 25.7418C52.4186 25.5628 52.019 25.5295 51.6443 25.6461C51.6443 25.6461 51.6401 25.6461 51.636 25.6461C51.2571 25.7668 50.9532 26.029 50.7701 26.3787L49.5712 28.7183C49.1965 29.4468 49.4837 30.3418 50.2122 30.7165L52.5518 31.9154C52.6309 31.9571 52.7142 31.9862 52.7933 32.0112C52.4352 33.3849 52.3062 34.8253 52.4311 36.2782C52.3478 36.2907 52.2646 36.3073 52.1813 36.3323L49.6752 37.1233C48.8968 37.3689 48.4638 38.2056 48.7094 38.9841L49.5004 41.4902C49.746 42.2686 50.5827 42.7016 51.3612 42.456L53.8673 41.665C53.9506 41.64 54.0297 41.6026 54.1046 41.5651C54.8581 42.8639 55.828 43.9921 56.9479 44.9246C56.8938 44.9912 56.848 45.0661 56.8063 45.1452L55.6074 47.4848C55.4284 47.8387 55.3951 48.2383 55.5158 48.6171C55.6365 48.9959 55.8988 49.2998 56.2485 49.483L58.5881 50.6819C58.9502 50.8693 59.354 50.8901 59.7121 50.7777C60.0742 50.6611 60.3948 50.4072 60.5863 50.0408L61.7852 47.7013C61.8268 47.6222 61.856 47.5389 61.8809 47.4598C63.2547 47.8178 64.6951 47.9469 66.1479 47.822C66.1604 47.9053 66.1771 47.9885 66.2021 48.0718L66.993 50.5779C67.2386 51.3563 68.0754 51.7893 68.8539 51.5437L71.3599 50.7527C72.1384 50.5071 72.5714 49.6703 72.3257 48.8919L71.5348 46.3858C71.5098 46.3025 71.4723 46.2234 71.4349 46.1485C72.7337 45.395 73.8619 44.425 74.7944 43.3052C74.861 43.3593 74.9359 43.4051 75.015 43.4468L77.3546 44.6457C77.7167 44.833 78.1206 44.8538 78.4786 44.7414C78.8407 44.6249 79.1613 44.3709 79.3486 44.0046L80.5475 41.665C80.9222 40.9365 80.635 40.0415 79.9064 39.6668L77.5669 38.4679C77.4878 38.4263 77.4087 38.3971 77.3254 38.3721C77.6834 37.0025 77.8125 35.558 77.6876 34.1051C77.7709 34.0926 77.8541 34.076 77.9374 34.051L80.4435 33.2601C81.2219 33.0144 81.6549 32.1777 81.4093 31.3992L80.6183 28.8931C80.3727 28.1147 79.5359 27.6817 78.7575 27.9273L78.7616 27.9315ZM67.1637 41.8357C63.5003 42.993 59.583 40.9573 58.4215 37.2981C57.2643 33.6347 59.2999 29.7174 62.9633 28.5559C66.6225 27.3987 70.544 29.4343 71.7055 33.0977C72.8628 36.7569 70.8271 40.6784 67.1679 41.8399L67.1637 41.8357Z" fill="#0F1B63"/>
<path d="M75.6052 86.096L74.9974 87.5863C74.9766 87.6363 74.9641 87.6862 74.9516 87.7362C74.0441 87.5822 73.1324 87.5947 72.2541 87.7612C72.2416 87.7112 72.2291 87.6571 72.2041 87.6071L71.5713 86.1251C71.3757 85.6631 70.8387 85.4466 70.3807 85.6464L68.8987 86.2792C68.4367 86.4748 68.2202 87.0118 68.42 87.4698L69.0528 88.9518C69.0736 89.0017 69.0986 89.0475 69.1277 89.0933C68.42 89.6012 67.7956 90.2256 67.2835 90.9625C67.2377 90.9333 67.1919 90.9084 67.142 90.8917L65.6517 90.2839C65.1896 90.0924 64.6567 90.3172 64.4652 90.7835L63.8574 92.2738C63.6659 92.7359 63.8907 93.2687 64.357 93.4602L65.8473 94.068C65.8973 94.0888 65.9472 94.1013 65.9972 94.1138C65.8431 95.0213 65.8556 95.933 66.0222 96.8114C65.9722 96.8239 65.9181 96.8364 65.8681 96.8613L64.3861 97.4941C64.1655 97.5899 63.9906 97.7647 63.8991 97.9853C63.8075 98.2101 63.8116 98.4558 63.9074 98.6805L64.5401 100.163C64.7358 100.625 65.2728 100.841 65.7307 100.641L67.2127 100.009C67.2627 99.9877 67.3085 99.9586 67.3543 99.9294C67.8622 100.637 68.4866 101.262 69.2234 101.774C69.1943 101.819 69.1693 101.865 69.1527 101.915L68.5449 103.405C68.3534 103.868 68.5782 104.4 69.0444 104.592L70.5348 105.2C70.9969 105.391 71.5297 105.166 71.7212 104.7L72.329 103.21C72.3498 103.16 72.3623 103.11 72.3748 103.06C73.2823 103.214 74.194 103.201 75.0724 103.035C75.0849 103.085 75.0973 103.139 75.1182 103.189L75.7509 104.671C75.8467 104.896 76.0215 105.066 76.2463 105.158C76.4711 105.25 76.7167 105.245 76.9415 105.15L78.4235 104.517C78.6525 104.421 78.819 104.238 78.9064 104.026C78.9939 103.809 79.0022 103.56 78.9023 103.326L78.2695 101.844C78.2487 101.794 78.2195 101.749 78.1904 101.703C78.8981 101.195 79.5225 100.571 80.0346 99.8337C80.0804 99.8628 80.1262 99.8878 80.1761 99.9045L81.6665 100.512C82.1285 100.704 82.6614 100.479 82.8529 100.013L83.4607 98.5224C83.6522 98.0603 83.4274 97.5274 82.9611 97.3359L81.4708 96.7281C81.4208 96.7073 81.3709 96.6948 81.3209 96.6823C81.475 95.7748 81.4625 94.8631 81.296 93.9848C81.3459 93.9723 81.4 93.9598 81.45 93.939L82.932 93.3062C83.1609 93.2105 83.3316 93.0273 83.419 92.815C83.5065 92.5985 83.5148 92.3487 83.4149 92.1156L82.7821 90.6336C82.5865 90.1715 82.0494 89.955 81.5915 90.1549L80.1095 90.7876C80.0596 90.8084 80.0138 90.8334 79.968 90.8626C79.4601 90.1549 78.8357 89.5304 78.0988 89.0184C78.128 88.9726 78.1529 88.9268 78.1696 88.8768L78.7774 87.3865C78.9689 86.9244 78.7441 86.3916 78.2778 86.2001L76.7875 85.5923C76.3254 85.4008 75.7926 85.6256 75.6011 86.0918L75.6052 86.096ZM77.6118 97.0112C76.7209 99.1926 74.2231 100.242 72.0459 99.3508C69.8645 98.4599 68.8155 95.9622 69.7063 93.7849C70.5972 91.6036 73.095 90.5545 75.2722 91.4454C77.4494 92.3362 78.5026 94.834 77.6118 97.0112Z" fill="#ED524E"/>
<path d="M65.7251 78.5237L64.9341 79.3271C64.9092 79.3521 64.8842 79.3812 64.8634 79.4145C64.318 79.0732 63.7227 78.84 63.1108 78.711C63.1149 78.6735 63.1191 78.6361 63.1191 78.5986L63.1066 77.4704C63.1066 77.1208 62.8152 76.8377 62.4614 76.8418L61.3332 76.8543C60.9835 76.8543 60.7004 77.1457 60.7046 77.4996L60.7171 78.6277C60.7171 78.6652 60.7212 78.7027 60.7296 78.7401C60.1384 78.8775 59.564 79.119 59.0353 79.4562C59.0144 79.427 58.9895 79.3979 58.9645 79.3729L58.161 78.5819C57.9113 78.3363 57.5075 78.3363 57.2618 78.5861L56.4709 79.3896C56.2253 79.6393 56.2253 80.0431 56.4751 80.2888L57.2785 81.0797C57.3035 81.1047 57.3326 81.1297 57.3618 81.1505C57.0204 81.6958 56.7873 82.2911 56.6582 82.9031C56.6208 82.8989 56.5833 82.8947 56.5458 82.8947L55.4177 82.9072C55.247 82.9072 55.0888 82.978 54.9722 83.0946C54.8515 83.2153 54.7891 83.3776 54.7891 83.5483L54.8016 84.6765C54.8016 85.0262 55.093 85.3093 55.4468 85.3051L56.575 85.2926C56.6124 85.2926 56.6499 85.2884 56.6874 85.2801C56.8247 85.8712 57.0662 86.4457 57.4034 86.9744C57.3743 86.9952 57.3451 87.0202 57.3201 87.0452L56.5292 87.8486C56.2836 88.0984 56.2836 88.5022 56.5333 88.7478L57.3368 89.5388C57.5866 89.7844 57.9904 89.7844 58.236 89.5346L59.0269 88.7312C59.0519 88.7062 59.0769 88.6771 59.0977 88.6479C59.643 88.9893 60.2383 89.2224 60.8503 89.3515C60.8461 89.3889 60.8378 89.4264 60.842 89.4639L60.8545 90.592C60.8545 90.7627 60.9252 90.9209 61.046 91.0416C61.1667 91.1623 61.329 91.2248 61.4997 91.2248L62.6279 91.2123C62.8027 91.2123 62.9609 91.1374 63.0733 91.0208C63.1899 90.9042 63.2606 90.7419 63.2565 90.567L63.244 89.4389C63.244 89.4014 63.2398 89.3639 63.2315 89.3265C63.8226 89.1891 64.3971 88.9477 64.9258 88.6105C64.9466 88.6396 64.9716 88.6687 64.9966 88.6937L65.8 89.4847C66.0498 89.7303 66.4536 89.7303 66.6992 89.4805L67.4902 88.6771C67.7358 88.4273 67.7358 88.0235 67.486 87.7779L66.6826 86.9869C66.6576 86.9619 66.6284 86.937 66.5951 86.9161C66.9365 86.3708 67.1696 85.7755 67.2987 85.1635C67.3361 85.1677 67.3736 85.176 67.4111 85.1719L68.5392 85.1594C68.7141 85.1594 68.8723 85.0845 68.9847 84.9679C69.1012 84.8513 69.172 84.689 69.1678 84.5141L69.1554 83.386C69.1554 83.0363 68.8639 82.7532 68.5101 82.7574L67.3819 82.7699C67.3445 82.7699 67.307 82.774 67.2695 82.7824C67.1322 82.1912 66.8907 81.6167 66.5535 81.088C66.5827 81.0672 66.6118 81.0422 66.6368 81.0173L67.4277 80.2138C67.6733 79.964 67.6733 79.5602 67.4236 79.3146L66.6201 78.5237C66.3703 78.2781 65.9665 78.2781 65.7209 78.5278L65.7251 78.5237ZM64.1099 86.1293C62.9526 87.3033 61.0543 87.3158 59.8803 86.1585C58.7064 85.0012 58.6939 83.1029 59.8512 81.9289C61.0085 80.755 62.9068 80.7425 64.0807 81.8998C65.2547 83.0571 65.2672 84.9554 64.1099 86.1293Z" stroke="#ED524E" stroke-width="0.149531" stroke-miterlimit="10"/>
<path d="M149.855 42.4352L147.836 42.8681C147.77 42.8806 147.703 42.9056 147.645 42.9264C147.149 41.8566 146.479 40.8991 145.672 40.0873C145.717 40.0373 145.763 39.9832 145.801 39.9249L146.916 38.1848C147.262 37.6437 147.104 36.9193 146.562 36.5738L144.822 35.4581C144.281 35.1126 143.557 35.2708 143.211 35.812L142.096 37.5521C142.058 37.6104 142.029 37.6728 142.004 37.7352C140.959 37.3523 139.839 37.1441 138.694 37.1316C138.694 37.065 138.686 36.9984 138.669 36.9318L138.237 34.9128C138.103 34.2842 137.483 33.8804 136.854 34.0177L134.835 34.4507C134.207 34.5839 133.803 35.2042 133.94 35.8328L134.373 37.8518C134.386 37.9184 134.411 37.985 134.432 38.0433C133.362 38.5345 132.404 39.2089 131.592 40.0165C131.543 39.9707 131.488 39.9249 131.43 39.8875L129.69 38.7718C129.428 38.6053 129.12 38.547 128.816 38.6136C128.816 38.6136 128.816 38.6136 128.812 38.6136C128.508 38.6802 128.245 38.8634 128.079 39.1215L126.963 40.8616C126.618 41.4028 126.776 42.1271 127.317 42.4727L129.057 43.5883C129.116 43.6258 129.178 43.6549 129.24 43.6799C128.857 44.7248 128.645 45.8446 128.637 46.9936C128.57 46.9936 128.504 47.0019 128.437 47.0186L126.418 47.4515C125.789 47.5847 125.386 48.205 125.523 48.8336L125.956 50.8527C126.089 51.4813 126.709 51.8851 127.338 51.7477L129.357 51.3147C129.424 51.3022 129.49 51.2773 129.548 51.2565C130.044 52.3263 130.714 53.2838 131.522 54.0956C131.476 54.1455 131.43 54.1996 131.393 54.2579L130.277 55.998C130.11 56.2603 130.052 56.5725 130.119 56.8764C130.185 57.1803 130.369 57.4426 130.627 57.6091L132.367 58.7248C132.637 58.8954 132.95 58.9454 133.241 58.8829C133.537 58.8205 133.803 58.6457 133.978 58.3709L135.094 56.6308C135.131 56.5725 135.16 56.5101 135.185 56.4476C136.23 56.8306 137.35 57.0429 138.499 57.0513C138.499 57.1179 138.507 57.1845 138.524 57.2511L138.957 59.2701C139.09 59.8987 139.71 60.3025 140.339 60.1651L142.358 59.7322C142.986 59.599 143.39 58.9787 143.253 58.3501L142.82 56.3311C142.807 56.2645 142.782 56.1979 142.762 56.1396C143.832 55.6442 144.789 54.974 145.601 54.1663C145.651 54.2121 145.705 54.2579 145.763 54.2954L147.503 55.4111C147.774 55.5817 148.086 55.6317 148.377 55.5693C148.673 55.5068 148.939 55.332 149.114 55.0572L150.23 53.3171C150.575 52.7759 150.417 52.0516 149.876 51.7061L148.136 50.5904C148.078 50.5529 148.015 50.5238 147.953 50.4988C148.336 49.4539 148.544 48.3341 148.556 47.1893C148.623 47.1893 148.69 47.1809 148.756 47.1643L150.775 46.7313C151.404 46.5981 151.808 45.9779 151.67 45.3493L151.237 43.3302C151.104 42.7016 150.484 42.2978 149.855 42.4352ZM139.739 52.4471C136.788 53.0798 133.874 51.1898 133.241 48.2383C132.608 45.2868 134.498 42.3728 137.45 41.74C140.401 41.1072 143.315 42.9972 143.948 45.9487C144.581 48.9002 142.691 51.8143 139.739 52.4471Z" fill="#0F1B63"/>
<path d="M105.192 41.1736L101.729 42.4433L105.192 43.7005V44.9993L100.238 43.1177V41.7647L105.192 39.8831V41.1736Z" fill="white"/>
<path d="M108.923 37.3229H110.367L106.933 47.1224H105.488L108.923 37.3229Z" fill="white"/>
<path d="M115.501 41.7688V43.1217L110.547 45.0034V43.7046L114.01 42.4474L110.547 41.1777V39.8871L115.501 41.7688Z" fill="white"/>
<path d="M31.0089 84.774H31.4924V88.1501C31.4924 88.344 31.4589 88.512 31.392 88.6541C31.3264 88.7961 31.2267 88.906 31.0929 88.9839C30.9604 89.0617 30.7931 89.1007 30.591 89.1007C30.5746 89.1007 30.5582 89.1007 30.5418 89.1007C30.5254 89.1007 30.509 89.1007 30.4927 89.1007V88.65C30.509 88.65 30.5241 88.65 30.5377 88.65C30.5514 88.65 30.5664 88.65 30.5828 88.65C30.7303 88.65 30.8382 88.6063 30.9065 88.5188C30.9748 88.4328 31.0089 88.3099 31.0089 88.1501V84.774ZM31.2465 84.2495C31.1523 84.2495 31.071 84.2174 31.0028 84.1533C30.9358 84.0891 30.9024 84.0119 30.9024 83.9218C30.9024 83.8316 30.9358 83.7545 31.0028 83.6903C31.071 83.6261 31.1523 83.594 31.2465 83.594C31.3408 83.594 31.4214 83.6261 31.4883 83.6903C31.5566 83.7545 31.5907 83.8316 31.5907 83.9218C31.5907 84.0119 31.5566 84.0891 31.4883 84.1533C31.4214 84.2174 31.3408 84.2495 31.2465 84.2495ZM34.6068 85.4787L34.1725 85.6016C34.1452 85.5292 34.1049 85.4589 34.0516 85.3906C33.9997 85.321 33.9287 85.2636 33.8386 85.2185C33.7484 85.1735 33.633 85.1509 33.4923 85.1509C33.2998 85.1509 33.1393 85.1953 33.0109 85.2841C32.8839 85.3715 32.8204 85.4828 32.8204 85.618C32.8204 85.7382 32.8641 85.8331 32.9515 85.9028C33.0389 85.9724 33.1755 86.0305 33.3612 86.0769L33.8283 86.1916C34.1097 86.2599 34.3193 86.3644 34.4572 86.5051C34.5952 86.6444 34.6641 86.824 34.6641 87.0438C34.6641 87.2241 34.6122 87.3853 34.5084 87.5273C34.406 87.6694 34.2626 87.7813 34.0782 87.8633C33.8939 87.9452 33.6794 87.9862 33.435 87.9862C33.114 87.9862 32.8484 87.9166 32.6381 87.7773C32.4277 87.6379 32.2946 87.4345 32.2386 87.1668L32.6975 87.052C32.7412 87.2214 32.8238 87.3484 32.9454 87.4331C33.0683 87.5178 33.2287 87.5601 33.4268 87.5601C33.6521 87.5601 33.831 87.5123 33.9635 87.4167C34.0974 87.3197 34.1643 87.2036 34.1643 87.0684C34.1643 86.9592 34.126 86.8677 34.0496 86.7939C33.9731 86.7188 33.8556 86.6628 33.6972 86.6259L33.1728 86.503C32.8846 86.4347 32.6729 86.3289 32.5377 86.1855C32.4038 86.0407 32.3369 85.8598 32.3369 85.6426C32.3369 85.4651 32.3868 85.308 32.4865 85.1714C32.5875 85.0348 32.7248 84.9276 32.8982 84.8498C33.0731 84.7719 33.2711 84.733 33.4923 84.733C33.8037 84.733 34.0482 84.8013 34.2257 84.9379C34.4047 85.0744 34.5317 85.2547 34.6068 85.4787Z" fill="white"/>
<path d="M108.012 141.381C107.64 141.381 107.319 141.293 107.05 141.118C106.781 140.942 106.574 140.7 106.429 140.391C106.285 140.082 106.212 139.73 106.212 139.333C106.212 138.93 106.286 138.574 106.435 138.265C106.585 137.955 106.793 137.713 107.06 137.539C107.329 137.363 107.643 137.275 108.002 137.275C108.281 137.275 108.533 137.327 108.757 137.43C108.981 137.533 109.165 137.678 109.308 137.864C109.451 138.051 109.54 138.268 109.574 138.516H108.964C108.917 138.335 108.814 138.175 108.653 138.035C108.495 137.894 108.281 137.823 108.012 137.823C107.774 137.823 107.566 137.885 107.386 138.009C107.209 138.132 107.07 138.305 106.97 138.529C106.872 138.751 106.823 139.013 106.823 139.313C106.823 139.619 106.871 139.887 106.967 140.114C107.066 140.342 107.204 140.519 107.381 140.644C107.56 140.77 107.771 140.833 108.012 140.833C108.171 140.833 108.315 140.806 108.444 140.75C108.573 140.695 108.683 140.616 108.772 140.513C108.862 140.409 108.926 140.285 108.964 140.14H109.574C109.54 140.375 109.454 140.586 109.318 140.774C109.184 140.96 109.005 141.108 108.783 141.218C108.562 141.327 108.305 141.381 108.012 141.381Z" fill="white"/>
<path d="M115.321 140.937V137.523H115.9V140.937H115.321ZM113.904 139.519V138.94H117.317V139.519H113.904Z" fill="white"/>
<path d="M121.446 140.937V137.523H122.025V140.937H121.446ZM120.029 139.519V138.94H123.442V139.519H120.029Z" fill="white"/>
</svg>
