<svg width="174" height="174" viewBox="0 0 174 174" fill="none" xmlns="http://www.w3.org/2000/svg">
<g opacity="0.2">
<path d="M113.176 16V96.3937" stroke="url(#paint0_linear_1396_1113)" stroke-width="0.134348" stroke-linecap="round" stroke-linejoin="round"/>
<path d="M104.246 16V96.3937" stroke="url(#paint1_linear_1396_1113)" stroke-width="0.134348" stroke-linecap="round" stroke-linejoin="round"/>
<path d="M95.3086 16V96.3937" stroke="url(#paint2_linear_1396_1113)" stroke-width="0.134348" stroke-linecap="round" stroke-linejoin="round"/>
<path d="M86.3789 16V96.3937" stroke="url(#paint3_linear_1396_1113)" stroke-width="0.134348" stroke-linecap="round" stroke-linejoin="round"/>
<path d="M77.4453 16V96.3937" stroke="url(#paint4_linear_1396_1113)" stroke-width="0.134348" stroke-linecap="round" stroke-linejoin="round"/>
<path d="M68.5117 16V96.3937" stroke="url(#paint5_linear_1396_1113)" stroke-width="0.134348" stroke-linecap="round" stroke-linejoin="round"/>
<path d="M113.18 60.6621H68.5117" stroke="url(#paint6_linear_1396_1113)" stroke-width="0.134348" stroke-linecap="round" stroke-linejoin="round"/>
<path d="M113.18 69.5947H68.5117" stroke="url(#paint7_linear_1396_1113)" stroke-width="0.134348" stroke-linecap="round" stroke-linejoin="round"/>
<path d="M113.18 78.5244H68.5117" stroke="url(#paint8_linear_1396_1113)" stroke-width="0.134348" stroke-linecap="round" stroke-linejoin="round"/>
<path d="M113.18 87.457H68.5117" stroke="url(#paint9_linear_1396_1113)" stroke-width="0.134348" stroke-linecap="round" stroke-linejoin="round"/>
<path d="M113.18 96.3936H68.5117" stroke="url(#paint10_linear_1396_1113)" stroke-width="0.134348" stroke-linecap="round" stroke-linejoin="round"/>
<path d="M113.18 51.7266H68.5117" stroke="url(#paint11_linear_1396_1113)" stroke-width="0.134348" stroke-linecap="round" stroke-linejoin="round"/>
<path d="M113.18 42.7939H68.5117" stroke="url(#paint12_linear_1396_1113)" stroke-width="0.134348" stroke-linecap="round" stroke-linejoin="round"/>
<path d="M113.18 33.8623H68.5117" stroke="url(#paint13_linear_1396_1113)" stroke-width="0.134348" stroke-linecap="round" stroke-linejoin="round"/>
<path d="M113.18 24.9326H68.5117" stroke="url(#paint14_linear_1396_1113)" stroke-width="0.134348" stroke-linecap="round" stroke-linejoin="round"/>
<path d="M113.18 16H68.5117" stroke="url(#paint15_linear_1396_1113)" stroke-width="0.134348" stroke-linecap="round" stroke-linejoin="round"/>
<path d="M163.024 116.573H82.625" stroke="url(#paint16_linear_1396_1113)" stroke-width="0.134348" stroke-linecap="round" stroke-linejoin="round"/>
<path d="M163.024 107.642H82.625" stroke="url(#paint17_linear_1396_1113)" stroke-width="0.134348" stroke-linecap="round" stroke-linejoin="round"/>
<path d="M163.024 98.709H82.625" stroke="url(#paint18_linear_1396_1113)" stroke-width="0.134348" stroke-linecap="round" stroke-linejoin="round"/>
<path d="M163.024 89.7783H82.625" stroke="url(#paint19_linear_1396_1113)" stroke-width="0.134348" stroke-linecap="round" stroke-linejoin="round"/>
<path d="M163.024 80.8418H82.625" stroke="url(#paint20_linear_1396_1113)" stroke-width="0.134348" stroke-linecap="round" stroke-linejoin="round"/>
<path d="M163.024 71.9102H82.625" stroke="url(#paint21_linear_1396_1113)" stroke-width="0.134348" stroke-linecap="round" stroke-linejoin="round"/>
<path d="M118.355 116.573V71.9102" stroke="url(#paint22_linear_1396_1113)" stroke-width="0.134348" stroke-linecap="round" stroke-linejoin="round"/>
<path d="M109.422 116.573V71.9102" stroke="url(#paint23_linear_1396_1113)" stroke-width="0.134348" stroke-linecap="round" stroke-linejoin="round"/>
<path d="M100.492 116.573V71.9102" stroke="url(#paint24_linear_1396_1113)" stroke-width="0.134348" stroke-linecap="round" stroke-linejoin="round"/>
<path d="M91.5664 116.573V71.9102" stroke="url(#paint25_linear_1396_1113)" stroke-width="0.134348" stroke-linecap="round" stroke-linejoin="round"/>
<path d="M82.625 116.573V71.9102" stroke="url(#paint26_linear_1396_1113)" stroke-width="0.134348" stroke-linecap="round" stroke-linejoin="round"/>
<path d="M127.289 116.573V71.9102" stroke="url(#paint27_linear_1396_1113)" stroke-width="0.134348" stroke-linecap="round" stroke-linejoin="round"/>
<path d="M136.23 116.573V71.9102" stroke="url(#paint28_linear_1396_1113)" stroke-width="0.134348" stroke-linecap="round" stroke-linejoin="round"/>
<path d="M145.16 116.573V71.9102" stroke="url(#paint29_linear_1396_1113)" stroke-width="0.134348" stroke-linecap="round" stroke-linejoin="round"/>
<path d="M154.094 116.573V71.9102" stroke="url(#paint30_linear_1396_1113)" stroke-width="0.134348" stroke-linecap="round" stroke-linejoin="round"/>
<path d="M163.027 116.573V71.9102" stroke="url(#paint31_linear_1396_1113)" stroke-width="0.134348" stroke-linecap="round" stroke-linejoin="round"/>
<path d="M126.577 157.42H46.1836" stroke="url(#paint32_linear_1396_1113)" stroke-width="0.134348" stroke-linecap="round" stroke-linejoin="round"/>
<path d="M126.577 148.487H46.1836" stroke="url(#paint33_linear_1396_1113)" stroke-width="0.134348" stroke-linecap="round" stroke-linejoin="round"/>
<path d="M126.577 139.558H46.1836" stroke="url(#paint34_linear_1396_1113)" stroke-width="0.134348" stroke-linecap="round" stroke-linejoin="round"/>
<path d="M126.577 130.619H46.1836" stroke="url(#paint35_linear_1396_1113)" stroke-width="0.134348" stroke-linecap="round" stroke-linejoin="round"/>
<path d="M126.577 121.689H46.1836" stroke="url(#paint36_linear_1396_1113)" stroke-width="0.134348" stroke-linecap="round" stroke-linejoin="round"/>
<path d="M126.577 112.758H46.1836" stroke="url(#paint37_linear_1396_1113)" stroke-width="0.134348" stroke-linecap="round" stroke-linejoin="round"/>
<path d="M81.9141 157.42V112.758" stroke="url(#paint38_linear_1396_1113)" stroke-width="0.134348" stroke-linecap="round" stroke-linejoin="round"/>
<path d="M72.9805 157.42V112.758" stroke="url(#paint39_linear_1396_1113)" stroke-width="0.134348" stroke-linecap="round" stroke-linejoin="round"/>
<path d="M64.0391 157.42V112.758" stroke="url(#paint40_linear_1396_1113)" stroke-width="0.134348" stroke-linecap="round" stroke-linejoin="round"/>
<path d="M55.1133 157.42V112.758" stroke="url(#paint41_linear_1396_1113)" stroke-width="0.134348" stroke-linecap="round" stroke-linejoin="round"/>
<path d="M46.1836 157.42V112.758" stroke="url(#paint42_linear_1396_1113)" stroke-width="0.134348" stroke-linecap="round" stroke-linejoin="round"/>
<path d="M90.8438 157.42V112.758" stroke="url(#paint43_linear_1396_1113)" stroke-width="0.134348" stroke-linecap="round" stroke-linejoin="round"/>
<path d="M99.7773 157.42V112.758" stroke="url(#paint44_linear_1396_1113)" stroke-width="0.134348" stroke-linecap="round" stroke-linejoin="round"/>
<path d="M108.711 157.42V112.758" stroke="url(#paint45_linear_1396_1113)" stroke-width="0.134348" stroke-linecap="round" stroke-linejoin="round"/>
<path d="M117.645 157.42V112.758" stroke="url(#paint46_linear_1396_1113)" stroke-width="0.134348" stroke-linecap="round" stroke-linejoin="round"/>
<path d="M126.578 157.42V112.758" stroke="url(#paint47_linear_1396_1113)" stroke-width="0.134348" stroke-linecap="round" stroke-linejoin="round"/>
<path d="M89.6515 94.5508H9.25781" stroke="url(#paint48_linear_1396_1113)" stroke-width="0.134348" stroke-linecap="round" stroke-linejoin="round"/>
<path d="M89.6515 85.6133H9.25781" stroke="url(#paint49_linear_1396_1113)" stroke-width="0.134348" stroke-linecap="round" stroke-linejoin="round"/>
<path d="M89.6515 76.6816H9.25781" stroke="url(#paint50_linear_1396_1113)" stroke-width="0.134348" stroke-linecap="round" stroke-linejoin="round"/>
<path d="M89.6515 67.751H9.25781" stroke="url(#paint51_linear_1396_1113)" stroke-width="0.134348" stroke-linecap="round" stroke-linejoin="round"/>
<path d="M89.6515 58.8193H9.25781" stroke="url(#paint52_linear_1396_1113)" stroke-width="0.134348" stroke-linecap="round" stroke-linejoin="round"/>
<path d="M89.6515 49.8838H9.25781" stroke="url(#paint53_linear_1396_1113)" stroke-width="0.134348" stroke-linecap="round" stroke-linejoin="round"/>
<path d="M44.9883 94.5517V49.8838" stroke="url(#paint54_linear_1396_1113)" stroke-width="0.134348" stroke-linecap="round" stroke-linejoin="round"/>
<path d="M36.0469 94.5517V49.8838" stroke="url(#paint55_linear_1396_1113)" stroke-width="0.134348" stroke-linecap="round" stroke-linejoin="round"/>
<path d="M27.1211 94.5517V49.8838" stroke="url(#paint56_linear_1396_1113)" stroke-width="0.134348" stroke-linecap="round" stroke-linejoin="round"/>
<path d="M18.1875 94.5517V49.8838" stroke="url(#paint57_linear_1396_1113)" stroke-width="0.134348" stroke-linecap="round" stroke-linejoin="round"/>
<path d="M9.25781 94.5517V49.8838" stroke="url(#paint58_linear_1396_1113)" stroke-width="0.134348" stroke-linecap="round" stroke-linejoin="round"/>
<path d="M53.918 94.5517V49.8838" stroke="url(#paint59_linear_1396_1113)" stroke-width="0.134348" stroke-linecap="round" stroke-linejoin="round"/>
<path d="M62.8555 94.5517V49.8838" stroke="url(#paint60_linear_1396_1113)" stroke-width="0.134348" stroke-linecap="round" stroke-linejoin="round"/>
<path d="M71.7852 94.5517V49.8838" stroke="url(#paint61_linear_1396_1113)" stroke-width="0.134348" stroke-linecap="round" stroke-linejoin="round"/>
<path d="M80.7188 94.5517V49.8838" stroke="url(#paint62_linear_1396_1113)" stroke-width="0.134348" stroke-linecap="round" stroke-linejoin="round"/>
<path d="M89.6523 94.5517V49.8838" stroke="url(#paint63_linear_1396_1113)" stroke-width="0.134348" stroke-linecap="round" stroke-linejoin="round"/>
</g>
<path d="M52.5358 76.0059H5.29913C2.92479 76.0059 1 77.9306 1 80.305V142.605C1 144.979 2.92479 146.904 5.29913 146.904H52.5358C54.9102 146.904 56.8349 144.979 56.8349 142.605V80.305C56.8349 77.9306 54.9102 76.0059 52.5358 76.0059Z" fill="url(#paint64_linear_1396_1113)"/>
<path d="M52.5358 76.0059H5.29913C2.92479 76.0059 1 77.9306 1 80.305V142.605C1 144.979 2.92479 146.904 5.29913 146.904H52.5358C54.9102 146.904 56.8349 144.979 56.8349 142.605V80.305C56.8349 77.9306 54.9102 76.0059 52.5358 76.0059Z" stroke="url(#paint65_linear_1396_1113)" stroke-width="0.537391" stroke-miterlimit="10"/>
<path d="M51.9525 86.1507H24.6637C24.3302 86.1507 24.0104 86.0182 23.7746 85.7824C23.5387 85.5466 23.4062 85.2267 23.4062 84.8932C23.4062 84.7281 23.4388 84.5646 23.502 84.412C23.5652 84.2594 23.6578 84.1208 23.7746 84.0041C23.8913 83.8873 24.03 83.7947 24.1825 83.7315C24.3351 83.6683 24.4986 83.6357 24.6637 83.6357H51.9525C52.1176 83.6357 52.2811 83.6683 52.4337 83.7315C52.5863 83.7947 52.7249 83.8873 52.8417 84.0041C52.9584 84.1208 53.051 84.2594 53.1142 84.412C53.1774 84.5646 53.21 84.7281 53.21 84.8932C53.21 85.2267 53.0775 85.5466 52.8417 85.7824C52.6058 86.0182 52.286 86.1507 51.9525 86.1507Z" fill="url(#paint66_linear_1396_1113)"/>
<path d="M51.9525 86.1507H24.6637C24.3302 86.1507 24.0104 86.0182 23.7746 85.7824C23.5387 85.5466 23.4062 85.2267 23.4062 84.8932C23.4062 84.7281 23.4388 84.5646 23.502 84.412C23.5652 84.2594 23.6578 84.1208 23.7746 84.0041C23.8913 83.8873 24.03 83.7947 24.1825 83.7315C24.3351 83.6683 24.4986 83.6357 24.6637 83.6357H51.9525C52.1176 83.6357 52.2811 83.6683 52.4337 83.7315C52.5863 83.7947 52.7249 83.8873 52.8417 84.0041C52.9584 84.1208 53.051 84.2594 53.1142 84.412C53.1774 84.5646 53.21 84.7281 53.21 84.8932C53.21 85.2267 53.0775 85.5466 52.8417 85.7824C52.6058 86.0182 52.286 86.1507 51.9525 86.1507Z" stroke="url(#paint67_linear_1396_1113)" stroke-width="0.537391" stroke-miterlimit="10"/>
<path d="M44.7407 91.0306H24.6638C24.3303 91.0306 24.0104 90.8981 23.7746 90.6623C23.5388 90.4265 23.4063 90.1066 23.4063 89.7731C23.4049 89.6071 23.4363 89.4424 23.4989 89.2886C23.5615 89.1348 23.6539 88.9949 23.7708 88.877C23.8877 88.7591 24.0268 88.6655 24.1801 88.6016C24.3333 88.5378 24.4977 88.5049 24.6638 88.5049H44.7407C45.0742 88.5049 45.3941 88.6374 45.6299 88.8732C45.8657 89.109 45.9982 89.4289 45.9982 89.7624C45.9996 89.9284 45.9682 90.0931 45.9056 90.2469C45.843 90.4007 45.7506 90.5406 45.6337 90.6585C45.5168 90.7764 45.3777 90.87 45.2244 90.9339C45.0712 90.9978 44.9068 91.0306 44.7407 91.0306Z" fill="url(#paint68_linear_1396_1113)"/>
<path d="M44.7407 91.0306H24.6638C24.3303 91.0306 24.0104 90.8981 23.7746 90.6623C23.5388 90.4265 23.4063 90.1066 23.4063 89.7731C23.4049 89.6071 23.4363 89.4424 23.4989 89.2886C23.5615 89.1348 23.6539 88.9949 23.7708 88.877C23.8877 88.7591 24.0268 88.6655 24.1801 88.6016C24.3333 88.5378 24.4977 88.5049 24.6638 88.5049H44.7407C45.0742 88.5049 45.3941 88.6374 45.6299 88.8732C45.8657 89.109 45.9982 89.4289 45.9982 89.7624C45.9996 89.9284 45.9682 90.0931 45.9056 90.2469C45.843 90.4007 45.7506 90.5406 45.6337 90.6585C45.5168 90.7764 45.3777 90.87 45.2244 90.9339C45.0712 90.9978 44.9068 91.0306 44.7407 91.0306Z" stroke="url(#paint69_linear_1396_1113)" stroke-width="0.537391" stroke-miterlimit="10"/>
<path d="M51.9525 102.234H24.6637C24.3302 102.234 24.0104 102.101 23.7746 101.865C23.5387 101.63 23.4062 101.31 23.4062 100.976C23.4062 100.643 23.5387 100.323 23.7746 100.087C24.0104 99.8512 24.3302 99.7188 24.6637 99.7188H51.9525C52.286 99.7188 52.6058 99.8512 52.8417 100.087C53.0775 100.323 53.21 100.643 53.21 100.976C53.21 101.31 53.0775 101.63 52.8417 101.865C52.6058 102.101 52.286 102.234 51.9525 102.234Z" fill="url(#paint70_linear_1396_1113)"/>
<path d="M51.9525 102.234H24.6637C24.3302 102.234 24.0104 102.101 23.7746 101.865C23.5387 101.63 23.4062 101.31 23.4062 100.976C23.4062 100.643 23.5387 100.323 23.7746 100.087C24.0104 99.8512 24.3302 99.7188 24.6637 99.7188H51.9525C52.286 99.7188 52.6058 99.8512 52.8417 100.087C53.0775 100.323 53.21 100.643 53.21 100.976C53.21 101.31 53.0775 101.63 52.8417 101.865C52.6058 102.101 52.286 102.234 51.9525 102.234Z" stroke="url(#paint71_linear_1396_1113)" stroke-width="0.537391" stroke-miterlimit="10"/>
<path d="M44.7407 107.104H24.6637C24.3302 107.104 24.0104 106.971 23.7746 106.736C23.5387 106.5 23.4062 106.18 23.4062 105.846C23.4062 105.513 23.5387 105.193 23.7746 104.957C24.0104 104.721 24.3302 104.589 24.6637 104.589H44.7407C45.0742 104.589 45.394 104.721 45.6299 104.957C45.8657 105.193 45.9982 105.513 45.9982 105.846C45.9982 106.18 45.8657 106.5 45.6299 106.736C45.394 106.971 45.0742 107.104 44.7407 107.104Z" fill="url(#paint72_linear_1396_1113)"/>
<path d="M44.7407 107.104H24.6637C24.3302 107.104 24.0104 106.971 23.7746 106.736C23.5387 106.5 23.4062 106.18 23.4062 105.846C23.4062 105.513 23.5387 105.193 23.7746 104.957C24.0104 104.721 24.3302 104.589 24.6637 104.589H44.7407C45.0742 104.589 45.394 104.721 45.6299 104.957C45.8657 105.193 45.9982 105.513 45.9982 105.846C45.9982 106.18 45.8657 106.5 45.6299 106.736C45.394 106.971 45.0742 107.104 44.7407 107.104Z" stroke="url(#paint73_linear_1396_1113)" stroke-width="0.537391" stroke-miterlimit="10"/>
<path d="M51.9525 118.326H24.6637C24.3302 118.326 24.0104 118.194 23.7746 117.958C23.5387 117.722 23.4063 117.402 23.4063 117.069C23.4062 116.735 23.5386 116.414 23.7742 116.177C24.0099 115.941 24.3297 115.807 24.6637 115.806H51.9525C52.2865 115.807 52.6063 115.941 52.842 116.177C53.0777 116.414 53.21 116.735 53.21 117.069C53.21 117.402 53.0775 117.722 52.8417 117.958C52.6058 118.194 52.286 118.326 51.9525 118.326Z" fill="url(#paint74_linear_1396_1113)"/>
<path d="M51.9525 118.326H24.6637C24.3302 118.326 24.0104 118.194 23.7746 117.958C23.5387 117.722 23.4063 117.402 23.4063 117.069C23.4062 116.735 23.5386 116.414 23.7742 116.177C24.0099 115.941 24.3297 115.807 24.6637 115.806H51.9525C52.2865 115.807 52.6063 115.941 52.842 116.177C53.0777 116.414 53.21 116.735 53.21 117.069C53.21 117.402 53.0775 117.722 52.8417 117.958C52.6058 118.194 52.286 118.326 51.9525 118.326Z" stroke="url(#paint75_linear_1396_1113)" stroke-width="0.537391" stroke-miterlimit="10"/>
<path d="M44.7407 123.189H24.6637C24.3302 123.189 24.0104 123.056 23.7746 122.821C23.5387 122.585 23.4062 122.265 23.4062 121.931C23.4062 121.598 23.5387 121.278 23.7746 121.042C24.0104 120.806 24.3302 120.674 24.6637 120.674H44.7407C45.0742 120.674 45.394 120.806 45.6299 121.042C45.8657 121.278 45.9982 121.598 45.9982 121.931C45.9982 122.265 45.8657 122.585 45.6299 122.821C45.394 123.056 45.0742 123.189 44.7407 123.189Z" fill="url(#paint76_linear_1396_1113)"/>
<path d="M44.7407 123.189H24.6637C24.3302 123.189 24.0104 123.056 23.7746 122.821C23.5387 122.585 23.4062 122.265 23.4062 121.931C23.4062 121.598 23.5387 121.278 23.7746 121.042C24.0104 120.806 24.3302 120.674 24.6637 120.674H44.7407C45.0742 120.674 45.394 120.806 45.6299 121.042C45.8657 121.278 45.9982 121.598 45.9982 121.931C45.9982 122.265 45.8657 122.585 45.6299 122.821C45.394 123.056 45.0742 123.189 44.7407 123.189Z" stroke="url(#paint77_linear_1396_1113)" stroke-width="0.537391" stroke-miterlimit="10"/>
<path d="M48.1909 134.409H24.6639C24.3304 134.409 24.0106 134.276 23.7747 134.04C23.5389 133.804 23.4064 133.485 23.4064 133.151C23.4036 132.984 23.434 132.818 23.4959 132.663C23.5578 132.508 23.65 132.367 23.7671 132.248C23.8841 132.129 24.0237 132.034 24.1777 131.97C24.3317 131.905 24.497 131.872 24.6639 131.872H48.1909C48.5244 131.872 48.8443 132.005 49.0801 132.24C49.3159 132.476 49.4484 132.796 49.4484 133.13C49.4513 133.297 49.4208 133.462 49.3589 133.617C49.297 133.772 49.2048 133.914 49.0878 134.033C48.9707 134.152 48.8311 134.246 48.6772 134.311C48.5232 134.375 48.3579 134.409 48.1909 134.409Z" fill="url(#paint78_linear_1396_1113)"/>
<path d="M48.1909 134.409H24.6639C24.3304 134.409 24.0106 134.276 23.7747 134.04C23.5389 133.804 23.4064 133.485 23.4064 133.151C23.4036 132.984 23.434 132.818 23.4959 132.663C23.5578 132.508 23.65 132.367 23.7671 132.248C23.8841 132.129 24.0237 132.034 24.1777 131.97C24.3317 131.905 24.497 131.872 24.6639 131.872H48.1909C48.5244 131.872 48.8443 132.005 49.0801 132.24C49.3159 132.476 49.4484 132.796 49.4484 133.13C49.4513 133.297 49.4208 133.462 49.3589 133.617C49.297 133.772 49.2048 133.914 49.0878 134.033C48.9707 134.152 48.8311 134.246 48.6772 134.311C48.5232 134.375 48.3579 134.409 48.1909 134.409Z" stroke="url(#paint79_linear_1396_1113)" stroke-width="0.537391" stroke-miterlimit="10"/>
<path d="M40.9789 139.277H24.6637C24.3297 139.276 24.0099 139.142 23.7742 138.905C23.5386 138.669 23.4062 138.348 23.4063 138.014C23.4063 137.681 23.5387 137.361 23.7746 137.125C24.0104 136.889 24.3302 136.757 24.6637 136.757H40.9789C41.3124 136.757 41.6323 136.889 41.8681 137.125C42.1039 137.361 42.2364 137.681 42.2364 138.014C42.2364 138.348 42.1041 138.669 41.8684 138.905C41.6328 139.142 41.3129 139.276 40.9789 139.277Z" fill="url(#paint80_linear_1396_1113)"/>
<path d="M40.9789 139.277H24.6637C24.3297 139.276 24.0099 139.142 23.7742 138.905C23.5386 138.669 23.4062 138.348 23.4063 138.014C23.4063 137.681 23.5387 137.361 23.7746 137.125C24.0104 136.889 24.3302 136.757 24.6637 136.757H40.9789C41.3124 136.757 41.6323 136.889 41.8681 137.125C42.1039 137.361 42.2364 137.681 42.2364 138.014C42.2364 138.348 42.1041 138.669 41.8684 138.905C41.6328 139.142 41.3129 139.276 40.9789 139.277Z" stroke="url(#paint81_linear_1396_1113)" stroke-width="0.537391" stroke-miterlimit="10"/>
<path d="M13.0072 108.802C15.9841 108.802 18.3973 106.388 18.3973 103.412C18.3973 100.435 15.9841 98.0215 13.0072 98.0215C10.0304 98.0215 7.61719 100.435 7.61719 103.412C7.61719 106.388 10.0304 108.802 13.0072 108.802Z" fill="url(#paint82_linear_1396_1113)"/>
<path d="M14.8281 101.864C14.8281 102.223 14.7216 102.575 14.522 102.873C14.3224 103.172 14.0387 103.405 13.7068 103.542C13.3749 103.68 13.0097 103.716 12.6573 103.646C12.305 103.576 11.9814 103.403 11.7273 103.149C11.4733 102.895 11.3003 102.571 11.2302 102.219C11.1601 101.866 11.1961 101.501 11.3336 101.169C11.4711 100.837 11.7039 100.554 12.0026 100.354C12.3013 100.154 12.6525 100.048 13.0117 100.048C13.4934 100.048 13.9554 100.239 14.2961 100.58C14.6367 100.921 14.8281 101.383 14.8281 101.864Z" fill="url(#paint83_linear_1396_1113)"/>
<path d="M13.0139 104.616C12.1919 104.616 11.3807 104.804 10.6428 105.167C9.90496 105.529 9.26009 106.056 8.75781 106.707C9.25983 107.358 9.90459 107.885 10.6425 108.248C11.3804 108.611 12.1917 108.8 13.0139 108.8C13.8362 108.8 14.6475 108.611 15.3854 108.248C16.1233 107.885 16.7681 107.358 17.2701 106.707C16.7678 106.056 16.1229 105.529 15.3851 105.167C14.6472 104.804 13.836 104.616 13.0139 104.616Z" fill="url(#paint84_linear_1396_1113)"/>
<path d="M13.0072 108.802C15.9841 108.802 18.3973 106.388 18.3973 103.412C18.3973 100.435 15.9841 98.0215 13.0072 98.0215C10.0304 98.0215 7.61719 100.435 7.61719 103.412C7.61719 106.388 10.0304 108.802 13.0072 108.802Z" stroke="url(#paint85_linear_1396_1113)" stroke-width="0.537391" stroke-miterlimit="10"/>
<path d="M18.3963 119.514C18.3963 120.576 18.0811 121.615 17.4906 122.499C16.9001 123.383 16.0608 124.072 15.0789 124.478C14.0969 124.885 13.0164 124.992 11.974 124.784C10.9315 124.577 9.97398 124.065 9.22242 123.313C8.47087 122.562 7.95905 121.604 7.7517 120.562C7.54434 119.52 7.65077 118.439 8.05751 117.457C8.46424 116.475 9.15304 115.636 10.0368 115.045C10.9205 114.455 11.9595 114.14 13.0224 114.14C14.4476 114.14 15.8145 114.706 16.8223 115.714C17.8301 116.721 18.3963 118.088 18.3963 119.514Z" fill="url(#paint86_linear_1396_1113)"/>
<path d="M14.8281 117.955C14.8281 118.314 14.7216 118.665 14.522 118.964C14.3224 119.263 14.0387 119.496 13.7068 119.633C13.3749 119.771 13.0097 119.807 12.6573 119.737C12.305 119.666 11.9814 119.493 11.7273 119.239C11.4733 118.985 11.3003 118.662 11.2302 118.309C11.1601 117.957 11.1961 117.592 11.3336 117.26C11.4711 116.928 11.7039 116.644 12.0026 116.445C12.3013 116.245 12.6525 116.139 13.0117 116.139C13.4934 116.139 13.9554 116.33 14.2961 116.671C14.6367 117.011 14.8281 117.473 14.8281 117.955Z" fill="url(#paint87_linear_1396_1113)"/>
<path d="M13.0139 120.7C12.1914 120.701 11.38 120.89 10.6421 121.253C9.90418 121.616 9.25954 122.144 8.75781 122.796C9.25983 123.447 9.90459 123.975 10.6425 124.337C11.3804 124.7 12.1917 124.889 13.0139 124.889C13.8362 124.889 14.6475 124.7 15.3854 124.337C16.1233 123.975 16.7681 123.447 17.2701 122.796C16.7684 122.144 16.1237 121.616 15.3858 121.253C14.6479 120.89 13.8365 120.701 13.0139 120.7Z" fill="url(#paint88_linear_1396_1113)"/>
<path d="M18.3963 119.514C18.3963 120.576 18.0811 121.615 17.4906 122.499C16.9001 123.383 16.0608 124.072 15.0789 124.478C14.0969 124.885 13.0164 124.992 11.974 124.784C10.9315 124.577 9.97398 124.065 9.22242 123.313C8.47087 122.562 7.95905 121.604 7.7517 120.562C7.54434 119.52 7.65077 118.439 8.05751 117.457C8.46424 116.475 9.15304 115.636 10.0368 115.045C10.9205 114.455 11.9595 114.14 13.0224 114.14C14.4476 114.14 15.8145 114.706 16.8223 115.714C17.8301 116.721 18.3963 118.088 18.3963 119.514Z" stroke="url(#paint89_linear_1396_1113)" stroke-width="0.537391" stroke-miterlimit="10"/>
<path d="M18.3963 135.586C18.3963 136.649 18.0811 137.688 17.4906 138.571C16.9001 139.455 16.0608 140.144 15.0789 140.551C14.0969 140.957 13.0164 141.064 11.974 140.856C10.9315 140.649 9.97398 140.137 9.22242 139.386C8.47087 138.634 7.95905 137.677 7.7517 136.634C7.54434 135.592 7.65077 134.511 8.05751 133.529C8.46424 132.547 9.15304 131.708 10.0368 131.118C10.9205 130.527 11.9595 130.212 13.0224 130.212C14.4476 130.212 15.8145 130.778 16.8223 131.786C17.8301 132.794 18.3963 134.161 18.3963 135.586Z" fill="url(#paint90_linear_1396_1113)"/>
<path d="M14.8281 134.022C14.8281 134.382 14.7216 134.733 14.522 135.032C14.3224 135.33 14.0387 135.563 13.7068 135.701C13.3749 135.838 13.0097 135.874 12.6573 135.804C12.305 135.734 11.9814 135.561 11.7273 135.307C11.4733 135.053 11.3003 134.729 11.2302 134.377C11.1601 134.024 11.1961 133.659 11.3336 133.327C11.4711 132.995 11.7039 132.712 12.0026 132.512C12.3013 132.313 12.6525 132.206 13.0117 132.206C13.4934 132.206 13.9554 132.397 14.2961 132.738C14.6367 133.079 14.8281 133.541 14.8281 134.022Z" fill="url(#paint91_linear_1396_1113)"/>
<path d="M13.0139 136.783C12.1914 136.784 11.38 136.973 10.6421 137.336C9.90418 137.699 9.25954 138.227 8.75781 138.879C9.25983 139.53 9.90459 140.058 10.6425 140.42C11.3804 140.783 12.1917 140.972 13.0139 140.972C13.8362 140.972 14.6475 140.783 15.3854 140.42C16.1233 140.058 16.7681 139.53 17.2701 138.879C16.7684 138.227 16.1237 137.699 15.3858 137.336C14.6479 136.973 13.8365 136.784 13.0139 136.783Z" fill="url(#paint92_linear_1396_1113)"/>
<path d="M18.3963 135.586C18.3963 136.649 18.0811 137.688 17.4906 138.571C16.9001 139.455 16.0608 140.144 15.0789 140.551C14.0969 140.957 13.0164 141.064 11.974 140.856C10.9315 140.649 9.97398 140.137 9.22242 139.386C8.47087 138.634 7.95905 137.677 7.7517 136.634C7.54434 135.592 7.65077 134.511 8.05751 133.529C8.46424 132.547 9.15304 131.708 10.0368 131.118C10.9205 130.527 11.9595 130.212 13.0224 130.212C14.4476 130.212 15.8145 130.778 16.8223 131.786C17.8301 132.794 18.3963 134.161 18.3963 135.586Z" stroke="url(#paint93_linear_1396_1113)" stroke-width="0.537391" stroke-miterlimit="10"/>
<path d="M18.3963 87.328C18.3963 88.3909 18.0811 89.4299 17.4906 90.3136C16.9001 91.1973 16.0608 91.8861 15.0789 92.2929C14.0969 92.6996 13.0164 92.806 11.974 92.5987C10.9315 92.3913 9.97398 91.8795 9.22242 91.1279C8.47087 90.3764 7.95905 89.4189 7.7517 88.3764C7.54434 87.334 7.65077 86.2535 8.05751 85.2715C8.46424 84.2896 9.15304 83.4503 10.0368 82.8598C10.9205 82.2693 11.9595 81.9541 13.0224 81.9541C14.4476 81.9541 15.8145 82.5203 16.8223 83.5281C17.8301 84.5359 18.3963 85.9028 18.3963 87.328Z" fill="url(#paint94_linear_1396_1113)"/>
<path d="M14.8281 85.7803C14.8281 86.1395 14.7216 86.4907 14.522 86.7894C14.3224 87.0881 14.0387 87.3209 13.7068 87.4584C13.3749 87.5958 13.0097 87.6318 12.6573 87.5617C12.305 87.4916 11.9814 87.3187 11.7273 87.0646C11.4733 86.8106 11.3003 86.4869 11.2302 86.1346C11.1601 85.7823 11.1961 85.417 11.3336 85.0851C11.4711 84.7532 11.7039 84.4696 12.0026 84.27C12.3013 84.0704 12.6525 83.9639 13.0117 83.9639C13.4934 83.9639 13.9554 84.1552 14.2961 84.4959C14.6367 84.8365 14.8281 85.2985 14.8281 85.7803Z" fill="url(#paint95_linear_1396_1113)"/>
<path d="M13.0139 88.5313C12.1919 88.5309 11.3807 88.7192 10.6428 89.0816C9.90496 89.4441 9.26009 89.9709 8.75781 90.6217C9.25983 91.2729 9.90459 91.8003 10.6425 92.1632C11.3804 92.526 12.1917 92.7147 13.0139 92.7147C13.8362 92.7147 14.6475 92.526 15.3854 92.1632C16.1233 91.8003 16.7681 91.2729 17.2701 90.6217C16.7678 89.9709 16.1229 89.4441 15.3851 89.0816C14.6472 88.7192 13.836 88.5309 13.0139 88.5313Z" fill="url(#paint96_linear_1396_1113)"/>
<path d="M18.3963 87.328C18.3963 88.3909 18.0811 89.4299 17.4906 90.3136C16.9001 91.1973 16.0608 91.8861 15.0789 92.2929C14.0969 92.6996 13.0164 92.806 11.974 92.5987C10.9315 92.3913 9.97398 91.8795 9.22242 91.1279C8.47087 90.3764 7.95905 89.4189 7.7517 88.3764C7.54434 87.334 7.65077 86.2535 8.05751 85.2715C8.46424 84.2896 9.15304 83.4503 10.0368 82.8598C10.9205 82.2693 11.9595 81.9541 13.0224 81.9541C14.4476 81.9541 15.8145 82.5203 16.8223 83.5281C17.8301 84.5359 18.3963 85.9028 18.3963 87.328Z" stroke="url(#paint97_linear_1396_1113)" stroke-width="0.537391" stroke-miterlimit="10"/>
<path d="M106.8 134.947H99.9053V123.307H72.579V134.947H65.6681C65.3417 134.947 65.0287 135.076 64.7979 135.307C64.5671 135.538 64.4375 135.851 64.4375 136.177C64.4375 136.504 64.5671 136.817 64.7979 137.047C65.0287 137.278 65.3417 137.408 65.6681 137.408H106.8C107.126 137.408 107.439 137.278 107.67 137.047C107.901 136.817 108.031 136.504 108.031 136.177C108.031 135.851 107.901 135.538 107.67 135.307C107.439 135.076 107.126 134.947 106.8 134.947Z" fill="url(#paint98_linear_1396_1113)"/>
<path d="M130.706 45.5029H41.7573C38.1958 45.5029 35.3086 48.3901 35.3086 51.9516V117.922C35.3086 121.483 38.1958 124.37 41.7573 124.37H130.706C134.268 124.37 137.155 121.483 137.155 117.922V51.9516C137.155 48.3901 134.268 45.5029 130.706 45.5029Z" fill="url(#paint99_linear_1396_1113)"/>
<path d="M130.706 45.5029H41.7573C38.1958 45.5029 35.3086 48.3901 35.3086 51.9516V117.922C35.3086 121.483 38.1958 124.37 41.7573 124.37H130.706C134.268 124.37 137.155 121.483 137.155 117.922V51.9516C137.155 48.3901 134.268 45.5029 130.706 45.5029Z" stroke="url(#paint100_linear_1396_1113)" stroke-width="1.07478" stroke-miterlimit="10"/>
<path d="M129.609 50.877H42.8415C41.6454 50.877 40.6758 51.8466 40.6758 53.0426V106.9C40.6758 108.096 41.6454 109.066 42.8415 109.066H129.609C130.805 109.066 131.774 108.096 131.774 106.9V53.0426C131.774 51.8466 130.805 50.877 129.609 50.877Z" fill="url(#paint101_linear_1396_1113)"/>
<path d="M129.609 50.877H42.8415C41.6454 50.877 40.6758 51.8466 40.6758 53.0426V106.9C40.6758 108.096 41.6454 109.066 42.8415 109.066H129.609C130.805 109.066 131.774 108.096 131.774 106.9V53.0426C131.774 51.8466 130.805 50.877 129.609 50.877Z" stroke="url(#paint102_linear_1396_1113)" stroke-width="0.537391" stroke-miterlimit="10"/>
<path d="M129.625 50.877H42.8253C42.2552 50.877 41.7085 51.1034 41.3054 51.5065C40.9023 51.9097 40.6758 52.4564 40.6758 53.0265V58.7336H131.774V53.0265C131.774 52.4564 131.548 51.9097 131.145 51.5065C130.742 51.1034 130.195 50.877 129.625 50.877Z" fill="url(#paint103_linear_1396_1113)"/>
<path d="M129.625 50.877H42.8253C42.2552 50.877 41.7085 51.1034 41.3054 51.5065C40.9023 51.9097 40.6758 52.4564 40.6758 53.0265V58.7336H131.774V53.0265C131.774 52.4564 131.548 51.9097 131.145 51.5065C130.742 51.1034 130.195 50.877 129.625 50.877Z" stroke="url(#paint104_linear_1396_1113)" stroke-width="0.537391" stroke-miterlimit="10"/>
<path d="M88.8142 116.508C88.8142 117.019 88.6626 117.519 88.3786 117.944C88.0946 118.369 87.6909 118.7 87.2186 118.896C86.7462 119.091 86.2265 119.143 85.7251 119.043C85.2237 118.943 84.7631 118.697 84.4016 118.335C84.0401 117.974 83.7939 117.513 83.6942 117.012C83.5945 116.511 83.6456 115.991 83.8413 115.519C84.0369 115.046 84.3682 114.643 84.7933 114.358C85.2184 114.074 85.7181 113.923 86.2294 113.923C86.9149 113.923 87.5724 114.195 88.0571 114.68C88.5419 115.165 88.8142 115.822 88.8142 116.508Z" fill="url(#paint105_linear_1396_1113)"/>
<path d="M45.8597 56.3786C46.7293 56.3786 47.4343 55.6736 47.4343 54.804C47.4343 53.9344 46.7293 53.2295 45.8597 53.2295C44.9901 53.2295 44.2852 53.9344 44.2852 54.804C44.2852 55.6736 44.9901 56.3786 45.8597 56.3786Z" fill="url(#paint106_radial_1396_1113)"/>
<path d="M51.1019 56.3786C51.9715 56.3786 52.6765 55.6736 52.6765 54.804C52.6765 53.9344 51.9715 53.2295 51.1019 53.2295C50.2323 53.2295 49.5273 53.9344 49.5273 54.804C49.5273 55.6736 50.2323 56.3786 51.1019 56.3786Z" fill="url(#paint107_radial_1396_1113)"/>
<path d="M57.9069 54.804C57.9069 55.1155 57.8146 55.4199 57.6416 55.6788C57.4686 55.9378 57.2226 56.1396 56.9349 56.2587C56.6472 56.3779 56.3306 56.4091 56.0252 56.3483C55.7198 56.2876 55.4392 56.1376 55.219 55.9174C54.9988 55.6972 54.8488 55.4167 54.7881 55.1112C54.7273 54.8058 54.7585 54.4892 54.8777 54.2015C54.9968 53.9138 55.1987 53.6679 55.4576 53.4949C55.7165 53.3218 56.0209 53.2295 56.3324 53.2295C56.75 53.2295 57.1505 53.3954 57.4458 53.6907C57.741 53.986 57.9069 54.3864 57.9069 54.804Z" fill="url(#paint108_radial_1396_1113)"/>
<path d="M124.267 64.1074H106.001C104.814 64.1074 103.852 65.0698 103.852 66.257V84.5229C103.852 85.7101 104.814 86.6725 106.001 86.6725H124.267C125.454 86.6725 126.417 85.7101 126.417 84.5229V66.257C126.417 65.0698 125.454 64.1074 124.267 64.1074Z" fill="url(#paint109_linear_1396_1113)"/>
<path d="M124.267 64.1074H106.001C104.814 64.1074 103.852 65.0698 103.852 66.257V84.5229C103.852 85.7101 104.814 86.6725 106.001 86.6725H124.267C125.454 86.6725 126.417 85.7101 126.417 84.5229V66.257C126.417 65.0698 125.454 64.1074 124.267 64.1074Z" stroke="url(#paint110_linear_1396_1113)" stroke-width="0.537391" stroke-miterlimit="10"/>
<path d="M121.698 76.9589C122.557 73.3408 120.32 69.7111 116.702 68.8518C113.084 67.9925 109.454 70.229 108.595 73.8471C107.736 77.4653 109.972 81.095 113.59 81.9543C117.209 82.8136 120.838 80.5771 121.698 76.9589Z" fill="url(#paint111_linear_1396_1113)"/>
<path d="M121.698 76.9589C122.557 73.3408 120.32 69.7111 116.702 68.8518C113.084 67.9925 109.454 70.229 108.595 73.8471C107.736 77.4653 109.972 81.095 113.59 81.9543C117.209 82.8136 120.838 80.5771 121.698 76.9589Z" stroke="url(#paint112_linear_1396_1113)" stroke-width="0.537391" stroke-miterlimit="10"/>
<path d="M110.852 80.5887C111.837 81.4011 113.033 81.9165 114.301 82.0746C115.568 82.2327 116.855 82.0271 118.01 81.4817C119.165 80.9364 120.141 80.0737 120.824 78.9945C121.507 77.9153 121.869 76.664 121.868 75.3867H115.226L110.852 80.5887Z" fill="url(#paint113_linear_1396_1113)"/>
<path d="M110.852 80.5887C111.837 81.4011 113.033 81.9165 114.301 82.0746C115.568 82.2327 116.855 82.0271 118.01 81.4817C119.165 80.9364 120.141 80.0737 120.824 78.9945C121.507 77.9153 121.869 76.664 121.868 75.3867H115.226L110.852 80.5887Z" stroke="url(#paint114_linear_1396_1113)" stroke-width="0.537391" stroke-miterlimit="10"/>
<path d="M115.223 68.6592V75.3873H121.865C121.864 73.6181 121.166 71.9205 119.923 70.6615C118.68 69.4025 116.992 68.6832 115.223 68.6592Z" fill="url(#paint115_linear_1396_1113)"/>
<path d="M115.223 68.6592V75.3873H121.865C121.864 73.6181 121.166 71.9205 119.923 70.6615C118.68 69.4025 116.992 68.6832 115.223 68.6592Z" stroke="url(#paint116_linear_1396_1113)" stroke-width="0.537391" stroke-miterlimit="10"/>
<path d="M125.342 99.6396H104.926C104.333 99.6396 103.852 100.121 103.852 100.714V102.617C103.852 103.21 104.333 103.692 104.926 103.692H125.342C125.935 103.692 126.417 103.21 126.417 102.617V100.714C126.417 100.121 125.935 99.6396 125.342 99.6396Z" fill="url(#paint117_linear_1396_1113)"/>
<path d="M125.342 99.6396H104.926C104.333 99.6396 103.852 100.121 103.852 100.714V102.617C103.852 103.21 104.333 103.692 104.926 103.692H125.342C125.935 103.692 126.417 103.21 126.417 102.617V100.714C126.417 100.121 125.935 99.6396 125.342 99.6396Z" stroke="url(#paint118_linear_1396_1113)" stroke-width="0.537391" stroke-miterlimit="10"/>
<path d="M125.342 91.7939H104.926C104.333 91.7939 103.852 92.2751 103.852 92.8687V94.7711C103.852 95.3647 104.333 95.8459 104.926 95.8459H125.342C125.935 95.8459 126.417 95.3647 126.417 94.7711V92.8687C126.417 92.2751 125.935 91.7939 125.342 91.7939Z" fill="url(#paint119_linear_1396_1113)"/>
<path d="M125.342 91.7939H104.926C104.333 91.7939 103.852 92.2751 103.852 92.8687V94.7711C103.852 95.3647 104.333 95.8459 104.926 95.8459H125.342C125.935 95.8459 126.417 95.3647 126.417 94.7711V92.8687C126.417 92.2751 125.935 91.7939 125.342 91.7939Z" stroke="url(#paint120_linear_1396_1113)" stroke-width="0.537391" stroke-miterlimit="10"/>
<path d="M96.3184 64.1074H48.2003C47.0132 64.1074 46.0508 65.0698 46.0508 66.257V101.542C46.0508 102.729 47.0132 103.692 48.2003 103.692H96.3184C97.5055 103.692 98.4679 102.729 98.4679 101.542V66.257C98.4679 65.0698 97.5055 64.1074 96.3184 64.1074Z" fill="url(#paint121_linear_1396_1113)"/>
<path d="M90.837 81.8967L79.3529 79.9298L71.0717 91.9835L57.6369 87.3942L46.0508 95.5357V101.544C46.0508 102.114 46.2773 102.661 46.6804 103.064C47.0835 103.467 47.6302 103.693 48.2003 103.693H96.3184C96.8885 103.693 97.4352 103.467 97.8383 103.064C98.2414 102.661 98.4679 102.114 98.4679 101.544V72.2236L90.837 81.8967Z" fill="url(#paint122_linear_1396_1113)"/>
<path d="M96.3184 64.1074H48.2003C47.0132 64.1074 46.0508 65.0698 46.0508 66.257V101.542C46.0508 102.729 47.0132 103.692 48.2003 103.692H96.3184C97.5055 103.692 98.4679 102.729 98.4679 101.542V66.257C98.4679 65.0698 97.5055 64.1074 96.3184 64.1074Z" stroke="url(#paint123_linear_1396_1113)" stroke-width="0.537391" stroke-miterlimit="10"/>
<path d="M90.837 81.8967L79.3529 79.9298L71.0717 91.9835L57.6369 87.3942L46.0508 95.5357V101.544C46.0508 102.114 46.2773 102.661 46.6804 103.064C47.0835 103.467 47.6302 103.693 48.2003 103.693H96.3184C96.8885 103.693 97.4352 103.467 97.8383 103.064C98.2414 102.661 98.4679 102.114 98.4679 101.544V72.2236L90.837 81.8967Z" stroke="url(#paint124_linear_1396_1113)" stroke-width="0.537391" stroke-miterlimit="10"/>
<path d="M160.332 21.8086H106.082C103.633 21.8086 101.648 23.7935 101.648 26.2421V50.3709C101.648 52.8195 103.633 54.8044 106.082 54.8044H160.332C162.78 54.8044 164.765 52.8195 164.765 50.3709V26.2421C164.765 23.7935 162.78 21.8086 160.332 21.8086Z" fill="url(#paint125_linear_1396_1113)"/>
<path d="M160.332 21.8086H106.082C103.633 21.8086 101.648 23.7935 101.648 26.2421V50.3709C101.648 52.8195 103.633 54.8044 106.082 54.8044H160.332C162.78 54.8044 164.765 52.8195 164.765 50.3709V26.2421C164.765 23.7935 162.78 21.8086 160.332 21.8086Z" stroke="url(#paint126_linear_1396_1113)" stroke-width="0.537391" stroke-miterlimit="10"/>
<path d="M157.239 30.4463H123.899C123.305 30.4463 122.824 30.9275 122.824 31.5211V33.4234C122.824 34.017 123.305 34.4982 123.899 34.4982H157.239C157.832 34.4982 158.314 34.017 158.314 33.4234V31.5211C158.314 30.9275 157.832 30.4463 157.239 30.4463Z" fill="url(#paint127_linear_1396_1113)"/>
<path d="M157.239 30.4463H123.899C123.305 30.4463 122.824 30.9275 122.824 31.5211V33.4234C122.824 34.017 123.305 34.4982 123.899 34.4982H157.239C157.832 34.4982 158.314 34.017 158.314 33.4234V31.5211C158.314 30.9275 157.832 30.4463 157.239 30.4463Z" stroke="url(#paint128_linear_1396_1113)" stroke-width="0.537391" stroke-miterlimit="10"/>
<path d="M157.239 42.1182H123.899C123.305 42.1182 122.824 42.5994 122.824 43.1929V45.0953C122.824 45.6889 123.305 46.1701 123.899 46.1701H157.239C157.832 46.1701 158.314 45.6889 158.314 45.0953V43.1929C158.314 42.5994 157.832 42.1182 157.239 42.1182Z" fill="url(#paint129_linear_1396_1113)"/>
<path d="M157.239 42.1182H123.899C123.305 42.1182 122.824 42.5994 122.824 43.1929V45.0953C122.824 45.6889 123.305 46.1701 123.899 46.1701H157.239C157.832 46.1701 158.314 45.6889 158.314 45.0953V43.1929C158.314 42.5994 157.832 42.1182 157.239 42.1182Z" stroke="url(#paint130_linear_1396_1113)" stroke-width="0.537391" stroke-miterlimit="10"/>
<path d="M114.38 28.2559H110.247C109.06 28.2559 108.098 29.2183 108.098 30.4054V34.538C108.098 35.7251 109.06 36.6875 110.247 36.6875H114.38C115.567 36.6875 116.529 35.7251 116.529 34.538V30.4054C116.529 29.2183 115.567 28.2559 114.38 28.2559Z" fill="url(#paint131_linear_1396_1113)"/>
<path d="M114.38 28.2559H110.247C109.06 28.2559 108.098 29.2183 108.098 30.4054V34.538C108.098 35.7251 109.06 36.6875 110.247 36.6875H114.38C115.567 36.6875 116.529 35.7251 116.529 34.538V30.4054C116.529 29.2183 115.567 28.2559 114.38 28.2559Z" stroke="url(#paint132_linear_1396_1113)" stroke-width="0.537391" stroke-miterlimit="10"/>
<path d="M110.012 32.2345L112.032 33.9488L114.612 30.9932" stroke="url(#paint133_linear_1396_1113)" stroke-width="1.07478" stroke-linecap="round" stroke-linejoin="round"/>
<path d="M114.38 39.9248H110.247C109.06 39.9248 108.098 40.8872 108.098 42.0744V46.2069C108.098 47.3941 109.06 48.3565 110.247 48.3565H114.38C115.567 48.3565 116.529 47.3941 116.529 46.2069V42.0744C116.529 40.8872 115.567 39.9248 114.38 39.9248Z" fill="url(#paint134_linear_1396_1113)"/>
<path d="M114.38 39.9248H110.247C109.06 39.9248 108.098 40.8872 108.098 42.0744V46.2069C108.098 47.3941 109.06 48.3565 110.247 48.3565H114.38C115.567 48.3565 116.529 47.3941 116.529 46.2069V42.0744C116.529 40.8872 115.567 39.9248 114.38 39.9248Z" stroke="url(#paint135_linear_1396_1113)" stroke-width="0.537391" stroke-miterlimit="10"/>
<path d="M110.012 43.9059L112.032 45.6202L114.612 42.6592" stroke="url(#paint136_linear_1396_1113)" stroke-width="1.07478" stroke-linecap="round" stroke-linejoin="round"/>
<path d="M32.2092 59.8852C42.2141 59.8852 50.3247 51.7746 50.3247 41.7698C50.3247 31.7649 42.2141 23.6543 32.2092 23.6543C22.2043 23.6543 14.0938 31.7649 14.0938 41.7698C14.0938 51.7746 22.2043 59.8852 32.2092 59.8852Z" fill="url(#paint137_linear_1396_1113)"/>
<path d="M32.2092 59.8852C42.2141 59.8852 50.3247 51.7746 50.3247 41.7698C50.3247 31.7649 42.2141 23.6543 32.2092 23.6543C22.2043 23.6543 14.0938 31.7649 14.0938 41.7698C14.0938 51.7746 22.2043 59.8852 32.2092 59.8852Z" stroke="url(#paint138_linear_1396_1113)" stroke-width="1.07478" stroke-miterlimit="10"/>
<path d="M46.3239 41.7672C46.2518 38.0729 44.7336 34.5542 42.0954 31.9671C39.4573 29.3799 35.9097 27.9307 32.2147 27.9307C28.5197 27.9307 24.972 29.3799 22.3339 31.9671C19.6958 34.5542 18.1776 38.0729 18.1055 41.7672H24.5542C24.607 39.7706 25.4373 37.8736 26.8682 36.4801C28.299 35.0867 30.2174 34.3069 32.2147 34.3069C34.2119 34.3069 36.1303 35.0867 37.5612 36.4801C38.992 37.8736 39.8223 39.7706 39.8752 41.7672H46.3239Z" fill="url(#paint139_linear_1396_1113)"/>
<path d="M24.5542 41.7676H18.1055C18.1054 43.7805 18.5371 45.77 19.3714 47.6018C20.2058 49.4337 21.4234 51.0652 22.942 52.3864L27.1874 47.5499C26.3586 46.8321 25.6943 45.9439 25.2399 44.9461C24.7854 43.9482 24.5516 42.864 24.5542 41.7676Z" fill="url(#paint140_linear_1396_1113)"/>
<path d="M39.8778 41.7686C39.878 42.861 39.6435 43.9407 39.1901 44.9346C38.7367 45.9285 38.0751 46.8134 37.25 47.5294L41.49 52.3659C43.0092 51.0452 44.2272 49.4137 45.0615 47.5818C45.8959 45.7498 46.3273 43.7601 46.3265 41.7471H39.8778V41.7686Z" fill="url(#paint141_linear_1396_1113)"/>
<path d="M39.4013 29.6338L35.8867 35.0453C37.0937 35.7052 38.1011 36.6773 38.8036 37.86C39.506 39.0427 39.8776 40.3925 39.8795 41.7681H46.3282C46.3267 39.3181 45.6872 36.9108 44.4726 34.7831C43.258 32.6554 41.5102 30.8807 39.4013 29.6338Z" fill="url(#paint142_linear_1396_1113)"/>
<path d="M41.9624 31.5895C39.3361 29.063 35.8315 27.6546 32.1872 27.6612C28.5504 27.6602 25.0546 29.0681 22.4336 31.5895L26.8939 36.2433C28.3159 34.8739 30.2132 34.1089 32.1872 34.1089C34.1613 34.1089 36.0586 34.8739 37.4805 36.2433L41.9624 31.5895Z" fill="url(#paint143_linear_1396_1113)"/>
<path d="M35.2747 41.7697C35.2758 42.3757 35.097 42.9685 34.7611 43.4729C34.4251 43.9773 33.9471 44.3708 33.3875 44.6035C32.8279 44.8361 32.2118 44.8976 31.6173 44.78C31.0227 44.6624 30.4764 44.3711 30.0475 43.9429C29.6186 43.5147 29.3263 42.9689 29.2077 42.3746C29.0891 41.7803 29.1494 41.1641 29.3811 40.6041C29.6128 40.0441 30.0054 39.5653 30.5092 39.2285C31.0131 38.8917 31.6055 38.7119 32.2116 38.7119C33.023 38.7119 33.8013 39.0339 34.3756 39.6072C34.9499 40.1805 35.2733 40.9582 35.2747 41.7697Z" fill="url(#paint144_linear_1396_1113)"/>
<path d="M137.608 141.798C147.613 141.798 155.723 133.688 155.723 123.683C155.723 113.678 147.613 105.567 137.608 105.567C127.603 105.567 119.492 113.678 119.492 123.683C119.492 133.688 127.603 141.798 137.608 141.798Z" fill="url(#paint145_linear_1396_1113)"/>
<path d="M137.602 137.429C145.194 137.429 151.348 131.275 151.348 123.683C151.348 116.091 145.194 109.937 137.602 109.937C130.01 109.937 123.855 116.091 123.855 123.683C123.855 131.275 130.01 137.429 137.602 137.429Z" fill="url(#paint146_linear_1396_1113)"/>
<path d="M137.608 133.061C142.787 133.061 146.985 128.862 146.985 123.683C146.985 118.504 142.787 114.306 137.608 114.306C132.429 114.306 128.23 118.504 128.23 123.683C128.23 128.862 132.429 133.061 137.608 133.061Z" fill="url(#paint147_linear_1396_1113)"/>
<path d="M137.606 128.692C140.372 128.692 142.615 126.449 142.615 123.683C142.615 120.917 140.372 118.675 137.606 118.675C134.84 118.675 132.598 120.917 132.598 123.683C132.598 126.449 134.84 128.692 137.606 128.692Z" fill="url(#paint148_linear_1396_1113)"/>
<path d="M137.608 141.798C147.613 141.798 155.723 133.688 155.723 123.683C155.723 113.678 147.613 105.567 137.608 105.567C127.603 105.567 119.492 113.678 119.492 123.683C119.492 133.688 127.603 141.798 137.608 141.798Z" stroke="url(#paint149_linear_1396_1113)" stroke-width="1.07478" stroke-miterlimit="10"/>
<path d="M139.051 123.687C139.05 123.973 138.965 124.252 138.805 124.489C138.646 124.726 138.419 124.91 138.155 125.019C137.891 125.128 137.6 125.155 137.32 125.099C137.04 125.043 136.783 124.905 136.582 124.702C136.38 124.5 136.243 124.242 136.188 123.962C136.132 123.682 136.161 123.391 136.271 123.127C136.38 122.864 136.566 122.638 136.803 122.48C137.041 122.321 137.32 122.236 137.606 122.236C137.796 122.236 137.984 122.274 138.16 122.347C138.336 122.42 138.496 122.527 138.63 122.662C138.764 122.796 138.87 122.956 138.943 123.132C139.015 123.308 139.052 123.497 139.051 123.687Z" fill="url(#paint150_linear_1396_1113)"/>
<path d="M134.925 126.369L117.492 143.807" stroke="url(#paint151_linear_1396_1113)" stroke-width="1.07478" stroke-linecap="round" stroke-linejoin="round"/>
<path d="M137.61 123.684L133.375 124.823L136.476 127.924L137.61 123.684Z" fill="url(#paint152_linear_1396_1113)"/>
<path d="M58.472 28.7945C58.7866 28.7945 59.0416 28.5395 59.0416 28.2249C59.0416 27.9103 58.7866 27.6553 58.472 27.6553C58.1574 27.6553 57.9023 27.9103 57.9023 28.2249C57.9023 28.5395 58.1574 28.7945 58.472 28.7945Z" fill="url(#paint153_linear_1396_1113)"/>
<path d="M35.2721 155.249C35.2721 155.362 35.2387 155.472 35.1761 155.566C35.1135 155.659 35.0245 155.732 34.9204 155.776C34.8163 155.819 34.7018 155.83 34.5913 155.808C34.4808 155.786 34.3793 155.732 34.2997 155.652C34.22 155.572 34.1657 155.471 34.1438 155.36C34.1218 155.25 34.1331 155.135 34.1762 155.031C34.2193 154.927 34.2923 154.838 34.386 154.776C34.4796 154.713 34.5898 154.68 34.7024 154.68C34.8531 154.681 34.9972 154.742 35.1037 154.848C35.2102 154.955 35.2707 155.099 35.2721 155.249Z" fill="url(#paint154_linear_1396_1113)"/>
<path d="M172.848 60.663C172.834 60.8038 172.768 60.9345 172.663 61.0296C172.559 61.1247 172.422 61.1774 172.281 61.1774C172.139 61.1774 172.003 61.1247 171.898 61.0296C171.793 60.9345 171.727 60.8038 171.714 60.663C171.706 60.5839 171.715 60.5041 171.74 60.4286C171.765 60.3532 171.805 60.2838 171.859 60.225C171.912 60.1661 171.977 60.1191 172.05 60.0869C172.123 60.0547 172.201 60.0381 172.281 60.0381C172.36 60.0381 172.439 60.0547 172.511 60.0869C172.584 60.1191 172.649 60.1661 172.702 60.225C172.756 60.2838 172.796 60.3532 172.821 60.4286C172.846 60.5041 172.855 60.5839 172.848 60.663Z" fill="url(#paint155_linear_1396_1113)"/>
<path d="M3.76515 61.7979C4.29344 61.7979 4.72171 61.3696 4.72171 60.8413C4.72171 60.313 4.29344 59.8848 3.76515 59.8848C3.23686 59.8848 2.80859 60.313 2.80859 60.8413C2.80859 61.3696 3.23686 61.7979 3.76515 61.7979Z" fill="url(#paint156_linear_1396_1113)"/>
<path d="M163.015 142.884C163.543 142.884 163.972 142.456 163.972 141.927C163.972 141.399 163.543 140.971 163.015 140.971C162.487 140.971 162.059 141.399 162.059 141.927C162.059 142.456 162.487 142.884 163.015 142.884Z" fill="url(#paint157_linear_1396_1113)"/>
<path d="M154.089 82.3625C154.68 82.3625 155.158 81.8837 155.158 81.293C155.158 80.7024 154.68 80.2236 154.089 80.2236C153.498 80.2236 153.02 80.7024 153.02 81.293C153.02 81.8837 153.498 82.3625 154.089 82.3625Z" stroke="url(#paint158_linear_1396_1113)" stroke-width="0.537391" stroke-miterlimit="10"/>
<path d="M90.8375 150.482C91.9386 150.482 92.8312 149.589 92.8312 148.488C92.8312 147.387 91.9386 146.494 90.8375 146.494C89.7364 146.494 88.8438 147.387 88.8438 148.488C88.8438 149.589 89.7364 150.482 90.8375 150.482Z" stroke="url(#paint159_linear_1396_1113)" stroke-width="1.07478" stroke-miterlimit="10"/>
<defs>
<linearGradient id="paint0_linear_1396_1113" x1="-nan" y1="-nan" x2="-nan" y2="-nan" gradientUnits="userSpaceOnUse">
<stop stop-color="white"/>
<stop offset="1" stop-color="#F0F0F0"/>
</linearGradient>
<linearGradient id="paint1_linear_1396_1113" x1="-nan" y1="-nan" x2="-nan" y2="-nan" gradientUnits="userSpaceOnUse">
<stop stop-color="white"/>
<stop offset="1" stop-color="#F0F0F0"/>
</linearGradient>
<linearGradient id="paint2_linear_1396_1113" x1="-nan" y1="-nan" x2="-nan" y2="-nan" gradientUnits="userSpaceOnUse">
<stop stop-color="white"/>
<stop offset="1" stop-color="#F0F0F0"/>
</linearGradient>
<linearGradient id="paint3_linear_1396_1113" x1="-nan" y1="-nan" x2="-nan" y2="-nan" gradientUnits="userSpaceOnUse">
<stop stop-color="white"/>
<stop offset="1" stop-color="#F0F0F0"/>
</linearGradient>
<linearGradient id="paint4_linear_1396_1113" x1="-nan" y1="-nan" x2="-nan" y2="-nan" gradientUnits="userSpaceOnUse">
<stop stop-color="white"/>
<stop offset="1" stop-color="#F0F0F0"/>
</linearGradient>
<linearGradient id="paint5_linear_1396_1113" x1="-nan" y1="-nan" x2="-nan" y2="-nan" gradientUnits="userSpaceOnUse">
<stop stop-color="white"/>
<stop offset="1" stop-color="#F0F0F0"/>
</linearGradient>
<linearGradient id="paint6_linear_1396_1113" x1="-nan" y1="-nan" x2="-nan" y2="-nan" gradientUnits="userSpaceOnUse">
<stop stop-color="white"/>
<stop offset="1" stop-color="#F0F0F0"/>
</linearGradient>
<linearGradient id="paint7_linear_1396_1113" x1="-nan" y1="-nan" x2="-nan" y2="-nan" gradientUnits="userSpaceOnUse">
<stop stop-color="white"/>
<stop offset="1" stop-color="#F0F0F0"/>
</linearGradient>
<linearGradient id="paint8_linear_1396_1113" x1="-nan" y1="-nan" x2="-nan" y2="-nan" gradientUnits="userSpaceOnUse">
<stop stop-color="white"/>
<stop offset="1" stop-color="#F0F0F0"/>
</linearGradient>
<linearGradient id="paint9_linear_1396_1113" x1="-nan" y1="-nan" x2="-nan" y2="-nan" gradientUnits="userSpaceOnUse">
<stop stop-color="white"/>
<stop offset="1" stop-color="#F0F0F0"/>
</linearGradient>
<linearGradient id="paint10_linear_1396_1113" x1="-nan" y1="-nan" x2="-nan" y2="-nan" gradientUnits="userSpaceOnUse">
<stop stop-color="white"/>
<stop offset="1" stop-color="#F0F0F0"/>
</linearGradient>
<linearGradient id="paint11_linear_1396_1113" x1="-nan" y1="-nan" x2="-nan" y2="-nan" gradientUnits="userSpaceOnUse">
<stop stop-color="white"/>
<stop offset="1" stop-color="#F0F0F0"/>
</linearGradient>
<linearGradient id="paint12_linear_1396_1113" x1="-nan" y1="-nan" x2="-nan" y2="-nan" gradientUnits="userSpaceOnUse">
<stop stop-color="white"/>
<stop offset="1" stop-color="#F0F0F0"/>
</linearGradient>
<linearGradient id="paint13_linear_1396_1113" x1="-nan" y1="-nan" x2="-nan" y2="-nan" gradientUnits="userSpaceOnUse">
<stop stop-color="white"/>
<stop offset="1" stop-color="#F0F0F0"/>
</linearGradient>
<linearGradient id="paint14_linear_1396_1113" x1="-nan" y1="-nan" x2="-nan" y2="-nan" gradientUnits="userSpaceOnUse">
<stop stop-color="white"/>
<stop offset="1" stop-color="#F0F0F0"/>
</linearGradient>
<linearGradient id="paint15_linear_1396_1113" x1="-nan" y1="-nan" x2="-nan" y2="-nan" gradientUnits="userSpaceOnUse">
<stop stop-color="white"/>
<stop offset="1" stop-color="#F0F0F0"/>
</linearGradient>
<linearGradient id="paint16_linear_1396_1113" x1="-nan" y1="-nan" x2="-nan" y2="-nan" gradientUnits="userSpaceOnUse">
<stop stop-color="white"/>
<stop offset="1" stop-color="#F0F0F0"/>
</linearGradient>
<linearGradient id="paint17_linear_1396_1113" x1="-nan" y1="-nan" x2="-nan" y2="-nan" gradientUnits="userSpaceOnUse">
<stop stop-color="white"/>
<stop offset="1" stop-color="#F0F0F0"/>
</linearGradient>
<linearGradient id="paint18_linear_1396_1113" x1="-nan" y1="-nan" x2="-nan" y2="-nan" gradientUnits="userSpaceOnUse">
<stop stop-color="white"/>
<stop offset="1" stop-color="#F0F0F0"/>
</linearGradient>
<linearGradient id="paint19_linear_1396_1113" x1="-nan" y1="-nan" x2="-nan" y2="-nan" gradientUnits="userSpaceOnUse">
<stop stop-color="white"/>
<stop offset="1" stop-color="#F0F0F0"/>
</linearGradient>
<linearGradient id="paint20_linear_1396_1113" x1="-nan" y1="-nan" x2="-nan" y2="-nan" gradientUnits="userSpaceOnUse">
<stop stop-color="white"/>
<stop offset="1" stop-color="#F0F0F0"/>
</linearGradient>
<linearGradient id="paint21_linear_1396_1113" x1="-nan" y1="-nan" x2="-nan" y2="-nan" gradientUnits="userSpaceOnUse">
<stop stop-color="white"/>
<stop offset="1" stop-color="#F0F0F0"/>
</linearGradient>
<linearGradient id="paint22_linear_1396_1113" x1="-nan" y1="-nan" x2="-nan" y2="-nan" gradientUnits="userSpaceOnUse">
<stop stop-color="white"/>
<stop offset="1" stop-color="#F0F0F0"/>
</linearGradient>
<linearGradient id="paint23_linear_1396_1113" x1="-nan" y1="-nan" x2="-nan" y2="-nan" gradientUnits="userSpaceOnUse">
<stop stop-color="white"/>
<stop offset="1" stop-color="#F0F0F0"/>
</linearGradient>
<linearGradient id="paint24_linear_1396_1113" x1="-nan" y1="-nan" x2="-nan" y2="-nan" gradientUnits="userSpaceOnUse">
<stop stop-color="white"/>
<stop offset="1" stop-color="#F0F0F0"/>
</linearGradient>
<linearGradient id="paint25_linear_1396_1113" x1="-nan" y1="-nan" x2="-nan" y2="-nan" gradientUnits="userSpaceOnUse">
<stop stop-color="white"/>
<stop offset="1" stop-color="#F0F0F0"/>
</linearGradient>
<linearGradient id="paint26_linear_1396_1113" x1="-nan" y1="-nan" x2="-nan" y2="-nan" gradientUnits="userSpaceOnUse">
<stop stop-color="white"/>
<stop offset="1" stop-color="#F0F0F0"/>
</linearGradient>
<linearGradient id="paint27_linear_1396_1113" x1="-nan" y1="-nan" x2="-nan" y2="-nan" gradientUnits="userSpaceOnUse">
<stop stop-color="white"/>
<stop offset="1" stop-color="#F0F0F0"/>
</linearGradient>
<linearGradient id="paint28_linear_1396_1113" x1="-nan" y1="-nan" x2="-nan" y2="-nan" gradientUnits="userSpaceOnUse">
<stop stop-color="white"/>
<stop offset="1" stop-color="#F0F0F0"/>
</linearGradient>
<linearGradient id="paint29_linear_1396_1113" x1="-nan" y1="-nan" x2="-nan" y2="-nan" gradientUnits="userSpaceOnUse">
<stop stop-color="white"/>
<stop offset="1" stop-color="#F0F0F0"/>
</linearGradient>
<linearGradient id="paint30_linear_1396_1113" x1="-nan" y1="-nan" x2="-nan" y2="-nan" gradientUnits="userSpaceOnUse">
<stop stop-color="white"/>
<stop offset="1" stop-color="#F0F0F0"/>
</linearGradient>
<linearGradient id="paint31_linear_1396_1113" x1="-nan" y1="-nan" x2="-nan" y2="-nan" gradientUnits="userSpaceOnUse">
<stop stop-color="white"/>
<stop offset="1" stop-color="#F0F0F0"/>
</linearGradient>
<linearGradient id="paint32_linear_1396_1113" x1="-nan" y1="-nan" x2="-nan" y2="-nan" gradientUnits="userSpaceOnUse">
<stop stop-color="white"/>
<stop offset="1" stop-color="#F0F0F0"/>
</linearGradient>
<linearGradient id="paint33_linear_1396_1113" x1="-nan" y1="-nan" x2="-nan" y2="-nan" gradientUnits="userSpaceOnUse">
<stop stop-color="white"/>
<stop offset="1" stop-color="#F0F0F0"/>
</linearGradient>
<linearGradient id="paint34_linear_1396_1113" x1="-nan" y1="-nan" x2="-nan" y2="-nan" gradientUnits="userSpaceOnUse">
<stop stop-color="white"/>
<stop offset="1" stop-color="#F0F0F0"/>
</linearGradient>
<linearGradient id="paint35_linear_1396_1113" x1="-nan" y1="-nan" x2="-nan" y2="-nan" gradientUnits="userSpaceOnUse">
<stop stop-color="white"/>
<stop offset="1" stop-color="#F0F0F0"/>
</linearGradient>
<linearGradient id="paint36_linear_1396_1113" x1="-nan" y1="-nan" x2="-nan" y2="-nan" gradientUnits="userSpaceOnUse">
<stop stop-color="white"/>
<stop offset="1" stop-color="#F0F0F0"/>
</linearGradient>
<linearGradient id="paint37_linear_1396_1113" x1="-nan" y1="-nan" x2="-nan" y2="-nan" gradientUnits="userSpaceOnUse">
<stop stop-color="white"/>
<stop offset="1" stop-color="#F0F0F0"/>
</linearGradient>
<linearGradient id="paint38_linear_1396_1113" x1="-nan" y1="-nan" x2="-nan" y2="-nan" gradientUnits="userSpaceOnUse">
<stop stop-color="white"/>
<stop offset="1" stop-color="#F0F0F0"/>
</linearGradient>
<linearGradient id="paint39_linear_1396_1113" x1="-nan" y1="-nan" x2="-nan" y2="-nan" gradientUnits="userSpaceOnUse">
<stop stop-color="white"/>
<stop offset="1" stop-color="#F0F0F0"/>
</linearGradient>
<linearGradient id="paint40_linear_1396_1113" x1="-nan" y1="-nan" x2="-nan" y2="-nan" gradientUnits="userSpaceOnUse">
<stop stop-color="white"/>
<stop offset="1" stop-color="#F0F0F0"/>
</linearGradient>
<linearGradient id="paint41_linear_1396_1113" x1="-nan" y1="-nan" x2="-nan" y2="-nan" gradientUnits="userSpaceOnUse">
<stop stop-color="white"/>
<stop offset="1" stop-color="#F0F0F0"/>
</linearGradient>
<linearGradient id="paint42_linear_1396_1113" x1="-nan" y1="-nan" x2="-nan" y2="-nan" gradientUnits="userSpaceOnUse">
<stop stop-color="white"/>
<stop offset="1" stop-color="#F0F0F0"/>
</linearGradient>
<linearGradient id="paint43_linear_1396_1113" x1="-nan" y1="-nan" x2="-nan" y2="-nan" gradientUnits="userSpaceOnUse">
<stop stop-color="white"/>
<stop offset="1" stop-color="#F0F0F0"/>
</linearGradient>
<linearGradient id="paint44_linear_1396_1113" x1="-nan" y1="-nan" x2="-nan" y2="-nan" gradientUnits="userSpaceOnUse">
<stop stop-color="white"/>
<stop offset="1" stop-color="#F0F0F0"/>
</linearGradient>
<linearGradient id="paint45_linear_1396_1113" x1="-nan" y1="-nan" x2="-nan" y2="-nan" gradientUnits="userSpaceOnUse">
<stop stop-color="white"/>
<stop offset="1" stop-color="#F0F0F0"/>
</linearGradient>
<linearGradient id="paint46_linear_1396_1113" x1="-nan" y1="-nan" x2="-nan" y2="-nan" gradientUnits="userSpaceOnUse">
<stop stop-color="white"/>
<stop offset="1" stop-color="#F0F0F0"/>
</linearGradient>
<linearGradient id="paint47_linear_1396_1113" x1="-nan" y1="-nan" x2="-nan" y2="-nan" gradientUnits="userSpaceOnUse">
<stop stop-color="white"/>
<stop offset="1" stop-color="#F0F0F0"/>
</linearGradient>
<linearGradient id="paint48_linear_1396_1113" x1="-nan" y1="-nan" x2="-nan" y2="-nan" gradientUnits="userSpaceOnUse">
<stop stop-color="white"/>
<stop offset="1" stop-color="#F0F0F0"/>
</linearGradient>
<linearGradient id="paint49_linear_1396_1113" x1="-nan" y1="-nan" x2="-nan" y2="-nan" gradientUnits="userSpaceOnUse">
<stop stop-color="white"/>
<stop offset="1" stop-color="#F0F0F0"/>
</linearGradient>
<linearGradient id="paint50_linear_1396_1113" x1="-nan" y1="-nan" x2="-nan" y2="-nan" gradientUnits="userSpaceOnUse">
<stop stop-color="white"/>
<stop offset="1" stop-color="#F0F0F0"/>
</linearGradient>
<linearGradient id="paint51_linear_1396_1113" x1="-nan" y1="-nan" x2="-nan" y2="-nan" gradientUnits="userSpaceOnUse">
<stop stop-color="white"/>
<stop offset="1" stop-color="#F0F0F0"/>
</linearGradient>
<linearGradient id="paint52_linear_1396_1113" x1="-nan" y1="-nan" x2="-nan" y2="-nan" gradientUnits="userSpaceOnUse">
<stop stop-color="white"/>
<stop offset="1" stop-color="#F0F0F0"/>
</linearGradient>
<linearGradient id="paint53_linear_1396_1113" x1="-nan" y1="-nan" x2="-nan" y2="-nan" gradientUnits="userSpaceOnUse">
<stop stop-color="white"/>
<stop offset="1" stop-color="#F0F0F0"/>
</linearGradient>
<linearGradient id="paint54_linear_1396_1113" x1="-nan" y1="-nan" x2="-nan" y2="-nan" gradientUnits="userSpaceOnUse">
<stop stop-color="white"/>
<stop offset="1" stop-color="#F0F0F0"/>
</linearGradient>
<linearGradient id="paint55_linear_1396_1113" x1="-nan" y1="-nan" x2="-nan" y2="-nan" gradientUnits="userSpaceOnUse">
<stop stop-color="white"/>
<stop offset="1" stop-color="#F0F0F0"/>
</linearGradient>
<linearGradient id="paint56_linear_1396_1113" x1="-nan" y1="-nan" x2="-nan" y2="-nan" gradientUnits="userSpaceOnUse">
<stop stop-color="white"/>
<stop offset="1" stop-color="#F0F0F0"/>
</linearGradient>
<linearGradient id="paint57_linear_1396_1113" x1="-nan" y1="-nan" x2="-nan" y2="-nan" gradientUnits="userSpaceOnUse">
<stop stop-color="white"/>
<stop offset="1" stop-color="#F0F0F0"/>
</linearGradient>
<linearGradient id="paint58_linear_1396_1113" x1="-nan" y1="-nan" x2="-nan" y2="-nan" gradientUnits="userSpaceOnUse">
<stop stop-color="white"/>
<stop offset="1" stop-color="#F0F0F0"/>
</linearGradient>
<linearGradient id="paint59_linear_1396_1113" x1="-nan" y1="-nan" x2="-nan" y2="-nan" gradientUnits="userSpaceOnUse">
<stop stop-color="white"/>
<stop offset="1" stop-color="#F0F0F0"/>
</linearGradient>
<linearGradient id="paint60_linear_1396_1113" x1="-nan" y1="-nan" x2="-nan" y2="-nan" gradientUnits="userSpaceOnUse">
<stop stop-color="white"/>
<stop offset="1" stop-color="#F0F0F0"/>
</linearGradient>
<linearGradient id="paint61_linear_1396_1113" x1="-nan" y1="-nan" x2="-nan" y2="-nan" gradientUnits="userSpaceOnUse">
<stop stop-color="white"/>
<stop offset="1" stop-color="#F0F0F0"/>
</linearGradient>
<linearGradient id="paint62_linear_1396_1113" x1="-nan" y1="-nan" x2="-nan" y2="-nan" gradientUnits="userSpaceOnUse">
<stop stop-color="white"/>
<stop offset="1" stop-color="#F0F0F0"/>
</linearGradient>
<linearGradient id="paint63_linear_1396_1113" x1="-nan" y1="-nan" x2="-nan" y2="-nan" gradientUnits="userSpaceOnUse">
<stop stop-color="white"/>
<stop offset="1" stop-color="#F0F0F0"/>
</linearGradient>
<linearGradient id="paint64_linear_1396_1113" x1="1" y1="111.458" x2="56.8349" y2="111.458" gradientUnits="userSpaceOnUse">
<stop stop-color="#4BACDB"/>
<stop offset="1" stop-color="#3192C2"/>
</linearGradient>
<linearGradient id="paint65_linear_1396_1113" x1="0.731304" y1="111.458" x2="57.1036" y2="111.458" gradientUnits="userSpaceOnUse">
<stop stop-color="#67C0EB"/>
<stop offset="1" stop-color="#267399"/>
</linearGradient>
<linearGradient id="paint66_linear_1396_1113" x1="23.4062" y1="84.8932" x2="53.21" y2="84.8932" gradientUnits="userSpaceOnUse">
<stop stop-color="#DFF0FD"/>
<stop offset="1" stop-color="#BEE0FD"/>
</linearGradient>
<linearGradient id="paint67_linear_1396_1113" x1="23.1376" y1="84.8932" x2="53.4787" y2="84.8932" gradientUnits="userSpaceOnUse">
<stop stop-color="#FDFDFD"/>
<stop offset="1" stop-color="#A1BDD6"/>
</linearGradient>
<linearGradient id="paint68_linear_1396_1113" x1="23.4063" y1="89.7624" x2="45.9982" y2="89.7624" gradientUnits="userSpaceOnUse">
<stop stop-color="#DFF0FD"/>
<stop offset="1" stop-color="#BEE0FD"/>
</linearGradient>
<linearGradient id="paint69_linear_1396_1113" x1="23.1376" y1="89.7624" x2="46.2669" y2="89.7624" gradientUnits="userSpaceOnUse">
<stop stop-color="#FDFDFD"/>
<stop offset="1" stop-color="#A1BDD6"/>
</linearGradient>
<linearGradient id="paint70_linear_1396_1113" x1="23.4062" y1="100.976" x2="53.21" y2="100.976" gradientUnits="userSpaceOnUse">
<stop stop-color="#DFF0FD"/>
<stop offset="1" stop-color="#BEE0FD"/>
</linearGradient>
<linearGradient id="paint71_linear_1396_1113" x1="23.1376" y1="100.976" x2="53.4787" y2="100.976" gradientUnits="userSpaceOnUse">
<stop stop-color="#FDFDFD"/>
<stop offset="1" stop-color="#A1BDD6"/>
</linearGradient>
<linearGradient id="paint72_linear_1396_1113" x1="23.4062" y1="105.846" x2="45.9982" y2="105.846" gradientUnits="userSpaceOnUse">
<stop stop-color="#DFF0FD"/>
<stop offset="1" stop-color="#BEE0FD"/>
</linearGradient>
<linearGradient id="paint73_linear_1396_1113" x1="23.1376" y1="105.846" x2="46.2669" y2="105.846" gradientUnits="userSpaceOnUse">
<stop stop-color="#FDFDFD"/>
<stop offset="1" stop-color="#A1BDD6"/>
</linearGradient>
<linearGradient id="paint74_linear_1396_1113" x1="23.4063" y1="117.069" x2="53.21" y2="117.069" gradientUnits="userSpaceOnUse">
<stop stop-color="#DFF0FD"/>
<stop offset="1" stop-color="#BEE0FD"/>
</linearGradient>
<linearGradient id="paint75_linear_1396_1113" x1="23.1376" y1="117.069" x2="53.4787" y2="117.069" gradientUnits="userSpaceOnUse">
<stop stop-color="#FDFDFD"/>
<stop offset="1" stop-color="#A1BDD6"/>
</linearGradient>
<linearGradient id="paint76_linear_1396_1113" x1="23.4062" y1="121.931" x2="45.9982" y2="121.931" gradientUnits="userSpaceOnUse">
<stop stop-color="#DFF0FD"/>
<stop offset="1" stop-color="#BEE0FD"/>
</linearGradient>
<linearGradient id="paint77_linear_1396_1113" x1="23.1376" y1="121.931" x2="46.2669" y2="121.931" gradientUnits="userSpaceOnUse">
<stop stop-color="#FDFDFD"/>
<stop offset="1" stop-color="#A1BDD6"/>
</linearGradient>
<linearGradient id="paint78_linear_1396_1113" x1="23.4064" y1="133.151" x2="49.4484" y2="133.151" gradientUnits="userSpaceOnUse">
<stop stop-color="#DFF0FD"/>
<stop offset="1" stop-color="#BEE0FD"/>
</linearGradient>
<linearGradient id="paint79_linear_1396_1113" x1="23.1377" y1="133.151" x2="49.7171" y2="133.151" gradientUnits="userSpaceOnUse">
<stop stop-color="#FDFDFD"/>
<stop offset="1" stop-color="#A1BDD6"/>
</linearGradient>
<linearGradient id="paint80_linear_1396_1113" x1="23.4063" y1="138.014" x2="42.2364" y2="138.014" gradientUnits="userSpaceOnUse">
<stop stop-color="#DFF0FD"/>
<stop offset="1" stop-color="#BEE0FD"/>
</linearGradient>
<linearGradient id="paint81_linear_1396_1113" x1="23.1376" y1="138.014" x2="42.5051" y2="138.014" gradientUnits="userSpaceOnUse">
<stop stop-color="#FDFDFD"/>
<stop offset="1" stop-color="#A1BDD6"/>
</linearGradient>
<linearGradient id="paint82_linear_1396_1113" x1="8.50926" y1="107.028" x2="17.4676" y2="99.8218" gradientUnits="userSpaceOnUse">
<stop stop-color="#F5B63F"/>
<stop offset="1" stop-color="#EB9B36"/>
</linearGradient>
<linearGradient id="paint83_linear_1396_1113" x1="11.1953" y1="101.864" x2="14.8281" y2="101.864" gradientUnits="userSpaceOnUse">
<stop stop-color="#F7F7F7"/>
<stop offset="1" stop-color="#E3E3E3"/>
</linearGradient>
<linearGradient id="paint84_linear_1396_1113" x1="8.75781" y1="106.707" x2="17.2701" y2="106.707" gradientUnits="userSpaceOnUse">
<stop stop-color="#F7F7F7"/>
<stop offset="1" stop-color="#E3E3E3"/>
</linearGradient>
<linearGradient id="paint85_linear_1396_1113" x1="7.40223" y1="104.201" x2="18.6122" y2="102.627" gradientUnits="userSpaceOnUse">
<stop stop-color="#F5C569"/>
<stop offset="1" stop-color="#CC862F"/>
</linearGradient>
<linearGradient id="paint86_linear_1396_1113" x1="8.50827" y1="123.114" x2="17.4666" y2="115.913" gradientUnits="userSpaceOnUse">
<stop stop-color="#0D2969"/>
<stop offset="1" stop-color="#0D294C"/>
</linearGradient>
<linearGradient id="paint87_linear_1396_1113" x1="11.1953" y1="117.955" x2="14.8281" y2="117.955" gradientUnits="userSpaceOnUse">
<stop stop-color="#F7F7F7"/>
<stop offset="1" stop-color="#E3E3E3"/>
</linearGradient>
<linearGradient id="paint88_linear_1396_1113" x1="8.75781" y1="122.796" x2="17.2701" y2="122.796" gradientUnits="userSpaceOnUse">
<stop stop-color="#F7F7F7"/>
<stop offset="1" stop-color="#E3E3E3"/>
</linearGradient>
<linearGradient id="paint89_linear_1396_1113" x1="7.40124" y1="120.287" x2="18.6112" y2="118.713" gradientUnits="userSpaceOnUse">
<stop stop-color="#133A94"/>
<stop offset="1" stop-color="#071629"/>
</linearGradient>
<linearGradient id="paint90_linear_1396_1113" x1="8.50827" y1="139.202" x2="17.4666" y2="131.996" gradientUnits="userSpaceOnUse">
<stop stop-color="#EC4C27"/>
<stop offset="1" stop-color="#D13D1C"/>
</linearGradient>
<linearGradient id="paint91_linear_1396_1113" x1="11.1953" y1="134.039" x2="14.8281" y2="134.039" gradientUnits="userSpaceOnUse">
<stop stop-color="#F7F7F7"/>
<stop offset="1" stop-color="#E3E3E3"/>
</linearGradient>
<linearGradient id="paint92_linear_1396_1113" x1="8.75781" y1="138.879" x2="17.2701" y2="138.879" gradientUnits="userSpaceOnUse">
<stop stop-color="#F7F7F7"/>
<stop offset="1" stop-color="#E3E3E3"/>
</linearGradient>
<linearGradient id="paint93_linear_1396_1113" x1="7.40124" y1="136.37" x2="18.6112" y2="134.796" gradientUnits="userSpaceOnUse">
<stop stop-color="#FF7657"/>
<stop offset="1" stop-color="#AB3217"/>
</linearGradient>
<linearGradient id="paint94_linear_1396_1113" x1="8.50827" y1="90.9447" x2="17.4666" y2="83.7382" gradientUnits="userSpaceOnUse">
<stop stop-color="#EC4C27"/>
<stop offset="1" stop-color="#D13D1C"/>
</linearGradient>
<linearGradient id="paint95_linear_1396_1113" x1="11.1953" y1="85.7802" x2="14.8281" y2="85.7802" gradientUnits="userSpaceOnUse">
<stop stop-color="#F7F7F7"/>
<stop offset="1" stop-color="#E3E3E3"/>
</linearGradient>
<linearGradient id="paint96_linear_1396_1113" x1="8.75781" y1="90.6217" x2="17.2701" y2="90.6217" gradientUnits="userSpaceOnUse">
<stop stop-color="#F7F7F7"/>
<stop offset="1" stop-color="#E3E3E3"/>
</linearGradient>
<linearGradient id="paint97_linear_1396_1113" x1="7.40124" y1="88.118" x2="18.6112" y2="86.5434" gradientUnits="userSpaceOnUse">
<stop stop-color="#FF7657"/>
<stop offset="1" stop-color="#AB3217"/>
</linearGradient>
<linearGradient id="paint98_linear_1396_1113" x1="64.4375" y1="130.357" x2="108.031" y2="130.357" gradientUnits="userSpaceOnUse">
<stop stop-color="#EBF5FD"/>
<stop offset="1" stop-color="#D5EBFD"/>
</linearGradient>
<linearGradient id="paint99_linear_1396_1113" x1="35.3086" y1="84.9367" x2="137.155" y2="84.9367" gradientUnits="userSpaceOnUse">
<stop stop-color="#E1F1FD"/>
<stop offset="1" stop-color="#D5EBFD"/>
</linearGradient>
<linearGradient id="paint100_linear_1396_1113" x1="34.7712" y1="84.9367" x2="137.692" y2="84.9367" gradientUnits="userSpaceOnUse">
<stop stop-color="#FDFDFD"/>
<stop offset="1" stop-color="#A1BDD6"/>
</linearGradient>
<linearGradient id="paint101_linear_1396_1113" x1="40.6758" y1="79.9713" x2="131.774" y2="79.9713" gradientUnits="userSpaceOnUse">
<stop stop-color="#F7F7F7"/>
<stop offset="1" stop-color="#F0F0F0"/>
</linearGradient>
<linearGradient id="paint102_linear_1396_1113" x1="40.4071" y1="79.9713" x2="132.043" y2="79.9713" gradientUnits="userSpaceOnUse">
<stop stop-color="white"/>
<stop offset="1" stop-color="#D1D1D1"/>
</linearGradient>
<linearGradient id="paint103_linear_1396_1113" x1="40.6758" y1="54.8053" x2="131.774" y2="54.8053" gradientUnits="userSpaceOnUse">
<stop stop-color="#0D2969"/>
<stop offset="1" stop-color="#0D294C"/>
</linearGradient>
<linearGradient id="paint104_linear_1396_1113" x1="40.4071" y1="54.8053" x2="132.043" y2="54.8053" gradientUnits="userSpaceOnUse">
<stop stop-color="#133A94"/>
<stop offset="1" stop-color="#071629"/>
</linearGradient>
<linearGradient id="paint105_linear_1396_1113" x1="83.6445" y1="116.508" x2="88.8142" y2="116.508" gradientUnits="userSpaceOnUse">
<stop stop-color="#0D2969"/>
<stop offset="1" stop-color="#0D294C"/>
</linearGradient>
<radialGradient id="paint106_radial_1396_1113" cx="0" cy="0" r="1" gradientUnits="userSpaceOnUse" gradientTransform="translate(46.3541 54.3795) scale(1.57456 1.57455)">
<stop stop-color="#EC4C27"/>
<stop offset="1" stop-color="#D13D1C"/>
</radialGradient>
<radialGradient id="paint107_radial_1396_1113" cx="0" cy="0" r="1" gradientUnits="userSpaceOnUse" gradientTransform="translate(51.6178 54.3311) scale(1.57456 1.57455)">
<stop stop-color="#4BACDB"/>
<stop offset="1" stop-color="#3192C2"/>
</radialGradient>
<radialGradient id="paint108_radial_1396_1113" cx="0" cy="0" r="1" gradientUnits="userSpaceOnUse" gradientTransform="translate(56.9181 54.3795) scale(1.57455 1.57455)">
<stop stop-color="#F5B63F"/>
<stop offset="1" stop-color="#EB9B36"/>
</radialGradient>
<linearGradient id="paint109_linear_1396_1113" x1="103.852" y1="75.3873" x2="126.411" y2="75.3873" gradientUnits="userSpaceOnUse">
<stop stop-color="#4BACDB"/>
<stop offset="1" stop-color="#3192C2"/>
</linearGradient>
<linearGradient id="paint110_linear_1396_1113" x1="103.583" y1="75.3873" x2="126.68" y2="75.3873" gradientUnits="userSpaceOnUse">
<stop stop-color="#67C0EB"/>
<stop offset="1" stop-color="#267399"/>
</linearGradient>
<linearGradient id="paint111_linear_1396_1113" x1="108.423" y1="75.3811" x2="121.895" y2="75.3811" gradientUnits="userSpaceOnUse">
<stop stop-color="#0D2969"/>
<stop offset="1" stop-color="#0D294C"/>
</linearGradient>
<linearGradient id="paint112_linear_1396_1113" x1="108.154" y1="75.3811" x2="122.164" y2="75.3811" gradientUnits="userSpaceOnUse">
<stop stop-color="#133A94"/>
<stop offset="1" stop-color="#071629"/>
</linearGradient>
<linearGradient id="paint113_linear_1396_1113" x1="110.852" y1="78.7562" x2="121.868" y2="78.7562" gradientUnits="userSpaceOnUse">
<stop stop-color="#F5B63F"/>
<stop offset="1" stop-color="#EB9B36"/>
</linearGradient>
<linearGradient id="paint114_linear_1396_1113" x1="110.47" y1="78.7562" x2="122.137" y2="78.7562" gradientUnits="userSpaceOnUse">
<stop stop-color="#F5C569"/>
<stop offset="1" stop-color="#CC862F"/>
</linearGradient>
<linearGradient id="paint115_linear_1396_1113" x1="115.223" y1="72.0232" x2="121.865" y2="72.0232" gradientUnits="userSpaceOnUse">
<stop stop-color="#EC4C27"/>
<stop offset="1" stop-color="#D13D1C"/>
</linearGradient>
<linearGradient id="paint116_linear_1396_1113" x1="114.954" y1="72.0232" x2="122.133" y2="72.0232" gradientUnits="userSpaceOnUse">
<stop stop-color="#FF7657"/>
<stop offset="1" stop-color="#AB3217"/>
</linearGradient>
<linearGradient id="paint117_linear_1396_1113" x1="103.852" y1="101.666" x2="126.411" y2="101.666" gradientUnits="userSpaceOnUse">
<stop stop-color="#F5B63F"/>
<stop offset="1" stop-color="#EB9B36"/>
</linearGradient>
<linearGradient id="paint118_linear_1396_1113" x1="103.583" y1="101.666" x2="126.68" y2="101.666" gradientUnits="userSpaceOnUse">
<stop stop-color="#F5C569"/>
<stop offset="1" stop-color="#CC862F"/>
</linearGradient>
<linearGradient id="paint119_linear_1396_1113" x1="103.852" y1="93.8199" x2="126.411" y2="93.8199" gradientUnits="userSpaceOnUse">
<stop stop-color="#EC4C27"/>
<stop offset="1" stop-color="#D13D1C"/>
</linearGradient>
<linearGradient id="paint120_linear_1396_1113" x1="103.583" y1="93.8199" x2="126.68" y2="93.8199" gradientUnits="userSpaceOnUse">
<stop stop-color="#FF7657"/>
<stop offset="1" stop-color="#AB3217"/>
</linearGradient>
<linearGradient id="paint121_linear_1396_1113" x1="46.0508" y1="83.8995" x2="98.4679" y2="83.8995" gradientUnits="userSpaceOnUse">
<stop stop-color="#0D2969"/>
<stop offset="1" stop-color="#0D294C"/>
</linearGradient>
<linearGradient id="paint122_linear_1396_1113" x1="46.0508" y1="87.9531" x2="98.4679" y2="87.9531" gradientUnits="userSpaceOnUse">
<stop stop-color="#4BACDB"/>
<stop offset="1" stop-color="#3192C2"/>
</linearGradient>
<linearGradient id="paint123_linear_1396_1113" x1="45.7821" y1="83.8995" x2="98.7366" y2="83.8995" gradientUnits="userSpaceOnUse">
<stop stop-color="#133A94"/>
<stop offset="1" stop-color="#071629"/>
</linearGradient>
<linearGradient id="paint124_linear_1396_1113" x1="45.7821" y1="87.7005" x2="98.7366" y2="87.7005" gradientUnits="userSpaceOnUse">
<stop stop-color="#67C0EB"/>
<stop offset="1" stop-color="#267399"/>
</linearGradient>
<linearGradient id="paint125_linear_1396_1113" x1="101.648" y1="38.3065" x2="164.765" y2="38.3065" gradientUnits="userSpaceOnUse">
<stop stop-color="#4BACDB"/>
<stop offset="1" stop-color="#3192C2"/>
</linearGradient>
<linearGradient id="paint126_linear_1396_1113" x1="101.38" y1="38.3065" x2="165.034" y2="38.3065" gradientUnits="userSpaceOnUse">
<stop stop-color="#67C0EB"/>
<stop offset="1" stop-color="#267399"/>
</linearGradient>
<linearGradient id="paint127_linear_1396_1113" x1="122.824" y1="32.4723" x2="158.319" y2="32.4723" gradientUnits="userSpaceOnUse">
<stop stop-color="#DFF0FD"/>
<stop offset="1" stop-color="#BEE0FD"/>
</linearGradient>
<linearGradient id="paint128_linear_1396_1113" x1="122.556" y1="32.4723" x2="158.588" y2="32.4723" gradientUnits="userSpaceOnUse">
<stop stop-color="#FDFDFD"/>
<stop offset="1" stop-color="#A1BDD6"/>
</linearGradient>
<linearGradient id="paint129_linear_1396_1113" x1="122.824" y1="44.1388" x2="158.319" y2="44.1388" gradientUnits="userSpaceOnUse">
<stop stop-color="#DFF0FD"/>
<stop offset="1" stop-color="#BEE0FD"/>
</linearGradient>
<linearGradient id="paint130_linear_1396_1113" x1="122.556" y1="44.1388" x2="158.588" y2="44.1388" gradientUnits="userSpaceOnUse">
<stop stop-color="#FDFDFD"/>
<stop offset="1" stop-color="#A1BDD6"/>
</linearGradient>
<linearGradient id="paint131_linear_1396_1113" x1="108.098" y1="32.469" x2="116.524" y2="32.469" gradientUnits="userSpaceOnUse">
<stop stop-color="#DFF0FD"/>
<stop offset="1" stop-color="#BEE0FD"/>
</linearGradient>
<linearGradient id="paint132_linear_1396_1113" x1="107.829" y1="32.469" x2="116.793" y2="32.469" gradientUnits="userSpaceOnUse">
<stop stop-color="#FDFDFD"/>
<stop offset="1" stop-color="#A1BDD6"/>
</linearGradient>
<linearGradient id="paint133_linear_1396_1113" x1="109.474" y1="32.471" x2="115.149" y2="32.471" gradientUnits="userSpaceOnUse">
<stop stop-color="#EC4C27"/>
<stop offset="1" stop-color="#D13D1C"/>
</linearGradient>
<linearGradient id="paint134_linear_1396_1113" x1="108.098" y1="44.138" x2="116.524" y2="44.138" gradientUnits="userSpaceOnUse">
<stop stop-color="#DFF0FD"/>
<stop offset="1" stop-color="#BEE0FD"/>
</linearGradient>
<linearGradient id="paint135_linear_1396_1113" x1="107.829" y1="44.138" x2="116.793" y2="44.138" gradientUnits="userSpaceOnUse">
<stop stop-color="#FDFDFD"/>
<stop offset="1" stop-color="#A1BDD6"/>
</linearGradient>
<linearGradient id="paint136_linear_1396_1113" x1="109.474" y1="44.137" x2="115.149" y2="44.137" gradientUnits="userSpaceOnUse">
<stop stop-color="#EC4C27"/>
<stop offset="1" stop-color="#D13D1C"/>
</linearGradient>
<linearGradient id="paint137_linear_1396_1113" x1="14.0938" y1="41.7698" x2="50.3247" y2="41.7698" gradientUnits="userSpaceOnUse">
<stop stop-color="#E1F1FD"/>
<stop offset="1" stop-color="#D5EBFD"/>
</linearGradient>
<linearGradient id="paint138_linear_1396_1113" x1="13.5564" y1="41.7698" x2="50.8621" y2="41.7698" gradientUnits="userSpaceOnUse">
<stop stop-color="#FDFDFD"/>
<stop offset="1" stop-color="#A1BDD6"/>
</linearGradient>
<linearGradient id="paint139_linear_1396_1113" x1="18.1055" y1="34.7166" x2="46.3239" y2="34.7166" gradientUnits="userSpaceOnUse">
<stop stop-color="#F5B63F"/>
<stop offset="1" stop-color="#EB9B36"/>
</linearGradient>
<linearGradient id="paint140_linear_1396_1113" x1="18.1055" y1="47.077" x2="27.182" y2="47.077" gradientUnits="userSpaceOnUse">
<stop stop-color="#EC4C27"/>
<stop offset="1" stop-color="#D13D1C"/>
</linearGradient>
<linearGradient id="paint141_linear_1396_1113" x1="37.25" y1="47.078" x2="46.3265" y2="47.078" gradientUnits="userSpaceOnUse">
<stop stop-color="#0D2969"/>
<stop offset="1" stop-color="#0D294C"/>
</linearGradient>
<linearGradient id="paint142_linear_1396_1113" x1="35.8867" y1="35.7009" x2="46.3282" y2="35.7009" gradientUnits="userSpaceOnUse">
<stop stop-color="#0D2969"/>
<stop offset="1" stop-color="#0D294C"/>
</linearGradient>
<linearGradient id="paint143_linear_1396_1113" x1="22.4551" y1="31.9549" x2="41.9624" y2="31.9549" gradientUnits="userSpaceOnUse">
<stop stop-color="#4BACDB"/>
<stop offset="1" stop-color="#3192C2"/>
</linearGradient>
<linearGradient id="paint144_linear_1396_1113" x1="29.1538" y1="41.7697" x2="35.2747" y2="41.7697" gradientUnits="userSpaceOnUse">
<stop stop-color="#0D2969"/>
<stop offset="1" stop-color="#0D294C"/>
</linearGradient>
<linearGradient id="paint145_linear_1396_1113" x1="119.492" y1="123.683" x2="155.723" y2="123.683" gradientUnits="userSpaceOnUse">
<stop stop-color="#E1F1FD"/>
<stop offset="1" stop-color="#D5EBFD"/>
</linearGradient>
<linearGradient id="paint146_linear_1396_1113" x1="123.855" y1="123.683" x2="151.348" y2="123.683" gradientUnits="userSpaceOnUse">
<stop stop-color="#0D2969"/>
<stop offset="1" stop-color="#0D294C"/>
</linearGradient>
<linearGradient id="paint147_linear_1396_1113" x1="128.23" y1="123.683" x2="146.985" y2="123.683" gradientUnits="userSpaceOnUse">
<stop stop-color="#4BACDB"/>
<stop offset="1" stop-color="#3192C2"/>
</linearGradient>
<linearGradient id="paint148_linear_1396_1113" x1="132.598" y1="123.683" x2="142.615" y2="123.683" gradientUnits="userSpaceOnUse">
<stop stop-color="#EC4C27"/>
<stop offset="1" stop-color="#D13D1C"/>
</linearGradient>
<linearGradient id="paint149_linear_1396_1113" x1="118.955" y1="123.683" x2="156.26" y2="123.683" gradientUnits="userSpaceOnUse">
<stop stop-color="#FDFDFD"/>
<stop offset="1" stop-color="#A1BDD6"/>
</linearGradient>
<linearGradient id="paint150_linear_1396_1113" x1="136.16" y1="123.687" x2="139.051" y2="123.687" gradientUnits="userSpaceOnUse">
<stop stop-color="#E1F1FD"/>
<stop offset="1" stop-color="#D5EBFD"/>
</linearGradient>
<linearGradient id="paint151_linear_1396_1113" x1="125.831" y1="134.714" x2="126.591" y2="135.474" gradientUnits="userSpaceOnUse">
<stop stop-color="#F5B63F"/>
<stop offset="1" stop-color="#EB8536"/>
</linearGradient>
<linearGradient id="paint152_linear_1396_1113" x1="134.717" y1="123.486" x2="137.818" y2="126.587" gradientUnits="userSpaceOnUse">
<stop stop-color="#F5B63F"/>
<stop offset="1" stop-color="#EB9B36"/>
</linearGradient>
<linearGradient id="paint153_linear_1396_1113" x1="57.9023" y1="28.2249" x2="59.0416" y2="28.2249" gradientUnits="userSpaceOnUse">
<stop stop-color="#F5B63F"/>
<stop offset="1" stop-color="#EB9B36"/>
</linearGradient>
<linearGradient id="paint154_linear_1396_1113" x1="34.1328" y1="155.249" x2="35.2721" y2="155.249" gradientUnits="userSpaceOnUse">
<stop stop-color="#EC4C27"/>
<stop offset="1" stop-color="#D13D1C"/>
</linearGradient>
<linearGradient id="paint155_linear_1396_1113" x1="171.714" y1="60.663" x2="172.848" y2="60.663" gradientUnits="userSpaceOnUse">
<stop stop-color="#F5B63F"/>
<stop offset="1" stop-color="#EB9B36"/>
</linearGradient>
<linearGradient id="paint156_linear_1396_1113" x1="2.80859" y1="60.8413" x2="4.72171" y2="60.8413" gradientUnits="userSpaceOnUse">
<stop stop-color="#4BACDB"/>
<stop offset="1" stop-color="#3192C2"/>
</linearGradient>
<linearGradient id="paint157_linear_1396_1113" x1="162.059" y1="141.927" x2="163.966" y2="141.927" gradientUnits="userSpaceOnUse">
<stop stop-color="#EC4C27"/>
<stop offset="1" stop-color="#D13D1C"/>
</linearGradient>
<linearGradient id="paint158_linear_1396_1113" x1="152.751" y1="81.293" x2="155.432" y2="81.293" gradientUnits="userSpaceOnUse">
<stop stop-color="#DFF0FD"/>
<stop offset="1" stop-color="#BEE0FD"/>
</linearGradient>
<linearGradient id="paint159_linear_1396_1113" x1="88.3064" y1="148.488" x2="93.3686" y2="148.488" gradientUnits="userSpaceOnUse">
<stop stop-color="#F5B63F"/>
<stop offset="1" stop-color="#EB9B36"/>
</linearGradient>
</defs>
</svg>
