<svg width="174" height="174" viewBox="0 0 174 174" fill="none" xmlns="http://www.w3.org/2000/svg">
<path d="M89.262 45.5832C85.8463 59.0268 94.0034 72.7425 107.447 76.1591C120.891 79.5756 134.606 71.4176 138.023 57.9748C141.44 44.5321 133.281 30.8155 119.839 27.399C106.396 23.9825 92.6785 32.1405 89.262 45.5832ZM95.4755 46.3126C98.4941 36.2793 109.075 30.5931 119.109 33.6117C129.143 36.6311 134.828 47.2121 131.809 57.2455C128.79 67.2788 118.209 72.965 108.176 69.9464C98.1423 66.9269 92.456 56.3459 95.4755 46.3126Z" fill="#F7CC7F"/>
<path d="M71.8281 45.6219C71.9469 46.2228 72.4902 46.4328 73.8328 46.9645C76.2328 47.9173 78.6346 48.8691 80.9991 49.9043C81.3713 50.0673 81.7436 50.6478 81.7897 51.0706C82.0626 53.5831 82.184 56.1134 82.4836 58.6224C82.5722 59.3996 82.5004 59.8135 81.8012 60.2522C79.0086 62.0079 76.2638 63.8406 73.5324 65.6256C74.2148 68.5546 77.6561 75.1395 79.4951 76.9812C82.3923 75.7617 85.371 74.5608 88.2992 73.2456C89.2103 72.8362 89.6756 72.915 90.4351 73.6409C92.1961 75.3248 94.1175 76.8527 96.0575 78.3336C96.8436 78.9336 97.2619 79.4033 97.0076 80.4837C96.3473 83.2842 95.8554 86.1247 95.2448 88.9368C95.0799 89.6927 95.2235 90.1651 95.9698 90.3964C99.4811 91.483 102.993 92.5678 106.505 93.6508C107.368 93.9166 107.501 93.2076 107.716 92.6998C108.807 90.1297 109.912 87.5595 110.916 84.9522C111.292 83.9773 111.802 83.6511 112.865 83.6228C115.679 83.5342 118.488 83.263 121.514 83.0485L127.312 91.8517C131.389 90.501 135.063 88.4839 138.542 85.8047L134.572 76.266C136.655 73.6267 138.639 71.2249 140.477 68.7168C141.008 67.9901 141.426 67.8705 142.224 68.0459C144.994 68.6548 147.784 69.1768 150.555 69.7662C151.154 69.8938 151.595 69.9168 151.902 69.2619C153.454 65.9499 154.707 62.552 155.213 58.9007C155.326 58.0862 155.036 57.7654 154.363 57.488C151.664 56.373 148.986 55.2067 146.282 54.1033C145.627 53.8375 145.353 53.5574 145.293 52.7589C145.087 49.9876 144.762 47.2216 144.365 44.4706C144.264 43.7678 144.487 43.4957 144.985 43.1687C147.741 41.3528 150.48 39.5173 153.302 37.642C151.872 33.6282 150.048 29.9023 147.436 26.4752L137.495 30.6122L129.369 23.8722C129.866 21.3907 130.458 18.5441 131.003 15.685C131.447 13.3382 131.786 13.6466 129.429 12.6576C129.203 12.5627 129.013 12.3873 128.808 12.249L122.479 10.3418C121.986 10.2859 121.469 10.3063 121.005 10.1592C119.798 9.77634 119.118 10.0511 118.637 11.3441C117.634 14.0383 116.463 16.6705 115.298 19.3009C115.145 19.6448 114.644 20.0046 114.266 20.0525C111.798 20.3644 109.296 20.4637 106.856 20.9033C105.661 21.1186 105.158 20.7925 104.568 19.8611C102.897 17.2191 101.112 14.6463 99.2037 11.7855L87.9979 17.6685C88.2912 18.412 88.4525 18.8427 88.6298 19.2637C89.7199 21.8808 90.786 24.5095 91.9222 27.1071C92.2448 27.8444 92.0809 28.2592 91.5757 28.8592C89.8404 30.9206 88.2381 33.0937 86.5169 35.1676C86.2511 35.4893 85.5908 35.7153 85.1716 35.6426C82.8806 35.2447 80.6109 34.72 78.327 34.276C76.4792 33.9171 75.7915 33.7903 75.2065 34.3939L71.8281 45.6219ZM88.3949 45.364C89.8789 39.5234 93.3421 34.378 98.1945 30.8046C103.047 27.2312 108.988 25.4509 115.006 25.767C121.024 26.083 126.746 28.4759 131.197 32.5379C135.649 36.6 138.554 42.0798 139.418 48.0437C140.282 54.0076 139.051 60.0866 135.936 65.2448C132.82 70.4031 128.012 74.3215 122.332 76.3323C116.651 78.3432 110.448 78.3221 104.782 76.2727C99.1146 74.2232 94.3336 70.2723 91.2531 65.0929C89.4957 62.1568 88.3382 58.9013 87.8476 55.5148C87.357 52.1283 87.543 48.6781 88.3949 45.364Z" fill="#F7CC7F"/>
<path d="M15.5714 42.6273L14.6523 47.5159C14.7286 47.764 14.9679 47.8278 15.5581 47.9927C16.6136 48.286 17.67 48.5794 18.7141 48.9099C18.8789 48.9622 19.0624 49.19 19.1005 49.3664C19.3291 50.4139 19.494 51.4765 19.7333 52.5214C19.8077 52.8458 19.7944 53.0231 19.5188 53.2402C18.4189 54.107 17.3439 55.0039 16.2715 55.8795C16.6916 57.0857 18.4402 59.709 19.299 60.3994C20.4671 59.7542 21.6697 59.1134 22.844 58.4266C23.21 58.213 23.4103 58.2254 23.7631 58.4975C24.5923 59.1207 25.4554 59.6976 26.3483 60.2257C26.7028 60.4428 26.9048 60.6227 26.8463 61.0898C26.6939 62.3013 26.615 63.5217 26.483 64.7358C26.4475 65.062 26.53 65.2552 26.8552 65.319L31.4469 66.2185C31.8227 66.2921 31.8475 65.9863 31.9149 65.7621C32.2569 64.6304 32.6114 63.4968 32.9163 62.3527C33.0315 61.9229 33.2301 61.7642 33.6767 61.7022C34.8608 61.5382 36.0333 61.2972 37.3006 61.0703L40.1437 64.5267C41.7956 63.768 43.3059 62.7331 44.6096 61.4664L42.5056 57.6201C43.2651 56.413 43.9945 55.3105 44.6566 54.169C44.8489 53.8384 45.019 53.7693 45.3656 53.8074C46.562 53.9395 47.7629 54.0343 48.9602 54.1619C49.219 54.1885 49.4034 54.1779 49.5053 53.8881C50.0113 52.4204 50.3915 50.9306 50.4367 49.3681C50.4474 49.0198 50.3091 48.8975 50.014 48.8107C48.8246 48.4624 47.6424 48.0902 46.4521 47.7472C46.1632 47.6639 46.0347 47.5593 45.9735 47.2243C45.7626 46.0642 45.5003 44.912 45.2087 43.7679C45.1343 43.4763 45.2167 43.3505 45.4108 43.1909C46.492 42.3047 47.5661 41.4025 48.6713 40.4843C47.887 38.8554 46.9502 37.3647 45.6935 36.0371L41.6849 38.2306L37.9529 35.749C38.0504 34.6855 38.1718 33.4519 38.2729 32.2208C38.3562 31.2105 38.5121 31.3257 37.4752 31.0147C37.3773 30.9752 37.2833 30.9269 37.1943 30.8702L34.4389 30.3517C34.2289 30.3517 34.0117 30.3828 33.8088 30.3411C33.2823 30.2339 33.0112 30.381 32.8631 30.9473C32.5618 32.1296 32.186 33.2932 31.8129 34.4551C31.776 34.5412 31.7209 34.6183 31.6515 34.6811C31.5821 34.744 31.4999 34.7911 31.4106 34.8194C30.3834 35.0622 29.3323 35.2164 28.322 35.5115C27.8274 35.6569 27.6014 35.5417 27.3107 35.1747C26.4856 34.136 25.6189 33.1301 24.683 32.009L20.2207 34.9957C20.3776 35.2962 20.4653 35.4708 20.5592 35.6418C21.1371 36.6973 21.7052 37.7582 22.3016 38.8031C22.4709 39.1 22.4204 39.2825 22.2343 39.5582C21.5953 40.5065 21.0166 41.4955 20.3838 42.4482C20.3176 42.5293 20.2344 42.5946 20.14 42.6397C20.0456 42.6847 19.9424 42.7083 19.8378 42.7088C18.8532 42.6441 17.8712 42.5254 16.8875 42.4429C16.0872 42.3685 15.7912 42.3463 15.5714 42.6273ZM24.66 46.7422C25.0549 44.6439 26.2672 42.7885 28.0301 41.584C29.793 40.3795 31.9622 39.9247 34.0605 40.3195C35.0995 40.5149 36.0899 40.9131 36.975 41.4913C37.8601 42.0695 38.6227 42.8164 39.2192 43.6893C39.8157 44.5623 40.2344 45.5441 40.4514 46.5789C40.6685 47.6136 40.6795 48.681 40.4841 49.72C40.2885 50.759 39.8902 51.7494 39.3119 52.6345C38.7336 53.5196 37.9866 54.2821 37.1136 54.8785C36.2406 55.4749 35.2587 55.8935 34.2239 56.1104C33.1891 56.3273 32.1217 56.3383 31.0827 56.1427C30.0436 55.9472 29.0533 55.549 28.1682 54.9708C27.2831 54.3926 26.5206 53.6457 25.9242 52.7728C25.3278 51.8998 24.9091 50.9179 24.6922 49.8832C24.4753 48.8485 24.4643 47.7811 24.66 46.7422Z" fill="#F47458"/>
<path d="M95.106 46.8506H79.4645C77.8639 46.8506 76.5664 48.1481 76.5664 49.7486V54.8739C76.5664 56.4744 77.8639 57.7719 79.4645 57.7719H95.106C96.7066 57.7719 98.0041 56.4744 98.0041 54.8739V49.7486C98.0041 48.1481 96.7066 46.8506 95.106 46.8506Z" fill="#5184CE"/>
<path d="M74.3823 154.509L57.8164 162.144V163.836H116.813V162.144L100.097 154.509H74.3823Z" fill="#466EB6"/>
<path d="M100.112 121.78H74.3867V154.521H100.112V121.78Z" fill="#466EB6"/>
<path d="M165.183 132.05V58.219C165.183 56.5344 164.514 54.9188 163.323 53.7276C162.132 52.5364 160.516 51.8672 158.832 51.8672H15.6799C13.9953 51.8672 12.3797 52.5364 11.1885 53.7276C9.99733 54.9188 9.32812 56.5344 9.32812 58.219V132.05H165.183Z" fill="#466EB6"/>
<g style="mix-blend-mode:multiply" opacity="0.3">
<path d="M116.812 162.144H57.8164V163.835H116.812V162.144Z" fill="#184655"/>
</g>
<g style="mix-blend-mode:multiply" opacity="0.3">
<path d="M100.101 150.666H74.3867V154.508H100.101V150.666Z" fill="#184655"/>
</g>
<path d="M9.32812 132.051V143.882C9.32812 146.343 10.9544 148.338 12.9618 148.338H161.55C163.557 148.338 165.183 146.343 165.183 143.882V132.051H9.32812Z" fill="#5184CE"/>
<path d="M88.8594 49.7519C88.8594 50.0382 88.7745 50.318 88.6155 50.556C88.4564 50.794 88.2304 50.9795 87.9659 51.089C87.7015 51.1986 87.4105 51.2272 87.1298 51.1714C86.849 51.1156 86.5911 50.9777 86.3887 50.7753C86.1863 50.5729 86.0485 50.315 85.9927 50.0343C85.9368 49.7536 85.9655 49.4626 86.075 49.1981C86.1845 48.9337 86.37 48.7076 86.608 48.5486C86.846 48.3896 87.1259 48.3047 87.4121 48.3047C87.7959 48.3047 88.1641 48.4572 88.4355 48.7286C88.7069 49 88.8594 49.3681 88.8594 49.7519Z" fill="#184655"/>
<path d="M161.445 128.844V58.4172C161.445 56.5711 159.895 55.0742 157.983 55.0742H16.3502C14.4377 55.0742 12.8867 56.5711 12.8867 58.4172V128.844H161.445Z" fill="#CCE6FF"/>
<path d="M108.701 60.7607H19.4102V123.066H108.701V60.7607Z" fill="#E9FFFF"/>
<path d="M108.701 60.7607H19.4102V68.0555H108.701V60.7607Z" fill="#5184CE"/>
<path opacity="0.6" d="M146.571 76.3486H140.477V123.525H146.571V76.3486Z" fill="#9BC1F9"/>
<path opacity="0.6" d="M138.056 90.7373H131.961V123.523H138.056V90.7373Z" fill="#9BC1F9"/>
<path opacity="0.6" d="M155.208 86.5693H149.113V123.524H155.208V86.5693Z" fill="#9BC1F9"/>
<path opacity="0.6" d="M129.548 85.1162H123.453V123.525H129.548V85.1162Z" fill="#9BC1F9"/>
<path opacity="0.6" d="M121.04 96.5029H114.945V123.523H121.04V96.5029Z" fill="#9BC1F9"/>
<g style="mix-blend-mode:multiply" opacity="0.3">
<path d="M146.571 87.2217H140.477V123.525H146.571V87.2217Z" fill="#9BC1F9"/>
</g>
<g style="mix-blend-mode:multiply" opacity="0.3">
<path d="M138.056 98.2949H131.961V123.525H138.056V98.2949Z" fill="#9BC1F9"/>
</g>
<g style="mix-blend-mode:multiply" opacity="0.3">
<path d="M155.208 95.0869H149.113V123.525H155.208V95.0869Z" fill="#9BC1F9"/>
</g>
<g style="mix-blend-mode:multiply" opacity="0.3">
<path d="M129.548 93.9678H123.453V123.524H129.548V93.9678Z" fill="#9BC1F9"/>
</g>
<g style="mix-blend-mode:multiply" opacity="0.3">
<path d="M121.04 102.731H114.945V123.525H121.04V102.731Z" fill="#9BC1F9"/>
</g>
<path opacity="0.6" d="M104.904 71.0586H22.4883V81.637H104.904V71.0586Z" fill="#9BC1F9"/>
<path opacity="0.6" d="M104.905 84.6416H51.8594V87.3527H104.905V84.6416Z" fill="#9BC1F9"/>
<path d="M48.5841 84.6416H22.4883V115.93H48.5841V84.6416Z" fill="#5184CE"/>
<path opacity="0.6" d="M104.905 90.3564H51.8594V93.0675H104.905V90.3564Z" fill="#9BC1F9"/>
<path opacity="0.6" d="M104.905 107.503H51.8594V110.214H104.905V107.503Z" fill="#9BC1F9"/>
<path opacity="0.6" d="M104.905 113.219H51.8594V115.93H104.905V113.219Z" fill="#9BC1F9"/>
<path d="M9.25461 95.8601L58.7963 95.7715C59.1537 95.771 59.4966 95.9125 59.7497 96.1647C60.0028 96.417 60.1454 96.7595 60.1461 97.1168L60.264 162.401C60.2645 162.758 60.123 163.101 59.8707 163.355C59.6185 163.608 59.276 163.75 58.9187 163.751L9.37691 163.84C9.01956 163.84 8.67663 163.699 8.42353 163.446C8.17042 163.194 8.02785 162.852 8.02714 162.494L7.91016 97.2099C7.90969 97.033 7.94411 96.8577 8.01144 96.694C8.07878 96.5304 8.17771 96.3817 8.30258 96.2563C8.42744 96.1309 8.5758 96.0314 8.73915 95.9634C8.90251 95.8955 9.07767 95.8603 9.25461 95.8601Z" fill="#F7CC7F"/>
<path d="M57.3356 97.6771L10.5352 97.7588L10.6465 161.569L57.447 161.487L57.3356 97.6771Z" fill="white"/>
<path d="M44.1701 94.8964C44.17 94.8282 44.1565 94.7607 44.1303 94.6977C44.1041 94.6348 44.0657 94.5776 44.0174 94.5294C43.9691 94.4813 43.9118 94.4431 43.8487 94.4171C43.7857 94.3911 43.7181 94.3778 43.6499 94.3779L23.9989 94.4134C23.9307 94.4134 23.8631 94.4269 23.8001 94.453C23.7371 94.4792 23.6799 94.5175 23.6317 94.5659C23.5835 94.6142 23.5454 94.6716 23.5194 94.7347C23.4935 94.7978 23.4802 94.8654 23.4805 94.9336V96.9764L44.1701 96.9392V94.8964Z" fill="#13375B"/>
<path d="M33.8206 91.9131C33.2068 91.9131 32.6067 92.0952 32.0964 92.4365C31.5861 92.7777 31.1885 93.2627 30.954 93.83C30.7195 94.3973 30.6586 95.0214 30.779 95.6234C30.8994 96.2253 31.1957 96.778 31.6304 97.2115C32.0651 97.6449 32.6186 97.9397 33.2209 98.0584C33.8232 98.177 34.4472 98.1143 35.0138 97.8782C35.5805 97.6421 36.0643 97.2431 36.4041 96.7318C36.7439 96.2206 36.9243 95.62 36.9225 95.0061C36.9202 94.185 36.5923 93.3983 36.0109 92.8185C35.4294 92.2387 34.6418 91.9131 33.8206 91.9131ZM33.8304 96.9993C33.4371 97.0002 33.0525 96.8844 32.7251 96.6666C32.3976 96.4489 32.1421 96.1389 31.9909 95.7759C31.8397 95.4129 31.7996 95.0132 31.8755 94.6273C31.9515 94.2415 32.1402 93.8869 32.4178 93.6083C32.6954 93.3298 33.0493 93.1398 33.4349 93.0624C33.8204 92.9851 34.2203 93.0238 34.5838 93.1737C34.9474 93.3236 35.2583 93.578 35.4772 93.9046C35.6962 94.2313 35.8133 94.6155 35.8138 95.0088C35.8145 95.5357 35.606 96.0413 35.2341 96.4146C34.8622 96.7878 34.3573 96.9981 33.8304 96.9993Z" fill="#13375B"/>
<path d="M43.852 94.418C43.9462 94.4576 44.0267 94.5241 44.0833 94.6092C44.1399 94.6944 44.1701 94.7943 44.1701 94.8965V96.9349L23.4805 96.9722C23.481 97.3089 23.548 97.6422 23.6776 97.953C23.8071 98.2638 23.9966 98.546 24.2354 98.7835C24.4741 99.021 24.7573 99.2091 25.0688 99.337C25.3802 99.4649 25.7139 99.5302 26.0506 99.529L41.6159 99.5015C41.9527 99.501 42.2861 99.434 42.5969 99.3045C42.9078 99.1749 43.1901 98.9854 43.4276 98.7467C43.6652 98.508 43.8533 98.2248 43.9814 97.9133C44.1094 97.6018 44.1747 97.2682 44.1737 96.9314V94.893C44.1726 94.791 44.1416 94.6915 44.0844 94.607C44.0272 94.5225 43.9463 94.4568 43.852 94.418Z" fill="#355389"/>
<path d="M52.0631 116.495L45.4108 116.507L45.3984 109.854L52.0516 109.842L52.0631 116.495ZM45.682 116.234L51.791 116.224L51.7804 110.115L45.6705 110.125L45.682 116.234Z" fill="#184655"/>
<path d="M52.0826 127.565L45.4295 127.577L45.418 120.925L52.0702 120.912L52.0826 127.565ZM45.7016 127.305L51.8114 127.294L51.7999 121.184L45.6909 121.196L45.7016 127.305Z" fill="#184655"/>
<path d="M52.1022 138.637L45.4499 138.648L45.4375 131.996L52.0906 131.983L52.1022 138.637ZM45.7211 138.376L51.8301 138.365L51.8194 132.255L45.7096 132.267L45.7211 138.376Z" fill="#184655"/>
<path d="M52.1256 149.706L45.4725 149.717L45.4609 143.064L52.1132 143.053L52.1256 149.706ZM45.7445 149.445L51.8544 149.434L51.8429 143.325L45.7339 143.336L45.7445 149.445Z" fill="#184655"/>
<path d="M42.6055 110.001L14.1328 110.051L14.1345 111.008L42.6072 110.958L42.6055 110.001Z" fill="#9BC1F9"/>
<path d="M42.6094 112.711L14.1367 112.761L14.1384 113.718L42.6111 113.668L42.6094 112.711Z" fill="#9BC1F9"/>
<path d="M42.6173 115.423L14.1445 115.473L14.1462 116.43L42.6189 116.38L42.6173 115.423Z" fill="#9BC1F9"/>
<path d="M42.6251 121.447L14.1523 121.497L14.154 122.454L42.6267 122.405L42.6251 121.447Z" fill="#9BC1F9"/>
<path d="M42.629 124.16L14.1562 124.21L14.1579 125.167L42.6306 125.117L42.629 124.16Z" fill="#9BC1F9"/>
<path d="M42.6329 126.871L14.1602 126.921L14.1618 127.878L42.6345 127.828L42.6329 126.871Z" fill="#9BC1F9"/>
<path d="M42.6446 132.295L14.1719 132.345L14.1735 133.302L42.6463 133.252L42.6446 132.295Z" fill="#9BC1F9"/>
<path d="M42.6485 135.006L14.1758 135.056L14.1775 136.013L42.6502 135.963L42.6485 135.006Z" fill="#9BC1F9"/>
<path d="M42.6524 137.719L14.1797 137.769L14.1814 138.726L42.6541 138.676L42.6524 137.719Z" fill="#9BC1F9"/>
<path d="M42.6641 143.141L14.1914 143.19L14.1931 144.148L42.6658 144.098L42.6641 143.141Z" fill="#9BC1F9"/>
<path d="M42.6719 145.854L14.1992 145.903L14.2009 146.86L42.6736 146.811L42.6719 145.854Z" fill="#9BC1F9"/>
<path d="M42.6758 148.565L14.2031 148.614L14.2048 149.571L42.6775 149.522L42.6758 148.565Z" fill="#9BC1F9"/>
<path d="M47.063 155.57L14.2148 155.627L14.2165 156.584L47.0647 156.527L47.063 155.57Z" fill="#9BC1F9"/>
<path d="M53.5406 157.879L14.2148 157.947L14.2165 158.904L53.5423 158.836L53.5406 157.879Z" fill="#9BC1F9"/>
<path d="M48.7065 115.408L46.6406 111.864L47.3798 111.433L48.5798 113.49L50.5366 108.794L51.3272 109.123L48.7065 115.408Z" fill="#F47458"/>
<path d="M48.726 126.623L46.6602 123.078L47.3993 122.647L48.5984 124.705L50.5561 120.008L51.3467 120.337L48.726 126.623Z" fill="#F47458"/>
<path d="M48.7651 148.551L46.6992 145.006L47.4384 144.575L48.6375 146.633L50.5952 141.936L51.3849 142.265L48.7651 148.551Z" fill="#F47458"/>
<path d="M51.064 133.638L50.4684 133.037L48.7686 134.721L47.0625 133.043L46.4688 133.646L48.1668 135.317L46.475 136.994L47.0705 137.596L48.7704 135.911L50.4764 137.59L51.0702 136.986L49.3712 135.315L51.064 133.638Z" fill="#F47458"/>
<g style="mix-blend-mode:multiply" opacity="0.3">
<path d="M15.4494 140.159C13.8206 140.159 12.2083 140.485 10.707 141.116V142.675C13.1938 141.457 16.0526 141.235 18.6972 142.057C21.3418 142.879 23.572 144.681 24.9303 147.094C26.2887 149.508 26.6724 152.349 26.0027 155.036C25.3331 157.723 23.6608 160.053 21.3288 161.546H23.6641C23.8316 161.396 23.9964 161.24 24.1569 161.078C25.8685 159.361 27.0323 157.174 27.5011 154.794C27.9699 152.415 27.7226 149.95 26.7906 147.712C25.8586 145.473 24.2837 143.561 22.2649 142.217C20.2462 140.873 17.8744 140.158 15.4494 140.163V140.159Z" fill="#9BC1F9"/>
</g>
<g style="mix-blend-mode:multiply" opacity="0.3">
<path d="M15.4563 143.484C13.7777 143.485 12.1336 143.962 10.7148 144.859V145.708C11.9454 144.835 13.3922 144.317 14.8972 144.21C16.4022 144.104 17.9076 144.413 19.2487 145.105C20.5898 145.796 21.7151 146.842 22.5016 148.13C23.2881 149.418 23.7056 150.897 23.7084 152.405C23.7111 153.914 23.2991 155.395 22.5174 156.685C21.7356 157.976 20.6142 159.026 19.2757 159.723C17.9371 160.419 16.4329 160.734 14.9275 160.633C13.4221 160.532 11.9734 160.019 10.7397 159.151V160C11.914 160.733 13.2425 161.183 14.6204 161.314C15.9983 161.446 17.388 161.256 18.6799 160.759C19.9717 160.261 21.1304 159.471 22.0645 158.449C22.9985 157.428 23.6825 156.203 24.0625 154.872C24.4424 153.541 24.5079 152.14 24.2537 150.779C23.9996 149.418 23.4328 148.135 22.5981 147.031C21.7633 145.927 20.6834 145.032 19.4436 144.416C18.2038 143.801 16.8379 143.482 15.4537 143.484H15.4563Z" fill="#9BC1F9"/>
</g>
<path d="M24.0873 106.91V103.72H22.8164V103.44H25.7579V103.72H24.4879V106.91H24.0873Z" fill="#184655"/>
<path d="M29.0068 106.63V106.909H26.457V103.442H28.9164V103.722H26.8505V104.936H28.3439V105.215H26.8505V106.633L29.0068 106.63Z" fill="#184655"/>
<path d="M29.4141 106.079L29.7588 105.964C29.8524 106.185 30.0059 106.374 30.2019 106.512C30.4015 106.635 30.6331 106.697 30.8675 106.689C31.0999 106.701 31.3297 106.636 31.5216 106.504C31.6 106.449 31.6637 106.376 31.707 106.291C31.7503 106.206 31.7718 106.112 31.7697 106.016C31.7717 105.943 31.7584 105.869 31.7304 105.801C31.7025 105.733 31.6607 105.671 31.6075 105.619C31.4456 105.487 31.2579 105.39 31.0563 105.335C30.9154 105.29 30.7275 105.235 30.4944 105.171C30.3437 105.133 30.1957 105.085 30.0513 105.027C29.8821 104.959 29.7305 104.853 29.6082 104.718C29.5191 104.602 29.4731 104.459 29.4779 104.313C29.4728 104.182 29.5 104.051 29.5572 103.933C29.6144 103.814 29.6997 103.712 29.8058 103.634C30.0226 103.469 30.3234 103.387 30.708 103.387C31.0023 103.376 31.294 103.446 31.5508 103.59C31.7819 103.737 31.9594 103.954 32.0569 104.21L31.7201 104.299C31.6319 104.103 31.4895 103.937 31.3098 103.82C31.1214 103.712 30.9065 103.659 30.6894 103.666C30.4835 103.657 30.2802 103.715 30.1107 103.832C30.041 103.881 29.9844 103.946 29.9458 104.021C29.9071 104.097 29.8877 104.181 29.8891 104.266C29.888 104.33 29.9001 104.393 29.9249 104.451C29.9496 104.51 29.9863 104.562 30.0327 104.606C30.1604 104.715 30.3123 104.792 30.4758 104.831C30.5529 104.854 30.6655 104.886 30.8126 104.926C31.0923 104.993 31.3652 105.085 31.6279 105.201C31.7934 105.28 31.9386 105.396 32.0524 105.54C32.1417 105.667 32.188 105.819 32.1845 105.975C32.1888 106.115 32.1588 106.255 32.097 106.381C32.0352 106.507 31.9436 106.616 31.83 106.699C31.5937 106.876 31.2731 106.965 30.8684 106.965C30.555 106.977 30.2443 106.903 29.9706 106.749C29.7213 106.588 29.5271 106.354 29.4141 106.079Z" fill="#184655"/>
<path d="M33.8334 106.91V103.72H32.5625V103.44H35.504V103.72H34.2331V106.91H33.8334Z" fill="#184655"/>
<path d="M36.2617 106.909V103.442H36.6588V106.909H36.2617Z" fill="#184655"/>
<path d="M38.2605 103.693V106.909H37.875V103.442H38.522L40.579 106.367V103.442H40.9645V106.909H40.5409L38.2605 103.693Z" fill="#184655"/>
<path d="M44.604 106.52C44.4631 106.671 44.2894 106.788 44.0962 106.863C43.878 106.943 43.6469 106.981 43.4146 106.977C42.8829 106.977 42.4776 106.823 42.1987 106.516C41.9198 106.209 41.7807 105.764 41.7813 105.181C41.7813 104.605 41.9233 104.16 42.2075 103.847C42.4917 103.533 42.8941 103.377 43.4146 103.376C43.7993 103.376 44.1065 103.459 44.3363 103.625C44.5662 103.791 44.7366 104.052 44.8477 104.408L44.4728 104.471C44.4058 104.228 44.2667 104.012 44.074 103.85C43.8807 103.711 43.6463 103.641 43.4084 103.651C43.022 103.651 42.7233 103.78 42.5124 104.039C42.3015 104.298 42.196 104.665 42.196 105.14C42.196 105.652 42.303 106.039 42.5168 106.3C42.7307 106.561 43.0483 106.691 43.4696 106.691C43.7423 106.705 44.0117 106.627 44.2353 106.47C44.3274 106.403 44.4019 106.315 44.4523 106.213C44.5028 106.111 44.5278 105.999 44.5251 105.885V105.514H43.4616V105.253H44.9585V106.906H44.604V106.52Z" fill="#184655"/>
<path opacity="0.6" d="M128.708 60.7539H115.852V73.6108H128.708V60.7539Z" fill="#9BC1F9"/>
<path opacity="0.6" d="M156.062 60.7539H130.98V62.5007H156.062V60.7539Z" fill="#9BC1F9"/>
<path opacity="0.6" d="M147.906 64.457H130.98V66.2038H147.906V64.457Z" fill="#9BC1F9"/>
<path opacity="0.6" d="M153.509 68.1602H130.98V69.907H153.509V68.1602Z" fill="#9BC1F9"/>
</svg>
