<svg width="174" height="174" viewBox="0 0 174 174" fill="none" xmlns="http://www.w3.org/2000/svg">
<g clip-path="url(#clip0_747_97)">
<g opacity="0.61">
<path opacity="0.74" d="M43.6295 59.2522L3.55326 59.7419C2.72346 59.752 2.059 60.4329 2.06914 61.2627L2.88413 127.967C2.89427 128.797 3.57517 129.462 4.40497 129.452L44.4812 128.962C45.311 128.952 45.9755 128.271 45.9654 127.441L45.1504 60.7364C45.1402 59.9066 44.4593 59.2421 43.6295 59.2522Z" fill="#8755F5"/>
<path d="M45.2994 60.7143L45.3476 64.6789L2.26312 65.2046L2.21493 61.1655C2.20617 60.3682 2.84138 59.7199 3.63867 59.7067L43.7661 59.2205C44.6028 59.2117 45.2862 59.882 45.2994 60.7143Z" fill="#5013E8"/>
<path d="M5.17101 63.229C4.68037 63.229 4.28172 62.8391 4.27734 62.3484C4.27734 61.8578 4.66723 61.4592 5.15787 61.4548C5.64851 61.4548 6.04716 61.8447 6.05154 62.3353C6.05154 62.8259 5.66165 63.2246 5.17101 63.229ZM5.16225 61.8096C4.86874 61.8096 4.63218 62.0506 4.63218 62.3441C4.63218 62.6376 4.87312 62.8741 5.16663 62.8741C5.46014 62.8741 5.6967 62.6332 5.6967 62.3397C5.6967 62.0462 5.45576 61.8096 5.16225 61.8096Z" fill="white"/>
<path d="M8.14757 63.2069C7.65693 63.2069 7.25829 62.817 7.25391 62.3264C7.25391 61.8358 7.64379 61.4371 8.13443 61.4327C8.62507 61.4327 9.02372 61.8226 9.0281 62.3133C9.0281 62.8039 8.63822 63.2026 8.14757 63.2069ZM8.13881 61.7876C7.8453 61.7876 7.60875 62.0285 7.60875 62.322C7.60875 62.6155 7.84969 62.8521 8.14319 62.8521C8.4367 62.8521 8.67326 62.6112 8.67326 62.3176C8.67326 62.0241 8.43232 61.7876 8.13881 61.7876Z" fill="white"/>
<path d="M11.0226 63.1851C10.5319 63.1851 10.1333 62.7953 10.1289 62.3046C10.1289 61.814 10.5188 61.4153 11.0094 61.4109C11.5001 61.4109 11.8987 61.8008 11.9031 62.2915C11.9031 62.7821 11.5132 63.1808 11.0226 63.1851ZM11.0138 61.7658C10.7203 61.7658 10.4837 62.0067 10.4837 62.3002C10.4837 62.5937 10.7247 62.8303 11.0182 62.8303C11.3117 62.8303 11.5483 62.5894 11.5483 62.2959C11.5483 62.0023 11.3073 61.7658 11.0138 61.7658Z" fill="white"/>
<path d="M25.8634 71.3595L5.95297 71.5084C5.75584 71.5084 5.59813 71.3507 5.59375 71.1579C5.59375 70.9608 5.75146 70.8031 5.94421 70.7987L25.8546 70.6498C26.0517 70.6498 26.2094 70.8075 26.2138 71.0002C26.2138 71.1974 26.0561 71.3551 25.8634 71.3595Z" fill="white"/>
<path d="M32.4981 71.307L28.367 71.3377C28.1699 71.3377 28.0122 71.18 28.0078 70.9872C28.0078 70.7901 28.1655 70.6324 28.3583 70.628L32.4893 70.5974C32.6864 70.5974 32.8441 70.7551 32.8485 70.9478C32.8485 71.1449 32.6908 71.3026 32.4981 71.307Z" fill="#5013E8"/>
<path d="M25.9845 87.888L6.07406 88.037C5.87693 88.037 5.71922 87.8793 5.71484 87.6865C5.71484 87.4894 5.87255 87.3317 6.0653 87.3273L25.9757 87.1783C26.1728 87.1783 26.3305 87.3361 26.3349 87.5288C26.3349 87.7259 26.1772 87.8836 25.9845 87.888Z" fill="white"/>
<path d="M32.627 87.8355L28.4959 87.8662C28.2988 87.8662 28.1411 87.7085 28.1367 87.5157C28.1367 87.3186 28.2944 87.1609 28.4872 87.1565L32.6182 87.1259C32.8153 87.1259 32.973 87.2836 32.9774 87.4763C32.9774 87.6734 32.8197 87.8311 32.627 87.8355Z" fill="#599AF2"/>
<path d="M25.9142 79.2494L6.00375 79.3983C5.80662 79.3983 5.64891 79.2406 5.64453 79.0478C5.64453 78.8507 5.80224 78.693 5.99499 78.6886L25.9054 78.5397C26.1025 78.5397 26.2602 78.6974 26.2646 78.8901C26.2646 79.0873 26.1069 79.245 25.9142 79.2494Z" fill="#599AF2"/>
<path d="M32.5527 79.1968L28.4217 79.2275C28.2246 79.2275 28.0669 79.0698 28.0625 78.877C28.0625 78.6799 28.2202 78.5222 28.413 78.5178L32.544 78.4871C32.7411 78.4871 32.8988 78.6448 32.9032 78.8376C32.9032 79.0347 32.7455 79.1924 32.5527 79.1968Z" fill="white"/>
<path d="M39.3613 79.1441L35.2303 79.1748C35.0332 79.1748 34.8755 79.0171 34.8711 78.8243C34.8711 78.6272 35.0288 78.4695 35.2216 78.4651L39.3526 78.4344C39.5497 78.4344 39.7074 78.5922 39.7118 78.7849C39.7118 78.982 39.5541 79.1397 39.3613 79.1441Z" fill="#5013E8"/>
<path d="M19.2539 75.2891L5.98031 75.3898C5.78318 75.3898 5.62547 75.2321 5.62109 75.0394C5.62109 74.8423 5.7788 74.6845 5.97155 74.6802L19.2452 74.5794C19.4423 74.5794 19.6 74.7371 19.6044 74.9299C19.6044 75.127 19.4467 75.2847 19.2539 75.2891Z" fill="#5013E8"/>
<path d="M27.5171 75.2276L21.6952 75.2714C21.498 75.2714 21.3403 75.1137 21.3359 74.921C21.3359 74.7238 21.4936 74.5661 21.6864 74.5618L27.5084 74.5179C27.7055 74.5179 27.8632 74.6756 27.8676 74.8684C27.8676 75.0655 27.7099 75.2232 27.5171 75.2276Z" fill="#F54469"/>
<path d="M27.5859 83.5423L14.3123 83.6431C14.1152 83.6431 13.9575 83.4854 13.9531 83.2926C13.9531 83.0955 14.1108 82.9378 14.3036 82.9334L27.5772 82.8326C27.7743 82.8326 27.932 82.9903 27.9364 83.1831C27.9364 83.3802 27.7787 83.5379 27.5859 83.5423Z" fill="#5013E8"/>
<path d="M11.8648 83.6607L6.04281 83.7045C5.84568 83.7045 5.68797 83.5468 5.68359 83.354C5.68359 83.1569 5.8413 82.9992 6.03405 82.9948L11.856 82.951C12.0532 82.951 12.2109 83.1087 12.2153 83.3014C12.2153 83.4986 12.0576 83.6563 11.8648 83.6607Z" fill="#F54469"/>
<path d="M26.0274 93.4603L6.11703 93.6092C5.9199 93.6092 5.76219 93.4515 5.75781 93.2588C5.75781 93.0616 5.91552 92.9039 6.10827 92.8996L26.0187 92.7506C26.2158 92.7506 26.3735 92.9083 26.3779 93.1011C26.3779 93.2982 26.2202 93.4559 26.0274 93.4603Z" fill="#F54469"/>
<path d="M32.6699 93.4078L28.5389 93.4385C28.3418 93.4385 28.1841 93.2808 28.1797 93.088C28.1797 92.8909 28.3374 92.7332 28.5301 92.7288L32.6612 92.6981C32.8583 92.6981 33.016 92.8558 33.0204 93.0486C33.0204 93.2457 32.8627 93.4034 32.6699 93.4078Z" fill="#5013E8"/>
<path d="M26.1524 109.989L6.24203 110.138C6.0449 110.138 5.88719 109.98 5.88281 109.787C5.88281 109.59 6.04052 109.432 6.23327 109.428L26.1437 109.279C26.3408 109.279 26.4985 109.437 26.5029 109.63C26.5029 109.827 26.3452 109.984 26.1524 109.989Z" fill="white"/>
<path d="M32.7988 109.936L28.6678 109.967C28.4707 109.967 28.313 109.809 28.3086 109.617C28.3086 109.419 28.4663 109.262 28.6591 109.257L32.7901 109.227C32.9872 109.227 33.1449 109.384 33.1493 109.577C33.1493 109.774 32.9916 109.932 32.7988 109.936Z" fill="#599AF2"/>
<path d="M26.086 101.35L6.17563 101.499C5.97849 101.499 5.82079 101.341 5.81641 101.149C5.81641 100.951 5.97411 100.794 6.16686 100.789L26.0773 100.64C26.2744 100.64 26.4321 100.798 26.4365 100.991C26.4365 101.188 26.2788 101.346 26.086 101.35Z" fill="#599AF2"/>
<path d="M32.7246 101.297L28.5936 101.328C28.3965 101.328 28.2388 101.17 28.2344 100.978C28.2344 100.781 28.3921 100.623 28.5848 100.618L32.7159 100.588C32.913 100.588 33.0707 100.745 33.0751 100.938C33.0751 101.135 32.9174 101.293 32.7246 101.297Z" fill="white"/>
<path d="M39.5294 101.245L35.3984 101.276C35.2012 101.276 35.0435 101.118 35.0391 100.925C35.0348 100.732 35.1969 100.57 35.3896 100.566L39.5206 100.535C39.7178 100.535 39.8755 100.693 39.8798 100.886C39.8798 101.083 39.7221 101.24 39.5294 101.245Z" fill="#5013E8"/>
<path d="M19.4219 97.3899L6.14828 97.4906C5.95115 97.4906 5.79344 97.3329 5.78906 97.1402C5.78906 96.943 5.94677 96.7853 6.13952 96.7809L19.4131 96.6802C19.6103 96.6802 19.768 96.8379 19.7723 97.0306C19.7723 97.2278 19.6146 97.3855 19.4219 97.3899Z" fill="#5013E8"/>
<path d="M27.689 97.3285L21.867 97.3723C21.6699 97.3723 21.5122 97.2146 21.5078 97.0218C21.5078 96.8247 21.6655 96.667 21.8583 96.6626L27.6803 96.6188C27.8774 96.6188 28.0351 96.7765 28.0395 96.9692C28.0395 97.1664 27.8818 97.3241 27.689 97.3285Z" fill="#F54469"/>
<path d="M27.7461 105.643L14.4725 105.744C14.2754 105.744 14.1177 105.586 14.1133 105.393C14.1133 105.196 14.271 105.038 14.4637 105.034L27.7373 104.933C27.9345 104.933 28.0922 105.091 28.0966 105.284C28.0966 105.481 27.9389 105.639 27.7461 105.643Z" fill="#5013E8"/>
<path d="M12.0328 105.761L6.21078 105.805C6.01365 105.805 5.85594 105.647 5.85156 105.455C5.85156 105.258 6.00927 105.1 6.20202 105.095L12.024 105.052C12.2211 105.052 12.3788 105.209 12.3832 105.402C12.3832 105.599 12.2255 105.757 12.0328 105.761Z" fill="#F54469"/>
<path d="M26.1954 115.101L6.285 115.25C6.08787 115.25 5.93016 115.092 5.92578 114.9C5.92578 114.702 6.08349 114.545 6.27624 114.54L26.1866 114.391C26.3838 114.391 26.5415 114.549 26.5459 114.742C26.5459 114.939 26.3882 115.097 26.1954 115.101Z" fill="#F54469"/>
<path d="M32.834 115.049L28.703 115.079C28.5058 115.079 28.3481 114.922 28.3438 114.729C28.3438 114.532 28.5015 114.374 28.6942 114.37L32.8252 114.339C33.0224 114.339 33.1801 114.497 33.1845 114.689C33.1845 114.886 33.0267 115.044 32.834 115.049Z" fill="#5013E8"/>
<path d="M32.9082 125.488L28.7772 125.519C28.5801 125.519 28.4223 125.361 28.418 125.168C28.418 124.971 28.5757 124.813 28.7684 124.809L32.8995 124.778C33.0966 124.778 33.2543 124.936 33.2587 125.129C33.2587 125.326 33.101 125.483 32.9082 125.488Z" fill="white"/>
<path d="M39.7129 125.435L35.5819 125.466C35.3847 125.466 35.227 125.308 35.2227 125.115C35.2227 124.918 35.3804 124.761 35.5731 124.756L39.7041 124.726C39.9013 124.726 40.059 124.883 40.0634 125.076C40.0634 125.273 39.9057 125.431 39.7129 125.435Z" fill="#5013E8"/>
<path d="M19.5899 119.031L6.31625 119.131C6.11912 119.131 5.96141 118.974 5.95703 118.781C5.95703 118.584 6.11474 118.426 6.30749 118.422L19.5811 118.321C19.7782 118.321 19.9359 118.479 19.9403 118.671C19.9403 118.868 19.7826 119.026 19.5899 119.031Z" fill="#5013E8"/>
<path d="M27.8492 118.969L22.0272 119.013C21.8301 119.013 21.6723 118.855 21.668 118.663C21.668 118.466 21.8257 118.308 22.0184 118.303L27.8404 118.26C28.0375 118.26 28.1953 118.417 28.1996 118.61C28.1996 118.807 28.0419 118.965 27.8492 118.969Z" fill="#F54469"/>
</g>
<path d="M39.5352 26.7329V35.5513L39.5395 37.6015L39.5483 62.081L39.5702 109.984L39.579 134.464V136.514V142.472C39.579 145.162 41.2787 147.448 43.6574 148.342C44.3452 148.6 45.0812 148.745 45.8565 148.745H50.3293L99.5818 148.723C100.9 148.723 102.118 148.316 103.126 147.623C104.773 146.493 105.855 144.596 105.855 142.445L105.802 26.7067C105.802 24.7791 104.931 23.0531 103.559 21.9054C102.477 20.981 101.067 20.4291 99.5336 20.4291L45.8084 20.451C42.3432 20.451 39.5352 23.2634 39.5352 26.7286V26.7329Z" fill="#4C65BA"/>
<path d="M39.9849 28.9234V37.457L39.9892 39.4371L39.998 63.1237L40.0199 109.472L40.0287 133.158V135.138V140.904C40.0287 143.506 41.7021 145.718 44.0502 146.581C44.7248 146.831 45.4564 146.971 46.2186 146.971H50.63L99.1991 146.949C100.496 146.949 101.701 146.555 102.695 145.884C104.32 144.789 105.385 142.954 105.385 140.877L105.337 28.9015C105.337 27.0353 104.474 25.3662 103.124 24.2535C102.047 23.3686 100.662 22.8298 99.1466 22.8298L46.1661 22.8517C42.7491 22.8517 39.9805 25.5721 39.9805 28.9277L39.9849 28.9234Z" fill="#3E479B"/>
<path d="M102.338 38.0659L102.378 131.082C102.378 131.914 101.703 132.584 100.875 132.589L44.5347 132.615C43.7023 132.615 43.0321 131.94 43.0277 131.113L42.9883 38.0965C42.9883 37.2642 43.6629 36.5896 44.4909 36.5896L100.831 36.5633C101.664 36.5633 102.334 37.2379 102.338 38.0659Z" fill="white"/>
<path d="M102.334 38.0264V44.0587L42.9883 44.085V37.9826C42.9883 37.1853 43.6279 36.5414 44.4252 36.5414L100.818 36.5151C101.655 36.5151 102.334 37.1941 102.334 38.0264Z" fill="#599AF2"/>
<path d="M95.0081 39.4414C94.8854 39.4414 94.7891 39.345 94.7891 39.2223C94.7891 39.0997 94.8854 39.0033 95.0081 39.0033H99.4589C99.5816 39.0033 99.678 39.0997 99.678 39.2223C99.678 39.345 99.5816 39.4414 99.4589 39.4414H95.0081Z" fill="white"/>
<path d="M95.0081 40.5803C94.8854 40.5803 94.7891 40.484 94.7891 40.3613C94.7891 40.2386 94.8854 40.1423 95.0081 40.1423H99.4589C99.5816 40.1423 99.678 40.2386 99.678 40.3613C99.678 40.484 99.5816 40.5803 99.4589 40.5803H95.0081Z" fill="white"/>
<path d="M95.0081 41.7193C94.8854 41.7193 94.7891 41.6229 94.7891 41.5003C94.7891 41.3776 94.8854 41.2812 95.0081 41.2812H99.4589C99.5816 41.2812 99.678 41.3776 99.678 41.5003C99.678 41.6229 99.5816 41.7193 99.4589 41.7193H95.0081Z" fill="white"/>
<path d="M48.2929 42.4422C48.236 42.4422 48.179 42.4203 48.1396 42.3765L46.5231 40.76C46.3829 40.6198 46.3829 40.392 46.5231 40.2562L48.0783 38.7011C48.1659 38.6135 48.3017 38.6135 48.3893 38.7011C48.4769 38.7843 48.4769 38.9245 48.3893 39.0121L46.8911 40.5103L48.4506 42.0699C48.5382 42.1531 48.5382 42.2933 48.4506 42.3809C48.4068 42.4247 48.3499 42.4466 48.2973 42.4466L48.2929 42.4422Z" fill="white"/>
<path d="M72.7093 30.9955C71.8244 30.9955 71.1016 30.277 71.1016 29.3878C71.1016 28.5028 71.82 27.78 72.7093 27.78C73.5942 27.78 74.317 28.4985 74.317 29.3878C74.317 30.2727 73.5986 30.9955 72.7093 30.9955ZM72.7093 28.4634C72.1967 28.4634 71.785 28.8796 71.785 29.3921C71.785 29.9003 72.2011 30.3165 72.7093 30.3165C72.9546 30.3165 73.1868 30.2201 73.362 30.0449C73.5372 29.8696 73.6336 29.6375 73.6336 29.3878C73.6336 29.1381 73.5372 28.9103 73.362 28.735C73.1868 28.5598 72.9546 28.4634 72.7093 28.4634Z" fill="white"/>
<path d="M71.1818 144.154C70.6123 144.154 70.1523 143.69 70.1523 143.125V140.08C70.1523 139.51 70.6123 139.05 71.1818 139.05H74.2264C74.7959 139.05 75.2559 139.51 75.2559 140.08V143.125C75.2559 143.694 74.7959 144.154 74.2264 144.154H71.1818ZM74.2264 139.484H71.1818C70.8533 139.484 70.5904 139.751 70.5904 140.08V143.125C70.5904 143.453 70.8576 143.716 71.1862 143.716H74.2308C74.5594 143.716 74.8222 143.449 74.8222 143.12V140.076C74.8222 139.747 74.555 139.484 74.2264 139.484Z" fill="white"/>
<path d="M52.8558 139.983C52.7331 139.983 52.6367 139.887 52.6367 139.764C52.6367 139.642 52.7331 139.545 52.8558 139.545H55.7865C55.9091 139.545 56.0055 139.642 56.0055 139.764C56.0055 139.887 55.9091 139.983 55.7865 139.983H52.8558Z" fill="white"/>
<path d="M52.8558 141.565C52.7331 141.565 52.6367 141.468 52.6367 141.346C52.6367 141.223 52.7331 141.127 52.8558 141.127H55.7865C55.9091 141.127 56.0055 141.223 56.0055 141.346C56.0055 141.468 55.9091 141.565 55.7865 141.565H52.8558Z" fill="white"/>
<path d="M52.8558 143.168C52.7331 143.168 52.6367 143.072 52.6367 142.949C52.6367 142.826 52.7331 142.73 52.8558 142.73H55.7865C55.9091 142.73 56.0055 142.826 56.0055 142.949C56.0055 143.072 55.9091 143.168 55.7865 143.168H52.8558Z" fill="white"/>
<path d="M93.3209 144.145C93.2639 144.145 93.207 144.123 93.1675 144.079L90.8633 141.775L93.1062 139.528C93.1938 139.44 93.3296 139.44 93.4172 139.528C93.5049 139.615 93.5049 139.751 93.4172 139.839L91.481 141.775L93.4742 143.768C93.5618 143.856 93.5618 143.992 93.4742 144.079C93.4304 144.123 93.3734 144.145 93.3209 144.145Z" fill="white"/>
<path opacity="0.36" d="M102.332 44.1639H43.0742V63.5706H102.332V44.1639Z" fill="#599AF2"/>
<path opacity="0.43" d="M69.8207 48.0892H48.5435C48.2023 48.0892 47.9258 48.3657 47.9258 48.7069V52.2815C47.9258 52.6227 48.2023 52.8992 48.5435 52.8992H69.8207C70.1618 52.8992 70.4383 52.6227 70.4383 52.2815V48.7069C70.4383 48.3657 70.1618 48.0892 69.8207 48.0892Z" fill="white"/>
<path opacity="0.43" d="M81.5084 55.589H48.5435C48.2023 55.589 47.9258 55.8655 47.9258 56.2067V57.3763C47.9258 57.7175 48.2023 57.994 48.5435 57.994H81.5084C81.8496 57.994 82.1261 57.7175 82.1261 57.3763V56.2067C82.1261 55.8655 81.8496 55.589 81.5084 55.589Z" fill="white"/>
<path opacity="0.43" d="M95.036 57.5908C93.8225 57.5908 92.6791 57.1177 91.8205 56.2591C90.9619 55.4005 90.4888 54.2571 90.4844 53.0436C90.4844 51.8302 90.9575 50.6868 91.8161 49.8238C92.6747 48.9652 93.8181 48.4921 95.0316 48.4877C96.245 48.4877 97.3884 48.9608 98.247 49.8194C99.1056 50.678 99.5788 51.8214 99.5831 53.0349C99.5831 54.2483 99.11 55.3917 98.2514 56.2547C97.3928 57.1133 96.2494 57.5864 95.036 57.5908ZM95.036 49.3638C94.0547 49.3638 93.1303 49.7449 92.4382 50.4415C91.746 51.138 91.3605 52.058 91.3649 53.0392C91.3649 54.0205 91.746 54.9449 92.4426 55.637C93.1347 56.3292 94.059 56.7103 95.0403 56.7103C96.0216 56.7103 96.9459 56.3292 97.6381 55.6326C98.3303 54.9361 98.7158 54.0161 98.7114 53.0349C98.7114 52.0536 98.3303 51.1292 97.6337 50.4371C96.9416 49.7449 96.0172 49.3638 95.036 49.3638Z" fill="white"/>
<path d="M60.1059 70.6149H50.3062C49.203 70.6149 48.3086 71.5093 48.3086 72.6125V82.4122C48.3086 83.5155 49.203 84.4098 50.3062 84.4098H60.1059C61.2091 84.4098 62.1035 83.5155 62.1035 82.4122V72.6125C62.1035 71.5093 61.2091 70.6149 60.1059 70.6149Z" fill="#4C65BA"/>
<g opacity="0.36">
<path d="M58.1839 77.5759C58.1839 79.2187 56.8521 80.5548 55.2094 80.5548C53.5666 80.5548 52.2305 79.223 52.2305 77.5803C52.2305 75.9375 53.5622 74.6014 55.205 74.6014C56.8478 74.6014 58.1839 75.9331 58.1839 77.5759Z" fill="#599AF2"/>
</g>
<g opacity="0.26">
<path d="M72.765 72.757H65.0111C64.7353 72.757 64.5117 72.9805 64.5117 73.2564V74.7327C64.5117 75.0085 64.7353 75.2321 65.0111 75.2321H72.765C73.0408 75.2321 73.2644 75.0085 73.2644 74.7327V73.2564C73.2644 72.9805 73.0408 72.757 72.765 72.757Z" fill="#3E479B"/>
<path d="M64.5162 79.0344C64.2753 79.0344 64.0781 78.8373 64.0781 78.5964C64.0781 78.3554 64.2753 78.1583 64.5162 78.1583L79.4545 78.1495C79.6954 78.1495 79.8926 78.3467 79.8926 78.5876C79.8926 78.8285 79.6954 79.0257 79.4545 79.0257L64.5162 79.0344Z" fill="#3E479B"/>
<path d="M64.5162 82.1624C64.2753 82.1624 64.0781 81.9653 64.0781 81.7244C64.0781 81.4834 64.2753 81.2863 64.5162 81.2863L88.8774 81.2775C89.1184 81.2775 89.3155 81.4747 89.3155 81.7156C89.3155 81.9565 89.1184 82.1537 88.8774 82.1537L64.5162 82.1624Z" fill="#3E479B"/>
<path d="M82.7818 79.0258C82.5409 79.0258 82.3438 78.8286 82.3438 78.5877C82.3438 78.3467 82.5409 78.1496 82.7818 78.1496H97.7201C97.961 78.1452 98.1582 78.338 98.1582 78.5789C98.1582 78.8199 97.961 79.017 97.7201 79.017H82.7818V79.0258Z" fill="#3E479B"/>
</g>
<path d="M60.1332 110.742H50.3335C49.2303 110.742 48.3359 111.637 48.3359 112.74V122.54C48.3359 123.643 49.2303 124.537 50.3335 124.537H60.1332C61.2365 124.537 62.1309 123.643 62.1309 122.54V112.74C62.1309 111.637 61.2365 110.742 60.1332 110.742Z" fill="#599AF2"/>
<g opacity="0.57">
<path d="M58.1995 117.708C58.1995 119.35 56.8678 120.687 55.225 120.687C53.5822 120.687 52.2461 119.355 52.2461 117.712C52.2461 116.069 53.5778 114.733 55.2206 114.733C56.8634 114.733 58.1995 116.065 58.1995 117.708Z" fill="#3E479B"/>
</g>
<g opacity="0.26">
<path d="M72.7728 112.889H65.0189C64.7431 112.889 64.5195 113.113 64.5195 113.389V114.865C64.5195 115.141 64.7431 115.364 65.0189 115.364H72.7728C73.0486 115.364 73.2722 115.141 73.2722 114.865V113.389C73.2722 113.113 73.0486 112.889 72.7728 112.889Z" fill="#3E479B"/>
<path d="M64.524 119.167C64.2831 119.167 64.0859 118.97 64.0859 118.729C64.0859 118.488 64.2831 118.291 64.524 118.291H79.4623V118.286C79.7032 118.286 79.9004 118.483 79.9004 118.724C79.9004 118.965 79.7032 119.162 79.4623 119.162H64.524V119.167Z" fill="#3E479B"/>
<path d="M64.524 122.295C64.2831 122.295 64.0859 122.098 64.0859 121.857C64.0859 121.616 64.2831 121.418 64.524 121.418L88.8852 121.41C89.1262 121.41 89.3233 121.607 89.3233 121.848C89.3233 122.089 89.1262 122.286 88.8852 122.286L64.524 122.295Z" fill="#3E479B"/>
<path d="M82.7896 119.158C82.5487 119.158 82.3516 118.961 82.3516 118.72C82.3516 118.479 82.5487 118.282 82.7896 118.282H97.7279C97.9689 118.277 98.166 118.47 98.166 118.716C98.166 118.961 97.9689 119.154 97.7279 119.154H82.7896V119.158Z" fill="#3E479B"/>
</g>
<path d="M60.1332 90.6305H50.3336C49.2303 90.6305 48.3359 91.5249 48.3359 92.6281V102.428C48.3359 103.531 49.2303 104.425 50.3336 104.425H60.1332C61.2365 104.425 62.1309 103.531 62.1309 102.428V92.6281C62.1309 91.5249 61.2365 90.6305 60.1332 90.6305Z" fill="#F54469"/>
<path opacity="0.43" d="M58.2112 97.5958C58.2112 99.2386 56.8795 100.575 55.2367 100.575C53.5939 100.575 52.2578 99.243 52.2578 97.6002C52.2578 95.9575 53.5896 94.6213 55.2323 94.6213C56.8751 94.6213 58.2112 95.9531 58.2112 97.5958Z" fill="white"/>
<g opacity="0.26">
<path d="M72.7806 92.777H65.0267C64.7509 92.777 64.5273 93.0006 64.5273 93.2764V94.7528C64.5273 95.0286 64.7509 95.2522 65.0267 95.2522H72.7806C73.0564 95.2522 73.28 95.0286 73.28 94.7528V93.2764C73.28 93.0006 73.0564 92.777 72.7806 92.777Z" fill="#3E479B"/>
<path d="M64.5318 99.0547C64.2909 99.0547 64.0938 98.8576 64.0938 98.6167C64.0938 98.3757 64.2909 98.1786 64.5318 98.1786H71.4402C71.6812 98.1786 71.8783 98.3757 71.8783 98.6167C71.8783 98.8576 71.6812 99.0547 71.4402 99.0547H64.5318Z" fill="#3E479B"/>
<path d="M64.5318 102.182C64.2909 102.182 64.0938 101.985 64.0938 101.744C64.0938 101.503 64.2909 101.306 64.5318 101.306H78.7122V101.302C78.9532 101.302 79.1503 101.499 79.1503 101.74C79.1503 101.981 78.9532 102.178 78.7122 102.178H64.5318V102.182Z" fill="#3E479B"/>
<path d="M74.3287 99.0502C74.0878 99.0502 73.8906 98.8531 73.8906 98.6122C73.8906 98.3712 74.0878 98.1741 74.3287 98.1741H88.128C88.3689 98.1697 88.5661 98.3625 88.5661 98.6078C88.5661 98.8531 88.3689 99.0459 88.128 99.0459H74.3287V99.0502Z" fill="#3E479B"/>
<path d="M90.6959 99.0416C90.4549 99.0416 90.2578 98.8444 90.2578 98.6035C90.2578 98.3625 90.4549 98.1654 90.6959 98.1654H97.6043C97.8452 98.1654 98.0424 98.3582 98.0424 98.5991C98.0424 98.84 97.8452 99.0372 97.6043 99.0372H90.6959V99.0416Z" fill="#3E479B"/>
</g>
<path opacity="0.39" d="M145.805 103.137L117.784 103.479C116.954 103.489 116.289 104.17 116.3 105L116.876 152.194C116.886 153.024 117.567 153.689 118.397 153.679L146.418 153.336C147.248 153.326 147.913 152.645 147.903 151.815L147.326 104.621C147.316 103.791 146.635 103.127 145.805 103.137Z" fill="white"/>
<path opacity="0.39" d="M145.805 103.137L117.784 103.479C116.954 103.489 116.289 104.17 116.3 105L116.876 152.194C116.886 153.024 117.567 153.689 118.397 153.679L146.418 153.336C147.248 153.326 147.913 152.645 147.903 151.815L147.326 104.621C147.316 103.791 146.635 103.127 145.805 103.137Z" fill="#F54469"/>
<path d="M147.423 104.618L147.453 107.049L116.429 107.426L116.399 104.92C116.39 104.123 117.025 103.474 117.822 103.461L145.894 103.12C146.731 103.111 147.414 103.781 147.427 104.613L147.423 104.618Z" fill="#F54469"/>
<path d="M118.527 106.002C118.176 106.002 117.887 105.722 117.883 105.367C117.883 105.016 118.163 104.727 118.518 104.723C118.868 104.723 119.158 105.003 119.162 105.358C119.162 105.709 118.882 105.998 118.527 106.002ZM118.518 104.981C118.308 104.981 118.137 105.157 118.137 105.367C118.137 105.577 118.312 105.748 118.522 105.748C118.733 105.748 118.904 105.573 118.904 105.362C118.904 105.152 118.728 104.981 118.518 104.981Z" fill="white"/>
<path d="M120.66 105.989C120.309 105.989 120.02 105.709 120.016 105.354C120.011 104.999 120.296 104.714 120.651 104.71C121.001 104.71 121.29 104.99 121.295 105.345C121.295 105.696 121.014 105.985 120.66 105.989ZM120.651 104.968C120.441 104.968 120.27 105.144 120.27 105.354C120.27 105.564 120.445 105.735 120.655 105.735C120.866 105.735 121.036 105.56 121.036 105.349C121.036 105.139 120.861 104.968 120.651 104.968Z" fill="white"/>
<path d="M122.734 105.971C122.383 105.971 122.094 105.691 122.09 105.336C122.09 104.986 122.37 104.697 122.725 104.692C123.076 104.692 123.365 104.973 123.369 105.327C123.369 105.678 123.089 105.967 122.734 105.971ZM122.725 104.951C122.515 104.951 122.344 105.126 122.344 105.336C122.344 105.547 122.519 105.717 122.729 105.717C122.94 105.717 123.111 105.542 123.111 105.332C123.111 105.122 122.935 104.951 122.725 104.951Z" fill="white"/>
<path d="M133.421 111.859L119.083 111.969C118.942 111.969 118.824 111.855 118.824 111.715C118.824 111.574 118.938 111.456 119.078 111.456L133.416 111.347C133.557 111.347 133.675 111.46 133.675 111.601C133.675 111.741 133.561 111.859 133.421 111.859Z" fill="white"/>
<path d="M138.206 111.82L135.231 111.842C135.091 111.842 134.973 111.728 134.973 111.588C134.973 111.447 135.087 111.329 135.227 111.329L138.201 111.307C138.341 111.307 138.46 111.421 138.46 111.561C138.46 111.701 138.346 111.82 138.206 111.82Z" fill="white"/>
<path d="M133.511 123.762L119.173 123.871C119.032 123.871 118.914 123.757 118.914 123.617C118.914 123.477 119.028 123.359 119.168 123.359L133.506 123.249C133.646 123.249 133.765 123.363 133.765 123.503C133.765 123.643 133.651 123.762 133.511 123.762Z" fill="white"/>
<path d="M138.295 123.726L135.321 123.748C135.181 123.748 135.062 123.634 135.062 123.494C135.062 123.354 135.176 123.236 135.317 123.236L138.291 123.214C138.431 123.214 138.55 123.328 138.55 123.468C138.55 123.608 138.436 123.726 138.295 123.726Z" fill="white"/>
<path d="M133.464 117.537L119.126 117.646C118.985 117.646 118.867 117.532 118.867 117.392C118.867 117.252 118.981 117.134 119.121 117.134L133.459 117.024C133.6 117.024 133.718 117.138 133.718 117.278C133.718 117.418 133.604 117.537 133.464 117.537Z" fill="white"/>
<path d="M138.245 117.501L135.27 117.523C135.13 117.523 135.012 117.41 135.012 117.269C135.012 117.129 135.126 117.011 135.266 117.011L138.24 116.989C138.38 116.989 138.499 117.103 138.499 117.243C138.499 117.383 138.385 117.501 138.245 117.501Z" fill="white"/>
<path d="M143.155 117.466L140.18 117.488C140.04 117.488 139.922 117.374 139.922 117.234C139.922 117.094 140.036 116.976 140.176 116.976L143.15 116.954C143.291 116.954 143.409 117.068 143.409 117.208C143.409 117.348 143.295 117.466 143.155 117.466Z" fill="white"/>
<path d="M128.669 114.689L119.11 114.764C118.97 114.764 118.852 114.65 118.852 114.509C118.852 114.369 118.965 114.251 119.106 114.251L128.664 114.177C128.805 114.177 128.923 114.29 128.923 114.431C128.923 114.571 128.809 114.689 128.669 114.689Z" fill="white"/>
<path d="M134.619 114.645L130.426 114.676C130.286 114.676 130.168 114.562 130.168 114.422C130.168 114.282 130.282 114.163 130.422 114.163L134.614 114.133C134.755 114.133 134.873 114.247 134.873 114.387C134.873 114.527 134.759 114.645 134.619 114.645Z" fill="white"/>
<path d="M134.657 120.629L125.098 120.704C124.958 120.704 124.84 120.59 124.84 120.45C124.84 120.31 124.954 120.191 125.094 120.191L134.653 120.117C134.793 120.117 134.911 120.231 134.911 120.371C134.911 120.511 134.797 120.629 134.657 120.629Z" fill="white"/>
<path d="M123.349 120.717L119.157 120.748C119.017 120.748 118.898 120.634 118.898 120.494C118.898 120.353 119.012 120.235 119.153 120.235L123.345 120.204C123.485 120.204 123.603 120.318 123.603 120.458C123.603 120.599 123.489 120.717 123.349 120.717Z" fill="white"/>
<path d="M133.546 127.774L119.208 127.884C119.067 127.884 118.949 127.77 118.949 127.63C118.949 127.49 119.063 127.371 119.203 127.371L133.541 127.262C133.682 127.262 133.8 127.376 133.8 127.516C133.8 127.656 133.686 127.774 133.546 127.774Z" fill="white"/>
<path d="M138.323 127.739L135.348 127.761C135.208 127.761 135.09 127.647 135.09 127.507C135.09 127.367 135.204 127.249 135.344 127.249L138.318 127.227C138.459 127.227 138.577 127.341 138.577 127.481C138.577 127.621 138.463 127.739 138.323 127.739Z" fill="white"/>
<path d="M133.64 139.677L119.301 139.786C119.161 139.786 119.043 139.672 119.043 139.532C119.043 139.392 119.157 139.274 119.297 139.274L133.635 139.164C133.775 139.164 133.894 139.278 133.894 139.418C133.894 139.558 133.78 139.677 133.64 139.677Z" fill="white"/>
<path d="M138.413 139.642L135.438 139.664C135.298 139.664 135.18 139.55 135.18 139.41C135.18 139.269 135.294 139.151 135.434 139.151L138.408 139.129C138.548 139.129 138.667 139.243 138.667 139.383C138.667 139.524 138.553 139.642 138.413 139.642Z" fill="white"/>
<path d="M133.593 133.456L119.255 133.566C119.114 133.566 118.996 133.452 118.996 133.312C118.996 133.171 119.11 133.053 119.25 133.053L133.588 132.944C133.728 132.944 133.847 133.058 133.847 133.198C133.847 133.338 133.733 133.456 133.593 133.456Z" fill="white"/>
<path d="M138.374 133.417L135.399 133.439C135.259 133.439 135.141 133.325 135.141 133.185C135.141 133.044 135.255 132.926 135.395 132.926L138.369 132.904C138.509 132.904 138.628 133.018 138.628 133.158C138.628 133.298 138.514 133.417 138.374 133.417Z" fill="white"/>
<path d="M143.268 133.382L140.294 133.404C140.153 133.404 140.035 133.29 140.035 133.15C140.035 133.009 140.149 132.891 140.289 132.891L143.264 132.869C143.404 132.869 143.522 132.983 143.522 133.123C143.522 133.263 143.408 133.382 143.268 133.382Z" fill="white"/>
<path d="M128.794 130.604L119.235 130.679C119.095 130.679 118.977 130.565 118.977 130.425C118.977 130.285 119.09 130.166 119.231 130.166L128.789 130.092C128.93 130.092 129.048 130.206 129.048 130.346C129.048 130.486 128.934 130.604 128.794 130.604Z" fill="white"/>
<path d="M134.744 130.561L130.551 130.591C130.411 130.591 130.293 130.477 130.293 130.337C130.293 130.197 130.407 130.079 130.547 130.079L134.739 130.048C134.88 130.048 134.998 130.162 134.998 130.302C134.998 130.442 134.884 130.561 134.744 130.561Z" fill="white"/>
<path d="M134.786 136.545L125.227 136.619C125.087 136.619 124.969 136.505 124.969 136.365C124.969 136.225 125.083 136.107 125.223 136.107L134.782 136.032C134.922 136.032 135.04 136.146 135.04 136.286C135.04 136.426 134.926 136.545 134.786 136.545Z" fill="white"/>
<path d="M123.466 136.632L119.274 136.663C119.134 136.663 119.016 136.549 119.016 136.409C119.016 136.269 119.13 136.15 119.27 136.15L123.462 136.12C123.602 136.12 123.721 136.234 123.721 136.374C123.721 136.514 123.607 136.632 123.466 136.632Z" fill="white"/>
<path d="M133.671 143.357L119.333 143.466C119.192 143.466 119.074 143.352 119.074 143.212C119.074 143.072 119.188 142.954 119.328 142.954L133.666 142.844C133.807 142.844 133.925 142.958 133.925 143.098C133.925 143.238 133.811 143.357 133.671 143.357Z" fill="white"/>
<path d="M138.448 143.322L135.473 143.343C135.333 143.343 135.215 143.23 135.215 143.089C135.215 142.949 135.329 142.831 135.469 142.831L138.443 142.809C138.584 142.809 138.702 142.923 138.702 143.063C138.702 143.203 138.588 143.322 138.448 143.322Z" fill="white"/>
<path d="M138.503 150.839L135.528 150.861C135.388 150.861 135.27 150.747 135.27 150.607C135.27 150.467 135.383 150.348 135.524 150.348L138.498 150.326C138.638 150.326 138.757 150.44 138.757 150.58C138.757 150.721 138.643 150.839 138.503 150.839Z" fill="white"/>
<path d="M143.397 150.799L140.423 150.821C140.282 150.821 140.164 150.707 140.164 150.567C140.164 150.427 140.278 150.309 140.418 150.309L143.393 150.287C143.533 150.287 143.651 150.401 143.651 150.541C143.651 150.681 143.537 150.799 143.397 150.799Z" fill="white"/>
<path d="M128.907 146.191L119.348 146.265C119.208 146.265 119.09 146.151 119.09 146.011C119.09 145.871 119.204 145.753 119.344 145.753L128.903 145.678C129.043 145.678 129.161 145.792 129.161 145.932C129.161 146.073 129.047 146.191 128.907 146.191Z" fill="white"/>
<path d="M134.857 146.143L130.665 146.173C130.525 146.173 130.406 146.059 130.406 145.919C130.406 145.779 130.52 145.661 130.66 145.661L134.853 145.63C134.993 145.63 135.111 145.744 135.111 145.884C135.111 146.024 134.997 146.143 134.857 146.143Z" fill="white"/>
<path opacity="0.22" d="M154.534 31.1608L120.795 31.5083C119.966 31.5168 119.3 32.1964 119.308 33.0263L119.89 89.4733C119.898 90.3031 120.578 90.9689 121.408 90.9604L155.146 90.6129C155.976 90.6044 156.642 89.9248 156.633 89.0949L156.052 32.6479C156.043 31.8181 155.364 31.1523 154.534 31.1608Z" fill="#3E479B"/>
<path d="M152.522 28.5488L118.784 28.8963C117.954 28.9048 117.288 29.5844 117.297 30.4143L117.878 86.8613C117.887 87.6911 118.566 88.3569 119.396 88.3484L153.135 88.0009C153.964 87.9924 154.63 87.3128 154.622 86.4829L154.04 30.0359C154.032 29.2061 153.352 28.5403 152.522 28.5488Z" fill="white"/>
<path d="M154.168 30.0272L154.199 33.1857L117.453 33.5625L117.418 30.3295C117.409 29.5322 118.049 28.8839 118.842 28.8751L152.63 28.529C153.467 28.5203 154.15 29.1905 154.159 30.0272H154.168Z" fill="#599AF2"/>
<path d="M149.629 30.4564C149.511 30.4564 149.41 30.3601 149.41 30.2374C149.41 30.1147 149.507 30.0184 149.629 30.0184L152.385 29.9921C152.49 29.9746 152.604 30.0885 152.604 30.2111C152.604 30.3338 152.507 30.4302 152.385 30.4302L149.629 30.4564Z" fill="white"/>
<path d="M149.637 31.1617C149.519 31.1617 149.418 31.0653 149.418 30.9426C149.418 30.82 149.514 30.7236 149.637 30.7236L152.392 30.6973C152.493 30.6973 152.612 30.7937 152.612 30.9164C152.612 31.039 152.515 31.1354 152.392 31.1354L149.637 31.1617Z" fill="white"/>
<path d="M149.649 31.8671C149.53 31.8671 149.43 31.7708 149.43 31.6481C149.43 31.5254 149.526 31.4291 149.649 31.4291L152.404 31.4028C152.522 31.4028 152.623 31.4991 152.623 31.6218C152.623 31.7445 152.527 31.8408 152.404 31.8408L149.649 31.8671Z" fill="white"/>
<path d="M120.729 32.5987C120.672 32.5987 120.619 32.5768 120.576 32.5374L119.564 31.5473C119.445 31.429 119.441 31.2363 119.559 31.118L120.514 30.1455C120.602 30.0579 120.738 30.0579 120.825 30.1455C120.913 30.2287 120.913 30.3689 120.825 30.4565L119.967 31.3327L120.882 32.2307C120.97 32.3139 120.97 32.4541 120.882 32.5417C120.838 32.5855 120.781 32.6075 120.724 32.6075L120.729 32.5987Z" fill="white"/>
<path opacity="0.36" d="M153.049 88.1113L119.199 88.3041C118.384 88.3084 117.719 87.6513 117.714 86.8321L117.648 75.1005L154.455 74.8947L154.521 86.6262C154.525 87.4411 153.868 88.1069 153.049 88.1113Z" fill="#599AF2"/>
<path d="M143.244 38.9768L128.459 39.0594C128.188 39.0609 127.97 39.2818 127.971 39.5528L127.981 41.1692C127.982 41.4402 128.203 41.6586 128.474 41.6571L143.259 41.5745C143.53 41.573 143.748 41.3521 143.747 41.0812L143.737 39.4647C143.736 39.1937 143.515 38.9753 143.244 38.9768Z" fill="#4C65BA"/>
<path opacity="0.32" d="M123.861 47.6361L147.959 47.5015C149.102 47.4952 150.036 48.4187 150.043 49.562L150.046 50.0702C150.052 51.2135 149.128 52.1474 147.985 52.1538L123.887 52.2884C122.744 52.2948 121.81 51.3713 121.803 50.2279L121.801 49.7198C121.794 48.5764 122.718 47.6425 123.861 47.6361Z" fill="#599AF2"/>
<path opacity="0.43" d="M125.67 49.9682C125.674 50.7611 125.034 51.4051 124.246 51.4095C123.453 51.4138 122.809 50.7742 122.805 49.9857C122.8 49.1972 123.44 48.5488 124.228 48.5445C125.021 48.5401 125.665 49.1797 125.67 49.9682Z" fill="white"/>
<path d="M124.739 49.5601C124.739 49.8445 124.512 50.0763 124.227 50.0763C123.943 50.0763 123.711 49.8488 123.711 49.5645C123.711 49.2801 123.938 49.0482 124.223 49.0482C124.507 49.0482 124.739 49.2757 124.739 49.5601Z" fill="white"/>
<path d="M125.002 50.8969L123.473 50.9057V50.7173C123.473 50.2748 123.827 49.9112 124.27 49.9069C124.673 49.9069 124.997 50.2267 125.002 50.6297V50.8969Z" fill="white"/>
<path opacity="0.32" d="M123.888 55.2188L147.986 55.0842C149.13 55.0778 150.064 56.0013 150.07 57.1447L150.073 57.6528C150.079 58.7962 149.156 59.7301 148.012 59.7364L123.914 59.871C122.771 59.8774 121.837 58.9539 121.831 57.8106L121.828 57.3024C121.822 56.159 122.745 55.2252 123.888 55.2188Z" fill="#599AF2"/>
<path opacity="0.43" d="M125.697 57.5513C125.701 58.3442 125.062 58.9881 124.273 58.9925C123.48 58.9969 122.836 58.3573 122.832 57.5688C122.828 56.7759 123.467 56.1319 124.256 56.1275C125.049 56.1231 125.693 56.7627 125.697 57.5513Z" fill="white"/>
<path d="M123.773 57.3267L124.735 57.3213C124.814 57.3209 124.876 57.3818 124.876 57.4605L124.881 58.3136C124.881 58.3924 124.82 58.454 124.742 58.4544L123.779 58.4598C123.7 58.4602 123.639 58.3993 123.638 58.3206L123.634 57.4675C123.633 57.3887 123.694 57.3271 123.773 57.3267Z" fill="white"/>
<path d="M123.754 57.4277V57.0734C123.754 56.9815 123.789 56.894 123.855 56.824C123.921 56.7584 124.008 56.719 124.1 56.719H124.424C124.507 56.719 124.586 56.7496 124.647 56.8109C124.708 56.8721 124.739 56.9509 124.739 57.034V57.4234H124.634V57.034C124.634 56.9771 124.608 56.929 124.573 56.8896C124.533 56.8502 124.485 56.8284 124.428 56.8284H124.1C124.034 56.8284 123.973 56.8546 123.929 56.9027C123.886 56.9465 123.859 57.0077 123.859 57.0734V57.4277H123.75H123.754Z" fill="white"/>
<path d="M141.667 68.2051L131.272 68.262C130.014 68.2708 128.989 67.2544 128.981 65.9972C128.972 64.7399 129.988 63.7148 131.245 63.7061L141.641 63.6491C142.898 63.6403 143.923 64.6567 143.932 65.9139C143.941 67.1712 142.924 68.1963 141.667 68.2051Z" fill="#F54469"/>
<path d="M126.032 79.9412C125.791 79.9412 125.594 79.7484 125.594 79.5075C125.594 79.2665 125.786 79.0694 126.027 79.065L146.144 78.9511C146.385 78.9511 146.582 79.1439 146.582 79.3848C146.582 79.6257 146.389 79.8229 146.148 79.8273L126.032 79.9412Z" fill="white"/>
<path d="M130.122 82.9639C129.881 82.9639 129.684 82.7712 129.684 82.5303C129.684 82.2893 129.876 82.0922 130.117 82.0878L142.077 82.0221C142.318 82.0221 142.515 82.2148 142.515 82.4558C142.515 82.6967 142.322 82.8939 142.081 82.8982L130.122 82.9639Z" fill="white"/>
<path opacity="0.22" d="M128.847 69.4834L95.108 69.8308C94.2782 69.8394 93.6124 70.519 93.6209 71.3488L94.2022 127.796C94.2108 128.626 94.8904 129.291 95.7202 129.283L129.459 128.935C130.289 128.927 130.954 128.247 130.946 127.418L130.365 70.9704C130.356 70.1406 129.676 69.4749 128.847 69.4834Z" fill="#3E479B"/>
<path d="M126.843 66.8668L93.1041 67.2143C92.2743 67.2228 91.6085 67.9024 91.617 68.7322L92.1983 125.179C92.2069 126.009 92.8865 126.675 93.7163 126.666L127.455 126.319C128.285 126.31 128.95 125.631 128.942 124.801L128.361 68.3539C128.352 67.5241 127.672 66.8583 126.843 66.8668Z" fill="white"/>
<path opacity="0.42" d="M126.843 66.8668L93.1041 67.2143C92.2743 67.2228 91.6085 67.9024 91.617 68.7322L92.1983 125.179C92.2069 126.009 92.8865 126.675 93.7163 126.666L127.455 126.319C128.285 126.31 128.95 125.631 128.942 124.801L128.361 68.3539C128.352 67.5241 127.672 66.8583 126.843 66.8668Z" fill="#599AF2"/>
<path d="M128.484 68.3499L128.515 71.5084L91.7695 71.8852L91.7345 68.6522C91.7257 67.8549 92.3653 67.2065 93.1582 67.1978L126.947 66.8517C127.783 66.8429 128.467 67.5132 128.476 68.3499H128.484Z" fill="#599AF2"/>
<path d="M123.95 68.7748C123.831 68.7748 123.73 68.6785 123.73 68.5558C123.73 68.4331 123.827 68.3368 123.95 68.3368L126.705 68.3105C126.806 68.3105 126.924 68.4069 126.924 68.5295C126.924 68.6522 126.828 68.7486 126.705 68.7486L123.95 68.7748Z" fill="white"/>
<path d="M123.953 69.48C123.835 69.48 123.734 69.3837 123.734 69.261C123.734 69.1383 123.831 69.042 123.953 69.042L126.709 69.0157C126.827 69.0157 126.928 69.1121 126.928 69.2347C126.928 69.3574 126.832 69.4538 126.709 69.4538L123.953 69.48Z" fill="white"/>
<path d="M123.961 70.1854C123.843 70.1854 123.742 70.089 123.742 69.9663C123.742 69.8437 123.839 69.7473 123.961 69.7473L126.717 69.721C126.835 69.721 126.936 69.8174 126.936 69.94C126.936 70.0627 126.839 70.1591 126.717 70.1591L123.961 70.1854Z" fill="white"/>
<path d="M95.0453 70.917C94.9883 70.917 94.9357 70.8951 94.8919 70.8557L93.88 69.8656C93.7617 69.7473 93.7573 69.5546 93.8756 69.4363L94.8306 68.4638C94.9182 68.3762 95.054 68.3762 95.1416 68.4638C95.2293 68.547 95.2293 68.6872 95.1416 68.7748L94.283 69.651L95.1986 70.549C95.2862 70.6322 95.2862 70.7724 95.1986 70.86C95.1548 70.9038 95.0978 70.9257 95.0409 70.9257L95.0453 70.917Z" fill="white"/>
<g opacity="0.36">
<path d="M127.362 126.429L93.5117 126.622C92.6969 126.627 92.031 125.97 92.0267 125.15L91.9609 113.419L128.768 113.213L128.834 124.944C128.838 125.759 128.181 126.425 127.362 126.429Z" fill="white"/>
<path d="M93.5032 126.841C93.052 126.841 92.6315 126.666 92.3117 126.351C91.9875 126.031 91.8123 125.606 91.8079 125.155L91.7422 113.204L128.987 112.994L129.053 124.944C129.057 125.882 128.299 126.644 127.366 126.653L93.5164 126.846H93.5076L93.5032 126.841ZM92.1803 113.642L92.246 125.155C92.246 125.492 92.3818 125.807 92.6183 126.044C92.8549 126.281 93.1703 126.408 93.5032 126.408H93.512L127.362 126.215C128.054 126.215 128.619 125.641 128.615 124.949L128.549 113.436L92.1803 113.642Z" fill="white"/>
</g>
<path d="M97.1885 79.6971L97.1918 77.0511C97.1924 76.578 97.5739 76.1974 98.0471 76.1979L124.581 76.2304C125.054 76.2309 125.435 76.6125 125.434 77.0856L125.431 79.7316C125.43 80.2047 125.049 80.5854 124.576 80.5848L98.0417 80.5524C97.5686 80.5518 97.188 80.1702 97.1885 79.6971Z" fill="white"/>
<path d="M124.703 83.9629L97.9064 83.9278C97.5078 83.9278 97.1836 83.6036 97.1836 83.205C97.1836 82.8064 97.5078 82.4822 97.9064 82.4822L124.703 82.5172C125.102 82.5172 125.426 82.8414 125.426 83.24C125.426 83.6387 125.102 83.9629 124.703 83.9629Z" fill="white"/>
<path d="M124.699 87.2924L97.9025 87.2573C97.5039 87.2573 97.1797 86.9332 97.1797 86.5345C97.1797 86.1359 97.5039 85.8117 97.9025 85.8117L124.699 85.8468C125.098 85.8468 125.422 86.1709 125.422 86.5696C125.422 86.9682 125.098 87.2924 124.699 87.2924Z" fill="white"/>
<path d="M100.804 92.1724C100.804 93.1756 99.9887 93.9861 98.9855 93.9861C97.9823 93.9861 97.1719 93.1712 97.1719 92.1681C97.1719 91.1649 97.9867 90.3544 98.9899 90.3544C99.9931 90.3544 100.804 91.1693 100.804 92.1724Z" fill="#F54469"/>
<path d="M100.796 100.408C100.796 101.411 99.9809 102.222 98.9777 102.222C97.9745 102.222 97.1641 101.407 97.1641 100.404C97.1641 99.4005 97.9789 98.59 98.9821 98.59C99.9852 98.59 100.796 99.4048 100.796 100.408Z" fill="#F54469"/>
<path d="M100.784 108.403C100.784 109.406 99.9692 110.221 98.966 110.217C97.9628 110.217 97.1523 109.402 97.1523 108.399C97.1523 107.396 97.9672 106.585 98.9703 106.585C99.9735 106.585 100.784 107.4 100.784 108.403Z" fill="#F54469"/>
<path d="M119.223 91.5285L101.84 91.5066C101.717 91.5066 101.621 91.4102 101.621 91.2876C101.621 91.1649 101.717 91.0685 101.84 91.0685L119.223 91.0904C119.346 91.0904 119.442 91.1868 119.442 91.3095C119.442 91.4321 119.346 91.5285 119.223 91.5285Z" fill="white"/>
<path d="M110.531 93.3641L101.84 93.3554C101.717 93.3554 101.621 93.259 101.621 93.1363C101.621 93.0137 101.717 92.9173 101.84 92.9173L110.531 92.9261C110.654 92.9261 110.751 93.0224 110.751 93.1451C110.751 93.2678 110.654 93.3641 110.531 93.3641Z" fill="white"/>
<path d="M119.211 100.036L101.828 100.014C101.706 100.014 101.609 99.9175 101.609 99.7948C101.609 99.6722 101.706 99.5758 101.828 99.5758L119.211 99.5977C119.334 99.5977 119.43 99.6941 119.43 99.8167C119.43 99.9394 119.334 100.036 119.211 100.036Z" fill="white"/>
<path d="M110.516 101.871L101.825 101.863C101.702 101.863 101.605 101.766 101.605 101.644C101.605 101.521 101.702 101.425 101.825 101.425L110.516 101.433C110.639 101.433 110.735 101.53 110.735 101.652C110.735 101.775 110.639 101.871 110.516 101.871Z" fill="white"/>
<path d="M119.196 107.803L101.813 107.781C101.69 107.781 101.594 107.685 101.594 107.562C101.594 107.439 101.69 107.343 101.813 107.343L119.196 107.365C119.318 107.365 119.415 107.461 119.415 107.584C119.415 107.706 119.318 107.803 119.196 107.803Z" fill="white"/>
<path d="M110.504 109.638L101.813 109.63C101.69 109.63 101.594 109.533 101.594 109.411C101.594 109.288 101.69 109.192 101.813 109.192L110.504 109.2C110.627 109.2 110.723 109.297 110.723 109.419C110.723 109.542 110.627 109.638 110.504 109.638Z" fill="white"/>
<path d="M100.333 118.26C100.092 118.26 99.8945 118.067 99.8945 117.826C99.8945 117.585 100.087 117.388 100.328 117.384L120.445 117.27C120.685 117.27 120.883 117.462 120.883 117.703C120.883 117.944 120.69 118.141 120.449 118.146L100.333 118.26Z" fill="white"/>
<path d="M104.422 121.282C104.182 121.282 103.984 121.09 103.984 120.849C103.984 120.608 104.177 120.411 104.418 120.406L116.377 120.341C116.618 120.341 116.816 120.533 116.816 120.774C116.816 121.015 116.623 121.212 116.382 121.217L104.422 121.282Z" fill="white"/>
<path d="M50.7474 48.4132H19.342C18.9525 48.4132 18.6367 48.729 18.6367 49.1185V58.2479C18.6367 58.6375 18.9525 58.9532 19.342 58.9532H50.7474C51.137 58.9532 51.4527 58.6375 51.4527 58.2479V49.1185C51.4527 48.729 51.137 48.4132 50.7474 48.4132Z" fill="#599AF2"/>
<path d="M24.149 56.8768C22.2784 56.8768 20.7539 55.3567 20.7539 53.4817C20.7539 51.6068 22.2784 50.0867 24.149 50.0867C26.0195 50.0867 27.544 51.6112 27.544 53.4817C27.544 55.3523 26.0195 56.8768 24.149 56.8768Z" fill="#F54469"/>
<path d="M23.8579 54.7565L22.5874 52.9998C22.4779 52.8509 22.513 52.6406 22.6619 52.5311C22.7364 52.4785 22.824 52.4566 22.9116 52.4698C22.9992 52.4829 23.0781 52.5311 23.1307 52.6056L23.9367 53.7226L27.9714 49.688C28.0327 49.6267 28.1159 49.5916 28.2079 49.5916C28.2955 49.5916 28.3831 49.6267 28.4445 49.688C28.5759 49.8194 28.5759 50.0297 28.4445 50.1611L23.8535 54.7521L23.8579 54.7565Z" fill="white"/>
<path opacity="0.38" d="M47.2096 52.1632H30.4183C30.2956 52.1632 30.1992 52.0668 30.1992 51.9441C30.1992 51.8215 30.2956 51.7251 30.4183 51.7251H47.2096C47.3322 51.7251 47.4286 51.8215 47.4286 51.9441C47.4286 52.0668 47.3322 52.1632 47.2096 52.1632Z" fill="white"/>
<path opacity="0.38" d="M37.9185 54.1519H30.4143C30.2917 54.1519 30.1953 54.0556 30.1953 53.9329C30.1953 53.8102 30.2917 53.7139 30.4143 53.7139H37.9185C38.0412 53.7139 38.1376 53.8102 38.1376 53.9329C38.1376 54.0556 38.0412 54.1519 37.9185 54.1519Z" fill="white"/>
<path opacity="0.38" d="M47.2154 54.1519H39.7112C39.5886 54.1519 39.4922 54.0556 39.4922 53.9329C39.4922 53.8102 39.5886 53.7139 39.7112 53.7139H47.2154C47.3381 53.7139 47.4344 53.8102 47.4344 53.9329C47.4344 54.0556 47.3381 54.1519 47.2154 54.1519Z" fill="white"/>
<path opacity="0.38" d="M47.2096 56.2371H30.4183C30.2956 56.2371 30.1992 56.1407 30.1992 56.018C30.1992 55.8954 30.2956 55.799 30.4183 55.799H47.2096C47.3322 55.799 47.4286 55.8954 47.4286 56.018C47.4286 56.1407 47.3322 56.2371 47.2096 56.2371Z" fill="white"/>
<path d="M170.861 96.8422H139.455C139.066 96.8422 138.75 97.158 138.75 97.5475V106.677C138.75 107.066 139.066 107.382 139.455 107.382H170.861C171.25 107.382 171.566 107.066 171.566 106.677V97.5475C171.566 97.158 171.25 96.8422 170.861 96.8422Z" fill="#599AF2"/>
<path d="M144.258 105.306C142.388 105.306 140.863 103.781 140.863 101.911C140.863 100.04 142.388 98.5154 144.258 98.5154C146.129 98.5154 147.653 100.04 147.653 101.911C147.653 103.781 146.129 105.306 144.258 105.306Z" fill="#F54469"/>
<path d="M143.968 103.19L142.698 101.433C142.645 101.359 142.623 101.271 142.637 101.183C142.65 101.096 142.698 101.017 142.772 100.964C142.842 100.912 142.93 100.89 143.022 100.903C143.11 100.916 143.189 100.964 143.241 101.039L144.047 102.156L148.082 98.1213C148.213 97.9898 148.423 97.9898 148.555 98.1213C148.686 98.2527 148.686 98.463 148.555 98.5944L143.964 103.185L143.968 103.19Z" fill="white"/>
<path opacity="0.38" d="M167.319 100.592H150.528C150.405 100.592 150.309 100.496 150.309 100.373C150.309 100.25 150.405 100.154 150.528 100.154H167.319C167.442 100.154 167.538 100.25 167.538 100.373C167.538 100.496 167.442 100.592 167.319 100.592Z" fill="white"/>
<path opacity="0.38" d="M158.032 102.585H150.528C150.405 102.585 150.309 102.489 150.309 102.366C150.309 102.244 150.405 102.147 150.528 102.147H158.032C158.154 102.147 158.251 102.244 158.251 102.366C158.251 102.489 158.154 102.585 158.032 102.585Z" fill="white"/>
<path opacity="0.38" d="M167.325 102.585H159.821C159.698 102.585 159.602 102.489 159.602 102.366C159.602 102.244 159.698 102.147 159.821 102.147H167.325C167.447 102.147 167.544 102.244 167.544 102.366C167.544 102.489 167.447 102.585 167.325 102.585Z" fill="white"/>
<path opacity="0.38" d="M167.319 104.67H150.528C150.405 104.67 150.309 104.574 150.309 104.451C150.309 104.329 150.405 104.232 150.528 104.232H167.319C167.442 104.232 167.538 104.329 167.538 104.451C167.538 104.574 167.442 104.67 167.319 104.67Z" fill="white"/>
</g>
<defs>
<clipPath id="clip0_747_97">
<rect width="169.495" height="133.262" fill="white" transform="translate(2.07031 20.4293)"/>
</clipPath>
</defs>
</svg>
