<svg width="148" height="148" viewBox="0 0 148 148" fill="none" xmlns="http://www.w3.org/2000/svg">
<g filter="url(#filter0_d_2030_311)">
<circle cx="74" cy="72" r="60" fill="white"/>
</g>
<path d="M39.711 56.6L39 57.8807V94.9038C39 97.347 40.9805 99.3275 43.4236 99.3275H105.576C108.019 99.3275 110 97.347 110 94.9038V57.8807L109.289 56.6H39.711Z" fill="#DDEAFB"/>
<path d="M102.756 56.6V87.6602C102.756 90.1033 100.776 92.0838 98.3328 92.0838H39V94.9037C39 97.3468 40.9805 99.3273 43.4236 99.3273H105.576C108.019 99.3273 110 97.3468 110 94.9037V57.8807L109.289 56.6H102.756Z" fill="#CBE2FF"/>
<path d="M105.576 45.6725H43.4236C40.9805 45.6725 39 47.6531 39 50.0962V57.8807H110V50.0962C110 47.6531 108.019 45.6725 105.576 45.6725Z" fill="#698ED5"/>
<path d="M105.578 45.6725H102.758V57.8807H110.001V50.0962C110.001 47.6531 108.021 45.6725 105.578 45.6725Z" fill="#4073C8"/>
<path d="M47.012 53.7613C48.1081 53.7613 48.9967 52.8727 48.9967 51.7766C48.9967 50.6805 48.1081 49.7919 47.012 49.7919C45.9159 49.7919 45.0273 50.6805 45.0273 51.7766C45.0273 52.8727 45.9159 53.7613 47.012 53.7613Z" fill="#DD636E"/>
<path d="M53.1175 53.7613C54.2136 53.7613 55.1022 52.8727 55.1022 51.7766C55.1022 50.6805 54.2136 49.7919 53.1175 49.7919C52.0214 49.7919 51.1328 50.6805 51.1328 51.7766C51.1328 52.8727 52.0214 53.7613 53.1175 53.7613Z" fill="#FFE07D"/>
<path d="M59.223 53.7613C60.3191 53.7613 61.2076 52.8727 61.2076 51.7766C61.2076 50.6805 60.3191 49.7919 59.223 49.7919C58.1269 49.7919 57.2383 50.6805 57.2383 51.7766C57.2383 52.8727 58.1269 53.7613 59.223 53.7613Z" fill="#86F1A7"/>
<path d="M70.0351 91.1033H45.5352C44.7693 91.1033 44.1484 90.4824 44.1484 89.7165V65.2166C44.1484 64.4507 44.7693 63.8298 45.5352 63.8298H70.035C70.8009 63.8298 71.4217 64.4507 71.4217 65.2166V89.7164C71.4219 90.4824 70.801 91.1033 70.0351 91.1033Z" fill="#FB74C4"/>
<path d="M86.1697 74.5744H78.4844C77.7185 74.5744 77.0977 73.9536 77.0977 73.1877V65.2167C77.0977 64.4508 77.7185 63.83 78.4844 63.83H86.1697C86.9356 63.83 87.5564 64.4508 87.5564 65.2167V73.1877C87.5564 73.9534 86.9356 74.5744 86.1697 74.5744Z" fill="#BED8FB"/>
<path d="M98.2684 91.1582H78.4844C77.7185 91.1582 77.0977 90.5374 77.0977 89.7715V81.8005C77.0977 81.0346 77.7185 80.4138 78.4844 80.4138H98.2684C99.0343 80.4138 99.6551 81.0346 99.6551 81.8005V89.7715C99.6551 90.5374 99.0342 91.1582 98.2684 91.1582Z" fill="#86F1A7"/>
<path d="M97.7245 67.7251H92.0323C91.7482 67.7251 91.4757 67.6122 91.2747 67.4113C91.0738 67.2104 90.9609 66.9379 90.9609 66.6537C90.9609 66.3696 91.0738 66.0971 91.2747 65.8961C91.4757 65.6952 91.7482 65.5823 92.0323 65.5823H97.7245C98.0087 65.5823 98.2812 65.6952 98.4821 65.8961C98.683 66.0971 98.7959 66.3696 98.7959 66.6537C98.7959 66.9379 98.683 67.2104 98.4821 67.4113C98.2812 67.6122 98.0087 67.7251 97.7245 67.7251ZM99.9609 72.3049H92.0323C91.8916 72.3049 91.7523 72.2772 91.6223 72.2233C91.4923 72.1695 91.3742 72.0906 91.2747 71.9911C91.1752 71.8916 91.0963 71.7735 91.0425 71.6435C90.9886 71.5135 90.9609 71.3742 90.9609 71.2335C90.9609 71.0928 90.9886 70.9535 91.0425 70.8235C91.0963 70.6935 91.1752 70.5754 91.2747 70.4759C91.3742 70.3764 91.4923 70.2975 91.6223 70.2437C91.7523 70.1898 91.8916 70.1621 92.0323 70.1621H99.9609C100.102 70.1621 100.241 70.1898 100.371 70.2437C100.501 70.2975 100.619 70.3764 100.718 70.4759C100.818 70.5754 100.897 70.6935 100.951 70.8235C101.005 70.9535 101.032 71.0928 101.032 71.2335C101.032 71.3742 101.005 71.5135 100.951 71.6435C100.897 71.7735 100.818 71.8916 100.718 71.9911C100.619 72.0906 100.501 72.1695 100.371 72.2233C100.241 72.2772 100.102 72.3049 99.9609 72.3049ZM95.1531 76.7965H92.0323C91.7482 76.7965 91.4757 76.6836 91.2747 76.4827C91.0738 76.2817 90.9609 76.0092 90.9609 75.7251C90.9609 75.4409 91.0738 75.1684 91.2747 74.9675C91.4757 74.7666 91.7482 74.6537 92.0323 74.6537H95.1531C95.4343 74.6582 95.7024 74.7731 95.8996 74.9735C96.0969 75.1739 96.2074 75.4439 96.2074 75.7251C96.2074 76.0063 96.0969 76.2762 95.8996 76.4766C95.7024 76.6771 95.4343 76.7919 95.1531 76.7965Z" fill="#698ED5"/>
<path d="M62.9124 76.8795L55.1024 72.3705C54.5448 72.0485 53.8477 72.4509 53.8477 73.0949V82.1131C53.8477 82.757 54.5446 83.1594 55.1024 82.8376L62.9124 78.3285C63.47 78.0062 63.47 77.2014 62.9124 76.8795Z" fill="#DD5CA2"/>
<defs>
<filter id="filter0_d_2030_311" x="0.666667" y="0.571429" width="146.667" height="146.667" filterUnits="userSpaceOnUse" color-interpolation-filters="sRGB">
<feFlood flood-opacity="0" result="BackgroundImageFix"/>
<feColorMatrix in="SourceAlpha" type="matrix" values="0 0 0 0 0 0 0 0 0 0 0 0 0 0 0 0 0 0 127 0" result="hardAlpha"/>
<feOffset dy="1.90476"/>
<feGaussianBlur stdDeviation="6.66667"/>
<feComposite in2="hardAlpha" operator="out"/>
<feColorMatrix type="matrix" values="0 0 0 0 0.695898 0 0 0 0 0.695898 0 0 0 0 0.695898 0 0 0 0.25 0"/>
<feBlend mode="normal" in2="BackgroundImageFix" result="effect1_dropShadow_2030_311"/>
<feBlend mode="normal" in="SourceGraphic" in2="effect1_dropShadow_2030_311" result="shape"/>
</filter>
</defs>
</svg>
