<svg width="148" height="148" viewBox="0 0 148 148" fill="none" xmlns="http://www.w3.org/2000/svg">
<g filter="url(#filter0_d_1273_331)">
<circle cx="74" cy="72" r="60" fill="white"/>
</g>
<path d="M93.8474 52.9329L90.3792 51.8352C89.3722 51.5163 88.4809 50.827 87.9111 49.8401C87.3413 48.8532 87.1899 47.7367 87.4174 46.7051L88.0825 43.0232C85.8638 40.9475 83.1694 39.3747 80.1801 38.4854L77.4955 40.94C76.7159 41.6528 75.6732 42.0799 74.5337 42.0799C74.523 42.0799 74.5126 42.0792 74.502 42.0792L64.1016 57.5452L74.502 73.0113C75.6291 73.0192 76.6597 73.4444 77.4321 74.1505L80.288 76.5674C83.1952 75.6838 85.9044 74.1368 88.1692 71.9926L87.3858 68.4403C87.1583 67.4087 87.3097 66.2923 87.8795 65.3053C88.4493 64.3184 89.3405 63.6291 90.3476 63.3103L93.8687 62.0453C94.557 59.086 94.5719 55.9663 93.8474 52.9329Z" fill="#5D5D63"/>
<path d="M71.5691 40.9401L68.7131 38.5232C65.8062 39.4068 63.0968 40.9538 60.832 43.098L61.6154 46.6503C61.8429 47.6819 61.6915 48.7984 61.1217 49.7853C60.5519 50.7721 59.6606 51.4616 58.6536 51.7804L55.1325 53.0453C54.4441 56.0047 54.4292 59.1246 55.1538 62.1579L58.6219 63.2556C59.629 63.5744 60.5201 64.2639 61.0899 65.2507C61.6597 66.2375 61.8112 67.354 61.5836 68.3856L60.9185 72.0675C63.1373 74.1433 65.8317 75.7161 68.8209 76.6054L71.5056 74.1508C72.2852 73.438 73.3279 73.0109 74.4673 73.0109C74.478 73.0109 74.4884 73.0116 74.4991 73.0116V42.0793C73.3721 42.0714 72.3415 41.6462 71.5691 40.9401Z" fill="#6D6D76"/>
<path d="M74.499 50.9166L71.3789 57.5453L74.499 64.1739C78.16 64.1739 81.1277 61.2062 81.1277 57.5453C81.1277 53.8843 78.16 50.9166 74.499 50.9166Z" fill="#D8D8EB"/>
<path d="M67.8711 57.5453C67.8711 61.2062 70.8388 64.1739 74.4997 64.1739V50.9166C70.8388 50.9166 67.8711 53.8845 67.8711 57.5453Z" fill="white"/>
<path d="M97.4463 97.5292V88.6911H109.896C108.035 83.6192 103.163 80.0002 97.4463 80.0002C93.7852 80.0002 90.4708 81.4843 88.0717 83.8835L85.3264 86.6288H74.5L66.1797 93.2574L74.5 99.8861H85.3264L88.0717 102.631C90.4708 105.031 93.7852 106.515 97.4463 106.515C103.273 106.515 108.222 102.755 110 97.5291H97.4463V97.5292Z" fill="#A0A0AC"/>
<path d="M63.6736 86.6288L60.9283 83.8835C58.5292 81.4842 55.2148 80.0002 51.5537 80.0002C45.7266 80.0002 40.7776 83.7599 39 88.9858H51.5537V97.8239H39.104C40.9648 102.896 45.8367 106.515 51.5537 106.515C55.2148 106.515 58.5292 105.031 60.9283 102.631L63.6736 99.8862H74.5V86.6289H63.6736V86.6288Z" fill="#BDBDCC"/>
<defs>
<filter id="filter0_d_1273_331" x="0.666667" y="0.571429" width="146.667" height="146.667" filterUnits="userSpaceOnUse" color-interpolation-filters="sRGB">
<feFlood flood-opacity="0" result="BackgroundImageFix"/>
<feColorMatrix in="SourceAlpha" type="matrix" values="0 0 0 0 0 0 0 0 0 0 0 0 0 0 0 0 0 0 127 0" result="hardAlpha"/>
<feOffset dy="1.90476"/>
<feGaussianBlur stdDeviation="6.66667"/>
<feComposite in2="hardAlpha" operator="out"/>
<feColorMatrix type="matrix" values="0 0 0 0 0.695898 0 0 0 0 0.695898 0 0 0 0 0.695898 0 0 0 0.25 0"/>
<feBlend mode="normal" in2="BackgroundImageFix" result="effect1_dropShadow_1273_331"/>
<feBlend mode="normal" in="SourceGraphic" in2="effect1_dropShadow_1273_331" result="shape"/>
</filter>
</defs>
</svg>
