<svg width="361" height="158" viewBox="0 0 361 158" fill="none" xmlns="http://www.w3.org/2000/svg">
<path d="M13.2198 145.444C10.7453 145.444 8.42326 145.02 6.25379 144.172C4.11821 143.291 2.33857 142.037 0.914851 140.41L6.10124 135.274C6.74531 136.223 7.6775 137.003 8.89783 137.613C10.1521 138.189 11.508 138.478 12.9656 138.478C14.2537 138.478 15.3723 138.257 16.3215 137.817C17.2706 137.342 18.0164 136.681 18.5588 135.834C19.1011 134.952 19.3723 133.935 19.3723 132.783C19.3723 131.596 19.1011 130.579 18.5588 129.732C18.0164 128.884 17.2537 128.24 16.2706 127.8C15.3215 127.325 14.2368 127.088 13.0164 127.088C11.7961 127.088 10.6775 127.257 9.66053 127.596C8.64359 127.901 7.7114 128.376 6.86395 129.02L7.52496 123.935C8.30461 123.325 9.05037 122.834 9.76223 122.461C10.4741 122.054 11.2537 121.749 12.1012 121.546C12.9486 121.342 13.9486 121.24 15.1012 121.24C17.7452 121.24 19.9655 121.783 21.7621 122.868C23.5926 123.952 24.9655 125.393 25.8807 127.19C26.8299 128.986 27.3044 130.969 27.3044 133.139C27.3044 135.511 26.7112 137.63 25.5248 139.494C24.3723 141.359 22.7452 142.816 20.6435 143.867C18.5418 144.918 16.0673 145.444 13.2198 145.444ZM6.86395 129.02L3.40635 125.817L5.13515 108.986H12.3554L10.4741 125.664L6.86395 129.02ZM6.20294 115.749L5.13515 108.986H25.3214V115.749H6.20294ZM35.4904 145.444C34.1684 145.444 33.0667 144.986 32.1853 144.071C31.304 143.155 30.8633 142.054 30.8633 140.766C30.8633 139.41 31.304 138.291 32.1853 137.41C33.0667 136.495 34.1684 136.037 35.4904 136.037C36.8463 136.037 37.948 136.495 38.7955 137.41C39.6768 138.291 40.1175 139.41 40.1175 140.766C40.1175 142.054 39.6768 143.155 38.7955 144.071C37.948 144.986 36.8463 145.444 35.4904 145.444ZM59.0973 145.444C56.216 145.444 53.6058 144.664 51.2669 143.105C48.9279 141.545 47.0805 139.376 45.7246 136.596C44.4025 133.783 43.7415 130.545 43.7415 126.884C43.7415 123.19 44.4025 119.969 45.7246 117.224C47.0466 114.444 48.8601 112.291 51.1652 110.766C53.4702 109.207 56.0804 108.427 58.9956 108.427C61.9447 108.427 64.5718 109.207 66.8769 110.766C69.182 112.291 70.9955 114.444 72.3175 117.224C73.6734 120.003 74.3514 123.24 74.3514 126.935C74.3514 130.63 73.6734 133.867 72.3175 136.647C70.9955 139.427 69.182 141.596 66.8769 143.155C64.6057 144.681 62.0125 145.444 59.0973 145.444ZM59.0465 138.376C60.538 138.376 61.8261 137.952 62.9108 137.105C63.9956 136.223 64.8261 134.935 65.4023 133.24C66.0125 131.512 66.3176 129.41 66.3176 126.935C66.3176 124.427 66.0125 122.325 65.4023 120.63C64.8261 118.935 63.9956 117.664 62.9108 116.817C61.8261 115.935 60.521 115.495 58.9956 115.495C57.538 115.495 56.2499 115.918 55.1312 116.766C54.0465 117.613 53.216 118.885 52.6397 120.579C52.0635 122.274 51.7753 124.376 51.7753 126.884C51.7753 129.393 52.0635 131.495 52.6397 133.189C53.216 134.884 54.0465 136.172 55.1312 137.054C56.2499 137.935 57.5549 138.376 59.0465 138.376Z" fill="#092A35"/>
<path d="M135.431 122.314L126.151 131.359L128.343 144.135C128.39 144.409 128.359 144.69 128.254 144.948C128.15 145.205 127.975 145.428 127.75 145.592C127.525 145.755 127.259 145.852 126.982 145.872C126.705 145.892 126.427 145.834 126.181 145.705L114.708 139.673L103.236 145.703C102.99 145.833 102.713 145.891 102.436 145.871C102.158 145.851 101.892 145.753 101.667 145.59C101.442 145.427 101.268 145.204 101.163 144.946C101.058 144.689 101.028 144.407 101.075 144.133L103.266 131.358L93.9853 122.314C93.7861 122.12 93.6452 121.874 93.5785 121.604C93.5119 121.334 93.5222 121.051 93.6082 120.786C93.6943 120.522 93.8526 120.287 94.0654 120.108C94.2781 119.929 94.5368 119.813 94.812 119.773L107.636 117.911L113.372 106.288C113.874 105.271 115.542 105.271 116.044 106.288L121.779 117.911L134.604 119.773C134.878 119.814 135.136 119.93 135.348 120.109C135.56 120.289 135.718 120.524 135.804 120.788C135.89 121.052 135.9 121.334 135.834 121.604C135.769 121.874 135.629 122.12 135.431 122.314Z" fill="#FEA705"/>
<path d="M191.048 122.314L181.769 131.359L183.96 144.135C184.007 144.409 183.976 144.69 183.871 144.948C183.767 145.205 183.592 145.428 183.367 145.592C183.142 145.755 182.876 145.852 182.599 145.872C182.322 145.892 182.044 145.834 181.798 145.705L170.325 139.673L158.853 145.703C158.607 145.833 158.33 145.891 158.053 145.871C157.775 145.851 157.509 145.753 157.285 145.59C157.06 145.427 156.885 145.204 156.78 144.946C156.675 144.689 156.645 144.407 156.692 144.133L158.883 131.358L149.602 122.314C149.403 122.12 149.262 121.874 149.196 121.604C149.129 121.334 149.139 121.051 149.225 120.786C149.311 120.522 149.47 120.287 149.683 120.108C149.895 119.929 150.154 119.813 150.429 119.773L163.254 117.911L168.989 106.288C169.491 105.271 171.159 105.271 171.661 106.288L177.396 117.911L190.221 119.773C190.496 119.814 190.753 119.93 190.965 120.109C191.177 120.289 191.335 120.524 191.421 120.788C191.507 121.052 191.518 121.334 191.452 121.604C191.386 121.874 191.246 122.12 191.048 122.314Z" fill="#FEA705"/>
<path d="M246.661 122.314L237.382 131.359L239.573 144.135C239.62 144.409 239.59 144.69 239.485 144.948C239.38 145.205 239.205 145.428 238.98 145.592C238.756 145.755 238.489 145.852 238.212 145.872C237.935 145.892 237.658 145.834 237.412 145.705L225.938 139.673L214.467 145.703C214.221 145.833 213.943 145.891 213.666 145.871C213.389 145.851 213.123 145.753 212.898 145.59C212.673 145.427 212.498 145.204 212.393 144.946C212.289 144.689 212.258 144.407 212.305 144.133L214.496 131.358L205.216 122.314C205.017 122.12 204.876 121.874 204.809 121.604C204.742 121.334 204.753 121.051 204.839 120.786C204.925 120.522 205.083 120.287 205.296 120.108C205.509 119.929 205.767 119.813 206.043 119.773L218.867 117.911L224.602 106.288C225.104 105.271 226.773 105.271 227.275 106.288L233.01 117.911L245.834 119.773C246.109 119.814 246.367 119.93 246.579 120.109C246.791 120.289 246.949 120.524 247.034 120.788C247.12 121.052 247.131 121.334 247.065 121.604C246.999 121.874 246.859 122.12 246.661 122.314Z" fill="#FEA705"/>
<path d="M302.274 122.314L292.995 131.359L295.186 144.135C295.233 144.409 295.203 144.69 295.098 144.948C294.993 145.205 294.819 145.428 294.594 145.592C294.369 145.755 294.103 145.852 293.826 145.872C293.548 145.892 293.271 145.834 293.025 145.705L281.552 139.673L270.08 145.703C269.834 145.833 269.556 145.891 269.279 145.871C269.002 145.851 268.736 145.753 268.511 145.59C268.286 145.427 268.112 145.204 268.007 144.946C267.902 144.689 267.871 144.407 267.918 144.133L270.11 131.358L260.829 122.314C260.63 122.12 260.489 121.874 260.422 121.604C260.356 121.334 260.366 121.051 260.452 120.786C260.538 120.522 260.696 120.287 260.909 120.108C261.122 119.929 261.381 119.813 261.656 119.773L274.48 117.911L280.215 106.288C280.717 105.271 282.386 105.271 282.888 106.288L288.623 117.911L301.448 119.773C301.722 119.814 301.98 119.93 302.192 120.109C302.404 120.289 302.562 120.524 302.648 120.788C302.734 121.052 302.744 121.334 302.678 121.604C302.612 121.874 302.472 122.12 302.274 122.314Z" fill="#FEA705"/>
<path d="M357.888 122.313L348.608 131.358L350.8 144.133C350.847 144.407 350.816 144.689 350.711 144.946C350.607 145.204 350.432 145.427 350.207 145.59C349.982 145.753 349.716 145.851 349.439 145.871C349.162 145.891 348.884 145.833 348.638 145.703L337.165 139.672L325.693 145.702C325.447 145.831 325.17 145.889 324.893 145.869C324.615 145.849 324.349 145.752 324.124 145.589C323.899 145.425 323.725 145.202 323.62 144.945C323.515 144.687 323.485 144.406 323.532 144.132L325.723 131.356L316.442 122.313C316.243 122.119 316.102 121.873 316.036 121.603C315.969 121.333 315.979 121.049 316.065 120.785C316.151 120.52 316.31 120.285 316.522 120.106C316.735 119.927 316.994 119.811 317.269 119.771L330.094 117.909L335.829 106.287C336.331 105.27 337.999 105.27 338.501 106.287L344.236 117.909L357.061 119.771C357.335 119.812 357.593 119.929 357.805 120.108C358.017 120.287 358.175 120.522 358.261 120.786C358.347 121.05 358.358 121.333 358.292 121.603C358.226 121.872 358.086 122.118 357.888 122.313Z" fill="#FEA705"/>
<path d="M170.542 44.9899C170.542 57.0955 160.987 66.0159 149.261 66.0159C137.535 66.0159 127.98 57.0955 127.98 44.9899C127.98 32.7989 137.535 23.9639 149.261 23.9639C160.987 23.9639 170.542 32.7989 170.542 44.9899ZM161.226 44.9899C161.226 37.4249 155.689 32.2493 149.261 32.2493C142.834 32.2493 137.296 37.4254 137.296 44.9899C137.296 52.479 142.834 57.7305 149.261 57.7305C155.689 57.731 161.226 52.4695 161.226 44.9899Z" fill="#FF4131"/>
<path d="M216.452 44.9899C216.452 57.0955 206.898 66.0159 195.171 66.0159C183.445 66.0159 173.891 57.0955 173.891 44.9899C173.891 32.8084 183.445 23.9639 195.171 23.9639C206.897 23.9639 216.452 32.7989 216.452 44.9899ZM207.136 44.9899C207.136 37.4249 201.599 32.2493 195.171 32.2493C188.744 32.2493 183.207 37.4254 183.207 44.9899C183.207 52.479 188.744 57.7305 195.171 57.7305C201.599 57.731 207.136 52.4695 207.136 44.9899Z" fill="#FFBC00"/>
<path d="M260.449 25.2344V62.9825C260.449 78.5104 251.21 84.8523 240.287 84.8523C230.006 84.8523 223.817 78.0361 221.484 72.4621L229.594 69.1157C231.038 72.538 234.577 76.5764 240.278 76.5764C247.269 76.5764 251.602 72.3009 251.602 64.2526V61.2287H251.277C249.192 63.7788 245.174 66.0064 240.106 66.0064C229.499 66.0064 219.781 56.8489 219.781 45.0658C219.781 33.1973 229.499 23.9639 240.106 23.9639C245.165 23.9639 249.182 26.1915 251.277 28.6657H251.602V25.2434H260.449V25.2344ZM252.262 45.0658C252.262 37.662 247.279 32.2493 240.938 32.2493C234.51 32.2493 229.125 37.662 229.125 45.0658C229.125 52.3936 234.51 57.7305 240.938 57.7305C247.279 57.731 252.262 52.3936 252.262 45.0658Z" fill="#0085F7"/>
<path d="M275.035 3.1084V64.7267H265.949V3.1084H275.035Z" fill="#00A94B"/>
<path d="M310.441 51.9101L317.671 56.6878C315.338 60.1101 309.714 66.0061 299.996 66.0061C287.945 66.0061 278.945 56.7727 278.945 44.9801C278.945 32.4761 288.022 23.9541 298.954 23.9541C309.962 23.9541 315.347 32.6374 317.107 37.3298L318.073 39.7186L289.715 51.3599C291.886 55.5785 295.262 57.7302 299.996 57.7302C304.74 57.7307 308.03 55.4173 310.441 51.9101ZM288.185 44.3451L307.141 36.5435C306.099 33.9174 302.962 32.0882 299.27 32.0882C294.535 32.0877 287.945 36.2304 288.185 44.3451Z" fill="#FF4131"/>
<path d="M93.5881 39.5199V30.5995H123.917C124.214 32.1541 124.366 33.9933 124.366 35.9838C124.366 42.6766 122.52 50.9521 116.571 56.8486C110.785 62.821 103.392 66.0062 93.5977 66.0062C75.4443 66.0062 60.1797 51.3505 60.1797 33.3583C60.1797 15.3662 75.4443 0.709961 93.5977 0.709961C103.64 0.709961 110.795 4.61552 116.17 9.70628L109.819 16.0007C105.965 12.4172 100.742 9.6304 93.5881 9.6304C80.3317 9.6304 69.9641 20.2193 69.9641 33.3583C69.9641 46.4973 80.3317 57.0862 93.5881 57.0862C102.186 57.0862 107.083 53.6639 110.221 50.5547C112.765 48.033 114.439 44.431 115.099 39.511L93.5881 39.5199Z" fill="#0085F7"/>
</svg>
