<svg width="263" height="116" viewBox="0 0 263 116" fill="none" xmlns="http://www.w3.org/2000/svg">
<path d="M10.3209 105.771C8.52456 105.771 6.83892 105.463 5.26401 104.848C3.71371 104.208 2.42179 103.298 1.38826 102.117L5.15327 98.3886C5.62082 99.0777 6.29754 99.6436 7.18343 100.087C8.09392 100.505 9.07824 100.714 10.1364 100.714C11.0715 100.714 11.8835 100.554 12.5726 100.234C13.2616 99.8897 13.803 99.4099 14.1967 98.7947C14.5904 98.1549 14.7873 97.4166 14.7873 96.58C14.7873 95.7187 14.5904 94.9804 14.1967 94.3652C13.803 93.75 13.2493 93.2825 12.5357 92.9626C11.8466 92.6181 11.0592 92.4458 10.1733 92.4458C9.28741 92.4458 8.47534 92.5689 7.73711 92.8149C6.99887 93.0364 6.32215 93.3809 5.70695 93.8485L6.1868 90.1573C6.75279 89.7143 7.29416 89.3575 7.81093 89.0868C8.3277 88.7915 8.89368 88.5701 9.50888 88.4224C10.1241 88.2748 10.85 88.2009 11.6867 88.2009C13.6061 88.2009 15.2179 88.5947 16.5221 89.3821C17.851 90.1696 18.8476 91.2154 19.512 92.5196C20.201 93.8239 20.5455 95.2634 20.5455 96.8383C20.5455 98.5609 20.1149 100.099 19.2536 101.452C18.417 102.806 17.2358 103.864 15.7101 104.627C14.1844 105.39 12.388 105.771 10.3209 105.771ZM5.70695 93.8485L3.19694 91.523L4.45194 79.3052H9.69344L8.3277 91.4123L5.70695 93.8485ZM5.22709 84.2145L4.45194 79.3052H19.106V84.2145H5.22709ZM26.4881 105.771C25.5284 105.771 24.7286 105.439 24.0888 104.774C23.449 104.11 23.1291 103.31 23.1291 102.375C23.1291 101.391 23.449 100.579 24.0888 99.9389C24.7286 99.2745 25.5284 98.9423 26.4881 98.9423C27.4724 98.9423 28.2721 99.2745 28.8873 99.9389C29.5272 100.579 29.8471 101.391 29.8471 102.375C29.8471 103.31 29.5272 104.11 28.8873 104.774C28.2721 105.439 27.4724 105.771 26.4881 105.771ZM43.6253 105.771C41.5336 105.771 39.6388 105.205 37.9409 104.073C36.2429 102.941 34.9018 101.366 33.9175 99.3483C32.9577 97.3059 32.4779 94.9558 32.4779 92.2982C32.4779 89.6159 32.9577 87.2782 33.9175 85.2849C34.8772 83.2671 36.1937 81.7045 37.867 80.5971C39.5404 79.4651 41.4352 78.8991 43.5515 78.8991C45.6924 78.8991 47.5995 79.4651 49.2728 80.5971C50.9462 81.7045 52.2627 83.2671 53.2224 85.2849C54.2067 87.3028 54.6989 89.6528 54.6989 92.3351C54.6989 95.0173 54.2067 97.3674 53.2224 99.3853C52.2627 101.403 50.9462 102.978 49.2728 104.11C47.6241 105.217 45.7416 105.771 43.6253 105.771ZM43.5884 100.64C44.6711 100.64 45.6062 100.333 46.3937 99.7175C47.1811 99.0777 47.784 98.1426 48.2024 96.9122C48.6453 95.6572 48.8668 94.1315 48.8668 92.3351C48.8668 90.5141 48.6453 88.9884 48.2024 87.758C47.784 86.5276 47.1811 85.6048 46.3937 84.9896C45.6062 84.3498 44.6588 84.0299 43.5515 84.0299C42.4933 84.0299 41.5582 84.3375 40.7462 84.9527C39.9587 85.5679 39.3558 86.4907 38.9375 87.7211C38.5191 88.9515 38.31 90.4772 38.31 92.2982C38.31 94.1192 38.5191 95.6449 38.9375 96.8752C39.3558 98.1056 39.9587 99.0407 40.7462 99.6806C41.5582 100.32 42.5056 100.64 43.5884 100.64Z" fill="#233D63"/>
<path d="M99.0425 89.0035L92.3064 95.5698L93.8972 104.844C93.9312 105.043 93.909 105.247 93.8329 105.434C93.7569 105.621 93.6301 105.783 93.4668 105.901C93.3036 106.02 93.1104 106.091 92.9092 106.105C92.7079 106.12 92.5066 106.078 92.328 105.984L83.9991 101.605L75.6712 105.983C75.4926 106.077 75.2913 106.119 75.09 106.104C74.8888 106.09 74.6956 106.019 74.5324 105.9C74.3691 105.782 74.2423 105.62 74.1663 105.433C74.0902 105.246 74.068 105.042 74.1021 104.843L75.6928 95.5687L68.9557 89.0035C68.8111 88.8626 68.7088 88.684 68.6604 88.488C68.612 88.292 68.6195 88.0864 68.682 87.8944C68.7444 87.7024 68.8594 87.5317 69.0138 87.4017C69.1683 87.2717 69.356 87.1875 69.5558 87.1586L78.8656 85.8069L83.0291 77.3697C83.3935 76.6311 84.6047 76.6311 84.9691 77.3697L89.1325 85.8069L98.4423 87.1586C98.6417 87.1882 98.8288 87.2728 98.9828 87.4029C99.1367 87.5331 99.2513 87.7036 99.3136 87.8952C99.376 88.0869 99.3836 88.2921 99.3357 88.4879C99.2878 88.6837 99.1863 88.8623 99.0425 89.0035Z" fill="#FEA705"/>
<path d="M139.414 89.0035L132.678 95.5698L134.268 104.844C134.302 105.043 134.28 105.247 134.204 105.434C134.128 105.621 134.001 105.783 133.838 105.901C133.675 106.02 133.482 106.091 133.28 106.105C133.079 106.12 132.878 106.078 132.699 105.984L124.37 101.605L116.042 105.983C115.864 106.077 115.662 106.119 115.461 106.104C115.26 106.09 115.067 106.019 114.903 105.9C114.74 105.782 114.613 105.62 114.537 105.433C114.461 105.246 114.439 105.042 114.473 104.843L116.064 95.5687L109.327 89.0035C109.182 88.8626 109.08 88.684 109.031 88.488C108.983 88.292 108.991 88.0864 109.053 87.8944C109.116 87.7024 109.23 87.5317 109.385 87.4017C109.539 87.2717 109.727 87.1875 109.927 87.1586L119.237 85.8069L123.4 77.3697C123.765 76.6311 124.976 76.6311 125.34 77.3697L129.504 85.8069L138.813 87.1586C139.013 87.1882 139.2 87.2728 139.354 87.4029C139.508 87.5331 139.622 87.7036 139.685 87.8952C139.747 88.0869 139.755 88.2921 139.707 88.4879C139.659 88.6837 139.557 88.8623 139.414 89.0035Z" fill="#FEA705"/>
<path d="M179.789 89.0035L173.053 95.5698L174.643 104.844C174.677 105.043 174.655 105.247 174.579 105.434C174.503 105.621 174.376 105.783 174.213 105.901C174.05 106.02 173.857 106.091 173.655 106.105C173.454 106.12 173.253 106.078 173.074 105.984L164.745 101.605L156.417 105.983C156.239 106.077 156.037 106.119 155.836 106.104C155.635 106.09 155.442 106.019 155.278 105.9C155.115 105.782 154.988 105.62 154.912 105.433C154.836 105.246 154.814 105.042 154.848 104.843L156.439 95.5687L149.702 89.0035C149.557 88.8626 149.455 88.684 149.406 88.488C149.358 88.292 149.366 88.0864 149.428 87.8944C149.491 87.7024 149.605 87.5317 149.76 87.4017C149.914 87.2717 150.102 87.1875 150.302 87.1586L159.612 85.8069L163.775 77.3697C164.14 76.6311 165.351 76.6311 165.715 77.3697L169.879 85.8069L179.188 87.1586C179.388 87.1882 179.575 87.2728 179.729 87.4029C179.883 87.5331 179.997 87.7036 180.06 87.8952C180.122 88.0869 180.13 88.2921 180.082 88.4879C180.034 88.6837 179.932 88.8623 179.789 89.0035Z" fill="#FEA705"/>
<path d="M220.156 89.0035L213.42 95.5698L215.01 104.844C215.045 105.043 215.022 105.247 214.946 105.434C214.87 105.621 214.743 105.783 214.58 105.901C214.417 106.02 214.224 106.091 214.022 106.105C213.821 106.12 213.62 106.078 213.441 105.984L205.112 101.605L196.784 105.983C196.606 106.077 196.405 106.119 196.203 106.104C196.002 106.09 195.809 106.019 195.646 105.9C195.482 105.782 195.356 105.62 195.28 105.433C195.204 105.246 195.181 105.042 195.215 104.843L196.806 95.5687L190.069 89.0035C189.924 88.8626 189.822 88.684 189.774 88.488C189.725 88.292 189.733 88.0864 189.795 87.8944C189.858 87.7024 189.973 87.5317 190.127 87.4017C190.282 87.2717 190.469 87.1875 190.669 87.1586L199.979 85.8069L204.142 77.3697C204.507 76.6311 205.718 76.6311 206.082 77.3697L210.246 85.8069L219.556 87.1586C219.755 87.1882 219.942 87.2728 220.096 87.4029C220.25 87.5331 220.365 87.7036 220.427 87.8952C220.489 88.0869 220.497 88.2921 220.449 88.4879C220.401 88.6837 220.3 88.8623 220.156 89.0035Z" fill="#FEA705"/>
<path d="M260.535 89.0024L253.799 95.5687L255.389 104.843C255.423 105.042 255.401 105.246 255.325 105.433C255.249 105.62 255.122 105.782 254.959 105.9C254.796 106.019 254.603 106.089 254.401 106.104C254.2 106.119 253.999 106.076 253.82 105.983L245.491 101.604L237.163 105.982C236.985 106.075 236.783 106.117 236.582 106.103C236.381 106.088 236.188 106.018 236.025 105.899C235.861 105.781 235.735 105.619 235.658 105.432C235.582 105.245 235.56 105.041 235.594 104.842L237.185 95.5676L230.448 89.0024C230.303 88.8615 230.201 88.6829 230.153 88.4869C230.104 88.2909 230.112 88.0853 230.174 87.8933C230.237 87.7013 230.352 87.5306 230.506 87.4006C230.66 87.2706 230.848 87.1864 231.048 87.1575L240.358 85.8058L244.521 77.3686C244.886 76.63 246.097 76.63 246.461 77.3686L250.625 85.8058L259.934 87.1575C260.134 87.1871 260.321 87.2717 260.475 87.4019C260.629 87.532 260.743 87.7025 260.806 87.8941C260.868 88.0858 260.876 88.291 260.828 88.4868C260.78 88.6826 260.678 88.8612 260.535 89.0024Z" fill="#FEA705"/>
<path d="M124.526 32.8706C124.526 41.6585 117.59 48.1342 109.078 48.1342C100.565 48.1342 93.6289 41.6585 93.6289 32.8706C93.6289 24.0207 100.565 17.6069 109.078 17.6069C117.59 17.6069 124.526 24.0207 124.526 32.8706ZM117.763 32.8706C117.763 27.3789 113.743 23.6216 109.078 23.6216C104.412 23.6216 100.392 27.3792 100.392 32.8706C100.392 38.3072 104.412 42.1195 109.078 42.1195C113.743 42.1199 117.763 38.3004 117.763 32.8706Z" fill="#FF4131"/>
<path d="M157.854 32.8706C157.854 41.6585 150.918 48.1342 142.406 48.1342C133.893 48.1342 126.957 41.6585 126.957 32.8706C126.957 24.0276 133.893 17.6069 142.406 17.6069C150.918 17.6069 157.854 24.0207 157.854 32.8706ZM151.091 32.8706C151.091 27.3789 147.071 23.6216 142.406 23.6216C137.74 23.6216 133.72 27.3792 133.72 32.8706C133.72 38.3072 137.74 42.1195 142.406 42.1195C147.071 42.1199 151.091 38.3004 151.091 32.8706Z" fill="#FFBC00"/>
<path d="M189.796 18.5294V45.9323C189.796 57.2046 183.089 61.8084 175.16 61.8084C167.696 61.8084 163.203 56.8603 161.509 52.8139L167.397 50.3846C168.446 52.869 171.015 55.8006 175.153 55.8006C180.228 55.8006 183.373 52.6969 183.373 46.8543V44.6591H183.137C181.624 46.5104 178.707 48.1275 175.028 48.1275C167.328 48.1275 160.273 41.4796 160.273 32.9258C160.273 24.31 167.328 17.6071 175.028 17.6071C178.701 17.6071 181.617 19.2242 183.137 21.0203H183.373V18.5359H189.796V18.5294ZM183.852 32.9258C183.852 27.5511 180.235 23.6218 175.632 23.6218C170.966 23.6218 167.057 27.5511 167.057 32.9258C167.057 38.2454 170.966 42.1197 175.632 42.1197C180.235 42.12 183.852 38.2454 183.852 32.9258Z" fill="#0085F7"/>
<path d="M200.381 2.46704V47.1983H193.785V2.46704H200.381Z" fill="#00A94B"/>
<path d="M226.086 37.8943L231.335 41.3626C229.641 43.847 225.559 48.1272 218.505 48.1272C209.756 48.1272 203.223 41.4242 203.223 32.8635C203.223 23.7864 209.812 17.5999 217.748 17.5999C225.739 17.5999 229.648 23.9034 230.926 27.3098L231.627 29.044L211.041 37.4949C212.617 40.5573 215.068 42.1193 218.505 42.1193C221.948 42.1197 224.337 40.4403 226.086 37.8943ZM209.93 32.4025L223.691 26.739C222.934 24.8327 220.657 23.5048 217.977 23.5048C214.54 23.5044 209.756 26.5117 209.93 32.4025Z" fill="#FF4131"/>
<path d="M68.6627 28.8997V22.424H90.6797C90.895 23.5526 91.0058 24.8877 91.0058 26.3327C91.0058 31.1913 89.6657 37.1988 85.3473 41.4793C81.1466 45.8149 75.7795 48.1271 68.6697 48.1271C55.4914 48.1271 44.4102 37.488 44.4102 24.4267C44.4102 11.3655 55.4914 0.725952 68.6697 0.725952C75.9601 0.725952 81.1536 3.56116 85.0555 7.25675L80.4453 11.8261C77.6473 9.22469 73.8561 7.20167 68.6627 7.20167C59.0394 7.20167 51.513 14.8886 51.513 24.4267C51.513 33.9649 59.0394 41.6518 68.6627 41.6518C74.9045 41.6518 78.4594 39.1674 80.7371 36.9103C82.584 35.0797 83.7991 32.4648 84.2781 28.8932L68.6627 28.8997Z" fill="#0085F7"/>
</svg>
