<svg width="50" height="49" viewBox="0 0 50 49" fill="none" xmlns="http://www.w3.org/2000/svg">
<circle cx="24.7744" cy="24.4345" r="23.9345" stroke="url(#paint0_linear_735_67)"/>
<g clip-path="url(#clip0_735_67)">
<path d="M36.9694 19.3997C36.9121 18.1013 36.7022 17.2088 36.4014 16.4353C36.0911 15.6144 35.6138 14.8794 34.9885 14.2683C34.3774 13.6478 33.6375 13.1656 32.826 12.8602C32.0482 12.5595 31.1603 12.3495 29.862 12.2923C28.5539 12.2301 28.1387 12.2158 24.8212 12.2158C21.5038 12.2158 21.0886 12.2301 19.7854 12.2874C18.4871 12.3447 17.5945 12.5548 16.8213 12.8553C16.0001 13.1656 15.2651 13.6429 14.6541 14.2683C14.0336 14.8793 13.5516 15.6192 13.246 16.4307C12.9452 17.2088 12.7353 18.0965 12.678 19.3948C12.6159 20.7028 12.6016 21.118 12.6016 24.4355C12.6016 27.753 12.6159 28.1682 12.6732 29.4713C12.7304 30.7697 12.9406 31.6622 13.2413 32.4357C13.5516 33.2566 14.0336 33.9916 14.6541 34.6027C15.2651 35.2232 16.005 35.7054 16.8164 36.0108C17.5945 36.3115 18.4822 36.5215 19.7808 36.5787C21.0837 36.6362 21.4992 36.6503 24.8166 36.6503C28.1341 36.6503 28.5493 36.6362 29.8525 36.5787C31.1508 36.5215 32.0433 36.3116 32.8165 36.0108C33.6287 35.6968 34.3662 35.2166 34.9819 34.6009C35.5976 33.9853 36.0779 33.2478 36.3919 32.4357C36.6924 31.6576 36.9026 30.7696 36.9598 29.4713C37.0171 28.1682 37.0314 27.753 37.0314 24.4355C37.0314 21.118 37.0266 20.7028 36.9694 19.3997ZM34.769 29.3759C34.7164 30.5692 34.5159 31.2136 34.3489 31.6432C33.9383 32.7077 33.0934 33.5525 32.0289 33.9631C31.5993 34.1302 30.9503 34.3306 29.7616 34.383C28.4728 34.4405 28.0863 34.4546 24.8261 34.4546C21.5659 34.4546 21.1745 34.4405 19.8904 34.383C18.697 34.3306 18.0526 34.1302 17.623 33.9631C17.0933 33.7673 16.6112 33.4571 16.2198 33.0513C15.8141 32.6551 15.5038 32.1778 15.308 31.6481C15.1409 31.2185 14.9405 30.5692 14.8881 29.3807C14.8307 28.092 14.8165 27.7052 14.8165 24.445C14.8165 21.1848 14.8307 20.7934 14.8881 19.5095C14.9405 18.3162 15.1409 17.6718 15.308 17.2422C15.5038 16.7122 15.8141 16.2302 16.2247 15.8387C16.6206 15.4329 17.098 15.1227 17.6279 14.9271C18.0575 14.76 18.7068 14.5596 19.8952 14.507C21.184 14.4497 21.5708 14.4354 24.8307 14.4354C28.0958 14.4354 28.4823 14.4497 29.7665 14.507C30.9598 14.5596 31.6042 14.76 32.0338 14.9271C32.5635 15.1227 33.0457 15.4329 33.4371 15.8387C33.8428 16.2349 34.1531 16.7122 34.3489 17.2422C34.5159 17.6718 34.7164 18.3208 34.7689 19.5095C34.8262 20.7983 34.8405 21.1848 34.8405 24.445C34.8405 27.7052 34.8263 28.0871 34.769 29.3759Z" fill="url(#paint1_linear_735_67)"/>
<path d="M24.8199 18.1588C21.3545 18.1588 18.543 20.9702 18.543 24.4357C18.543 27.9013 21.3545 30.7127 24.8199 30.7127C28.2853 30.7127 31.0968 27.9013 31.0968 24.4357C31.0968 20.9702 28.2853 18.1588 24.8199 18.1588ZM24.8199 28.5074C22.5717 28.5074 20.7481 26.6841 20.7481 24.4357C20.7481 22.1874 22.5717 20.3641 24.8198 20.3641C27.0682 20.3641 28.8915 22.1874 28.8915 24.4357C28.8915 26.6841 27.0681 28.5074 24.8199 28.5074ZM32.8105 17.9106C32.8105 18.7199 32.1543 19.376 31.3449 19.376C30.5357 19.376 29.8795 18.7199 29.8795 17.9106C29.8795 17.1013 30.5357 16.4453 31.3449 16.4453C32.1543 16.4453 32.8105 17.1012 32.8105 17.9106Z" fill="url(#paint2_linear_735_67)"/>
</g>
<defs>
<linearGradient id="paint0_linear_735_67" x1="0.339844" y1="0" x2="58.9231" y2="29.7219" gradientUnits="userSpaceOnUse">
<stop stop-color="#3AC3EB"/>
<stop offset="1" stop-color="#792F85"/>
</linearGradient>
<linearGradient id="paint1_linear_735_67" x1="12.6016" y1="12.2158" x2="41.8899" y2="27.0723" gradientUnits="userSpaceOnUse">
<stop stop-color="#3AC3EB"/>
<stop offset="1" stop-color="#792F85"/>
</linearGradient>
<linearGradient id="paint2_linear_735_67" x1="18.543" y1="16.4453" x2="35.6465" y2="25.1228" gradientUnits="userSpaceOnUse">
<stop stop-color="#3AC3EB"/>
<stop offset="1" stop-color="#792F85"/>
</linearGradient>
<clipPath id="clip0_735_67">
<rect width="24.4346" height="24.4346" fill="white" transform="translate(12.5586 12.2168)"/>
</clipPath>
</defs>
</svg>
