<svg width="148" height="148" viewBox="0 0 148 148" fill="none" xmlns="http://www.w3.org/2000/svg">
<g filter="url(#filter0_d_3247_3077)">
<circle cx="74" cy="72" r="60" fill="white"/>
</g>
<path d="M43.9023 79.9902V45.7129C43.9023 43.6128 45.6109 41.9043 47.7109 41.9043H101.285C103.385 41.9043 105.094 43.6128 105.094 45.7129V79.9902H43.9023Z" fill="#7ED8F7"/>
<path d="M101.287 41.9043H74.5V79.9902H105.096V45.7129C105.096 43.6128 103.387 41.9043 101.287 41.9043Z" fill="#6AA9FF"/>
<path d="M57.8676 47.617C56.816 47.617 55.9633 48.4697 55.9633 49.5213V51.2716L46.3649 41.6731L43.6719 44.3662L53.2703 53.9647H51.52C50.4683 53.9647 49.6157 54.8173 49.6157 55.869C49.6157 56.9207 50.4683 57.7733 51.52 57.7733H57.8676C58.9193 57.7733 59.7719 56.9207 59.7719 55.869V49.5213C59.7719 48.4697 58.9193 47.617 57.8676 47.617Z" fill="#F9F9F9"/>
<path d="M82.75 97.3828H66.2461V87.6074C66.2461 86.5557 67.0987 85.7031 68.1504 85.7031H80.8457C81.8974 85.7031 82.75 86.5557 82.75 87.6074V97.3828Z" fill="#453D83"/>
<path d="M80.8477 85.7031H74.5V97.3828H82.752V87.6074C82.752 86.5557 81.8993 85.7031 80.8477 85.7031Z" fill="#2D2755"/>
<path d="M101.287 40H47.7129C44.5577 40 42 42.5577 42 45.7129V83.7988C42 86.954 44.5577 89.5117 47.7129 89.5117H104.461L107 66.2793V45.7129C107 42.5577 104.442 40 101.287 40ZM103.191 78.0859H45.8086V45.7129C45.8086 44.6629 46.6629 43.8086 47.7129 43.8086H101.287C102.337 43.8086 103.191 44.6629 103.191 45.7129V78.0859Z" fill="#5F55AF"/>
<path d="M101.287 40H74.5V43.8086H101.287C102.339 43.8086 103.191 44.6612 103.191 45.7129V78.0859H74.5V89.5117H104.461L107 66.2793V45.7129C107 42.5577 104.442 40 101.287 40Z" fill="#453D83"/>
<path d="M90.2709 102.494L88.3666 96.7807C88.2402 96.4015 87.9978 96.0717 87.6735 95.838C87.3493 95.6042 86.9597 95.4785 86.56 95.4785H62.4389C62.0393 95.4785 61.6497 95.6043 61.3255 95.838C61.0012 96.0717 60.7588 96.4015 60.6324 96.7807L58.7281 102.494C58.317 103.727 59.2349 105 60.5346 105H88.4643C89.7641 105 90.6819 103.727 90.2709 102.494Z" fill="#5F55AF"/>
<path d="M74.5 105H88.4648C89.7646 105 90.6825 103.727 90.2714 102.494L88.3671 96.7807C88.2407 96.4015 87.9983 96.0717 87.674 95.838C87.3498 95.6042 86.9602 95.4785 86.5605 95.4785H74.5V105Z" fill="#453D83"/>
<path d="M101.289 62.4707H83.5156C81.4121 62.4707 79.707 64.1758 79.707 66.2793V99.2871C79.707 101.391 81.4121 103.096 83.5156 103.096H101.289C103.393 103.096 105.098 101.391 105.098 99.2871V66.2793C105.098 64.1758 103.393 62.4707 101.289 62.4707Z" fill="#7ED8F7"/>
<path d="M101.289 62.4707H92.4023V103.096H101.289C103.393 103.096 105.098 101.391 105.098 99.2871V66.2793C105.098 64.1758 103.393 62.4707 101.289 62.4707Z" fill="#6AA9FF"/>
<path d="M94.3012 68.8182C93.2496 68.8182 92.3969 69.6708 92.3969 70.7225V72.4728L82.7985 62.8743L80.1055 65.5673L89.7039 75.1659H87.9536C86.9019 75.1659 86.0493 76.0185 86.0493 77.0702C86.0493 78.1218 86.9019 78.9745 87.9536 78.9745H94.3012C95.3529 78.9745 96.2055 78.1218 96.2055 77.0702V70.7225C96.2055 69.6708 95.3529 68.8182 94.3012 68.8182Z" fill="#5F55AF"/>
<path d="M94.3066 68.8184C93.255 68.8184 92.4023 69.6708 92.4023 70.7225V78.9746H94.3066C95.3583 78.9746 96.2109 78.122 96.2109 77.0703V70.7227C96.2109 69.671 95.3583 68.8184 94.3066 68.8184Z" fill="#453D83"/>
<path d="M101.287 105H83.5137C80.3636 105 77.8008 102.437 77.8008 99.2871V66.2793C77.8008 63.1292 80.3636 60.5664 83.5137 60.5664H101.287C104.437 60.5664 107 63.1292 107 66.2793V99.2871C107 102.437 104.437 105 101.287 105ZM83.5137 64.375C82.4636 64.375 81.6094 65.2293 81.6094 66.2793V99.2871C81.6094 100.337 82.4636 101.191 83.5137 101.191H101.287C102.337 101.191 103.191 100.337 103.191 99.2871V66.2793C103.191 65.2293 102.337 64.375 101.287 64.375H83.5137Z" fill="#F9F9F9"/>
<path d="M101.289 60.5664H92.4023V64.375H101.289C102.339 64.375 103.193 65.2293 103.193 66.2793V99.2871C103.193 100.337 102.339 101.191 101.289 101.191H92.4023V105H101.289C104.439 105 107.002 102.437 107.002 99.2871V66.2793C107.002 63.1292 104.439 60.5664 101.289 60.5664Z" fill="#E2DFF4"/>
<defs>
<filter id="filter0_d_3247_3077" x="0.666667" y="0.571429" width="146.667" height="146.667" filterUnits="userSpaceOnUse" color-interpolation-filters="sRGB">
<feFlood flood-opacity="0" result="BackgroundImageFix"/>
<feColorMatrix in="SourceAlpha" type="matrix" values="0 0 0 0 0 0 0 0 0 0 0 0 0 0 0 0 0 0 127 0" result="hardAlpha"/>
<feOffset dy="1.90476"/>
<feGaussianBlur stdDeviation="6.66667"/>
<feComposite in2="hardAlpha" operator="out"/>
<feColorMatrix type="matrix" values="0 0 0 0 0.695898 0 0 0 0 0.695898 0 0 0 0 0.695898 0 0 0 0.25 0"/>
<feBlend mode="normal" in2="BackgroundImageFix" result="effect1_dropShadow_3247_3077"/>
<feBlend mode="normal" in="SourceGraphic" in2="effect1_dropShadow_3247_3077" result="shape"/>
</filter>
</defs>
</svg>
