<svg width="148" height="148" viewBox="0 0 148 148" fill="none" xmlns="http://www.w3.org/2000/svg">
<g filter="url(#filter0_d_2030_7393)">
<circle cx="74" cy="72" r="60" fill="white"/>
</g>
<g clip-path="url(#clip0_2030_7393)">
<path d="M74.1484 50.1557C70.8677 52.4631 67.1494 55.0783 65.1571 59.405C61.6967 66.9536 72.238 75.1876 72.6886 75.5344C72.7935 75.6153 72.923 75.6579 73.0554 75.6551C73.1879 75.6524 73.3155 75.6045 73.417 75.5194C73.5186 75.4344 73.5881 75.3172 73.6141 75.1873C73.6401 75.0575 73.621 74.9226 73.56 74.805C73.5219 74.7315 69.738 67.3819 69.8787 62.1093C69.9284 60.2728 72.4985 58.1895 75.2192 55.984C77.7112 53.9638 80.5359 51.6742 82.1886 48.9957C85.8168 43.0999 81.7842 37.3026 81.743 37.2446C81.6654 37.1355 81.5526 37.0565 81.4235 37.0209C81.2944 36.9853 81.157 36.9952 81.0344 37.0491C80.9119 37.1031 80.8117 37.1976 80.7507 37.3168C80.6898 37.4361 80.6717 37.5727 80.6997 37.7036C80.7079 37.742 81.4921 41.5758 79.3099 45.5256C78.411 47.1577 76.4358 48.547 74.1484 50.1557Z" fill="#DB380E"/>
<path d="M87.9699 52.7555C88.0817 52.6711 88.1594 52.5493 88.1886 52.4123C88.2178 52.2753 88.1966 52.1323 88.1289 52.0097C88.0612 51.8871 87.9516 51.793 87.8201 51.7446C87.6886 51.6963 87.5441 51.697 87.4132 51.7467C86.8558 51.9586 73.7656 57.0044 73.7656 63.1011C73.7656 67.3039 75.5609 69.524 76.8717 71.1454C77.3859 71.7813 77.8298 72.3304 77.9761 72.7993C78.388 74.1504 77.4123 76.5924 77.002 77.4194C76.9443 77.5351 76.9269 77.6667 76.9524 77.7934C76.9778 77.9202 77.0448 78.0348 77.1426 78.1193C77.2404 78.2037 77.3636 78.2532 77.4927 78.2599C77.6218 78.2666 77.7494 78.2301 77.8555 78.1562C78.0805 77.9998 83.3562 74.2698 82.41 69.7758C82.0575 68.0677 81.2181 66.8196 80.4775 65.7183C79.3301 64.0119 78.5014 62.7794 79.7586 60.503C81.2316 57.8477 87.9024 52.806 87.9699 52.7555Z" fill="#DB380E"/>
<path d="M53.896 78.3571C53.6716 79.0289 53.7776 79.6954 54.2021 80.285C55.6211 82.2551 60.6476 83.3398 68.3561 83.3398H68.3571C69.4015 83.3398 70.5043 83.3193 71.6337 83.2788C83.9583 82.8377 88.5295 78.9982 88.7181 78.8349C88.8175 78.7485 88.8847 78.6309 88.9087 78.5013C88.9326 78.3718 88.9119 78.2379 88.8499 78.1216C88.7878 78.0054 88.6882 77.9136 88.5673 77.8613C88.4463 77.8091 88.3112 77.7994 88.184 77.8339C83.8434 79.019 75.7385 79.4397 70.1167 79.4397C63.8261 79.4397 60.6225 78.9865 59.8381 78.6519C60.2406 78.0993 62.7228 77.1125 65.7987 76.5075C65.9404 76.4794 66.0666 76.3996 66.1528 76.2837C66.2389 76.1677 66.2789 76.0239 66.2649 75.8801C66.2509 75.7363 66.1839 75.6029 66.077 75.5058C65.97 75.4086 65.8308 75.3547 65.6864 75.3545C63.8833 75.3545 54.8412 75.4993 53.896 78.3571ZM95.1364 74.4024C92.5944 74.4024 90.1838 75.6765 90.0823 75.7305C89.9682 75.7918 89.8777 75.8895 89.8253 76.008C89.7729 76.1265 89.7616 76.2591 89.793 76.3848C89.8245 76.5105 89.897 76.6221 89.9991 76.702C90.1011 76.7819 90.2269 76.8254 90.3565 76.8257C90.4104 76.8257 95.7788 76.8697 96.265 79.937C96.6957 82.5831 91.1856 86.8706 89.026 88.2995C88.9131 88.3743 88.8298 88.4862 88.7906 88.6159C88.7513 88.7455 88.7584 88.8848 88.8109 89.0098C88.8633 89.1347 88.9576 89.2374 89.0777 89.3002C89.1977 89.3631 89.3359 89.3821 89.4684 89.3539C89.9809 89.2442 102.005 86.5945 100.734 79.5936C99.9583 75.3031 97.2617 74.4024 95.1364 74.4024ZM86.8902 87.4427C86.9107 87.3329 86.8991 87.2195 86.8569 87.1161C86.8147 87.0126 86.7436 86.9235 86.6521 86.8594L83.769 84.8399C83.6995 84.7914 83.6202 84.7586 83.5368 84.7438C83.4533 84.729 83.3676 84.7325 83.2857 84.7542C83.2556 84.7618 80.2406 85.5544 75.8633 86.0405C74.126 86.2353 72.1801 86.3382 70.2357 86.3382C65.8594 86.3382 62.9981 85.824 62.5814 85.4468C62.5262 85.3409 62.5436 85.2928 62.5535 85.266C62.6292 85.0555 63.035 84.8053 63.2965 84.7063C63.4363 84.6552 63.5511 84.5526 63.6175 84.4194C63.6839 84.2862 63.6968 84.1326 63.6534 83.9903C63.6101 83.8479 63.5138 83.7276 63.3845 83.654C63.2551 83.5805 63.1025 83.5592 62.958 83.5947C60.0658 84.2927 58.6517 85.2686 58.7545 86.4955C58.9373 88.6707 63.9756 89.7871 68.2349 90.0822C68.8474 90.1241 69.5098 90.1453 70.2033 90.1453H70.2045C77.287 90.1453 86.3667 87.9231 86.4574 87.9005C86.566 87.874 86.6646 87.8167 86.7413 87.7355C86.8181 87.6543 86.8698 87.5526 86.8902 87.4427ZM65.154 92.111C65.2602 92.0419 65.3409 91.9399 65.3838 91.8206C65.4268 91.7014 65.4295 91.5714 65.3917 91.4504C65.3144 91.2017 65.0819 91.0384 64.8206 91.0419C64.433 91.0521 61.0281 91.2058 60.7897 93.3736C60.7176 94.0215 60.9031 94.6135 61.3415 95.1328C62.564 96.5817 65.8641 97.4428 71.4287 97.7654C72.0869 97.8049 72.7556 97.8247 73.4164 97.8247C80.4908 97.8247 85.2553 95.6097 85.4548 95.5154C85.5498 95.4706 85.6308 95.4008 85.6894 95.3137C85.7479 95.2265 85.7818 95.1251 85.7874 95.0202C85.793 94.9154 85.7701 94.8109 85.7212 94.718C85.6722 94.6251 85.5991 94.5472 85.5095 94.4924L81.8658 92.2681C81.7394 92.1914 81.5887 92.1653 81.4439 92.195C81.4208 92.1999 79.1074 92.6797 75.616 93.1537C74.9554 93.2435 74.128 93.2892 73.1573 93.2892C69.6697 93.2892 65.7905 92.7194 65.0465 92.3462C65.0357 92.2766 65.0494 92.1881 65.154 92.111Z" fill="#73A1FB"/>
<path d="M70.119 104.513C86.3234 104.499 95.0205 101.617 96.696 99.8038C97.2891 99.1623 97.3531 98.5549 97.3028 98.1581C97.1783 97.1819 96.289 96.5842 96.1881 96.5193C95.9449 96.3629 95.6185 96.4038 95.4288 96.6226C95.2395 96.8414 95.235 97.1612 95.425 97.3799C95.5272 97.5114 95.5863 97.7314 95.2875 98.0306C94.6177 98.6561 87.8623 100.555 76.6144 101.125C75.0736 101.205 73.4575 101.246 71.8113 101.247C61.7405 101.247 54.3702 99.867 53.4027 99.0633C53.7756 98.5274 56.3826 97.6714 59.1551 97.1872C59.3077 97.1636 59.4446 97.0803 59.5358 96.9558C59.6269 96.8313 59.6649 96.6756 59.6413 96.5231C59.6177 96.3705 59.5345 96.2336 59.4099 96.1424C59.2854 96.0512 59.1297 96.0133 58.9772 96.0369C58.899 96.0475 58.6336 96.0634 58.3263 96.0822C53.7517 96.3615 48.4654 96.984 48.1896 99.341C48.1058 100.059 48.3193 100.711 48.8242 101.279C50.0596 102.667 53.6106 104.512 70.1184 104.512L70.119 104.513Z" fill="#73A1FB"/>
<path d="M99.8768 100.315C99.7654 100.263 99.6405 100.248 99.5201 100.272C99.3996 100.296 99.2897 100.357 99.2062 100.447C99.1825 100.472 96.7462 103.02 89.4209 104.516C86.6166 105.078 81.3525 105.363 73.7751 105.363C66.1834 105.363 58.9596 105.064 58.8876 105.061C58.5859 105.046 58.3278 105.266 58.2867 105.563C58.2669 105.706 58.3011 105.852 58.3828 105.971C58.4644 106.09 58.5876 106.175 58.7283 106.209C58.8034 106.227 66.374 108 76.725 108C81.6897 108 86.5207 107.597 91.0843 106.801C99.5934 105.31 100.189 101.09 100.21 100.911C100.225 100.79 100.2 100.666 100.14 100.559C100.081 100.452 99.9883 100.366 99.8768 100.315Z" fill="#73A1FB"/>
</g>
<defs>
<filter id="filter0_d_2030_7393" x="0.666667" y="0.571429" width="146.667" height="146.667" filterUnits="userSpaceOnUse" color-interpolation-filters="sRGB">
<feFlood flood-opacity="0" result="BackgroundImageFix"/>
<feColorMatrix in="SourceAlpha" type="matrix" values="0 0 0 0 0 0 0 0 0 0 0 0 0 0 0 0 0 0 127 0" result="hardAlpha"/>
<feOffset dy="1.90476"/>
<feGaussianBlur stdDeviation="6.66667"/>
<feComposite in2="hardAlpha" operator="out"/>
<feColorMatrix type="matrix" values="0 0 0 0 0.695898 0 0 0 0 0.695898 0 0 0 0 0.695898 0 0 0 0.25 0"/>
<feBlend mode="normal" in2="BackgroundImageFix" result="effect1_dropShadow_2030_7393"/>
<feBlend mode="normal" in="SourceGraphic" in2="effect1_dropShadow_2030_7393" result="shape"/>
</filter>
<clipPath id="clip0_2030_7393">
<rect width="71" height="71" fill="white" transform="translate(39 37)"/>
</clipPath>
</defs>
</svg>
