<svg width="141" height="41" viewBox="0 0 141 41" fill="none" xmlns="http://www.w3.org/2000/svg">
<g clip-path="url(#clip0_2084_368)">
<path d="M43.1373 0H36.6953V40.053H43.1373V0Z" fill="#092A35"/>
<path d="M65.6767 27.3093C65.6767 33.3311 60.4951 33.8912 59.0947 33.8912C55.3134 33.8912 54.4732 30.2499 54.4732 28.0094V12.8845H48.0312V28.1494C48.0312 31.9308 49.2915 35.012 51.2525 37.2525C53.0729 39.0729 55.874 40.0536 58.9552 40.0536C61.1962 40.0536 64.1368 39.4935 65.5372 37.8126V40.0536H71.9791V12.8845H65.5372V27.3093H65.6772H65.6767Z" fill="#092A35"/>
<path d="M84.7191 3.22046H78.2772V12.8836H73.5156V19.3256H78.2772V40.0522H84.7191V19.3256H89.4807V12.8836H84.7191V3.22046Z" fill="#092A35"/>
<path d="M109.648 31.9292C108.248 33.1895 106.427 33.8896 104.466 33.8896C99.9847 33.8896 96.7634 30.6684 96.7634 26.0469C96.7634 21.4253 99.9847 18.3442 104.466 18.3442C106.427 18.3442 108.248 18.9043 109.648 20.3046L110.628 21.1448L114.829 16.9434L113.849 15.9632C111.188 13.7226 107.967 12.3218 104.466 12.3218C96.4834 12.1818 90.6016 17.9236 90.6016 26.0464C90.6016 34.1692 96.6234 39.911 104.466 39.911C108.107 39.911 111.468 38.6507 114.129 36.2697L115.11 35.2895L110.628 30.808L109.648 31.9282V31.9292Z" fill="#092A35"/>
<path d="M137.95 15.2649C136.129 13.4445 133.888 12.4638 130.947 12.4638C128.706 12.4638 126.325 13.0239 124.645 14.7043V0H118.203V40.053H124.645V24.9281C124.645 18.9062 129.127 18.3461 130.527 18.3461C134.308 18.3461 134.308 21.9874 134.308 24.2279V40.053H140.75V24.0879C140.89 20.5866 140.05 17.3659 137.949 15.2649H137.95Z" fill="#092A35"/>
<path d="M104.184 30.8109C106.736 30.8109 108.806 28.7418 108.806 26.1894C108.806 23.637 106.736 21.5679 104.184 21.5679C101.632 21.5679 99.5625 23.637 99.5625 26.1894C99.5625 28.7418 101.632 30.8109 104.184 30.8109Z" fill="#FF3D2E"/>
<path d="M27.8692 29.9698C25.4887 32.3504 21.9874 33.7512 18.6262 33.7512C11.3435 33.7512 6.16189 28.1494 6.16189 20.4467C6.16189 12.744 11.3435 7.14222 18.4861 7.14222C21.8474 7.14222 25.0681 8.54254 27.7292 10.9236L28.7094 11.9038L32.9109 7.70235L31.9306 6.72212C28.2893 3.08128 23.5278 1.12036 18.4861 1.12036C7.84274 1.26039 0 9.52324 0 20.5867C0 31.6502 7.84274 39.9131 18.4861 39.9131C23.6678 39.9131 28.5694 37.9526 31.9306 34.3113L32.9109 33.3311L28.7094 28.8496L27.8692 29.9698Z" fill="#092A35"/>
</g>
<defs>
<clipPath id="clip0_2084_368">
<rect width="140.761" height="40.053" fill="white"/>
</clipPath>
</defs>
</svg>
