<svg width="100" height="100" viewBox="0 0 100 100" fill="none" xmlns="http://www.w3.org/2000/svg">
<path d="M49.0945 61.3078H51.243V62.3531H49.0945V61.3078ZM51.2426 14.6977V8H49.0941V14.6977C49.8098 14.6607 50.5269 14.6607 51.2426 14.6977ZM29.6898 34.1023H22.9922V36.2508H29.6895C29.6525 35.5351 29.6529 34.818 29.6898 34.1023ZM70.6477 36.2508H77.3453V34.1023H70.6477C70.6846 34.818 70.6846 35.5351 70.6477 36.2508ZM37.5105 11.1039L35.65 12.1781L38.9984 17.9777C39.599 17.5865 40.2196 17.227 40.8578 16.9008L37.5105 11.1039ZM26.0961 47.8348L27.1703 49.6949L32.9695 46.3469C32.5784 45.7463 32.2191 45.1257 31.893 44.4875L26.0961 47.8348ZM74.2414 22.5184L73.1672 20.6582L67.3676 24.0063C67.7587 24.6068 68.1181 25.2274 68.4441 25.8656L74.2414 22.5184ZM73.1672 49.6953L74.2414 47.8344L68.4445 44.4875C68.1183 45.1257 67.7588 45.7463 67.3676 46.3469L73.1672 49.6953ZM27.1703 20.6582L26.0961 22.5187L31.893 25.8656C32.2191 25.2274 32.5784 24.6068 32.9695 24.0063L27.1703 20.6582ZM64.6871 12.1781L62.8266 11.1039L59.4797 16.9008C60.1179 17.227 60.7385 17.5865 61.3391 17.9777L64.6871 12.1781Z" fill="#F29C1F"/>
<path d="M49.5766 19.0582C41.0449 19.3785 34.3762 26.452 34.3672 35.1414C34.3723 40.2496 36.6789 44.5945 40.3125 47.4602C42.2047 48.9523 43.2715 51.2582 43.2715 53.668V55.3621H57.075V53.6316C57.075 51.2285 58.1379 48.9289 60.0231 47.4391C63.6492 44.5723 65.9746 40.2359 65.9801 35.1414C65.9703 26.0492 58.5723 18.7207 49.5766 19.0582Z" fill="#FCC62D"/>
<path d="M53.5914 44.2074C53.3961 44.2074 53.2012 44.1543 53.0289 44.0481L50.1676 42.2879L47.3074 44.0481C47.1381 44.1524 46.9432 44.2076 46.7443 44.2076C46.5455 44.2076 46.3505 44.1524 46.1812 44.0481L42.7578 41.9414L43.884 40.1117L46.7441 41.8719L49.6047 40.1117C49.774 40.0076 49.9688 39.9524 50.1676 39.9524C50.3663 39.9524 50.5612 40.0076 50.7305 40.1117L53.5914 41.8723L56.4527 40.1117L57.5785 41.9414L54.1543 44.0485C53.9851 44.1525 53.79 44.2075 53.5914 44.2074Z" fill="#8D969D"/>
<path d="M51.2797 53.5516L53.2004 42.875L55.3145 43.2555L53.3937 53.9316L51.2797 53.5516ZM45.0312 43.193L47.1453 42.8125L49.066 53.4891L46.952 53.8691L45.0312 43.193Z" fill="#8D969D"/>
<path d="M54.5195 55.4618H45.8281V51.6157L47.134 50.3098H53.2137L54.5195 51.6157V55.4618ZM51.7035 66.7344H48.6438C48.2171 66.7344 47.808 66.5649 47.5063 66.2633C47.2046 65.9616 47.0352 65.5525 47.0352 65.1258V57.934H53.3125V65.1258C53.3125 65.3371 53.2709 65.5464 53.19 65.7416C53.1091 65.9368 52.9905 66.1142 52.8411 66.2636C52.6916 66.4129 52.5142 66.5314 52.3189 66.6122C52.1237 66.693 51.9144 66.7345 51.7031 66.7344H51.7035Z" fill="#AFB7BB"/>
<path d="M53.8512 63.4418H46.4832C45.6298 63.4418 44.8114 63.1028 44.208 62.4994C43.6046 61.896 43.2656 61.0776 43.2656 60.2242V54.0137H57.0691V60.2242C57.0691 61.9938 55.6215 63.4418 53.8516 63.4418H53.8512Z" fill="#8D969D"/>
<path d="M42.0938 55.6461H58.2414V57.7946H42.0938V55.6461ZM42.0938 59.4844H58.2414V61.6328H42.0938V59.4844Z" fill="#AFB7BB"/>
<path d="M51.2188 85.8266H49.0703V78.8149C49.0703 74.4469 52.0168 70.607 56.2359 69.4766L86.4758 61.3738L87.0316 63.4488L56.7918 71.5516C53.5105 72.4309 51.2188 75.4176 51.2188 78.8149V85.8266Z" fill="#8D969D"/>
<path d="M51.2742 85.8265H49.1258V78.8148C49.1258 75.4175 46.834 72.4308 43.5523 71.5515L13.3125 63.4488L13.8684 61.3738L44.1082 69.4765C48.3273 70.607 51.2742 74.4468 51.2742 78.8148V85.8265Z" fill="#8D969D"/>
<path d="M50.1977 83.1848V80.9645C50.1977 76.2379 46.3305 72.3707 41.6039 72.3707H17.668C14.7016 72.3707 12.2969 74.7754 12.2969 77.7418V83.1848H50.1977Z" fill="#AFB7BB"/>
<path d="M50.1484 83.1848V80.9645C50.1484 76.2379 54.0156 72.3707 58.7422 72.3707H82.6781C85.6445 72.3707 88.0492 74.7754 88.0492 77.7418V83.1848H50.1484Z" fill="#AFB7BB"/>
<path d="M51.5172 92.0524H48.7727C46.9922 92.0524 45.6066 90.5965 45.602 88.816C45.5941 86.0254 43.3219 83.7574 40.5297 83.7574H10.1484C9.57864 83.7574 9.03217 83.5311 8.62926 83.1282C8.22635 82.7253 8 82.1788 8 81.609V79.4606C8 78.8908 8.22635 78.3443 8.62926 77.9414C9.03217 77.5385 9.57864 77.3121 10.1484 77.3121H40.5297C44.5594 77.3121 48.1121 79.3918 50.1711 82.5348C52.2297 79.3918 55.7828 77.3121 59.8125 77.3121H90.1937C90.7635 77.3121 91.31 77.5385 91.7129 77.9414C92.1158 78.3443 92.3422 78.8908 92.3422 79.4606V81.609C92.3422 82.1788 92.1158 82.7253 91.7129 83.1282C91.31 83.5311 90.7635 83.7574 90.1937 83.7574H59.8125C57.0207 83.7574 54.7187 86.0129 54.7398 88.8043C54.7432 89.2297 54.6623 89.6515 54.5019 90.0454C54.3414 90.4393 54.1046 90.7976 53.805 91.0995C53.5054 91.4015 53.149 91.6411 52.7563 91.8047C52.3637 91.9682 51.9425 92.0524 51.5172 92.0524Z" fill="#20A5A5"/>
</svg>
