<svg width="49" height="49" viewBox="0 0 49 49" fill="none" xmlns="http://www.w3.org/2000/svg">
<circle cx="24.458" cy="24.4345" r="23.9345" stroke="url(#paint0_linear_735_78)"/>
<path d="M34.2352 34.2069V27.0475C34.2352 23.5289 33.4777 20.8411 29.3727 20.8411C27.3935 20.8411 26.074 21.9163 25.5365 22.9425H25.4876V21.1588H21.6025V34.2069H25.6586V27.7317C25.6586 26.0213 25.9763 24.3841 28.0777 24.3841C30.1546 24.3841 30.179 26.3145 30.179 27.8294V34.1824H34.2352V34.2069ZM15.0051 21.1588H19.0613V34.2069H15.0051V21.1588ZM17.0332 14.6592C15.7382 14.6592 14.6875 15.7099 14.6875 17.0049C14.6875 18.2999 15.7382 19.3751 17.0332 19.3751C18.3283 19.3751 19.3789 18.2999 19.3789 17.0049C19.3789 15.7099 18.3283 14.6592 17.0332 14.6592Z" fill="url(#paint1_linear_735_78)"/>
<defs>
<linearGradient id="paint0_linear_735_78" x1="0.0234375" y1="0" x2="58.6067" y2="29.7219" gradientUnits="userSpaceOnUse">
<stop stop-color="#3AC3EB"/>
<stop offset="1" stop-color="#792F85"/>
</linearGradient>
<linearGradient id="paint1_linear_735_78" x1="14.6875" y1="14.6592" x2="38.1209" y2="26.548" gradientUnits="userSpaceOnUse">
<stop stop-color="#3AC3EB"/>
<stop offset="1" stop-color="#792F85"/>
</linearGradient>
</defs>
</svg>
