<svg width="89" height="89" viewBox="0 0 89 89" fill="none" xmlns="http://www.w3.org/2000/svg">
<circle cx="44.5" cy="44.5" r="43.5" fill="white" stroke="#D8E2E4" stroke-width="2"/>
<path d="M62.389 35.6065L50.1447 47.8509C48.7794 49.2127 46.9298 49.9775 45.0014 49.9775C43.0731 49.9775 41.2234 49.2127 39.8581 47.8509L27.6138 35.6065C27.5934 35.8363 27.5469 36.0443 27.5469 36.2727V53.7272C27.5492 55.6554 28.3162 57.5039 29.6796 58.8673C31.043 60.2307 32.8915 60.9977 34.8196 61H55.1832C57.1114 60.9977 58.9599 60.2307 60.3233 58.8673C61.6867 57.5039 62.4536 55.6554 62.4559 53.7272V36.2727C62.4559 36.0443 62.4094 35.8363 62.389 35.6065Z" fill="url(#paint0_linear_2127_212)"/>
<path d="M48.0917 45.7942L61.3775 32.5069C60.7339 31.4397 59.8262 30.5564 58.7418 29.9422C57.6575 29.3279 56.4332 29.0034 55.187 29H34.8234C33.5771 29.0034 32.3528 29.3279 31.2685 29.9422C30.1842 30.5564 29.2764 31.4397 28.6328 32.5069L41.9186 45.7942C42.7384 46.6106 43.8482 47.069 45.0052 47.069C46.1621 47.069 47.272 46.6106 48.0917 45.7942Z" fill="url(#paint1_linear_2127_212)"/>
<defs>
<linearGradient id="paint0_linear_2127_212" x1="27.5469" y1="35.6065" x2="62.9466" y2="60.2964" gradientUnits="userSpaceOnUse">
<stop stop-color="#3AC3EB"/>
<stop offset="1" stop-color="#792F85"/>
</linearGradient>
<linearGradient id="paint1_linear_2127_212" x1="28.6328" y1="29" x2="55.3803" y2="53.5919" gradientUnits="userSpaceOnUse">
<stop stop-color="#3AC3EB"/>
<stop offset="1" stop-color="#792F85"/>
</linearGradient>
</defs>
</svg>
