<svg width="148" height="148" viewBox="0 0 148 148" fill="none" xmlns="http://www.w3.org/2000/svg">
<g filter="url(#filter0_d_2014_1025)">
<circle cx="74" cy="72" r="60" fill="white"/>
</g>
<path d="M57.8592 72.5H80.0467C82.1466 72.4954 84.1768 71.7464 85.7766 70.3861C87.3763 69.0258 88.4419 67.1423 88.7838 65.0704C89.1258 62.9985 88.7221 60.8725 87.6444 59.0702C86.5667 57.268 84.8848 55.9062 82.8978 55.227C82.1512 53.0173 80.5633 51.191 78.4787 50.1447C76.3941 49.0983 73.981 48.9163 71.763 49.638C70.676 48.1001 69.1281 46.9478 67.343 46.3478C65.5579 45.7479 63.6282 45.7313 61.833 46.3004C60.0379 46.8696 58.4703 47.9951 57.3571 49.5141C56.2438 51.0331 55.6426 52.8668 55.6404 54.75C55.6404 54.8465 55.6515 54.9408 55.6548 55.0373C53.5694 55.5812 51.7531 56.8654 50.545 58.6502C49.3369 60.4349 48.8195 62.5983 49.0894 64.7366C49.3593 66.8748 50.3981 68.8418 52.0118 70.2703C53.6256 71.6989 55.704 72.4914 57.8592 72.5Z" fill="#C0DAFC"/>
<path d="M88.6415 65.8438C89.1995 63.6759 88.9176 61.3773 87.8523 59.4084C86.787 57.4396 85.0171 55.9461 82.8972 55.2271C82.1507 53.0173 80.5628 51.1911 78.4782 50.1447C76.3936 49.0984 73.9804 48.9163 71.7624 49.6381C70.6569 48.0723 69.0758 46.9051 67.2539 46.3099C68.343 44.7599 69.9007 43.6002 71.6978 43.0011C73.495 42.402 75.437 42.3953 77.2383 42.9818C78.3255 41.4449 79.8734 40.2935 81.6581 39.6941C83.4427 39.0947 85.3718 39.0784 87.1664 39.6475C88.9609 40.2166 90.528 41.3416 91.6412 42.8599C92.7543 44.3782 93.3557 46.2112 93.3586 48.0938C93.3586 48.1903 93.3475 48.2846 93.3442 48.3811C95.4296 48.925 97.2459 50.2092 98.454 51.994C99.6621 53.7787 100.18 55.9421 99.9096 58.0804C99.6397 60.2186 98.6009 62.1856 96.9872 63.6141C95.3735 65.0427 93.295 65.8352 91.1399 65.8438H88.6415Z" fill="#78A0D4"/>
<path d="M53.4219 99.125V72.5C53.4219 71.9116 53.6556 71.3472 54.0717 70.9311C54.4878 70.515 55.0522 70.2812 55.6406 70.2812H93.3594C93.9478 70.2812 94.5122 70.515 94.9283 70.9311C95.3444 71.3472 95.5781 71.9116 95.5781 72.5V99.125H53.4219Z" fill="#939393"/>
<path d="M57.8594 74.7188H91.1406V99.125H57.8594V74.7188Z" fill="#CCCCCC"/>
<path d="M86.7031 92.4688V74.7188H57.8594V94.6875H84.4844C85.0728 94.6875 85.6372 94.4537 86.0533 94.0376C86.4694 93.6215 86.7031 93.0572 86.7031 92.4688Z" fill="#F2F2F2"/>
<path d="M51.2031 99.125H97.7969C98.3853 99.125 98.9497 99.3588 99.3658 99.7749C99.7819 100.191 100.016 100.755 100.016 101.344C100.016 102.521 99.5481 103.649 98.7159 104.482C97.8837 105.314 96.755 105.781 95.5781 105.781H53.4219C52.245 105.781 51.1163 105.314 50.2841 104.482C49.4519 103.649 48.9844 102.521 48.9844 101.344C48.9844 100.755 49.2181 100.191 49.6342 99.7749C50.0503 99.3588 50.6147 99.125 51.2031 99.125Z" fill="#686868"/>
<path d="M86.7031 71.3906V66.9531H84.2281C83.9786 65.8581 83.5449 64.8134 82.9457 63.8635L84.6974 62.1118L81.5601 58.9745L79.8084 60.7262C78.8585 60.1269 77.8138 59.6933 76.7188 59.4438V56.9688H72.2812V59.4438C71.1862 59.6933 70.1415 60.1269 69.1916 60.7262L67.4399 58.9745L64.3026 62.1118L66.0543 63.8635C65.4551 64.8134 65.0214 65.8581 64.7719 66.9531H62.2969V71.3906H64.7719C65.0214 72.4857 65.4551 73.5304 66.0543 74.4802L64.3026 76.2319L67.4399 79.3693L69.1916 77.6175C70.1415 78.2168 71.1862 78.6505 72.2812 78.9V81.375H76.7188V78.9C77.8138 78.6505 78.8585 78.2168 79.8084 77.6175L81.5601 79.3693L84.6974 76.2319L82.9457 74.4802C83.5449 73.5304 83.9786 72.4857 84.2281 71.3906H86.7031Z" fill="#474747"/>
<path d="M74.5 74.7188C77.5635 74.7188 80.0469 72.2353 80.0469 69.1719C80.0469 66.1084 77.5635 63.625 74.5 63.625C71.4365 63.625 68.9531 66.1084 68.9531 69.1719C68.9531 72.2353 71.4365 74.7188 74.5 74.7188Z" fill="#F2F2F2"/>
<path d="M105.562 91.3594H98.9062V89.1406H105.562C105.857 89.1406 106.139 89.0237 106.347 88.8157C106.555 88.6077 106.672 88.3255 106.672 88.0312V59.1875C106.672 58.8933 106.555 58.6111 106.347 58.4031C106.139 58.195 105.857 58.0781 105.562 58.0781H103.344V55.8594H105.562C106.445 55.8594 107.292 56.21 107.916 56.8342C108.54 57.4583 108.891 58.3048 108.891 59.1875V88.0312C108.891 88.9139 108.54 89.7604 107.916 90.3846C107.292 91.0087 106.445 91.3594 105.562 91.3594ZM50.0938 91.3594H43.4375C42.5548 91.3594 41.7083 91.0087 41.0842 90.3846C40.46 89.7604 40.1094 88.9139 40.1094 88.0312V59.1875C40.1094 58.3048 40.46 57.4583 41.0842 56.8342C41.7083 56.21 42.5548 55.8594 43.4375 55.8594H45.6562V58.0781H43.4375C43.1433 58.0781 42.8611 58.195 42.6531 58.4031C42.445 58.6111 42.3281 58.8933 42.3281 59.1875V88.0312C42.3281 88.3255 42.445 88.6077 42.6531 88.8157C42.8611 89.0237 43.1433 89.1406 43.4375 89.1406H50.0938V91.3594Z" fill="#F0AE42"/>
<defs>
<filter id="filter0_d_2014_1025" x="0.666667" y="0.571429" width="146.667" height="146.667" filterUnits="userSpaceOnUse" color-interpolation-filters="sRGB">
<feFlood flood-opacity="0" result="BackgroundImageFix"/>
<feColorMatrix in="SourceAlpha" type="matrix" values="0 0 0 0 0 0 0 0 0 0 0 0 0 0 0 0 0 0 127 0" result="hardAlpha"/>
<feOffset dy="1.90476"/>
<feGaussianBlur stdDeviation="6.66667"/>
<feComposite in2="hardAlpha" operator="out"/>
<feColorMatrix type="matrix" values="0 0 0 0 0.695898 0 0 0 0 0.695898 0 0 0 0 0.695898 0 0 0 0.25 0"/>
<feBlend mode="normal" in2="BackgroundImageFix" result="effect1_dropShadow_2014_1025"/>
<feBlend mode="normal" in="SourceGraphic" in2="effect1_dropShadow_2014_1025" result="shape"/>
</filter>
</defs>
</svg>
