<svg width="84" height="84" viewBox="0 0 84 84" fill="none" xmlns="http://www.w3.org/2000/svg">
<path d="M41.9972 78.7501C48.3273 78.75 54.55 77.1149 60.0625 74.0031C65.5749 70.8913 70.1901 66.4083 73.4608 60.9887C76.7315 55.5691 78.5469 49.3965 78.731 43.0691C78.9152 36.7417 77.4618 30.474 74.5117 24.8733C74.3448 24.5727 74.0666 24.3496 73.7369 24.252C73.4072 24.1544 73.0523 24.1901 72.7487 24.3514C72.445 24.5127 72.2167 24.7867 72.113 25.1145C72.0092 25.4424 72.0383 25.7978 72.1939 26.1044C74.7776 31.0043 76.1261 36.4608 76.1222 42.0001C74.2519 87.2643 9.7425 87.2643 7.87219 42.0001C7.55719 16.6925 35.6972 -0.270246 57.8942 11.8048C58.0465 11.8855 58.2132 11.9355 58.3847 11.9518C58.5563 11.9681 58.7295 11.9505 58.8942 11.8999C59.059 11.8493 59.2122 11.7668 59.3451 11.657C59.478 11.5472 59.5879 11.4123 59.6687 11.2601C59.7494 11.1078 59.7994 10.9411 59.8157 10.7695C59.8321 10.5979 59.8144 10.4248 59.7638 10.26C59.7133 10.0952 59.6307 9.94203 59.5209 9.80915C59.4112 9.67627 59.2763 9.56632 59.124 9.48557C53.845 6.70053 47.9658 5.24661 41.9972 5.25013C-6.74906 7.26482 -6.74906 76.7368 41.9972 78.7501Z" fill="#9A9A9A"/>
<path d="M41.9986 31.5001C43.1349 31.4993 44.2633 31.6878 45.3376 32.0579C45.6668 32.1712 46.0274 32.1491 46.3403 31.9965C46.6531 31.8439 46.8925 31.5732 47.0058 31.2441C47.5833 28.9249 43.4949 29.0168 41.9986 28.8751C24.5883 29.5943 24.5896 54.4058 41.9986 55.1251C45.4784 55.1212 48.8146 53.7372 51.2752 51.2766C53.7358 48.816 55.1198 45.4799 55.1236 42.0001C54.9898 40.4776 55.0777 36.4311 52.7664 37.006C52.4376 37.1193 52.1672 37.3585 52.0146 37.6711C51.8621 37.9836 51.8398 38.3439 51.9526 38.6729C52.3182 39.7439 52.5028 40.8684 52.4986 42.0001C51.9723 55.9086 32.0236 55.9086 31.4986 42.0001C31.5021 39.2164 32.6095 36.5477 34.5779 34.5793C36.5462 32.6109 39.2149 31.5035 41.9986 31.5001Z" fill="#092A35"/>
<path d="M54.5629 21.9649C54.6466 21.8141 54.6997 21.6483 54.7193 21.4769C54.7388 21.3056 54.7244 21.1321 54.6769 20.9663C54.6293 20.8005 54.5496 20.6457 54.4422 20.5108C54.3348 20.3759 54.2019 20.2634 54.051 20.1799C50.361 18.1376 46.2132 17.0651 41.9957 17.0627C8.9181 18.4303 8.9181 65.5714 41.9957 66.9377C46.3337 66.9403 50.5973 65.8105 54.3648 63.6602C58.1324 61.5098 61.2734 58.4133 63.4774 54.6769C65.6813 50.9405 66.8719 46.6935 66.9312 42.3559C66.9906 38.0183 65.9168 33.7403 63.816 29.9449C63.6472 29.6403 63.3643 29.4152 63.0295 29.3192C62.6948 29.2233 62.3356 29.2642 62.031 29.433C61.7264 29.6018 61.5014 29.8847 61.4054 30.2195C61.3094 30.5542 61.3503 30.9134 61.5192 31.218C69.8404 45.645 58.6645 64.6014 41.9957 64.3127C36.0801 64.3061 30.4087 61.9532 26.2257 57.7702C22.0427 53.5872 19.6898 47.9158 19.6832 42.0002C19.3971 25.3327 38.3483 14.1555 52.7779 22.4767C52.9286 22.5608 53.0944 22.6142 53.2659 22.6339C53.4373 22.6537 53.6109 22.6393 53.7768 22.5918C53.9426 22.5442 54.0975 22.4643 54.2324 22.3568C54.3673 22.2492 54.4796 22.116 54.5629 21.9649Z" fill="#9A9A9A"/>
<path d="M57.1247 18.2411L57.6064 24.5372L41.0716 41.0721C40.8325 41.3196 40.7002 41.6511 40.7032 41.9953C40.7062 42.3394 40.8442 42.6686 41.0875 42.912C41.3309 43.1553 41.6601 43.2933 42.0042 43.2963C42.3484 43.2993 42.6799 43.167 42.9274 42.9279L59.4623 26.3931L65.7584 26.8748C65.947 26.8891 66.1365 26.8625 66.3138 26.7968C66.4912 26.7311 66.6523 26.6279 66.7861 26.4941L76.3384 16.9418C76.5121 16.7628 76.6316 16.5384 76.6831 16.2944C76.7346 16.0505 76.7161 15.7969 76.6296 15.563C76.5431 15.3291 76.3923 15.1245 76.1944 14.9727C75.9966 14.8209 75.7598 14.7282 75.5116 14.7053L69.7366 14.2629L69.2942 8.48795C69.2713 8.23966 69.1786 8.00292 69.0268 7.80509C68.875 7.60725 68.6704 7.45639 68.4365 7.36992C68.2026 7.28345 67.9491 7.2649 67.7051 7.31642C67.4611 7.36794 67.2367 7.48743 67.0577 7.66107L57.5054 17.2134C57.3715 17.3471 57.2681 17.5082 57.2024 17.6856C57.1367 17.863 57.1102 18.0525 57.1247 18.2411ZM66.895 11.5356C67.42 17.6479 66.3857 16.5716 72.4639 17.1045L65.3567 24.2117L60.1842 23.8153L59.7878 18.6441L66.895 11.5356Z" fill="#9A9A9A"/>
</svg>
