<svg width="148" height="148" viewBox="0 0 148 148" fill="none" xmlns="http://www.w3.org/2000/svg">
<g filter="url(#filter0_d_1265_70)">
<circle cx="74" cy="72" r="60" fill="white"/>
</g>
<path d="M55.832 47.2734C55.832 44.8464 57.7995 42.8789 60.2266 42.8789H87.5312C89.9583 42.8789 91.9258 44.8464 91.9258 47.2734V96.7266C91.9258 99.1536 89.9583 101.121 87.5312 101.121H60.2266C57.7995 101.121 55.832 99.1536 55.832 96.7266V47.2734Z" fill="#F9F7F8"/>
<path d="M87.5354 42.8789H86.7422C86.965 43.1552 87.165 43.4491 87.3401 43.7578C87.827 44.6139 88.2585 45.7987 88.2585 47.2734V96.7269C88.2585 98.2036 87.828 99.3859 87.3402 100.242C87.1648 100.551 86.9649 100.845 86.7424 101.121H87.5354C89.9624 101.121 91.93 99.1536 91.93 96.7266V47.2734C91.93 44.8464 89.9624 42.8789 87.5354 42.8789Z" fill="#EFEDEF"/>
<path d="M87.6523 101.766L85.8721 102H60.3477C57.4399 102 55.0742 99.6343 55.0742 96.7266V47.2734C55.0742 44.3657 57.4399 42 60.3477 42H85.8718L87.6523 42.2344C90.5601 42.2344 92.6914 44.3657 92.6914 47.2734V96.7266C92.6914 99.6343 90.5601 101.766 87.6523 101.766ZM60.3477 43.7578C58.4091 43.7578 56.832 45.3349 56.832 47.2734V96.7266C56.832 98.6651 58.4091 100.242 60.3477 100.242H87.337L87.6523 100.477C89.5909 100.477 91.4023 98.3135 91.4023 96.375V47.5078C91.4023 45.5693 89.5909 43.5234 87.6523 43.5234L87.3369 43.7578H60.3477Z" fill="#918291"/>
<path d="M87.6557 42H85.875C85.875 42 86.6686 42.5868 87.3401 43.7578H87.6555C89.5941 43.7578 91.1712 45.5693 91.1712 47.5078V96.375C91.1712 98.3135 89.5941 100.242 87.6555 100.242H87.3402C86.6709 101.409 85.8805 101.996 85.8754 102H87.6555C90.5633 102 92.929 99.6343 92.929 96.7266V47.2734C92.9291 44.3657 90.5636 42 87.6557 42Z" fill="#7A6D79"/>
<path d="M75.4375 47.2734H69.5781C69.345 47.2734 69.1215 47.1808 68.9566 47.016C68.7918 46.8512 68.6992 46.6276 68.6992 46.3945C68.6992 46.1614 68.7918 45.9379 68.9566 45.7731C69.1215 45.6082 69.345 45.5156 69.5781 45.5156H75.4375C75.6706 45.5156 75.8942 45.6082 76.059 45.7731C76.2238 45.9379 76.3164 46.1614 76.3164 46.3945C76.3164 46.6276 76.2238 46.8512 76.059 47.016C75.8942 47.1808 75.6706 47.2734 75.4375 47.2734Z" fill="#EFEDEF"/>
<path d="M78.4258 47.2734C78.9112 47.2734 79.3047 46.8799 79.3047 46.3945C79.3047 45.9091 78.9112 45.5156 78.4258 45.5156C77.9404 45.5156 77.5469 45.9091 77.5469 46.3945C77.5469 46.8799 77.9404 47.2734 78.4258 47.2734Z" fill="#EFEDEF"/>
<path d="M84.7591 63.0561L84.8331 59.5215C84.8331 59.4185 84.7955 59.319 84.7275 59.2417C84.6595 59.1644 84.5656 59.1145 84.4635 59.1013L83.2191 58.9508C83.0561 58.9299 82.9179 58.8173 82.8697 58.6601C82.6979 58.0996 82.6257 57.4109 82.3579 56.9002C82.3504 56.8858 82.3432 56.8712 82.3356 56.8569C82.2584 56.7117 82.2763 56.5341 82.3768 56.4039L83.1394 55.4171C83.2023 55.3356 83.2335 55.2339 83.2269 55.1312C83.2204 55.0284 83.1766 54.9315 83.1038 54.8587L80.4185 52.1735C80.3457 52.1006 80.2488 52.0568 80.146 52.0503C80.0433 52.0437 79.9416 52.0748 79.8601 52.1378L78.8733 52.9004C78.7431 53.0009 78.5657 53.0187 78.4204 52.9416C77.8926 52.6611 77.3392 52.4318 76.7678 52.2567C76.6107 52.2085 76.498 52.0703 76.4771 51.9073L76.3186 50.6709C76.3055 50.5687 76.2556 50.4748 76.1783 50.4068C76.1009 50.3388 76.0015 50.3013 75.8985 50.3013H72.1009C71.9979 50.3013 71.8985 50.3388 71.8211 50.4068C71.7438 50.4749 71.6939 50.5687 71.6808 50.6709L71.5222 51.9073C71.5014 52.0703 71.3888 52.2085 71.2316 52.2567C70.6602 52.4318 70.1068 52.6611 69.579 52.9416C69.4338 53.0188 69.2563 53.0009 69.1261 52.9004L68.1393 52.1378C68.0578 52.0749 67.9561 52.0437 67.8533 52.0503C67.7506 52.0569 67.6537 52.1006 67.5809 52.1735L64.8956 54.8587C64.8228 54.9315 64.779 55.0284 64.7724 55.1312C64.7659 55.234 64.797 55.3356 64.86 55.4171L65.6225 56.4039C65.7231 56.5341 65.7409 56.7115 65.6638 56.8569C65.3833 57.3846 65.1539 57.938 64.9788 58.5094C64.9307 58.6665 64.7925 58.7792 64.6295 58.8001L63.393 58.9586C63.2909 58.9717 63.197 59.0216 63.129 59.0989C63.0609 59.1763 63.0234 59.2757 63.0234 59.3787V63.1871C63.0235 63.2907 63.0615 63.3908 63.1303 63.4683C63.1991 63.5458 63.294 63.5954 63.3969 63.6077L64.5628 63.7464C64.6626 63.7591 64.7567 63.8 64.834 63.8644C64.9113 63.9288 64.9685 64.014 64.9989 64.1099C65.1713 64.6584 65.3938 65.1899 65.6636 65.6976C65.701 65.7691 65.7171 65.8499 65.7098 65.9303C65.7026 66.0107 65.6723 66.0873 65.6227 66.151L64.8601 67.1379C64.7971 67.2194 64.766 67.3211 64.7726 67.4239C64.7791 67.5266 64.8229 67.6235 64.8957 67.6963L67.581 70.3816C67.6538 70.4544 67.7507 70.4982 67.8535 70.5048C67.9562 70.5113 68.0579 70.4802 68.1394 70.4172L69.1262 69.6547C69.2564 69.5541 69.4338 69.5363 69.5791 69.6134L69.6223 69.6362C70.133 69.9042 70.7951 69.9844 71.3556 70.1562C71.5126 70.2044 71.6254 70.3426 71.6462 70.5056L71.7739 71.6781C71.7871 71.7803 71.8369 71.8742 71.9143 71.9422C71.9916 72.0102 72.0911 72.0478 72.1941 72.0478L75.7254 72.126C75.8284 72.126 75.9278 72.0885 76.0052 72.0205C76.0825 71.9524 76.1324 71.8586 76.1455 71.7564L76.2163 70.5056C76.2371 70.3426 76.3498 70.2044 76.5069 70.1562C77.0832 69.9796 77.897 69.6271 78.4205 69.3489C78.5657 69.2717 78.7432 69.2896 78.8734 69.3902L79.8602 70.1602C79.9417 70.2232 80.0434 70.2543 80.1462 70.2477C80.2489 70.2412 80.3458 70.1974 80.4186 70.1246L82.7773 67.6393C82.8501 67.5665 82.8939 67.4696 82.9005 67.3668C82.907 67.264 82.8759 67.1624 82.8129 67.0809L82.1602 66.1509C82.0595 66.0206 82.042 65.8429 82.1193 65.6975C82.3869 65.1937 82.6857 64.488 82.8594 63.9351C82.8898 63.8392 82.947 63.754 83.0243 63.6896C83.1016 63.6252 83.1957 63.5842 83.2955 63.5716L84.3832 63.4769C84.4866 63.4652 84.5821 63.4158 84.6515 63.3382C84.7208 63.2606 84.7591 63.1602 84.7591 63.0561Z" fill="#918291"/>
<path d="M74.0006 67.3601C77.3599 67.3601 80.0832 64.6368 80.0832 61.2774C80.0832 57.9181 77.3599 55.1948 74.0006 55.1948C70.6412 55.1948 67.918 57.9181 67.918 61.2774C67.918 64.6368 70.6412 67.3601 74.0006 67.3601Z" fill="#F9F7F8"/>
<path d="M84.6054 58.9585L83.3689 58.8C83.2059 58.7791 83.0678 58.6664 83.0196 58.5094C82.8491 57.9536 82.6272 57.4148 82.3569 56.9001C82.0836 60.2797 80.5734 63.295 78.3175 65.5604C76.0477 67.8398 73.0214 69.3612 69.6211 69.6361C70.1359 69.9063 70.6747 70.1279 71.2305 70.2983C71.3876 70.3465 71.5003 70.4846 71.5212 70.6476L71.6797 71.8841C71.6928 71.9862 71.7427 72.0801 71.8201 72.1482C71.8974 72.2162 71.9969 72.2537 72.0998 72.2537H75.8974C76.0004 72.2537 76.0999 72.2162 76.1772 72.1481C76.2545 72.0801 76.3044 71.9862 76.3175 71.8841L76.4761 70.6476C76.497 70.4846 76.6096 70.3465 76.7667 70.2983C77.3382 70.1232 77.8915 69.8938 78.4193 69.6133C78.5645 69.5361 78.742 69.5541 78.8722 69.6546L79.8591 70.4171C79.9406 70.4801 80.0422 70.5112 80.145 70.5047C80.2478 70.4981 80.3446 70.4543 80.4175 70.3815L83.1027 67.6963C83.1755 67.6235 83.2193 67.5266 83.2259 67.4238C83.2325 67.321 83.2013 67.2194 83.1383 67.1379L82.3758 66.1509C82.2751 66.0206 82.2577 65.843 82.3349 65.6975C82.6047 65.1898 82.8272 64.6584 82.9996 64.1099C83.0299 64.014 83.0871 63.9288 83.1644 63.8643C83.2417 63.7999 83.3358 63.759 83.4356 63.7464L84.5987 63.6156C84.7022 63.6039 84.7977 63.5546 84.8671 63.477C84.9365 63.3993 84.9749 63.2989 84.9749 63.1948V59.3788C84.975 59.2758 84.9375 59.1762 84.8695 59.0989C84.8015 59.0215 84.7076 58.9716 84.6054 58.9585Z" fill="#7A6D79"/>
<path d="M80.9705 93.8109L78.8751 94H67.0295C66.4609 94 66 93.5446 66 92.9827V79.0173C66 78.4554 66.4609 78 67.0295 78H78.8751L80.9705 78.1891C81.5391 78.1891 82 78.6445 82 79.2064V92.7936C82 93.3554 81.539 93.8109 80.9705 93.8109Z" fill="#BBEC6C"/>
<path d="M80.826 78H78C78.6484 78 79.174 78.4555 79.174 79.0173V92.9827C79.174 93.5446 78.6484 94 78 94H80.826C81.4744 94 82 93.5446 82 92.9827V79.0173C82 78.4555 81.4744 78 80.826 78Z" fill="#A2E62E"/>
<path d="M78.8866 81.4198C78.3624 81.0112 77.6062 81.1051 77.1977 81.6294L72.9734 87.0506C72.9567 87.072 72.9355 87.0895 72.9113 87.1018C72.8871 87.1141 72.8605 87.1209 72.8333 87.1218C72.8062 87.1227 72.7792 87.1176 72.7542 87.1068C72.7293 87.0961 72.707 87.08 72.689 87.0597L70.6102 84.719C70.1702 84.2236 69.4052 84.1427 68.9019 84.5735C68.3889 85.0124 68.3378 85.7847 68.7841 86.2872L71.9973 89.9055C72.1145 90.0375 72.2593 90.1422 72.4215 90.212C72.5837 90.2817 72.7593 90.315 72.9357 90.3093C73.1122 90.3036 73.2853 90.2592 73.4426 90.1791C73.6 90.0991 73.7378 89.9854 73.8463 89.8461L79.0961 83.1088C79.5048 82.5844 79.4109 81.8283 78.8866 81.4198Z" fill="#F9F7F8"/>
<defs>
<filter id="filter0_d_1265_70" x="0.666667" y="0.571429" width="146.667" height="146.667" filterUnits="userSpaceOnUse" color-interpolation-filters="sRGB">
<feFlood flood-opacity="0" result="BackgroundImageFix"/>
<feColorMatrix in="SourceAlpha" type="matrix" values="0 0 0 0 0 0 0 0 0 0 0 0 0 0 0 0 0 0 127 0" result="hardAlpha"/>
<feOffset dy="1.90476"/>
<feGaussianBlur stdDeviation="6.66667"/>
<feComposite in2="hardAlpha" operator="out"/>
<feColorMatrix type="matrix" values="0 0 0 0 0.695898 0 0 0 0 0.695898 0 0 0 0 0.695898 0 0 0 0.25 0"/>
<feBlend mode="normal" in2="BackgroundImageFix" result="effect1_dropShadow_1265_70"/>
<feBlend mode="normal" in="SourceGraphic" in2="effect1_dropShadow_1265_70" result="shape"/>
</filter>
</defs>
</svg>
