<svg width="148" height="148" viewBox="0 0 148 148" fill="none" xmlns="http://www.w3.org/2000/svg">
<g filter="url(#filter0_d_3247_3115)">
<circle cx="74" cy="72" r="60" fill="white"/>
</g>
<path d="M58.9688 39.2188H90.0312C91.2081 39.2188 92.3368 39.6863 93.169 40.5185C94.0012 41.3507 94.4688 42.4794 94.4688 43.6562V94.6875H54.5312V43.6562C54.5312 42.4794 54.9988 41.3507 55.831 40.5185C56.6632 39.6863 57.7919 39.2188 58.9688 39.2188Z" fill="#BDE7FF"/>
<path d="M54.5312 94.6875H94.4688V101.344C94.4688 102.521 94.0012 103.649 93.169 104.482C92.3368 105.314 91.2081 105.781 90.0312 105.781H58.9688C57.7919 105.781 56.6632 105.314 55.831 104.482C54.9988 103.649 54.5312 102.521 54.5312 101.344V94.6875Z" fill="#4B638E"/>
<path d="M90.0312 38.1094H58.9688C57.4982 38.1111 56.0883 38.6961 55.0485 39.736C54.0086 40.7758 53.4236 42.1857 53.4219 43.6562V101.344C53.4236 102.814 54.0086 104.224 55.0485 105.264C56.0883 106.304 57.4982 106.889 58.9688 106.891H90.0312C91.5018 106.889 92.9117 106.304 93.9515 105.264C94.9914 104.224 95.5764 102.814 95.5781 101.344V43.6562C95.5764 42.1857 94.9914 40.7758 93.9515 39.736C92.9117 38.6961 91.5018 38.1111 90.0312 38.1094ZM55.6406 43.6562C55.6415 42.7738 55.9924 41.9278 56.6164 41.3039C57.2403 40.6799 58.0863 40.329 58.9688 40.3281H90.0312C90.9137 40.329 91.7597 40.6799 92.3836 41.3039C93.0076 41.9278 93.3585 42.7738 93.3594 43.6562V93.5781H55.6406V43.6562ZM93.3594 101.344C93.3585 102.226 93.0076 103.072 92.3836 103.696C91.7597 104.32 90.9137 104.671 90.0312 104.672H58.9688C58.0863 104.671 57.2403 104.32 56.6164 103.696C55.9924 103.072 55.6415 102.226 55.6406 101.344V95.7969H93.3594V101.344Z" fill="#4B638E"/>
<path d="M74.5 102.453C75.7254 102.453 76.7188 101.46 76.7188 100.234C76.7188 99.009 75.7254 98.0156 74.5 98.0156C73.2746 98.0156 72.2812 99.009 72.2812 100.234C72.2812 101.46 73.2746 102.453 74.5 102.453Z" fill="#3B517E"/>
<path d="M87.8125 101.344H83.375C83.0808 101.344 82.7986 101.227 82.5906 101.019C82.3825 100.811 82.2656 100.529 82.2656 100.234C82.2656 99.9402 82.3825 99.658 82.5906 99.4499C82.7986 99.2419 83.0808 99.125 83.375 99.125H87.8125C88.1067 99.125 88.3889 99.2419 88.5969 99.4499C88.805 99.658 88.9219 99.9402 88.9219 100.234C88.9219 100.529 88.805 100.811 88.5969 101.019C88.3889 101.227 88.1067 101.344 87.8125 101.344ZM65.625 101.344H61.1875C60.8933 101.344 60.6111 101.227 60.4031 101.019C60.195 100.811 60.0781 100.529 60.0781 100.234C60.0781 99.9402 60.195 99.658 60.4031 99.4499C60.6111 99.2419 60.8933 99.125 61.1875 99.125H65.625C65.9192 99.125 66.2014 99.2419 66.4094 99.4499C66.6175 99.658 66.7344 99.9402 66.7344 100.234C66.7344 100.529 66.6175 100.811 66.4094 101.019C66.2014 101.227 65.9192 101.344 65.625 101.344Z" fill="#3B517E"/>
<path d="M78.9375 44.7656H70.0625C69.7683 44.7656 69.4861 44.6487 69.2781 44.4407C69.07 44.2326 68.9531 43.9505 68.9531 43.6562C68.9531 43.362 69.07 43.0799 69.2781 42.8718C69.4861 42.6638 69.7683 42.5469 70.0625 42.5469H78.9375C79.2317 42.5469 79.5139 42.6638 79.7219 42.8718C79.93 43.0799 80.0469 43.362 80.0469 43.6562C80.0469 43.9505 79.93 44.2326 79.7219 44.4407C79.5139 44.6487 79.2317 44.7656 78.9375 44.7656Z" fill="#A0D2F7"/>
<path d="M83.375 44.7656C83.9877 44.7656 84.4844 44.2689 84.4844 43.6562C84.4844 43.0436 83.9877 42.5469 83.375 42.5469C82.7623 42.5469 82.2656 43.0436 82.2656 43.6562C82.2656 44.2689 82.7623 44.7656 83.375 44.7656Z" fill="#A0D2F7"/>
<path d="M60.0781 49.2031H88.9219V58.0781H60.0781V49.2031Z" fill="#5A719E"/>
<path d="M62.2969 51.4219H88.9219V58.0781H62.2969V51.4219Z" fill="#4B638E"/>
<path d="M84.4844 54.75H75.6094C75.3152 54.75 75.033 54.6331 74.8249 54.4251C74.6169 54.217 74.5 53.9348 74.5 53.6406C74.5 53.3464 74.6169 53.0642 74.8249 52.8562C75.033 52.6481 75.3152 52.5312 75.6094 52.5312H84.4844C84.7786 52.5312 85.0608 52.6481 85.2688 52.8562C85.4769 53.0642 85.5938 53.3464 85.5938 53.6406C85.5938 53.9348 85.4769 54.217 85.2688 54.4251C85.0608 54.6331 84.7786 54.75 84.4844 54.75Z" fill="white"/>
<path d="M71.1719 62.5156H88.9219V71.3906H71.1719V62.5156Z" fill="#5A719E"/>
<path d="M73.3906 64.7344H88.9219V71.3906H73.3906V64.7344Z" fill="#4B638E"/>
<path d="M66.7344 75.8281H88.9219V89.1406H66.7344V75.8281Z" fill="#F2B442"/>
<path d="M66.7344 78.0469H88.9219V89.1406H66.7344V78.0469Z" fill="#F09A23"/>
<path d="M60.0781 62.5156H66.7344V71.3906H60.0781V62.5156Z" fill="#F4666A"/>
<path d="M62.2969 64.7344H66.7344V71.3906H62.2969V64.7344Z" fill="#EC4A54"/>
<path d="M60.0781 75.8281H66.7344V89.1406H60.0781V75.8281Z" fill="#5A719E"/>
<path d="M62.2969 78.0469H66.7344V89.1406H62.2969V78.0469Z" fill="#4B638E"/>
<defs>
<filter id="filter0_d_3247_3115" x="0.666667" y="0.571429" width="146.667" height="146.667" filterUnits="userSpaceOnUse" color-interpolation-filters="sRGB">
<feFlood flood-opacity="0" result="BackgroundImageFix"/>
<feColorMatrix in="SourceAlpha" type="matrix" values="0 0 0 0 0 0 0 0 0 0 0 0 0 0 0 0 0 0 127 0" result="hardAlpha"/>
<feOffset dy="1.90476"/>
<feGaussianBlur stdDeviation="6.66667"/>
<feComposite in2="hardAlpha" operator="out"/>
<feColorMatrix type="matrix" values="0 0 0 0 0.695898 0 0 0 0 0.695898 0 0 0 0 0.695898 0 0 0 0.25 0"/>
<feBlend mode="normal" in2="BackgroundImageFix" result="effect1_dropShadow_3247_3115"/>
<feBlend mode="normal" in="SourceGraphic" in2="effect1_dropShadow_3247_3115" result="shape"/>
</filter>
</defs>
</svg>
