<svg width="148" height="148" viewBox="0 0 148 148" fill="none" xmlns="http://www.w3.org/2000/svg">
<g filter="url(#filter0_d_1265_66)">
<circle cx="74" cy="72" r="60" fill="white"/>
</g>
<g clip-path="url(#clip0_1265_66)">
<path d="M82.9301 80.9916L81.6195 82.3027L78.3281 85.5932L90.1621 97.4272C92.3403 99.6054 95.8724 99.6054 98.0511 97.4272L98.7084 96.7699L82.9301 80.9916Z" fill="#005ECE"/>
<path d="M82.9297 80.9916L98.708 96.77L99.3653 96.1127C101.544 93.934 101.544 90.402 99.3653 88.2233L87.5313 76.3892L84.2408 79.6805L82.9297 80.9916Z" fill="#006DF0"/>
<path d="M48.7442 46.8043L47.4336 48.1154L50.7153 55.3488L55.0573 55.7487L67.8137 68.4958L69.1248 67.1846L48.7442 46.8043Z" fill="#D1D3D4"/>
<path d="M70.4335 65.874L57.6865 53.1172L57.2867 48.7753L50.0532 45.4932L48.7422 46.8042L69.1229 67.1846L70.4335 65.874ZM78.3279 76.3896L79.6386 75.0784L84.2406 79.6805L82.93 80.9916L78.3279 76.3896Z" fill="#E6E7E8"/>
<path d="M77.0156 77.7003L78.3267 76.3896L82.9288 80.9916L81.6177 82.3027L77.0156 77.7003Z" fill="#D1D3D4"/>
<path d="M82.9283 80.991L84.2394 79.6799L84.2398 79.6804L82.9289 80.9915L82.9283 80.991ZM81.6172 82.3016L82.9283 80.991L82.9287 80.9915L81.6181 82.3026L81.6172 82.3016Z" fill="#78B9EB"/>
<path d="M99.6868 53.7216L92.6764 60.7229L86.7632 58.7517L49.2891 96.2259L49.9445 96.881C52.126 99.057 55.6571 99.057 57.8385 96.881L84.0575 70.6619C88.7304 71.9132 93.7115 70.4699 96.9916 66.9148C100.272 63.3596 101.31 58.2788 99.6868 53.7216Z" fill="#FFBB60"/>
<path d="M91.7914 45.8282C87.2344 44.2052 82.1533 45.2434 78.5981 48.5235C75.043 51.8036 73.5998 56.7846 74.8511 61.4576L48.632 87.6765C46.456 89.8579 46.456 93.3889 48.632 95.5704L49.2871 96.2209L73.7259 71.7869L86.7613 58.7517L84.7902 52.8384L91.7914 45.8282Z" fill="#FFAF46"/>
</g>
<defs>
<filter id="filter0_d_1265_66" x="0.666667" y="0.571429" width="146.667" height="146.667" filterUnits="userSpaceOnUse" color-interpolation-filters="sRGB">
<feFlood flood-opacity="0" result="BackgroundImageFix"/>
<feColorMatrix in="SourceAlpha" type="matrix" values="0 0 0 0 0 0 0 0 0 0 0 0 0 0 0 0 0 0 127 0" result="hardAlpha"/>
<feOffset dy="1.90476"/>
<feGaussianBlur stdDeviation="6.66667"/>
<feComposite in2="hardAlpha" operator="out"/>
<feColorMatrix type="matrix" values="0 0 0 0 0.695898 0 0 0 0 0.695898 0 0 0 0 0.695898 0 0 0 0.25 0"/>
<feBlend mode="normal" in2="BackgroundImageFix" result="effect1_dropShadow_1265_66"/>
<feBlend mode="normal" in="SourceGraphic" in2="effect1_dropShadow_1265_66" result="shape"/>
</filter>
<clipPath id="clip0_1265_66">
<rect width="54" height="54" fill="white" transform="translate(47 45)"/>
</clipPath>
</defs>
</svg>
