<svg width="148" height="148" viewBox="0 0 148 148" fill="none" xmlns="http://www.w3.org/2000/svg">
<g filter="url(#filter0_d_3247_3058)">
<circle cx="74" cy="72" r="60" fill="white"/>
</g>
<path d="M98.5188 103H50.4813C46.8593 103 44 100.141 44 96.5188V48.4813C44 44.8593 46.8593 42 50.4813 42H98.5188C102.141 42 105 44.8593 105 48.4813V96.5188C105 100.141 102.141 103 98.5188 103Z" fill="#5CA4DA"/>
<path d="M93.1812 42C90.8937 51.9126 84.9843 62.5875 75.8344 71.7376C66.1125 81.4594 54.4843 87.5594 44 89.4656V48.4813C44 44.8593 46.8593 42 50.4813 42H93.1812Z" fill="#6DAFE0"/>
<path d="M89.7518 68.4971C92.8018 63.1596 93.9455 58.2033 91.2768 55.7252C88.608 53.0565 83.8424 54.2002 78.5049 57.2502C75.4548 51.9128 71.833 48.4815 68.2111 49.4346C64.5893 50.3877 63.2549 55.1534 63.2549 61.2534C57.1549 61.2534 52.3892 62.7784 51.4361 66.2097C50.483 69.8315 53.9142 73.4534 59.2517 76.5034C56.2016 81.8409 55.0579 86.7972 57.7267 89.2753C60.3954 91.9441 65.1611 90.8004 70.4986 87.7503C73.5486 93.0878 77.1705 96.519 80.7923 95.5659C84.4141 94.6128 85.7486 89.8471 85.7486 83.7471C91.8486 83.7471 96.6143 82.2221 97.5674 78.7908C98.5206 75.169 95.0894 71.547 89.7518 68.4971ZM89.3706 57.6314C90.5143 58.7751 89.9425 62.3971 87.2737 66.9721C85.7487 66.2095 84.0331 65.447 82.1269 64.8752C81.555 63.1596 80.7924 61.444 80.0301 59.7284C84.6049 57.0596 88.0361 56.4877 89.3706 57.6314ZM76.4081 79.744C73.7393 79.172 71.6424 78.6002 69.1644 77.8377C68.4019 75.3596 67.8299 73.2628 67.2582 70.594C68.9738 68.6878 70.4988 67.1628 72.5956 65.2566C75.2644 65.8285 77.3613 66.4003 79.8393 67.1628C80.6018 69.6409 81.1738 71.7377 81.7455 74.4065C80.0299 76.5033 78.5049 78.0283 76.4081 79.744ZM82.3175 78.2189C82.5081 78.9814 82.5081 79.9345 82.5081 80.6971C81.7455 80.6971 80.983 80.5065 80.0299 80.5065L82.3175 78.2189ZM73.5486 82.2221C72.7861 82.794 72.2142 83.1752 71.6424 83.7471C71.2612 82.9846 70.8799 82.2221 70.6893 81.4596C72.0237 81.6502 72.0237 81.8408 73.5486 82.2221ZM65.733 76.5033C64.9705 76.1221 64.208 75.9314 63.4455 75.5502C63.8266 74.9783 64.3986 74.2158 64.9705 73.644C65.1612 74.9783 65.3518 74.9783 65.733 76.5033ZM66.6861 66.7815C66.4955 66.0189 66.4955 65.0658 66.4955 64.3033C67.258 64.3033 68.0205 64.4939 68.9737 64.4939L66.6861 66.7815ZM75.455 62.7783C76.2175 62.2064 76.7894 61.8252 77.3612 61.2533C77.7424 62.0158 78.1237 62.7783 78.3143 63.5408C76.9799 63.3502 76.9799 63.1596 75.455 62.7783ZM83.2706 68.4971C84.0331 68.8783 84.7956 69.069 85.5581 69.4502C85.1769 70.0221 84.605 70.7846 84.0331 71.3564C83.8424 70.0221 83.6518 70.0221 83.2706 68.4971ZM69.1642 52.2939C70.6893 51.9128 73.5486 54.2002 76.2173 58.7753C74.6923 59.7284 73.358 60.8721 71.833 62.0159C69.9268 61.6347 68.2111 61.444 66.3049 61.2534C66.3049 56.1064 67.4486 52.6751 69.1642 52.2939ZM54.2955 67.1627C54.6767 65.6376 58.108 64.3033 63.4456 64.3033C63.6362 66.0189 63.8268 67.9252 64.2081 69.8314C63.0644 71.3564 61.9206 72.6907 60.9675 74.2157C56.2018 71.3564 53.9144 68.6877 54.2955 67.1627ZM59.633 87.369C58.4893 86.2253 59.0611 82.6033 61.7298 78.0283C63.2549 78.7908 64.9705 79.5534 66.8767 80.1251C67.4486 81.8408 68.2111 83.5564 68.9735 85.272C64.3987 87.9409 60.9674 88.5127 59.633 87.369ZM79.8393 92.7064C78.3143 93.0876 75.455 90.8002 72.7862 86.2251C74.3113 85.272 75.6456 84.1283 77.1706 82.9845C79.0768 83.3657 80.7924 83.5564 82.6987 83.747C82.6987 88.894 81.5549 92.3252 79.8393 92.7064ZM94.708 77.8377C94.3268 79.3628 90.8956 80.6971 85.558 80.6971C85.3674 78.9814 85.1768 77.0752 84.7955 75.169C85.9392 73.644 87.083 72.3097 88.0361 70.7846C92.8018 73.644 95.0894 76.3127 94.708 77.8377Z" fill="white"/>
<path d="M74.4985 76.6939C76.8146 76.6939 78.6922 74.8163 78.6922 72.5002C78.6922 70.184 76.8146 68.3064 74.4985 68.3064C72.1823 68.3064 70.3047 70.184 70.3047 72.5002C70.3047 74.8163 72.1823 76.6939 74.4985 76.6939Z" fill="white"/>
<defs>
<filter id="filter0_d_3247_3058" x="0.666667" y="0.571429" width="146.667" height="146.667" filterUnits="userSpaceOnUse" color-interpolation-filters="sRGB">
<feFlood flood-opacity="0" result="BackgroundImageFix"/>
<feColorMatrix in="SourceAlpha" type="matrix" values="0 0 0 0 0 0 0 0 0 0 0 0 0 0 0 0 0 0 127 0" result="hardAlpha"/>
<feOffset dy="1.90476"/>
<feGaussianBlur stdDeviation="6.66667"/>
<feComposite in2="hardAlpha" operator="out"/>
<feColorMatrix type="matrix" values="0 0 0 0 0.695898 0 0 0 0 0.695898 0 0 0 0 0.695898 0 0 0 0.25 0"/>
<feBlend mode="normal" in2="BackgroundImageFix" result="effect1_dropShadow_3247_3058"/>
<feBlend mode="normal" in="SourceGraphic" in2="effect1_dropShadow_3247_3058" result="shape"/>
</filter>
</defs>
</svg>
