<svg width="148" height="148" viewBox="0 0 148 148" fill="none" xmlns="http://www.w3.org/2000/svg">
<g filter="url(#filter0_d_2030_933)">
<circle cx="74" cy="72" r="60" fill="white"/>
</g>
<path fill-rule="evenodd" clip-rule="evenodd" d="M49.5625 92.1551L52.9881 104.94C53.816 104.251 54.5561 103.696 55.246 103.263C56.055 102.724 56.8766 102.352 57.7547 102.172C58.6856 101.969 59.6125 102.007 60.6607 102.247L60.664 102.247L67.6173 103.842C69.2005 104.205 70.6886 104.064 72.0957 103.252L89.4841 93.213C91.0355 92.3172 91.5719 90.3151 90.6762 88.7632C89.7807 87.2114 87.778 86.6749 86.2264 87.5706L74.117 94.5616C74.1261 94.5312 74.1349 94.5006 74.1433 94.4698C74.6632 92.56 73.5224 90.5661 71.6127 90.0462L59.4734 86.7422C57.8621 86.5289 56.3994 86.919 55.1091 87.9073L49.5625 92.1551Z" fill="#FFD6BD"/>
<path fill-rule="evenodd" clip-rule="evenodd" d="M70.1491 95.4052C71.7921 95.8515 73.4925 95.0742 74.2691 93.6347C74.2609 93.9171 74.2193 94.1975 74.1451 94.4701C73.6245 96.3825 71.6336 97.5225 69.7216 97.0007C67.3586 96.3558 64.9924 95.7335 62.6261 95.0995C62.1856 94.9815 61.9219 94.5246 62.0399 94.0843C62.1579 93.6438 62.6147 93.3801 63.0552 93.4981C65.4167 94.1308 67.7759 94.7602 70.1491 95.4052Z" fill="#F9C6AA"/>
<path fill-rule="evenodd" clip-rule="evenodd" d="M50.4389 89.447L54.6264 105.075C54.6751 105.259 54.6491 105.454 54.5541 105.619C54.459 105.784 54.3027 105.904 54.1191 105.954L51.2308 106.728C50.8495 106.83 50.4543 106.602 50.3521 106.22L46.1647 90.5923C46.1159 90.4085 46.1419 90.2129 46.237 90.0482C46.332 89.8836 46.4884 89.7632 46.6719 89.7135L49.5603 88.9396C49.9414 88.8375 50.3367 89.0656 50.4389 89.447Z" fill="#64B5F6"/>
<path fill-rule="evenodd" clip-rule="evenodd" d="M99.8888 63.1143V71.3446L104.903 74.6969L103.673 76.5343L98.2408 72.9031C98.0678 72.8071 97.9236 72.6665 97.8233 72.4959C97.7229 72.3254 97.67 72.131 97.6701 71.9331V63.1144L99.8888 63.1143ZM57.2429 57.902V73.4707C57.2433 73.6894 57.1787 73.9033 57.0572 74.0852L53.3052 80.9346L51.3638 79.8772L55.0242 73.1952V57.902H57.2429ZM51.3309 61.7276V71.933C51.331 72.1309 51.2781 72.3252 51.1777 72.4958C51.0774 72.6663 50.9332 72.807 50.7601 72.903L45.3284 76.5341L44.0977 74.6967L49.1122 71.3445V61.7274H51.3309V61.7276ZM93.9768 57.902V73.1952L97.6372 79.8772L95.6958 80.9346L91.9438 74.0852C91.8224 73.9033 91.7577 73.6894 91.7581 73.4707V57.902H93.9768Z" fill="#B4D2D7"/>
<path fill-rule="evenodd" clip-rule="evenodd" d="M41.9922 75.6154C41.9922 74.1127 43.2103 72.8947 44.7129 72.8947C46.2156 72.8947 47.4337 74.1127 47.4337 75.6154C47.4337 77.118 46.2156 78.3361 44.7129 78.3361C43.2103 78.3361 41.9922 77.118 41.9922 75.6154ZM107.008 75.6154C107.008 74.1127 105.79 72.8947 104.288 72.8947C102.785 72.8947 101.567 74.1127 101.567 75.6154C101.567 77.118 102.785 78.3361 104.288 78.3361C105.79 78.3361 107.008 77.118 107.008 75.6154ZM96.6663 83.1266C95.1638 83.1266 93.9457 81.9085 93.9457 80.406C93.9457 78.9033 95.1638 77.6852 96.6663 77.6852C98.1689 77.6852 99.3869 78.9033 99.3869 80.406C99.3871 81.9085 98.169 83.1266 96.6663 83.1266ZM52.3343 83.1266C53.8368 83.1266 55.0549 81.9085 55.0549 80.406C55.0549 78.9033 53.8368 77.6852 52.3343 77.6852C50.8318 77.6852 49.6137 78.9033 49.6137 80.406C49.6136 81.9085 50.8318 83.1266 52.3343 83.1266Z" fill="#64B5F6"/>
<path fill-rule="evenodd" clip-rule="evenodd" d="M70.0657 38.2479H78.938V42.6997C81.8755 43.2853 84.6072 44.4411 87.0132 46.0467L90.1627 42.8973L96.4363 49.1711L93.287 52.3205C94.9211 54.7668 96.0583 57.5106 96.6338 60.3956H101.086V64.8317H90.9797C90.9797 55.7313 83.6024 48.3539 74.5019 48.3539C65.4014 48.3539 58.0241 55.7313 58.0241 64.8317H47.918V60.3956H52.3695C52.9451 57.5105 54.0823 54.7667 55.7165 52.3203L52.5672 49.1711L58.841 42.8975L61.9903 46.0467C64.4367 44.4126 67.1805 43.2754 70.0657 42.6998V38.2479Z" fill="#FFDA2D"/>
<path fill-rule="evenodd" clip-rule="evenodd" d="M74.4998 51.9181C81.6319 51.9181 87.4136 57.6999 87.4136 64.8318C87.4136 69.5522 84.8811 73.6811 81.101 75.9334C80.286 76.4191 79.8225 77.2343 79.8225 78.1831V81.3318C79.8225 82.3096 79.0252 83.1069 78.0473 83.1069H70.9523C69.9745 83.1069 69.1771 82.3096 69.1771 81.3318V78.1831C69.1771 77.234 68.7135 76.4191 67.8986 75.9334C64.1182 73.681 61.5859 69.5522 61.5859 64.8318C61.5859 57.6999 67.3676 51.9181 74.4998 51.9181Z" fill="#FFDA2D"/>
<path fill-rule="evenodd" clip-rule="evenodd" d="M78.048 80.8002V83.8073C78.048 85.249 76.8708 86.4263 75.4292 86.4263H73.5719C72.1303 86.4263 70.9531 85.2497 70.9531 83.8073V81.3469L78.048 80.8002Z" fill="#7A8C98"/>
<path fill-rule="evenodd" clip-rule="evenodd" d="M71.9029 80.7348V69.8665C71.0246 69.6581 70.2275 69.3482 69.5555 68.962C68.0824 68.1154 67.168 66.8858 67.168 65.4777C67.168 64.5203 67.5587 63.651 68.1885 63.0213C68.818 62.3917 69.6876 62.0009 70.6449 62.0009C71.6021 62.0009 72.4718 62.3917 73.1013 63.0213C73.7309 63.6508 74.1218 64.5204 74.1218 65.4777V67.9386C74.3752 67.9484 74.6289 67.9484 74.8823 67.9386V65.4777C74.8823 64.5204 75.2732 63.6508 75.9028 63.0213C76.5323 62.3917 77.402 62.0009 78.3592 62.0009C79.3165 62.0009 80.1861 62.3917 80.8156 63.0213C81.4452 63.6508 81.836 64.5203 81.836 65.4777C81.836 66.8858 80.9216 68.1154 79.4485 68.962C78.7765 69.3482 77.9792 69.6581 77.1009 69.8665V80.7348H74.8821V70.1583C74.6287 70.1667 74.3751 70.1667 74.1217 70.1583V80.7348H71.9029ZM71.9029 67.5769V65.4777C71.9029 65.1328 71.7611 64.8186 71.5325 64.5901C71.304 64.3615 70.9896 64.2197 70.6449 64.2197C70.3 64.2197 69.9856 64.3615 69.7571 64.5901C69.5286 64.8186 69.3867 65.1328 69.3867 65.4777C69.3867 66.0372 69.8729 66.5964 70.6563 67.0466C71.02 67.2555 71.4398 67.4346 71.9029 67.5769ZM77.1009 67.5768C77.5642 67.4346 77.984 67.2555 78.3477 67.0464C79.1309 66.5962 79.6172 66.037 79.6172 65.4774C79.6172 65.1325 79.4754 64.8183 79.2468 64.5898C79.0183 64.3613 78.7039 64.2194 78.3592 64.2194C78.0143 64.2194 77.7 64.3613 77.4714 64.5898C77.2429 64.8183 77.101 65.1327 77.101 65.4774V67.5768H77.1009Z" fill="#FDB800"/>
<path fill-rule="evenodd" clip-rule="evenodd" d="M79.8212 81.3319V80.0349H69.1758V81.3319C69.1758 82.3097 69.9731 83.1072 70.9511 83.1072H78.0461C79.0238 83.1072 79.8212 82.3097 79.8212 81.3319Z" fill="#8D9CA8"/>
<defs>
<filter id="filter0_d_2030_933" x="0.666667" y="0.571429" width="146.667" height="146.667" filterUnits="userSpaceOnUse" color-interpolation-filters="sRGB">
<feFlood flood-opacity="0" result="BackgroundImageFix"/>
<feColorMatrix in="SourceAlpha" type="matrix" values="0 0 0 0 0 0 0 0 0 0 0 0 0 0 0 0 0 0 127 0" result="hardAlpha"/>
<feOffset dy="1.90476"/>
<feGaussianBlur stdDeviation="6.66667"/>
<feComposite in2="hardAlpha" operator="out"/>
<feColorMatrix type="matrix" values="0 0 0 0 0.695898 0 0 0 0 0.695898 0 0 0 0 0.695898 0 0 0 0.25 0"/>
<feBlend mode="normal" in2="BackgroundImageFix" result="effect1_dropShadow_2030_933"/>
<feBlend mode="normal" in="SourceGraphic" in2="effect1_dropShadow_2030_933" result="shape"/>
</filter>
</defs>
</svg>
