<svg width="148" height="148" viewBox="0 0 148 148" fill="none" xmlns="http://www.w3.org/2000/svg">
<g filter="url(#filter0_d_3247_3153)">
<circle cx="74" cy="72" r="60" fill="white"/>
</g>
<path fill-rule="evenodd" clip-rule="evenodd" d="M62.1406 89.9873H81.3188V101.337H62.1406V89.9873Z" fill="#A79BA7"/>
<path fill-rule="evenodd" clip-rule="evenodd" d="M79.6641 89.9873H81.318V101.337H79.6641V89.9873Z" fill="#837683"/>
<path fill-rule="evenodd" clip-rule="evenodd" d="M51.6355 105.781H91.8246C91.9931 105.781 92.1546 105.714 92.2737 105.595C92.3928 105.476 92.4599 105.314 92.4603 105.146V102.585C92.4603 100.827 90.66 99.3887 88.4597 99.3887H55.0004C52.8001 99.3887 51 100.827 51 102.585V105.146C51.0003 105.314 51.0674 105.476 51.1865 105.595C51.3056 105.714 51.4671 105.781 51.6355 105.781Z" fill="#ECEFF1"/>
<path fill-rule="evenodd" clip-rule="evenodd" d="M51.6355 105.781H91.8246C91.9931 105.781 92.1546 105.714 92.2737 105.595C92.3928 105.476 92.4599 105.314 92.4603 105.146V102.585C92.4603 101.54 91.8244 100.608 90.8467 100.024C91.0665 100.419 91.1889 100.856 91.1889 101.314V103.874C91.1886 104.043 91.1215 104.204 91.0024 104.324C90.8832 104.443 90.7217 104.51 90.5532 104.51H51V105.146C51.0003 105.314 51.0673 105.476 51.1865 105.595C51.3056 105.714 51.4671 105.781 51.6355 105.781Z" fill="#D1D1D6"/>
<path fill-rule="evenodd" clip-rule="evenodd" d="M45.9099 50.2808H97.5493C100.129 50.2808 102.24 52.3918 102.24 54.9719V87.2444C102.24 89.8246 100.129 91.9356 97.5493 91.9356H45.9099C43.3298 91.9356 41.2188 89.8246 41.2188 87.2444V54.9719C41.2188 52.3918 43.3296 50.2808 45.9099 50.2808Z" fill="#ECEFF1"/>
<path fill-rule="evenodd" clip-rule="evenodd" d="M100.168 51.084C101.417 51.9291 102.242 53.3589 102.242 54.9721V87.2446C102.242 89.8247 100.131 91.9357 97.5508 91.9357H45.9115C44.2983 91.9357 42.8685 91.1105 42.0234 89.8614C42.7955 90.3852 43.7072 90.6649 44.6402 90.6644H96.2796C98.8596 90.6644 100.971 88.5534 100.971 85.9733V53.7007C100.971 52.7677 100.691 51.8561 100.168 51.084Z" fill="#D1D1D6"/>
<path fill-rule="evenodd" clip-rule="evenodd" d="M45.7913 54.2036H97.6661C97.8385 54.2041 98.0037 54.2728 98.1256 54.3947C98.2475 54.5167 98.3162 54.6819 98.3167 54.8543V84.0335H45.1406V54.8543C45.1411 54.6818 45.2098 54.5166 45.3317 54.3947C45.4536 54.2728 45.6189 54.2041 45.7913 54.2036Z" fill="#D8ECFE"/>
<path fill-rule="evenodd" clip-rule="evenodd" d="M95.6641 54.2036H97.6691C97.8415 54.2041 98.0067 54.2728 98.1286 54.3947C98.2505 54.5167 98.3193 54.6819 98.3198 54.8543V84.0336H95.6641V54.2036Z" fill="#C4E2FF"/>
<path fill-rule="evenodd" clip-rule="evenodd" d="M74.2485 41.4307C75.4269 41.7114 76.5531 42.1783 77.5844 42.8137L79.7521 41.8511L82.3069 44.4058L81.3445 46.5728C81.9801 47.6045 82.447 48.7308 82.7278 49.9096L84.9393 50.7609V54.3738L82.7272 55.2253C82.4466 56.4037 81.9797 57.5298 81.3442 58.5612L82.3069 60.7289L79.7521 63.2838L77.5851 62.3214C76.5535 62.9569 75.4271 63.4239 74.2484 63.7046L73.3971 65.9162H69.7843L68.9328 63.7041C67.7544 63.4233 66.6283 62.9565 65.5969 62.3211L63.4293 63.2838L60.8745 60.729L61.8368 58.562C61.2013 57.5304 60.7344 56.404 60.4537 55.2253L58.2422 54.3741V50.7607L60.4541 49.9093C60.7348 48.7308 61.2016 47.6045 61.8371 46.5731L60.8746 44.4057L63.4293 41.8508L65.5971 42.8136C66.6284 42.1782 67.7545 41.7113 68.933 41.4306L69.7844 39.2185H73.3974L74.2485 41.4307Z" fill="#FFE177"/>
<path fill-rule="evenodd" clip-rule="evenodd" d="M79.0277 42.1743L79.7555 41.851L82.3104 44.4058L81.3481 46.5728C81.9836 47.6044 82.4506 48.7308 82.7313 49.9095L84.9428 50.7608V54.3738L82.7308 55.2252C82.4501 56.4037 81.9832 57.5298 81.3478 58.5611L82.3104 60.7287L79.7557 63.2836L79.0278 62.9603L81.2593 60.7288L80.2966 58.5613C80.932 57.5299 81.3989 56.4038 81.6796 55.2254L83.8917 54.3739V50.7608L81.6802 49.9095C81.3995 48.7308 80.9325 47.6044 80.2969 46.5728L81.2593 44.4058L79.0277 42.1743ZM63.1094 42.1743L63.4326 41.851L65.6003 42.8138C65.447 42.8988 65.2956 42.9872 65.1463 43.0791L63.1094 42.1743ZM74.2521 41.4308C75.4305 41.7116 76.5566 42.1784 77.588 42.8138L76.9907 43.0791C75.9591 42.444 74.3795 41.7114 73.2009 41.4308L72.3495 39.2188H73.4006L74.2521 41.4308ZM65.6003 62.3208L63.4328 63.2835L63.1095 62.9602L65.1465 62.0555C65.2957 62.1474 65.447 62.2359 65.6003 62.3208ZM77.5887 62.3212C76.557 62.9568 75.4307 63.4237 74.2519 63.7043L73.4006 65.9159H72.3495L73.2007 63.7043C74.3795 63.4238 75.9595 62.6913 76.9913 62.0559L77.5887 62.3212Z" fill="#FFD064"/>
<path d="M78.7713 55.5405C80.4129 51.5812 78.5341 47.0407 74.5748 45.3991C70.6154 43.7575 66.075 45.6363 64.4334 49.5957C62.7917 53.555 64.6706 58.0954 68.6299 59.7371C72.5892 61.3787 77.1297 59.4998 78.7713 55.5405Z" fill="#ECEFF1"/>
<path fill-rule="evenodd" clip-rule="evenodd" d="M71.5889 44.8064C71.7656 44.8064 71.9408 44.8129 72.1145 44.8244C68.0736 45.0948 64.8793 48.4578 64.8793 52.5672C64.8793 56.6766 68.0736 60.0395 72.1145 60.3098C71.9395 60.3216 71.7642 60.3277 71.5889 60.3278C67.3028 60.3278 63.8281 56.8531 63.8281 52.567C63.8281 48.2811 67.3028 44.8064 71.5889 44.8064Z" fill="#D1D1D6"/>
<path fill-rule="evenodd" clip-rule="evenodd" d="M62.3841 75.5528C61.6286 77.4229 59.8508 78.7363 57.7781 78.7363C56.0931 78.7363 54.6031 77.8682 53.6986 76.5387C53.6096 76.4078 53.6009 76.2497 53.6749 76.1098C53.749 75.9699 53.8847 75.8881 54.043 75.8881H58.3425L59.6447 73.5424L58.3425 71.1968L54.043 71.1967C53.8846 71.1967 53.749 71.1149 53.6749 70.9751C53.6385 70.9085 53.6214 70.833 53.6256 70.7572C53.6298 70.6814 53.6552 70.6083 53.6988 70.5462C54.6032 69.2167 56.0931 68.3488 57.7781 68.3486C59.8508 68.3486 61.6286 69.662 62.3841 71.5323H80.8036C81.5592 69.662 83.3368 68.3486 85.4096 68.3488C87.0947 68.3486 88.5846 69.2169 89.489 70.5463C89.578 70.6772 89.5868 70.8354 89.5127 70.9752C89.4781 71.0428 89.4253 71.0993 89.3603 71.1385C89.2953 71.1776 89.2206 71.1978 89.1447 71.1968H84.8452L83.543 73.5426L84.8453 75.8882H89.1448C89.3032 75.8882 89.4388 75.9699 89.5129 76.1098C89.5869 76.2497 89.5782 76.408 89.4892 76.5387C88.5849 77.8683 87.0948 78.7363 85.4097 78.7363C83.337 78.7363 81.5593 77.4229 80.8037 75.5528H62.3841Z" fill="#9FACBA"/>
<path fill-rule="evenodd" clip-rule="evenodd" d="M62.3779 75.5528C61.6224 77.4229 59.8446 78.7363 57.7719 78.7363C57.5397 78.7363 57.3079 78.7196 57.0781 78.6865C58.8481 78.4309 60.3214 77.2107 60.9912 75.5528H62.3779ZM57.0781 68.3984C57.3079 68.3652 57.5397 68.3486 57.7719 68.3486C59.8446 68.3486 61.6224 69.662 62.3779 71.5323H60.9912C60.3214 69.8742 58.8481 68.654 57.0781 68.3984ZM84.7106 68.3984C84.9401 68.3653 85.1716 68.3487 85.4035 68.3486C87.0887 68.3485 88.5786 69.2167 89.483 70.5462C89.572 70.6771 89.5807 70.8353 89.5067 70.9751C89.4721 71.0426 89.4193 71.0992 89.3542 71.1383C89.2892 71.1775 89.2145 71.1977 89.1386 71.1967H87.753C87.8287 71.1975 87.9032 71.1772 87.968 71.138C88.0328 71.0989 88.0854 71.0425 88.12 70.9751C88.1564 70.9085 88.1735 70.833 88.1693 70.7572C88.1651 70.6815 88.1398 70.6083 88.0963 70.5462C87.318 69.4024 86.1067 68.6002 84.7106 68.3984ZM84.839 71.1967H83.4523L82.1501 73.5424L83.4524 75.8881H84.8391L83.5369 73.5424L84.839 71.1967ZM87.7518 75.8881H89.1385C89.2969 75.8881 89.4325 75.9698 89.5065 76.1097C89.5806 76.2496 89.5719 76.4078 89.4828 76.5386C88.5786 77.8682 87.0885 78.7361 85.4034 78.7361C85.1683 78.7361 84.937 78.7191 84.7106 78.6863C86.1067 78.4844 87.3182 77.6824 88.0961 76.5386C88.1851 76.4077 88.1939 76.2495 88.1198 76.1097C88.0458 75.9699 87.91 75.8881 87.7518 75.8881Z" fill="#8D9CA8"/>
<path fill-rule="evenodd" clip-rule="evenodd" d="M91.3534 72.1979L82.4844 87.5595C81.7552 88.8226 81.7552 90.3467 82.4844 91.6096C83.2135 92.8726 84.5335 93.6347 85.9919 93.6347H103.73C105.188 93.6347 106.508 92.8726 107.238 91.6096C107.967 90.3467 107.967 88.8224 107.238 87.5595L98.3685 72.1979C97.6394 70.9349 96.3194 70.1729 94.861 70.1729C93.4025 70.1727 92.0827 70.9349 91.3534 72.1979Z" fill="#FE646F"/>
<path fill-rule="evenodd" clip-rule="evenodd" d="M92.388 72.7976C92.9029 71.9058 93.8269 71.3723 94.8567 71.3723C95.8864 71.3723 96.8104 71.9058 97.3253 72.7976L106.194 88.1592C106.709 89.0512 106.709 90.118 106.194 91.0098C105.679 91.9017 104.755 92.435 103.726 92.435H85.9876C84.9578 92.435 84.0339 91.9016 83.519 91.0098C83.0041 90.1178 83.0041 89.051 83.519 88.1592L92.388 72.7976Z" fill="#FFE177"/>
<path fill-rule="evenodd" clip-rule="evenodd" d="M94.8583 87.9809C94.1081 87.9809 93.5 88.589 93.5 89.3392C93.5 90.0894 94.1082 90.6975 94.8583 90.6975C95.2185 90.6975 95.564 90.5544 95.8188 90.2997C96.0735 90.0449 96.2166 89.6994 96.2166 89.3392C96.2166 88.5891 95.6085 87.9809 94.8583 87.9809ZM94.8583 85.5562C95.1329 85.5562 95.3967 85.4497 95.5944 85.2591C95.792 85.0685 95.908 84.8086 95.9179 84.5342L96.1859 77.1122C96.1968 76.8137 96.0969 76.5528 95.8895 76.3379C95.6821 76.1229 95.425 76.0137 95.1263 76.0137H94.5902C94.2915 76.0137 94.0344 76.1228 93.8271 76.3379C93.6197 76.553 93.5198 76.8138 93.5306 77.1122L93.7987 84.5342C93.8086 84.8086 93.9246 85.0684 94.1223 85.2591C94.3199 85.4497 94.5837 85.5562 94.8583 85.5562Z" fill="#FE646F"/>
<path fill-rule="evenodd" clip-rule="evenodd" d="M94.2812 71.4289C94.4699 71.3911 94.6618 71.3722 94.8542 71.3723C95.884 71.3723 96.808 71.9058 97.3229 72.7976L106.192 88.1592C106.707 89.0512 106.707 90.118 106.192 91.0098C105.677 91.9017 104.753 92.435 103.723 92.435H102.577C103.607 92.435 104.531 91.9016 105.046 91.0098C105.561 90.118 105.561 89.051 105.046 88.1592L96.177 72.7976C95.7598 72.0751 95.0742 71.5879 94.2812 71.4289Z" fill="#FFD064"/>
<defs>
<filter id="filter0_d_3247_3153" x="0.666667" y="0.571429" width="146.667" height="146.667" filterUnits="userSpaceOnUse" color-interpolation-filters="sRGB">
<feFlood flood-opacity="0" result="BackgroundImageFix"/>
<feColorMatrix in="SourceAlpha" type="matrix" values="0 0 0 0 0 0 0 0 0 0 0 0 0 0 0 0 0 0 127 0" result="hardAlpha"/>
<feOffset dy="1.90476"/>
<feGaussianBlur stdDeviation="6.66667"/>
<feComposite in2="hardAlpha" operator="out"/>
<feColorMatrix type="matrix" values="0 0 0 0 0.695898 0 0 0 0 0.695898 0 0 0 0 0.695898 0 0 0 0.25 0"/>
<feBlend mode="normal" in2="BackgroundImageFix" result="effect1_dropShadow_3247_3153"/>
<feBlend mode="normal" in="SourceGraphic" in2="effect1_dropShadow_3247_3153" result="shape"/>
</filter>
</defs>
</svg>
