<svg width="148" height="148" viewBox="0 0 148 148" fill="none" xmlns="http://www.w3.org/2000/svg">
<g filter="url(#filter0_d_3222_2857)">
<circle cx="74" cy="72" r="60" fill="white"/>
</g>
<path fill-rule="evenodd" clip-rule="evenodd" d="M46.719 89.6567L57.8423 83.2122C59.9299 82.0027 62.0527 81.1452 64.3473 81.8895C66.9055 82.7191 71.083 84.5006 75.3434 85.269C76.9248 85.7817 77.9106 87.3651 77.4803 88.9706C77.05 90.5764 75.6933 91.4042 73.7788 91.108L75.268 91.3464C76.9745 91.6193 78.5419 91.3858 80.0355 90.516L90.73 84.287C99.0433 79.4455 100.264 86.8939 97.5003 88.5957L78.0923 100.546C76.3073 101.645 74.3541 101.902 72.3292 101.359L58.2521 97.5869L53.0387 100.597C52.0364 101.175 50.7468 100.83 50.1681 99.8276L45.9525 92.5258C45.3743 91.5243 45.7185 90.2363 46.719 89.6567Z" fill="#F6DCCD"/>
<path fill-rule="evenodd" clip-rule="evenodd" d="M77.2266 89.6367C76.6321 90.7985 75.4072 91.36 73.7786 91.1082C71.4727 90.4984 69.1695 89.8733 66.8654 89.2559C66.5728 89.1732 66.3245 88.9786 66.1742 88.7142C66.024 88.4498 65.9839 88.1369 66.0626 87.8432C66.1413 87.5495 66.3325 87.2985 66.5948 87.1447C66.8571 86.9908 67.1694 86.9464 67.4642 87.0211L77.2266 89.6367ZM46.719 89.6567L57.8425 83.2122C59.93 82.0027 62.0528 81.1452 64.3474 81.8895C65.7161 82.3334 67.5484 83.0497 69.6088 83.7375L48.0611 96.178L45.9525 92.5258C45.3743 91.5243 45.7185 90.2363 46.719 89.6567Z" fill="#F1CBBC"/>
<path fill-rule="evenodd" clip-rule="evenodd" d="M47.8271 86.1467L56.6489 101.734C57.0755 102.488 56.8078 103.453 56.0541 103.88L53.0536 105.578C52.2999 106.005 51.3343 105.737 50.9076 104.983L42.0859 89.3961C41.6593 88.6424 41.9271 87.6768 42.6806 87.2501L45.6812 85.5519C46.4349 85.1254 47.4006 85.393 47.8271 86.1467Z" fill="#D1D1D6"/>
<path fill-rule="evenodd" clip-rule="evenodd" d="M52.4658 96.8561L54.0273 99.615L55.5712 102.343C55.9969 103.095 55.7313 104.059 54.981 104.486L56.053 103.88C56.8067 103.453 57.0743 102.488 56.6477 101.734L55.0985 98.9964L51.9877 93.4997L48.8734 87.9969L47.8261 86.1463C47.4567 85.4935 46.6825 85.2054 45.9922 85.4173L47.8055 88.6212L50.9163 94.1179L52.4655 96.8553L52.4658 96.8561Z" fill="#B1B1B5"/>
<path fill-rule="evenodd" clip-rule="evenodd" d="M45.8117 88.4759C45.6716 88.4952 45.5367 88.5421 45.4148 88.6138C45.2929 88.6855 45.1864 88.7806 45.1015 88.8937C45.0166 89.0068 44.9548 89.1356 44.9199 89.2726C44.885 89.4096 44.8775 89.5522 44.898 89.6922C44.9184 89.8321 44.9664 89.9666 45.0391 90.0879C45.1118 90.2092 45.2078 90.3149 45.3215 90.399C45.4353 90.483 45.5646 90.5437 45.7019 90.5775C45.8392 90.6113 45.9819 90.6176 46.1216 90.596C46.401 90.5529 46.6519 90.4011 46.8199 90.1738C46.9878 89.9464 47.0591 89.6619 47.0182 89.3822C46.9773 89.1026 46.8276 88.8504 46.6016 88.6806C46.3756 88.5108 46.0917 88.4373 45.8117 88.4759Z" fill="#685E68"/>
<path fill-rule="evenodd" clip-rule="evenodd" d="M63.7537 77.5492L88.4797 77.5491C88.6373 77.5498 88.7931 77.5153 88.9356 77.4481C89.0781 77.3808 89.2038 77.2826 89.3035 77.1606C89.4032 77.0385 89.4744 76.8957 89.5118 76.7427C89.5493 76.5896 89.552 76.4301 89.5199 76.2758C88.2487 70.0367 82.7312 65.3418 76.1168 65.3418C69.5022 65.3418 63.9849 70.0368 62.7137 76.2758C62.6815 76.4301 62.6842 76.5896 62.7216 76.7427C62.7591 76.8958 62.8302 77.0386 62.9299 77.1606C63.0296 77.2827 63.1553 77.3809 63.2978 77.4481C63.4403 77.5154 63.5961 77.5499 63.7537 77.5492Z" fill="#8AC9FE"/>
<path fill-rule="evenodd" clip-rule="evenodd" d="M86.0606 77.5491H88.4781C88.6357 77.5498 88.7914 77.5153 88.9339 77.4481C89.0765 77.3808 89.2022 77.2826 89.3019 77.1606C89.4016 77.0385 89.4728 76.8957 89.5102 76.7427C89.5476 76.5896 89.5504 76.4301 89.5182 76.2758C88.247 70.0367 82.7296 65.3418 76.1151 65.3418C75.7076 65.3418 75.3045 65.3598 74.9062 65.3946C80.9754 65.926 85.9076 70.4209 87.1006 76.2758C87.1328 76.4301 87.1301 76.5896 87.0927 76.7427C87.0552 76.8957 86.9841 77.0385 86.8844 77.1606C86.7847 77.2826 86.659 77.3808 86.5165 77.4481C86.3739 77.5153 86.2182 77.5498 86.0606 77.5491Z" fill="#60B7FF"/>
<path d="M82.7397 59.0524C83.8475 55.3969 81.7822 51.5355 78.1268 50.4277C74.4713 49.3198 70.6098 51.3851 69.502 55.0406C68.3942 58.6961 70.4595 62.5575 74.1149 63.6653C77.7704 64.7732 81.6319 62.7079 82.7397 59.0524Z" fill="#F6DCCD"/>
<path fill-rule="evenodd" clip-rule="evenodd" d="M76.116 50.1226C79.9356 50.1226 83.0321 53.219 83.0321 57.0387C83.0321 60.8583 79.9356 63.9548 76.116 63.9548C75.7936 63.9547 75.4716 63.9323 75.1523 63.8877C78.5158 63.4187 81.105 60.5313 81.105 57.0387C81.105 53.5461 78.5158 50.6587 75.1523 50.1897C75.4716 50.1451 75.7936 50.1227 76.116 50.1226Z" fill="#F1CBBC"/>
<path fill-rule="evenodd" clip-rule="evenodd" d="M50.3189 70.7358C50.5493 73.6976 51.3172 76.6252 52.6216 79.3609L48.1076 81.9671C46.3567 78.4221 45.3572 74.5994 45.1094 70.736H50.3189V70.7358ZM45.1094 66.9064C45.3669 62.8975 46.4209 59.1026 48.1156 55.6799L52.6567 58.3018C51.408 60.9402 50.6049 63.8419 50.3392 66.9065H45.1094V66.9064ZM50.0326 52.365C52.2057 49.1126 54.9971 46.3193 58.2481 44.1442L60.8431 48.6387C58.3771 50.3427 56.2481 52.4937 54.5582 54.9777L50.0326 52.365ZM61.5628 42.2265C64.9824 40.5321 68.7764 39.4761 72.7916 39.2196V44.4274C69.7019 44.6623 66.7934 45.4612 64.1568 46.7194L61.5628 42.2265ZM76.621 39.2188C92.1151 40.2026 104.378 53.0787 104.378 68.8212C104.378 69.8483 104.326 70.8633 104.224 71.8636H106.52C107.02 71.8638 107.3 72.4387 106.99 72.8318L102.371 78.6992C102.131 79.0033 101.67 79.0033 101.431 78.6992L96.8112 72.8318C96.5017 72.4387 96.7809 71.8636 97.2812 71.8636H98.9913C99.1167 70.8543 99.1795 69.8382 99.1792 68.8212C99.1792 55.9508 89.2414 45.4017 76.6208 44.4281V39.2188H76.621Z" fill="#6CF5C2"/>
<path fill-rule="evenodd" clip-rule="evenodd" d="M50.3204 70.7358C50.5508 73.6976 51.3187 76.6252 52.6231 79.3609L48.1091 81.9671C48.0065 81.7592 47.9063 81.5501 47.8086 81.3399L51.2363 79.3609C49.9318 76.6254 49.1641 73.6976 48.9335 70.7358H50.3204ZM47.8161 56.3067C47.914 56.0966 48.0145 55.8877 48.1173 55.6799L52.6584 58.3018C51.4096 60.9402 50.6066 63.8419 50.3409 66.9065H48.9542C49.2199 63.8419 50.0229 60.9402 51.2716 58.3018L47.8161 56.3067ZM57.2616 44.8345C57.5863 44.5978 57.9158 44.3676 58.2498 44.1441L60.8447 48.6386C58.3787 50.3426 56.2497 52.4935 54.5598 54.9776L53.5728 54.4076C55.1941 52.1636 57.1827 50.2109 59.458 48.6386L57.2616 44.8345ZM71.4064 39.3408C71.8655 39.2899 72.3279 39.2493 72.7931 39.2196V44.4274C69.7034 44.6623 66.7949 45.4612 64.1583 46.7194L63.874 46.2269C66.2112 45.2524 68.7414 44.63 71.4064 44.4274V39.3408ZM76.6225 39.2188C92.1166 40.2026 104.38 53.0787 104.379 68.8212C104.379 69.8483 104.327 70.8633 104.225 71.8635H102.838C102.941 70.8526 102.993 69.8371 102.993 68.821C102.993 53.5515 91.455 40.9791 76.6225 39.3398V39.2188ZM105.136 71.8636C105.636 71.8647 105.914 72.4391 105.605 72.8318L101.209 78.4155L101.432 78.6992C101.672 79.0032 102.133 79.0033 102.372 78.6992L106.992 72.8318C107.301 72.4387 107.022 71.8638 106.522 71.8636H105.136Z" fill="#00E499"/>
<defs>
<filter id="filter0_d_3222_2857" x="0.666667" y="0.571429" width="146.667" height="146.667" filterUnits="userSpaceOnUse" color-interpolation-filters="sRGB">
<feFlood flood-opacity="0" result="BackgroundImageFix"/>
<feColorMatrix in="SourceAlpha" type="matrix" values="0 0 0 0 0 0 0 0 0 0 0 0 0 0 0 0 0 0 127 0" result="hardAlpha"/>
<feOffset dy="1.90476"/>
<feGaussianBlur stdDeviation="6.66667"/>
<feComposite in2="hardAlpha" operator="out"/>
<feColorMatrix type="matrix" values="0 0 0 0 0.695898 0 0 0 0 0.695898 0 0 0 0 0.695898 0 0 0 0.25 0"/>
<feBlend mode="normal" in2="BackgroundImageFix" result="effect1_dropShadow_3222_2857"/>
<feBlend mode="normal" in="SourceGraphic" in2="effect1_dropShadow_3222_2857" result="shape"/>
</filter>
</defs>
</svg>
