<svg width="148" height="148" viewBox="0 0 148 148" fill="none" xmlns="http://www.w3.org/2000/svg">
<g filter="url(#filter0_d_3238_2945)">
<circle cx="74" cy="72" r="60" fill="white"/>
</g>
<g clip-path="url(#clip0_3238_2945)">
<path d="M77.008 55.7384V64.5711H80.6394C81.9547 64.5711 83.0211 63.5049 83.0211 62.1894V58.12C83.0211 56.8047 81.9548 55.7383 80.6394 55.7383H77.008V55.7384ZM56.1928 55.7384V64.5711H52.5614C51.2461 64.5711 50.1797 63.5049 50.1797 62.1894V58.12C50.1797 56.8047 51.2459 55.7383 52.5614 55.7383H56.1928V55.7384Z" fill="#9BC4F9"/>
<path d="M98.0438 37.0447H88.866C87.145 37.0447 85.75 38.4397 85.75 40.1606V49.1732C85.75 50.8941 87.145 52.2892 88.866 52.2892C89.8831 52.2892 90.033 52.4793 90.3593 52.7892H96.1093C96.4431 52.4723 96.6331 52.2892 97.6608 52.2892H98.1064V52.2885C99.797 52.2537 101.157 50.8723 101.157 49.1733V40.1605C101.157 38.4405 99.7635 37.0462 98.0438 37.0447Z" fill="#B3E59F"/>
<path d="M106.88 37.0447H97.5469C99.2678 37.0447 100.663 38.4397 100.663 40.1606V49.1732C100.663 50.8722 99.303 52.2537 97.6122 52.2883V52.2896C97.6263 52.2893 97.6405 52.289 97.6548 52.289H106.88C108.601 52.289 109.996 50.894 109.996 49.1731V40.1605C109.996 38.4397 108.601 37.0447 106.88 37.0447Z" fill="#95D6A4"/>
<path d="M105.206 43.3932H95.8567C95.5726 43.3932 95.3001 43.2804 95.0991 43.0794C94.8982 42.8785 94.7853 42.606 94.7853 42.3219C94.7853 42.0377 94.8982 41.7652 95.0991 41.5643C95.3001 41.3634 95.5726 41.2505 95.8567 41.2505H105.206C105.49 41.2505 105.762 41.3634 105.963 41.5643C106.164 41.7652 106.277 42.0377 106.277 42.3219C106.277 42.606 106.164 42.8785 105.963 43.0794C105.762 43.2804 105.49 43.3932 105.206 43.3932ZM91.6874 43.3932H90.5479C90.2638 43.3932 89.9913 43.2804 89.7904 43.0794C89.5894 42.8785 89.4766 42.606 89.4766 42.3219C89.4766 42.0377 89.5894 41.7652 89.7904 41.5643C89.9913 41.3634 90.2638 41.2505 90.5479 41.2505H91.6874C91.9716 41.2505 92.2441 41.3634 92.445 41.5643C92.6459 41.7652 92.7588 42.0377 92.7588 42.3219C92.7588 42.606 92.6459 42.8785 92.445 43.0794C92.2441 43.2804 91.9716 43.3932 91.6874 43.3932ZM105.206 48.4263H90.5479C90.2638 48.4263 89.9913 48.3135 89.7904 48.1125C89.5894 47.9116 89.4766 47.6391 89.4766 47.355C89.4766 47.0708 89.5894 46.7983 89.7904 46.5974C89.9913 46.3965 90.2638 46.2836 90.5479 46.2836H105.206C105.49 46.2836 105.762 46.3965 105.963 46.5974C106.164 46.7983 106.277 47.0708 106.277 47.355C106.277 47.6391 106.164 47.9116 105.963 48.1125C105.762 48.3135 105.49 48.4263 105.206 48.4263Z" fill="#F2F9FF"/>
<path d="M75.0981 80.6405C73.6293 80.3579 72.5677 79.0725 72.5677 77.5767V69.0073H60.6397V77.5767C60.6397 79.1049 59.5371 80.3664 58.1094 80.6405L61.0562 84.5953H72.1514C72.1513 84.5953 75.3258 80.6843 75.0981 80.6405Z" fill="#FFDDCE"/>
<path d="M93.3512 104.464V99.3714C93.3512 90.5374 87.0817 82.9462 78.407 81.2768C77.5576 81.1133 54.8038 81.2768 54.8038 81.2768C46.1289 82.9464 39.8594 90.5374 39.8594 99.3714V104.464H93.3512Z" fill="#FFD064"/>
<path d="M77.5232 80.3176H46.9765C45.09 80.3176 43.5902 81.9011 43.6924 83.7847L44.8467 105.052H79.653L80.8073 83.7847C80.9095 81.901 79.4097 80.3176 77.5232 80.3176Z" fill="#EAF2FF"/>
<path d="M86.2317 80.3176H76.8984C78.7849 80.3176 80.2847 81.9011 80.1825 83.7847L79.0282 105.052H88.3615L89.5158 83.7847C89.618 81.901 88.1182 80.3176 86.2317 80.3176Z" fill="#DBE8F9"/>
<path d="M85.1808 105.652V103.893L84.8058 103.348H41.3039C40.0314 103.348 39 104.379 39 105.652C39 106.924 40.0314 107.955 41.3039 107.955H82.8783C84.15 107.955 85.1808 106.924 85.1808 105.652Z" fill="#9BC4F9"/>
<path d="M91.9007 103.348H84.8039V105.652C84.8039 106.924 83.7725 107.955 82.5 107.955H91.9006C93.1729 107.955 94.2045 106.924 94.2045 105.652C94.2046 104.379 93.1732 103.348 91.9007 103.348Z" fill="#7FB2F9"/>
<path d="M69.48 103.348C69.48 101.46 70.1874 99.6445 71.4506 98.2413L71.4788 98.2097C72.5118 97.054 73.1399 95.5288 73.1399 93.8568C73.1399 91.4201 71.806 89.2949 69.8287 88.1714C69.4535 87.9582 68.9875 88.2263 68.9875 88.6578V93.5193C68.9875 94.3341 68.3268 94.9947 67.512 94.9947H65.6982C64.8833 94.9947 64.2227 94.3341 64.2227 93.5193V88.6578C64.2227 88.2264 63.7566 87.9582 63.3815 88.1714C61.4042 89.2949 60.0703 91.4201 60.0703 93.8568C60.0703 95.5289 60.6984 97.0541 61.7313 98.2097L61.7596 98.2413C63.0228 99.6445 63.7301 101.46 63.7301 103.348H69.48Z" fill="#BCD6F9"/>
<path d="M68.313 72.8042C70.689 70.7157 71.9963 67.6498 72.0505 64.47L72.0117 49.1144C72.0036 47.2189 71.5649 45.4185 70.7212 43.7991C69.3782 43.2998 67.9582 43.0393 66.5254 43.0293C60.3953 43.1247 54.8548 47.809 54.8829 54.564L54.8923 56.8285L54.9272 64.4323C55.0061 67.5401 56.3089 70.5263 58.6486 72.548C60.0319 73.7433 61.8254 74.8248 64.0611 75.3246C65.766 74.7266 67.1772 73.8027 68.313 72.8042Z" fill="#FFDDCE"/>
<path d="M78.2697 54.4642C78.2473 49.0984 74.7111 45.05 70.158 43.6064C71.1282 45.2475 71.6988 47.179 71.7077 49.3214L71.7457 64.3325C71.6927 67.4408 70.4149 70.4379 68.0921 72.4796C66.8513 73.5702 65.2744 74.5703 63.3359 75.136C64.3471 75.4311 65.4564 75.608 66.6674 75.6165C70.1521 75.5623 72.7842 74.1233 74.6542 72.4796C76.977 70.4379 78.2548 67.4408 78.3078 64.3325L78.2697 54.4642Z" fill="#FFCBBE"/>
<path d="M66.1995 50.6509H67.0112C68.1128 50.6556 69.1997 50.4512 70.2486 50.1142C70.8207 49.9302 71.4173 49.8342 72.0182 49.8295L72.0164 49.1142C72.0074 47.0091 71.4674 45.0211 70.4311 43.2681L70.4332 43.2688C70.0329 42.5925 69.564 41.9593 69.0339 41.3791L68.0982 41.0632H61.2763C56.2265 41.0632 52.1328 45.1568 52.1328 50.2067V56.2492C52.1328 57.1367 52.6944 57.9271 53.5327 58.2189L55.785 59.0031C56.5723 59.2772 57.3943 58.6919 57.3931 57.8583L57.3881 53.5975C57.3795 51.5253 59.0319 49.8384 61.0791 49.8297L61.1237 49.8294C61.7477 49.827 62.3681 49.9231 62.9621 50.1142C64.0109 50.4512 65.0978 50.6556 66.1995 50.6509Z" fill="#756E78"/>
<path d="M77.5082 45.8324H77.3881C77.0688 45.8324 76.7625 45.7055 76.5367 45.4797C76.3109 45.2539 76.184 44.9477 76.184 44.6283C76.184 42.6593 74.5879 41.0632 72.6189 41.0632H68.0938C70.276 43.0772 71.6878 45.9374 71.7019 49.3211L71.7031 49.841C71.8292 49.8334 71.9555 49.8288 72.0822 49.8294L72.1267 49.8297C74.174 49.8385 75.8264 51.5253 75.8178 53.5975L75.8136 57.8588C75.8125 58.6922 76.6345 59.2772 77.4217 59.0032L79.6731 58.219C80.082 58.0766 80.4365 57.8105 80.6873 57.4575C80.9381 57.1046 81.0729 56.6823 81.0729 56.2493V49.3976C81.0732 47.4285 79.477 45.8324 77.5082 45.8324Z" fill="#665E66"/>
<path d="M80.8828 64.5594V66.1219C80.8828 67.339 79.8927 68.3291 78.6755 68.3291H72.0792C71.795 68.3291 71.5225 68.442 71.3216 68.6429C71.1207 68.8439 71.0078 69.1164 71.0078 69.4005C71.0078 69.6847 71.1207 69.9572 71.3216 70.1581C71.5225 70.359 71.795 70.4719 72.0792 70.4719H78.6755C81.0741 70.4719 83.0257 68.5205 83.0257 66.1218V62.1895C83.0255 63.4243 82.0859 64.4397 80.8828 64.5594Z" fill="#DBE8F9"/>
<path d="M74.6871 71.0825H71.9981C70.9722 71.0825 70.1406 70.2508 70.1406 69.2249C70.1406 68.199 70.9722 67.3674 71.9981 67.3674H74.6871C75.713 67.3674 76.5446 68.199 76.5446 69.2249C76.5446 70.2508 75.713 71.0825 74.6871 71.0825Z" fill="#DB636E"/>
<path d="M97.5971 52.2888L97.5542 52.2891H88.8672C89.8721 52.2891 90.6868 53.1038 90.6868 54.1089V59.6824C90.6868 60.39 91.6187 60.648 91.9827 60.0411L96.1013 53.173C96.2573 52.9129 96.4758 52.6958 96.737 52.5417C96.9983 52.3875 97.2939 52.3011 97.597 52.2903V52.2888H97.5971Z" fill="#95D6A4"/>
</g>
<defs>
<filter id="filter0_d_3238_2945" x="0.666667" y="0.571429" width="146.667" height="146.667" filterUnits="userSpaceOnUse" color-interpolation-filters="sRGB">
<feFlood flood-opacity="0" result="BackgroundImageFix"/>
<feColorMatrix in="SourceAlpha" type="matrix" values="0 0 0 0 0 0 0 0 0 0 0 0 0 0 0 0 0 0 127 0" result="hardAlpha"/>
<feOffset dy="1.90476"/>
<feGaussianBlur stdDeviation="6.66667"/>
<feComposite in2="hardAlpha" operator="out"/>
<feColorMatrix type="matrix" values="0 0 0 0 0.695898 0 0 0 0 0.695898 0 0 0 0 0.695898 0 0 0 0.25 0"/>
<feBlend mode="normal" in2="BackgroundImageFix" result="effect1_dropShadow_3238_2945"/>
<feBlend mode="normal" in="SourceGraphic" in2="effect1_dropShadow_3238_2945" result="shape"/>
</filter>
<clipPath id="clip0_3238_2945">
<rect width="71" height="71" fill="white" transform="translate(39 37)"/>
</clipPath>
</defs>
</svg>
