<svg width="148" height="148" viewBox="0 0 148 148" fill="none" xmlns="http://www.w3.org/2000/svg">
<g filter="url(#filter0_d_3222_2819)">
<circle cx="74" cy="72" r="60" fill="white"/>
</g>
<path d="M86.9391 101.583H62.4414C65.7181 99.3701 67.7142 97.0553 68.2607 94.6573C68.5028 93.6841 68.4931 92.6652 68.2326 91.6968H81.1332C80.873 92.6653 80.8637 93.6842 81.1064 94.6573C81.6516 97.0553 83.6637 99.3701 86.9391 101.583Z" fill="#5B5E8B"/>
<path d="M81.1064 94.6573H76.2462C73.4129 94.6573 70.7069 95.8831 68.9037 98.0694C67.9178 99.2656 66.5648 100.438 64.8701 101.582H62.4414C65.7181 99.3701 67.7142 97.0566 68.2607 94.656C68.5026 93.6832 68.4929 92.6648 68.2326 91.6968H81.1332C80.873 92.6653 80.8637 93.6842 81.1064 94.6573Z" fill="#312E4B"/>
<path d="M106.522 49.784V86.8379C106.521 88.5295 105.848 90.1514 104.652 91.3477C103.456 92.5439 101.835 93.2168 100.143 93.2186H48.8503C47.1603 93.2164 45.5403 92.5432 44.3465 91.3469C43.1528 90.1507 42.483 88.5293 42.4844 86.8393V49.7853C42.4837 48.949 42.6478 48.1208 42.9675 47.348C43.2871 46.5751 43.7559 45.8729 44.3472 45.2814C44.9384 44.69 45.6404 44.2208 46.4131 43.9009C47.1858 43.5809 48.014 43.4164 48.8503 43.4168H100.143C101.833 43.4153 103.454 44.0851 104.651 45.2789C105.847 46.4727 106.52 48.0926 106.522 49.7826V49.784Z" fill="#5B5E8B"/>
<path d="M56.1808 93.2186H48.8464C47.1564 93.2164 45.5364 92.5432 44.3426 91.347C43.1489 90.1507 42.479 88.5293 42.4805 86.8393V49.784C42.4799 48.9477 42.6443 48.1195 42.9641 47.3467C43.2839 46.574 43.7529 45.8719 44.3442 45.2805C44.9356 44.6891 45.6377 44.2202 46.4104 43.9004C47.1832 43.5806 48.0114 43.4162 48.8477 43.4168H56.1821C55.3449 43.4155 54.5156 43.5793 53.7416 43.8986C52.9676 44.218 52.2642 44.6867 51.6714 45.2779C51.0786 45.8692 50.6081 46.5715 50.2868 47.3447C49.9655 48.1178 49.7997 48.9467 49.7988 49.784V86.8379C49.8002 88.5298 50.4729 90.1519 51.6692 91.3482C52.8655 92.5444 54.4876 93.2171 56.1795 93.2186H56.1808Z" fill="#312E4B"/>
<path d="M100.776 51.7989V81.9498C100.776 82.2973 100.708 82.6415 100.575 82.9627C100.442 83.2838 100.247 83.5756 100.002 83.8214C99.7559 84.0671 99.4641 84.262 99.1429 84.3948C98.8218 84.5277 98.4775 84.5959 98.13 84.5955H50.8668C50.5199 84.5957 50.1764 84.5273 49.8561 84.3942C49.5358 84.2612 49.2449 84.0661 49.0003 83.8202C48.7556 83.5743 48.562 83.2824 48.4306 82.9614C48.2991 82.6404 48.2325 82.2966 48.2344 81.9498V51.7989C48.2344 50.3481 49.4026 49.1665 50.8668 49.1665H98.1287C98.4753 49.1655 98.8188 49.2327 99.1395 49.3645C99.4602 49.4962 99.7518 49.6898 99.9976 49.9343C100.243 50.1787 100.439 50.4692 100.572 50.7891C100.706 51.1091 100.775 51.4522 100.776 51.7989Z" fill="#DEDDFF"/>
<path d="M54.6339 84.5874H50.8628C50.165 84.5864 49.4961 84.3087 49.0027 83.8153C48.5092 83.3218 48.2315 82.6529 48.2305 81.9551V51.8042C48.2296 51.4576 48.297 51.1143 48.4288 50.7938C48.5606 50.4732 48.7543 50.1818 48.9987 49.9361C49.2431 49.6905 49.5336 49.4953 49.8534 49.3619C50.1733 49.2285 50.5163 49.1593 50.8628 49.1584H54.6366C54.29 49.1593 53.947 49.2285 53.6271 49.3619C53.3073 49.4953 53.0169 49.6905 52.7724 49.9361C52.528 50.1818 52.3343 50.4732 52.2025 50.7938C52.0707 51.1143 52.0033 51.4576 52.0042 51.8042V81.9551C52.0042 83.4059 53.1857 84.5874 54.6366 84.5874H54.6339Z" fill="#C6C6F7"/>
<path d="M74.6919 91.1329C75.8572 91.1329 76.8018 90.1883 76.8018 89.023C76.8018 87.8577 75.8572 86.9131 74.6919 86.9131C73.5267 86.9131 72.582 87.8577 72.582 89.023C72.582 90.1883 73.5267 91.1329 74.6919 91.1329Z" fill="#312E4B"/>
<path d="M87.9838 74.3178C87.5487 73.8842 87.0253 73.5494 86.4493 73.3361C85.8732 73.1228 85.2581 73.0358 84.6455 73.0813C84.374 73.1079 84.1 73.0751 83.8426 72.9851C83.5851 72.8951 83.3503 72.7501 83.1545 72.5602L69.3792 58.7862C69.1824 58.5887 69.0338 58.3486 68.9448 58.0845C68.8559 57.8203 68.8289 57.5393 68.8661 57.263C68.95 56.5765 68.8756 55.8798 68.6488 55.2264C68.4219 54.573 68.0485 53.9802 67.5573 53.4933C66.9699 52.9041 66.2323 52.487 65.4246 52.2875C64.6169 52.0879 63.77 52.1135 62.9758 52.3613C62.9074 52.3816 62.8455 52.4193 62.7962 52.4707C62.7468 52.5222 62.7118 52.5856 62.6944 52.6547C62.6787 52.7233 62.6801 52.7947 62.6983 52.8626C62.7165 52.9306 62.751 52.993 62.7989 53.0446L64.5431 54.782L64.2444 56.6307L62.3957 56.9308L60.6582 55.1933C60.6079 55.143 60.5455 55.1064 60.4771 55.0869C60.4086 55.0675 60.3363 55.0658 60.267 55.0821C60.1975 55.0994 60.1335 55.1342 60.0812 55.1832C60.0289 55.2322 59.99 55.2938 59.9683 55.3621C59.7234 56.1582 59.7 57.0059 59.9006 57.8143C60.1012 58.6227 60.5183 59.3611 61.107 59.9503C61.595 60.4392 62.188 60.8106 62.8409 61.0362C63.4938 61.2618 64.1896 61.3357 64.8753 61.2524C65.4487 61.1868 66.0087 61.3757 66.3985 61.7735L80.1685 75.5408C80.5529 75.9186 80.7351 76.4585 80.6896 77.0573C80.6519 77.6323 80.7298 78.209 80.9187 78.7534C81.1076 79.2977 81.4037 79.7988 81.7894 80.2268C82.1819 80.6484 82.6549 80.9871 83.1804 81.2229C83.7059 81.4587 84.2733 81.5869 84.8491 81.5999C84.888 81.6066 84.9268 81.6066 84.9657 81.6066C86.0827 81.612 87.1575 81.1797 87.9597 80.4023C88.3636 80.0059 88.6848 79.5333 88.9049 79.012C89.1251 78.4907 89.2397 77.9309 89.2422 77.365C89.2447 76.7991 89.135 76.2383 88.9195 75.715C88.7039 75.1918 88.3868 74.7164 87.9865 74.3164L87.9838 74.3178ZM86.6764 78.283L85.8954 79.0627C85.8449 79.1131 85.7849 79.1529 85.7189 79.1798C85.6529 79.2067 85.5822 79.2202 85.5109 79.2194H84.4111C84.3403 79.2195 84.2702 79.205 84.2052 79.1769C84.1402 79.1488 84.0817 79.1077 84.0333 79.056L83.2523 78.2817C83.2023 78.2313 83.1628 78.1715 83.1361 78.1057C83.1095 78.04 83.0961 77.9695 83.0969 77.8986L83.0902 76.7974C83.0904 76.6564 83.1463 76.5211 83.2456 76.421L84.0266 75.6333C84.1302 75.534 84.2676 75.478 84.4111 75.4765L85.5109 75.4832C85.6526 75.4835 85.7884 75.5398 85.8887 75.64L86.6697 76.421C86.7203 76.4696 86.7603 76.5281 86.7873 76.5929C86.8142 76.6576 86.8275 76.7273 86.8264 76.7974L86.8318 77.8986C86.8303 78.0413 86.7748 78.1796 86.6764 78.283Z" fill="#65B9FF"/>
<path d="M86.0677 80.5483C86.0409 80.5483 86.0007 80.5483 85.9605 80.5349C84.7816 80.5081 83.6697 79.9991 82.8928 79.1685C82.1158 78.2978 81.7139 77.1457 81.7943 75.9936C81.8478 75.3908 81.6603 74.8549 81.2718 74.4798L67.5139 60.7085C67.112 60.3066 66.5628 60.1191 65.9867 60.1861C64.5801 60.3602 63.2137 59.8779 62.2224 58.8866C61.7712 58.4358 61.42 57.8951 61.1915 57.2996C60.963 56.7042 60.8623 56.0673 60.8961 55.4304L60.655 55.1893C60.6026 55.1432 60.5404 55.1097 60.4731 55.0911C60.4058 55.0725 60.3352 55.0695 60.2665 55.0821C60.1192 55.1089 60.012 55.2295 59.9718 55.3634C59.4761 56.9844 59.9048 58.7527 61.1105 59.9449C62.1018 60.9362 63.4682 61.4185 64.8748 61.2578C65.4509 61.1908 66.0001 61.3783 66.402 61.7802L80.1599 75.5381C80.5484 75.9132 80.736 76.4625 80.6824 77.0653C80.602 78.2174 81.0039 79.3695 81.7809 80.2268C82.5578 81.0708 83.6697 81.5664 84.8486 81.6066H84.9558C86.0945 81.6066 87.1795 81.1779 87.9565 80.401C88.1307 80.2268 88.2914 80.0527 88.4254 79.8517C87.7422 80.2938 86.925 80.5483 86.0677 80.5483Z" fill="#3E7FFF"/>
<path d="M70.7266 68.177L73.2049 70.6553C85.4088 58.5585 84.8114 58.7916 85.378 58.7755L86.088 58.7541C86.2228 58.7503 86.3541 58.7107 86.4686 58.6394C86.583 58.568 86.6763 58.4675 86.7391 58.3482L88.5114 54.9763C88.5929 54.8211 88.6225 54.6438 88.596 54.4705C88.5695 54.2972 88.4882 54.1369 88.364 54.0132L87.3687 53.0178C87.245 52.8939 87.085 52.8128 86.9119 52.7863C86.7389 52.7598 86.5619 52.7893 86.4068 52.8705L83.0337 54.6428C82.254 55.0527 82.9252 55.9784 82.3853 56.5182L70.7266 68.177Z" fill="#C6C6F7"/>
<path d="M88.3331 53.9838C88.2099 53.8582 88.0493 53.776 87.8754 53.7494C87.7015 53.7228 87.5237 53.7534 87.3686 53.8365L83.9927 55.6048C83.2291 56.0281 83.8615 56.9685 83.3497 57.4802L71.695 69.1349L73.2088 70.6487V70.6621L70.7305 68.1838C82.8112 55.9798 82.5727 56.584 82.6129 56.0066C82.6705 55.6034 82.4508 54.9617 83.0282 54.6402L86.4041 52.8719C86.7256 52.6978 87.1141 52.7648 87.3686 53.0193L88.3331 53.9838Z" fill="#B5B5EA"/>
<path d="M61.5317 80.0513C61.1841 79.7301 60.9049 79.3419 60.711 78.9101C60.517 78.4783 60.4123 78.0118 60.403 77.5385C60.3938 77.0653 60.4802 76.595 60.6571 76.156C60.834 75.7169 61.0978 75.3182 61.4326 74.9835L67.9137 68.5024L72.8863 73.4738L66.4053 79.9562C65.7628 80.599 64.8963 80.968 63.9876 80.9857C63.079 81.0034 62.1988 80.6686 61.5317 80.0513Z" fill="#E83D62"/>
<path d="M68.093 71.1696C68.0194 71.0959 67.9321 71.0373 67.8359 70.9974C67.7397 70.9575 67.6365 70.9369 67.5324 70.9369C67.4282 70.9369 67.3251 70.9575 67.2289 70.9974C67.1327 71.0373 67.0453 71.0959 66.9717 71.1696L62.2951 75.8489C61.7081 76.434 61.3481 77.2085 61.2791 78.0344C61.2102 78.8603 61.4368 79.6838 61.9187 80.3581C61.8 80.281 61.6879 80.1941 61.5838 80.0982C61.2265 79.7796 60.9379 79.3916 60.7357 78.9577C60.5336 78.5238 60.422 78.0533 60.4078 77.5748C60.3936 77.0963 60.4772 76.62 60.6533 76.1749C60.8295 75.7298 61.0946 75.3254 61.4324 74.9862L67.9162 68.5024L72.8862 73.4724L71.6403 74.7196L68.093 71.1696Z" fill="#CE2955"/>
<path d="M62.009 76.867L66.8798 71.9962C67.0942 71.7832 67.4398 71.7832 67.6528 71.9962L67.7265 72.0699C67.9408 72.2842 67.9408 72.6298 67.7265 72.8428L62.8556 77.7137C62.3385 78.2308 61.4919 77.3841 62.009 76.867ZM63.7438 79.3748L63.6714 79.3025C63.6205 79.2517 63.58 79.1914 63.5525 79.1249C63.5249 79.0585 63.5107 78.9873 63.5107 78.9153C63.5107 78.8434 63.5249 78.7722 63.5525 78.7057C63.58 78.6393 63.6205 78.579 63.6714 78.5282L68.541 73.6586C68.7553 73.4443 69.1009 73.4443 69.3153 73.6586L69.3876 73.731C69.6019 73.9453 69.6019 74.2909 69.3876 74.5053L64.5181 79.3748C64.4673 79.4258 64.407 79.4662 64.3405 79.4938C64.2741 79.5214 64.2029 79.5356 64.1309 79.5356C64.059 79.5356 63.9878 79.5214 63.9213 79.4938C63.8549 79.4662 63.7945 79.4258 63.7438 79.3748Z" fill="#CE2955"/>
<path d="M73.3603 73.9467L67.4847 68.0724C67.3905 67.9784 67.3157 67.8667 67.2647 67.7437C67.2137 67.6207 67.1875 67.4889 67.1875 67.3557C67.1875 67.2226 67.2137 67.0908 67.2647 66.9678C67.3157 66.8448 67.3905 66.7331 67.4847 66.639L67.6213 66.5037C67.7154 66.4095 67.8271 66.3348 67.9501 66.2838C68.0731 66.2328 68.2049 66.2065 68.338 66.2065C68.4712 66.2065 68.603 66.2328 68.726 66.2838C68.849 66.3348 68.9607 66.4095 69.0547 66.5037L74.929 72.378C75.0232 72.4721 75.0979 72.5838 75.1489 72.7067C75.1999 72.8297 75.2262 72.9616 75.2262 73.0947C75.2262 73.2278 75.1999 73.3596 75.1489 73.4826C75.0979 73.6056 75.0232 73.7173 74.929 73.8114L74.7923 73.9453C74.6983 74.0396 74.5866 74.1143 74.4636 74.1653C74.3406 74.2163 74.2088 74.2426 74.0756 74.2426C73.9425 74.2426 73.8107 74.2163 73.6877 74.1653C73.5647 74.1143 73.453 74.0396 73.3589 73.9453L73.3603 73.9467Z" fill="#E83D62"/>
<path d="M69.3024 69.8931L67.5515 68.1423C67.4484 68.0391 67.3667 67.9166 67.3109 67.7818C67.2552 67.6471 67.2265 67.5026 67.2266 67.3568C67.2267 67.0622 67.3438 66.7798 67.5522 66.5716C67.7606 66.3634 68.0431 66.2465 68.3377 66.2466C68.6323 66.2467 68.9147 66.3638 69.1229 66.5722L70.8725 68.3218C70.6643 68.1136 70.3819 67.9966 70.0874 67.9966C69.793 67.9966 69.5106 68.1136 69.3024 68.3218C69.0942 68.53 68.9773 68.8123 68.9773 69.1068C68.9773 69.4012 69.0942 69.6836 69.3024 69.8918V69.8931Z" fill="#CE2955"/>
<defs>
<filter id="filter0_d_3222_2819" x="0.666667" y="0.571429" width="146.667" height="146.667" filterUnits="userSpaceOnUse" color-interpolation-filters="sRGB">
<feFlood flood-opacity="0" result="BackgroundImageFix"/>
<feColorMatrix in="SourceAlpha" type="matrix" values="0 0 0 0 0 0 0 0 0 0 0 0 0 0 0 0 0 0 127 0" result="hardAlpha"/>
<feOffset dy="1.90476"/>
<feGaussianBlur stdDeviation="6.66667"/>
<feComposite in2="hardAlpha" operator="out"/>
<feColorMatrix type="matrix" values="0 0 0 0 0.695898 0 0 0 0 0.695898 0 0 0 0 0.695898 0 0 0 0.25 0"/>
<feBlend mode="normal" in2="BackgroundImageFix" result="effect1_dropShadow_3222_2819"/>
<feBlend mode="normal" in="SourceGraphic" in2="effect1_dropShadow_3222_2819" result="shape"/>
</filter>
</defs>
</svg>
