<svg width="148" height="148" viewBox="0 0 148 148" fill="none" xmlns="http://www.w3.org/2000/svg">
<g filter="url(#filter0_d_3247_2995)">
<circle cx="74" cy="72" r="60" fill="white"/>
</g>
<path d="M76.5077 49.1809L74.9323 46.0413L67.8767 42.1252L66.3125 43.6895L70.2286 50.7451L73.3681 52.3204L89.0558 68.0081L92.1953 64.8674L76.5077 49.1809Z" fill="#FF6243"/>
<path d="M67.8767 44.344L74.9323 48.2601L76.5077 51.3996L91.086 65.9768L92.1953 64.8674L76.5077 49.1809L74.9323 46.0413L67.8767 42.1252L66.3125 43.6895L67.1046 45.1161L67.8767 44.344Z" fill="#FF5023"/>
<path d="M75.1554 64.3948C73.5942 64.1601 71.9987 64.3457 70.5331 64.9325C69.0676 65.5194 67.7849 66.4863 66.8172 67.7337C65.8495 68.981 65.2318 70.4638 65.0277 72.0292C64.8236 73.5947 65.0404 75.1863 65.6558 76.6401L71.4767 70.8192L75.3994 71.6035L76.1838 75.5263L70.3629 81.3471C71.8167 81.9626 73.4083 82.1794 74.9737 81.9752C76.5392 81.7711 78.0219 81.1534 79.2693 80.1857C80.5166 79.218 81.4835 77.9354 82.0704 76.4698C82.6573 75.0042 82.8429 73.4087 82.6082 71.8476C82.4861 71.1378 82.533 70.4093 82.745 69.721C82.9571 69.0327 83.3282 68.4041 83.8285 67.886L92.0767 59.6311C92.5948 59.131 93.2235 58.7599 93.9117 58.5478C94.6 58.3358 95.3285 58.2889 96.0382 58.4108C97.5986 58.6449 99.1931 58.4591 100.658 57.8725C102.123 57.2859 103.405 56.3197 104.372 55.0733C105.339 53.8269 105.957 52.3453 106.162 50.7809C106.367 49.2165 106.152 47.6257 105.538 46.1722L99.7169 51.9931L95.7942 51.2088L95.0099 47.286L100.831 41.4651C99.3769 40.8497 97.7854 40.6329 96.2199 40.837C94.6545 41.0412 93.1717 41.6589 91.9243 42.6265C90.677 43.5942 89.7101 44.8769 89.1232 46.3425C88.5364 47.808 88.3507 49.4035 88.5855 50.9647C88.7074 51.6745 88.6604 52.403 88.4484 53.0912C88.2364 53.7795 87.8653 54.4081 87.3652 54.9263L84.8136 57.4778L81.6741 60.6174L79.1225 63.1689C78.6043 63.671 77.975 64.0437 77.2856 64.2567C76.5963 64.4697 75.8664 64.517 75.1554 64.3948Z" fill="#FF9811"/>
<path d="M105.532 46.1721L103.818 47.8861C104.065 49.0829 104.061 50.318 103.806 51.5133C103.551 52.7085 103.051 53.8377 102.337 54.8294C101.623 55.8211 100.71 56.6535 99.6572 57.2741C98.6044 57.8946 97.4341 58.2896 96.2205 58.434C97.7697 58.6344 99.3443 58.4223 100.785 57.8193C102.226 57.2162 103.482 56.2435 104.427 54.9995C105.372 53.7555 105.971 52.2842 106.165 50.7342C106.359 49.1842 106.141 47.6105 105.532 46.1721ZM93.8132 58.4174C93.1034 58.2955 92.3749 58.3424 91.6867 58.5544C90.9984 58.7664 90.3698 59.1375 89.8516 59.6377L81.5968 67.8859C81.0965 68.404 80.7253 69.0327 80.5133 69.7209C80.3013 70.4092 80.2544 71.1377 80.3764 71.8475C80.5559 73.0209 80.4972 74.2184 80.2037 75.3686C79.9101 76.5188 79.3879 77.5981 78.668 78.542C77.9482 79.4859 77.0456 80.275 76.014 80.8624C74.9825 81.4497 73.8431 81.8232 72.6641 81.9606C74.027 82.1416 75.4134 82.0031 76.7136 81.5559C78.0137 81.1088 79.1921 80.3654 80.1554 79.3844C81.1188 78.4034 81.8407 77.2118 82.2641 75.9037C82.6876 74.5956 82.8009 73.2069 82.5952 71.8475C82.4732 71.1377 82.5201 70.4092 82.7321 69.7209C82.9441 69.0327 83.3153 68.404 83.8155 67.8859L92.0704 59.6311C92.7045 59.0167 93.5111 58.6106 94.3823 58.4673C94.1926 58.4529 94.0018 58.4451 93.8132 58.4174Z" fill="#EE8700"/>
<path d="M97.8193 79.9083C98.6515 80.7405 99.7802 81.208 100.957 81.208C102.134 81.208 103.263 80.7405 104.095 79.9083C104.927 79.0761 105.395 77.9473 105.395 76.7704C105.395 75.5935 104.927 74.4647 104.095 73.6325L96.8996 66.4382L90.625 72.7129L97.8193 79.9083Z" fill="#005ECE"/>
<path d="M90.624 72.7128L96.8986 66.4382C97.3148 66.0221 97.5486 65.4578 97.5487 64.8693C97.5488 64.2809 97.3152 63.7165 96.8991 63.3003C96.4831 62.8841 95.9188 62.6503 95.3303 62.6501C94.7419 62.65 94.1774 62.8837 93.7613 63.2997L87.4855 69.5755C87.2795 69.7815 87.1161 70.0262 87.0047 70.2954C86.8932 70.5646 86.8359 70.8531 86.8359 71.1445C86.836 71.4359 86.8934 71.7244 87.005 71.9936C87.1165 72.2628 87.28 72.5073 87.4861 72.7133C87.6922 72.9193 87.9368 73.0827 88.206 73.1942C88.4752 73.3057 88.7638 73.363 89.0551 73.3629C89.3465 73.3629 89.635 73.3054 89.9042 73.1939C90.1734 73.0823 90.418 72.9189 90.624 72.7128Z" fill="#004FAC"/>
<path d="M51.2031 104.672H60.0781V84.7031H51.2031V102.453V104.672Z" fill="#006DF0"/>
<path d="M42.3281 86.9219H51.2031V102.453H42.3281V86.9219Z" fill="#004FAC"/>
<path d="M105.873 87.3654C105.655 86.9873 105.365 86.6557 105.019 86.3897C104.674 86.1237 104.279 85.9285 103.857 85.8151C103.436 85.7018 102.996 85.6726 102.564 85.7292C102.131 85.7859 101.714 85.9272 101.336 86.1451L89.4988 92.9788H89.4932C89.3357 92.4301 89.039 91.9313 88.632 91.5309C88.225 91.1305 87.7215 90.842 87.1702 90.6935L70.6183 86.256C69.5264 85.9636 68.3779 85.954 67.2813 86.2283L60.0781 88.031V101.344L63.11 102.86C64.0343 103.322 65.0533 103.562 66.0865 103.562H82.7016C83.8697 103.564 85.0176 103.258 86.0297 102.675L104.667 91.9138C105.43 91.4704 105.986 90.7422 106.212 89.8893C106.438 89.0363 106.316 88.1285 105.873 87.3654Z" fill="#FFBCAB"/>
<path d="M47.875 86.9219H51.2031V102.453H47.875V86.9219Z" fill="#00479B"/>
<path d="M89.5751 93.3295C89.5562 93.4404 89.5507 93.5513 89.5207 93.6623C89.4079 94.0847 89.213 94.4807 88.9471 94.8278C88.6812 95.1748 88.3495 95.4661 87.971 95.6849C87.5925 95.9037 87.1746 96.0458 86.7411 96.1031C86.3077 96.1603 85.8672 96.1316 85.4449 96.0186L75.881 93.4559L73.5224 92.8247L73.1719 93.8398L85.4449 97.128C85.9853 97.2757 86.5544 97.2839 87.0989 97.1519C87.6433 97.0198 88.1454 96.7517 88.5581 96.3727C88.9707 95.9938 89.2805 95.5163 89.4583 94.985C89.6362 94.4538 89.6764 93.886 89.5751 93.335V93.3295Z" fill="#FF9478"/>
<defs>
<filter id="filter0_d_3247_2995" x="0.666667" y="0.571429" width="146.667" height="146.667" filterUnits="userSpaceOnUse" color-interpolation-filters="sRGB">
<feFlood flood-opacity="0" result="BackgroundImageFix"/>
<feColorMatrix in="SourceAlpha" type="matrix" values="0 0 0 0 0 0 0 0 0 0 0 0 0 0 0 0 0 0 127 0" result="hardAlpha"/>
<feOffset dy="1.90476"/>
<feGaussianBlur stdDeviation="6.66667"/>
<feComposite in2="hardAlpha" operator="out"/>
<feColorMatrix type="matrix" values="0 0 0 0 0.695898 0 0 0 0 0.695898 0 0 0 0 0.695898 0 0 0 0.25 0"/>
<feBlend mode="normal" in2="BackgroundImageFix" result="effect1_dropShadow_3247_2995"/>
<feBlend mode="normal" in="SourceGraphic" in2="effect1_dropShadow_3247_2995" result="shape"/>
</filter>
</defs>
</svg>
