<svg width="148" height="148" viewBox="0 0 148 148" fill="none" xmlns="http://www.w3.org/2000/svg">
<g filter="url(#filter0_d_3238_2805)">
<circle cx="74" cy="72" r="60" fill="white"/>
</g>
<rect x="42" y="46" width="65" height="47" fill="#F7F7F7"/>
<path d="M41.8398 45.6621H107.16V56.4541H41.8398V45.6621Z" fill="#F179AF"/>
<path d="M46.2422 51.0581H49.2242H46.2422ZM52.6322 51.0581H55.6142H52.6322ZM59.0222 51.0581H62.0042H59.0222Z" fill="black"/>
<path d="M46.2422 51.0581H49.2242M52.6322 51.0581H55.6142M59.0222 51.0581H62.0042" stroke="#487487" stroke-width="20.48" stroke-miterlimit="10"/>
<path d="M89.266 80.168V74.346L85.29 73.92C85.006 72.926 84.722 72.074 84.154 71.222L86.852 68.098L82.734 63.98L79.61 66.82C78.758 66.394 77.906 65.968 76.912 65.684L76.628 61.708H70.806L70.522 65.684C69.528 65.968 68.676 66.252 67.966 66.82L64.842 64.264L60.724 68.24L63.28 71.364C62.854 72.216 62.428 73.068 62.144 74.062L58.168 74.346V80.168L62.144 80.452C62.428 81.446 62.712 82.298 63.28 83.15L60.724 86.274L64.842 90.392L67.966 87.836C68.818 88.262 69.67 88.688 70.522 88.972L70.806 92.948H76.628L76.912 88.972C77.906 88.688 78.758 88.404 79.61 87.836L82.734 90.392L86.852 86.274L84.296 83.15C84.722 82.298 85.148 81.446 85.432 80.452L89.266 80.168Z" fill="#D2E0E7"/>
<path d="M73.648 70.3701C69.814 70.3701 66.832 73.4941 66.832 77.1861C66.832 81.0201 69.956 84.0021 73.648 84.0021C77.34 84.0021 80.464 80.8781 80.464 77.1861C80.606 73.3521 77.482 70.3701 73.648 70.3701Z" fill="white"/>
<defs>
<filter id="filter0_d_3238_2805" x="0.666667" y="0.571429" width="146.667" height="146.667" filterUnits="userSpaceOnUse" color-interpolation-filters="sRGB">
<feFlood flood-opacity="0" result="BackgroundImageFix"/>
<feColorMatrix in="SourceAlpha" type="matrix" values="0 0 0 0 0 0 0 0 0 0 0 0 0 0 0 0 0 0 127 0" result="hardAlpha"/>
<feOffset dy="1.90476"/>
<feGaussianBlur stdDeviation="6.66667"/>
<feComposite in2="hardAlpha" operator="out"/>
<feColorMatrix type="matrix" values="0 0 0 0 0.695898 0 0 0 0 0.695898 0 0 0 0 0.695898 0 0 0 0.25 0"/>
<feBlend mode="normal" in2="BackgroundImageFix" result="effect1_dropShadow_3238_2805"/>
<feBlend mode="normal" in="SourceGraphic" in2="effect1_dropShadow_3238_2805" result="shape"/>
</filter>
</defs>
</svg>
