<svg width="148" height="148" viewBox="0 0 148 148" fill="none" xmlns="http://www.w3.org/2000/svg">
<g filter="url(#filter0_d_3247_3017)">
<circle cx="74" cy="72" r="60" fill="white"/>
</g>
<path d="M74.4972 43.6562L75.7409 42.4126C76.05 42.1034 76.417 41.8582 76.8209 41.6909C77.2248 41.5235 77.6577 41.4374 78.0949 41.4375H78.491C81.3132 41.4375 82.8542 44.7301 81.047 46.8967L74.4972 54.75L67.9564 46.8956C66.1514 44.7279 67.6935 41.4375 70.5146 41.4375H70.9007C71.7837 41.4375 72.6302 41.7881 73.2536 42.4126L74.4972 43.6562Z" fill="#FA6450"/>
<path d="M69.5013 46.8956C67.8284 44.8865 69.0332 41.9179 71.4638 41.493C71.2779 41.4583 71.0894 41.4398 70.9003 41.4375H70.5142C67.6931 41.4375 66.151 44.7279 67.9571 46.8956L74.498 54.75L75.2701 53.8237L69.5013 46.8956Z" fill="#DC4632"/>
<path d="M81.1562 85.8125H67.8438V79.1562C67.8438 77.3909 68.545 75.6979 69.7933 74.4496C71.0416 73.2013 72.7347 72.5 74.5 72.5C76.2653 72.5 77.9584 73.2013 79.2067 74.4496C80.455 75.6979 81.1562 77.3909 81.1562 79.1562V85.8125Z" fill="#64C8F0"/>
<path d="M76.7188 72.8872C76.0067 72.6324 75.2563 72.5014 74.5 72.5C72.7347 72.5 71.0416 73.2013 69.7933 74.4496C68.545 75.6979 67.8438 77.3909 67.8438 79.1562V85.8125H72.2812V79.1562C72.2819 77.7807 72.709 76.4393 73.5038 75.3165C74.2985 74.1938 75.4217 73.3451 76.7188 72.8872Z" fill="#46AAD2"/>
<path d="M50.0938 96.9062H63.4062V103.562H50.0938V96.9062Z" fill="#3CC8B4"/>
<path d="M50.0938 96.9062H54.5312V103.562H50.0938V96.9062Z" fill="#1EAA96"/>
<path d="M85.5938 96.9062H98.9062V103.562H85.5938V96.9062Z" fill="#3CC8B4"/>
<path d="M85.5938 96.9062H90.0312V103.562H85.5938V96.9062Z" fill="#1EAA96"/>
<path d="M88.8442 83.8633L95.445 77.2625C95.6735 77.034 95.9342 76.8576 96.2083 76.7067C95.7196 75.4667 94.8692 74.4024 93.7676 73.6522C92.6659 72.9019 91.3641 72.5005 90.0312 72.5C88.2659 72.5 86.5729 73.2013 85.3246 74.4496C84.0763 75.6979 83.375 77.3909 83.375 79.1562V85.8125H87.2989C87.7371 85.1158 88.2485 84.4591 88.8442 83.8633Z" fill="#FAB400"/>
<path d="M87.8125 85.0714V79.1562C87.8132 77.7807 88.2403 76.4393 89.035 75.3165C89.8297 74.1938 90.9529 73.3451 92.25 72.8872C91.5379 72.6324 90.7875 72.5014 90.0312 72.5C88.2659 72.5 86.5729 73.2013 85.3246 74.4496C84.0763 75.6979 83.375 77.3909 83.375 79.1562V85.8125H87.2989C87.4586 85.5585 87.6317 85.3133 87.8125 85.0714Z" fill="#DC9600"/>
<path d="M105.556 68.0625H105.224C104.699 68.0624 104.191 68.2487 103.79 68.5881C103.389 68.9276 103.122 69.3982 103.035 69.9163L101.593 78.5694C101.29 80.3938 100.423 82.0777 99.1148 83.3852L96.6875 85.8125L98.4381 82.3113C98.7463 81.6951 98.9066 81.0156 98.9062 80.3266V79.6144C98.9062 78.626 97.7115 78.1312 97.0125 78.8301L90.4118 85.4309C89.5877 86.255 88.9339 87.2334 88.488 88.3102C88.042 89.387 87.8125 90.5411 87.8125 91.7066V96.9062H96.6875V94.7663C96.6875 93.2954 97.2717 91.8848 98.3116 90.8446L102.961 86.1952C103.785 85.3722 104.439 84.3946 104.885 83.3185C105.331 82.2423 105.561 81.0888 105.56 79.9239L105.556 68.0625Z" fill="#F0C8A0"/>
<path d="M58.9661 72.5C57.6334 72.5007 56.3318 72.9021 55.2303 73.6521C54.1287 74.4021 53.2781 75.466 52.7891 76.7056C53.0695 76.8539 53.3272 77.0414 53.5545 77.2625L60.1553 83.8633C60.751 84.4591 61.2625 85.1169 61.7007 85.8125H65.6223V79.1562C65.6223 77.3909 64.921 75.6979 63.6727 74.4496C62.4245 73.2013 60.7314 72.5 58.9661 72.5Z" fill="#FA6450"/>
<path d="M53.5545 77.2614L56.7473 80.4542V79.1562C56.748 77.7807 57.1751 76.4393 57.9698 75.3165C58.7645 74.1938 59.8877 73.3451 61.1848 72.8872C60.4728 72.6324 59.7223 72.5014 58.9661 72.5C57.6334 72.5007 56.3318 72.9021 55.2303 73.6521C54.1287 74.4021 53.2781 75.466 52.7891 76.7056C53.0642 76.8565 53.326 77.0329 53.5545 77.2614Z" fill="#DC4632"/>
<path d="M43.443 68.0625H43.7748C44.3 68.0624 44.8082 68.2487 45.209 68.5881C45.6098 68.9276 45.8771 69.3982 45.9635 69.9163L47.4057 78.5694C47.7094 80.3938 48.5759 82.0777 49.8841 83.3852L52.3103 85.8125L50.5597 82.3113C50.2515 81.6951 50.0912 81.0156 50.0915 80.3266V79.6144C50.0915 78.626 51.2863 78.1312 51.9852 78.8301L58.586 85.4309C59.4101 86.255 60.0638 87.2334 60.5098 88.3102C60.9558 89.387 61.1853 90.5411 61.1853 91.7066V96.9062H52.3103V94.7663C52.3103 93.2954 51.7261 91.8848 50.6862 90.8446L46.0368 86.1952C45.2124 85.3722 44.5586 84.3946 44.1125 83.3185C43.6665 82.2423 43.4371 81.0888 43.4375 79.9239L43.443 68.0625ZM90.0279 72.5C88.2626 72.5 86.5695 71.7987 85.3212 70.5504C84.073 69.3021 83.3717 67.6091 83.3717 65.8438C83.3717 64.0784 84.073 62.3854 85.3212 61.1371C86.5695 59.8888 88.2626 59.1875 90.0279 59.1875C91.7933 59.1875 93.4863 59.8888 94.7346 61.1371C95.9829 62.3854 96.6842 64.0784 96.6842 65.8438C96.6842 67.6091 95.9829 69.3021 94.7346 70.5504C93.4863 71.7987 91.7933 72.5 90.0279 72.5Z" fill="#F0C8A0"/>
<path d="M83.375 65.8438C83.375 64.0784 84.0763 62.3854 85.3246 61.1371C86.5729 59.8888 88.2659 59.1875 90.0312 59.1875C91.7966 59.1875 93.4896 59.8888 94.7379 61.1371C95.9862 62.3854 96.6875 64.0784 96.6875 65.8438H83.375Z" fill="#FAB400"/>
<path d="M87.8125 65.8438C87.8132 64.4682 88.2403 63.1267 89.035 62.004C89.8297 60.8813 90.9529 60.0326 92.25 59.5747C91.5379 59.3199 90.7875 59.1889 90.0312 59.1875C88.2659 59.1875 86.5729 59.8888 85.3246 61.1371C84.0763 62.3854 83.375 64.0784 83.375 65.8438C83.375 67.6091 84.0763 69.3021 85.3246 70.5504C86.5729 71.7987 88.2659 72.5 90.0312 72.5C90.7875 72.4986 91.5379 72.3676 92.25 72.1128C90.9529 71.6549 89.8297 70.8062 89.035 69.6835C88.2403 68.5608 87.8132 67.2193 87.8125 65.8438Z" fill="#D2AA82"/>
<path d="M92.25 59.5747C91.5379 59.3199 90.7875 59.1889 90.0312 59.1875C88.2659 59.1875 86.5729 59.8888 85.3246 61.1371C84.0763 62.3854 83.375 64.0784 83.375 65.8438H87.8125C87.8132 64.4682 88.2403 63.1267 89.035 62.004C89.8297 60.8813 90.9529 60.0326 92.25 59.5747Z" fill="#DC9600"/>
<path d="M74.5 72.5C72.7347 72.5 71.0416 71.7987 69.7933 70.5504C68.545 69.3021 67.8438 67.6091 67.8438 65.8438C67.8438 64.0784 68.545 62.3854 69.7933 61.1371C71.0416 59.8888 72.7347 59.1875 74.5 59.1875C76.2653 59.1875 77.9584 59.8888 79.2067 61.1371C80.455 62.3854 81.1562 64.0784 81.1562 65.8438C81.1562 67.6091 80.455 69.3021 79.2067 70.5504C77.9584 71.7987 76.2653 72.5 74.5 72.5Z" fill="#F0C8A0"/>
<path d="M67.8438 65.8438C67.8438 64.0784 68.545 62.3854 69.7933 61.1371C71.0416 59.8888 72.7347 59.1875 74.5 59.1875C76.2653 59.1875 77.9584 59.8888 79.2067 61.1371C80.455 62.3854 81.1562 64.0784 81.1562 65.8438H67.8438Z" fill="#FAB400"/>
<path d="M72.2812 65.8438C72.2819 64.4682 72.709 63.1267 73.5038 62.004C74.2985 60.8813 75.4217 60.0326 76.7188 59.5747C76.0067 59.3199 75.2563 59.1889 74.5 59.1875C72.7347 59.1875 71.0416 59.8888 69.7933 61.1371C68.545 62.3854 67.8438 64.0784 67.8438 65.8438C67.8438 67.6091 68.545 69.3021 69.7933 70.5504C71.0416 71.7987 72.7347 72.5 74.5 72.5C75.2563 72.4986 76.0067 72.3676 76.7188 72.1128C75.4217 71.6549 74.2985 70.8062 73.5038 69.6835C72.709 68.5608 72.2819 67.2193 72.2812 65.8438Z" fill="#D2AA82"/>
<path d="M76.7188 59.5747C76.0067 59.3199 75.2563 59.1889 74.5 59.1875C72.7347 59.1875 71.0416 59.8888 69.7933 61.1371C68.545 62.3854 67.8438 64.0784 67.8438 65.8438H72.2812C72.2819 64.4682 72.709 63.1267 73.5038 62.004C74.2985 60.8813 75.4217 60.0326 76.7188 59.5747Z" fill="#DC9600"/>
<path d="M58.9688 72.5C57.2034 72.5 55.5104 71.7987 54.2621 70.5504C53.0138 69.3021 52.3125 67.6091 52.3125 65.8438C52.3125 64.0784 53.0138 62.3854 54.2621 61.1371C55.5104 59.8888 57.2034 59.1875 58.9688 59.1875C60.7341 59.1875 62.4271 59.8888 63.6754 61.1371C64.9237 62.3854 65.625 64.0784 65.625 65.8438C65.625 67.6091 64.9237 69.3021 63.6754 70.5504C62.4271 71.7987 60.7341 72.5 58.9688 72.5Z" fill="#F0C8A0"/>
<path d="M52.3125 65.8438C52.3125 64.0784 53.0138 62.3854 54.2621 61.1371C55.5104 59.8888 57.2034 59.1875 58.9688 59.1875C60.7341 59.1875 62.4271 59.8888 63.6754 61.1371C64.9237 62.3854 65.625 64.0784 65.625 65.8438H52.3125Z" fill="#FAB400"/>
<path d="M56.75 65.8438C56.7507 64.4682 57.1778 63.1267 57.9725 62.004C58.7672 60.8813 59.8904 60.0326 61.1875 59.5747C60.4754 59.3199 59.725 59.1889 58.9688 59.1875C57.2034 59.1875 55.5104 59.8888 54.2621 61.1371C53.0138 62.3854 52.3125 64.0784 52.3125 65.8438C52.3125 67.6091 53.0138 69.3021 54.2621 70.5504C55.5104 71.7987 57.2034 72.5 58.9688 72.5C59.725 72.4986 60.4754 72.3676 61.1875 72.1128C59.8904 71.6549 58.7672 70.8062 57.9725 69.6835C57.1778 68.5608 56.7507 67.2193 56.75 65.8438Z" fill="#D2AA82"/>
<path d="M61.1875 59.5747C60.4754 59.3199 59.725 59.1889 58.9688 59.1875C57.2034 59.1875 55.5104 59.8888 54.2621 61.1371C53.0138 62.3854 52.3125 64.0784 52.3125 65.8438H56.75C56.7507 64.4682 57.1778 63.1267 57.9725 62.004C58.7672 60.8813 59.8904 60.0326 61.1875 59.5747Z" fill="#DC9600"/>
<defs>
<filter id="filter0_d_3247_3017" x="0.666667" y="0.571429" width="146.667" height="146.667" filterUnits="userSpaceOnUse" color-interpolation-filters="sRGB">
<feFlood flood-opacity="0" result="BackgroundImageFix"/>
<feColorMatrix in="SourceAlpha" type="matrix" values="0 0 0 0 0 0 0 0 0 0 0 0 0 0 0 0 0 0 127 0" result="hardAlpha"/>
<feOffset dy="1.90476"/>
<feGaussianBlur stdDeviation="6.66667"/>
<feComposite in2="hardAlpha" operator="out"/>
<feColorMatrix type="matrix" values="0 0 0 0 0.695898 0 0 0 0 0.695898 0 0 0 0 0.695898 0 0 0 0.25 0"/>
<feBlend mode="normal" in2="BackgroundImageFix" result="effect1_dropShadow_3247_3017"/>
<feBlend mode="normal" in="SourceGraphic" in2="effect1_dropShadow_3247_3017" result="shape"/>
</filter>
</defs>
</svg>
