<svg width="148" height="148" viewBox="0 0 148 148" fill="none" xmlns="http://www.w3.org/2000/svg">
<g filter="url(#filter0_d_3247_3096)">
<circle cx="74" cy="72" r="60" fill="white"/>
</g>
<path d="M107 76.5624V68.4374L102.563 67.8826C102.26 66.0335 101.775 64.219 101.114 62.4655L104.677 59.7678L100.614 52.7321L96.4919 54.4713C95.3034 53.0239 93.9759 51.6964 92.5284 50.5079L94.2677 46.3857L87.2319 42.3232L84.5342 45.8855C82.7808 45.225 80.9662 44.7398 79.1171 44.437L78.5624 40H70.4374L69.8826 44.437C68.0335 44.7398 66.219 45.225 64.4655 45.8855L61.7678 42.3232L54.7321 46.3857L56.4713 50.5079C55.0239 51.6964 53.6964 53.0239 52.5079 54.4713L48.3857 52.7321L44.3232 59.7678L47.8855 62.4655C47.225 64.219 46.7398 66.0335 46.437 67.8826L42 68.4374V76.5624L46.437 77.1171C46.7442 78.991 47.233 80.8026 47.8855 82.5342L44.3232 85.2319L48.3857 92.2677L52.5079 90.5284C53.6961 91.9757 55.0241 93.3036 56.4713 94.4919L54.7321 98.614L61.7678 102.677L64.4655 99.1142C66.1972 99.7668 68.0088 100.256 69.8826 100.563L70.4374 105H78.5624L79.1171 100.563C80.991 100.256 82.8026 99.7668 84.5342 99.1142L87.2319 102.677L94.2677 98.614L92.5284 94.4919C93.9757 93.3036 95.3036 91.9757 96.4919 90.5284L100.614 92.2677L104.677 85.2319L101.114 82.5342C101.767 80.8026 102.256 78.991 102.563 77.1171L107 76.5624ZM74.4999 92.8123C63.2811 92.8123 54.1875 83.7187 54.1875 72.4999C54.1875 61.2811 63.2811 52.1875 74.4999 52.1875C85.7187 52.1875 94.8123 61.2811 94.8123 72.4999C94.8123 83.7187 85.7187 92.8123 74.4999 92.8123Z" fill="#3D4368"/>
<path d="M102.563 77.1171C102.26 78.9662 101.775 80.7808 101.114 82.5342L104.677 85.2319L100.614 92.2677L96.492 90.5284C95.3035 91.9759 93.976 93.3034 92.5285 94.4919L94.2678 98.614L87.2321 102.677L84.5343 99.1142C82.7809 99.7748 80.9664 100.26 79.1173 100.563L78.5625 105H74.5V92.8123C85.7188 92.8123 94.8124 83.7187 94.8124 72.4999C94.8124 61.2811 85.7188 52.1875 74.5 52.1875V40H78.5625L79.1173 44.437C80.9911 44.7442 82.8027 45.233 84.5343 45.8855L87.2321 42.3232L94.2678 46.3857L92.5285 50.5079C93.9758 51.6961 95.3037 53.0241 96.492 54.4713L100.614 52.7321L104.677 59.7678L101.114 62.4655C101.767 64.1972 102.256 66.0088 102.563 67.8826L107 68.4374V76.5624L102.563 77.1171Z" fill="#2E324F"/>
<path d="M86.6889 72.4998C86.6889 79.2308 81.2312 84.6885 74.5002 84.6885C72.9666 84.6885 71.499 84.4041 70.147 83.8861L50.4769 103.557C48.5536 105.481 45.4357 105.481 43.5123 103.557L43.478 103.523C43.4666 103.51 43.4552 103.499 43.4425 103.488C41.5192 101.564 41.5192 98.4463 43.4425 96.523L63.1138 76.853C62.5958 75.5009 62.3115 74.0333 62.3115 72.4998C62.3115 65.7687 67.7692 60.311 74.5002 60.311C76.3829 60.311 78.1653 60.7389 79.7573 61.5006L70.4364 70.8214V74.1895L71.6234 75.3765L72.8193 76.5737H76.1899L85.5057 67.2579C86.2635 68.8448 86.6889 70.6221 86.6889 72.4998Z" fill="#BDD4FF"/>
<path d="M86.6874 72.4999C86.6874 79.231 81.2297 84.6887 74.4987 84.6887C72.9651 84.6887 71.4975 84.4043 70.1455 83.8863L50.4755 103.558C48.5521 105.481 45.4342 105.481 43.5108 103.558L43.4766 103.523L71.622 75.3767L72.8179 76.5738H76.1884L85.5042 67.2581C86.262 68.845 86.6874 70.6223 86.6874 72.4999Z" fill="#A8C2F6"/>
<defs>
<filter id="filter0_d_3247_3096" x="0.666667" y="0.571429" width="146.667" height="146.667" filterUnits="userSpaceOnUse" color-interpolation-filters="sRGB">
<feFlood flood-opacity="0" result="BackgroundImageFix"/>
<feColorMatrix in="SourceAlpha" type="matrix" values="0 0 0 0 0 0 0 0 0 0 0 0 0 0 0 0 0 0 127 0" result="hardAlpha"/>
<feOffset dy="1.90476"/>
<feGaussianBlur stdDeviation="6.66667"/>
<feComposite in2="hardAlpha" operator="out"/>
<feColorMatrix type="matrix" values="0 0 0 0 0.695898 0 0 0 0 0.695898 0 0 0 0 0.695898 0 0 0 0.25 0"/>
<feBlend mode="normal" in2="BackgroundImageFix" result="effect1_dropShadow_3247_3096"/>
<feBlend mode="normal" in="SourceGraphic" in2="effect1_dropShadow_3247_3096" result="shape"/>
</filter>
</defs>
</svg>
