<svg width="148" height="148" viewBox="0 0 148 148" fill="none" xmlns="http://www.w3.org/2000/svg">
<g filter="url(#filter0_d_2030_2270)">
<circle cx="74" cy="72" r="60" fill="white"/>
</g>
<path fill-rule="evenodd" clip-rule="evenodd" d="M107.781 72.5V77.004L102.266 79.1269C101.566 82.0649 100.402 84.8726 98.8181 87.444L101.218 92.8485L94.8487 99.2184L89.4458 96.8188C86.8738 98.4034 84.0654 99.5675 81.1266 100.267L79.0042 105.781H69.9961L67.8731 100.266C64.9351 99.5662 62.1274 98.4022 59.556 96.818L54.1516 99.2182L47.7818 92.8487L50.1814 87.4458C48.5968 84.8737 47.4327 82.0653 46.7329 79.1265L41.2188 77.0041V72.5L54.2374 54.8439L93.1978 51.807L107.781 72.5Z" fill="#A79BA7"/>
<path fill-rule="evenodd" clip-rule="evenodd" d="M107.783 72.5V77.004L102.268 79.1269C101.568 82.0649 100.404 84.8726 98.8195 87.444L101.22 92.8485L94.8501 99.2184L93.8898 98.7918L99.833 92.8485L97.4327 87.444C99.017 84.8726 100.181 82.065 100.881 79.1269L106.396 77.004V72.5L91.8846 51.9095L93.1992 51.807L107.783 72.5ZM88.8569 97.1725C86.4466 98.5783 83.8423 99.6211 81.128 100.267L79.0056 105.781H77.6189L79.7413 100.267C82.6801 99.5675 85.4885 98.4034 88.0606 96.8188L88.8569 97.1725ZM58.7612 97.1717L54.1531 99.2184L53.7266 98.7918L58.1709 96.818C58.3662 96.9383 58.563 97.0562 58.7612 97.1717Z" fill="#837683"/>
<path fill-rule="evenodd" clip-rule="evenodd" d="M74.5 39.2188C92.8807 39.2188 107.781 54.1193 107.781 72.5H41.2188C41.2188 54.1193 56.1193 39.2188 74.5 39.2188Z" fill="#8AC9FE"/>
<path fill-rule="evenodd" clip-rule="evenodd" d="M64.8226 55.74L57.8556 43.6727C52.7999 46.6001 48.5992 50.8007 45.6719 55.8564L57.7391 62.8236C59.4411 59.8843 61.8833 57.442 64.8226 55.74Z" fill="#6CF5C2"/>
<path fill-rule="evenodd" clip-rule="evenodd" d="M64.8225 55.74C66.561 54.7335 68.4465 54.0057 70.4104 53.5831C71.7541 53.2945 73.1246 53.1495 74.4989 53.1503V39.2188C68.4357 39.2188 62.7513 40.8401 57.8555 43.6728L64.8225 55.74Z" fill="#FFE177"/>
<path fill-rule="evenodd" clip-rule="evenodd" d="M74.5 39.2188V53.1504C74.863 53.1504 75.2237 53.1604 75.5819 53.1802C78.7009 53.3522 81.623 54.2627 84.1762 55.7401L91.1433 43.6729C86.2476 40.8401 80.5632 39.2188 74.5 39.2188Z" fill="#FFC338"/>
<path fill-rule="evenodd" clip-rule="evenodd" d="M91.1428 43.6727L84.1758 55.74C87.1151 57.442 89.5573 59.8843 91.2594 62.8236L103.327 55.8564C100.399 50.8008 96.1985 46.6001 91.1428 43.6727Z" fill="#FE646F"/>
<path fill-rule="evenodd" clip-rule="evenodd" d="M103.325 55.8564L91.2578 62.8236C92.9048 65.67 93.8475 68.9749 93.8475 72.5H107.779C107.779 66.4368 106.158 60.7524 103.325 55.8564Z" fill="#EB3241"/>
<path d="M88.1753 86.182C95.7317 78.6256 95.7317 66.3742 88.1753 58.8178C80.6188 51.2613 68.3675 51.2613 60.811 58.8178C53.2546 66.3742 53.2546 78.6256 60.811 86.182C68.3675 93.7384 80.6188 93.7384 88.1753 86.182Z" fill="#ECEFF1"/>
<path fill-rule="evenodd" clip-rule="evenodd" d="M74.5019 53.1504C74.7342 53.1504 74.9651 53.1559 75.1953 53.1641C64.8304 53.5294 56.5391 62.0459 56.5391 72.5C56.5391 82.9539 64.8303 91.4704 75.1953 91.8357C74.9651 91.8439 74.7341 91.8494 74.5019 91.8494C63.8157 91.8494 55.1523 83.1862 55.1523 72.5C55.1523 61.8136 63.8156 53.1504 74.5019 53.1504Z" fill="#D1D1D6"/>
<path fill-rule="evenodd" clip-rule="evenodd" d="M74.4983 69.4433C74.9359 69.4433 75.3521 69.5355 75.7284 69.7011L81.1025 64.327C81.2055 64.224 81.3278 64.1423 81.4624 64.0865C81.597 64.0308 81.7412 64.0021 81.8869 64.0021C82.0325 64.0021 82.1768 64.0308 82.3114 64.0865C82.4459 64.1423 82.5682 64.224 82.6712 64.327C82.7742 64.43 82.8559 64.5523 82.9117 64.6868C82.9674 64.8214 82.9961 64.9657 82.9961 65.1113C82.9961 65.257 82.9674 65.4012 82.9117 65.5358C82.8559 65.6704 82.7742 65.7927 82.6712 65.8957L77.2971 71.2697C77.4676 71.6574 77.5554 72.0764 77.5549 72.4999C77.5549 74.1881 76.1863 75.5566 74.4982 75.5566C72.81 75.5566 71.4414 74.1881 71.4414 72.4999C71.4415 70.8118 72.8101 69.4433 74.4983 69.4433Z" fill="#A79BA7"/>
<defs>
<filter id="filter0_d_2030_2270" x="0.666667" y="0.571429" width="146.667" height="146.667" filterUnits="userSpaceOnUse" color-interpolation-filters="sRGB">
<feFlood flood-opacity="0" result="BackgroundImageFix"/>
<feColorMatrix in="SourceAlpha" type="matrix" values="0 0 0 0 0 0 0 0 0 0 0 0 0 0 0 0 0 0 127 0" result="hardAlpha"/>
<feOffset dy="1.90476"/>
<feGaussianBlur stdDeviation="6.66667"/>
<feComposite in2="hardAlpha" operator="out"/>
<feColorMatrix type="matrix" values="0 0 0 0 0.695898 0 0 0 0 0.695898 0 0 0 0 0.695898 0 0 0 0.25 0"/>
<feBlend mode="normal" in2="BackgroundImageFix" result="effect1_dropShadow_2030_2270"/>
<feBlend mode="normal" in="SourceGraphic" in2="effect1_dropShadow_2030_2270" result="shape"/>
</filter>
</defs>
</svg>
