<svg width="148" height="148" viewBox="0 0 148 148" fill="none" xmlns="http://www.w3.org/2000/svg">
<g filter="url(#filter0_d_2030_4833)">
<circle cx="74" cy="72" r="60" fill="white"/>
</g>
<path d="M76.816 84.6481L79.0727 89.4004L84.1172 90.1624C84.6016 90.2544 85.0519 90.4763 85.42 90.8043C85.7881 91.1323 86.0602 91.5541 86.2072 92.0247C86.3542 92.4953 86.3706 92.997 86.2547 93.4762C86.1388 93.9554 85.8949 94.3941 85.549 94.7455L81.8985 98.4458L82.7611 103.67C82.8595 104.152 82.8195 104.652 82.6458 105.111C82.472 105.571 82.1716 105.973 81.7793 106.269C81.387 106.565 80.9188 106.744 80.4289 106.785C79.939 106.827 79.4475 106.728 79.0111 106.502L74.4991 104.036L69.987 106.502C69.5507 106.728 69.0591 106.827 68.5693 106.785C68.0794 106.744 67.6112 106.565 67.2189 106.269C66.8266 105.973 66.5261 105.571 66.3524 105.111C66.1786 104.652 66.1386 104.152 66.237 103.67L67.0997 98.4458L63.4491 94.7467C63.1033 94.3953 62.8594 93.9566 62.7434 93.4774C62.6275 92.9982 62.644 92.4965 62.791 92.0259C62.938 91.5553 63.2101 91.1335 63.5782 90.8055C63.9463 90.4775 64.3966 90.2556 64.8809 90.1636L69.9255 89.4016L72.1821 84.6493C72.3828 84.2028 72.7082 83.8239 73.1192 83.558C73.5302 83.292 74.0092 83.1505 74.4987 83.1504C74.9882 83.1503 75.4673 83.2916 75.8784 83.5573C76.2895 83.823 76.6151 84.2018 76.816 84.6481ZM50.7957 90.1897L52.4879 93.755L56.2746 94.3266C56.6377 94.3947 56.9755 94.5603 57.2517 94.8058C57.5279 95.0512 57.7322 95.3671 57.8426 95.7197C57.953 96.0723 57.9654 96.4483 57.8784 96.8074C57.7915 97.1665 57.6085 97.4952 57.349 97.7583L54.6072 100.538L55.2533 104.456C55.3275 104.817 55.2979 105.192 55.1679 105.538C55.0379 105.883 54.8129 106.184 54.5188 106.407C54.2248 106.63 53.8737 106.765 53.5061 106.796C53.1386 106.828 52.7696 106.755 52.4417 106.586L49.0574 104.73L45.6731 106.58C45.3453 106.749 44.9762 106.822 44.6087 106.791C44.2411 106.759 43.8901 106.624 43.596 106.401C43.3019 106.178 43.0769 105.877 42.9469 105.532C42.817 105.186 42.7873 104.811 42.8615 104.45L43.5076 100.532L40.7741 97.763C40.5146 97.4999 40.3316 97.1712 40.2447 96.8121C40.1577 96.453 40.1701 96.077 40.2805 95.7244C40.3909 95.3718 40.5952 95.0559 40.8714 94.8105C41.1476 94.5651 41.4854 94.3995 41.8485 94.3313L45.6352 93.7598L47.3274 90.1944C47.4791 89.8621 47.723 89.5804 48.0301 89.3826C48.3373 89.1849 48.6948 89.0795 49.06 89.0791C49.4253 89.0786 49.7831 89.1829 50.0907 89.3798C50.3984 89.5767 50.6431 89.8578 50.7957 90.1897ZM101.679 90.1897L103.371 93.755L107.158 94.3266C107.521 94.3947 107.859 94.5603 108.135 94.8058C108.411 95.0512 108.616 95.3671 108.726 95.7197C108.836 96.0723 108.849 96.4483 108.762 96.8074C108.675 97.1665 108.492 97.4952 108.232 97.7583L105.491 100.538L106.137 104.456C106.211 104.817 106.181 105.192 106.051 105.538C105.921 105.883 105.696 106.184 105.402 106.407C105.108 106.63 104.757 106.765 104.389 106.796C104.022 106.828 103.653 106.755 103.325 106.586L99.9408 104.73L96.5564 106.58C96.2286 106.749 95.8596 106.822 95.492 106.791C95.1245 106.759 94.7734 106.624 94.4793 106.401C94.1853 106.178 93.9603 105.877 93.8303 105.532C93.7003 105.186 93.6707 104.811 93.7448 104.45L94.3909 100.532L91.6574 97.763C91.398 97.4999 91.215 97.1712 91.128 96.8121C91.0411 96.453 91.0535 96.077 91.1639 95.7244C91.2743 95.3718 91.4785 95.0559 91.7547 94.8105C92.031 94.5651 92.3687 94.3995 92.7319 94.3313L96.5186 93.7598L98.2107 90.1944C98.3624 89.8621 98.6063 89.5804 98.9135 89.3826C99.2206 89.1849 99.5781 89.0795 99.9434 89.0791C100.309 89.0786 100.666 89.1829 100.974 89.3798C101.282 89.5767 101.526 89.8578 101.679 90.1897Z" fill="#F5BF32"/>
<path d="M108.813 72.5C108.811 73.7562 108.31 74.9602 107.421 75.8476C106.531 76.735 105.326 77.2333 104.07 77.2333H44.8065C43.5826 77.2296 42.4097 76.7426 41.5431 75.8782C40.6766 75.0139 40.1865 73.8423 40.1797 72.6183V72.5C40.1797 63.3987 43.7952 54.6701 50.2308 48.2345C56.6664 41.7988 65.395 38.1833 74.4964 38.1833C83.5977 38.1833 92.3263 41.7988 98.7619 48.2345C105.198 54.6701 108.813 63.3987 108.813 72.5Z" fill="#E8EDEF"/>
<path d="M103.972 69.9558C103.996 70.2812 103.953 70.6082 103.845 70.9161C103.737 71.2241 103.567 71.5064 103.345 71.7453C103.123 71.9842 102.853 72.1746 102.554 72.3045C102.255 72.4344 101.932 72.5009 101.605 72.5H96.8482C96.2572 72.4949 95.6891 72.2706 95.254 71.8705C94.819 71.4704 94.5479 70.923 94.4934 70.3345C94.0082 65.7718 91.9694 61.5146 88.7188 58.2763L91.0617 53.5667L95.4164 51.5787C100.344 56.5051 103.374 63.0135 103.972 69.9558Z" fill="#2CB580"/>
<path d="M95.4172 51.5787L88.7195 58.2764C85.3492 54.8992 80.8848 52.8348 76.1288 52.4544H74.4958L73.3125 47.65L74.4958 42.9167C78.3816 42.9122 82.23 43.675 85.8203 45.1615C89.4105 46.6479 92.6718 48.8287 95.4172 51.5787Z" fill="#F5BF32"/>
<path d="M74.4995 42.9167V52.4544H72.8665C68.1104 52.8348 63.6461 54.8992 60.2758 58.2764L55.5661 55.9334L53.5781 51.5787C56.3235 48.8287 59.5848 46.6479 63.175 45.1615C66.7653 43.675 70.6137 42.9122 74.4995 42.9167Z" fill="#E8A328"/>
<path d="M60.2755 58.2763C57.0248 61.5146 54.986 65.7718 54.5008 70.3345C54.4463 70.923 54.1752 71.4704 53.7402 71.8705C53.3051 72.2706 52.737 72.4949 52.146 72.5H47.389C47.0626 72.5009 46.7397 72.4344 46.4403 72.3045C46.141 72.1746 45.8717 71.9842 45.6495 71.7453C45.4272 71.5064 45.2568 71.2241 45.1488 70.9161C45.0409 70.6082 44.9978 70.2812 45.0223 69.9558C45.6199 63.0135 48.6499 56.5051 53.5778 51.5787L60.2755 58.2763Z" fill="#DD5252"/>
<path d="M71.2812 69.0329L73.2101 48.8334C73.2378 48.5104 73.3857 48.2095 73.6245 47.9903C73.8633 47.7711 74.1757 47.6494 74.4999 47.6494C74.8241 47.6494 75.1365 47.7711 75.3753 47.9903C75.6142 48.2095 75.7621 48.5104 75.7897 48.8334L77.7186 69.0329H71.2812Z" fill="#2D3B66"/>
<path d="M74.499 77.2333C77.1131 77.2333 79.2323 75.1141 79.2323 72.5C79.2323 69.8858 77.1131 67.7667 74.499 67.7667C71.8848 67.7667 69.7656 69.8858 69.7656 72.5C69.7656 75.1141 71.8848 77.2333 74.499 77.2333Z" fill="#A0B4BA"/>
<defs>
<filter id="filter0_d_2030_4833" x="0.666667" y="0.571429" width="146.667" height="146.667" filterUnits="userSpaceOnUse" color-interpolation-filters="sRGB">
<feFlood flood-opacity="0" result="BackgroundImageFix"/>
<feColorMatrix in="SourceAlpha" type="matrix" values="0 0 0 0 0 0 0 0 0 0 0 0 0 0 0 0 0 0 127 0" result="hardAlpha"/>
<feOffset dy="1.90476"/>
<feGaussianBlur stdDeviation="6.66667"/>
<feComposite in2="hardAlpha" operator="out"/>
<feColorMatrix type="matrix" values="0 0 0 0 0.695898 0 0 0 0 0.695898 0 0 0 0 0.695898 0 0 0 0.25 0"/>
<feBlend mode="normal" in2="BackgroundImageFix" result="effect1_dropShadow_2030_4833"/>
<feBlend mode="normal" in="SourceGraphic" in2="effect1_dropShadow_2030_4833" result="shape"/>
</filter>
</defs>
</svg>
