<svg width="148" height="148" viewBox="0 0 148 148" fill="none" xmlns="http://www.w3.org/2000/svg">
<g filter="url(#filter0_d_3222_2781)">
<circle cx="74" cy="72" r="60" fill="white"/>
</g>
<path d="M39.6985 52.4241L39 53.6822V90.0549C39 92.4552 40.9457 94.4009 43.346 94.4009H105.654C108.054 94.4009 110 92.4552 110 90.0549V53.6822L109.302 52.4241H39.6985Z" fill="#D8EAFB"/>
<path d="M102.884 52.4241V82.9387C102.884 85.339 100.938 87.2847 98.5377 87.2847H39V90.0549C39 92.4552 40.9457 94.4009 43.346 94.4009H105.654C108.054 94.4009 110 92.4552 110 90.0549V53.6822L109.302 52.4241H102.884Z" fill="#B3D8FB"/>
<path d="M105.654 41.6887H43.346C40.9457 41.6887 39 43.6344 39 46.0347V53.6825H110V46.0347C110 43.6344 108.054 41.6887 105.654 41.6887Z" fill="#1690FB"/>
<path d="M105.653 41.6887H102.883V53.6825H109.999V46.0347C109.999 43.6344 108.053 41.6887 105.653 41.6887Z" fill="#0571F9"/>
<path d="M46.5943 49.6353C47.6711 49.6353 48.544 48.7624 48.544 47.6856C48.544 46.6088 47.6711 45.7358 46.5943 45.7358C45.5175 45.7358 44.6445 46.6088 44.6445 47.6856C44.6445 48.7624 45.5175 49.6353 46.5943 49.6353Z" fill="#B3D8FB"/>
<path d="M52.5904 49.6353C53.6672 49.6353 54.5401 48.7624 54.5401 47.6856C54.5401 46.6088 53.6672 45.7358 52.5904 45.7358C51.5135 45.7358 50.6406 46.6088 50.6406 47.6856C50.6406 48.7624 51.5135 49.6353 52.5904 49.6353Z" fill="#B3D8FB"/>
<path d="M58.5904 49.6353C59.6672 49.6353 60.5401 48.7624 60.5401 47.6856C60.5401 46.6088 59.6672 45.7358 58.5904 45.7358C57.5135 45.7358 56.6406 46.6088 56.6406 47.6856C56.6406 48.7624 57.5135 49.6353 58.5904 49.6353Z" fill="#B3D8FB"/>
<path d="M74.4993 101.216C85.8379 101.216 95.0298 92.0242 95.0298 80.6855C95.0298 69.3469 85.8379 60.155 74.4993 60.155C63.1606 60.155 53.9688 69.3469 53.9688 80.6855C53.9688 92.0242 63.1606 101.216 74.4993 101.216Z" fill="#FCEED9"/>
<path d="M86.2341 63.8391C88.5556 67.1654 89.9184 71.2106 89.9184 75.5746C89.9184 86.9133 80.7265 96.1051 69.3879 96.1051C65.0239 96.1051 60.9787 94.7424 57.6523 92.4209C61.3626 97.7372 67.524 101.216 74.4986 101.216C85.8373 101.216 95.0291 92.024 95.0291 80.6854C95.0291 73.7107 91.5504 67.5496 86.2341 63.8391Z" fill="#FAD59A"/>
<path d="M85.6576 86.0049C83.6694 90.168 79.4202 93.0441 74.4992 93.0441C67.6738 93.0441 62.1406 87.5109 62.1406 80.6855C62.1406 73.8601 67.6738 68.3269 74.4992 68.3269C81.3246 68.3269 86.4271 84.3938 85.6576 86.0049Z" fill="#F9C301"/>
<path d="M74.5011 103.311C62.0251 103.311 51.875 93.1615 51.875 80.6854C51.875 68.2094 62.0249 58.0593 74.5011 58.0593C86.977 58.0593 97.1271 68.2093 97.1271 80.6854C97.1271 93.1615 86.9771 103.311 74.5011 103.311ZM74.5011 62.2504C64.3359 62.2504 56.0661 70.5204 56.0661 80.6854C56.0661 90.8505 64.3361 99.1205 74.5011 99.1205C84.6662 99.1205 92.936 90.8505 92.936 80.6854C92.9362 70.5204 84.6662 62.2504 74.5011 62.2504Z" fill="#7C8B96"/>
<path d="M89.2345 63.5288C92.6416 67.4904 94.7039 72.6401 94.7039 78.263C94.7039 90.739 84.5539 100.889 72.0779 100.889C66.4552 100.889 61.3055 98.8266 57.3438 95.4196C61.4964 100.248 67.6472 103.312 74.5007 103.312C86.9765 103.312 97.1266 93.1616 97.1266 80.6856C97.1265 73.8323 94.0631 67.6815 89.2345 63.5288Z" fill="#465961"/>
<path d="M85.6592 86C86.0705 85.1119 84.7564 79.983 82.3788 75.4773C82.3937 75.7266 82.4026 75.9776 82.4026 76.2307C82.4026 83.0561 76.8695 88.5893 70.044 88.5893C67.7745 88.5893 65.6483 87.9769 63.8203 86.9093C65.9635 90.5785 69.943 93.0442 74.4989 93.0442C79.4217 93.0441 83.672 90.1656 85.6592 86Z" fill="#D4A806"/>
<path d="M74.5 68.3269V80.6855L85.6584 86.0049C86.4279 84.3938 86.8586 82.59 86.8586 80.6855C86.8586 73.8601 81.3254 68.3269 74.5 68.3269Z" fill="#DD636E"/>
<path d="M80.7233 70.0068C81.7909 71.8347 82.4033 73.9609 82.4033 76.2304C82.4033 78.8906 81.5627 81.3544 80.1328 83.3708L85.6581 86.0049C86.4275 84.3938 86.8583 82.5899 86.8583 80.6854C86.8581 76.1295 84.3925 72.15 80.7233 70.0068Z" fill="#D82E3D"/>
<path d="M75.2203 82.3488C74.5167 83.0524 73.3759 83.0524 72.6722 82.3488C71.9686 81.6451 71.9686 80.5043 72.6722 79.8007C73.1437 79.3292 79.3241 74.293 83.3507 71.0212C83.7814 70.6713 84.3497 71.2396 83.9997 71.6702C80.728 75.6969 75.6918 81.8773 75.2203 82.3488Z" fill="#7C8B96"/>
<path d="M83.3506 71.0212C81.7613 72.3122 80.1735 73.6051 78.5872 74.8997C75.9578 78.1266 73.2239 81.4646 72.5547 82.2188C72.5914 82.2635 72.6303 82.3069 72.672 82.3486C73.3756 83.0522 74.5165 83.0522 75.2201 82.3486C75.6916 81.8771 80.7277 75.6968 83.9996 71.6702C84.3496 71.2396 83.7813 70.6713 83.3506 71.0212Z" fill="#465961"/>
<path d="M53.8432 62.0371H45.8955C45.7579 62.0371 45.6216 62.01 45.4945 61.9574C45.3673 61.9047 45.2518 61.8275 45.1545 61.7302C45.0572 61.6329 44.98 61.5174 44.9274 61.3903C44.8747 61.2631 44.8476 61.1269 44.8477 60.9893C44.8476 60.8517 44.8747 60.7154 44.9274 60.5883C44.98 60.4611 45.0572 60.3456 45.1545 60.2483C45.2518 60.151 45.3673 60.0739 45.4945 60.0212C45.6216 59.9685 45.7579 59.9415 45.8955 59.9415H53.8432C54.1211 59.9415 54.3876 60.0519 54.5841 60.2484C54.7806 60.4449 54.891 60.7114 54.891 60.9893C54.891 61.2672 54.7806 61.5337 54.5841 61.7302C54.3876 61.9267 54.1211 62.0371 53.8432 62.0371ZM50.472 66.4377H45.8955C45.3168 66.4377 44.8477 65.9687 44.8477 65.3899C44.8477 64.8111 45.3166 64.3421 45.8955 64.3421H50.472C51.0507 64.3421 51.5199 64.8111 51.5199 65.3899C51.5199 65.9687 51.0507 66.4377 50.472 66.4377ZM102.208 64.8869C100.466 64.8869 99.048 63.4692 99.048 61.7266C99.048 59.984 100.466 58.5664 102.208 58.5664C103.951 58.5664 105.368 59.984 105.368 61.7266C105.368 63.4692 103.951 64.8869 102.208 64.8869ZM102.208 60.662C101.621 60.662 101.143 61.1396 101.143 61.7267C101.143 62.3139 101.621 62.7916 102.208 62.7916C102.795 62.7916 103.273 62.314 103.273 61.7267C103.273 61.1396 102.795 60.662 102.208 60.662ZM102.208 73.1403C100.466 73.1403 99.048 71.7225 99.048 69.9799C99.048 68.2374 100.466 66.8197 102.208 66.8197C103.951 66.8197 105.368 68.2374 105.368 69.9799C105.368 71.7225 103.951 73.1403 102.208 73.1403ZM102.208 68.9153C101.621 68.9153 101.143 69.3929 101.143 69.9801C101.143 70.5672 101.621 71.0449 102.208 71.0449C102.795 71.0449 103.273 70.5673 103.273 69.9801C103.273 69.3929 102.795 68.9153 102.208 68.9153Z" fill="#1690FB"/>
<defs>
<filter id="filter0_d_3222_2781" x="0.666667" y="0.571429" width="146.667" height="146.667" filterUnits="userSpaceOnUse" color-interpolation-filters="sRGB">
<feFlood flood-opacity="0" result="BackgroundImageFix"/>
<feColorMatrix in="SourceAlpha" type="matrix" values="0 0 0 0 0 0 0 0 0 0 0 0 0 0 0 0 0 0 127 0" result="hardAlpha"/>
<feOffset dy="1.90476"/>
<feGaussianBlur stdDeviation="6.66667"/>
<feComposite in2="hardAlpha" operator="out"/>
<feColorMatrix type="matrix" values="0 0 0 0 0.695898 0 0 0 0 0.695898 0 0 0 0 0.695898 0 0 0 0.25 0"/>
<feBlend mode="normal" in2="BackgroundImageFix" result="effect1_dropShadow_3222_2781"/>
<feBlend mode="normal" in="SourceGraphic" in2="effect1_dropShadow_3222_2781" result="shape"/>
</filter>
</defs>
</svg>
