<svg width="148" height="148" viewBox="0 0 148 148" fill="none" xmlns="http://www.w3.org/2000/svg">
<g filter="url(#filter0_d_1273_342)">
<circle cx="74" cy="72" r="60" fill="white"/>
</g>
<path d="M107.913 44.6952V100.305C107.913 103.395 105.397 105.912 102.306 105.912H46.6968C43.5957 105.912 41.0898 103.395 41.0898 100.305V44.6952C41.0898 41.5941 43.5957 39.0883 46.6968 39.0883H102.306C105.397 39.0883 107.913 41.5941 107.913 44.6952Z" fill="#E5F4F7"/>
<path d="M107.909 53.4992H100.12L100.642 54.7103C101.248 56.1408 100.204 57.7278 98.6481 57.7278H77.6823C76.8156 57.7278 76.0326 57.2162 75.6984 56.4122L74.4455 53.4992H41.0859V44.6972C41.0859 41.5962 43.5918 39.0903 46.6928 39.0903H102.303C105.393 39.0903 107.909 41.5962 107.909 44.6972V53.4992Z" fill="#47D681"/>
<path d="M52.1597 46.4389C52.1597 48.0677 50.8337 49.3937 49.2049 49.3937C47.576 49.3937 46.25 48.0677 46.25 46.4389C46.25 44.7996 47.576 43.484 49.2049 43.484C50.8337 43.484 52.1597 44.7996 52.1597 46.4389ZM61.301 46.4389C61.301 48.0677 59.9749 49.3937 58.3461 49.3937C56.7173 49.3937 55.3912 48.0677 55.3912 46.4389C55.3912 44.7996 56.7173 43.484 58.3461 43.484C59.9749 43.484 61.301 44.7996 61.301 46.4389ZM70.4422 46.4389C70.4422 48.0677 69.1162 49.3937 67.4874 49.3937C65.8585 49.3937 64.5325 48.0677 64.5325 46.4389C64.5325 44.7996 65.8585 43.484 67.4874 43.484C69.1162 43.484 70.4422 44.7996 70.4422 46.4389Z" fill="white"/>
<path d="M79.2141 91.3672C79.2141 93.9723 77.1206 96.0657 74.5155 96.0657C73.8962 96.0699 73.2822 95.9513 72.709 95.717C72.1357 95.4826 71.6145 95.1371 71.1755 94.7003C70.7364 94.2635 70.3882 93.744 70.1509 93.172C69.9137 92.5999 69.792 91.9865 69.793 91.3672C69.7915 90.7466 69.9126 90.1318 70.1494 89.5582C70.3862 88.9845 70.734 88.4633 71.1728 88.0245C71.6116 87.5857 72.1328 87.2379 72.7065 87.0011C73.2801 86.7643 73.8949 86.6432 74.5155 86.6447C77.1206 86.6447 79.2141 88.7621 79.2141 91.3672Z" fill="#2C3033"/>
<path d="M54.7003 75.93C54.8068 75.8068 54.93 75.6825 55.0542 75.5593C54.9267 75.6805 54.8081 75.8107 54.6992 75.9488L54.7003 75.93Z" fill="#00D67F"/>
<path d="M92.138 73.7863L85.8305 80.2536C82.6681 77.5717 78.6546 76.1024 74.5081 76.1085C70.0808 76.0997 65.8165 77.7784 62.5832 80.8028C62.7774 80.5909 62.9727 80.4311 63.1679 80.2536L56.8594 73.7863C61.7155 69.4523 67.9992 67.0612 74.5081 67.0706C81.0113 67.0613 87.2892 69.4527 92.138 73.7863Z" fill="#FEBB50"/>
<path d="M101.034 91.8778C101.105 92.7987 100.326 93.5609 99.4045 93.5609H93.6285C92.7953 93.5609 92.0685 92.9585 91.9975 92.1441C91.7908 89.8148 91.1224 87.5499 90.0315 85.4815C89.5069 84.4824 88.8836 83.5384 88.1709 82.6635C87.8216 82.2244 87.4486 81.8048 87.0536 81.4063C86.9837 81.3176 86.8949 81.2466 86.8239 81.1756C86.5064 80.8548 86.1755 80.5475 85.832 80.2547L92.1385 73.7864C93.2507 74.7777 94.2821 75.8563 95.2228 77.0117C98.6379 81.2543 100.667 86.4439 101.034 91.8778Z" fill="#FB545C"/>
<path d="M63.1687 80.2547C62.9735 80.4312 62.7782 80.5909 62.584 80.8039C62.1758 81.1579 61.7863 81.5662 61.4323 81.9734C61.1128 82.2929 60.8476 82.6291 60.5814 82.983C58.5417 85.6344 57.3001 88.8123 57.0022 92.1441C56.9312 92.9585 56.2055 93.562 55.3723 93.562H49.5952C48.6743 93.562 47.8954 92.7998 47.9653 91.8779C48.3659 85.9647 50.7367 80.3564 54.6988 75.9488C54.8053 75.8068 54.9285 75.6836 55.0538 75.5593C55.3357 75.2398 55.6208 74.9391 55.9392 74.6551C56.2399 74.3544 56.5417 74.0704 56.8602 73.7875L63.1687 80.2547Z" fill="#43A2FF"/>
<path d="M72.6308 93.23C72.3662 92.9655 72.1595 92.6489 72.0238 92.3003C71.888 91.9516 71.8262 91.5786 71.8423 91.2048C71.8584 90.8311 71.9521 90.4647 72.1173 90.129C72.2825 89.7934 72.5157 89.4957 72.8021 89.255L91.3414 73.6799C91.8906 73.2174 92.6299 73.9576 92.1694 74.5068L76.6058 93.0556C76.3654 93.3425 76.0679 93.5762 75.7322 93.7419C75.3966 93.9076 75.0301 94.0016 74.6562 94.018C74.2822 94.0344 73.9089 93.9728 73.5601 93.8371C73.2112 93.7015 72.8955 93.4947 72.6308 93.23Z" fill="#2C3033"/>
<path d="M75.8765 91.3578C75.8765 92.1158 75.2678 92.7256 74.5087 92.7256C74.3286 92.7267 74.15 92.6921 73.9833 92.6238C73.8166 92.5555 73.6651 92.4549 73.5376 92.3277C73.41 92.2005 73.3089 92.0493 73.2401 91.8829C73.1713 91.7164 73.1362 91.5379 73.1367 91.3578C73.1367 90.9945 73.281 90.646 73.538 90.3891C73.7949 90.1322 74.1433 89.9879 74.5066 89.9879C74.8699 89.9879 75.2184 90.1322 75.4753 90.3891C75.7322 90.646 75.8765 90.9945 75.8765 91.3578Z" fill="white"/>
<defs>
<filter id="filter0_d_1273_342" x="0.666667" y="0.571429" width="146.667" height="146.667" filterUnits="userSpaceOnUse" color-interpolation-filters="sRGB">
<feFlood flood-opacity="0" result="BackgroundImageFix"/>
<feColorMatrix in="SourceAlpha" type="matrix" values="0 0 0 0 0 0 0 0 0 0 0 0 0 0 0 0 0 0 127 0" result="hardAlpha"/>
<feOffset dy="1.90476"/>
<feGaussianBlur stdDeviation="6.66667"/>
<feComposite in2="hardAlpha" operator="out"/>
<feColorMatrix type="matrix" values="0 0 0 0 0.695898 0 0 0 0 0.695898 0 0 0 0 0.695898 0 0 0 0.25 0"/>
<feBlend mode="normal" in2="BackgroundImageFix" result="effect1_dropShadow_1273_342"/>
<feBlend mode="normal" in="SourceGraphic" in2="effect1_dropShadow_1273_342" result="shape"/>
</filter>
</defs>
</svg>
