<svg width="148" height="148" viewBox="0 0 148 148" fill="none" xmlns="http://www.w3.org/2000/svg">
<g filter="url(#filter0_d_2030_1579)">
<circle cx="74" cy="72" r="60" fill="white"/>
</g>
<path d="M98.2952 102.262C98.2952 102.808 97.8521 103.251 97.3033 103.251C97.0407 103.251 96.7888 103.147 96.6031 102.961C96.4174 102.775 96.313 102.523 96.313 102.261C96.313 101.998 96.4174 101.746 96.6031 101.56C96.7888 101.375 97.0407 101.27 97.3033 101.27C97.8521 101.27 98.2952 101.714 98.2952 102.262ZM100.976 102.262C100.976 102.808 100.533 103.251 99.9848 103.251C99.7221 103.251 99.4703 103.147 99.2845 102.961C99.0988 102.775 98.9945 102.523 98.9945 102.261C98.9945 101.998 99.0988 101.746 99.2845 101.56C99.4703 101.375 99.7221 101.27 99.9848 101.27C100.534 101.27 100.976 101.714 100.976 102.262ZM92.959 102.262C92.959 102.808 92.5159 103.251 91.9671 103.251C91.7045 103.251 91.4526 103.147 91.2669 102.961C91.0812 102.775 90.9768 102.523 90.9768 102.261C90.9768 101.998 91.0812 101.746 91.2669 101.56C91.4526 101.375 91.7045 101.27 91.9671 101.27C92.5159 101.27 92.959 101.714 92.959 102.262ZM95.6404 102.262C95.6404 102.808 95.1973 103.251 94.6486 103.251C94.3859 103.251 94.134 103.147 93.9483 102.961C93.7626 102.775 93.6583 102.523 93.6583 102.261C93.6583 101.998 93.7626 101.746 93.9483 101.56C94.134 101.375 94.3859 101.27 94.6486 101.27C95.1973 101.27 95.6404 101.714 95.6404 102.262ZM87.6228 102.262C87.6228 102.808 87.1797 103.251 86.6309 103.251C86.3683 103.251 86.1164 103.147 85.9307 102.961C85.745 102.775 85.6406 102.523 85.6406 102.261C85.6406 101.998 85.745 101.746 85.9307 101.56C86.1164 101.375 86.3683 101.27 86.6309 101.27C87.1797 101.27 87.6228 101.714 87.6228 102.262ZM90.3042 102.262C90.3042 102.808 89.8611 103.251 89.3123 103.251C89.0497 103.251 88.7978 103.147 88.6121 102.961C88.4264 102.775 88.3221 102.523 88.3221 102.261C88.3221 101.998 88.4264 101.746 88.6121 101.56C88.7978 101.375 89.0497 101.27 89.3123 101.27C89.8606 101.27 90.3042 101.714 90.3042 102.262Z" fill="#FFD67E"/>
<path d="M48.7669 104.271C49.7988 104.271 50.6353 103.435 50.6353 102.403C50.6353 101.371 49.7988 100.534 48.7669 100.534C47.735 100.534 46.8984 101.371 46.8984 102.403C46.8984 103.435 47.735 104.271 48.7669 104.271Z" fill="#E4686A"/>
<path d="M103.324 61.9386V99.0294H45.6875V61.9386C45.6875 59.5748 47.596 57.6669 49.9448 57.6669H99.0523C99.6135 57.666 100.169 57.7759 100.688 57.9903C101.207 58.2047 101.678 58.5193 102.075 58.9162C102.472 59.313 102.786 59.7842 103.001 60.3029C103.215 60.8215 103.325 61.3774 103.324 61.9386Z" fill="#474646"/>
<path d="M50.5195 92.7788V63.9202C50.5197 63.5434 50.6695 63.1821 50.9359 62.9157C51.2024 62.6493 51.5638 62.4997 51.9406 62.4997H97.0683C97.4451 62.4997 97.8065 62.6493 98.073 62.9157C98.3395 63.1821 98.4892 63.5434 98.4894 63.9202V92.7788C98.4894 93.1557 98.3397 93.5171 98.0732 93.7836C97.8066 94.0501 97.4452 94.1999 97.0683 94.1999H51.9406C51.5637 94.1999 51.2023 94.0501 50.9358 93.7836C50.6693 93.5171 50.5195 93.1557 50.5195 92.7788Z" fill="white"/>
<path d="M108.513 100.923L107.51 103.114C106.601 105.118 104.614 106.418 102.405 106.418H46.5746C44.3842 106.418 42.3792 105.118 41.47 103.114L40.4856 100.923C39.9475 99.7352 40.8198 98.3616 42.1379 98.3616H106.86C108.178 98.3616 109.051 99.7352 108.513 100.923Z" fill="#606076"/>
<path d="M84.3762 98.3616L82.9199 99.7261C82.5489 100.074 82.0596 100.267 81.5511 100.267H67.4461C66.9377 100.267 66.4483 100.074 66.0774 99.7261L64.6211 98.3616H84.3762Z" fill="white"/>
<path d="M81.8562 84.4702C81.8562 84.9522 81.4649 85.343 80.9829 85.343H67.8949C67.6627 85.3431 67.44 85.2514 67.2752 85.0879C67.1105 84.9244 67.0172 84.7023 67.0156 84.4702C67.0156 83.9822 67.4128 83.5909 67.8949 83.5909H80.9829C81.4649 83.5909 81.8562 83.9822 81.8562 84.4702ZM81.8562 87.2205C81.8562 87.7025 81.4649 88.0933 80.9829 88.0933H67.8949C67.6627 88.0934 67.44 88.0017 67.2752 87.8382C67.1105 87.6747 67.0172 87.4526 67.0156 87.2205C67.0156 86.7326 67.4128 86.3413 67.8949 86.3413H80.9829C81.4649 86.3413 81.8562 86.7326 81.8562 87.2205ZM77.2658 89.3083C77.2658 90.0856 76.9508 90.786 76.4394 91.2974C76.1792 91.5578 75.8701 91.7643 75.5298 91.9049C75.1896 92.0456 74.8249 92.1176 74.4567 92.1168H74.4151C74.0461 92.1174 73.6806 92.0452 73.3395 91.9043C72.9985 91.7634 72.6886 91.5566 72.4276 91.2957C72.1666 91.0348 71.9597 90.7249 71.8188 90.3839C71.6778 90.0428 71.6055 89.6773 71.6061 89.3083H77.2658Z" fill="#2C2C39"/>
<path d="M79.9855 82.3065V88.0057C79.9858 88.186 79.9505 88.3645 79.8816 88.5311C79.8128 88.6977 79.7118 88.849 79.5843 88.9765C79.4568 89.1039 79.3055 89.205 79.1389 89.2738C78.9723 89.3427 78.7938 89.378 78.6136 89.3777H70.2548C70.0745 89.378 69.896 89.3427 69.7294 89.2738C69.5628 89.205 69.4115 89.1039 69.284 88.9765C69.1566 88.849 69.0555 88.6977 68.9867 88.5311C68.9178 88.3645 68.8825 88.186 68.8828 88.0057V82.3065H79.9855Z" fill="#606076"/>
<path d="M90.1588 61.9941C90.1588 65.6018 88.938 68.9286 86.8848 71.5765C85.2732 73.6547 84.0662 76.0174 83.1571 78.4853L82.5074 80.2502C82.265 80.9083 81.8267 81.4762 81.2514 81.8773C80.6762 82.2784 79.9918 82.4934 79.2905 82.4934H69.7082C69.0069 82.4934 68.3225 82.2784 67.7472 81.8773C67.172 81.4762 66.7336 80.9083 66.4913 80.2502L65.8678 78.5579C64.9474 76.058 63.7276 73.6643 62.0989 71.5567C59.8835 68.69 58.6418 65.0316 58.8654 61.0829C59.3101 53.243 65.6804 46.8439 73.5181 46.3672C82.6093 45.8141 90.1588 53.0284 90.1588 61.9941ZM59.5498 52.6243C59.5889 52.7557 59.6001 52.8938 59.5828 53.0299C59.5655 53.1659 59.5201 53.2968 59.4495 53.4143C59.3538 53.5739 59.2184 53.7059 59.0566 53.7977C58.8948 53.8895 58.712 53.9378 58.5259 53.938C58.3359 53.938 58.1576 53.8932 57.991 53.7934L54.2494 51.6772C54.1269 51.6085 54.0194 51.516 53.9333 51.405C53.8472 51.2941 53.7842 51.167 53.7481 51.0313C53.7137 50.8987 53.7059 50.7607 53.7251 50.6251C53.7442 50.4895 53.79 50.3591 53.8597 50.2412C54.149 49.74 54.8062 49.5729 55.3186 49.8622L59.0598 51.9783C59.3053 52.1118 59.4831 52.3456 59.5498 52.6243ZM66.1982 45.7533C66.3423 45.9871 66.376 46.2764 66.3092 46.5439C66.2313 46.8225 66.053 47.0452 65.808 47.1898C65.6409 47.279 65.4626 47.3233 65.2736 47.3233C65.0901 47.3242 64.9095 47.2775 64.7495 47.1876C64.5894 47.0978 64.4555 46.968 64.3607 46.8108L62.2003 43.1476C62.1279 43.0287 62.0806 42.8962 62.0614 42.7583C62.0423 42.6204 62.0515 42.48 62.0887 42.3458C62.1555 42.0677 62.3338 41.8451 62.59 41.6999C63.0907 41.4217 63.7484 41.5888 64.0372 42.0896L66.1982 45.7533ZM75.5627 39.6291V43.8603C75.5627 44.4395 75.0839 44.9066 74.5047 44.9066C73.9148 44.9066 73.4359 44.4395 73.4359 43.8603V39.6291C73.4359 39.0499 73.9148 38.5823 74.5047 38.5823C75.0839 38.5823 75.5627 39.0499 75.5627 39.6286V39.6291ZM94.7493 51.6772L91.0076 53.7934C90.8463 53.8901 90.6613 53.9402 90.4733 53.938C90.2858 53.9381 90.1017 53.8888 89.9394 53.795C89.7772 53.7011 89.6426 53.5662 89.5492 53.4037C89.4808 53.2872 89.4366 53.1582 89.4194 53.0242C89.4021 52.8903 89.4121 52.7542 89.4488 52.6243C89.5156 52.3456 89.6939 52.1118 89.9496 51.9783L93.6917 49.8622C94.1925 49.5729 94.8496 49.74 95.139 50.2412C95.2836 50.4863 95.3173 50.7644 95.2505 51.0425C95.1726 51.31 94.9943 51.5443 94.7487 51.6778L94.7493 51.6772ZM86.9099 42.3458C86.9879 42.6127 86.943 42.9026 86.8096 43.1364L84.6491 46.8001C84.5534 46.9596 84.418 47.0915 84.2562 47.1832C84.0944 47.2749 83.9116 47.3231 83.7256 47.3233C83.5355 47.3233 83.3572 47.279 83.1907 47.1898C82.9455 47.0484 82.7656 46.8165 82.6894 46.5439C82.6199 46.2723 82.6599 45.9843 82.801 45.7421L84.9609 42.0789C85.1058 41.8401 85.3379 41.6671 85.608 41.5963C85.8782 41.5256 86.1653 41.5627 86.4086 41.6999C86.6649 41.8451 86.8432 42.0789 86.9099 42.3458Z" fill="#FFB749"/>
<path d="M77.2564 82.4934H75.9288V69.7161H73.0685V82.4934H71.7409V69.7161H69.6632C67.7734 69.7161 66.2461 68.1893 66.2461 66.3107C66.2461 64.4322 67.7729 62.9054 69.652 62.9054C71.5417 62.9054 73.0685 64.4327 73.0685 66.3113V68.3879H75.9283V66.3113C75.9283 64.4327 77.455 62.9054 79.3336 62.9054C81.2239 62.9054 82.7512 64.4327 82.7512 66.3113C82.7512 68.1898 81.2244 69.7161 79.3453 69.7161H77.2559L77.2564 82.4934ZM77.2564 68.3884H79.3341C80.4915 68.3884 81.4235 67.4558 81.4235 66.3107C81.4227 65.7601 81.2036 65.2323 80.8142 64.8429C80.4249 64.4535 79.897 64.2344 79.3464 64.2336C78.189 64.2336 77.2564 65.1656 77.2564 66.3107V68.3884ZM69.6637 64.2336C68.5069 64.2336 67.5748 65.1656 67.5748 66.3107C67.5755 66.8615 67.7946 67.3894 68.1839 67.7789C68.5733 68.1684 69.1012 68.3876 69.652 68.3884H71.7414V66.3107C71.7405 65.76 71.5214 65.2321 71.1319 64.8427C70.7424 64.4533 70.2144 64.2343 69.6637 64.2336Z" fill="#2C2C39"/>
<path d="M94.7504 78.9114C94.7504 82.5398 91.8079 85.4818 88.1832 85.4818C84.5552 85.4818 81.6133 82.5398 81.6133 78.9119C81.6133 75.2872 84.5552 72.3447 88.1832 72.3447C91.8079 72.3447 94.7504 75.2866 94.7504 78.9114Z" fill="#E4686A"/>
<path d="M87.1625 81.5618C87.0109 81.5618 86.8588 81.5036 86.7429 81.3878L84.6775 79.3224C84.5663 79.2111 84.5039 79.0602 84.5039 78.9029C84.504 78.7455 84.5665 78.5947 84.6778 78.4835C84.7891 78.3722 84.94 78.3098 85.0973 78.3098C85.2546 78.3099 85.4055 78.3724 85.5167 78.4837L87.1625 80.1295L90.8529 76.4391C90.908 76.384 90.9734 76.3403 91.0453 76.3105C91.1173 76.2806 91.1944 76.2653 91.2723 76.2653C91.3502 76.2652 91.4274 76.2806 91.4993 76.3103C91.5713 76.3401 91.6367 76.3838 91.6918 76.4389C91.7469 76.4939 91.7907 76.5593 91.8205 76.6313C91.8503 76.7032 91.8657 76.7804 91.8657 76.8583C91.8657 76.9362 91.8504 77.0133 91.8206 77.0853C91.7908 77.1573 91.7472 77.2227 91.6921 77.2778L87.5816 81.3883C87.5266 81.4434 87.4613 81.4871 87.3894 81.5169C87.3174 81.5466 87.2404 81.5619 87.1625 81.5618Z" fill="white"/>
<defs>
<filter id="filter0_d_2030_1579" x="0.666667" y="0.571429" width="146.667" height="146.667" filterUnits="userSpaceOnUse" color-interpolation-filters="sRGB">
<feFlood flood-opacity="0" result="BackgroundImageFix"/>
<feColorMatrix in="SourceAlpha" type="matrix" values="0 0 0 0 0 0 0 0 0 0 0 0 0 0 0 0 0 0 127 0" result="hardAlpha"/>
<feOffset dy="1.90476"/>
<feGaussianBlur stdDeviation="6.66667"/>
<feComposite in2="hardAlpha" operator="out"/>
<feColorMatrix type="matrix" values="0 0 0 0 0.695898 0 0 0 0 0.695898 0 0 0 0 0.695898 0 0 0 0.25 0"/>
<feBlend mode="normal" in2="BackgroundImageFix" result="effect1_dropShadow_2030_1579"/>
<feBlend mode="normal" in="SourceGraphic" in2="effect1_dropShadow_2030_1579" result="shape"/>
</filter>
</defs>
</svg>
