<svg width="148" height="148" viewBox="0 0 148 148" fill="none" xmlns="http://www.w3.org/2000/svg">
<g filter="url(#filter0_d_2030_4878)">
<circle cx="74" cy="72" r="60" fill="white"/>
</g>
<path d="M51.4453 45.7656V99.2344L81.8672 72.5L51.4453 45.7656Z" fill="#57CEF3"/>
<path d="M78.1797 72.5L85.5547 63.2812L99.3828 72.5L85.5547 81.7188L78.1797 72.5Z" fill="#FFF200"/>
<path d="M78.1797 72.5L51.4453 45.7656H55.1328L86.4766 64.2031L78.1797 72.5Z" fill="#48FF48"/>
<path d="M78.1797 72.5L51.4453 99.2344H55.1328L86.4766 80.7969L78.1797 72.5Z" fill="#FF6C58"/>
<path d="M53.3828 102C51.6313 102 50.0641 101.078 49.2344 99.6031L52.3688 96.6531V97.2984C52.3688 97.575 52.4609 97.8516 52.6453 98.0359L67.1187 83.5625C73.9406 83.5625 80.1172 82.4563 83.9891 80.7047L89.3359 77.5703V81.8109L55.7797 101.355C55.1344 101.816 54.3047 102 53.3828 102Z" fill="#FF3333"/>
<path d="M53.3813 46.6875C52.8281 46.6875 52.3672 47.1484 52.3672 47.7016V76.1875C52.3672 80.2438 59.0047 83.5625 67.1172 83.5625L50.0625 100.617C49.2328 99.7875 48.6797 98.5891 48.6797 97.2984V47.7016C48.6797 45.1203 50.8 43 53.3813 43V46.6875Z" fill="#0779E4"/>
<path d="M52.6438 46.9641C52.8281 46.7797 53.1047 46.6875 53.3813 46.6875C53.5656 46.6875 53.75 46.7797 53.9344 46.8719L95.8797 71.3937C96.3406 71.5781 96.6172 72.0391 96.6172 72.5C96.6172 72.9609 96.3406 73.4219 95.9719 73.6984L85.4625 79.7828L88.1359 82.4562L97.7234 76.8328C99.2906 75.9109 100.213 74.2516 100.213 72.5C100.213 70.7484 99.2906 68.9969 97.7234 68.1672L55.7781 43.6453C55.1328 43.1844 54.3031 43 53.3813 43C52.0906 43 50.8922 43.5531 50.0625 44.3828L52.6438 46.9641Z" fill="#314A52"/>
<defs>
<filter id="filter0_d_2030_4878" x="0.666667" y="0.571429" width="146.667" height="146.667" filterUnits="userSpaceOnUse" color-interpolation-filters="sRGB">
<feFlood flood-opacity="0" result="BackgroundImageFix"/>
<feColorMatrix in="SourceAlpha" type="matrix" values="0 0 0 0 0 0 0 0 0 0 0 0 0 0 0 0 0 0 127 0" result="hardAlpha"/>
<feOffset dy="1.90476"/>
<feGaussianBlur stdDeviation="6.66667"/>
<feComposite in2="hardAlpha" operator="out"/>
<feColorMatrix type="matrix" values="0 0 0 0 0.695898 0 0 0 0 0.695898 0 0 0 0 0.695898 0 0 0 0.25 0"/>
<feBlend mode="normal" in2="BackgroundImageFix" result="effect1_dropShadow_2030_4878"/>
<feBlend mode="normal" in="SourceGraphic" in2="effect1_dropShadow_2030_4878" result="shape"/>
</filter>
</defs>
</svg>
