<svg width="148" height="148" viewBox="0 0 148 148" fill="none" xmlns="http://www.w3.org/2000/svg">
<g filter="url(#filter0_d_2014_978)">
<circle cx="74" cy="72" r="60" fill="white"/>
</g>
<path d="M103.543 101.412H46.9048C45.3007 101.412 44 100.111 44 98.5071V46.2064C44 44.4356 45.4356 43 47.2065 43H103.238C105.01 43 106.447 44.4369 106.447 46.2093V98.5071C106.447 100.111 105.147 101.412 103.543 101.412Z" fill="#F4F4F4"/>
<path d="M103.238 43H101.93C101.965 43.1944 101.985 43.394 101.985 43.5989V100.813C101.985 101.018 101.965 101.217 101.93 101.412H103.542C105.147 101.412 106.447 100.111 106.447 98.5071V46.2092C106.447 44.437 105.011 43 103.238 43Z" fill="#E8E8E8"/>
<path d="M44 54.241H106.447V45.9925C106.447 44.3398 105.108 43 103.455 43H46.9925C45.3398 43 44 44.3397 44 45.9925V54.241Z" fill="#FBA826"/>
<path d="M103.455 43H101.93C101.966 43.1944 101.985 43.394 101.985 43.5989V54.241H106.447V45.9925C106.447 44.3398 105.108 43 103.455 43Z" fill="#E09721"/>
<path d="M53.7133 48.6206C53.7133 49.8455 52.7205 50.8389 51.4951 50.8389C50.2702 50.8389 49.2773 49.8455 49.2773 48.6206C49.2773 47.3956 50.2702 46.4023 51.4951 46.4023C52.7205 46.4023 53.7133 47.3956 53.7133 48.6206Z" fill="#FA5D72"/>
<path d="M61.2256 48.6206C61.2256 49.8455 60.2323 50.8389 59.0074 50.8389C57.782 50.8389 56.7891 49.8455 56.7891 48.6206C56.7891 47.3956 57.7819 46.4023 59.0074 46.4023C60.2323 46.4023 61.2256 47.3956 61.2256 48.6206Z" fill="#4C7EB0"/>
<path d="M68.7295 48.6206C68.7295 49.8455 67.7361 50.8389 66.5112 50.8389C65.2863 50.8389 64.293 49.8455 64.293 48.6206C64.293 47.3956 65.2863 46.4023 66.5112 46.4023C67.7361 46.4023 68.7295 47.3956 68.7295 48.6206Z" fill="#279463"/>
<path d="M92.179 89.2943H58.2672C56.9156 89.2943 55.8203 88.1984 55.8203 86.8473V70.921C55.8203 69.5694 56.9156 68.4735 58.2672 68.4735H92.179C93.5307 68.4735 94.626 69.5694 94.626 70.921V86.8473C94.626 88.1984 93.5307 89.2943 92.179 89.2943Z" fill="#F6D867"/>
<path d="M92.1817 68.4735H89.4141C89.9214 68.9653 90.2373 69.6537 90.2373 70.4165V87.3514C90.2373 88.1142 89.9214 88.8021 89.4141 89.2943H92.1817C93.5334 89.2943 94.6287 88.1984 94.6287 86.8473V70.921C94.6287 69.5694 93.5334 68.4735 92.1817 68.4735Z" fill="#E0C55E"/>
<path d="M72.1458 68.4736H62.8477V64.3524C62.8477 63.5664 63.4847 62.9298 64.2703 62.9298H70.7232C71.5088 62.9298 72.1458 63.5665 72.1458 64.3524V68.4736Z" fill="#FBA826"/>
<path d="M70.7229 62.9298H68.2344C68.5884 63.2386 68.8132 63.6921 68.8132 64.1991V68.4736H72.1454V64.3521C72.1454 63.5664 71.5085 62.9299 70.7229 62.9299V62.9298Z" fill="#E09721"/>
<path d="M87.599 68.4736H78.3008V64.3524C78.3008 63.5664 78.9378 62.9298 79.7234 62.9298H86.1763C86.9619 62.9298 87.599 63.5665 87.599 64.3524V68.4736Z" fill="#FBA826"/>
<path d="M86.174 62.9298H83.6875C84.1444 63.2086 84.4503 63.7108 84.4503 64.2854V68.4737H87.5967V64.3521C87.5967 63.5664 86.9596 62.9299 86.174 62.9299V62.9298Z" fill="#E09721"/>
<path d="M76.9385 49.5629H99.8903C100.014 49.5629 100.137 49.5385 100.251 49.4912C100.365 49.4438 100.469 49.3744 100.557 49.2869C100.644 49.1994 100.714 49.0955 100.761 48.9811C100.808 48.8668 100.833 48.7442 100.833 48.6204C100.833 48.4967 100.808 48.3741 100.761 48.2598C100.714 48.1454 100.644 48.0415 100.557 47.954C100.469 47.8665 100.365 47.7971 100.251 47.7497C100.137 47.7024 100.014 47.678 99.8903 47.678H76.9385C76.6885 47.678 76.4488 47.7773 76.2721 47.954C76.0954 48.1307 75.9961 48.3704 75.9961 48.6204C75.9961 48.8703 76.0954 49.11 76.2721 49.2867C76.4488 49.4635 76.6885 49.5629 76.9385 49.5629Z" fill="#495663"/>
<defs>
<filter id="filter0_d_2014_978" x="0.666667" y="0.571429" width="146.667" height="146.667" filterUnits="userSpaceOnUse" color-interpolation-filters="sRGB">
<feFlood flood-opacity="0" result="BackgroundImageFix"/>
<feColorMatrix in="SourceAlpha" type="matrix" values="0 0 0 0 0 0 0 0 0 0 0 0 0 0 0 0 0 0 127 0" result="hardAlpha"/>
<feOffset dy="1.90476"/>
<feGaussianBlur stdDeviation="6.66667"/>
<feComposite in2="hardAlpha" operator="out"/>
<feColorMatrix type="matrix" values="0 0 0 0 0.695898 0 0 0 0 0.695898 0 0 0 0 0.695898 0 0 0 0.25 0"/>
<feBlend mode="normal" in2="BackgroundImageFix" result="effect1_dropShadow_2014_978"/>
<feBlend mode="normal" in="SourceGraphic" in2="effect1_dropShadow_2014_978" result="shape"/>
</filter>
</defs>
</svg>
