<svg width="148" height="148" viewBox="0 0 148 148" fill="none" xmlns="http://www.w3.org/2000/svg">
<g filter="url(#filter0_d_2030_3586)">
<circle cx="74" cy="72" r="60" fill="white"/>
</g>
<g clip-path="url(#clip0_2030_3586)">
<path d="M106.982 103.934H42.0176C40.3511 103.934 39 102.583 39 100.916V44.0838C39 42.4172 40.3511 41.0662 42.0176 41.0662H106.982C108.649 41.0662 110 42.4172 110 44.0838V100.916C110 102.583 108.649 103.934 106.982 103.934Z" fill="#E8F3FF"/>
<path d="M106.984 41.0662H101.484C103.151 41.0662 104.502 42.4172 104.502 44.0838V100.916C104.502 102.583 103.151 103.934 101.484 103.934H106.984C108.651 103.934 110.002 102.583 110.002 100.916V44.0837C110.002 42.4172 108.651 41.0662 106.984 41.0662Z" fill="#C1E2FF"/>
<path d="M106.982 41.0662H42.0176C40.3511 41.0662 39 42.4171 39 44.0838V53.8811H110V44.0838C110 42.4171 108.649 41.0662 106.982 41.0662Z" fill="#C1E2FF"/>
<path d="M104.502 44.0837V53.881H110.002V44.0837C110.002 42.4171 108.651 41.066 106.984 41.066H101.484C103.151 41.0662 104.502 42.4173 104.502 44.0837Z" fill="#B3D8FB"/>
<path d="M100.485 50.0801C101.922 50.0801 103.087 48.9152 103.087 47.4782C103.087 46.0413 101.922 44.8763 100.485 44.8763C99.0477 44.8763 97.8828 46.0413 97.8828 47.4782C97.8828 48.9152 99.0477 50.0801 100.485 50.0801Z" fill="#02C6DB"/>
<path d="M90.055 50.0801C91.492 50.0801 92.6569 48.9152 92.6569 47.4782C92.6569 46.0413 91.492 44.8763 90.055 44.8763C88.618 44.8763 87.4531 46.0413 87.4531 47.4782C87.4531 48.9152 88.618 50.0801 90.055 50.0801Z" fill="#02C6DB"/>
<path d="M93.2092 76.215H92.1015C91.5219 76.215 91.0214 75.8171 90.8822 75.2544C90.4777 73.62 89.8295 72.0559 88.9592 70.6146C88.6593 70.1176 88.7308 69.4816 89.1413 69.0711L89.9255 68.287C90.0421 68.1704 90.1345 68.0321 90.1976 67.8798C90.2607 67.7275 90.2932 67.5643 90.2932 67.3995C90.2932 67.2346 90.2607 67.0714 90.1976 66.9191C90.1345 66.7669 90.0421 66.6285 89.9255 66.512L87.3096 63.896C87.193 63.7795 87.0547 63.687 86.9024 63.6239C86.7501 63.5608 86.5869 63.5284 86.4221 63.5284C86.2573 63.5284 86.094 63.5608 85.9418 63.6239C85.7895 63.687 85.6511 63.7795 85.5346 63.896L84.7504 64.6802C84.3399 65.0907 83.704 65.1623 83.207 64.8623C81.7657 63.992 80.2015 63.3438 78.5672 62.9393C78.0046 62.8001 77.6066 62.2997 77.6066 61.72V60.6123C77.6066 60.4475 77.5741 60.2842 77.5111 60.132C77.448 59.9797 77.3556 59.8413 77.239 59.7248C77.1224 59.6082 76.9841 59.5157 76.8318 59.4527C76.6795 59.3896 76.5163 59.3572 76.3515 59.3572H72.652C72.4871 59.3572 72.3239 59.3896 72.1716 59.4527C72.0193 59.5157 71.881 59.6082 71.7644 59.7248C71.6479 59.8413 71.5554 59.9797 71.4924 60.132C71.4293 60.2842 71.3968 60.4475 71.3968 60.6123V61.72C71.3968 62.2997 70.999 62.8001 70.4363 62.9393C68.8019 63.3438 67.2378 63.9921 65.7964 64.8623C65.2994 65.1623 64.6635 65.0907 64.253 64.6802L63.4688 63.896C63.3523 63.7795 63.2139 63.687 63.0617 63.6239C62.9094 63.5608 62.7462 63.5284 62.5813 63.5284C62.4165 63.5284 62.2533 63.5608 62.101 63.6239C61.9487 63.687 61.8104 63.7795 61.6938 63.896L59.0779 66.512C58.9614 66.6285 58.8689 66.7669 58.8058 66.9191C58.7427 67.0714 58.7103 67.2346 58.7103 67.3995C58.7103 67.5643 58.7427 67.7275 58.8058 67.8798C58.8689 68.0321 58.9614 68.1704 59.0779 68.287L59.8621 69.0711C60.2726 69.4816 60.3441 70.1176 60.0442 70.6146C59.174 72.0559 58.5257 73.62 58.1212 75.2544C57.982 75.817 57.4815 76.215 56.9019 76.215H55.7942C55.6294 76.2149 55.4661 76.2474 55.3138 76.3105C55.1616 76.3735 55.0232 76.466 54.9066 76.5825C54.7901 76.6991 54.6976 76.8375 54.6346 76.9897C54.5715 77.142 54.539 77.3053 54.5391 77.4701V81.1696C54.539 81.3344 54.5715 81.4976 54.6346 81.6499C54.6976 81.8022 54.7901 81.9406 54.9066 82.0571C55.0232 82.1737 55.1616 82.2661 55.3138 82.3292C55.4661 82.3923 55.6294 82.4247 55.7942 82.4247H56.9019C57.4815 82.4247 57.982 82.8225 58.1212 83.3853C58.5257 85.0196 59.174 86.5838 60.0442 88.0251C60.3441 88.5221 60.2726 89.158 59.8621 89.5685L59.0779 90.3527C58.9614 90.4692 58.8689 90.6076 58.8058 90.7599C58.7427 90.9122 58.7103 91.0754 58.7103 91.2402C58.7103 91.405 58.7427 91.5682 58.8058 91.7205C58.8689 91.8728 58.9614 92.0112 59.0779 92.1277L61.6938 94.7436C61.8104 94.8602 61.9487 94.9526 62.101 95.0157C62.2533 95.0788 62.4165 95.1113 62.5813 95.1113C62.7462 95.1113 62.9094 95.0788 63.0617 95.0157C63.2139 94.9526 63.3523 94.8602 63.4688 94.7436L64.253 93.9594C64.6635 93.5489 65.2994 93.4774 65.7964 93.7773C67.2377 94.6476 68.8019 95.2959 70.4363 95.7003C70.9989 95.8395 71.3968 96.34 71.3968 96.9196V98.0274C71.3968 98.1922 71.4293 98.3554 71.4924 98.5077C71.5554 98.66 71.6479 98.7983 71.7644 98.9149C71.881 99.0315 72.0193 99.1239 72.1716 99.187C72.3239 99.25 72.4871 99.2825 72.652 99.2825H76.3515C76.5163 99.2825 76.6795 99.25 76.8318 99.187C76.9841 99.1239 77.1224 99.0315 77.239 98.9149C77.3556 98.7983 77.448 98.66 77.5111 98.5077C77.5741 98.3554 77.6066 98.1922 77.6066 98.0274V96.9196C77.6066 96.34 78.0044 95.8395 78.5672 95.7003C80.2015 95.2958 81.7656 94.6476 83.207 93.7773C83.704 93.4775 84.3399 93.5489 84.7504 93.9594L85.5346 94.7436C85.77 94.9789 86.0892 95.1112 86.4221 95.1112C86.755 95.1112 87.0742 94.9789 87.3096 94.7436L89.9255 92.1277C90.0421 92.0112 90.1345 91.8728 90.1976 91.7205C90.2607 91.5682 90.2932 91.405 90.2932 91.2402C90.2932 91.0754 90.2607 90.9122 90.1976 90.7599C90.1345 90.6076 90.0421 90.4692 89.9255 90.3527L89.1413 89.5685C88.7308 89.158 88.6593 88.5221 88.9592 88.0251C89.8295 86.5838 90.4777 85.0196 90.8822 83.3853C91.0214 82.8227 91.5219 82.4247 92.1015 82.4247H93.2092C93.3741 82.4247 93.5373 82.3923 93.6896 82.3292C93.8419 82.2661 93.9802 82.1737 94.0968 82.0571C94.2133 81.9406 94.3058 81.8022 94.3689 81.6499C94.4319 81.4976 94.4644 81.3344 94.4644 81.1696V77.4701C94.4644 77.1372 94.3321 76.818 94.0967 76.5826C93.8614 76.3472 93.5421 76.215 93.2092 76.215ZM74.5017 91.7776C67.6215 91.7776 62.0441 86.2 62.0441 79.32C62.0441 72.4399 67.6216 66.8624 74.5017 66.8624C81.3818 66.8624 86.9593 72.4399 86.9593 79.32C86.9593 86.2 81.3819 91.7776 74.5017 91.7776Z" fill="#29D0DF"/>
<path d="M80.6962 74.6582C80.5673 74.6129 80.4308 74.5936 80.2944 74.6011C80.158 74.6087 80.0245 74.643 79.9014 74.7022C79.7783 74.7614 79.668 74.8443 79.577 74.9461C79.4859 75.048 79.4158 75.1667 79.3707 75.2956L77.4294 80.8339L75.524 75.2486C75.2129 74.3129 73.8894 74.2983 73.5573 75.227L71.5471 80.8677L69.6376 75.3114C69.546 75.053 69.3562 74.8412 69.1093 74.7221C68.8624 74.6029 68.5784 74.5861 68.3192 74.6752C68.06 74.7643 67.8464 74.9521 67.7249 75.1979C67.6034 75.4436 67.5839 75.7274 67.6705 75.9875L70.5456 84.3541C70.6157 84.558 70.7474 84.7351 70.9226 84.8609C71.0977 84.9867 71.3076 85.0549 71.5232 85.0562H71.5292C71.7438 85.0562 71.9531 84.9898 72.1285 84.8661C72.3039 84.7424 72.4367 84.5675 72.5088 84.3653L74.5153 78.7347L76.4317 84.352C76.5015 84.5567 76.6334 84.7346 76.8091 84.8608C76.9847 84.987 77.1953 85.0554 77.4116 85.0563H77.4161C77.6316 85.0563 77.8418 84.9893 78.0176 84.8646C78.1934 84.74 78.3262 84.5637 78.3975 84.3603L81.3336 75.9839C81.3788 75.855 81.3981 75.7184 81.3906 75.582C81.383 75.4457 81.3487 75.3121 81.2895 75.189C81.2303 75.0659 81.1474 74.9556 81.0457 74.8646C80.9439 74.7735 80.8251 74.7033 80.6962 74.6582Z" fill="#0E80AC"/>
<path d="M81.4744 48.545H45.6886C45.4044 48.545 45.1319 48.4321 44.931 48.2312C44.7301 48.0303 44.6172 47.7577 44.6172 47.4736C44.6172 47.1895 44.7301 46.9169 44.931 46.716C45.1319 46.5151 45.4044 46.4022 45.6886 46.4022H81.4744C81.7585 46.4022 82.031 46.5151 82.2319 46.716C82.4329 46.9169 82.5457 47.1895 82.5457 47.4736C82.5457 47.7577 82.4329 48.0303 82.2319 48.2312C82.031 48.4321 81.7585 48.545 81.4744 48.545Z" fill="white"/>
</g>
<defs>
<filter id="filter0_d_2030_3586" x="0.666667" y="0.571429" width="146.667" height="146.667" filterUnits="userSpaceOnUse" color-interpolation-filters="sRGB">
<feFlood flood-opacity="0" result="BackgroundImageFix"/>
<feColorMatrix in="SourceAlpha" type="matrix" values="0 0 0 0 0 0 0 0 0 0 0 0 0 0 0 0 0 0 127 0" result="hardAlpha"/>
<feOffset dy="1.90476"/>
<feGaussianBlur stdDeviation="6.66667"/>
<feComposite in2="hardAlpha" operator="out"/>
<feColorMatrix type="matrix" values="0 0 0 0 0.695898 0 0 0 0 0.695898 0 0 0 0 0.695898 0 0 0 0.25 0"/>
<feBlend mode="normal" in2="BackgroundImageFix" result="effect1_dropShadow_2030_3586"/>
<feBlend mode="normal" in="SourceGraphic" in2="effect1_dropShadow_2030_3586" result="shape"/>
</filter>
<clipPath id="clip0_2030_3586">
<rect width="71" height="71" fill="white" transform="translate(39 37)"/>
</clipPath>
</defs>
</svg>
