<svg width="148" height="148" viewBox="0 0 148 148" fill="none" xmlns="http://www.w3.org/2000/svg">
<g filter="url(#filter0_d_1778_147)">
<circle cx="74" cy="72" r="60" fill="white"/>
</g>
<path d="M63.4806 73.7241H85.5151C90.9236 73.7241 95.3082 78.1087 95.3082 83.5172C95.3082 88.9258 90.9236 93.3103 85.5151 93.3103H63.4806C58.0721 93.3103 53.6875 88.9258 53.6875 83.5172C53.6875 78.1087 58.0721 73.7241 63.4806 73.7241Z" fill="#1598FC"/>
<path d="M90.3527 75.0083C93.0287 79.7032 91.392 85.6782 86.6971 88.3542C85.2185 89.197 83.5456 89.6395 81.8437 89.638H59.8092C58.1127 89.6383 56.4456 89.1956 54.9727 88.3539C55.8262 89.8585 57.0634 91.1099 58.5581 91.9806C60.0529 92.8513 61.7518 93.3102 63.4816 93.3104H85.5161C90.9247 93.3041 95.3042 88.9145 95.2979 83.506C95.2959 81.7793 94.8374 80.0839 93.969 78.5916C93.1005 77.0992 91.8529 75.8631 90.3527 75.0083Z" fill="#1072BD"/>
<path d="M57.36 68.8276C64.7968 68.8276 70.8256 62.7989 70.8256 55.3621C70.8256 47.9253 64.7968 41.8966 57.36 41.8966C49.9232 41.8966 43.8945 47.9253 43.8945 55.3621C43.8945 62.7989 49.9232 68.8276 57.36 68.8276Z" fill="#FFD33F"/>
<path d="M91.6374 63.931C99.0742 63.931 105.103 57.9023 105.103 50.4655C105.103 43.0287 99.0742 37 91.6374 37C84.2006 37 78.1719 43.0287 78.1719 50.4655C78.1719 57.9023 84.2006 63.931 91.6374 63.931Z" fill="#FFD33F"/>
<path d="M48.7926 84.7414H43.896C43.5714 84.7414 43.26 84.6125 43.0304 84.3829C42.8008 84.1533 42.6719 83.842 42.6719 83.5173C42.6719 83.1926 42.8008 82.8813 43.0304 82.6517C43.26 82.4221 43.5714 82.2932 43.896 82.2932H48.7926C49.1172 82.2932 49.4286 82.4221 49.6582 82.6517C49.8877 82.8813 50.0167 83.1926 50.0167 83.5173C50.0167 83.842 49.8877 84.1533 49.6582 84.3829C49.4286 84.6125 49.1172 84.7414 48.7926 84.7414ZM45.0773 91.4411C44.7893 91.4414 44.5105 91.3401 44.2898 91.1551C44.0691 90.97 43.9207 90.7131 43.8707 90.4295C43.8207 90.1459 43.8723 89.8538 44.0164 89.6044C44.1606 89.3551 44.388 89.1646 44.6587 89.0663L49.2602 87.3917C49.4128 87.3292 49.5764 87.2981 49.7413 87.3003C49.9062 87.3026 50.0689 87.3381 50.2197 87.4048C50.3705 87.4715 50.5063 87.568 50.6189 87.6885C50.7315 87.809 50.8185 87.9509 50.8749 88.1059C50.9313 88.2609 50.9558 88.4256 50.9469 88.5903C50.938 88.7549 50.896 88.9161 50.8232 89.0641C50.7505 89.2121 50.6487 89.3439 50.5238 89.4515C50.3989 89.5592 50.2535 89.6405 50.0964 89.6906L45.4961 91.3665C45.3619 91.4156 45.2202 91.4408 45.0773 91.4411ZM49.6788 79.7225C49.5359 79.723 49.3941 79.6977 49.2602 79.6478L44.6587 77.9683C44.5048 77.9154 44.3631 77.8325 44.2417 77.7242C44.1203 77.616 44.0217 77.4847 43.9517 77.3379C43.8816 77.1911 43.8415 77.0319 43.8337 76.8694C43.8259 76.707 43.8505 76.5446 43.9061 76.3918C43.9618 76.2389 44.0473 76.0987 44.1577 75.9793C44.2682 75.86 44.4013 75.7638 44.5493 75.6964C44.6973 75.629 44.8573 75.5918 45.0199 75.587C45.1824 75.5821 45.3443 75.6097 45.4961 75.6681L50.0964 77.344C50.3662 77.4428 50.5926 77.6333 50.736 77.8822C50.8795 78.1311 50.9308 78.4225 50.8811 78.7055C50.8313 78.9884 50.6836 79.2448 50.4639 79.4299C50.2441 79.6149 49.9663 79.7167 49.679 79.7176L49.6788 79.7225ZM105.103 84.7414H100.206C99.8817 84.7414 99.5703 84.6125 99.3408 84.3829C99.1112 84.1533 98.9822 83.842 98.9822 83.5173C98.9822 83.1926 99.1112 82.8813 99.3408 82.6517C99.5703 82.4221 99.8817 82.2932 100.206 82.2932H105.103C105.428 82.2932 105.739 82.4221 105.969 82.6517C106.198 82.8813 106.327 83.1926 106.327 83.5173C106.327 83.842 106.198 84.1533 105.969 84.3829C105.739 84.6125 105.428 84.7414 105.103 84.7414ZM99.3201 79.7225C99.0328 79.7216 98.755 79.6198 98.5352 79.4348C98.3154 79.2497 98.1678 78.9933 98.118 78.7104C98.0682 78.4274 98.1196 78.136 98.263 77.8871C98.4065 77.6382 98.6329 77.4477 98.9027 77.3489L103.503 75.673C103.655 75.6135 103.817 75.5849 103.981 75.5891C104.144 75.5932 104.305 75.63 104.453 75.6972C104.602 75.7644 104.736 75.8607 104.847 75.9803C104.958 76.1 105.044 76.2407 105.1 76.3941C105.156 76.5475 105.18 76.7106 105.172 76.8736C105.164 77.0367 105.124 77.1965 105.053 77.3436C104.982 77.4908 104.883 77.6223 104.76 77.7304C104.638 77.8385 104.495 77.921 104.34 77.9732L99.7389 79.6478C99.6049 79.6977 99.463 79.7229 99.3201 79.7225ZM103.922 91.4411C103.779 91.4408 103.637 91.4156 103.503 91.3665L98.9027 89.6906C98.5979 89.5885 98.3455 89.3705 98.2 89.0839C98.0546 88.7973 98.0277 88.4649 98.1251 88.1586C98.2226 87.8523 98.4366 87.5966 98.7209 87.4468C99.0053 87.2969 99.3372 87.2648 99.6449 87.3576C99.6766 87.3677 99.7078 87.379 99.7386 87.3917L104.34 89.0663C104.611 89.1646 104.838 89.3551 104.982 89.6044C105.126 89.8537 105.178 90.1459 105.128 90.4295C105.078 90.7131 104.93 90.97 104.709 91.155C104.488 91.34 104.21 91.4413 103.922 91.4411Z" fill="#505968"/>
<path d="M56.1373 50.4655H58.5855C59.2616 50.4655 59.8097 51.0136 59.8097 51.6896C59.8097 52.0143 59.9386 52.3256 60.1682 52.5552C60.3978 52.7848 60.7091 52.9137 61.0338 52.9137C61.3585 52.9137 61.6698 52.7848 61.8994 52.5552C62.129 52.3256 62.2579 52.0143 62.2579 51.6896C62.2579 49.6614 60.6138 48.0172 58.5855 48.0172V46.7931C58.5855 46.4684 58.4566 46.157 58.227 45.9275C57.9974 45.6979 57.6861 45.5689 57.3614 45.5689C57.0367 45.5689 56.7254 45.6979 56.4958 45.9275C56.2662 46.157 56.1373 46.4684 56.1373 46.7931V48.0172C54.109 48.0172 52.4648 49.6614 52.4648 51.6896V52.9137C52.4648 54.942 54.109 56.5862 56.1373 56.5862H58.5855C58.9102 56.5862 59.2216 56.7151 59.4511 56.9447C59.6807 57.1743 59.8097 57.4856 59.8097 57.8103V59.0344C59.8097 59.3591 59.6807 59.6705 59.4511 59.9C59.2216 60.1296 58.9102 60.2586 58.5855 60.2586H56.1373C55.4612 60.2586 54.9131 59.7105 54.9131 59.0344C54.9131 58.7098 54.7841 58.3984 54.5546 58.1688C54.325 57.9393 54.0136 57.8103 53.689 57.8103C53.3643 57.8103 53.053 57.9393 52.8234 58.1688C52.5938 58.3984 52.4648 58.7098 52.4648 59.0344C52.4648 61.0627 54.109 62.7068 56.1373 62.7068V63.931C56.1373 64.2556 56.2662 64.567 56.4958 64.7966C56.7254 65.0262 57.0367 65.1551 57.3614 65.1551C57.6861 65.1551 57.9974 65.0262 58.227 64.7966C58.4566 64.567 58.5855 64.2556 58.5855 63.931V62.7068C60.6138 62.7068 62.2579 61.0627 62.2579 59.0344V57.8103C62.2579 55.7821 60.6138 54.1379 58.5855 54.1379H56.1373C55.8126 54.1379 55.5012 54.0089 55.2717 53.7793C55.0421 53.5498 54.9131 53.2384 54.9131 52.9137V51.6896C54.9131 51.3649 55.0421 51.0536 55.2717 50.824C55.5012 50.5944 55.8126 50.4655 56.1373 50.4655ZM92.8614 49.2413H90.4131C90.0885 49.2413 89.7771 49.1124 89.5475 48.8828C89.3179 48.6532 89.189 48.3419 89.189 48.0172V46.7931C89.189 46.4684 89.3179 46.157 89.5475 45.9275C89.7771 45.6979 90.0885 45.5689 90.4131 45.5689H92.8614C93.5374 45.5689 94.0855 46.117 94.0855 46.7931C94.0855 47.1177 94.2145 47.4291 94.4441 47.6586C94.6736 47.8882 94.985 48.0172 95.3097 48.0172C95.6343 48.0172 95.9457 47.8882 96.1753 47.6586C96.4048 47.4291 96.5338 47.1177 96.5338 46.7931C96.5338 44.7648 94.8896 43.1206 92.8614 43.1206V41.8965C92.8614 41.5718 92.7324 41.2605 92.5028 41.0309C92.2733 40.8013 91.9619 40.6724 91.6373 40.6724C91.3126 40.6724 91.0012 40.8013 90.7717 41.0309C90.5421 41.2605 90.4131 41.5718 90.4131 41.8965V43.1206C88.3849 43.1206 86.7407 44.7648 86.7407 46.7931V48.0172C86.7407 50.0454 88.3849 51.6896 90.4131 51.6896H92.8614C93.1861 51.6896 93.4974 51.8186 93.727 52.0481C93.9566 52.2777 94.0855 52.5891 94.0855 52.9137V54.1379C94.0855 54.4625 93.9566 54.7739 93.727 55.0035C93.4974 55.233 93.1861 55.362 92.8614 55.362H90.4131C89.7371 55.362 89.189 54.8139 89.189 54.1379C89.189 53.8132 89.06 53.5019 88.8304 53.2723C88.6009 53.0427 88.2895 52.9137 87.9648 52.9137C87.6402 52.9137 87.3288 53.0427 87.0992 53.2723C86.8697 53.5019 86.7407 53.8132 86.7407 54.1379C86.7407 56.1661 88.3849 57.8103 90.4131 57.8103V59.0344C90.4131 59.3591 90.5421 59.6705 90.7717 59.9C91.0012 60.1296 91.3126 60.2586 91.6373 60.2586C91.9619 60.2586 92.2733 60.1296 92.5028 59.9C92.7324 59.6705 92.8614 59.3591 92.8614 59.0344V57.8103C94.8896 57.8103 96.5338 56.1661 96.5338 54.1379V52.9137C96.5338 50.8855 94.8896 49.2413 92.8614 49.2413Z" fill="#FAA41B"/>
<path d="M74.5 105.552L79.3966 100.655L83.069 108L87.9655 105.552L84.2931 98.2069H91.6379L74.5 81.069V105.552Z" fill="#CBCFD3"/>
<defs>
<filter id="filter0_d_1778_147" x="0.666667" y="0.571429" width="146.667" height="146.667" filterUnits="userSpaceOnUse" color-interpolation-filters="sRGB">
<feFlood flood-opacity="0" result="BackgroundImageFix"/>
<feColorMatrix in="SourceAlpha" type="matrix" values="0 0 0 0 0 0 0 0 0 0 0 0 0 0 0 0 0 0 127 0" result="hardAlpha"/>
<feOffset dy="1.90476"/>
<feGaussianBlur stdDeviation="6.66667"/>
<feComposite in2="hardAlpha" operator="out"/>
<feColorMatrix type="matrix" values="0 0 0 0 0.695898 0 0 0 0 0.695898 0 0 0 0 0.695898 0 0 0 0.25 0"/>
<feBlend mode="normal" in2="BackgroundImageFix" result="effect1_dropShadow_1778_147"/>
<feBlend mode="normal" in="SourceGraphic" in2="effect1_dropShadow_1778_147" result="shape"/>
</filter>
</defs>
</svg>
