<svg width="148" height="148" viewBox="0 0 148 148" fill="none" xmlns="http://www.w3.org/2000/svg">
<g filter="url(#filter0_d_1273_255)">
<circle cx="74" cy="72" r="60" fill="white"/>
</g>
<path d="M89.7666 43.5622V101.438C89.7666 104.482 87.3139 106.924 84.291 106.924H48.834C45.8111 106.924 43.3477 104.482 43.3477 101.438V43.5622C43.3477 40.5285 45.8111 38.0758 48.834 38.0758H84.291C87.3139 38.0758 89.7666 40.5285 89.7666 43.5622Z" fill="#44394A"/>
<path d="M85.9363 44.6594V100.351C85.9363 101.277 85.4737 102.094 84.7637 102.589C84.3227 102.912 83.774 103.095 83.1931 103.095H49.9307C49.204 103.092 48.5079 102.802 47.9941 102.288C47.4803 101.774 47.1903 101.078 47.1875 100.351V44.6594C47.1875 43.1534 48.4246 41.9163 49.9307 41.9163H63.2055C63.6789 41.9163 64.0661 42.3035 64.0661 42.7769C64.0661 43.7558 64.5933 44.7025 65.4323 45.1328C65.6152 45.2404 65.8089 45.3049 66.0133 45.3479C66.3741 45.4331 66.7497 45.4331 67.1105 45.3479C68.2831 45.1113 69.0577 43.971 69.0577 42.7769C69.0577 42.6047 69.1114 42.4434 69.2083 42.3035V42.2928C69.287 42.177 69.3929 42.0822 69.5166 42.0166C69.6403 41.9509 69.7782 41.9165 69.9183 41.9163H83.1931C84.6992 41.9163 85.9363 43.1534 85.9363 44.6594Z" fill="white"/>
<path d="M68.4997 56.7617V58.8702C68.4997 59.0316 68.3814 59.1714 68.2201 59.1822L66.757 59.3328C66.5526 59.3543 66.3805 59.5049 66.3375 59.7093C66.316 59.7846 66.3052 59.8492 66.2944 59.8814C66.1869 60.301 66.0363 60.699 65.8534 61.0755C65.7888 61.2154 65.7135 61.3552 65.649 61.4843C65.6167 61.5381 65.5952 61.5919 65.5629 61.6457C65.4661 61.8178 65.4876 62.033 65.606 62.1943L66.5204 63.3131C66.6172 63.4422 66.6064 63.6251 66.4988 63.7327L65.0035 65.2172C64.9502 65.2747 64.8765 65.3091 64.7981 65.3132C64.7198 65.3172 64.643 65.2905 64.584 65.2387L64.0138 64.7761L63.4975 64.3566C63.42 64.2927 63.3247 64.2542 63.2246 64.2465C63.1245 64.2388 63.0244 64.2622 62.9381 64.3136C62.5293 64.5502 61.7547 64.9698 61.1416 65.1096C61.0985 65.1204 61.034 65.1311 60.9479 65.1527C60.7435 65.2064 60.6037 65.3786 60.5822 65.5722L60.4316 66.9492C60.4213 67.0253 60.3843 67.0953 60.3271 67.1465C60.27 67.1978 60.1964 67.227 60.1196 67.2289H57.9573C57.8175 67.2289 57.7099 67.132 57.6991 66.9922L57.5485 65.583C57.5404 65.4831 57.5004 65.3886 57.4346 65.3131C57.3688 65.2376 57.2805 65.1851 57.1828 65.1634C57.1828 65.1634 57.172 65.1634 57.1613 65.1527C57.0429 65.1204 56.9246 65.0881 56.817 65.0558C56.2497 64.8741 55.7048 64.6287 55.1926 64.3243C55.1056 64.2712 55.0044 64.2458 54.9025 64.2516C54.8007 64.2573 54.703 64.294 54.6225 64.3566L53.536 65.228C53.4069 65.3248 53.224 65.314 53.1164 65.2064L51.6211 63.7219C51.5664 63.667 51.5339 63.5937 51.5299 63.5162C51.5259 63.4388 51.5508 63.3626 51.5996 63.3023L52.5032 62.1836C52.6323 62.033 52.6538 61.807 52.5463 61.6457L52.4602 61.4843L52.2666 61.097C52.1375 60.8389 52.0299 60.5699 51.9438 60.2902L51.8147 59.8707C51.804 59.8277 51.7932 59.7631 51.7717 59.6986C51.7505 59.5996 51.6984 59.5098 51.6231 59.4422C51.5477 59.3746 51.4529 59.3325 51.3522 59.322L49.8891 59.1714C49.8116 59.1646 49.7396 59.1286 49.6877 59.0707C49.6358 59.0128 49.6078 58.9373 49.6094 58.8595V56.751C49.6094 56.5896 49.7278 56.4605 49.8891 56.439L50.6744 56.3637L51.4167 56.2884C51.5153 56.2766 51.608 56.2353 51.6828 56.1701C51.7576 56.1049 51.8111 56.0187 51.8363 55.9227C52.0191 55.2664 52.2881 54.6533 52.6216 54.0723C52.7291 53.9002 52.7076 53.6743 52.5785 53.5237L51.5888 52.3081C51.5424 52.2469 51.5191 52.1712 51.523 52.0944C51.5269 52.0176 51.5579 51.9447 51.6104 51.8886L53.1057 50.3933C53.2132 50.2857 53.3961 50.2749 53.5252 50.3717L54.7731 51.383C54.9344 51.512 55.1604 51.5336 55.3325 51.426C55.4508 51.3614 55.5584 51.2969 55.6767 51.2431C55.752 51.2108 55.8273 51.1678 55.9026 51.1355C56.3007 50.9527 56.7094 50.802 57.1397 50.6945C57.3334 50.6407 57.4732 50.4686 57.5055 50.2642L57.6776 48.6613C57.6884 48.5107 57.8282 48.3816 57.9896 48.3816H60.0981C60.1749 48.3835 60.2484 48.4127 60.3056 48.4639C60.3628 48.5152 60.3998 48.5852 60.4101 48.6613L60.5822 50.2749C60.6037 50.4793 60.7435 50.6514 60.9479 50.7052C61.428 50.8259 61.8934 50.9991 62.3357 51.2216C62.411 51.2646 62.5938 51.3614 62.7552 51.4583C62.9273 51.5551 63.1425 51.5336 63.3038 51.4152C63.7341 51.0602 64.5625 50.404 64.5625 50.404C64.6916 50.3072 64.8744 50.318 64.982 50.4255L66.4773 51.9208C66.5957 52.0392 66.6064 52.2113 66.4988 52.3404L65.5091 53.556C65.444 53.6353 65.4058 53.7333 65.4 53.8358C65.3942 53.9383 65.4211 54.04 65.4769 54.1261C65.5091 54.1799 65.5414 54.223 65.5522 54.2552C65.8104 54.6963 66.1008 55.5354 66.2514 55.9872C66.316 56.1701 66.4773 56.2992 66.6602 56.3207L67.424 56.3637L68.2093 56.4498C68.3814 56.4713 68.4997 56.6004 68.4997 56.7617Z" fill="#FC8068"/>
<path d="M83.5281 66.3252V68.2078C83.5281 68.3476 83.4205 68.4767 83.2807 68.4875L81.979 68.6273C81.7961 68.6488 81.6455 68.7887 81.6025 68.9608C81.581 69.0253 81.5702 69.0791 81.5595 69.1222C81.4627 69.4987 81.3336 69.8429 81.1722 70.1872C81.1184 70.3163 81.0539 70.4346 80.9893 70.5529C80.9678 70.6067 80.9355 70.6497 80.914 70.6928C80.828 70.8541 80.8387 71.037 80.9571 71.1769L81.7639 72.1666C81.8499 72.2741 81.8392 72.4355 81.7424 72.5431L80.4084 73.8663C80.3116 73.9738 80.1502 73.9738 80.0319 73.8878L79.5263 73.479L79.0637 73.1025C78.9953 73.0454 78.9105 73.0114 78.8216 73.0056C78.7326 72.9998 78.6441 73.0224 78.5689 73.0702C78.2031 73.2853 77.5146 73.6619 76.966 73.7802C76.9337 73.7909 76.8692 73.8017 76.7939 73.8232C76.611 73.8663 76.4819 74.0169 76.4711 74.1997L76.3421 75.4261C76.3205 75.566 76.2022 75.6735 76.0624 75.6735H74.1367C74.0184 75.6735 73.9216 75.5875 73.9001 75.4584L73.771 74.1997C73.7616 74.1117 73.7257 74.0286 73.6681 73.9614C73.6105 73.8942 73.5338 73.846 73.4483 73.8232C73.4483 73.8232 73.4375 73.8232 73.4267 73.8125C73.3192 73.791 73.2116 73.7587 73.1148 73.7264C72.6092 73.565 72.1251 73.3499 71.6733 73.081C71.5961 73.0331 71.5059 73.0105 71.4153 73.0163C71.3247 73.0221 71.2381 73.056 71.1677 73.1132L70.2102 73.8878C70.1027 73.9738 69.9413 73.9631 69.8337 73.8663L68.4998 72.5431C68.3922 72.4355 68.3922 72.2741 68.4783 72.1666L69.2743 71.1769C69.3927 71.037 69.4034 70.8434 69.3174 70.6928L69.2421 70.5422C69.1883 70.4346 69.1237 70.3163 69.0699 70.1979C68.9624 69.9613 68.8655 69.7246 68.7795 69.4772C68.7364 69.3481 68.7042 69.2297 68.6719 69.1006C68.6611 69.0684 68.6504 69.0038 68.6289 68.9393C68.6103 68.8506 68.5636 68.7703 68.4958 68.7103C68.428 68.6502 68.3426 68.6136 68.2524 68.6058L66.9507 68.466C66.8816 68.4597 66.8174 68.4272 66.7714 68.3752C66.7254 68.3232 66.7011 68.2556 66.7033 68.1863V66.3037C66.7033 66.1638 66.8108 66.0455 66.9507 66.024L67.6499 65.9487L68.3061 65.8841C68.489 65.8626 68.6289 65.7335 68.6827 65.5614C68.844 64.9805 69.0807 64.4319 69.3819 63.9155C69.4787 63.7649 69.4572 63.5605 69.3496 63.4206L68.4675 62.3341C68.3814 62.2266 68.3922 62.0652 68.489 61.9576L69.823 60.6237C69.9198 60.5269 70.0811 60.5161 70.1995 60.6022L71.3183 61.5058C71.4581 61.6241 71.6625 61.6349 71.8131 61.5381C71.9207 61.4843 72.0175 61.4305 72.1143 61.3767L72.308 61.2799C72.663 61.1185 73.0287 60.9894 73.416 60.8819C73.5022 60.8567 73.5789 60.8064 73.6364 60.7374C73.6939 60.6684 73.7295 60.5839 73.7387 60.4946L73.8893 59.0638C73.9001 58.924 74.0184 58.8164 74.169 58.8164H76.0516C76.1914 58.8164 76.3098 58.924 76.3313 59.0638L76.4819 60.4946C76.5034 60.6775 76.6217 60.8281 76.8046 60.8711C77.1811 60.9679 77.5577 61.1078 77.9019 61.2691L78.031 61.3337C78.1063 61.366 78.2677 61.4628 78.4075 61.5381C78.5689 61.6241 78.7518 61.6134 78.8916 61.495L80.0104 60.5914C80.118 60.5053 80.2793 60.5161 80.3869 60.6129L81.7208 61.9469C81.8284 62.0544 81.8284 62.205 81.7424 62.3234L80.8602 63.4099C80.7419 63.5497 80.7311 63.7541 80.828 63.9155C80.8495 63.9585 80.8817 64.0016 80.8925 64.0338C81.1184 64.4319 81.3874 65.1741 81.5164 65.5722C81.5702 65.7335 81.7101 65.8519 81.8822 65.8626L82.5599 65.9379L83.2807 66.0455C83.4205 66.067 83.5281 66.1853 83.5281 66.3252Z" fill="#FCD131"/>
<path d="M59.0447 61.7317C61.2073 61.7317 62.9604 59.9785 62.9604 57.8159C62.9604 55.6533 61.2073 53.9001 59.0447 53.9001C56.8821 53.9001 55.1289 55.6533 55.1289 57.8159C55.1289 59.9785 56.8821 61.7317 59.0447 61.7317Z" fill="white"/>
<path d="M75.1267 71.1769C77.2893 71.1769 79.0425 69.4237 79.0425 67.2611C79.0425 65.0985 77.2893 63.3453 75.1267 63.3453C72.9641 63.3453 71.2109 65.0985 71.2109 67.2611C71.2109 69.4237 72.9641 71.1769 75.1267 71.1769Z" fill="white"/>
<path d="M82.593 81.1814H51.1271C50.6861 81.1814 50.3203 80.8156 50.3203 80.3746C50.3203 79.9335 50.6861 79.5677 51.1271 79.5677H82.593C83.0341 79.5677 83.3999 79.9335 83.3999 80.3746C83.3999 80.8156 83.0341 81.1814 82.593 81.1814ZM81.0009 85.4199H52.7085C52.2674 85.4199 51.9017 85.0541 51.9017 84.6131C51.9017 84.172 52.2674 83.8062 52.7085 83.8062H81.0009C81.442 83.8062 81.8077 84.172 81.8077 84.6131C81.8077 85.0541 81.442 85.4199 81.0009 85.4199ZM77.139 89.6584H56.5705C56.1294 89.6584 55.7636 89.2926 55.7636 88.8515C55.7636 88.4105 56.1294 88.0447 56.5705 88.0447H77.139C77.58 88.0447 77.9458 88.4105 77.9458 88.8515C77.9458 89.2926 77.58 89.6584 77.139 89.6584Z" fill="#E5E5E5"/>
<path d="M74.7686 96.7369C74.7686 97.6082 74.4136 98.4043 73.8327 98.9852C73.2625 99.5661 72.4665 99.9211 71.5843 99.9211H61.5475C59.794 99.9211 58.3633 98.4904 58.3633 96.7369C58.3633 95.8548 58.7183 95.0587 59.2992 94.4885C59.8693 93.9076 60.6654 93.5526 61.5475 93.5526H71.5843C73.3486 93.5526 74.7686 94.9726 74.7686 96.7369ZM105.654 50.3717C105.654 56.3637 99.909 61.2261 92.8413 61.2261C91.1524 61.2261 89.5495 60.9572 88.0757 60.4516C87.9287 60.399 87.7715 60.3813 87.6166 60.4C87.4616 60.4187 87.3131 60.4732 87.1828 60.5592C86.4083 61.0755 85.5046 61.6349 84.5149 62.1298C83.6436 62.5708 82.7184 61.6457 83.1487 60.7743C83.4069 60.2364 83.6759 59.6555 83.9018 59.0531C83.9752 58.8561 83.9867 58.6413 83.9348 58.4375C83.8829 58.2338 83.7701 58.0507 83.6113 57.9128C81.3953 55.9549 80.029 53.2978 80.029 50.3717C80.029 44.369 85.7628 39.5173 92.8413 39.5173C99.909 39.5173 105.654 44.369 105.654 50.3717Z" fill="#8C9FFA"/>
<path d="M95.6621 57.1598C95.5565 57.1495 95.4542 57.1175 95.3616 57.0656C95.269 57.0138 95.1882 56.9433 95.1242 56.8586C94.9903 56.6931 94.9275 56.4811 94.9497 56.2693C94.9719 56.0575 95.0772 55.8632 95.2426 55.729L97.663 53.7819L95.7159 51.3615C95.645 51.2801 95.5912 51.1852 95.5578 51.0826C95.5243 50.98 95.5119 50.8717 95.5212 50.7641C95.5306 50.6566 95.5615 50.552 95.6121 50.4567C95.6627 50.3614 95.732 50.2772 95.8159 50.2093C95.8998 50.1413 95.9964 50.0909 96.1002 50.0612C96.204 50.0314 96.3126 50.0228 96.4198 50.036C96.5269 50.0492 96.6303 50.0838 96.7238 50.1378C96.8172 50.1918 96.8989 50.264 96.9638 50.3503L99.4165 53.3946C99.5456 53.556 99.6102 53.7712 99.5886 53.9863C99.5671 54.2015 99.4596 54.3951 99.2874 54.5242L96.243 56.9769C96.165 57.0473 96.0728 57.1001 95.9725 57.1317C95.8723 57.1632 95.7664 57.1728 95.6621 57.1598ZM89.2399 51.7057C89.1342 51.6954 89.0319 51.6634 88.9393 51.6115C88.8467 51.5597 88.7659 51.4892 88.702 51.4045L86.2492 48.3601C86.1153 48.1946 86.0525 47.9826 86.0747 47.7708C86.0969 47.5591 86.2022 47.3647 86.3676 47.2306L89.412 44.7778C89.4934 44.7069 89.5882 44.6531 89.6908 44.6197C89.7935 44.5863 89.9018 44.5738 90.0093 44.5832C90.1168 44.5925 90.2214 44.6234 90.3167 44.674C90.4121 44.7246 90.4962 44.7939 90.5642 44.8778C90.6321 44.9617 90.6825 45.0584 90.7123 45.1621C90.742 45.2659 90.7506 45.3746 90.7374 45.4817C90.7243 45.5888 90.6897 45.6922 90.6357 45.7857C90.5817 45.8792 90.5094 45.9608 90.4232 46.0257L88.0027 47.9728L89.9499 50.3933C90.2296 50.7375 90.1758 51.2431 89.8315 51.5228C89.6594 51.6734 89.4443 51.7272 89.2399 51.7057ZM90.9288 58.4507C90.8858 58.4507 90.8427 58.4399 90.7997 58.4292C90.6972 58.4017 90.6012 58.3543 90.517 58.2897C90.4329 58.2251 90.3623 58.1445 90.3094 58.0526C90.2564 57.9607 90.2221 57.8592 90.2084 57.754C90.1947 57.6488 90.2019 57.5419 90.2296 57.4395L93.8764 43.9065C93.932 43.6996 94.0675 43.5233 94.2531 43.4164C94.4387 43.3095 94.6592 43.2807 94.8661 43.3363C95.0729 43.3919 95.2492 43.5275 95.3561 43.7131C95.463 43.8987 95.4919 44.1192 95.4362 44.326L91.7894 57.859C91.6818 58.2463 91.3161 58.4937 90.9288 58.4507Z" fill="white"/>
<defs>
<filter id="filter0_d_1273_255" x="0.666667" y="0.571429" width="146.667" height="146.667" filterUnits="userSpaceOnUse" color-interpolation-filters="sRGB">
<feFlood flood-opacity="0" result="BackgroundImageFix"/>
<feColorMatrix in="SourceAlpha" type="matrix" values="0 0 0 0 0 0 0 0 0 0 0 0 0 0 0 0 0 0 127 0" result="hardAlpha"/>
<feOffset dy="1.90476"/>
<feGaussianBlur stdDeviation="6.66667"/>
<feComposite in2="hardAlpha" operator="out"/>
<feColorMatrix type="matrix" values="0 0 0 0 0.695898 0 0 0 0 0.695898 0 0 0 0 0.695898 0 0 0 0.25 0"/>
<feBlend mode="normal" in2="BackgroundImageFix" result="effect1_dropShadow_1273_255"/>
<feBlend mode="normal" in="SourceGraphic" in2="effect1_dropShadow_1273_255" result="shape"/>
</filter>
</defs>
</svg>
