<svg width="148" height="148" viewBox="0 0 148 148" fill="none" xmlns="http://www.w3.org/2000/svg">
<g filter="url(#filter0_d_1273_318)">
<circle cx="74" cy="72" r="60" fill="white"/>
</g>
<path d="M74.5 101.159C66.4993 101.159 58.9773 98.0432 53.32 92.3858C47.6626 86.7284 44.5469 79.2064 44.5469 71.2057C44.5469 63.2049 47.6626 55.6831 53.32 50.0257C58.9775 44.3683 66.4993 41.2526 74.5 41.2526C82.5007 41.2526 90.0227 44.3683 95.68 50.0257C101.337 55.6831 104.453 63.2049 104.453 71.2057C104.453 79.2066 101.337 86.7284 95.68 92.3858C90.0227 98.0432 82.5007 101.159 74.5 101.159ZM74.5 43.4714C59.2073 43.4714 46.7656 55.913 46.7656 71.2057C46.7656 86.4985 59.2073 98.9401 74.5 98.9401C89.7927 98.9401 102.234 86.4985 102.234 71.2057C102.234 55.913 89.7927 43.4714 74.5 43.4714Z" fill="#FAA019"/>
<path d="M74.5 104.857C75.7254 104.857 76.7188 103.863 76.7188 102.638C76.7188 101.413 75.7254 100.419 74.5 100.419C73.2746 100.419 72.2812 101.413 72.2812 102.638C72.2812 103.863 73.2746 104.857 74.5 104.857Z" fill="#555A6E"/>
<path d="M74.5 100.419V104.857C75.7254 104.857 76.7188 103.863 76.7188 102.638C76.7188 101.412 75.7254 100.419 74.5 100.419Z" fill="#463C4B"/>
<path d="M76.7188 87.1067H72.2812C63.7036 87.1067 56.75 80.1531 56.75 71.5754C56.75 62.9978 63.7036 56.0442 72.2812 56.0442H76.7188C85.2964 56.0442 92.25 62.9978 92.25 71.5754C92.25 80.1531 85.2964 87.1067 76.7188 87.1067Z" fill="#2387C3"/>
<path d="M72.2812 87.1067C80.8589 87.1067 87.8125 80.1531 87.8125 71.5754C87.8125 62.9978 80.8589 56.0442 72.2812 56.0442C63.7036 56.0442 56.75 62.9978 56.75 71.5754C56.75 80.1531 63.7036 87.1067 72.2812 87.1067Z" fill="#5AD7FF"/>
<path d="M72.2825 82.2994C78.2052 82.2994 83.0064 77.4981 83.0064 71.5755C83.0064 65.6528 78.2052 60.8516 72.2825 60.8516C66.3599 60.8516 61.5586 65.6528 61.5586 71.5755C61.5586 77.4981 66.3599 82.2994 72.2825 82.2994Z" fill="#D7E6F0"/>
<path d="M78.9386 71.5755C78.9386 71.3544 78.9274 71.1336 78.9051 70.9137C78.87 70.5675 79.0439 70.2337 79.3454 70.0596L79.3462 70.0592C79.5506 69.9412 79.6998 69.7467 79.761 69.5187C79.8221 69.2907 79.7901 69.0477 79.6721 68.8432L78.3435 66.5419C78.2254 66.3375 78.031 66.1883 77.8029 66.1272C77.5749 66.0661 77.3319 66.098 77.1274 66.2161L77.1261 66.2169C76.8247 66.3908 76.4488 66.3746 76.1665 66.1713C75.8068 65.9121 75.4221 65.6896 75.0181 65.507C74.7019 65.3642 74.5011 65.0468 74.5011 64.6998C74.5011 64.4638 74.4073 64.2374 74.2404 64.0704C74.0735 63.9035 73.8471 63.8097 73.611 63.8097H70.9538C70.7177 63.8097 70.4913 63.9035 70.3244 64.0704C70.1575 64.2374 70.0637 64.4638 70.0636 64.6998C70.0636 65.0468 69.863 65.3642 69.5467 65.507C69.1427 65.6896 68.758 65.9121 68.3983 66.1713C68.2597 66.2704 68.0955 66.3275 67.9253 66.3356C67.755 66.3437 67.5861 66.3025 67.4387 66.2169L67.4373 66.2161C67.3361 66.1576 67.2243 66.1197 67.1084 66.1044C66.9925 66.0892 66.8747 66.0969 66.7618 66.1271C66.6489 66.1574 66.5431 66.2096 66.4503 66.2808C66.3576 66.352 66.2798 66.4407 66.2213 66.5419L64.8927 68.8432C64.8343 68.9444 64.7963 69.0562 64.7811 69.1721C64.7658 69.288 64.7735 69.4058 64.8038 69.5187C64.834 69.6316 64.8862 69.7375 64.9574 69.8302C65.0286 69.923 65.1173 70.0008 65.2186 70.0592L65.2194 70.0596C65.3672 70.1445 65.4874 70.2702 65.5655 70.4217C65.6436 70.5732 65.6763 70.7441 65.6597 70.9137C65.6151 71.3537 65.6151 71.7972 65.6597 72.2372C65.6948 72.5835 65.5209 72.9172 65.2194 73.0913L65.2186 73.0917C65.0141 73.2097 64.8649 73.4042 64.8038 73.6322C64.7427 73.8603 64.7747 74.1032 64.8927 74.3077L66.2213 76.609C66.3394 76.8134 66.5338 76.9626 66.7618 77.0237C66.9899 77.0848 67.2329 77.0529 67.4373 76.9348L67.4387 76.934C67.7401 76.7601 68.116 76.7763 68.3983 76.9796C68.758 77.2388 69.1427 77.4614 69.5467 77.6439C69.8628 77.7867 70.0636 78.1041 70.0636 78.4511C70.0637 78.6872 70.1575 78.9135 70.3244 79.0805C70.4913 79.2474 70.7177 79.3412 70.9538 79.3412H73.611C73.8471 79.3412 74.0735 79.2474 74.2404 79.0805C74.4073 78.9135 74.5011 78.6872 74.5011 78.4511C74.5011 78.1041 74.7018 77.7867 75.0181 77.6439C75.4221 77.4614 75.8068 77.2388 76.1665 76.9796C76.4488 76.7763 76.8247 76.7601 77.1261 76.934L77.1274 76.9348C77.2287 76.9933 77.3405 77.0312 77.4564 77.0465C77.5723 77.0618 77.69 77.054 77.803 77.0238C77.9159 76.9935 78.0217 76.9413 78.1145 76.8701C78.2072 76.799 78.285 76.7102 78.3435 76.609L79.6721 74.3077C79.7305 74.2065 79.7685 74.0947 79.7837 73.9788C79.799 73.8629 79.7913 73.7451 79.761 73.6322C79.7307 73.5193 79.6785 73.4134 79.6074 73.3207C79.5362 73.2279 79.4474 73.1501 79.3462 73.0917L79.3454 73.0913C79.1975 73.0064 79.0773 72.8807 78.9992 72.7292C78.9211 72.5777 78.8884 72.4068 78.9051 72.2372C78.9271 72.0196 78.9386 71.799 78.9386 71.5755Z" fill="#A5C3DC"/>
<path d="M72.2812 73.7942C73.5066 73.7942 74.5 72.8008 74.5 71.5754C74.5 70.3501 73.5066 69.3567 72.2812 69.3567C71.0559 69.3567 70.0625 70.3501 70.0625 71.5754C70.0625 72.8008 71.0559 73.7942 72.2812 73.7942Z" fill="#D7E6F0"/>
<path d="M67.8438 69.3567C69.0691 69.3567 70.0625 68.3633 70.0625 67.1379C70.0625 65.9126 69.0691 64.9192 67.8438 64.9192C66.6184 64.9192 65.625 65.9126 65.625 67.1379C65.625 68.3633 66.6184 69.3567 67.8438 69.3567Z" fill="white"/>
<path d="M72.2812 87.1067H76.7188V89.3254H72.2812V87.1067Z" fill="#555A6E"/>
<path d="M72.2812 87.1067V88.2161H73.3906C73.6848 88.2161 73.967 88.3329 74.1751 88.541C74.3831 88.749 74.5 89.0312 74.5 89.3254H76.7188V87.1067H72.2812Z" fill="#463C4B"/>
<path d="M76.7188 102.638H72.2812C71.987 102.638 71.7049 102.521 71.4968 102.313C71.2888 102.105 71.1719 101.823 71.1719 101.529V90.4348C71.1719 90.1406 71.2888 89.8584 71.4968 89.6504C71.7049 89.4423 71.987 89.3254 72.2812 89.3254H76.7188C77.013 89.3254 77.2951 89.4423 77.5032 89.6504C77.7112 89.8584 77.8281 90.1406 77.8281 90.4348V101.529C77.8281 101.823 77.7112 102.105 77.5032 102.313C77.2951 102.521 77.013 102.638 76.7188 102.638Z" fill="#5AD7FF"/>
<path d="M76.7188 102.638H74.5V89.3254H76.7188C77.013 89.3254 77.2951 89.4423 77.5032 89.6504C77.7112 89.8584 77.8281 90.1406 77.8281 90.4348V101.529C77.8281 101.823 77.7112 102.105 77.5032 102.313C77.2951 102.521 77.013 102.638 76.7188 102.638Z" fill="#2387C3"/>
<path d="M52.3125 57.8932C57.214 57.8932 61.1875 53.9198 61.1875 49.0182C61.1875 44.1167 57.214 40.1432 52.3125 40.1432C47.411 40.1432 43.4375 44.1167 43.4375 49.0182C43.4375 53.9198 47.411 57.8932 52.3125 57.8932Z" fill="#FFCD05"/>
<path d="M52.3125 102.268C57.214 102.268 61.1875 98.2948 61.1875 93.3932C61.1875 88.4917 57.214 84.5182 52.3125 84.5182C47.411 84.5182 43.4375 88.4917 43.4375 93.3932C43.4375 98.2948 47.411 102.268 52.3125 102.268Z" fill="#FFCD05"/>
<path d="M96.6875 102.268C101.589 102.268 105.562 98.2948 105.562 93.3932C105.562 88.4917 101.589 84.5182 96.6875 84.5182C91.786 84.5182 87.8125 88.4917 87.8125 93.3932C87.8125 98.2948 91.786 102.268 96.6875 102.268Z" fill="#FFCD05"/>
<path d="M50.4649 53.0859C50.3192 53.0861 50.1748 53.0575 50.0402 53.0017C49.9056 52.946 49.7833 52.8642 49.6804 52.761L47.4617 50.5422C47.2536 50.3342 47.1367 50.052 47.1367 49.7578C47.1367 49.4635 47.2536 49.1814 47.4617 48.9733C47.6697 48.7653 47.9519 48.6484 48.2461 48.6484C48.5404 48.6484 48.8225 48.7653 49.0306 48.9733L50.4649 50.4076L55.2273 45.6452C55.4353 45.4371 55.7175 45.3203 56.0117 45.3203C56.306 45.3203 56.5882 45.4371 56.7962 45.6452C57.0043 45.8532 57.1212 46.1354 57.1212 46.4297C57.1212 46.7239 57.0043 47.0061 56.7962 47.2141L51.2493 52.761C51.1464 52.8642 51.0242 52.946 50.8895 53.0017C50.7549 53.0575 50.6106 53.0861 50.4649 53.0859Z" fill="#FAA019"/>
<path d="M96.6875 57.8932C101.589 57.8932 105.562 53.9198 105.562 49.0182C105.562 44.1167 101.589 40.1432 96.6875 40.1432C91.786 40.1432 87.8125 44.1167 87.8125 49.0182C87.8125 53.9198 91.786 57.8932 96.6875 57.8932Z" fill="#FFCD05"/>
<path d="M94.8399 53.0859C94.6942 53.0861 94.5498 53.0575 94.4152 53.0017C94.2806 52.946 94.1583 52.8642 94.0554 52.761L91.8367 50.5422C91.6286 50.3342 91.5117 50.052 91.5117 49.7578C91.5117 49.4635 91.6286 49.1814 91.8367 48.9733C92.0447 48.7653 92.3269 48.6484 92.6211 48.6484C92.9154 48.6484 93.1975 48.7653 93.4056 48.9733L94.8399 50.4076L99.6023 45.6452C99.7053 45.5422 99.8276 45.4605 99.9622 45.4047C100.097 45.3489 100.241 45.3203 100.387 45.3203C100.532 45.3203 100.677 45.3489 100.811 45.4047C100.946 45.4605 101.068 45.5422 101.171 45.6452C101.274 45.7482 101.356 45.8705 101.412 46.0051C101.467 46.1397 101.496 46.284 101.496 46.4297C101.496 46.5753 101.467 46.7196 101.412 46.8542C101.356 46.9888 101.274 47.1111 101.171 47.2141L95.6243 52.761C95.5214 52.8642 95.3992 52.946 95.2645 53.0017C95.1299 53.0575 94.9856 53.0861 94.8399 53.0859ZM50.4649 97.4609C50.3192 97.4611 50.1748 97.4325 50.0402 97.3768C49.9056 97.321 49.7833 97.2392 49.6804 97.136L47.4617 94.9173C47.3586 94.8142 47.2769 94.6919 47.2212 94.5573C47.1654 94.4227 47.1367 94.2785 47.1367 94.1328C47.1367 93.9871 47.1654 93.8428 47.2212 93.7082C47.2769 93.5736 47.3586 93.4513 47.4617 93.3483C47.5647 93.2453 47.687 93.1636 47.8216 93.1078C47.9562 93.0521 48.1004 93.0234 48.2461 93.0234C48.3918 93.0234 48.5361 93.0521 48.6707 93.1078C48.8053 93.1636 48.9276 93.2453 49.0306 93.3483L50.4649 94.7826L55.2273 90.0202C55.4353 89.8121 55.7175 89.6953 56.0117 89.6953C56.306 89.6953 56.5882 89.8121 56.7962 90.0202C57.0043 90.2282 57.1212 90.5104 57.1212 90.8047C57.1212 91.0989 57.0043 91.3811 56.7962 91.5891L51.2493 97.136C51.1464 97.2392 51.0242 97.321 50.8895 97.3768C50.7549 97.4325 50.6106 97.4611 50.4649 97.4609ZM94.8399 97.4609C94.6942 97.4611 94.5498 97.4325 94.4152 97.3768C94.2806 97.321 94.1583 97.2392 94.0554 97.136L91.8367 94.9173C91.6286 94.7092 91.5117 94.427 91.5117 94.1328C91.5117 93.8386 91.6286 93.5564 91.8367 93.3483C92.0447 93.1403 92.3269 93.0234 92.6211 93.0234C92.9154 93.0234 93.1975 93.1403 93.4056 93.3483L94.8399 94.7826L99.6023 90.0202C99.8103 89.8121 100.093 89.6953 100.387 89.6953C100.681 89.6953 100.963 89.8121 101.171 90.0202C101.379 90.2282 101.496 90.5104 101.496 90.8047C101.496 91.0989 101.379 91.3811 101.171 91.5891L95.6243 97.136C95.5214 97.2392 95.3992 97.321 95.2645 97.3768C95.1299 97.4325 94.9856 97.4611 94.8399 97.4609Z" fill="#FAA019"/>
<defs>
<filter id="filter0_d_1273_318" x="0.666667" y="0.571429" width="146.667" height="146.667" filterUnits="userSpaceOnUse" color-interpolation-filters="sRGB">
<feFlood flood-opacity="0" result="BackgroundImageFix"/>
<feColorMatrix in="SourceAlpha" type="matrix" values="0 0 0 0 0 0 0 0 0 0 0 0 0 0 0 0 0 0 127 0" result="hardAlpha"/>
<feOffset dy="1.90476"/>
<feGaussianBlur stdDeviation="6.66667"/>
<feComposite in2="hardAlpha" operator="out"/>
<feColorMatrix type="matrix" values="0 0 0 0 0.695898 0 0 0 0 0.695898 0 0 0 0 0.695898 0 0 0 0.25 0"/>
<feBlend mode="normal" in2="BackgroundImageFix" result="effect1_dropShadow_1273_318"/>
<feBlend mode="normal" in="SourceGraphic" in2="effect1_dropShadow_1273_318" result="shape"/>
</filter>
</defs>
</svg>
