<svg width="239" height="42" viewBox="0 0 239 42" fill="none" xmlns="http://www.w3.org/2000/svg">
<path d="M0.705907 24.7644L8.50449 9.2681H14.2526L6.28593 24.7644H0.705907ZM0.705907 27.7225V24.7644L2.45387 23.2518H19.7318V27.7225H0.705907ZM11.8996 33V18.3104H17.0762V33H11.8996ZM24.6398 33.3698C23.7658 33.3698 23.0375 33.0672 22.4548 32.4622C21.8722 31.8571 21.5808 31.1288 21.5808 30.2772C21.5808 29.3808 21.8722 28.6413 22.4548 28.0587C23.0375 27.4536 23.7658 27.1511 24.6398 27.1511C25.5361 27.1511 26.2645 27.4536 26.8247 28.0587C27.4074 28.6413 27.6987 29.3808 27.6987 30.2772C27.6987 31.1288 27.4074 31.8571 26.8247 32.4622C26.2645 33.0672 25.5361 33.3698 24.6398 33.3698ZM31.7676 33L39.8351 12.2262H44.9782L37.2132 33H31.7676ZM28.6079 13.7388V9.2681H44.9782V12.2262L43.2302 13.7388H28.6079Z" fill="#092A35"/>
<path d="M89.3217 18.7931L83.1874 24.7728L84.6361 33.2185C84.6671 33.3996 84.6468 33.5857 84.5776 33.7559C84.5083 33.9261 84.3928 34.0736 84.2442 34.1815C84.0955 34.2895 83.9196 34.3538 83.7363 34.367C83.5531 34.3802 83.3697 34.3419 83.2071 34.2564L75.6222 30.269L68.0382 34.2554C67.8756 34.341 67.6922 34.3793 67.509 34.366C67.3257 34.3528 67.1498 34.2885 67.0011 34.1806C66.8525 34.0726 66.737 33.9251 66.6677 33.7549C66.5985 33.5848 66.5782 33.3986 66.6092 33.2175L68.0579 24.7718L61.9226 18.7931C61.7909 18.6648 61.6977 18.5022 61.6537 18.3236C61.6096 18.1451 61.6164 17.9579 61.6733 17.783C61.7302 17.6082 61.8349 17.4528 61.9755 17.3344C62.1162 17.2159 62.2872 17.1393 62.4691 17.113L70.9473 15.882L74.7388 8.19856C75.0707 7.52594 76.1736 7.52594 76.5055 8.19856L80.297 15.882L88.7752 17.113C88.9567 17.1399 89.1272 17.217 89.2674 17.3355C89.4075 17.454 89.5119 17.6093 89.5687 17.7838C89.6254 17.9583 89.6324 18.1453 89.5888 18.3236C89.5452 18.5019 89.4527 18.6644 89.3217 18.7931Z" fill="#E62415"/>
<path d="M126.095 18.7931L119.961 24.7728L121.409 33.2185C121.441 33.3996 121.42 33.5857 121.351 33.7559C121.282 33.9261 121.166 34.0736 121.018 34.1815C120.869 34.2895 120.693 34.3538 120.51 34.367C120.326 34.3802 120.143 34.3419 119.981 34.2564L112.396 30.269L104.812 34.2554C104.649 34.341 104.466 34.3793 104.282 34.366C104.099 34.3528 103.923 34.2885 103.775 34.1806C103.626 34.0726 103.51 33.9251 103.441 33.7549C103.372 33.5848 103.352 33.3986 103.383 33.2175L104.831 24.7718L98.696 18.7931C98.5643 18.6648 98.4712 18.5022 98.4271 18.3236C98.3831 18.1451 98.3899 17.9579 98.4467 17.783C98.5036 17.6082 98.6083 17.4528 98.749 17.3344C98.8896 17.2159 99.0606 17.1393 99.2426 17.113L107.721 15.882L111.512 8.19856C111.844 7.52594 112.947 7.52594 113.279 8.19856L117.07 15.882L125.549 17.113C125.73 17.1399 125.901 17.217 126.041 17.3355C126.181 17.454 126.285 17.6093 126.342 17.7838C126.399 17.9583 126.406 18.1453 126.362 18.3236C126.319 18.5019 126.226 18.6644 126.095 18.7931Z" fill="#E62415"/>
<path d="M162.861 18.7931L156.726 24.7728L158.175 33.2185C158.206 33.3996 158.186 33.5857 158.117 33.7559C158.047 33.9261 157.932 34.0736 157.783 34.1815C157.635 34.2895 157.459 34.3538 157.275 34.367C157.092 34.3802 156.909 34.3419 156.746 34.2564L149.161 30.269L141.577 34.2554C141.415 34.341 141.231 34.3793 141.048 34.366C140.865 34.3528 140.689 34.2885 140.54 34.1806C140.392 34.0726 140.276 33.9251 140.207 33.7549C140.138 33.5848 140.117 33.3986 140.148 33.2175L141.597 24.7718L135.462 18.7931C135.33 18.6648 135.237 18.5022 135.193 18.3236C135.149 18.1451 135.155 17.9579 135.212 17.783C135.269 17.6082 135.374 17.4528 135.515 17.3344C135.655 17.2159 135.826 17.1393 136.008 17.113L144.486 15.882L148.278 8.19856C148.61 7.52594 149.713 7.52594 150.045 8.19856L153.836 15.882L162.314 17.113C162.496 17.1399 162.666 17.217 162.806 17.3355C162.947 17.454 163.051 17.6093 163.108 17.7838C163.164 17.9583 163.171 18.1453 163.128 18.3236C163.084 18.5019 162.992 18.6644 162.861 18.7931Z" fill="#E62415"/>
<path d="M199.626 18.7931L193.492 24.7728L194.941 33.2185C194.972 33.3996 194.952 33.5857 194.882 33.7559C194.813 33.9261 194.698 34.0736 194.549 34.1815C194.4 34.2895 194.224 34.3538 194.041 34.367C193.858 34.3802 193.674 34.3419 193.512 34.2564L185.927 30.269L178.343 34.2554C178.18 34.341 177.997 34.3793 177.814 34.366C177.63 34.3528 177.454 34.2885 177.306 34.1806C177.157 34.0726 177.042 33.9251 176.972 33.7549C176.903 33.5848 176.883 33.3986 176.914 33.2175L178.363 24.7718L172.227 18.7931C172.096 18.6648 172.002 18.5022 171.958 18.3236C171.914 18.1451 171.921 17.9579 171.978 17.783C172.035 17.6082 172.14 17.4528 172.28 17.3344C172.421 17.2159 172.592 17.1393 172.774 17.113L181.252 15.882L185.043 8.19856C185.375 7.52594 186.478 7.52594 186.81 8.19856L190.602 15.882L199.08 17.113C199.261 17.1399 199.432 17.217 199.572 17.3355C199.712 17.454 199.817 17.6093 199.873 17.7838C199.93 17.9583 199.937 18.1453 199.893 18.3236C199.85 18.5019 199.757 18.6644 199.626 18.7931Z" fill="#E62415"/>
<path d="M236.4 18.7931L230.266 24.7728L231.714 33.2185C231.745 33.3996 231.725 33.5857 231.656 33.7559C231.586 33.9261 231.471 34.0736 231.322 34.1815C231.174 34.2895 230.998 34.3538 230.814 34.367C230.631 34.3802 230.448 34.3419 230.285 34.2564L222.7 30.269L215.116 34.2555C214.954 34.341 214.77 34.3793 214.587 34.366C214.404 34.3528 214.228 34.2885 214.079 34.1806C213.931 34.0726 213.815 33.9251 213.746 33.7549C213.677 33.5848 213.656 33.3986 213.687 33.2175L215.136 24.7718L209.001 18.7931C208.869 18.6648 208.776 18.5022 208.732 18.3236C208.688 18.1451 208.695 17.9579 208.751 17.783C208.808 17.6082 208.913 17.4528 209.054 17.3344C209.194 17.2159 209.365 17.1393 209.547 17.113L218.025 15.882L221.817 8.19856C222.149 7.52594 223.252 7.52594 223.584 8.19856L227.375 15.882L235.853 17.113C236.035 17.1399 236.205 17.217 236.345 17.3355C236.486 17.454 236.59 17.6093 236.647 17.7838C236.704 17.9583 236.711 18.1453 236.667 18.3236C236.623 18.5019 236.531 18.6644 236.4 18.7931Z" fill="#43555A"/>
<path d="M215.116 34.2562L222.7 30.2697V7.87925C222.637 7.74247 222.175 7.87976 221.817 8.19931L218.025 15.8827L209.547 17.1137C209.365 17.14 209.194 17.2167 209.054 17.3351C208.913 17.4535 208.808 17.609 208.751 17.7838C208.695 17.9586 208.688 18.1459 208.732 18.3244C208.776 18.5029 208.869 18.6655 209.001 18.7938L215.136 24.7726L213.687 33.2182C213.656 33.3993 213.677 33.5855 213.746 33.7557C213.815 33.9259 213.931 34.0733 214.079 34.1813C214.228 34.2893 214.404 34.3535 214.587 34.3668C214.77 34.38 214.954 34.3417 215.116 34.2562Z" fill="#E62415"/>
</svg>
