<svg width="148" height="148" viewBox="0 0 148 148" fill="none" xmlns="http://www.w3.org/2000/svg">
<g filter="url(#filter0_d_2014_957)">
<circle cx="74" cy="72" r="60" fill="white"/>
</g>
<path fill-rule="evenodd" clip-rule="evenodd" d="M64.0391 85.774H84.9587V97.6898H64.0391V85.774Z" fill="#A79BA7"/>
<path fill-rule="evenodd" clip-rule="evenodd" d="M83.3359 85.774H84.9583V97.6898H83.3359V85.774Z" fill="#837683"/>
<path fill-rule="evenodd" clip-rule="evenodd" d="M51.8867 102.77H97.1116V99.2835C97.1116 97.3659 95.148 95.797 92.7479 95.797H56.2504C53.8503 95.797 51.8867 97.3659 51.8867 99.2835V102.77Z" fill="#ECEFF1"/>
<path fill-rule="evenodd" clip-rule="evenodd" d="M51.8867 102.77H97.1116V99.2835C97.1116 98.1439 96.418 97.1274 95.3515 96.4902C95.5912 96.9209 95.7248 97.397 95.7248 97.8968V101.383H51.8867V102.77Z" fill="#D1D1D6"/>
<path fill-rule="evenodd" clip-rule="evenodd" d="M46.3357 42.2299H102.664C105.479 42.2299 107.781 44.5326 107.781 47.347V82.55C107.781 85.3643 105.478 87.6671 102.664 87.6671H46.3357C43.5214 87.6671 41.2188 85.3644 41.2188 82.55V47.347C41.2188 44.5325 43.5214 42.2299 46.3357 42.2299Z" fill="#ECEFF1"/>
<path fill-rule="evenodd" clip-rule="evenodd" d="M105.518 43.1058C106.88 44.0277 107.78 45.5874 107.78 47.347V82.5499C107.78 85.3643 105.477 87.6671 102.663 87.6671H46.3348C44.5751 87.6671 43.0156 86.767 42.0938 85.4044C42.936 85.9757 43.9303 86.2808 44.948 86.2802H101.276C104.091 86.2802 106.394 83.9776 106.394 81.1632V45.9603C106.394 44.9425 106.089 43.9481 105.518 43.1058Z" fill="#D1D1D6"/>
<path fill-rule="evenodd" clip-rule="evenodd" d="M46.2058 46.5089H102.791C103.181 46.5089 103.501 46.8285 103.501 47.2186V79.0843H45.4961V47.2186C45.4961 46.8284 45.8155 46.5089 46.2058 46.5089Z" fill="#D8ECFE"/>
<path fill-rule="evenodd" clip-rule="evenodd" d="M100.02 46.5089H102.793C103.183 46.5089 103.503 46.8285 103.503 47.2186V79.0843H100.729V47.2186C100.729 46.8284 100.41 46.5089 100.02 46.5089Z" fill="#C4E2FF"/>
<path fill-rule="evenodd" clip-rule="evenodd" d="M64.5581 70.7311H66.8861C67.4389 70.7311 67.8896 71.1819 67.8896 71.7345V78.0441C67.8896 78.5968 67.4387 79.0475 66.8861 79.0475H64.5581C64.0054 79.0475 63.5547 78.5967 63.5547 78.0441V71.7345C63.5547 71.1819 64.0054 70.7311 64.5581 70.7311Z" fill="#FE646F"/>
<path fill-rule="evenodd" clip-rule="evenodd" d="M65.6328 70.7311H66.8872C67.4398 70.7311 67.8907 71.1819 67.8907 71.7345V78.0441C67.8907 78.5968 67.4398 79.0475 66.8872 79.0475H65.6328C66.1856 79.0475 66.6362 78.5967 66.6362 78.0441V71.7345C66.6362 71.1819 66.1854 70.7311 65.6328 70.7311Z" fill="#FD4755"/>
<path fill-rule="evenodd" clip-rule="evenodd" d="M73.7925 63.4174H76.1205C76.6733 63.4174 77.1239 63.8682 77.1239 64.4208V78.0441C77.1239 78.5969 76.6733 79.0475 76.1205 79.0475H73.7925C73.2397 79.0475 72.7891 78.5967 72.7891 78.0441V64.4208C72.7891 63.8682 73.2399 63.4174 73.7925 63.4174Z" fill="#FFE177"/>
<path fill-rule="evenodd" clip-rule="evenodd" d="M74.8633 63.4174H76.1177C76.6705 63.4174 77.1211 63.8682 77.1211 64.4208V78.0441C77.1211 78.5969 76.6705 79.0475 76.1177 79.0475H74.8633C75.416 79.0475 75.8667 78.5967 75.8667 78.0441V64.4208C75.8667 63.8682 75.416 63.4174 74.8633 63.4174Z" fill="#FFD064"/>
<path fill-rule="evenodd" clip-rule="evenodd" d="M83.023 66.3739H85.3511C85.9039 66.3739 86.3546 66.8247 86.3546 67.3773V78.0441C86.3546 78.5969 85.9037 79.0475 85.3511 79.0475H83.023C82.4702 79.0475 82.0195 78.5967 82.0195 78.0441V67.3773C82.0195 66.8247 82.4702 66.3739 83.023 66.3739Z" fill="#6CF5C2"/>
<path fill-rule="evenodd" clip-rule="evenodd" d="M84.0977 66.3739H85.3521C85.9048 66.3739 86.3555 66.8247 86.3555 67.3773V78.0441C86.3555 78.5969 85.9048 79.0477 85.3521 79.0477H84.0977C84.6504 79.0477 85.1012 78.5969 85.1011 78.0441V67.3773C85.1012 66.8247 84.6503 66.3739 84.0977 66.3739Z" fill="#00E499"/>
<path fill-rule="evenodd" clip-rule="evenodd" d="M92.2573 57.731H94.5855C95.1382 57.731 95.5889 58.1817 95.5889 58.7344V78.0441C95.5889 78.5967 95.1382 79.0475 94.5855 79.0475H92.2573C91.7046 79.0475 91.2539 78.5967 91.2539 78.0441V58.7344C91.2539 58.1817 91.7046 57.731 92.2573 57.731Z" fill="#8AC9FE"/>
<path fill-rule="evenodd" clip-rule="evenodd" d="M93.332 57.731H94.5865C95.1392 57.731 95.5899 58.1817 95.5899 58.7344V78.0441C95.5899 78.5968 95.1391 79.0475 94.5865 79.0475H93.332C93.8848 79.0475 94.3355 78.5967 94.3355 78.0441V58.7344C94.3355 58.1817 93.8846 57.731 93.332 57.731Z" fill="#60B7FF"/>
<path fill-rule="evenodd" clip-rule="evenodd" d="M66.3899 63.2199C66.1563 63.3927 65.864 63.4665 65.5764 63.4253C65.2888 63.384 65.029 63.2311 64.8534 62.9996C64.6778 62.7681 64.6005 62.4768 64.6383 62.1887C64.676 61.9006 64.8258 61.639 65.0552 61.4606L74.2882 54.4499C74.4438 54.3318 74.6279 54.2571 74.8217 54.2334C75.0156 54.2097 75.2122 54.2379 75.3917 54.315L75.3933 54.3111L83.972 58L89.6916 52.7965L89.1139 52.7986C88.8239 52.794 88.5473 52.6755 88.3438 52.4688C88.1403 52.262 88.0262 51.9836 88.0262 51.6935C88.0262 51.4034 88.1403 51.125 88.3438 50.9182C88.5473 50.7115 88.8239 50.593 89.1139 50.5884L92.5635 50.5758C92.7266 50.5758 92.8876 50.6119 93.0351 50.6815C93.1826 50.7511 93.3128 50.8525 93.4165 50.9783C93.5202 51.1042 93.5947 51.2515 93.6348 51.4095C93.6749 51.5676 93.6794 51.7326 93.6482 51.8926L93.6513 51.8932L92.9823 55.2773C92.9544 55.4202 92.8987 55.5561 92.8182 55.6774C92.7378 55.7987 92.6343 55.903 92.5136 55.9842C92.3929 56.0655 92.2573 56.1222 92.1147 56.1511C91.972 56.18 91.8251 56.1805 91.6823 56.1526C91.5394 56.1247 91.4035 56.069 91.2822 55.9886C91.1609 55.9081 91.0567 55.8046 90.9754 55.6839C90.8941 55.5632 90.8374 55.4276 90.8085 55.285C90.7796 55.1423 90.7791 54.9954 90.807 54.8526L90.8254 54.7593L84.9733 60.0833C84.8165 60.2402 84.6162 60.3464 84.3984 60.3882C84.1805 60.4301 83.9551 60.4056 83.7513 60.3181L75.1071 56.601L66.3899 63.2199Z" fill="#A79BA7"/>
<path fill-rule="evenodd" clip-rule="evenodd" d="M60.1419 52.6294C60.9004 52.81 61.6252 53.1105 62.289 53.5195L63.6842 52.8999L65.3285 54.5443L64.7091 55.9391C65.1181 56.603 65.4187 57.328 65.5993 58.0867L67.0228 58.6346V60.96L65.5991 61.508C65.4184 62.2664 65.1179 62.9912 64.7089 63.655L65.3287 65.0502L63.6843 66.6946L62.2895 66.0752C61.6256 66.4842 60.9006 66.7848 60.1419 66.9654L59.594 68.3888H57.2686L56.7206 66.965C55.9622 66.7843 55.2374 66.4838 54.5735 66.0749L53.1784 66.6945L51.534 65.0501L52.1534 63.6553C51.7444 62.9913 51.4439 62.2664 51.2632 61.5077L49.8398 60.9598V58.6343L51.2634 58.0864C51.4441 57.3279 51.7446 56.6031 52.1536 55.9392L51.534 54.5442L53.1784 52.8998L54.5735 53.5194C55.2374 53.1104 55.9622 52.81 56.7206 52.6292L57.2686 51.2055H59.594L60.1419 52.6294Z" fill="#FFE177"/>
<path fill-rule="evenodd" clip-rule="evenodd" d="M54.5748 66.0748L53.1796 66.6944L52.9648 66.4796L54.2729 65.8987C54.3722 65.9598 54.4729 66.0185 54.5748 66.0748ZM60.1433 52.6294C60.9018 52.8101 61.6266 53.1106 62.2904 53.5196L61.8938 53.6957C61.2298 53.2869 60.2034 52.81 59.4448 52.6294L58.8968 51.2057H59.5953L60.1433 52.6294ZM62.2908 66.0749C61.6268 66.484 60.9019 66.7845 60.1432 66.9652L59.5953 68.3885H58.8968L59.4447 66.9652C60.2035 66.7846 61.2301 66.3078 61.8942 65.8988L62.2908 66.0749ZM52.9648 53.1146L53.1796 52.8998L54.5748 53.5194C54.4729 53.5757 54.3722 53.6344 54.2729 53.6955L52.9648 53.1146ZM63.2017 53.1146L63.6854 52.8998L65.3298 54.5442L64.7104 55.939C65.1194 56.603 65.42 57.3279 65.6006 58.0866L67.0241 58.6345V60.9599L65.6003 61.5079C65.4196 62.2663 65.1192 62.9911 64.7102 63.655L65.3299 65.0501L63.6856 66.6945L63.2019 66.4797L64.6313 65.0501L64.0117 63.655C64.4207 62.9911 64.7212 62.2664 64.9019 61.5079L66.3256 60.9599V58.6345L64.9021 58.0866C64.7215 57.3279 64.421 56.6029 64.0119 55.939L64.6313 54.5442L63.2017 53.1146Z" fill="#FFD064"/>
<path d="M58.4303 63.8524C60.67 63.8524 62.4856 62.0368 62.4856 59.7971C62.4856 57.5574 60.67 55.7418 58.4303 55.7418C56.1906 55.7418 54.375 57.5574 54.375 59.7971C54.375 62.0368 56.1906 63.8524 58.4303 63.8524Z" fill="#ECEFF1"/>
<path fill-rule="evenodd" clip-rule="evenodd" d="M58.4302 55.7418C56.1904 55.7418 54.375 57.5571 54.375 59.7971C54.375 62.0369 56.1905 63.8523 58.4302 63.8523C58.5388 63.8523 58.6464 63.8478 58.7527 63.8395C56.6638 63.6752 55.02 61.9283 55.02 59.7971C55.02 57.6658 56.6636 55.9188 58.7527 55.7545C58.6454 55.7461 58.5378 55.7418 58.4302 55.7418Z" fill="#D1D1D6"/>
<defs>
<filter id="filter0_d_2014_957" x="0.666667" y="0.571429" width="146.667" height="146.667" filterUnits="userSpaceOnUse" color-interpolation-filters="sRGB">
<feFlood flood-opacity="0" result="BackgroundImageFix"/>
<feColorMatrix in="SourceAlpha" type="matrix" values="0 0 0 0 0 0 0 0 0 0 0 0 0 0 0 0 0 0 127 0" result="hardAlpha"/>
<feOffset dy="1.90476"/>
<feGaussianBlur stdDeviation="6.66667"/>
<feComposite in2="hardAlpha" operator="out"/>
<feColorMatrix type="matrix" values="0 0 0 0 0.695898 0 0 0 0 0.695898 0 0 0 0 0.695898 0 0 0 0.25 0"/>
<feBlend mode="normal" in2="BackgroundImageFix" result="effect1_dropShadow_2014_957"/>
<feBlend mode="normal" in="SourceGraphic" in2="effect1_dropShadow_2014_957" result="shape"/>
</filter>
</defs>
</svg>
