<svg width="148" height="148" viewBox="0 0 148 148" fill="none" xmlns="http://www.w3.org/2000/svg">
<g filter="url(#filter0_d_2030_978)">
<circle cx="74" cy="72" r="60" fill="white"/>
</g>
<path fill-rule="evenodd" clip-rule="evenodd" d="M72.9798 44.8712H94.0092C97.887 44.8712 101.059 48.0435 101.059 51.9213V96.568C101.059 100.444 97.8869 103.617 94.0092 103.617H72.9798C69.1019 103.617 65.9297 100.445 65.9297 96.568V51.9213C65.9297 48.0435 69.1021 44.8712 72.9798 44.8712Z" fill="#ECEFF1"/>
<path fill-rule="evenodd" clip-rule="evenodd" d="M72.9791 45.6594C69.5253 45.6594 66.7173 48.4689 66.7173 51.9213V91.3038H100.27V51.9213C100.27 48.4689 97.4621 45.6594 94.0085 45.6594H72.9791ZM94.0085 104.405H72.9791C68.6568 104.405 65.1406 100.89 65.1406 96.568V51.9213C65.1406 47.599 68.6568 44.0829 72.9791 44.0829H94.0085C98.3306 44.0829 101.847 47.599 101.847 51.9213V96.568C101.847 100.89 98.3306 104.405 94.0085 104.405Z" fill="#3F323E"/>
<path fill-rule="evenodd" clip-rule="evenodd" d="M72.9791 45.6594C71.2954 45.6594 69.7656 46.3272 68.6393 47.4113C67.1368 48.5563 66.1655 50.3638 66.1655 52.3941V91.7766H100.27V51.9212C100.27 48.4688 97.4621 45.6594 94.0085 45.6594H72.9791ZM67.6154 46.2109C68.9445 45.1741 70.615 44.5557 72.4274 44.5557H93.4569C97.7791 44.5557 101.295 48.072 101.295 52.3941V97.0408C101.295 99.2897 100.343 101.32 98.821 102.75C97.4918 103.787 95.8212 104.405 94.0086 104.405H72.9791C68.6568 104.405 65.1406 100.89 65.1406 96.5679V51.9212C65.1406 49.6721 66.093 47.6415 67.6154 46.2109Z" fill="#4E3D4D"/>
<path fill-rule="evenodd" clip-rule="evenodd" d="M86.3045 50.3786H80.6829C80.2465 50.3786 79.8945 50.0252 79.8945 49.5902C79.8945 49.1552 80.2465 48.8019 80.6829 48.8019H86.3045C86.7409 48.8019 87.0928 49.1552 87.0928 49.5902C87.0928 50.0252 86.7408 50.3786 86.3045 50.3786Z" fill="#3F323E"/>
<path fill-rule="evenodd" clip-rule="evenodd" d="M86.3045 50.3786H80.6829C80.5793 50.3786 80.4768 50.3583 80.3811 50.3187C80.2855 50.2791 80.1985 50.221 80.1253 50.1478C80.0521 50.0746 79.994 49.9876 79.9544 49.892C79.9148 49.7963 79.8945 49.6938 79.8945 49.5902C79.8945 49.4839 79.9156 49.3825 79.9537 49.2899C80.0935 49.1777 80.2673 49.1168 80.4464 49.1171H86.0681C86.1716 49.117 86.2741 49.1374 86.3698 49.177C86.4655 49.2166 86.5524 49.2747 86.6256 49.3479C86.6988 49.4211 86.7569 49.508 86.7965 49.6037C86.8361 49.6993 86.8565 49.8019 86.8564 49.9054C86.8564 50.0118 86.8353 50.1131 86.7972 50.2058C86.6575 50.3179 86.4836 50.3789 86.3045 50.3786Z" fill="#4E3D4D"/>
<path fill-rule="evenodd" clip-rule="evenodd" d="M86.3045 98.4803H80.6829C80.2465 98.4803 79.8945 98.1296 79.8945 97.6934C79.8945 97.2571 80.2465 96.905 80.6829 96.905H86.3045C86.4081 96.9049 86.5107 96.9251 86.6064 96.9647C86.7021 97.0043 86.7891 97.0623 86.8623 97.1356C86.9356 97.2088 86.9936 97.2958 87.0332 97.3915C87.0727 97.4872 87.093 97.5898 87.0928 97.6934C87.093 97.7969 87.0727 97.8994 87.0331 97.995C86.9935 98.0906 86.9354 98.1775 86.8621 98.2506C86.7889 98.3237 86.7019 98.3817 86.6062 98.4211C86.5105 98.4605 86.408 98.4807 86.3045 98.4803Z" fill="#D4D7D9"/>
<path fill-rule="evenodd" clip-rule="evenodd" d="M86.3045 98.4804H80.6829C80.5794 98.4807 80.4768 98.4605 80.3811 98.4211C80.2854 98.3817 80.1985 98.3238 80.1252 98.2507C80.052 98.1775 79.9939 98.0907 79.9543 97.995C79.9147 97.8994 79.8944 97.7969 79.8945 97.6934C79.8945 97.6225 79.904 97.5538 79.9213 97.4885C79.9952 97.4069 80.0853 97.3418 80.186 97.2973C80.2866 97.2528 80.3955 97.2299 80.5055 97.2301H86.1271C86.2307 97.2299 86.3333 97.2502 86.429 97.2898C86.5247 97.3293 86.6117 97.3874 86.685 97.4606C86.7582 97.5339 86.8163 97.6209 86.8558 97.7166C86.8954 97.8123 86.9157 97.9149 86.9155 98.0185C86.9155 98.0892 86.9062 98.1575 86.8889 98.2226C86.8149 98.304 86.7247 98.369 86.624 98.4134C86.5234 98.4579 86.4145 98.4807 86.3045 98.4804Z" fill="#ECEFF1"/>
<path fill-rule="evenodd" clip-rule="evenodd" d="M90.4895 85.3505H86.1133C84.9177 85.3505 83.9492 84.3784 83.9492 83.1864V78.8127C83.9492 77.6207 84.9177 76.6484 86.1133 76.6484H90.4895C91.6852 76.6484 92.6538 77.6205 92.6538 78.8127V83.1864C92.6538 84.3786 91.6853 85.3505 90.4895 85.3505Z" fill="#00CD8A"/>
<path fill-rule="evenodd" clip-rule="evenodd" d="M88.3007 75.326C86.1366 75.326 84.3789 73.5624 84.3789 71.397C84.3789 69.2304 86.1366 67.468 88.3007 67.468C90.4649 67.468 92.2344 69.2304 92.2344 71.397C92.2344 73.5624 90.4648 75.326 88.3007 75.326Z" fill="#E4404D"/>
<path fill-rule="evenodd" clip-rule="evenodd" d="M81.473 84.9836H75.9251C75.3511 84.9836 74.837 84.6882 74.55 84.1957C74.4148 83.9546 74.3438 83.6829 74.3438 83.4065C74.3438 83.1301 74.4148 82.8583 74.55 82.6173L77.3359 77.8047C77.6228 77.3109 78.1251 77.0155 78.6989 77.0155C79.2729 77.0155 79.775 77.3109 80.0619 77.8047L82.8478 82.6173C82.9831 82.8583 83.0541 83.1301 83.0541 83.4065C83.0541 83.6829 82.9831 83.9546 82.8478 84.1957C82.5611 84.6882 82.047 84.9836 81.473 84.9836Z" fill="#E6BD5C"/>
<path fill-rule="evenodd" clip-rule="evenodd" d="M80.888 75.7469H76.5118C75.3161 75.7469 74.3477 74.776 74.3477 73.5839V69.21C74.3477 68.0155 75.3161 67.0459 76.5118 67.0459H80.888C82.0836 67.0459 83.0521 68.0156 83.0521 69.21V73.5839C83.0521 74.776 82.0836 75.7469 80.888 75.7469Z" fill="#56A5E6"/>
<path fill-rule="evenodd" clip-rule="evenodd" d="M84.4418 77.4393C84.7622 77.2613 85.1228 77.1681 85.4893 77.1686H89.8655C91.0611 77.1686 92.0298 78.1407 92.0298 79.3327V83.7064C92.0298 84.2271 91.8451 84.7057 91.5372 85.0798C91.2168 85.2578 90.8561 85.351 90.4895 85.3505H86.1133C84.9177 85.3505 83.9492 84.3784 83.9492 83.1864V78.8127C83.9492 78.292 84.1341 77.8133 84.4418 77.4393Z" fill="#00E499"/>
<path fill-rule="evenodd" clip-rule="evenodd" d="M85.4977 68.6514C86.1417 68.2181 86.9006 67.9871 87.6768 67.988C89.8411 67.988 91.6105 69.7504 91.6105 71.917C91.6105 72.982 91.1823 73.9495 90.4898 74.6582C89.843 75.094 89.0806 75.3266 88.3007 75.326C86.1366 75.326 84.3789 73.5624 84.3789 71.397C84.3789 70.3295 84.8059 69.3602 85.4977 68.6514Z" fill="#FD4755"/>
<path fill-rule="evenodd" clip-rule="evenodd" d="M77.4187 77.6763C77.6248 77.5826 77.8488 77.5346 78.0752 77.5355C78.6491 77.5355 79.1513 77.8309 79.4382 78.3247L82.2241 83.1373C82.3593 83.3784 82.4303 83.6501 82.4303 83.9265C82.4303 84.2029 82.3593 84.4746 82.2241 84.7157C82.1997 84.7574 82.1735 84.7981 82.1456 84.8376C81.9347 84.9344 81.7052 84.9843 81.473 84.9836H75.9251C75.3511 84.9836 74.837 84.6882 74.55 84.1957C74.4148 83.9546 74.3438 83.6829 74.3438 83.4065C74.3438 83.1301 74.4148 82.8584 74.55 82.6173L77.3359 77.8047C77.362 77.7602 77.3896 77.7175 77.4187 77.6763Z" fill="#FFD266"/>
<path fill-rule="evenodd" clip-rule="evenodd" d="M80.888 75.7469H76.5118C75.3161 75.7469 74.3477 74.776 74.3477 73.5839V69.21C74.3477 68.6887 74.5321 68.2103 74.8394 67.8366C75.1601 67.6586 75.521 67.5654 75.8879 67.5659H80.2641C81.4597 67.5659 82.4282 68.5357 82.4282 69.73V74.1037C82.4282 74.624 82.2436 75.1022 81.9363 75.4759C81.6157 75.6541 81.2548 75.7473 80.888 75.7469Z" fill="#60B7FF"/>
<path fill-rule="evenodd" clip-rule="evenodd" d="M63.5819 65.7885H53.9901C52.4741 65.7885 51.24 64.5543 51.24 63.0397C51.24 61.8538 50.8643 60.8451 50.0729 59.9583C48.1814 57.828 47.1484 55.0873 47.1484 52.2366C47.1484 45.8175 52.3669 40.595 58.7927 40.595C65.2052 40.595 70.4235 45.8174 70.4235 52.2366C70.4235 55.0873 69.3906 57.828 67.4991 59.9583C66.7076 60.8451 66.3319 61.8538 66.3319 63.0397C66.3319 64.5543 65.0977 65.7885 63.5819 65.7885Z" fill="#E6BD5C"/>
<path fill-rule="evenodd" clip-rule="evenodd" d="M63.5819 65.7885H53.9901C52.4741 65.7885 51.24 64.5543 51.24 63.0398C51.24 61.8538 50.8643 60.8451 50.0729 59.9583C48.1814 57.8281 47.1484 55.0873 47.1484 52.2367C47.1484 48.1368 49.2773 44.5255 52.4897 42.4509C54.0395 41.6866 55.7827 41.2563 57.6257 41.2563C64.0381 41.2563 69.2565 46.4787 69.2565 52.8979C69.2565 55.7485 68.2235 58.4892 66.332 60.6195C65.5405 61.5062 65.1648 62.515 65.1648 63.7009C65.1648 64.4824 64.8363 65.1892 64.3101 65.6903C64.0728 65.7556 63.8279 65.7887 63.5819 65.7885Z" fill="#FFD266"/>
<path fill-rule="evenodd" clip-rule="evenodd" d="M63.596 68.4459H53.9773C53.548 68.4459 53.1992 68.0972 53.1992 67.6679C53.1992 67.2385 53.548 66.8898 53.9773 66.8898H63.596C63.8023 66.8899 64.0001 66.9719 64.146 67.1178C64.2919 67.2637 64.3739 67.4615 64.3741 67.6679C64.3739 67.8742 64.2919 68.072 64.146 68.2179C64.0001 68.3638 63.8023 68.4458 63.596 68.4459ZM61.7178 73.7597H55.8555C55.6493 73.7599 55.4515 73.6781 55.3056 73.5325C55.1597 73.3868 55.0776 73.1892 55.0774 72.983C55.0774 72.8808 55.0975 72.7796 55.1365 72.6852C55.1756 72.5908 55.2329 72.505 55.3052 72.4327C55.3775 72.3605 55.4633 72.3032 55.5577 72.2641C55.6521 72.225 55.7533 72.2049 55.8555 72.2049H61.7178C61.8212 72.203 61.9238 72.2216 62.0199 72.2598C62.1159 72.298 62.2033 72.355 62.2771 72.4274C62.3509 72.4997 62.4095 72.5861 62.4495 72.6814C62.4894 72.7767 62.51 72.879 62.51 72.9823C62.51 73.0857 62.4894 73.188 62.4495 73.2833C62.4095 73.3785 62.3509 73.4649 62.2771 73.5373C62.2033 73.6097 62.1159 73.6666 62.0199 73.7048C61.9238 73.743 61.8212 73.7617 61.7178 73.7597ZM63.596 71.1036H53.9773C53.771 71.1034 53.5732 71.0214 53.4273 70.8755C53.2814 70.7296 53.1994 70.5318 53.1992 70.3255C53.1994 70.1192 53.2814 69.9214 53.4273 69.7755C53.5732 69.6296 53.771 69.5476 53.9773 69.5474H63.596C63.8023 69.5476 64.0001 69.6296 64.146 69.7755C64.2919 69.9214 64.3739 70.1192 64.3741 70.3255C64.3739 70.5318 64.2919 70.7296 64.146 70.8755C64.0001 71.0214 63.8023 71.1034 63.596 71.1036Z" fill="#3F323E"/>
<path fill-rule="evenodd" clip-rule="evenodd" d="M63.5958 68.446H53.9771C53.8527 68.4459 53.7301 68.4159 53.6196 68.3586C53.5091 68.3014 53.4139 68.2184 53.3421 68.1168C53.2702 68.0152 53.2238 67.8978 53.2066 67.7745C53.1895 67.6513 53.2022 67.5257 53.2436 67.4083C53.3455 67.3613 53.4564 67.3371 53.5686 67.3372H63.1872C63.3116 67.3373 63.4343 67.3672 63.5448 67.4245C63.6553 67.4818 63.7504 67.5647 63.8223 67.6663C63.8941 67.768 63.9406 67.8853 63.9577 68.0086C63.9748 68.1319 63.9622 68.2575 63.9207 68.3748C63.8189 68.4218 63.708 68.4461 63.5958 68.446ZM55.1216 72.7232C55.2236 72.6763 55.3345 72.6521 55.4468 72.6522H61.3091C61.4336 72.6521 61.5562 72.6819 61.6667 72.739C61.7772 72.7961 61.8724 72.8789 61.9443 72.9805C62.0162 73.082 62.0627 73.1993 62.0799 73.3225C62.0971 73.4457 62.0845 73.5713 62.0431 73.6886C61.9411 73.7356 61.83 73.7599 61.7177 73.7597H55.8553C55.7309 73.7598 55.6083 73.7301 55.4977 73.6729C55.3872 73.6158 55.292 73.533 55.2201 73.4314C55.1482 73.3299 55.1017 73.2125 55.0846 73.0893C55.0675 72.9661 55.0801 72.8405 55.1216 72.7232ZM53.2437 70.0659C53.3456 70.019 53.4565 69.9947 53.5688 69.9948H63.1873C63.3118 69.9949 63.4344 70.0249 63.5449 70.0821C63.6554 70.1394 63.7506 70.2223 63.8224 70.324C63.8943 70.4256 63.9407 70.543 63.9578 70.6663C63.975 70.7895 63.9623 70.9151 63.9209 71.0325C63.819 71.0795 63.7081 71.1037 63.5958 71.1036H53.9771C53.8527 71.1035 53.7301 71.0735 53.6196 71.0162C53.5091 70.959 53.414 70.876 53.3421 70.7744C53.2703 70.6728 53.2239 70.5554 53.2068 70.4321C53.1896 70.3089 53.2023 70.1833 53.2437 70.0659Z" fill="#4E3D4D"/>
<path fill-rule="evenodd" clip-rule="evenodd" d="M52.0458 52.1803C52.0056 52.1803 51.9787 52.1789 51.9384 52.1763C51.5226 52.124 51.214 51.7349 51.2678 51.3083C51.6433 48.3101 53.7495 45.8203 56.6472 44.9697C56.7451 44.9403 56.8479 44.9306 56.9496 44.9412C57.0513 44.9517 57.1499 44.9823 57.2397 45.0312C57.3295 45.0801 57.4087 45.1463 57.4728 45.226C57.5369 45.3057 57.5846 45.3973 57.613 45.4955C57.7337 45.9074 57.5057 46.3407 57.0898 46.4613C55.9626 46.7916 54.9568 47.4445 54.1963 48.3397C53.4359 49.2348 52.9541 50.333 52.8104 51.4987C52.7567 51.8931 52.4347 52.1803 52.0458 52.1803Z" fill="#E6BD5C"/>
<path fill-rule="evenodd" clip-rule="evenodd" d="M71.8059 55.0537C70.6389 55.0537 69.6863 56.0035 69.6863 57.1733C69.6863 58.3418 70.6387 59.2929 71.8059 59.2929C72.973 59.2929 73.9255 58.3418 73.9255 57.1733C73.9255 56.0037 72.9731 55.0537 71.8059 55.0537ZM71.8059 66.466C71.3498 66.466 70.9072 66.4339 70.4644 66.3694C69.5522 66.2393 68.8948 65.4733 68.8948 64.5517C68.8948 64.0687 68.6399 63.6194 68.224 63.3778C67.8081 63.139 67.2849 63.139 66.8691 63.3804C66.0642 63.8419 65.0715 63.6528 64.508 62.9284C63.9446 62.2254 63.502 61.446 63.1665 60.6156C62.8312 59.7597 63.1531 58.8045 63.9581 58.3432C64.3739 58.1044 64.6423 57.655 64.6423 57.1733C64.6423 56.6917 64.3739 56.2411 63.9581 56.0023C63.1531 55.5421 62.8312 54.5856 63.1665 53.7311C63.502 52.8993 63.9446 52.12 64.508 51.4171C65.0715 50.694 66.0642 50.5035 66.8691 50.9663C67.2849 51.2064 67.8081 51.2078 68.224 50.9676C68.6399 50.7262 68.8948 50.2768 68.8948 49.7938C68.8948 48.8722 69.5521 48.1061 70.4644 47.9761C71.3497 47.8486 72.2487 47.8486 73.134 47.9761C74.0462 48.1063 74.7169 48.8722 74.7035 49.7938C74.7035 50.2768 74.9718 50.7262 75.3877 50.9676C75.8035 51.2064 76.3133 51.2064 76.7426 50.9663C77.5342 50.5035 78.5268 50.6939 79.1037 51.4171C79.6536 52.12 80.1097 52.8993 80.4317 53.7311C80.7806 54.5856 80.4452 55.5421 79.6402 56.0023C79.2243 56.2437 78.9694 56.6917 78.9694 57.1733C78.9694 57.655 79.2243 58.1044 79.6402 58.3432C80.4452 58.8047 80.7805 59.7597 80.4317 60.6156C80.1097 61.446 79.6536 62.2254 79.1037 62.9298C78.5268 63.6528 77.534 63.8407 76.7426 63.3804C76.3133 63.139 75.8037 63.139 75.3877 63.3778C74.9718 63.6192 74.7035 64.0687 74.7035 64.5517C74.7169 65.4733 74.0462 66.2393 73.134 66.3694C72.6942 66.4336 72.2504 66.4659 71.8059 66.466Z" fill="#E4404D"/>
<path fill-rule="evenodd" clip-rule="evenodd" d="M71.8058 55.0537C71.2279 55.0537 70.7026 55.2867 70.3196 55.6639C69.6225 56.0111 69.1416 56.7311 69.1416 57.5623C69.1416 58.7307 70.094 59.6819 71.2612 59.6819C71.8389 59.6819 72.3639 59.4488 72.7469 59.0717C73.4442 58.7242 73.9252 58.0038 73.9252 57.1734C73.9254 56.0036 72.973 55.0537 71.8058 55.0537ZM64.6352 51.2703C65.1583 51.0282 65.7838 51.0441 66.3245 51.3552C66.7404 51.5954 67.2636 51.5968 67.6795 51.3566C67.8138 51.2785 67.9335 51.1775 68.0332 51.0583C68.0988 51.0333 68.1626 51.0031 68.224 50.9676C68.6399 50.7262 68.8948 50.2767 68.8948 49.7937C68.8948 49.2987 69.0846 48.8486 69.4016 48.5177C69.566 48.4417 69.7406 48.3902 69.9198 48.3649C70.8051 48.2374 71.7041 48.2374 72.5894 48.3649C73.5016 48.4951 74.1723 49.261 74.159 50.1826C74.159 50.6656 74.4274 51.115 74.8432 51.3564C75.2591 51.5952 75.7689 51.5952 76.1981 51.355C76.9896 50.8922 77.9824 51.0827 78.5591 51.8059C79.1091 52.5088 79.5653 53.2881 79.8872 54.1199C80.2359 54.9744 79.9006 55.9309 79.0956 56.3911C78.6797 56.6325 78.4249 57.0805 78.4249 57.5621C78.4249 58.0437 78.6797 58.4932 79.0956 58.732C79.9005 59.1935 80.2359 60.1486 79.8872 61.0045C79.5652 61.8349 79.1091 62.6144 78.5591 63.3187C78.5199 63.3679 78.4785 63.4145 78.4355 63.4589C77.9066 63.7066 77.2785 63.6921 76.7426 63.3805C76.3133 63.1391 75.8037 63.1391 75.3877 63.3779C75.2519 63.4569 75.1305 63.5585 75.0289 63.6784C74.9649 63.7031 74.9028 63.7327 74.8432 63.7669C74.4274 64.0083 74.159 64.4577 74.159 64.9407C74.1675 65.4145 73.9879 65.8724 73.6595 66.214C73.497 66.2897 73.3205 66.343 73.134 66.3696C72.2488 66.4987 71.3496 66.4987 70.4644 66.3696C69.5522 66.2395 68.8948 65.4735 68.8948 64.5519C68.8948 64.0689 68.6399 63.6196 68.224 63.378C67.8081 63.1392 67.2849 63.1392 66.8691 63.3807C66.0642 63.8422 65.0715 63.653 64.508 62.9286C63.9446 62.2257 63.502 61.4462 63.1665 60.6158C62.8312 59.76 63.1531 58.8048 63.9581 58.3434C64.3739 58.1046 64.6423 57.6552 64.6423 57.1736C64.6423 56.692 64.3739 56.2413 63.9581 56.0025C63.1531 55.5424 62.8312 54.5858 63.1665 53.7313C63.502 52.8996 63.9446 52.1202 64.508 51.4173C64.5482 51.3653 64.5908 51.3165 64.6352 51.2703Z" fill="#FD4755"/>
<defs>
<filter id="filter0_d_2030_978" x="0.666667" y="0.571429" width="146.667" height="146.667" filterUnits="userSpaceOnUse" color-interpolation-filters="sRGB">
<feFlood flood-opacity="0" result="BackgroundImageFix"/>
<feColorMatrix in="SourceAlpha" type="matrix" values="0 0 0 0 0 0 0 0 0 0 0 0 0 0 0 0 0 0 127 0" result="hardAlpha"/>
<feOffset dy="1.90476"/>
<feGaussianBlur stdDeviation="6.66667"/>
<feComposite in2="hardAlpha" operator="out"/>
<feColorMatrix type="matrix" values="0 0 0 0 0.695898 0 0 0 0 0.695898 0 0 0 0 0.695898 0 0 0 0.25 0"/>
<feBlend mode="normal" in2="BackgroundImageFix" result="effect1_dropShadow_2030_978"/>
<feBlend mode="normal" in="SourceGraphic" in2="effect1_dropShadow_2030_978" result="shape"/>
</filter>
</defs>
</svg>
