<svg width="100" height="100" viewBox="0 0 100 100" fill="none" xmlns="http://www.w3.org/2000/svg">
<path d="M66.604 64.8169L68.4507 65.2502L74.446 82.4751C74.6371 83.0236 74.1925 83.5847 73.6147 83.5241L65.2109 82.6442C65.095 82.632 64.9779 82.6456 64.8678 82.6839C64.7577 82.7222 64.6575 82.7843 64.5741 82.8658L58.533 88.7736C58.1177 89.1797 57.4208 89.0159 57.23 88.4673L51.1953 71.1299L52.0684 69.8503L66.604 64.8169Z" fill="#FF4755"/>
<path d="M51.1959 71.1299L49.9766 67.6268L67.2356 61.7576L68.4513 65.2504C63.5505 68.7474 57.6163 70.8881 51.1959 71.1299Z" fill="#FC2B3A"/>
<path d="M33.3714 64.8169L31.5247 65.2502L25.5293 82.4751C25.3383 83.0236 25.7828 83.5847 26.3607 83.5241L34.7644 82.6442C34.8803 82.632 34.9975 82.6456 35.1075 82.6839C35.2176 82.7222 35.3179 82.7843 35.4012 82.8658L41.4424 88.7736C41.8577 89.1797 42.5545 89.0159 42.7454 88.4673L48.7799 71.1299L47.9068 69.8503L33.3714 64.8169Z" fill="#FF4755"/>
<path d="M48.7788 71.1299L49.9982 67.6268L32.7391 61.7576L31.5234 65.2504C36.4242 68.7474 42.3584 70.8881 48.7788 71.1299Z" fill="#FC2B3A"/>
<path d="M49.998 65.6315C21.72 65.6315 21.6965 38.3591 21.72 37.8864C22.4633 22.9124 34.8395 11 49.998 11C65.1565 11 77.5328 22.9124 78.2761 37.8864C78.2995 38.3591 78.3114 65.6315 49.998 65.6315Z" fill="#FFCB5B"/>
<path d="M50.0009 64.7726C34.8424 64.7726 22.4666 52.8603 21.7231 37.8864C21.6995 38.3617 21.6876 38.8375 21.6875 39.3134C21.6875 54.9504 34.3639 67.6268 50.0009 67.6268C65.6379 67.6268 78.3143 54.9504 78.3143 39.3134C78.3143 38.8349 78.3021 38.3591 78.2786 37.8864C77.5352 52.8603 65.1594 64.7726 50.0009 64.7726Z" fill="#F7B737"/>
<path d="M50.0042 59.7544C27.7442 59.7544 27.7143 38.3582 27.7442 37.8862C28.48 26.2325 38.1649 17.0084 50.0042 17.0084C61.8434 17.0084 71.5284 26.2325 72.2642 37.8862C72.294 38.3582 72.3091 59.7544 50.0042 59.7544Z" fill="#FF9838"/>
<path d="M50.0003 58.7641C38.161 58.7641 28.4781 49.5397 27.7421 37.8864C27.7115 38.3614 27.6959 38.8373 27.6953 39.3134C27.6953 51.632 37.6816 61.6183 50.0003 61.6183C62.3189 61.6183 72.3052 51.632 72.3052 39.3134C72.3052 38.8338 72.2883 38.3583 72.2585 37.8864C71.5225 49.5397 61.8394 58.7641 50.0003 58.7641Z" fill="#FF8709"/>
<path d="M52.0446 28.4484L54.1249 32.6634C54.2883 32.9945 54.5297 33.2808 54.8284 33.4978C55.127 33.7148 55.474 33.8559 55.8393 33.909L60.4908 34.5849C62.3586 34.8563 63.1043 37.1515 61.7529 38.4689L58.387 41.7498C58.1226 42.0075 57.9249 42.3256 57.8108 42.6768C57.6967 43.0279 57.6697 43.4015 57.7321 43.7653L58.5267 48.3981C58.6021 48.8375 58.4062 49.6179 58.4062 49.6179H55.2228L50.0027 46.683L44.7827 49.6178L41.6255 49.6813C41.6255 49.6813 41.399 48.8631 41.4788 48.398L42.2734 43.7652C42.3359 43.4013 42.3089 43.0277 42.1948 42.6766C42.0807 42.3255 41.8829 42.0073 41.6185 41.7497L38.2526 38.4688C36.9012 37.1515 37.6469 34.8563 39.5146 34.5848L44.1661 33.9088C44.5315 33.8558 44.8784 33.7146 45.1771 33.4977C45.4758 33.2807 45.7172 32.9943 45.8806 32.6633L47.9609 28.4482C48.796 26.756 51.2095 26.756 52.0446 28.4484Z" fill="#FFF5F5"/>
<path d="M49.6348 45.394L41.6016 49.6175C42.0688 50.7996 43.5078 51.4694 44.7837 50.7986L48.9442 48.6112C49.271 48.4395 49.6347 48.3497 50.0039 48.3497C50.373 48.3497 50.7367 48.4395 51.0635 48.6112L55.224 50.7986C56.4999 51.4694 57.9391 50.7996 58.4061 49.6175L50.3729 45.394C50.2591 45.3342 50.1324 45.303 50.0039 45.303C49.8753 45.303 49.7486 45.3342 49.6348 45.394Z" fill="#EFE2DD"/>
</svg>
