<svg width="148" height="148" viewBox="0 0 148 148" fill="none" xmlns="http://www.w3.org/2000/svg">
<g filter="url(#filter0_d_2030_416)">
<circle cx="74" cy="72" r="60" fill="white"/>
</g>
<path fill-rule="evenodd" clip-rule="evenodd" d="M46.668 77.0208V88.3307L74.0705 91.3148L92.1421 88.3307V81.4091C92.1421 80.3399 93.0157 79.4663 94.0849 79.4663H97.6234V60.2493C97.6234 59.192 96.7576 58.3263 95.7005 58.3263H84.5544L46.668 77.0208Z" fill="#9FD4FE"/>
<path fill-rule="evenodd" clip-rule="evenodd" d="M79.6158 93.6687L71.4298 92.0609L64.6759 93.6687L62.7969 99.952L72.08 101.225L81.4907 99.952L79.6158 93.6687Z" fill="#BEB9DD"/>
<path fill-rule="evenodd" clip-rule="evenodd" d="M92.1421 88.3308H46.668V91.7457C46.668 92.803 47.5337 93.6687 48.5908 93.6687H92.1419L92.1421 88.3308ZM81.4906 99.9521H59.9005C58.6079 99.9521 57.5508 101.009 57.5508 102.306V103.954C57.5511 104.14 57.6251 104.318 57.7567 104.45C57.8883 104.581 58.0668 104.655 58.2529 104.656H86.0384C86.4215 104.656 86.7405 104.34 86.7405 103.954V102.306C86.7405 101.009 85.6794 99.9521 84.3869 99.9521H81.4906Z" fill="#DDDAEC"/>
<path fill-rule="evenodd" clip-rule="evenodd" d="M80.5203 77.0208C79.7384 81.1538 78.2345 84.9876 76.168 88.3307H92.1412V81.4091C92.1412 80.3399 93.0148 79.4663 94.084 79.4663H97.6224V60.2493C97.6224 59.192 96.7567 58.3263 95.6996 58.3263H84.5535V75.1616C84.5535 76.1829 83.7196 77.0207 82.6984 77.0207H80.5203V77.0208Z" fill="#85BEEF"/>
<path fill-rule="evenodd" clip-rule="evenodd" d="M92.1422 88.3308H76.169C74.9602 90.2896 73.556 92.0769 71.9922 93.6687H92.1422V88.3308Z" fill="#BEB9DD"/>
<path fill-rule="evenodd" clip-rule="evenodd" d="M63.8711 96.3576H74.5345C76.214 96.3576 76.5292 96.964 76.968 98.436L77.4228 99.9519H81.4919L79.6169 93.6686H64.6769L63.8711 96.3576Z" fill="#A7A2D3"/>
<path fill-rule="evenodd" clip-rule="evenodd" d="M46.6674 77.0208H82.6988C83.7202 77.0208 84.5539 76.1831 84.5539 75.1618V49.1349L62.0622 46.4899L39 49.1349V75.1618C39 76.1831 39.8338 77.0208 40.855 77.0208H46.6674Z" fill="#EFF6FF"/>
<path fill-rule="evenodd" clip-rule="evenodd" d="M45.1516 71.5833H55.9108C56.3057 71.5833 56.6288 71.2602 56.6288 70.8652V55.2865C56.6288 54.8916 56.3057 54.5724 55.9108 54.5724H45.1516C44.7567 54.5724 44.4336 54.8915 44.4336 55.2865V70.8652C44.4336 71.2602 44.7567 71.5833 45.1516 71.5833Z" fill="#FFD772"/>
<path fill-rule="evenodd" clip-rule="evenodd" d="M62.0625 55.2865V59.9981C62.0625 60.393 62.3856 60.7161 62.7765 60.7161H78.4066C78.7976 60.7161 79.1207 60.393 79.1207 59.9981V55.2865C79.1207 54.8916 78.7976 54.5724 78.4066 54.5724H62.7765C62.3856 54.5724 62.0625 54.8916 62.0625 55.2865Z" fill="#3BC3A4"/>
<path fill-rule="evenodd" clip-rule="evenodd" d="M39 49.1349H84.5539V41.1441C84.5539 40.1228 83.72 39.2891 82.6988 39.2891H40.855C39.8338 39.2889 39 40.1228 39 41.1441V49.1349Z" fill="#375E7D"/>
<path fill-rule="evenodd" clip-rule="evenodd" d="M78.4078 54.5724H74.207C74.4982 56.3955 74.6498 58.2785 74.6498 60.1975V60.7161H78.4077C78.7986 60.7161 79.1217 60.393 79.1217 59.9981V55.2865C79.1218 54.8916 78.7987 54.5724 78.4078 54.5724Z" fill="#00A887"/>
<path fill-rule="evenodd" clip-rule="evenodd" d="M78.4071 60.7161H74.649C74.6172 62.7228 74.4216 64.6856 74.0745 66.5845C73.7638 68.2815 73.325 69.9525 72.762 71.5832C72.0998 73.4941 71.2779 75.3134 70.3125 77.0208H82.6992C83.7205 77.0208 84.5542 76.1831 84.5542 75.1618V49.1349H72.8699C73.462 50.9082 73.909 52.7267 74.2063 54.5725H78.4071C78.798 54.5725 79.1211 54.8916 79.1211 55.2866V59.9982C79.1211 60.393 78.798 60.7161 78.4071 60.7161Z" fill="#D9EEFF"/>
<path fill-rule="evenodd" clip-rule="evenodd" d="M72.8686 49.1349H84.5532V41.1441C84.5532 40.1228 83.7194 39.2891 82.6982 39.2891H67.5508C69.8287 42.1374 71.6438 45.4726 72.8686 49.1349Z" fill="#2B4D66"/>
<path fill-rule="evenodd" clip-rule="evenodd" d="M80.3125 99.952C81.6091 99.952 82.6662 101.009 82.6662 102.306V103.954C82.6662 104.337 82.355 104.652 81.972 104.656H86.0372C86.4202 104.656 86.7392 104.34 86.7392 103.954V102.306C86.7392 101.009 85.6781 99.952 84.3856 99.952H81.4893H80.3125Z" fill="#BEB9DD"/>
<path d="M78.9734 45.2714C78.3904 45.2714 77.918 44.7989 77.918 44.2159C77.918 43.633 78.3906 43.1565 78.9734 43.1565C79.5562 43.1565 80.029 43.6251 80.029 44.208V44.2159C80.0289 44.4959 79.9177 44.7643 79.7198 44.9623C79.5218 45.1602 79.2533 45.2714 78.9734 45.2714Z" fill="#3BC3A4"/>
<path d="M73.7547 45.2714C73.1717 45.2714 72.6992 44.7989 72.6992 44.2159C72.6992 43.633 73.1718 43.1565 73.7547 43.1565C74.3376 43.1565 74.8101 43.6251 74.8101 44.208V44.2159C74.8101 44.3546 74.7828 44.4918 74.7298 44.6199C74.6767 44.7479 74.599 44.8643 74.501 44.9623C74.403 45.0603 74.2866 45.138 74.1586 45.1911C74.0305 45.2441 73.8933 45.2714 73.7547 45.2714Z" fill="#FFD772"/>
<path d="M68.5359 45.2714C67.9529 45.2714 67.4805 44.7989 67.4805 44.2159C67.4805 43.633 67.9531 43.1565 68.5359 43.1565C69.1189 43.1565 69.5913 43.6251 69.5913 44.208V44.2159C69.5914 44.3546 69.5641 44.4918 69.511 44.6199C69.458 44.7479 69.3803 44.8643 69.2822 44.9623C69.1842 45.0603 69.0679 45.138 68.9398 45.1911C68.8118 45.2441 68.6745 45.2714 68.5359 45.2714Z" fill="#E5384F"/>
<path d="M55.386 45.2714H55.3853L44.5822 45.2635C44.3044 45.2602 44.039 45.1475 43.8437 44.9498C43.6484 44.7522 43.539 44.4855 43.5391 44.2076C43.5392 43.9298 43.6488 43.6631 43.8442 43.4656C44.0396 43.2681 44.305 43.1556 44.5829 43.1525H44.5836L55.3867 43.1604C55.5253 43.1605 55.6625 43.1879 55.7905 43.241C55.9186 43.2941 56.0349 43.372 56.1328 43.47C56.2308 43.5681 56.3084 43.6845 56.3614 43.8126C56.4143 43.9407 56.4415 44.078 56.4414 44.2166C56.4413 44.4964 56.33 44.7647 56.1321 44.9625C55.9342 45.1603 55.6658 45.2714 55.386 45.2714Z" fill="#EFF6FF"/>
<path d="M79.1214 67.6399H62.0632C61.7833 67.6399 61.5149 67.5287 61.3169 67.3308C61.119 67.1329 61.0078 66.8644 61.0078 66.5845C61.0078 66.3046 61.119 66.0361 61.3169 65.8382C61.5149 65.6402 61.7833 65.5291 62.0632 65.5291H79.1214C79.4013 65.5291 79.6698 65.6402 79.8677 65.8382C80.0656 66.0361 80.1768 66.3046 80.1768 66.5845C80.1768 66.8644 80.0656 67.1329 79.8677 67.3308C79.6698 67.5287 79.4013 67.6399 79.1214 67.6399ZM79.1214 72.6388H70.3888C70.1089 72.6388 69.8404 72.5276 69.6425 72.3296C69.4445 72.1317 69.3333 71.8632 69.3333 71.5833C69.3333 71.3033 69.4445 71.0349 69.6425 70.8369C69.8404 70.639 70.1089 70.5278 70.3888 70.5278H79.1214C79.4013 70.5278 79.6698 70.639 79.8678 70.8369C80.0657 71.0349 80.1769 71.3033 80.1769 71.5833C80.1769 71.8632 80.0657 72.1317 79.8678 72.3296C79.6698 72.5276 79.4013 72.6388 79.1214 72.6388ZM64.6682 72.6388H62.0632C61.4803 72.6388 61.0078 72.1663 61.0078 71.5832C61.0078 71.0001 61.4804 70.5278 62.0632 70.5278H64.6682C65.2512 70.5278 65.7236 71.0002 65.7236 71.5832C65.7236 72.1662 65.2512 72.6388 64.6682 72.6388Z" fill="#2B4D66"/>
<path fill-rule="evenodd" clip-rule="evenodd" d="M92.1406 93.6687V102.709C92.1406 103.782 93.0143 104.655 94.0834 104.655H106.997C108.066 104.655 108.944 103.782 108.944 102.709V81.4092C108.944 80.3401 108.066 79.4664 106.997 79.4664H94.0834C93.0143 79.4664 92.1406 80.3401 92.1406 81.4092V88.3309V93.6687Z" fill="#9FD4FE"/>
<path d="M100.544 101.49H100.508C100.23 101.487 99.9651 101.374 99.7697 101.177C99.5744 100.979 99.4648 100.713 99.4648 100.435C99.4648 100.157 99.5744 99.8901 99.7697 99.6925C99.9651 99.4949 100.23 99.3823 100.508 99.3792H100.544C101.127 99.3792 101.6 99.8516 101.6 100.435C101.6 101.018 101.127 101.49 100.544 101.49Z" fill="#2B4D66"/>
<path fill-rule="evenodd" clip-rule="evenodd" d="M106.999 79.4663H100.56C102.667 82.7856 103.939 87.1179 103.939 91.8535C103.939 96.7884 102.555 101.284 100.285 104.655H106.999C108.068 104.655 108.946 103.782 108.946 102.709V81.4092C108.946 80.3401 108.068 79.4663 106.999 79.4663Z" fill="#85BEEF"/>
<path d="M106.998 105.711H94.0842C92.4309 105.711 91.0859 104.364 91.0859 102.709V81.4093C91.0859 79.7559 92.4309 78.4109 94.0842 78.4109H106.998C108.653 78.4109 110 79.756 110 81.4093V102.709C110 104.364 108.653 105.711 106.998 105.711ZM94.0842 80.5217C93.8489 80.522 93.6234 80.6156 93.4571 80.782C93.2907 80.9483 93.1972 81.1739 93.1969 81.4091V102.709C93.1969 103.2 93.5949 103.6 94.0842 103.6H106.998C107.234 103.6 107.46 103.506 107.627 103.339C107.795 103.172 107.889 102.945 107.889 102.709V81.4093C107.889 80.92 107.489 80.5219 106.998 80.5219H94.0842V80.5217Z" fill="#DDDAEC"/>
<path fill-rule="evenodd" clip-rule="evenodd" d="M52.7375 55.2865V70.8652C52.7375 71.2602 52.4144 71.5833 52.0234 71.5833H55.909C56.304 71.5833 56.6271 71.2602 56.6271 70.8652V55.2865C56.6271 54.8916 56.304 54.5724 55.909 54.5724H52.0234C52.4144 54.5724 52.7375 54.8916 52.7375 55.2865Z" fill="#FBBA58"/>
<defs>
<filter id="filter0_d_2030_416" x="0.666667" y="0.571429" width="146.667" height="146.667" filterUnits="userSpaceOnUse" color-interpolation-filters="sRGB">
<feFlood flood-opacity="0" result="BackgroundImageFix"/>
<feColorMatrix in="SourceAlpha" type="matrix" values="0 0 0 0 0 0 0 0 0 0 0 0 0 0 0 0 0 0 127 0" result="hardAlpha"/>
<feOffset dy="1.90476"/>
<feGaussianBlur stdDeviation="6.66667"/>
<feComposite in2="hardAlpha" operator="out"/>
<feColorMatrix type="matrix" values="0 0 0 0 0.695898 0 0 0 0 0.695898 0 0 0 0 0.695898 0 0 0 0.25 0"/>
<feBlend mode="normal" in2="BackgroundImageFix" result="effect1_dropShadow_2030_416"/>
<feBlend mode="normal" in="SourceGraphic" in2="effect1_dropShadow_2030_416" result="shape"/>
</filter>
</defs>
</svg>
