<svg width="148" height="148" viewBox="0 0 148 148" fill="none" xmlns="http://www.w3.org/2000/svg">
<g filter="url(#filter0_d_2030_1002)">
<circle cx="74" cy="72" r="60" fill="white"/>
</g>
<path fill-rule="evenodd" clip-rule="evenodd" d="M73.8592 47.6777C86.3258 47.6777 96.435 57.7869 96.435 70.2535C96.435 82.7201 86.3258 92.8293 73.8592 92.8293C61.3926 92.8293 51.2695 82.7201 51.2695 70.2535C51.2695 57.7869 61.3787 47.6777 73.8592 47.6777Z" fill="#C3D3A2"/>
<path fill-rule="evenodd" clip-rule="evenodd" d="M73.8602 43.9474C88.282 43.9474 99.9721 55.6374 99.9721 70.0593C99.9721 75.62 98.2387 80.7648 95.285 84.9943C92.8998 88.4056 87.6719 84.6892 90.0432 81.3056C92.2619 78.1161 93.5654 74.2472 93.5654 70.0593C93.5654 59.1736 84.7459 50.354 73.8602 50.354C62.9744 50.354 54.1549 59.1736 54.1549 70.0593C54.1549 74.2333 55.4584 78.1161 57.6771 81.3056C60.0346 84.6892 54.8066 88.4056 52.4354 84.9943C49.4678 80.7648 47.7344 75.62 47.7344 70.0593C47.7344 55.6374 59.4244 43.9474 73.8602 43.9474Z" fill="#7FA389"/>
<path d="M92.7904 52.0597C92.9568 51.9072 93.2203 51.9211 93.3728 52.0875C93.5254 52.2539 93.5115 52.5174 93.3451 52.6699L88.6303 57.0242C88.4639 57.1767 88.2004 57.1629 88.0478 56.9965C87.8953 56.83 87.9092 56.5666 88.0756 56.414L92.7904 52.0597ZM59.6478 56.414C59.8143 56.5666 59.8281 56.83 59.6756 56.9965C59.523 57.1629 59.2596 57.1767 59.0793 57.0242L54.3644 52.6699C54.198 52.5174 54.1842 52.2539 54.3367 52.0875C54.4893 51.9211 54.7527 51.9072 54.9191 52.0597L59.6478 56.414Z" fill="#C3D3A2"/>
<path fill-rule="evenodd" clip-rule="evenodd" d="M78.6857 79.489C76.0232 82.1515 71.6828 82.1515 69.0203 79.489C66.3578 76.8265 66.3578 72.4861 69.0203 69.8236C69.0342 69.8097 79.3514 64.2628 86.3404 60.1582C86.9228 59.8115 87.6439 59.9085 88.1293 60.38C88.6146 60.8654 88.6978 61.5865 88.3512 62.1689C84.2465 69.158 78.6996 79.4751 78.6857 79.489Z" fill="#E18A7A"/>
<path fill-rule="evenodd" clip-rule="evenodd" d="M69.0195 69.8236C69.0334 69.8097 79.3506 64.2628 86.3396 60.1582C86.9221 59.8115 87.6432 59.9085 88.1285 60.38C88.6139 60.8654 88.6971 61.5865 88.3504 62.1689C87.7125 63.2505 87.033 64.4154 86.3535 65.6218C83.0809 68.4646 78.4354 70.2396 73.2768 70.2396C71.8207 70.2396 70.3924 70.1009 69.0195 69.8236Z" fill="#EEB9A2"/>
<path fill-rule="evenodd" clip-rule="evenodd" d="M75.7472 72.7634C76.7873 73.8035 76.7873 75.4953 75.7472 76.5353C74.7072 77.5753 73.0154 77.5753 71.9753 76.5353C70.9353 75.4953 70.9353 73.8035 71.9753 72.7634C73.0154 71.7234 74.7072 71.7234 75.7472 72.7634Z" fill="#E8DAB2"/>
<path d="M73.4455 44.1693C73.4455 43.9474 73.6258 43.7533 73.8615 43.7533C74.0834 43.7533 74.2775 43.9336 74.2775 44.1693V50.1183C74.2775 50.3541 74.0834 50.5344 73.8615 50.5344C73.6258 50.5344 73.4455 50.3541 73.4455 50.1183V44.1693ZM53.8789 69.3521C54.1008 69.3521 54.2949 69.5324 54.2949 69.7681C54.2949 69.99 54.1146 70.1842 53.8789 70.1842H47.916C47.6803 70.1842 47.5 70.0039 47.5 69.7681C47.5 69.5324 47.6803 69.3521 47.916 69.3521H53.8789ZM99.7932 69.3521C100.015 69.3521 100.209 69.5324 100.209 69.7681C100.209 69.99 100.015 70.1842 99.7932 70.1842H93.8441C93.6084 70.1842 93.4281 70.0039 93.4281 69.7681C93.4281 69.5324 93.6084 69.3521 93.8441 69.3521H99.7932Z" fill="#C3D3A2"/>
<path fill-rule="evenodd" clip-rule="evenodd" d="M60.6186 94.5211C61.8805 94.5211 62.9066 95.5473 62.9066 96.8092C62.9066 98.0711 61.8805 99.0973 60.6186 99.0973C59.3566 99.0973 58.3305 98.0711 58.3305 96.8092C58.3305 95.5473 59.3566 94.5211 60.6186 94.5211ZM66.9559 99.3053C67.4412 99.3053 67.8295 99.6936 67.8295 100.179C67.8295 100.664 67.4412 101.053 66.9559 101.053C66.4705 101.053 66.0822 100.664 66.0822 100.179C66.0822 99.6936 66.4844 99.3053 66.9559 99.3053ZM48.568 45.4313C49.4 45.4313 50.0656 46.0969 50.0656 46.9289C50.0656 47.761 49.4 48.4266 48.568 48.4266C47.7359 48.4266 47.0703 47.761 47.0703 46.9289C47.0703 46.0969 47.7359 45.4313 48.568 45.4313ZM102.539 51.7963C104.286 51.7963 105.701 53.2108 105.701 54.958C105.701 56.7053 104.286 58.1198 102.539 58.1198C100.792 58.1198 99.3773 56.7053 99.3773 54.958C99.3773 53.2108 100.792 51.7963 102.539 51.7963Z" fill="#EEB9A2"/>
<path d="M63.4477 80.1547C63.6141 80.3211 63.6141 80.5846 63.4477 80.751C63.2812 80.9174 63.0178 80.9174 62.8514 80.751C59.8145 77.7141 58.2891 73.7342 58.2891 69.7543C58.2891 65.7744 59.8006 61.7945 62.8514 58.7576C65.8883 55.7207 69.8682 54.1953 73.848 54.1953C77.8279 54.1953 81.8078 55.7207 84.8447 58.7576C85.0111 58.924 85.0111 59.1875 84.8447 59.34C84.6783 59.5064 84.4148 59.5064 84.2623 59.34C81.3918 56.4695 77.6199 55.0273 73.848 55.0273C70.0762 55.0273 66.3043 56.4695 63.4338 59.34C60.5633 62.2105 59.1211 65.9824 59.1211 69.7543C59.135 73.5123 60.5633 77.2703 63.4477 80.1547Z" fill="white"/>
<path fill-rule="evenodd" clip-rule="evenodd" d="M46.1535 50.6036C47.7344 50.6036 49.0102 51.8794 49.0102 53.4603C49.0102 55.0411 47.7344 56.3169 46.1535 56.3169C44.5727 56.3169 43.2969 55.0411 43.2969 53.4603C43.2969 51.8794 44.5727 50.6036 46.1535 50.6036ZM91.8043 90.3193C92.5254 90.3193 93.1078 90.9017 93.1078 91.6228C93.1078 92.3439 92.5254 92.9263 91.8043 92.9263C91.0832 92.9263 90.5008 92.3439 90.5008 91.6228C90.5008 90.9156 91.0832 90.3193 91.8043 90.3193Z" fill="#EEB9A2"/>
<defs>
<filter id="filter0_d_2030_1002" x="0.666667" y="0.571429" width="146.667" height="146.667" filterUnits="userSpaceOnUse" color-interpolation-filters="sRGB">
<feFlood flood-opacity="0" result="BackgroundImageFix"/>
<feColorMatrix in="SourceAlpha" type="matrix" values="0 0 0 0 0 0 0 0 0 0 0 0 0 0 0 0 0 0 127 0" result="hardAlpha"/>
<feOffset dy="1.90476"/>
<feGaussianBlur stdDeviation="6.66667"/>
<feComposite in2="hardAlpha" operator="out"/>
<feColorMatrix type="matrix" values="0 0 0 0 0.695898 0 0 0 0 0.695898 0 0 0 0 0.695898 0 0 0 0.25 0"/>
<feBlend mode="normal" in2="BackgroundImageFix" result="effect1_dropShadow_2030_1002"/>
<feBlend mode="normal" in="SourceGraphic" in2="effect1_dropShadow_2030_1002" result="shape"/>
</filter>
</defs>
</svg>
