<svg width="148" height="148" viewBox="0 0 148 148" fill="none" xmlns="http://www.w3.org/2000/svg">
<g filter="url(#filter0_d_3238_2933)">
<circle cx="74" cy="72" r="60" fill="white"/>
</g>
<path d="M80.1188 62.4093C81.2994 63.365 82.2151 64.6077 82.7782 66.0184C83.3414 67.4291 83.5332 68.9607 83.3353 70.4667C82.8297 74.4793 79.5486 77.7173 75.536 78.1692C70.1573 78.7716 65.596 74.5761 65.596 69.3264C65.596 66.5402 66.8762 64.0445 68.8879 62.4201H51.9124C49.535 62.4201 47.6094 64.3457 47.6094 66.7231V92.5413H101.397V66.7231C101.397 64.3457 99.4716 62.4201 97.0942 62.4201H80.1188V62.4093Z" fill="#7CB5E8"/>
<path opacity="0.3" d="M97.0926 62.4093H80.1172C81.2978 63.365 82.2135 64.6077 82.7767 66.0184C83.3398 67.4291 83.5316 68.9607 83.3337 70.4667C83.0648 72.6075 81.989 74.5331 80.4399 75.9316C82.5269 80.127 86.8514 83.0208 91.8645 83.0208H101.396V66.7123C101.396 64.3457 99.4701 62.4093 97.0926 62.4093Z" fill="white"/>
<path opacity="0.5" d="M93.5947 65.8087H98.4141V67.4869C98.4141 68.2772 98.728 69.0351 99.2869 69.5939C99.8457 70.1528 100.604 70.4667 101.394 70.4667V66.6908C101.383 64.3241 99.4576 62.4093 97.0909 62.4093H90.1953C90.1953 64.2919 91.7121 65.8087 93.5947 65.8087Z" fill="white"/>
<path d="M97.0942 98.9851H51.9124C49.535 98.9851 47.6094 97.0595 47.6094 94.682V92.5305H101.397V94.682C101.397 97.0595 99.4716 98.9851 97.0942 98.9851Z" fill="#E2E2E2"/>
<path opacity="0.5" d="M79.879 95.7578H101.394V92.5305H75.7266C76.2107 94.3916 77.8781 95.7578 79.879 95.7578Z" fill="white"/>
<path d="M86.4605 66.4327C86.0948 64.9159 85.4493 63.5067 84.578 62.2695L86.5896 59.677L83.6851 56.7724L80.9849 58.8701C79.7693 58.1171 78.4246 57.547 76.9723 57.2565L76.542 53.8141H72.4327L72.0023 57.2565C70.5501 57.5577 69.2054 58.1171 67.9898 58.8701L65.2896 56.7724L62.3851 59.677L64.3967 62.2695C63.5254 63.5067 62.8799 64.9159 62.5142 66.4327L59.4375 66.82V70.9294L62.342 71.2951C62.611 72.9733 63.2134 74.5224 64.0848 75.8994L62.3958 78.0724L65.3004 80.977L67.3658 79.3741C68.7643 80.3745 70.378 81.0845 72.1314 81.4288L72.4434 83.9461H76.5528L76.8648 81.4288C78.6183 81.0845 80.2319 80.3745 81.6304 79.3741L83.6958 80.977L86.6004 78.0724L84.9114 75.8994C85.7828 74.5224 86.3852 72.9626 86.6542 71.2951L89.5587 70.9294V66.82L86.4605 66.4327ZM74.4981 75.7165C73.6589 75.7164 72.8279 75.5511 72.0526 75.2299C71.2773 74.9086 70.5728 74.4378 69.9795 73.8444C69.3861 73.2509 68.9154 72.5464 68.5944 71.771C68.2733 70.9957 68.108 70.1647 68.1081 69.3254C68.1082 68.4862 68.2735 67.6552 68.5948 66.8799C68.916 66.1046 69.3868 65.4002 69.9802 64.8068C70.5737 64.2134 71.2782 63.7428 72.0536 63.4217C72.829 63.1006 73.66 62.9354 74.4992 62.9354C76.1941 62.9356 77.8195 63.609 79.0178 64.8076C80.2162 66.0061 80.8893 67.6316 80.8892 69.3265C80.889 71.0214 80.2156 72.6468 79.0171 73.8451C77.8185 75.0435 76.193 75.7167 74.4981 75.7165ZM64.8163 98.9851H84.1799V105.44H64.8163V98.9851Z" fill="#4E6575"/>
<path opacity="0.3" d="M76.6503 102.976H84.1806V98.9958H72.3796C72.5409 101.212 74.3805 102.976 76.6503 102.976ZM84.5894 62.2587L86.6011 59.6661L83.6965 56.7616L80.9964 58.8593C79.7808 58.1063 78.4361 57.5361 76.9838 57.2456L76.5535 53.8032H72.4441L72.0138 57.2456C70.5615 57.5469 69.2168 58.1063 68.0012 58.8593L65.3656 56.8046C65.1828 57.719 65.0859 58.6656 65.0859 59.6446C65.0859 63.0225 66.237 66.1314 68.1518 68.6272C68.4961 65.4214 71.207 62.9256 74.4988 62.9256C76.1935 62.9256 77.8189 63.5989 79.0172 64.7972C80.2156 65.9956 80.8888 67.6209 80.8888 69.3156C80.8888 71.3596 79.9314 73.1669 78.4361 74.3394C78.8987 74.3825 79.372 74.4147 79.8561 74.4147C82.1475 74.4147 84.3097 73.8769 86.2461 72.941C86.4229 72.3966 86.556 71.839 86.6441 71.2735L89.355 70.9293C89.4196 70.8755 89.4841 70.811 89.5487 70.7464V66.7876L86.4505 66.4003C86.0955 64.9158 85.4608 63.5066 84.5894 62.2587Z" fill="#E2E2E2"/>
<path d="M88.4875 106.257H60.5178C60.0767 106.257 59.7109 105.891 59.7109 105.45C59.7109 105.009 60.0767 104.644 60.5178 104.644H88.4875C88.9285 104.644 89.2943 105.009 89.2943 105.45C89.2943 105.891 88.9285 106.257 88.4875 106.257Z" fill="#4E6575"/>
<path d="M74.5024 51.3935C74.0613 51.3935 73.6956 51.0278 73.6956 50.5867V45.294C73.6956 44.8529 74.0613 44.4872 74.5024 44.4872C74.9434 44.4872 75.3092 44.8529 75.3092 45.294V50.576C75.3092 51.0278 74.9434 51.3935 74.5024 51.3935ZM86.368 55.6966C85.9269 55.6966 85.5612 55.3308 85.5612 54.8898V47.3595C85.5612 46.9184 85.9269 46.5526 86.368 46.5526H91.7145C92.1556 46.5526 92.5213 46.9184 92.5213 47.3595C92.5213 47.8005 92.1556 48.1663 91.7145 48.1663H87.1748V54.8898C87.1748 55.3308 86.809 55.6966 86.368 55.6966ZM94.9418 69.6814H92.7902C92.3492 69.6814 91.9834 69.3157 91.9834 68.8746C91.9834 68.4335 92.3492 68.0678 92.7902 68.0678H94.1349V55.9655C94.1349 55.5245 94.5007 55.1587 94.9418 55.1587H99.2448C99.6859 55.1587 100.052 55.5245 100.052 55.9655C100.052 56.4066 99.6859 56.7723 99.2448 56.7723H95.7486V68.8746C95.7486 69.3157 95.3828 69.6814 94.9418 69.6814ZM62.6368 55.6966C62.1957 55.6966 61.8299 55.3308 61.8299 54.8898V48.1663H57.2902C56.8492 48.1663 56.4834 47.8005 56.4834 47.3595C56.4834 46.9184 56.8492 46.5526 57.2902 46.5526H62.6368C63.0778 46.5526 63.4436 46.9184 63.4436 47.3595V54.8898C63.4436 55.3308 63.0886 55.6966 62.6368 55.6966ZM56.2145 69.6814H54.063C53.6219 69.6814 53.2562 69.3157 53.2562 68.8746V56.7723H49.7599C49.3189 56.7723 48.9531 56.4066 48.9531 55.9655C48.9531 55.5245 49.3189 55.1587 49.7599 55.1587H54.063C54.504 55.1587 54.8698 55.5245 54.8698 55.9655V68.0678H56.2145C56.6555 68.0678 57.0213 68.4335 57.0213 68.8746C57.0213 69.3157 56.6555 69.6814 56.2145 69.6814Z" fill="#5E7588"/>
<path d="M102.469 59.1821C104.252 59.1821 105.697 57.7372 105.697 55.9548C105.697 54.1724 104.252 52.7275 102.469 52.7275C100.687 52.7275 99.2422 54.1724 99.2422 55.9548C99.2422 57.7372 100.687 59.1821 102.469 59.1821Z" fill="#FFAB03"/>
<path d="M94.9382 50.576C96.7206 50.576 98.1655 49.1311 98.1655 47.3487C98.1655 45.5664 96.7206 44.1215 94.9382 44.1215C93.1558 44.1215 91.7109 45.5664 91.7109 47.3487C91.7109 49.1311 93.1558 50.576 94.9382 50.576Z" fill="#EF4A51"/>
<path d="M46.532 59.1821C48.3143 59.1821 49.7592 57.7372 49.7592 55.9548C49.7592 54.1724 48.3143 52.7275 46.532 52.7275C44.7496 52.7275 43.3047 54.1724 43.3047 55.9548C43.3047 57.7372 44.7496 59.1821 46.532 59.1821Z" fill="#FFAB03"/>
<path d="M54.0632 50.576C55.8456 50.576 57.2905 49.1311 57.2905 47.3487C57.2905 45.5664 55.8456 44.1215 54.0632 44.1215C52.2808 44.1215 50.8359 45.5664 50.8359 47.3487C50.8359 49.1311 52.2808 50.576 54.0632 50.576Z" fill="#EF4A51"/>
<path d="M74.5007 45.1972C76.2831 45.1972 77.728 43.7523 77.728 41.9699C77.728 40.1876 76.2831 38.7427 74.5007 38.7427C72.7183 38.7427 71.2734 40.1876 71.2734 41.9699C71.2734 43.7523 72.7183 45.1972 74.5007 45.1972Z" fill="#8ABA55"/>
<path opacity="0.3" d="M102.468 52.7275C101.811 52.7275 101.198 52.9212 100.693 53.2654C100.596 53.5774 100.531 53.8894 100.531 54.2336C100.531 56.0194 101.973 57.4609 103.759 57.4609C104.415 57.4609 105.028 57.2672 105.534 56.923C105.63 56.611 105.695 56.2991 105.695 55.9548C105.695 54.1798 104.253 52.7275 102.468 52.7275Z" fill="white"/>
<path opacity="0.3" d="M94.9442 44.1215C94.288 44.1215 93.6748 44.3151 93.1692 44.6593C93.0724 44.9713 93.0078 45.2833 93.0078 45.6275C93.0078 47.4133 94.4493 48.8548 96.2351 48.8548C96.8913 48.8548 97.5045 48.6612 98.0101 48.3169C98.1069 48.0157 98.1714 47.693 98.1714 47.3487C98.1714 45.5737 96.7299 44.1215 94.9442 44.1215Z" fill="#E2E2E2"/>
<path opacity="0.3" d="M46.5301 52.7275C45.8739 52.7275 45.2607 52.9212 44.7551 53.2654C44.6583 53.5774 44.5938 53.8894 44.5938 54.2336C44.5938 56.0194 46.0353 57.4609 47.821 57.4609C48.4772 57.4609 49.0904 57.2672 49.596 56.923C49.6928 56.611 49.7574 56.2991 49.7574 55.9548C49.7574 54.1798 48.3159 52.7275 46.5301 52.7275Z" fill="white"/>
<path opacity="0.3" d="M54.0614 44.1215C53.4052 44.1215 52.792 44.3151 52.2864 44.6593C52.1895 44.9713 52.125 45.2833 52.125 45.6275C52.125 47.4133 53.5665 48.8548 55.3523 48.8548C56.0085 48.8548 56.6217 48.6612 57.1273 48.3169C57.2241 48.0157 57.2886 47.693 57.2886 47.3487C57.2886 45.5737 55.8471 44.1215 54.0614 44.1215Z" fill="#E2E2E2"/>
<path opacity="0.3" d="M74.4989 38.7427C73.8427 38.7427 73.2295 38.9363 72.7239 39.2806C72.627 39.5925 72.5625 39.9045 72.5625 40.2487C72.5625 42.0345 74.004 43.476 75.7898 43.476C76.446 43.476 77.0592 43.2824 77.5648 42.9381C77.6616 42.6369 77.7261 42.3142 77.7261 41.9699C77.7261 40.1949 76.2846 38.7427 74.4989 38.7427Z" fill="white"/>
<defs>
<filter id="filter0_d_3238_2933" x="0.666667" y="0.571429" width="146.667" height="146.667" filterUnits="userSpaceOnUse" color-interpolation-filters="sRGB">
<feFlood flood-opacity="0" result="BackgroundImageFix"/>
<feColorMatrix in="SourceAlpha" type="matrix" values="0 0 0 0 0 0 0 0 0 0 0 0 0 0 0 0 0 0 127 0" result="hardAlpha"/>
<feOffset dy="1.90476"/>
<feGaussianBlur stdDeviation="6.66667"/>
<feComposite in2="hardAlpha" operator="out"/>
<feColorMatrix type="matrix" values="0 0 0 0 0.695898 0 0 0 0 0.695898 0 0 0 0 0.695898 0 0 0 0.25 0"/>
<feBlend mode="normal" in2="BackgroundImageFix" result="effect1_dropShadow_3238_2933"/>
<feBlend mode="normal" in="SourceGraphic" in2="effect1_dropShadow_3238_2933" result="shape"/>
</filter>
</defs>
</svg>
