<svg width="148" height="148" viewBox="0 0 148 148" fill="none" xmlns="http://www.w3.org/2000/svg">
<g filter="url(#filter0_d_2030_7485)">
<circle cx="74" cy="72" r="60" fill="white"/>
</g>
<g clip-path="url(#clip0_2030_7485)">
<path d="M73.6304 37.3362C68.4441 42.0453 58.0437 45.4042 45.7885 45.9143C45.0949 45.9431 44.5469 46.5129 44.5469 47.2071V71.6697C44.5469 83.9622 51.1547 95.3059 61.8477 101.37L72.705 107.527C73.2521 107.837 73.8704 108 74.4993 108C75.1283 108 75.7465 107.837 76.2936 107.527L87.1509 101.37C97.8437 95.306 104.452 83.9622 104.452 71.6697V47.2071C104.452 46.5129 103.904 45.9431 103.21 45.9143C90.9549 45.4041 80.5548 42.045 75.3684 37.336C75.1306 37.1198 74.8207 37 74.4993 37C74.178 37 73.8681 37.1199 73.6304 37.3362Z" fill="#60B7FF"/>
<path d="M64.6663 96.6481C55.6729 91.548 50.0859 81.9569 50.0859 71.6179V52.2693C50.0859 51.9758 50.1938 51.6925 50.389 51.4734C50.5843 51.2542 50.8534 51.1145 51.145 51.0809C60.2043 50.042 68.1079 47.5892 73.8794 44.048C74.0667 43.933 74.2823 43.8721 74.5021 43.8721C74.7219 43.8721 74.9375 43.933 75.1248 44.048C80.8962 47.5893 88.7997 50.042 97.859 51.0809C98.1506 51.1145 98.4196 51.2542 98.6149 51.4734C98.8102 51.6925 98.9181 51.9758 98.918 52.2693V71.6179C98.918 81.9569 93.331 91.548 84.3376 96.6481L75.0926 101.891C74.9126 101.993 74.7091 102.047 74.502 102.047C74.295 102.047 74.0915 101.993 73.9114 101.891L64.6663 96.6481Z" fill="#D8ECFE"/>
<path d="M74.4999 51.4778C68.7836 51.4778 64.1328 56.1284 64.1328 61.8449V68.624H68.2052V61.8449C68.2052 58.3741 71.029 55.5503 74.4998 55.5503C77.9706 55.5503 80.7944 58.3741 80.7944 61.8449V68.624H84.8668V61.8449C84.867 56.1284 80.2163 51.4778 74.4999 51.4778Z" fill="#8D9CA8"/>
<path d="M86.2984 87.2639H62.6995C61.2689 87.2639 60.1094 86.1043 60.1094 84.6737V67.7659C60.1094 66.3354 61.2689 65.1758 62.6995 65.1758H86.2985C87.7291 65.1758 88.8886 66.3355 88.8886 67.7659V84.6737C88.8886 86.1041 87.7289 87.2639 86.2984 87.2639Z" fill="#596C76"/>
<path d="M78.2331 73.4932C78.2331 71.429 76.5596 69.7556 74.4954 69.7556C72.4312 69.7556 70.7578 71.429 70.7578 73.4932C70.7578 74.8741 71.5073 76.0793 72.6211 76.7264V81.0363C72.6211 82.0715 73.4604 82.9107 74.4956 82.9107C75.5308 82.9107 76.37 82.0715 76.37 81.0363V76.7264C77.4837 76.0793 78.2331 74.8741 78.2331 73.4932Z" fill="#384949"/>
<path d="M86.2995 65.1758H82.25C83.6805 65.1758 84.8401 66.3355 84.8401 67.7659V84.6737C84.8401 86.1043 83.6805 87.2639 82.25 87.2639H86.2995C87.73 87.2639 88.8896 86.1043 88.8896 84.6737V67.7659C88.8896 66.3354 87.7299 65.1758 86.2995 65.1758Z" fill="#465A61"/>
<path d="M103.21 45.9143C101.684 45.8511 100.16 45.7413 98.6405 45.585C98.8396 45.8181 98.9489 46.1145 98.9488 46.421V70.8836C98.9488 83.1761 92.341 94.5198 81.648 100.584L71.0547 106.591L72.7052 107.527C73.2523 107.837 73.8705 108 74.4994 108C75.1284 108 75.7466 107.837 76.2937 107.527L87.151 101.37C97.8439 95.306 104.452 83.9623 104.452 71.6697V47.2071C104.452 46.513 103.904 45.9431 103.21 45.9143Z" fill="#26A6FE"/>
</g>
<defs>
<filter id="filter0_d_2030_7485" x="0.666667" y="0.571429" width="146.667" height="146.667" filterUnits="userSpaceOnUse" color-interpolation-filters="sRGB">
<feFlood flood-opacity="0" result="BackgroundImageFix"/>
<feColorMatrix in="SourceAlpha" type="matrix" values="0 0 0 0 0 0 0 0 0 0 0 0 0 0 0 0 0 0 127 0" result="hardAlpha"/>
<feOffset dy="1.90476"/>
<feGaussianBlur stdDeviation="6.66667"/>
<feComposite in2="hardAlpha" operator="out"/>
<feColorMatrix type="matrix" values="0 0 0 0 0.695898 0 0 0 0 0.695898 0 0 0 0 0.695898 0 0 0 0.25 0"/>
<feBlend mode="normal" in2="BackgroundImageFix" result="effect1_dropShadow_2030_7485"/>
<feBlend mode="normal" in="SourceGraphic" in2="effect1_dropShadow_2030_7485" result="shape"/>
</filter>
<clipPath id="clip0_2030_7485">
<rect width="71" height="71" fill="white" transform="translate(39 37)"/>
</clipPath>
</defs>
</svg>
