<svg width="148" height="148" viewBox="0 0 148 148" fill="none" xmlns="http://www.w3.org/2000/svg">
<g filter="url(#filter0_d_1273_351)">
<circle cx="74" cy="72" r="60" fill="white"/>
</g>
<path d="M41.0393 57.9975C39.8867 57.9432 39 56.9504 39 55.7965V44.8571C39 43.6737 39.9594 42.7142 41.1429 42.7142H52.0823C53.2361 42.7142 54.229 43.6009 54.2833 44.7535C54.3413 45.9841 53.3607 46.9999 52.1429 46.9999H44C43.8106 46.9999 43.6289 47.0752 43.4949 47.2092C43.361 47.3431 43.2857 47.5248 43.2857 47.7142V55.8571C43.2857 57.0749 42.2699 58.0555 41.0393 57.9975ZM52.1429 102.286H41.1429C39.9594 102.286 39 101.326 39 100.143V89.2034C39 88.0495 39.8867 87.0567 41.0393 87.0024C42.2699 86.9444 43.2857 87.9249 43.2857 89.1428V97.2857C43.2857 97.4751 43.361 97.6568 43.4949 97.7907C43.6289 97.9247 43.8106 98 44 98H52.0823C53.2361 98 54.229 98.8867 54.2833 100.039C54.3413 101.27 53.3607 102.286 52.1429 102.286ZM107.754 57.9975C106.601 57.9432 105.714 56.9504 105.714 55.7965V47.7142C105.714 47.5248 105.639 47.3431 105.505 47.2092C105.371 47.0752 105.189 46.9999 105 46.9999H96.9177C95.7639 46.9999 94.771 46.1132 94.7167 44.9607C94.6587 43.7301 95.6393 42.7142 96.8571 42.7142H107.857C109.041 42.7142 110 43.6737 110 44.8571V55.8571C110 57.0749 108.984 58.0555 107.754 57.9975ZM107.857 102.286H96.9177C95.7639 102.286 94.771 101.399 94.7167 100.246C94.6587 99.0158 95.6393 98 96.8571 98H105C105.189 98 105.371 97.9247 105.505 97.7907C105.639 97.6568 105.714 97.4751 105.714 97.2857V89.2034C105.714 88.0495 106.601 87.0567 107.754 87.0024C108.984 86.9444 110 87.9249 110 89.1428V100.143C110 101.326 109.041 102.286 107.857 102.286Z" fill="#6CBFF8"/>
<path d="M105.349 69.8657C106.695 71.3656 106.695 73.6344 105.349 75.1343C100.562 80.4673 88.556 92.0394 74.5017 92.0394C60.4474 92.0394 48.4411 80.4673 43.6542 75.1343C42.308 73.6344 42.308 71.3656 43.6542 69.8657C48.4411 64.5327 60.4474 52.9606 74.5017 52.9606C88.556 52.9606 100.562 64.5327 105.349 69.8657Z" fill="#E6F7FE"/>
<path d="M71.8338 91.9028C58.941 90.5885 48.1324 80.127 43.651 75.1342C42.3038 73.6342 42.3038 71.3656 43.651 69.8656C48.1324 64.8728 58.941 54.4113 71.8338 53.097C61.5181 56.4885 53.1667 65.187 49.3653 69.6956C48.0181 71.2913 48.0181 73.7085 49.3653 75.3042C53.1667 79.8128 61.5181 88.5113 71.8338 91.9028Z" fill="#D3EFFD"/>
<path d="M74.5006 83.2857C80.4573 83.2857 85.2863 78.4567 85.2863 72.4999C85.2863 66.5432 80.4573 61.7142 74.5006 61.7142C68.5438 61.7142 63.7148 66.5432 63.7148 72.4999C63.7148 78.4567 68.5438 83.2857 74.5006 83.2857Z" fill="#3C6A73"/>
<path d="M83.422 78.5642C81.4806 81.4142 78.2091 83.2856 74.5006 83.2856C68.5434 83.2856 63.7148 78.4571 63.7148 72.4999C63.7148 68.7913 65.5863 65.5199 68.4363 63.5785C67.2606 65.3071 66.572 67.3942 66.572 69.6428C66.572 75.5999 71.4006 80.4285 77.3577 80.4285C79.6063 80.4285 81.6934 79.7399 83.422 78.5642Z" fill="#2F535A"/>
<defs>
<filter id="filter0_d_1273_351" x="0.666667" y="0.571429" width="146.667" height="146.667" filterUnits="userSpaceOnUse" color-interpolation-filters="sRGB">
<feFlood flood-opacity="0" result="BackgroundImageFix"/>
<feColorMatrix in="SourceAlpha" type="matrix" values="0 0 0 0 0 0 0 0 0 0 0 0 0 0 0 0 0 0 127 0" result="hardAlpha"/>
<feOffset dy="1.90476"/>
<feGaussianBlur stdDeviation="6.66667"/>
<feComposite in2="hardAlpha" operator="out"/>
<feColorMatrix type="matrix" values="0 0 0 0 0.695898 0 0 0 0 0.695898 0 0 0 0 0.695898 0 0 0 0.25 0"/>
<feBlend mode="normal" in2="BackgroundImageFix" result="effect1_dropShadow_1273_351"/>
<feBlend mode="normal" in="SourceGraphic" in2="effect1_dropShadow_1273_351" result="shape"/>
</filter>
</defs>
</svg>
