<svg width="148" height="148" viewBox="0 0 148 148" fill="none" xmlns="http://www.w3.org/2000/svg">
<g filter="url(#filter0_d_2030_1062)">
<circle cx="74" cy="72" r="60" fill="white"/>
</g>
<path d="M101.154 88.301H47.8479C47.2438 88.301 46.6645 88.0611 46.2374 87.634C45.8103 87.2068 45.5703 86.6275 45.5703 86.0235V48.3161C45.5703 47.7121 45.8103 47.1328 46.2374 46.7057C46.6645 46.2785 47.2438 46.0386 47.8479 46.0386H101.154C101.758 46.0386 102.337 46.2785 102.764 46.7057C103.191 47.1328 103.431 47.7121 103.431 48.3161V86.0232C103.431 86.3223 103.372 86.6185 103.258 86.8949C103.144 87.1712 102.976 87.4223 102.764 87.6339C102.553 87.8454 102.302 88.0132 102.025 88.1276C101.749 88.2421 101.453 88.301 101.154 88.301Z" fill="#414042"/>
<path d="M68.3906 88.301H80.6101V96.4705H68.3906V88.301Z" fill="#E6E7E8"/>
<path d="M68.3906 88.301H80.6101V91.0298H68.3906V88.301Z" fill="#D1D3D4"/>
<path d="M99.9202 85.6726H49.082C48.7878 85.6726 48.5056 85.5557 48.2976 85.3477C48.0895 85.1397 47.9727 84.8575 47.9727 84.5633V49.2252C47.9727 48.931 48.0895 48.6488 48.2976 48.4408C48.5056 48.2327 48.7878 48.1158 49.082 48.1158H99.9202C100.214 48.1158 100.497 48.2327 100.705 48.4408C100.913 48.6488 101.03 48.931 101.03 49.2252V84.563C101.03 84.7087 101.001 84.853 100.945 84.9876C100.89 85.1222 100.808 85.2446 100.705 85.3476C100.602 85.4506 100.479 85.5324 100.345 85.5882C100.21 85.6439 100.066 85.6726 99.9202 85.6726Z" fill="#478CF7"/>
<path d="M49.6367 79.5167C49.4896 79.5167 49.3485 79.4583 49.2445 79.3542C49.1405 79.2502 49.082 79.1091 49.082 78.962V49.7799C49.082 49.707 49.0963 49.6349 49.1241 49.5676C49.152 49.5002 49.1928 49.439 49.2443 49.3875C49.2959 49.336 49.357 49.2951 49.4244 49.2673C49.4917 49.2394 49.5639 49.2251 49.6367 49.2252H87.0171C87.3222 49.2252 87.5718 49.4746 87.5718 49.7799C87.5718 50.085 87.3222 50.3346 87.0171 50.3346H50.1914V78.962C50.1914 79.2668 49.9418 79.5167 49.6367 79.5167ZM89.2359 50.3346C89.162 50.3363 89.0885 50.3232 89.0198 50.2961C88.9511 50.2689 88.8884 50.2284 88.8356 50.1767C88.7828 50.1251 88.7408 50.0634 88.7121 49.9953C88.6834 49.9272 88.6687 49.8541 88.6686 49.7802C88.6686 49.7063 88.6834 49.6332 88.712 49.565C88.7406 49.4969 88.7826 49.4352 88.8354 49.3836C88.8882 49.3319 88.9508 49.2913 89.0195 49.2641C89.0883 49.237 89.1617 49.2239 89.2356 49.2255C89.3805 49.2287 89.5184 49.2885 89.6198 49.3921C89.7212 49.4958 89.778 49.6349 89.778 49.7799C89.778 49.9249 89.7213 50.0641 89.62 50.1678C89.5187 50.2714 89.3808 50.3313 89.2359 50.3346Z" fill="#5E9CF7"/>
<path d="M99.9202 48.1158H98.2562V81.7895C98.2562 82.0838 98.1393 82.3659 97.9313 82.574C97.7232 82.782 97.441 82.8989 97.1468 82.8989H47.9727V84.563C47.9727 84.8572 48.0895 85.1394 48.2976 85.3474C48.5056 85.5555 48.7878 85.6723 49.082 85.6723H99.9202C100.214 85.6723 100.497 85.5555 100.705 85.3474C100.913 85.1394 101.03 84.8572 101.03 84.563V49.2252C101.03 48.931 100.913 48.6488 100.705 48.4408C100.497 48.2327 100.214 48.1158 99.9202 48.1158Z" fill="#377DE2"/>
<path d="M99.9202 48.1158H99.6429V83.1763C99.6429 83.4705 99.526 83.7527 99.318 83.9607C99.1099 84.1687 98.8278 84.2856 98.5335 84.2856H47.9727V84.563C47.9727 84.8572 48.0895 85.1394 48.2976 85.3474C48.5056 85.5555 48.7878 85.6723 49.082 85.6723H99.9202C100.214 85.6723 100.497 85.5555 100.705 85.3474C100.913 85.1394 101.03 84.8572 101.03 84.563V49.2252C101.03 48.931 100.913 48.6488 100.705 48.4408C100.497 48.2327 100.214 48.1158 99.9202 48.1158Z" fill="#2266D3"/>
<path d="M92.9914 99.1452H56.0092C55.6545 99.1452 55.3144 99.0043 55.0636 98.7535C54.8128 98.5027 54.6719 98.1625 54.6719 97.8078C54.6719 97.4531 54.8128 97.113 55.0636 96.8622C55.3144 96.6114 55.6545 96.4705 56.0092 96.4705H92.9916C93.3463 96.4705 93.6865 96.6114 93.9372 96.8623C94.188 97.1131 94.3289 97.4533 94.3288 97.8079C94.3288 98.1626 94.1879 98.5028 93.937 98.7536C93.6862 99.0043 93.346 99.1452 92.9914 99.1452Z" fill="#58595B"/>
<path d="M104.406 101.09H85.3022C84.9589 101.09 84.6297 100.954 84.3869 100.711C84.1442 100.469 84.0078 100.139 84.0078 99.7961V68.7519C84.0078 68.4086 84.1442 68.0794 84.3869 67.8366C84.6297 67.5939 84.9589 67.4575 85.3022 67.4575H104.406C104.749 67.4575 105.078 67.5939 105.321 67.8366C105.564 68.0794 105.7 68.4086 105.7 68.7519V99.7961C105.7 100.139 105.564 100.469 105.321 100.711C105.078 100.954 104.749 101.09 104.406 101.09Z" fill="#F1F2F2"/>
<path d="M103.518 98.382H86.1916C86.1128 98.382 86.0372 98.3507 85.9815 98.295C85.9258 98.2393 85.8945 98.1637 85.8945 98.0849V70.4632C85.8945 70.2993 86.0274 70.1661 86.1916 70.1661H103.518C103.682 70.1661 103.815 70.299 103.815 70.4632V98.0849C103.815 98.2489 103.683 98.382 103.518 98.382Z" fill="#414042"/>
<path d="M94.8532 90.6136C98.8863 90.6136 102.156 87.3442 102.156 83.3111C102.156 79.2781 98.8863 76.0087 94.8532 76.0087C90.8202 76.0087 87.5508 79.2781 87.5508 83.3111C87.5508 87.3442 90.8202 90.6136 94.8532 90.6136Z" fill="#E63950"/>
<path d="M74.5005 80.4308C77.8749 80.4308 80.6104 77.6953 80.6104 74.3209C80.6104 70.9465 77.8749 68.2111 74.5005 68.2111C71.1261 68.2111 68.3906 70.9465 68.3906 74.3209C68.3906 77.6953 71.1261 80.4308 74.5005 80.4308Z" fill="#FFA91A"/>
<path d="M73.8385 77.5404C73.6988 77.5405 73.5604 77.5131 73.4314 77.4597C73.3023 77.4062 73.185 77.3278 73.0864 77.2289L70.9913 75.1339C70.8925 75.0351 70.8141 74.9178 70.7607 74.7887C70.7072 74.6596 70.6797 74.5213 70.6797 74.3816C70.6797 74.2419 70.7072 74.1035 70.7607 73.9744C70.8141 73.8454 70.8925 73.7281 70.9913 73.6293C71.0901 73.5305 71.2074 73.4521 71.3365 73.3987C71.4655 73.3452 71.6039 73.3177 71.7436 73.3177C71.8833 73.3177 72.0217 73.3452 72.1507 73.3987C72.2798 73.4521 72.3971 73.5305 72.4959 73.6293L73.8385 74.9722L76.5032 72.3075C76.602 72.2087 76.7193 72.1303 76.8484 72.0768C76.9775 72.0234 77.1158 71.9958 77.2555 71.9958C77.3952 71.9958 77.5336 72.0234 77.6627 72.0768C77.7917 72.1303 77.909 72.2087 78.0078 72.3075C78.1066 72.4063 78.185 72.5235 78.2384 72.6526C78.2919 72.7817 78.3194 72.92 78.3194 73.0598C78.3194 73.1995 78.2919 73.3378 78.2384 73.4669C78.185 73.596 78.1066 73.7133 78.0078 73.812L74.5909 77.2289C74.4922 77.3278 74.3749 77.4063 74.2458 77.4597C74.1167 77.5132 73.9783 77.5406 73.8385 77.5404Z" fill="white"/>
<path d="M61.521 63.8149H54.6906C54.4939 63.8149 54.3054 63.7368 54.1664 63.5978C54.0273 63.4587 53.9492 63.2702 53.9492 63.0736V56.2434C53.9492 56.0468 54.0273 55.8582 54.1664 55.7192C54.3054 55.5802 54.4939 55.5021 54.6906 55.5021H61.521C61.7176 55.5021 61.9062 55.5802 62.0452 55.7192C62.1842 55.8582 62.2623 56.0468 62.2623 56.2434V63.0738C62.2622 63.2704 62.1841 63.4589 62.0451 63.5979C61.9061 63.7368 61.7175 63.8149 61.521 63.8149Z" fill="#FFA91A"/>
<path d="M58.1031 62.5628C57.9856 62.5628 57.8729 62.5161 57.7899 62.433C57.7068 62.35 57.6602 62.2373 57.6602 62.1199V57.1976C57.6602 57.0801 57.7068 56.9674 57.7899 56.8844C57.8729 56.8013 57.9856 56.7546 58.1031 56.7546C58.2205 56.7546 58.3332 56.8013 58.4163 56.8844C58.4993 56.9674 58.546 57.0801 58.546 57.1976V62.1199C58.546 62.3645 58.3477 62.5628 58.1031 62.5628Z" fill="#F1F2F2"/>
<path d="M55.1992 59.6586C55.1992 59.414 55.3975 59.2157 55.6421 59.2157H60.5644C60.6819 59.2157 60.7946 59.2624 60.8776 59.3454C60.9607 59.4285 61.0074 59.5411 61.0074 59.6586C61.0074 59.7761 60.9607 59.8887 60.8776 59.9718C60.7946 60.0549 60.6819 60.1015 60.5644 60.1015H55.6421C55.5247 60.1015 55.412 60.0549 55.3289 59.9718C55.2459 59.8887 55.1992 59.7761 55.1992 59.6586Z" fill="#F1F2F2"/>
<path d="M56.0517 61.7122C56.0105 61.671 55.9779 61.6222 55.9556 61.5684C55.9333 61.5147 55.9219 61.4571 55.9219 61.3989C55.9219 61.3407 55.9333 61.2831 55.9556 61.2294C55.9779 61.1756 56.0105 61.1268 56.0517 61.0856L59.5323 57.605C59.5735 57.5638 59.6223 57.5312 59.6761 57.5089C59.7298 57.4867 59.7874 57.4752 59.8456 57.4752C59.9038 57.4752 59.9614 57.4867 60.0151 57.5089C60.0689 57.5312 60.1177 57.5638 60.1589 57.605C60.2 57.6461 60.2326 57.695 60.2549 57.7487C60.2772 57.8024 60.2886 57.8601 60.2886 57.9182C60.2886 57.9764 60.2772 58.034 60.2549 58.0878C60.2326 58.1415 60.2 58.1904 60.1589 58.2315L56.6782 61.7122C56.6371 61.7533 56.5882 61.786 56.5345 61.8082C56.4807 61.8305 56.4231 61.842 56.3649 61.842C56.3068 61.842 56.2491 61.8305 56.1954 61.8082C56.1416 61.786 56.0928 61.7533 56.0517 61.7122Z" fill="#F1F2F2"/>
<path d="M56.0517 57.6051C56.0928 57.564 56.1416 57.5313 56.1954 57.5091C56.2491 57.4868 56.3068 57.4753 56.3649 57.4753C56.4231 57.4753 56.4807 57.4868 56.5345 57.5091C56.5882 57.5313 56.6371 57.564 56.6782 57.6051L60.1589 61.0858C60.2419 61.1689 60.2886 61.2816 60.2886 61.3991C60.2886 61.5166 60.2419 61.6292 60.1589 61.7123C60.0758 61.7954 59.9631 61.8421 59.8456 61.8421C59.7281 61.8421 59.6154 61.7954 59.5323 61.7123L56.0517 58.2317C56.0105 58.1905 55.9779 58.1417 55.9556 58.0879C55.9333 58.0342 55.9219 57.9766 55.9219 57.9184C55.9219 57.8602 55.9333 57.8026 55.9556 57.7489C55.9779 57.6951 56.0105 57.6463 56.0517 57.6051Z" fill="#F1F2F2"/>
<path d="M72.466 63.8149H65.6359C65.4393 63.8149 65.2507 63.7368 65.1117 63.5978C64.9726 63.4587 64.8945 63.2702 64.8945 63.0736V56.2434C64.8945 56.0468 64.9726 55.8582 65.1117 55.7192C65.2507 55.5802 65.4393 55.5021 65.6359 55.5021H72.4663C72.6629 55.5021 72.8515 55.5802 72.9905 55.7192C73.1295 55.8582 73.2076 56.0468 73.2076 56.2434V63.0738C73.2075 63.2704 73.1293 63.4589 72.9902 63.5979C72.8512 63.7368 72.6626 63.8149 72.466 63.8149Z" fill="#FFA91A"/>
<path d="M69.0484 62.5628C68.9309 62.5628 68.8183 62.5161 68.7352 62.433C68.6521 62.35 68.6055 62.2373 68.6055 62.1199V57.1976C68.6055 57.0801 68.6521 56.9674 68.7352 56.8844C68.8183 56.8013 68.9309 56.7546 69.0484 56.7546C69.1659 56.7546 69.2785 56.8013 69.3616 56.8844C69.4446 56.9674 69.4913 57.0801 69.4913 57.1976V62.1199C69.4913 62.178 69.4799 62.2356 69.4577 62.2894C69.4354 62.3431 69.4028 62.392 69.3617 62.4331C69.3205 62.4743 69.2717 62.5069 69.2179 62.5291C69.1642 62.5514 69.1066 62.5628 69.0484 62.5628Z" fill="#F1F2F2"/>
<path d="M66.1445 59.6586C66.1445 59.414 66.3428 59.2157 66.5874 59.2157H71.5097C71.6272 59.2157 71.7399 59.2624 71.8229 59.3454C71.906 59.4285 71.9527 59.5411 71.9527 59.6586C71.9527 59.7761 71.906 59.8887 71.8229 59.9718C71.7399 60.0549 71.6272 60.1015 71.5097 60.1015H66.5874C66.47 60.1015 66.3573 60.0549 66.2743 59.9718C66.1912 59.8887 66.1445 59.7761 66.1445 59.6586Z" fill="#F1F2F2"/>
<path d="M66.997 61.7122C66.9558 61.671 66.9232 61.6222 66.9009 61.5684C66.8787 61.5147 66.8672 61.4571 66.8672 61.3989C66.8672 61.3407 66.8787 61.2831 66.9009 61.2294C66.9232 61.1756 66.9558 61.1268 66.997 61.0856L70.4776 57.605C70.5188 57.5638 70.5676 57.5312 70.6214 57.5089C70.6751 57.4867 70.7327 57.4752 70.7909 57.4752C70.8491 57.4752 70.9067 57.4867 70.9604 57.5089C71.0142 57.5312 71.063 57.5638 71.1042 57.605C71.1453 57.6461 71.1779 57.695 71.2002 57.7487C71.2225 57.8024 71.2339 57.8601 71.2339 57.9182C71.2339 57.9764 71.2225 58.034 71.2002 58.0878C71.1779 58.1415 71.1453 58.1904 71.1042 58.2315L67.6235 61.7122C67.5824 61.7533 67.5335 61.786 67.4798 61.8082C67.426 61.8305 67.3684 61.842 67.3102 61.842C67.2521 61.842 67.1945 61.8305 67.1407 61.8082C67.087 61.786 67.0381 61.7533 66.997 61.7122Z" fill="#F1F2F2"/>
<path d="M66.997 57.6051C67.0381 57.564 67.087 57.5313 67.1407 57.5091C67.1945 57.4868 67.2521 57.4753 67.3102 57.4753C67.3684 57.4753 67.426 57.4868 67.4798 57.5091C67.5335 57.5313 67.5824 57.564 67.6235 57.6051L71.1042 61.0858C71.1453 61.1269 71.1779 61.1758 71.2002 61.2295C71.2225 61.2833 71.2339 61.3409 71.2339 61.3991C71.2339 61.4572 71.2225 61.5148 71.2002 61.5686C71.1779 61.6223 71.1453 61.6712 71.1042 61.7123C71.063 61.7535 71.0142 61.7861 70.9604 61.8084C70.9067 61.8306 70.8491 61.8421 70.7909 61.8421C70.7327 61.8421 70.6751 61.8306 70.6214 61.8084C70.5676 61.7861 70.5188 61.7535 70.4776 61.7123L66.997 58.2317C66.9558 58.1905 66.9232 58.1417 66.9009 58.0879C66.8787 58.0342 66.8672 57.9766 66.8672 57.9184C66.8672 57.8602 66.8787 57.8026 66.9009 57.7489C66.9232 57.6951 66.9558 57.6463 66.997 57.6051Z" fill="#F1F2F2"/>
<path d="M83.4116 63.8149H76.5812C76.3846 63.8149 76.196 63.7368 76.057 63.5978C75.918 63.4587 75.8398 63.2702 75.8398 63.0736V56.2434C75.8398 56.0468 75.918 55.8582 76.057 55.7192C76.196 55.5802 76.3846 55.5021 76.5812 55.5021H83.4116C83.6082 55.5021 83.7968 55.5802 83.9358 55.7192C84.0748 55.8582 84.1529 56.0468 84.1529 56.2434V63.0738C84.1529 63.2704 84.0747 63.4589 83.9357 63.5979C83.7967 63.7368 83.6082 63.8149 83.4116 63.8149Z" fill="#FFA91A"/>
<path d="M79.9976 62.5628C79.8801 62.5628 79.7675 62.5161 79.6844 62.433C79.6014 62.35 79.5547 62.2373 79.5547 62.1199V57.1976C79.5547 57.1394 79.5661 57.0818 79.5884 57.0281C79.6107 56.9743 79.6433 56.9255 79.6844 56.8844C79.7255 56.8432 79.7744 56.8106 79.8281 56.7884C79.8818 56.7661 79.9394 56.7546 79.9976 56.7546C80.0558 56.7546 80.1134 56.7661 80.1671 56.7884C80.2208 56.8106 80.2697 56.8432 80.3108 56.8844C80.3519 56.9255 80.3845 56.9743 80.4068 57.0281C80.4291 57.0818 80.4405 57.1394 80.4405 57.1976V62.1199C80.4405 62.3645 80.2422 62.5628 79.9976 62.5628Z" fill="#F1F2F2"/>
<path d="M77.0938 59.6586C77.0938 59.414 77.2921 59.2157 77.5367 59.2157H82.459C82.5764 59.2157 82.6891 59.2624 82.7722 59.3454C82.8552 59.4285 82.9019 59.5411 82.9019 59.6586C82.9019 59.7761 82.8552 59.8887 82.7722 59.9718C82.6891 60.0549 82.5764 60.1015 82.459 60.1015H77.5367C77.4192 60.1015 77.3065 60.0549 77.2235 59.9718C77.1404 59.8887 77.0938 59.7761 77.0938 59.6586Z" fill="#F1F2F2"/>
<path d="M77.9423 61.7122C77.9011 61.671 77.8685 61.6222 77.8462 61.5684C77.824 61.5147 77.8125 61.4571 77.8125 61.3989C77.8125 61.3407 77.824 61.2831 77.8462 61.2294C77.8685 61.1756 77.9011 61.1268 77.9423 61.0856L81.423 57.605C81.4641 57.5638 81.5129 57.5312 81.5667 57.5089C81.6204 57.4867 81.678 57.4752 81.7362 57.4752C81.7944 57.4752 81.852 57.4867 81.9058 57.5089C81.9595 57.5312 82.0083 57.5638 82.0495 57.605C82.0906 57.6461 82.1233 57.695 82.1455 57.7487C82.1678 57.8024 82.1792 57.8601 82.1792 57.9182C82.1792 57.9764 82.1678 58.034 82.1455 58.0878C82.1233 58.1415 82.0906 58.1904 82.0495 58.2315L78.5688 61.7122C78.5277 61.7533 78.4788 61.786 78.4251 61.8082C78.3713 61.8305 78.3137 61.842 78.2556 61.842C78.1974 61.842 78.1398 61.8305 78.086 61.8082C78.0323 61.786 77.9834 61.7533 77.9423 61.7122Z" fill="#F1F2F2"/>
<path d="M77.9423 57.6051C77.9834 57.564 78.0323 57.5313 78.086 57.5091C78.1398 57.4868 78.1974 57.4753 78.2556 57.4753C78.3137 57.4753 78.3713 57.4868 78.4251 57.5091C78.4788 57.5313 78.5277 57.564 78.5688 57.6051L82.0495 61.0858C82.0906 61.1269 82.1233 61.1758 82.1455 61.2295C82.1678 61.2833 82.1792 61.3409 82.1792 61.3991C82.1792 61.4572 82.1678 61.5148 82.1455 61.5686C82.1233 61.6223 82.0906 61.6712 82.0495 61.7123C82.0083 61.7535 81.9595 61.7861 81.9058 61.8084C81.852 61.8306 81.7944 61.8421 81.7362 61.8421C81.678 61.8421 81.6204 61.8306 81.5667 61.8084C81.5129 61.7861 81.4641 61.7535 81.423 61.7123L77.9423 58.2317C77.9011 58.1905 77.8685 58.1417 77.8462 58.0879C77.824 58.0342 77.8125 57.9766 77.8125 57.9184C77.8125 57.8602 77.824 57.8026 77.8462 57.7489C77.8685 57.6951 77.9011 57.6463 77.9423 57.6051Z" fill="#F1F2F2"/>
<path d="M94.3569 63.8149H87.5265C87.3299 63.8149 87.1413 63.7368 87.0023 63.5978C86.8633 63.4587 86.7852 63.2702 86.7852 63.0736V56.2434C86.7852 56.0468 86.8633 55.8582 87.0023 55.7192C87.1413 55.5802 87.3299 55.5021 87.5265 55.5021H94.3569C94.5535 55.5021 94.7421 55.5802 94.8811 55.7192C95.0201 55.8582 95.0983 56.0468 95.0983 56.2434V63.0738C95.0983 63.1712 95.0791 63.2676 95.0418 63.3575C95.0046 63.4474 94.9499 63.5291 94.8811 63.5979C94.8123 63.6668 94.7305 63.7213 94.6406 63.7586C94.5507 63.7958 94.4543 63.8149 94.3569 63.8149Z" fill="#FFA91A"/>
<path d="M90.9429 62.5628C90.8254 62.5628 90.7128 62.5161 90.6297 62.433C90.5467 62.35 90.5 62.2373 90.5 62.1199V57.1976C90.5 57.1394 90.5115 57.0818 90.5337 57.0281C90.556 56.9743 90.5886 56.9255 90.6297 56.8844C90.6709 56.8432 90.7197 56.8106 90.7734 56.7884C90.8272 56.7661 90.8848 56.7546 90.9429 56.7546C91.0011 56.7546 91.0587 56.7661 91.1124 56.7884C91.1662 56.8106 91.215 56.8432 91.2561 56.8844C91.2972 56.9255 91.3299 56.9743 91.3521 57.0281C91.3744 57.0818 91.3858 57.1394 91.3858 57.1976V62.1199C91.3859 62.178 91.3744 62.2356 91.3522 62.2894C91.3299 62.3431 91.2973 62.392 91.2562 62.4331C91.2151 62.4743 91.1662 62.5069 91.1125 62.5291C91.0587 62.5514 91.0011 62.5628 90.9429 62.5628Z" fill="#F1F2F2"/>
<path d="M88.0391 59.6586C88.0391 59.414 88.2374 59.2157 88.482 59.2157H93.4043C93.5217 59.2157 93.6344 59.2624 93.7175 59.3454C93.8005 59.4285 93.8472 59.5411 93.8472 59.6586C93.8472 59.7761 93.8005 59.8887 93.7175 59.9718C93.6344 60.0549 93.5217 60.1015 93.4043 60.1015H88.482C88.3645 60.1015 88.2519 60.0549 88.1688 59.9718C88.0857 59.8887 88.0391 59.7761 88.0391 59.6586Z" fill="#F1F2F2"/>
<path d="M88.8876 61.7122C88.8465 61.671 88.8138 61.6222 88.7915 61.5684C88.7693 61.5147 88.7578 61.4571 88.7578 61.3989C88.7578 61.3407 88.7693 61.2831 88.7915 61.2294C88.8138 61.1756 88.8465 61.1268 88.8876 61.0856L92.3683 57.605C92.4094 57.5638 92.4583 57.5312 92.512 57.5089C92.5657 57.4867 92.6234 57.4752 92.6815 57.4752C92.7397 57.4752 92.7973 57.4867 92.8511 57.5089C92.9048 57.5312 92.9537 57.5638 92.9948 57.605C93.0359 57.6461 93.0686 57.695 93.0908 57.7487C93.1131 57.8024 93.1246 57.8601 93.1246 57.9182C93.1246 57.9764 93.1131 58.034 93.0908 58.0878C93.0686 58.1415 93.0359 58.1904 92.9948 58.2315L89.5141 61.7122C89.473 61.7533 89.4242 61.786 89.3704 61.8082C89.3167 61.8305 89.2591 61.842 89.2009 61.842C89.1427 61.842 89.0851 61.8305 89.0313 61.8082C88.9776 61.786 88.9287 61.7533 88.8876 61.7122Z" fill="#F1F2F2"/>
<path d="M88.8876 57.6051C88.9287 57.564 88.9776 57.5313 89.0313 57.5091C89.0851 57.4868 89.1427 57.4753 89.2009 57.4753C89.2591 57.4753 89.3167 57.4868 89.3704 57.5091C89.4242 57.5313 89.473 57.564 89.5141 57.6051L92.9948 61.0858C93.0359 61.1269 93.0686 61.1758 93.0908 61.2295C93.1131 61.2833 93.1246 61.3409 93.1246 61.3991C93.1246 61.4572 93.1131 61.5148 93.0908 61.5686C93.0686 61.6223 93.0359 61.6712 92.9948 61.7123C92.9537 61.7535 92.9048 61.7861 92.8511 61.8084C92.7973 61.8306 92.7397 61.8421 92.6815 61.8421C92.6234 61.8421 92.5657 61.8306 92.512 61.8084C92.4583 61.7861 92.4094 61.7535 92.3683 61.7123L88.8876 58.2317C88.8465 58.1905 88.8138 58.1417 88.7915 58.0879C88.7693 58.0342 88.7578 57.9766 88.7578 57.9184C88.7578 57.8602 88.7693 57.8026 88.7915 57.7489C88.8138 57.6951 88.8465 57.6463 88.8876 57.6051Z" fill="#F1F2F2"/>
<path d="M97.5069 87.6199H92.2035C92.1112 87.6199 92.0227 87.5832 91.9574 87.518C91.8921 87.4527 91.8555 87.3642 91.8555 87.2718V82.8235C91.8555 82.6313 92.0113 82.4755 92.2035 82.4755H97.5069C97.6991 82.4755 97.855 82.6313 97.855 82.8235V87.2718C97.855 87.4643 97.6991 87.6199 97.5069 87.6199Z" fill="#FFA91A"/>
<path d="M95.6742 86.0385L95.2416 84.8306C95.3668 84.7475 95.462 84.6263 95.513 84.4849C95.5639 84.3435 95.568 84.1894 95.5246 84.0455C95.4812 83.9016 95.3926 83.7755 95.272 83.6859C95.1513 83.5963 95.005 83.5479 94.8547 83.5479C94.7044 83.5479 94.5581 83.5963 94.4374 83.6859C94.3167 83.7755 94.2282 83.9016 94.1848 84.0455C94.1413 84.1894 94.1454 84.3435 94.1964 84.4849C94.2474 84.6263 94.3425 84.7475 94.4678 84.8306L94.0351 86.0385C94.0207 86.0789 94.0162 86.1223 94.022 86.1648C94.0278 86.2074 94.0437 86.2479 94.0685 86.283C94.0932 86.3182 94.126 86.3468 94.1641 86.3666C94.2022 86.3864 94.2446 86.3968 94.2875 86.3968H95.4219C95.4648 86.3968 95.5072 86.3865 95.5453 86.3667C95.5835 86.347 95.6163 86.3183 95.6411 86.2832C95.6658 86.248 95.6818 86.2075 95.6875 86.1649C95.6933 86.1223 95.6887 86.0789 95.6742 86.0385Z" fill="#EF7816"/>
<path d="M97.2924 82.476H96.4604V80.95C96.4598 80.5146 96.2866 80.0972 95.9787 79.7893C95.6708 79.4814 95.2533 79.3083 94.8179 79.3079C94.3826 79.3084 93.9652 79.4816 93.6573 79.7894C93.3495 80.0973 93.1763 80.5146 93.1758 80.95V82.476H92.3438V80.95C92.3438 79.5858 93.4537 78.4758 94.8179 78.4758C96.1825 78.4758 97.2924 79.5858 97.2924 80.95V82.476Z" fill="white"/>
<defs>
<filter id="filter0_d_2030_1062" x="0.666667" y="0.571429" width="146.667" height="146.667" filterUnits="userSpaceOnUse" color-interpolation-filters="sRGB">
<feFlood flood-opacity="0" result="BackgroundImageFix"/>
<feColorMatrix in="SourceAlpha" type="matrix" values="0 0 0 0 0 0 0 0 0 0 0 0 0 0 0 0 0 0 127 0" result="hardAlpha"/>
<feOffset dy="1.90476"/>
<feGaussianBlur stdDeviation="6.66667"/>
<feComposite in2="hardAlpha" operator="out"/>
<feColorMatrix type="matrix" values="0 0 0 0 0.695898 0 0 0 0 0.695898 0 0 0 0 0.695898 0 0 0 0.25 0"/>
<feBlend mode="normal" in2="BackgroundImageFix" result="effect1_dropShadow_2030_1062"/>
<feBlend mode="normal" in="SourceGraphic" in2="effect1_dropShadow_2030_1062" result="shape"/>
</filter>
</defs>
</svg>
