<svg width="148" height="148" viewBox="0 0 148 148" fill="none" xmlns="http://www.w3.org/2000/svg">
<g filter="url(#filter0_d_2030_3646)">
<circle cx="74" cy="72" r="60" fill="white"/>
</g>
<path d="M59.8516 94.6943V104.949H74.5035L79.1256 99.8215L74.5035 94.6943H59.8516Z" fill="#A5ABCC"/>
<path d="M74.5 94.6943H89.1519V104.949H74.5V94.6943Z" fill="#7485A8"/>
<path d="M74.5 42.7339H39V88.1884L74.5 92.4815L82.0593 61.8383L74.5 42.7339Z" fill="#E6FFFF"/>
<path d="M74.5 42.7339V92.4815L110 88.1884V42.7339H74.5Z" fill="#D8F2FF"/>
<path d="M55.8125 106.914H74.4988L77.0934 104.948L74.4988 102.754H55.8125V106.914Z" fill="#D0CFE5"/>
<path d="M74.5 102.754H93.1863V106.914H74.5V102.754Z" fill="#A5ABCC"/>
<path d="M39 88.1884V96.7744H74.5L79.5755 92.4814L74.5 88.1884H39Z" fill="#D0CFE5"/>
<path d="M74.5 88.1884H110V96.7745H74.5V88.1884Z" fill="#A5ABCC"/>
<path d="M61.8984 49.5295L64.9437 46.6964L71.1521 53.3699L68.1069 56.2029L61.8984 49.5295Z" fill="#E3E2EF"/>
<path d="M78.7344 66.6095L81.2055 63.2606L92.6317 71.6919L90.1605 75.0408L78.7344 66.6095Z" fill="#D0CFE5"/>
<path d="M56.5859 71.7291L67.6399 63.049L70.2109 66.323L59.1569 75.0032L56.5859 71.7291Z" fill="#E3E2EF"/>
<path d="M68.0784 54.113C64.5364 57.6551 64.5364 63.4186 68.0784 66.9606C69.8496 68.7318 72.1759 69.6172 74.5023 69.6172L77.5281 61.2555L74.5023 51.4563C72.1759 51.4563 69.8496 52.3419 68.0784 54.113Z" fill="#A1E951"/>
<path d="M80.9238 54.113C79.1527 52.3419 76.8264 51.4563 74.5 51.4563V69.6172C76.8264 69.6172 79.1527 68.7316 80.9238 66.9606C84.4659 63.4184 84.4659 57.6551 80.9238 54.113Z" fill="#67D651"/>
<path d="M64.2153 40.0342C62.9164 38.7352 61.21 38.0857 59.5038 38.0857C57.7976 38.0857 56.0912 38.7352 54.7923 40.0342C52.1942 42.6322 52.1942 46.8593 54.7923 49.4573C56.0912 50.7563 57.7976 51.4058 59.5038 51.4058C61.21 51.4058 62.9164 50.7563 64.2153 49.4573C66.8133 46.8593 66.8133 42.6321 64.2153 40.0342Z" fill="#4B5BE3"/>
<path d="M58.1137 70.9586C56.8148 69.6597 55.1084 69.0101 53.4022 69.0101C51.696 69.0101 49.9896 69.6597 48.6907 70.9586C46.0927 73.5566 46.0927 77.7838 48.6907 80.3818C49.9896 81.6807 51.696 82.3303 53.4022 82.3303C55.1084 82.3303 56.8148 81.6807 58.1137 80.3818C60.7116 77.7838 60.7116 73.5565 58.1137 70.9586Z" fill="#FCA249"/>
<path d="M99.7544 70.9586C98.4554 69.6597 96.7491 69.0101 95.0428 69.0101C93.3366 69.0101 91.6303 69.6597 90.3313 70.9586C87.7333 73.5566 87.7333 77.7838 90.3313 80.3818C91.6303 81.6807 93.3366 82.3303 95.0428 82.3303C96.7491 82.3303 98.4554 81.6807 99.7544 80.3818C102.352 77.7838 102.352 73.5565 99.7544 70.9586Z" fill="#BE9AFC"/>
<defs>
<filter id="filter0_d_2030_3646" x="0.666667" y="0.571429" width="146.667" height="146.667" filterUnits="userSpaceOnUse" color-interpolation-filters="sRGB">
<feFlood flood-opacity="0" result="BackgroundImageFix"/>
<feColorMatrix in="SourceAlpha" type="matrix" values="0 0 0 0 0 0 0 0 0 0 0 0 0 0 0 0 0 0 127 0" result="hardAlpha"/>
<feOffset dy="1.90476"/>
<feGaussianBlur stdDeviation="6.66667"/>
<feComposite in2="hardAlpha" operator="out"/>
<feColorMatrix type="matrix" values="0 0 0 0 0.695898 0 0 0 0 0.695898 0 0 0 0 0.695898 0 0 0 0.25 0"/>
<feBlend mode="normal" in2="BackgroundImageFix" result="effect1_dropShadow_2030_3646"/>
<feBlend mode="normal" in="SourceGraphic" in2="effect1_dropShadow_2030_3646" result="shape"/>
</filter>
</defs>
</svg>
