<svg width="148" height="148" viewBox="0 0 148 148" fill="none" xmlns="http://www.w3.org/2000/svg">
<g filter="url(#filter0_d_2030_7417)">
<circle cx="74" cy="72" r="60" fill="white"/>
</g>
<path d="M99.1191 99.541H90.1055C89.7225 99.541 89.4121 99.2307 89.4121 98.8477C89.4121 98.4646 89.7225 98.1543 90.1055 98.1543H98.4258V80.8203C98.4258 80.6364 98.4988 80.4601 98.6289 80.33C98.7589 80.2 98.9352 80.127 99.1191 80.127C99.303 80.127 99.4794 80.2 99.6094 80.33C99.7394 80.4601 99.8125 80.6364 99.8125 80.8203V98.8477C99.8125 99.0315 99.7394 99.2079 99.6094 99.3379C99.4794 99.468 99.303 99.541 99.1191 99.541ZM59.5977 99.541H50.584C50.4001 99.541 50.2237 99.468 50.0937 99.3379C49.9637 99.2079 49.8906 99.0315 49.8906 98.8477V80.8203C49.8906 80.6364 49.9637 80.4601 50.0937 80.33C50.2237 80.2 50.4001 80.127 50.584 80.127C50.7679 80.127 50.9442 80.2 51.0743 80.33C51.2043 80.4601 51.2773 80.6364 51.2773 80.8203V98.1543H59.5977C59.7815 98.1543 59.9579 98.2273 60.0879 98.3574C60.218 98.4874 60.291 98.6638 60.291 98.8477C60.291 99.0315 60.218 99.2079 60.0879 99.3379C59.9579 99.468 59.7815 99.541 59.5977 99.541Z" fill="#005068"/>
<path d="M90.1016 102.037C90.1016 103.339 89.0463 104.395 87.7441 104.395H61.9512C60.649 104.395 59.5938 103.339 59.5938 102.037V96.3516C59.5938 95.0494 60.649 93.9941 61.9512 93.9941H87.7441C89.0463 93.9941 90.1016 95.0494 90.1016 96.3516V102.037ZM90.1016 82.4844V88.1699C90.1016 89.4721 89.0463 90.5273 87.7441 90.5273H61.9512C60.649 90.5273 59.5938 89.4721 59.5938 88.1699V82.4844C59.5938 81.1822 60.649 80.127 61.9512 80.127H87.7441C89.0463 80.127 90.1016 81.1822 90.1016 82.4844Z" fill="#006C87"/>
<path d="M64.7959 100.928C65.7532 100.928 66.5293 100.152 66.5293 99.1943C66.5293 98.237 65.7532 97.4609 64.7959 97.4609C63.8386 97.4609 63.0625 98.237 63.0625 99.1943C63.0625 100.152 63.8386 100.928 64.7959 100.928Z" fill="#8FE269"/>
<path d="M64.7959 87.0605C65.7532 87.0605 66.5293 86.2845 66.5293 85.3271C66.5293 84.3698 65.7532 83.5938 64.7959 83.5938C63.8386 83.5938 63.0625 84.3698 63.0625 85.3271C63.0625 86.2845 63.8386 87.0605 64.7959 87.0605Z" fill="#8FE269"/>
<path d="M65.8359 90.5273H83.8633V93.9941H65.8359V90.5273Z" fill="#005068"/>
<path d="M104.321 87.7532C104.895 87.7532 105.36 87.2879 105.36 86.7138C105.36 86.1398 104.895 85.6745 104.321 85.6745C103.747 85.6745 103.281 86.1398 103.281 86.7138C103.281 87.2879 103.747 87.7532 104.321 87.7532Z" fill="#4D3AFF"/>
<path d="M103.625 57.9387C104.199 57.9387 104.665 57.4734 104.665 56.8994C104.665 56.3254 104.199 55.86 103.625 55.86C103.051 55.86 102.586 56.3254 102.586 56.8994C102.586 57.4734 103.051 57.9387 103.625 57.9387Z" fill="#4D3AFF"/>
<path d="M100.504 51.0059C102.801 51.0059 104.664 49.1433 104.664 46.8457C104.664 44.5481 102.801 42.6855 100.504 42.6855C98.2063 42.6855 96.3438 44.5481 96.3438 46.8457C96.3438 49.1433 98.2063 51.0059 100.504 51.0059Z" fill="#8FE269"/>
<path d="M94.1464 57.6316C99.2093 57.6316 103.314 61.7363 103.314 66.7992C103.314 71.8621 99.2093 75.9668 94.1464 75.9668H54.8551C49.7922 75.9668 45.6875 71.8621 45.6875 66.7992C45.6875 61.8805 49.562 57.8673 54.4252 57.6427C53.8439 56.1803 53.5456 54.6208 53.546 53.0471C53.546 46.1759 59.1165 40.6055 65.9877 40.6055C71.5332 40.6055 76.23 44.2345 77.8372 49.2475C79.4223 47.9398 81.4538 47.1536 83.6685 47.1536C88.7314 47.1536 92.8359 51.2582 92.8359 56.3212C92.8359 56.8037 92.7985 57.278 92.7264 57.7412C93.1895 57.669 93.6623 57.6316 94.1464 57.6316Z" fill="#87CEF0"/>
<path d="M93.2268 93.3001C93.8009 93.3001 94.2662 92.8347 94.2662 92.2607C94.2662 91.6867 93.8009 91.2214 93.2268 91.2214C92.6528 91.2214 92.1875 91.6867 92.1875 92.2607C92.1875 92.8347 92.6528 93.3001 93.2268 93.3001Z" fill="#4D3AFF"/>
<path d="M92.5315 44.0715C93.1055 44.0715 93.5709 43.6062 93.5709 43.0322C93.5709 42.4582 93.1055 41.9929 92.5315 41.9929C91.9575 41.9929 91.4922 42.4582 91.4922 43.0322C91.4922 43.6062 91.9575 44.0715 92.5315 44.0715Z" fill="#4D3AFF"/>
<path d="M54.3987 84.9798C54.9727 84.9798 55.4381 84.5144 55.4381 83.9404C55.4381 83.3664 54.9727 82.9011 54.3987 82.9011C53.8247 82.9011 53.3594 83.3664 53.3594 83.9404C53.3594 84.5144 53.8247 84.9798 54.3987 84.9798Z" fill="#4D3AFF"/>
<path d="M47.1152 50.3125C49.0299 50.3125 50.582 48.7604 50.582 46.8457C50.582 44.931 49.0299 43.3789 47.1152 43.3789C45.2006 43.3789 43.6484 44.931 43.6484 46.8457C43.6484 48.7604 45.2006 50.3125 47.1152 50.3125Z" fill="#8FE269"/>
<path d="M45.3831 57.9387C45.9571 57.9387 46.4224 57.4734 46.4224 56.8994C46.4224 56.3254 45.9571 55.86 45.3831 55.86C44.8091 55.86 44.3438 56.3254 44.3438 56.8994C44.3438 57.4734 44.8091 57.9387 45.3831 57.9387Z" fill="#4D3AFF"/>
<path d="M45.8151 100.15C46.0102 100.345 46.1198 100.61 46.1198 100.885C46.1198 101.161 46.0102 101.426 45.8151 101.621C45.62 101.816 45.3554 101.926 45.0794 101.926C44.8035 101.926 44.5389 101.816 44.3438 101.621C44.2472 101.525 44.1705 101.41 44.1183 101.284C44.066 101.157 44.0391 101.022 44.0391 100.885C44.0391 100.749 44.066 100.614 44.1183 100.487C44.1705 100.361 44.2472 100.246 44.3438 100.15C44.4404 100.053 44.5551 99.9766 44.6813 99.9243C44.8075 99.872 44.9428 99.8451 45.0794 99.8451C45.2161 99.8451 45.3513 99.872 45.4776 99.9243C45.6038 99.9766 45.7185 100.053 45.8151 100.15Z" fill="#4D3AFF"/>
<path d="M57.1543 53.7918C56.9704 53.7918 56.794 53.7187 56.664 53.5887C56.534 53.4587 56.4609 53.2823 56.4609 53.0984C56.4609 47.7392 60.8211 43.3789 66.1804 43.3789C66.3643 43.3789 66.5407 43.452 66.6707 43.582C66.8008 43.712 66.8738 43.8884 66.8738 44.0723C66.8738 44.2562 66.8008 44.4325 66.6707 44.5625C66.5407 44.6926 66.3643 44.7656 66.1804 44.7656C61.5857 44.7656 57.8477 48.5037 57.8477 53.0984C57.8477 53.2823 57.7746 53.4587 57.6446 53.5887C57.5145 53.7187 57.3382 53.7918 57.1543 53.7918ZM83.1678 70.4199H58.9002C58.7163 70.4199 58.5399 70.3469 58.4099 70.2168C58.2799 70.0868 58.2068 69.9105 58.2068 69.7266C58.2068 69.5427 58.2799 69.3663 58.4099 69.2363C58.5399 69.1063 58.7163 69.0332 58.9002 69.0332H83.1678C83.3516 69.0332 83.528 69.1063 83.658 69.2363C83.7881 69.3663 83.8611 69.5427 83.8611 69.7266C83.8611 69.9105 83.7881 70.0868 83.658 70.2168C83.528 70.3469 83.3516 70.4199 83.1678 70.4199ZM88.7146 66.9531H74.1541C73.9702 66.9531 73.7938 66.8801 73.6638 66.75C73.5338 66.62 73.4607 66.4437 73.4607 66.2598C73.4607 66.0759 73.5338 65.8995 73.6638 65.7695C73.7938 65.6395 73.9702 65.5664 74.1541 65.5664H88.7146C88.8985 65.5664 89.0749 65.6395 89.2049 65.7695C89.3349 65.8995 89.408 66.0759 89.408 66.2598C89.408 66.4437 89.3349 66.62 89.2049 66.75C89.0749 66.8801 88.8985 66.9531 88.7146 66.9531Z" fill="#3CBAEB"/>
<path d="M85.9453 99.8877H69.998C69.8142 99.8877 69.6378 99.8146 69.5078 99.6846C69.3777 99.5546 69.3047 99.3782 69.3047 99.1943C69.3047 99.0104 69.3777 98.8341 69.5078 98.7041C69.6378 98.574 69.8142 98.501 69.998 98.501H85.9453C86.1292 98.501 86.3056 98.574 86.4356 98.7041C86.5656 98.8341 86.6387 99.0104 86.6387 99.1943C86.6387 99.3782 86.5656 99.5546 86.4356 99.6846C86.3056 99.8146 86.1292 99.8877 85.9453 99.8877ZM85.9453 86.0205H69.998C69.8142 86.0205 69.6378 85.9475 69.5078 85.8174C69.3777 85.6874 69.3047 85.511 69.3047 85.3271C69.3047 85.1433 69.3777 84.9669 69.5078 84.8369C69.6378 84.7068 69.8142 84.6338 69.998 84.6338H85.9453C86.1292 84.6338 86.3056 84.7068 86.4356 84.8369C86.5656 84.9669 86.6387 85.1433 86.6387 85.3271C86.6387 85.511 86.5656 85.6874 86.4356 85.8174C86.3056 85.9475 86.1292 86.0205 85.9453 86.0205Z" fill="#E9EFFF"/>
<path d="M68.2646 100.928C69.222 100.928 69.998 100.152 69.998 99.1943C69.998 98.237 69.222 97.4609 68.2646 97.4609C67.3073 97.4609 66.5312 98.237 66.5312 99.1943C66.5312 100.152 67.3073 100.928 68.2646 100.928Z" fill="#FE5A5A"/>
<path d="M68.2646 87.0605C69.222 87.0605 69.998 86.2845 69.998 85.3271C69.998 84.3698 69.222 83.5938 68.2646 83.5938C67.3073 83.5938 66.5312 84.3698 66.5312 85.3271C66.5312 86.2845 67.3073 87.0605 68.2646 87.0605Z" fill="#FE5A5A"/>
<defs>
<filter id="filter0_d_2030_7417" x="0.666667" y="0.571429" width="146.667" height="146.667" filterUnits="userSpaceOnUse" color-interpolation-filters="sRGB">
<feFlood flood-opacity="0" result="BackgroundImageFix"/>
<feColorMatrix in="SourceAlpha" type="matrix" values="0 0 0 0 0 0 0 0 0 0 0 0 0 0 0 0 0 0 127 0" result="hardAlpha"/>
<feOffset dy="1.90476"/>
<feGaussianBlur stdDeviation="6.66667"/>
<feComposite in2="hardAlpha" operator="out"/>
<feColorMatrix type="matrix" values="0 0 0 0 0.695898 0 0 0 0 0.695898 0 0 0 0 0.695898 0 0 0 0.25 0"/>
<feBlend mode="normal" in2="BackgroundImageFix" result="effect1_dropShadow_2030_7417"/>
<feBlend mode="normal" in="SourceGraphic" in2="effect1_dropShadow_2030_7417" result="shape"/>
</filter>
</defs>
</svg>
