<svg width="148" height="148" viewBox="0 0 148 148" fill="none" xmlns="http://www.w3.org/2000/svg">
<g filter="url(#filter0_d_2030_957)">
<circle cx="74" cy="72" r="60" fill="white"/>
</g>
<path fill-rule="evenodd" clip-rule="evenodd" d="M49.9059 89.0041L61.4794 82.2987C63.6515 81.0403 65.8602 80.1481 68.2476 80.9226C70.9094 81.7858 75.2561 83.6393 79.6887 84.4389C81.3341 84.9723 82.3598 86.6199 81.9122 88.2903C81.4646 89.9611 80.0527 90.8225 78.0609 90.5144L79.6104 90.7624C81.3859 91.0464 83.0167 90.8033 84.5708 89.8984L95.6981 83.4173C104.348 78.3797 105.618 86.1297 102.742 87.9003L82.549 100.335C80.6917 101.478 78.6595 101.745 76.5527 101.18L61.9057 97.2555L56.4814 100.387C55.4385 100.989 54.0967 100.63 53.4947 99.5867L49.1084 91.9894C48.5068 90.9473 48.8649 89.6072 49.9059 89.0041Z" fill="#F6DCCD"/>
<path fill-rule="evenodd" clip-rule="evenodd" d="M81.6483 88.9833C81.0298 90.1921 79.7554 90.7764 78.061 90.5142C75.6617 89.8798 73.2653 89.2293 70.8679 88.5869C70.5622 88.502 70.3024 88.2998 70.145 88.0243C69.9876 87.7487 69.9453 87.4222 70.0274 87.1157C70.1095 86.8092 70.3094 86.5475 70.5834 86.3876C70.8575 86.2277 71.1836 86.1824 71.4908 86.2617L81.6483 88.9833ZM49.906 89.0041L61.4795 82.2989C63.6516 81.0404 65.8603 80.1482 68.2477 80.9227C69.6717 81.3845 71.5782 82.1297 73.7219 82.8455L51.3023 95.7893L49.1084 91.9893C48.5068 90.9473 48.865 89.6072 49.906 89.0041Z" fill="#F1CBBC"/>
<path fill-rule="evenodd" clip-rule="evenodd" d="M51.06 85.352L60.2386 101.57C60.6825 102.354 60.4039 103.359 59.6198 103.803L56.4977 105.57C55.7135 106.014 54.7088 105.735 54.2649 104.951L45.0862 88.7328C44.6425 87.9486 44.921 86.9439 45.7051 86.5001L48.8272 84.7331C49.6114 84.2893 50.6161 84.5678 51.06 85.352Z" fill="#D1D1D6"/>
<path fill-rule="evenodd" clip-rule="evenodd" d="M55.8879 96.495L57.5126 99.3656L59.1191 102.204C59.562 102.987 59.2857 103.989 58.5051 104.434L59.6203 103.803C60.4045 103.359 60.6829 102.354 60.2392 101.57L58.6272 98.722L55.3905 93.0029L52.1502 87.2774L51.0605 85.352C50.6761 84.6728 49.8707 84.373 49.1523 84.5935L51.039 87.927L54.2757 93.6461L55.8876 96.4943L55.8879 96.495Z" fill="#B1B1B5"/>
<path fill-rule="evenodd" clip-rule="evenodd" d="M48.9612 87.7756C48.6687 87.8184 48.4051 87.9756 48.2285 88.2127C48.052 88.4497 47.9768 88.7473 48.0195 89.0398C48.0623 89.3323 48.2195 89.5958 48.4566 89.7724C48.6937 89.949 48.9912 90.0242 49.2837 89.9814C49.4286 89.9603 49.5678 89.9108 49.6935 89.8358C49.8193 89.7608 49.929 89.6617 50.0164 89.5444C50.1038 89.427 50.1673 89.2935 50.2032 89.1516C50.239 89.0097 50.2466 88.8621 50.2254 88.7172C50.2042 88.5724 50.1547 88.4331 50.0797 88.3074C50.0047 88.1817 49.9057 88.072 49.7883 87.9846C49.6709 87.8971 49.5375 87.8337 49.3955 87.7978C49.2536 87.762 49.106 87.7544 48.9612 87.7756Z" fill="#685E68"/>
<path fill-rule="evenodd" clip-rule="evenodd" d="M91.4998 61.3899L84.4258 67.2563L88.2196 76.0646C88.3415 76.3475 88.7304 76.3764 88.8928 76.1146L91.3418 72.1683L95.8917 73.1002C96.1939 73.1619 96.4399 72.8599 96.3179 72.5764L91.4998 61.3899Z" fill="#FE646F"/>
<path fill-rule="evenodd" clip-rule="evenodd" d="M91.5 61.3899L90.5647 62.1656L95.0486 72.5766C95.1013 72.6989 95.0854 72.8245 95.0262 72.923L95.8919 73.1003C96.1941 73.162 96.4401 72.86 96.318 72.5766L91.5 61.3899ZM87.9883 75.5271L90.2158 71.9376L91.3421 72.1682L88.8931 76.1145C88.7307 76.3763 88.3416 76.3473 88.2199 76.0644L87.9883 75.5271Z" fill="#FD4755"/>
<path fill-rule="evenodd" clip-rule="evenodd" d="M81.066 66.8012L75.9798 77.7259C75.8497 78.0052 75.4601 78.0229 75.3053 77.7565L72.9717 73.7409L68.3965 74.5403C68.0926 74.5933 67.8554 74.284 67.9858 74.0043L73.0164 63.1992L81.066 66.8012Z" fill="#FE646F"/>
<path fill-rule="evenodd" clip-rule="evenodd" d="M81.0661 66.8012L75.9799 77.7259C75.8498 78.0052 75.4601 78.0228 75.3054 77.7565L72.9718 73.7409L68.3965 74.5403C68.0926 74.5933 67.8555 74.284 67.9857 74.0043L68.295 73.3401L72.3292 72.6352L74.6626 76.6509C74.8174 76.9173 75.2071 76.8995 75.3371 76.6203L80.1081 66.3727L81.0661 66.8012Z" fill="#FD4755"/>
<path fill-rule="evenodd" clip-rule="evenodd" d="M84.0841 39.8746C87.1255 42.1511 86.4357 41.9 90.2288 42.1111C91.6857 42.192 92.8691 43.1849 93.2019 44.6058C93.5163 45.9476 93.6699 47.6395 94.6944 48.601L96.4714 50.2688C97.5354 51.2674 97.8036 52.7887 97.1453 54.0909C95.4315 57.4813 95.5589 56.7586 96.0099 60.5307C96.1831 61.9795 95.4107 63.3173 94.0694 63.8917C90.5773 65.3873 91.1394 64.9155 89.0602 68.095C88.2616 69.3161 86.8101 69.8445 85.4133 69.4223C81.7767 68.3234 82.5107 68.3234 78.8742 69.4223C77.4775 69.8445 76.0259 69.3161 75.2273 68.095C73.1479 64.9155 73.7102 65.3874 70.218 63.8917C68.8766 63.3172 68.1044 61.9795 68.2774 60.5307C68.7283 56.7586 68.8557 57.4813 67.142 54.0909C66.4837 52.7887 66.7521 51.2674 67.8159 50.2688C70.5861 47.669 70.219 48.3047 71.0856 44.6058C71.4184 43.1851 72.6016 42.1922 74.0585 42.1111C77.8516 41.9 77.162 42.1511 80.2034 39.8746C81.3714 39.0002 82.9161 39.0002 84.0841 39.8746Z" fill="#FFE177"/>
<path fill-rule="evenodd" clip-rule="evenodd" d="M84.0828 39.8745C87.1241 42.1511 86.4344 41.9 90.2275 42.111C91.6843 42.192 92.8678 43.1849 93.2006 44.6058C93.5149 45.9475 93.6686 47.6395 94.6932 48.601L96.4702 50.2688C97.5341 51.2674 97.8024 52.7886 97.1441 54.0909C95.4303 57.4813 95.5577 56.7585 96.0087 60.5307C96.1819 61.9795 95.4095 63.3173 94.0683 63.8918C90.5761 65.3874 91.1383 64.9156 89.059 68.0951C88.2838 69.2803 86.8938 69.8128 85.5356 69.4573C86.2796 69.2575 86.9427 68.7879 87.3958 68.0951C89.4752 64.9156 88.9128 65.3874 92.405 63.8918C93.7464 63.3173 94.5187 61.9797 94.3455 60.5307C93.8946 56.7585 93.7672 57.4814 95.481 54.0909C96.1393 52.7886 95.8711 51.2674 94.8071 50.2688L93.0302 48.601C92.0056 47.6395 91.8519 45.9475 91.5375 44.6058C91.2047 43.1851 90.0214 42.1922 88.5644 42.111C84.7713 41.9 85.4609 42.1511 82.4197 39.8745C82.0877 39.6247 81.7115 39.44 81.3109 39.3301C82.2458 39.0759 83.2581 39.2573 84.0828 39.8745ZM81.3107 68.7041C80.1338 68.4364 79.6801 68.6754 77.2095 69.4222C77.1683 69.4345 77.1271 69.4462 77.0859 69.457C77.6535 69.6094 78.2683 69.605 78.8727 69.4222C80.0388 69.0698 80.7552 68.8306 81.3107 68.7041Z" fill="#FFD064"/>
<path d="M82.1412 63.4553C87.1465 63.4553 91.2042 59.3976 91.2042 54.3923C91.2042 49.3869 87.1465 45.3292 82.1412 45.3292C77.1358 45.3292 73.0781 49.3869 73.0781 54.3923C73.0781 59.3976 77.1358 63.4553 82.1412 63.4553Z" fill="#ECEFF1"/>
<path fill-rule="evenodd" clip-rule="evenodd" d="M82.1412 45.3292C82.3849 45.3292 82.6264 45.3391 82.8654 45.3581C78.1987 45.7271 74.5266 49.6308 74.5266 54.3924C74.5266 59.154 78.1987 63.0577 82.8654 63.4267C82.6245 63.4458 82.3829 63.4554 82.1412 63.4554C77.1358 63.4554 73.0781 59.3978 73.0781 54.3924C73.0781 49.3869 77.1358 45.3292 82.1412 45.3292Z" fill="#D1D1D6"/>
<path fill-rule="evenodd" clip-rule="evenodd" d="M76.4616 55.4678C76.3586 55.3648 76.2769 55.2425 76.2212 55.1079C76.1654 54.9734 76.1367 54.8291 76.1367 54.6835C76.1367 54.5378 76.1654 54.3935 76.2212 54.259C76.2769 54.1244 76.3586 54.0021 76.4616 53.8991C76.5646 53.7961 76.6869 53.7144 76.8215 53.6586C76.9561 53.6029 77.1003 53.5742 77.246 53.5742C77.3916 53.5742 77.5359 53.6029 77.6705 53.6586C77.805 53.7144 77.9273 53.7961 78.0303 53.8991L80.1394 56.0082L86.29 50.4264C86.5077 50.2317 86.7935 50.1308 87.0851 50.1458C87.3768 50.1608 87.6508 50.2904 87.8473 50.5064C88.0439 50.7224 88.1472 51.0073 88.1347 51.2991C88.1223 51.5909 87.995 51.8659 87.7807 52.0644L80.8915 58.3167L80.8854 58.3229C80.7824 58.4259 80.6601 58.5076 80.5256 58.5634C80.391 58.6191 80.2468 58.6478 80.1011 58.6478C79.9554 58.6478 79.8112 58.6191 79.6766 58.5634C79.542 58.5076 79.4197 58.4259 79.3168 58.3229L76.4616 55.4678Z" fill="#8AC9FE"/>
<defs>
<filter id="filter0_d_2030_957" x="0.666667" y="0.571429" width="146.667" height="146.667" filterUnits="userSpaceOnUse" color-interpolation-filters="sRGB">
<feFlood flood-opacity="0" result="BackgroundImageFix"/>
<feColorMatrix in="SourceAlpha" type="matrix" values="0 0 0 0 0 0 0 0 0 0 0 0 0 0 0 0 0 0 127 0" result="hardAlpha"/>
<feOffset dy="1.90476"/>
<feGaussianBlur stdDeviation="6.66667"/>
<feComposite in2="hardAlpha" operator="out"/>
<feColorMatrix type="matrix" values="0 0 0 0 0.695898 0 0 0 0 0.695898 0 0 0 0 0.695898 0 0 0 0.25 0"/>
<feBlend mode="normal" in2="BackgroundImageFix" result="effect1_dropShadow_2030_957"/>
<feBlend mode="normal" in="SourceGraphic" in2="effect1_dropShadow_2030_957" result="shape"/>
</filter>
</defs>
</svg>
