<svg width="148" height="148" viewBox="0 0 148 148" fill="none" xmlns="http://www.w3.org/2000/svg">
<g filter="url(#filter0_d_2030_1603)">
<circle cx="74" cy="72" r="60" fill="white"/>
</g>
<g clip-path="url(#clip0_2030_1603)">
<path d="M109.987 84.3338C109.982 85.8001 109.615 87.2425 108.918 88.5327C108.221 89.8229 107.217 90.9211 105.993 91.7295H42.9818C38.8973 89.0202 37.7824 83.5126 40.4918 79.428C41.299 78.211 42.3941 77.212 43.6799 76.5196C44.9658 75.8273 46.4026 75.4629 47.863 75.4589H101.112C106.007 75.4736 109.972 79.4384 109.987 84.3338Z" fill="#455A64"/>
<path d="M109.986 99.1252C109.971 104.02 106.006 107.985 101.111 108H47.8621C42.9606 107.986 38.9982 104.002 39.0118 99.1006C39.0158 97.6402 39.3801 96.2034 40.0725 94.9176C40.7649 93.6317 41.7639 92.5366 42.9809 91.7294H105.992C107.216 92.5379 108.22 93.636 108.917 94.9262C109.614 96.2165 109.981 97.6588 109.986 99.1252Z" fill="#607D8B"/>
<path d="M49.4011 102.084C48.5842 102.084 47.9219 101.421 47.9219 100.604C47.9217 99.7988 48.5661 99.1412 49.3714 99.1251H49.4009C50.2179 99.1251 50.8802 99.7874 50.8802 100.604C50.8802 101.421 50.218 102.084 49.4011 102.084Z" fill="#FFC107"/>
<path d="M101.111 102.084C99.4768 102.084 98.1523 100.759 98.1523 99.1253C98.1523 97.4915 99.4768 96.1671 101.111 96.1671C102.744 96.1671 104.069 97.4915 104.069 99.1253C104.069 100.759 102.744 102.084 101.111 102.084Z" fill="#4CAF50"/>
<path d="M55.3177 102.084C54.5008 102.084 53.8385 101.421 53.8385 100.604C53.8383 99.7988 54.4827 99.1412 55.288 99.1251H55.3175C56.1344 99.1251 56.7967 99.7874 56.7967 100.604C56.7967 101.421 56.1346 102.084 55.3177 102.084ZM49.4011 87.2921C48.5842 87.2921 47.9219 86.6298 47.9219 85.8129C47.9217 85.0073 48.5661 84.3498 49.3714 84.3337H49.4009C50.2178 84.3337 50.8801 84.996 50.8801 85.8129C50.8802 86.6299 50.218 87.2921 49.4011 87.2921Z" fill="#FFC107"/>
<path d="M101.111 87.2922C99.4768 87.2922 98.1523 85.9677 98.1523 84.3339C98.1523 82.7001 99.4768 81.3756 101.111 81.3756C102.744 81.3756 104.069 82.7001 104.069 84.3339C104.069 85.9677 102.744 87.2922 101.111 87.2922Z" fill="#4CAF50"/>
<path d="M55.3191 87.2921C54.5021 87.2921 53.8398 86.6298 53.8398 85.8129C53.8397 85.0073 54.4841 84.3498 55.2894 84.3337H55.3189C56.1358 84.3337 56.7981 84.996 56.7981 85.8129C56.7981 86.6299 56.136 87.2921 55.3191 87.2921Z" fill="#FFC107"/>
<path d="M89.9258 47.8493C86.9605 41.213 80.3529 36.9569 73.0843 37.0014C63.6741 36.8891 55.7469 44.0049 54.8465 53.3725C50.0517 53.9975 46.4454 58.0515 46.3828 62.8864C46.4639 68.2688 50.8868 72.5699 56.2694 72.5007H89.8991C96.8044 72.593 102.481 67.0786 102.59 60.1736C102.48 53.2802 96.8197 47.772 89.9258 47.8493Z" fill="#BBDEFB"/>
</g>
<defs>
<filter id="filter0_d_2030_1603" x="0.666667" y="0.571429" width="146.667" height="146.667" filterUnits="userSpaceOnUse" color-interpolation-filters="sRGB">
<feFlood flood-opacity="0" result="BackgroundImageFix"/>
<feColorMatrix in="SourceAlpha" type="matrix" values="0 0 0 0 0 0 0 0 0 0 0 0 0 0 0 0 0 0 127 0" result="hardAlpha"/>
<feOffset dy="1.90476"/>
<feGaussianBlur stdDeviation="6.66667"/>
<feComposite in2="hardAlpha" operator="out"/>
<feColorMatrix type="matrix" values="0 0 0 0 0.695898 0 0 0 0 0.695898 0 0 0 0 0.695898 0 0 0 0.25 0"/>
<feBlend mode="normal" in2="BackgroundImageFix" result="effect1_dropShadow_2030_1603"/>
<feBlend mode="normal" in="SourceGraphic" in2="effect1_dropShadow_2030_1603" result="shape"/>
</filter>
<clipPath id="clip0_2030_1603">
<rect width="71" height="71" fill="white" transform="translate(39 37)"/>
</clipPath>
</defs>
</svg>
