<svg width="148" height="148" viewBox="0 0 148 148" fill="none" xmlns="http://www.w3.org/2000/svg">
<g filter="url(#filter0_d_1778_154)">
<circle cx="74" cy="72" r="60" fill="white"/>
</g>
<path d="M106.147 90.7291C105.873 90.7305 105.606 90.6506 105.379 90.4996C105.151 90.3485 104.974 90.1331 104.869 89.8809C104.764 89.6287 104.737 89.351 104.791 89.0832C104.844 88.8154 104.976 88.5697 105.17 88.3773C105.301 88.2533 105.405 88.1042 105.476 87.9389C105.547 87.7737 105.584 87.5957 105.584 87.4158C105.584 86.6614 105.318 86.5875 102.937 84.206C102.811 84.0758 102.661 83.9723 102.494 83.9016C102.328 83.8308 102.149 83.7944 101.968 83.7944C101.787 83.7944 101.608 83.8308 101.442 83.9016C101.275 83.9723 101.125 84.0758 100.999 84.206C100.807 84.3998 100.561 84.532 100.293 84.5857C100.025 84.6393 99.7476 84.6121 99.4954 84.5074C99.2431 84.4027 99.0278 84.2253 98.8767 83.9977C98.7256 83.7702 98.6457 83.5029 98.6471 83.2298C98.6471 82.8649 98.5022 82.515 98.2442 82.257C97.9862 81.9991 97.6363 81.8541 97.2715 81.8541H94.1061C93.7413 81.8541 93.3914 81.9991 93.1334 82.257C92.8754 82.515 92.7305 82.8649 92.7305 83.2298C92.7319 83.5029 92.652 83.7702 92.5009 83.9977C92.3498 84.2253 92.1345 84.4027 91.8822 84.5074C91.63 84.6121 91.3523 84.6393 91.0845 84.5857C90.8167 84.532 90.571 84.3998 90.3786 84.206C90.2541 84.0763 90.1049 83.9728 89.9398 83.9016C89.7746 83.8305 89.5969 83.7932 89.4171 83.7918C88.6628 83.7918 88.5888 84.0581 86.2073 86.4395C86.0772 86.5651 85.9736 86.7156 85.9029 86.8821C85.8322 87.0485 85.7957 87.2275 85.7957 87.4084C85.7957 87.5893 85.8322 87.7683 85.9029 87.9347C85.9736 88.1012 86.0772 88.2517 86.2073 88.3773C86.4012 88.5697 86.5333 88.8154 86.587 89.0832C86.6407 89.351 86.6134 89.6287 86.5087 89.8809C86.404 90.1331 86.2266 90.3485 85.9991 90.4996C85.7715 90.6506 85.5042 90.7305 85.2311 90.7291C84.8663 90.7291 84.5164 90.8741 84.2584 91.132C84.0004 91.39 83.8555 91.7399 83.8555 92.1048V95.2702C83.8555 95.635 84.0004 95.9849 84.2584 96.2429C84.5164 96.5009 84.8663 96.6458 85.2311 96.6458C85.5042 96.6444 85.7715 96.7243 85.9991 96.8754C86.2266 97.0264 86.404 97.2418 86.5087 97.494C86.6134 97.7463 86.6407 98.0239 86.587 98.2917C86.5333 98.5595 86.4012 98.8053 86.2073 98.9977C86.0753 99.1221 85.97 99.2723 85.8981 99.4389C85.8262 99.6055 85.7891 99.785 85.7891 99.9665C85.7891 100.148 85.8262 100.328 85.8981 100.494C85.97 100.661 86.0753 100.811 86.2073 100.935L88.4409 103.169C88.5664 103.299 88.7169 103.403 88.8834 103.473C89.0499 103.544 89.2289 103.581 89.4097 103.581C89.5906 103.581 89.7696 103.544 89.9361 103.473C90.1025 103.403 90.253 103.299 90.3786 103.169C90.571 102.975 90.8167 102.843 91.0845 102.789C91.3523 102.736 91.63 102.763 91.8822 102.868C92.1345 102.972 92.3498 103.15 92.5009 103.377C92.652 103.605 92.7319 103.872 92.7305 104.145C92.7305 104.51 92.8754 104.86 93.1334 105.118C93.3914 105.376 93.7413 105.521 94.1061 105.521H97.2715C97.6363 105.521 97.9862 105.376 98.2442 105.118C98.5022 104.86 98.6471 104.51 98.6471 104.145C98.6471 103.963 98.6832 103.783 98.7532 103.615C98.8233 103.447 98.926 103.295 99.0553 103.167C99.1846 103.039 99.338 102.938 99.5066 102.87C99.6752 102.802 99.8557 102.768 100.038 102.77C101.029 102.77 100.999 103.583 101.96 103.583C102.922 103.583 102.789 103.317 105.17 100.935C105.299 100.809 105.401 100.658 105.47 100.492C105.54 100.325 105.575 100.147 105.575 99.9665C105.575 99.7862 105.54 99.6077 105.47 99.4414C105.401 99.2751 105.299 99.1243 105.17 98.9977C104.976 98.8053 104.844 98.5595 104.791 98.2917C104.737 98.0239 104.764 97.7463 104.869 97.494C104.974 97.2418 105.151 97.0264 105.379 96.8754C105.606 96.7243 105.873 96.6444 106.147 96.6458C106.511 96.6458 106.861 96.5009 107.119 96.2429C107.377 95.9849 107.522 95.635 107.522 95.2702V92.1048C107.522 91.7399 107.377 91.39 107.119 91.132C106.861 90.8741 106.511 90.7291 106.147 90.7291ZM93.3813 89.9008C93.9663 89.5434 94.6262 89.3263 95.3092 89.2668C95.9922 89.2072 96.6796 89.3066 97.3177 89.5574C97.9558 89.8081 98.5271 90.2032 98.9868 90.7118C99.4465 91.2204 99.7822 91.8286 99.9674 92.4887C100.153 93.1488 100.182 93.8428 100.054 94.5163C99.9262 95.1898 99.6439 95.8245 99.2293 96.3705C98.8148 96.9166 98.2794 97.3592 97.6651 97.6636C97.0508 97.968 96.3744 98.1259 95.6888 98.125C94.7219 98.1236 93.7819 97.8066 93.0118 97.2219C92.2417 96.6373 91.6835 95.8172 91.4223 94.8862C91.1611 93.9553 91.2112 92.9645 91.5648 92.0646C91.9184 91.1647 92.5562 90.4049 93.3813 89.9008Z" fill="#374F68"/>
<path d="M106.146 90.7291C105.872 90.7305 105.605 90.6506 105.378 90.4996C105.15 90.3485 104.973 90.1331 104.868 89.8809C104.763 89.6287 104.736 89.351 104.79 89.0832C104.843 88.8154 104.976 88.5697 105.169 88.3773C105.3 88.2533 105.404 88.1042 105.475 87.9389C105.546 87.7737 105.583 87.5957 105.583 87.4158C105.583 86.6614 105.317 86.5875 102.936 84.206C102.81 84.0758 102.66 83.9723 102.493 83.9016C102.327 83.8308 102.148 83.7944 101.967 83.7944C101.786 83.7944 101.607 83.8308 101.441 83.9016C101.274 83.9723 101.124 84.0758 100.998 84.206C100.806 84.3998 100.56 84.532 100.292 84.5857C100.024 84.6393 99.7467 84.6121 99.4944 84.5074C99.2422 84.4027 99.0268 84.2253 98.8758 83.9977C98.7247 83.7702 98.6448 83.5029 98.6462 83.2298C98.6462 82.8649 98.5013 82.515 98.2433 82.257C97.9853 81.9991 97.6354 81.8541 97.2706 81.8541H94.1052C93.7403 81.8541 93.3904 81.9991 93.1324 82.257C92.8745 82.515 92.7295 82.8649 92.7295 83.2298C92.7309 83.5029 92.651 83.7702 92.5 83.9977C92.3489 84.2253 92.1335 84.4027 91.8813 84.5074C91.6291 84.6121 91.3514 84.6393 91.0836 84.5857C90.8158 84.532 90.5701 84.3998 90.3777 84.206C90.1814 83.9903 89.9132 83.8535 89.6233 83.8214C84.2835 93.9389 95.4068 105.107 105.554 99.752C105.465 98.9533 104.77 98.9681 104.77 98.0362C104.768 97.8543 104.802 97.6738 104.87 97.5052C104.939 97.3366 105.04 97.1832 105.168 97.0539C105.296 96.9246 105.448 96.822 105.616 96.7519C105.784 96.6818 105.964 96.6458 106.146 96.6458C106.51 96.6458 106.86 96.5009 107.118 96.2429C107.376 95.9849 107.521 95.635 107.521 95.2702V92.1048C107.521 91.7399 107.376 91.39 107.118 91.132C106.86 90.8741 106.51 90.7291 106.146 90.7291ZM99.4745 95.995C99.0717 96.6567 98.5026 97.2014 97.8239 97.575C97.1452 97.9486 96.3805 98.1379 95.6059 98.1243C94.8313 98.1106 94.0737 97.8944 93.4086 97.4971C92.7435 97.0998 92.194 96.5353 91.8147 95.8598C91.4355 95.1842 91.2397 94.4211 91.2469 93.6465C91.254 92.8718 91.4639 92.1124 91.8556 91.444C92.2472 90.7756 92.8071 90.2214 93.4794 89.8364C94.1517 89.4515 94.9131 89.2493 95.6879 89.25C96.4752 89.2506 97.2483 89.4608 97.9276 89.8588C98.607 90.2569 99.1681 90.8286 99.5536 91.5151C99.939 92.2017 100.135 92.9785 100.121 93.7658C100.107 94.553 99.884 95.3224 99.4745 95.995Z" fill="#425B72"/>
<path d="M104.564 37.4791H86.8138C85.18 37.4791 83.8555 38.8036 83.8555 40.4375V52.2708C83.8555 53.9046 85.18 55.2291 86.8138 55.2291H104.564C106.198 55.2291 107.522 53.9046 107.522 52.2708V40.4375C107.522 38.8036 106.198 37.4791 104.564 37.4791Z" fill="#DB5669"/>
<path d="M107.522 40.4375V52.2708H91.2513C90.4667 52.2708 89.7142 51.9591 89.1594 51.4043C88.6046 50.8495 88.293 50.0971 88.293 49.3125V37.4791H104.564C105.348 37.4791 106.101 37.7908 106.656 38.3456C107.21 38.9004 107.522 39.6529 107.522 40.4375Z" fill="#F26674"/>
<path d="M63.1464 52.2708C63.1464 53.0554 62.8347 53.8079 62.28 54.3627C61.7252 54.9175 60.9727 55.2291 60.1881 55.2291H42.4381C41.6535 55.2291 40.901 54.9175 40.3462 54.3627C39.7914 53.8079 39.4798 53.0554 39.4798 52.2708C39.4798 39.7127 39.1396 39.3873 40.4856 38.2335L51.3131 46.3541L62.1406 38.2335C63.4866 39.3873 63.1464 39.5204 63.1464 52.2708Z" fill="#FFCC66"/>
<path d="M63.1471 52.2708H46.8763C46.0917 52.2708 45.3392 51.9591 44.7844 51.4043C44.2296 50.8495 43.918 50.0971 43.918 49.3125V40.8073L51.3138 46.3541L62.1413 38.2335C63.4873 39.3873 63.1471 39.5204 63.1471 52.2708Z" fill="#FFDE76"/>
<path d="M98.9578 47.6706L94.8753 49.7267C94.649 49.8407 94.3972 49.8947 94.1441 49.8835C93.8909 49.8722 93.6449 49.7961 93.4296 49.6625C93.2143 49.5289 93.0369 49.3422 92.9145 49.1203C92.7921 48.8984 92.7287 48.6488 92.7305 48.3954V44.3129C92.7305 43.9206 92.8863 43.5444 93.1637 43.267C93.4411 42.9896 93.8174 42.8337 94.2097 42.8337C94.6978 42.8337 94.5203 42.8337 98.9134 45.0525C99.1541 45.1739 99.3571 45.3587 99.5004 45.5871C99.6436 45.8154 99.7218 46.0786 99.7263 46.3482C99.7309 46.6177 99.6617 46.8834 99.5263 47.1164C99.3908 47.3495 99.1942 47.5411 98.9578 47.6706Z" fill="#DAD7E5"/>
<path d="M62.1394 38.2335L51.3119 46.3541L40.4844 38.2335C41.017 37.7452 41.7143 37.4758 42.4369 37.4791C61.385 37.4791 61.0004 37.1981 62.1394 38.2335Z" fill="#FFBA55"/>
<path d="M60.4674 92.1048L54.2697 98.3765C53.4376 99.2075 52.3098 99.6742 51.1338 99.6742C49.9579 99.6742 48.83 99.2075 47.998 98.3765L43.738 94.1904C43.0493 93.4986 42.6079 92.5991 42.4823 91.631C42.3566 90.663 42.5536 89.6806 43.0428 88.8358C43.4274 88.1406 43.3682 88.2886 50.0097 81.6471L60.4674 92.1048Z" fill="#DB5669"/>
<path d="M58.2491 89.8861L54.2701 93.939C53.4381 94.77 52.3102 95.2367 51.1343 95.2367C49.9583 95.2367 48.8305 94.77 47.9984 93.939C43.4574 89.3979 43.4722 89.5015 43.1172 88.8358C43.5018 88.1406 43.4426 88.2886 50.0841 81.6471L58.2491 89.8861Z" fill="#F26674"/>
<path d="M60.4672 104.648L54.2695 98.3765L58.4556 94.1904C65.2154 101.083 64.8752 100.64 65.1118 101.083C65.4588 101.704 65.5708 102.428 65.4275 103.124C65.2841 103.82 64.895 104.442 64.3312 104.874C63.7673 105.307 63.0666 105.522 62.3571 105.481C61.6476 105.439 60.9767 105.144 60.4672 104.648Z" fill="#374F68"/>
<path d="M65.1131 101.083C64.8854 101.474 64.5711 101.808 64.1944 102.058C63.8176 102.309 63.3884 102.469 62.9398 102.528C62.4913 102.586 62.0352 102.541 61.6068 102.396C61.1784 102.251 60.789 102.009 60.4685 101.69L55.75 96.8973L58.4569 94.1904C65.2167 101.083 64.8765 100.64 65.1131 101.083Z" fill="#425B72"/>
<path d="M80.3494 82.6825L60.4694 92.1048L50.0117 81.6471C52.1269 77.2096 50.2928 81.085 59.434 61.7671L80.3494 82.6825Z" fill="#DAD7E5"/>
<path d="M77.3307 79.665L63.2934 86.2917C62.4673 86.6816 61.5409 86.807 60.6408 86.6508C59.7407 86.4946 58.9108 86.0644 58.2643 85.419L51.4453 78.6296L59.4328 61.7671L77.3307 79.665Z" fill="#EDEBF2"/>
<path d="M75.8097 72.2396C75.8031 73.8062 75.1754 75.3063 74.0643 76.4108L65.707 68.0535C66.5345 67.2251 67.5892 66.6609 68.7375 66.4322C69.8858 66.2035 71.0762 66.3207 72.1579 66.7689C73.2396 67.2171 74.164 67.9762 74.8141 68.95C75.4642 69.9238 75.8107 71.0687 75.8097 72.2396Z" fill="#374F68"/>
<path d="M75.7794 71.6923C75.2131 72.0837 74.5281 72.2653 73.8423 72.2059C73.1565 72.1465 72.5129 71.8498 72.0223 71.3669L67.4961 66.8407C68.3535 66.4615 69.2887 66.2915 70.2247 66.3446C71.1607 66.3977 72.0706 66.6725 72.8796 67.1464C73.6885 67.6202 74.3733 68.2794 74.8775 69.0698C75.3816 69.8602 75.6908 70.7591 75.7794 71.6923Z" fill="#425B72"/>
<path d="M78.2494 65.3466C77.9569 65.3454 77.6713 65.2575 77.4287 65.0939C77.1862 64.9304 76.9975 64.6986 76.8867 64.4278C76.7759 64.1571 76.7478 63.8596 76.8061 63.5729C76.8643 63.2862 77.0063 63.0233 77.214 62.8173L80.3498 59.6666C80.6384 59.4678 80.9881 59.3778 81.3368 59.4128C81.6855 59.4478 82.0104 59.6054 82.2537 59.8576C82.497 60.1097 82.6429 60.4401 82.6653 60.7898C82.6878 61.1395 82.5854 61.4858 82.3763 61.767C79.0334 65.1839 79.063 65.3466 78.2494 65.3466ZM70.543 61.1458V56.7083C70.543 56.316 70.6988 55.9398 70.9762 55.6624C71.2536 55.385 71.6298 55.2291 72.0221 55.2291C72.4144 55.2291 72.7907 55.385 73.0681 55.6624C73.3455 55.9398 73.5013 56.316 73.5013 56.7083V61.1458C73.5013 61.5381 73.3455 61.9143 73.0681 62.1917C72.7907 62.4691 72.4144 62.625 72.0221 62.625C71.6298 62.625 71.2536 62.4691 70.9762 62.1917C70.6988 61.9143 70.543 61.5381 70.543 61.1458ZM85.3346 71.5H80.8971C80.5048 71.5 80.1286 71.3441 79.8512 71.0667C79.5738 70.7893 79.418 70.4131 79.418 70.0208C79.418 69.6285 79.5738 69.2523 79.8512 68.9749C80.1286 68.6975 80.5048 68.5416 80.8971 68.5416H85.3346C85.7269 68.5416 86.1032 68.6975 86.3806 68.9749C86.658 69.2523 86.8138 69.6285 86.8138 70.0208C86.8138 70.4131 86.658 70.7893 86.3806 71.0667C86.1032 71.3441 85.7269 71.5 85.3346 71.5Z" fill="#F26674"/>
<path d="M98.6471 47.8333C98.0124 47.8387 97.384 47.7079 96.8043 47.4498C96.2245 47.1916 95.7069 46.8121 95.2863 46.3368C94.8657 45.8615 94.5519 45.3016 94.3662 44.6947C94.1804 44.0879 94.127 43.4482 94.2096 42.819C94.6977 42.819 94.5202 42.819 98.9133 45.0377C99.7416 45.4223 100.466 46.8719 98.6471 47.8333Z" fill="#EDEBF2"/>
<path d="M62.1413 38.2335L51.3138 46.3542L43.918 40.8073V37.4792C61.1059 37.4792 60.9728 37.1685 62.1413 38.2335Z" fill="#FFCC66"/>
<defs>
<filter id="filter0_d_1778_154" x="0.666667" y="0.571429" width="146.667" height="146.667" filterUnits="userSpaceOnUse" color-interpolation-filters="sRGB">
<feFlood flood-opacity="0" result="BackgroundImageFix"/>
<feColorMatrix in="SourceAlpha" type="matrix" values="0 0 0 0 0 0 0 0 0 0 0 0 0 0 0 0 0 0 127 0" result="hardAlpha"/>
<feOffset dy="1.90476"/>
<feGaussianBlur stdDeviation="6.66667"/>
<feComposite in2="hardAlpha" operator="out"/>
<feColorMatrix type="matrix" values="0 0 0 0 0.695898 0 0 0 0 0.695898 0 0 0 0 0.695898 0 0 0 0.25 0"/>
<feBlend mode="normal" in2="BackgroundImageFix" result="effect1_dropShadow_1778_154"/>
<feBlend mode="normal" in="SourceGraphic" in2="effect1_dropShadow_1778_154" result="shape"/>
</filter>
</defs>
</svg>
