<svg width="148" height="148" viewBox="0 0 148 148" fill="none" xmlns="http://www.w3.org/2000/svg">
<g filter="url(#filter0_d_2014_1062)">
<circle cx="74" cy="72" r="60" fill="white"/>
</g>
<path fill-rule="evenodd" clip-rule="evenodd" d="M85.438 58.7729H98.1112C98.5272 58.7729 98.8656 58.4345 98.8656 58.0185V53.8084C98.8656 51.0808 96.633 48.8481 93.9053 48.8481H89.6439C86.9162 48.8481 84.6836 51.0808 84.6836 53.8084V58.0185C84.6822 58.4345 85.0206 58.7729 85.438 58.7729Z" fill="#FEA832"/>
<path fill-rule="evenodd" clip-rule="evenodd" d="M91.7763 47.0274C93.7066 47.0274 95.2791 45.4507 95.2791 43.5218C95.2791 41.5956 93.7066 40.0189 91.7763 40.0189C89.846 40.0189 88.2734 41.5956 88.2734 43.5218C88.2734 45.4507 89.846 47.0274 91.7763 47.0274Z" fill="#FBBD80"/>
<path fill-rule="evenodd" clip-rule="evenodd" d="M64.2739 58.7729H76.9513C77.3645 58.7729 77.7057 58.4345 77.7057 58.0185V53.8084C77.7057 51.0808 75.473 48.8481 72.7412 48.8481H68.484C65.7521 48.8481 63.5195 51.0808 63.5195 53.8084V58.0185C63.5195 58.4345 63.8579 58.7729 64.2739 58.7729Z" fill="#FEA832"/>
<path fill-rule="evenodd" clip-rule="evenodd" d="M70.6122 47.0274C72.5425 47.0274 74.1179 45.4507 74.1179 43.5218C74.1179 41.5956 72.5412 40.0189 70.6122 40.0189C68.6819 40.0189 67.1094 41.5956 67.1094 43.5218C67.1108 45.4507 68.6833 47.0274 70.6122 47.0274Z" fill="#FBBD80"/>
<path fill-rule="evenodd" clip-rule="evenodd" d="M73.8348 58.7728H88.5521C88.7845 58.7728 89.0074 58.6805 89.1718 58.5161C89.3361 58.3518 89.4285 58.1289 89.4285 57.8964V53.011C89.4285 49.8424 86.8339 47.2478 83.6653 47.2478H78.7202C75.5516 47.2478 72.957 49.8424 72.957 53.011V57.8964C72.9584 58.3804 73.355 58.7728 73.8348 58.7728Z" fill="#FF4155"/>
<path fill-rule="evenodd" clip-rule="evenodd" d="M81.1936 45.1331C83.4346 45.1331 85.2623 43.3096 85.2623 41.0686C85.2623 38.8277 83.4346 37 81.1936 37C78.9527 37 77.125 38.8277 77.125 41.0686C77.125 43.3096 78.9541 45.1331 81.1936 45.1331Z" fill="#FBBD80"/>
<path fill-rule="evenodd" clip-rule="evenodd" d="M98.8681 63.2977V66.8269L96.8005 67.4995L95.5067 67.9197C95.1401 69.5266 94.5048 71.0601 93.6277 72.4556L94.2448 73.6662L95.2321 75.6076L93.6915 77.1441L92.155 78.6848L90.2136 77.6974L89.003 77.0762C87.6274 77.9443 86.0978 78.5849 84.467 78.9593L84.0469 80.2531L83.3743 82.3207H79.02L78.3475 80.2531L77.9273 78.9593C76.3203 78.5927 74.7868 77.9574 73.3913 77.0803L72.1807 77.6974L70.2421 78.6848L68.7014 77.1441L67.1608 75.6076L68.1509 73.6662L68.768 72.4556C67.8902 71.06 67.2536 69.5266 66.8848 67.9197L65.5952 67.4995L63.5234 66.8269V63.2977H98.8681Z" fill="#BEC7CF"/>
<path fill-rule="evenodd" clip-rule="evenodd" d="M88.1041 63.2977C88.1901 63.7373 88.2372 64.1894 88.2372 64.6498C88.2372 68.5368 85.0852 71.6902 81.1927 71.6902C77.3057 71.6902 74.1523 68.5381 74.1523 64.6498C74.1523 64.1894 74.1953 63.7373 74.2827 63.2977H88.1041Z" fill="#EAF6FF"/>
<path fill-rule="evenodd" clip-rule="evenodd" d="M50.6562 94.7443C54.4891 93.6086 58.5813 92.1026 62.3158 90.8879L79.7052 96.0603L103.451 90.2777C109.957 88.6941 110.115 94.449 106.085 96.1935L82.4177 106.45C78.349 108.211 74.304 108.47 70.044 107.232L50.6576 101.603V94.7443H50.6562Z" fill="#FBBD80"/>
<path fill-rule="evenodd" clip-rule="evenodd" d="M66.6211 96.6316L67.1092 94.3948L84.4987 98.1639C88.1 98.9419 90.0178 95.9507 88.7171 93.8679L91.0121 93.3063C91.331 94.0218 91.4766 94.8317 91.3976 95.7122C91.2562 97.3083 90.3603 98.7228 89.0319 99.6034C87.5384 100.587 85.7342 100.775 84.0161 100.401L66.6211 96.6316Z" fill="#E2AA73"/>
<path fill-rule="evenodd" clip-rule="evenodd" d="M84.498 98.1641C89.2461 99.1902 91.071 93.6628 86.4436 92.3038L68.7781 87.1188C65.6372 86.1953 62.7404 86.1051 59.5523 86.8359L50.6523 88.8675V97.1268L66.6662 94.3007L84.498 98.1641Z" fill="#FBBD80"/>
<path fill-rule="evenodd" clip-rule="evenodd" d="M41.614 84.1539H52.2044C52.9754 84.1539 53.6036 84.7793 53.6036 85.549V105.86C53.6036 106.627 52.974 107.255 52.2044 107.255H41.614C40.843 107.255 40.2148 106.626 40.2148 105.86V85.5504C40.2148 84.7793 40.8444 84.1539 41.614 84.1539Z" fill="#0593FC"/>
<path fill-rule="evenodd" clip-rule="evenodd" d="M46.9105 91.505C47.9478 91.505 48.7937 90.6605 48.7937 89.6218C48.7937 88.5845 47.9492 87.7386 46.9105 87.7386C45.8719 87.7386 45.0273 88.5832 45.0273 89.6218C45.0273 90.6605 45.8719 91.505 46.9105 91.505Z" fill="#0577CC"/>
<path fill-rule="evenodd" clip-rule="evenodd" d="M41.614 84.1539H44.0477C43.2767 84.1539 42.6527 84.7793 42.6527 85.549V105.86C42.6527 106.627 43.2781 107.255 44.0477 107.255H41.614C40.843 107.255 40.2148 106.626 40.2148 105.86V85.5504C40.2148 84.7793 40.8444 84.1539 41.614 84.1539Z" fill="#0584E3"/>
<path fill-rule="evenodd" clip-rule="evenodd" d="M71.9438 77.818L70.2382 78.6861L68.6975 77.1455L67.1569 75.609L68.147 73.6676L68.7641 72.457C67.8863 71.0614 67.2497 69.528 66.8809 67.921L65.5913 67.5008L63.5195 66.8283V63.2991H66.0947V66.8283L68.1664 67.5008L69.4602 67.921C69.8291 69.5518 70.4739 71.0813 71.3392 72.457L70.7221 73.6676L69.7362 75.609L71.2727 77.1455L71.9438 77.818ZM81.594 82.3221H79.0161L78.3436 80.2545L77.9234 78.9607C76.7599 78.693 75.6519 78.2923 74.6091 77.7695L74.7547 77.6988L75.9653 77.0817C77.341 77.947 78.8705 78.5876 80.5013 78.9607L80.9215 80.2545L81.594 82.3221Z" fill="#ABB3BA"/>
<path fill-rule="evenodd" clip-rule="evenodd" d="M82.0539 71.6388C81.771 71.6735 81.4839 71.6902 81.1927 71.6902C77.3057 71.6902 74.1523 68.5381 74.1523 64.6498C74.1523 64.1894 74.1953 63.7373 74.2827 63.2977H76.0008C75.9149 63.7373 75.8705 64.1894 75.8705 64.6498C75.8705 68.2469 78.5677 71.2145 82.0539 71.6388Z" fill="#D3DDE6"/>
<path fill-rule="evenodd" clip-rule="evenodd" d="M64.2739 58.7729H66.2791C65.8631 58.7729 65.5247 58.4345 65.5247 58.0185V53.8084C65.5247 51.0808 67.7573 48.8481 70.485 48.8481H68.484C65.7521 48.8481 63.5195 51.0808 63.5195 53.8084V58.0185C63.5195 58.4345 63.8579 58.7729 64.2739 58.7729Z" fill="#E5972D"/>
<path fill-rule="evenodd" clip-rule="evenodd" d="M73.8373 58.7728H75.8425C75.3627 58.7728 74.9661 58.3804 74.9661 57.8964V53.011C74.9661 49.8424 77.5607 47.2478 80.7293 47.2478H78.7241C75.5555 47.2478 72.9609 49.8424 72.9609 53.011V57.8964C72.9609 58.3804 73.3575 58.7728 73.8373 58.7728Z" fill="#E63B4D"/>
<path fill-rule="evenodd" clip-rule="evenodd" d="M81.1943 37C81.3718 37 81.5437 37.0111 81.7129 37.0319C79.7119 37.2871 78.1629 38.9969 78.1629 41.0686C78.1629 43.1362 79.7119 44.8461 81.7129 45.1012C81.5437 45.1248 81.3704 45.1373 81.1943 45.1373C78.9492 45.1373 77.1256 43.3137 77.1256 41.0686C77.1256 38.8194 78.9506 37 81.1943 37ZM70.6122 40.0189C70.7454 40.0189 70.8799 40.0272 71.0047 40.0425C69.256 40.2394 67.8956 41.7204 67.8956 43.5217C67.8956 45.3259 69.256 46.8083 71.0047 47.0038C70.8785 47.019 70.7454 47.0274 70.6122 47.0274C68.6778 47.0274 67.1094 45.459 67.1094 43.5217C67.1108 41.5873 68.6791 40.0189 70.6122 40.0189ZM91.7763 40.0189C91.9095 40.0189 92.0398 40.0272 92.1688 40.0425C90.4201 40.2394 89.0597 41.7204 89.0597 43.5217C89.0597 45.3259 90.4201 46.8083 92.1688 47.0038C92.0384 47.019 91.9095 47.0274 91.7763 47.0274C89.8419 47.0274 88.2735 45.459 88.2735 43.5217C88.2735 41.5873 89.8419 40.0189 91.7763 40.0189Z" fill="#E2AA73"/>
<defs>
<filter id="filter0_d_2014_1062" x="0.666667" y="0.571429" width="146.667" height="146.667" filterUnits="userSpaceOnUse" color-interpolation-filters="sRGB">
<feFlood flood-opacity="0" result="BackgroundImageFix"/>
<feColorMatrix in="SourceAlpha" type="matrix" values="0 0 0 0 0 0 0 0 0 0 0 0 0 0 0 0 0 0 127 0" result="hardAlpha"/>
<feOffset dy="1.90476"/>
<feGaussianBlur stdDeviation="6.66667"/>
<feComposite in2="hardAlpha" operator="out"/>
<feColorMatrix type="matrix" values="0 0 0 0 0.695898 0 0 0 0 0.695898 0 0 0 0 0.695898 0 0 0 0.25 0"/>
<feBlend mode="normal" in2="BackgroundImageFix" result="effect1_dropShadow_2014_1062"/>
<feBlend mode="normal" in="SourceGraphic" in2="effect1_dropShadow_2014_1062" result="shape"/>
</filter>
</defs>
</svg>
