<svg width="148" height="148" viewBox="0 0 148 148" fill="none" xmlns="http://www.w3.org/2000/svg">
<g filter="url(#filter0_d_3238_2845)">
<circle cx="74" cy="72" r="60" fill="white"/>
</g>
<path fill-rule="evenodd" clip-rule="evenodd" d="M79.117 61.6371V70.601C79.117 81.3229 70.921 87.9993 60.9023 87.9993C50.8836 87.9993 42.6875 81.3188 42.6875 70.601V61.6371C42.6875 36.0184 79.117 36.0184 79.117 61.6371Z" fill="#8A4634"/>
<path fill-rule="evenodd" clip-rule="evenodd" d="M62.0056 87.971C61.6419 87.9873 61.2741 87.9993 60.9023 87.9993C50.8836 87.9993 42.6875 81.3188 42.6875 70.601V61.6371C42.6875 48.3084 52.5486 41.9189 62.0056 42.4604C53.2843 42.9576 44.8982 49.347 44.8982 61.6371V70.601C44.8982 80.9229 52.5002 87.4983 62.0056 87.971Z" fill="#70392A"/>
<path fill-rule="evenodd" clip-rule="evenodd" d="M82.591 102.577C81.8595 92.3802 75.0092 84.3215 66.7365 84.3215H54.8546C46.5817 84.3217 39.7275 92.3802 39 102.577H82.591Z" fill="#ED524E"/>
<path fill-rule="evenodd" clip-rule="evenodd" d="M58.1321 84.3218H54.8546C46.5817 84.3218 39.7275 92.3803 39 102.577H42.2776C43.0091 92.3803 49.8594 84.3218 58.1321 84.3218Z" fill="#C0433F"/>
<path fill-rule="evenodd" clip-rule="evenodd" d="M55.494 84.3218H54.8554C52.2042 84.3218 49.7025 85.1462 47.5 86.6051L55.4939 91.6772L60.7963 87.9995L55.494 84.3218ZM74.0927 86.6051C71.8902 85.1462 69.3844 84.3218 66.7373 84.3218H66.0987L60.7963 87.9995L66.0987 91.6772L74.0927 86.6051Z" fill="#FC918D"/>
<path fill-rule="evenodd" clip-rule="evenodd" d="M66.097 76.9622V84.3216L60.7946 87.9993L55.4922 84.3216V76.9622H66.097Z" fill="#FFD3BC"/>
<path fill-rule="evenodd" clip-rule="evenodd" d="M66.097 76.9622V81.4603C62.3587 83.291 59.2347 83.2466 55.4922 81.3511V76.9622H66.097Z" fill="#F7C3A8"/>
<path fill-rule="evenodd" clip-rule="evenodd" d="M73 61.4109H77.3243C79.1551 61.4109 80.6504 62.9062 80.6504 64.7369V66.6082C80.6504 68.4349 79.1551 69.9302 77.3243 69.9302H73V61.4109Z" fill="#0CB4FB"/>
<path fill-rule="evenodd" clip-rule="evenodd" d="M73 61.4109H75.926V66.8425C75.926 67.9014 75.8209 68.9361 75.6108 69.9302H73V61.4109Z" fill="#0A92CB"/>
<path fill-rule="evenodd" clip-rule="evenodd" d="M48.4911 61.4108H44.4901C42.6594 61.4108 41.1641 62.9061 41.1641 64.7368V66.6081C41.1641 68.4348 42.6594 69.9301 44.4901 69.9301H48.4911V61.4108ZM85.9147 63.5204H89.3378V70.1726L94.9554 63.5204H108.312C109.242 63.5204 110.002 62.7606 110.002 61.8311V45.3744C110.002 44.4448 109.242 43.6851 108.312 43.6851H85.9189C84.9853 43.6851 84.2256 44.4448 84.2256 45.3744V61.8311C84.2254 62.7606 84.9852 63.5204 85.9147 63.5204Z" fill="#0CB4FB"/>
<path d="M88.4453 57.042H105.783V59.0386H88.4453V57.042ZM88.4453 54.6011H105.783V52.6045H88.4453V54.6011ZM88.4453 48.167V50.1636H105.783V48.167H88.4453Z" fill="#E9E9FF"/>
<path fill-rule="evenodd" clip-rule="evenodd" d="M60.9027 52.1194C62.7537 56.6418 67.183 59.9962 71.7661 59.9962C72.5502 59.9962 73.2937 59.8951 73.9929 59.7093V66.8425C73.9929 70.7828 72.3359 74.1736 69.3048 76.4409C62.3495 81.6382 59.1851 81.4361 52.5006 76.4409C49.4655 74.1736 47.8125 70.783 47.8125 66.8425V59.7093C48.5077 59.8953 49.2552 59.9962 50.0393 59.9962C54.6182 59.9962 59.0517 56.6418 60.9027 52.1194Z" fill="#FFD3BC"/>
<path d="M63.8279 69.2886L65.368 70.5591L64.7329 71.329C63.6471 72.6453 62.3243 73.341 60.9075 73.341C59.4905 73.341 58.1677 72.6453 57.0821 71.329L56.4469 70.5589L57.9872 69.2886L58.6223 70.0586C59.1061 70.6452 59.8953 71.3444 60.9075 71.3444C61.9195 71.3444 62.7088 70.6452 63.1926 70.0586L63.8279 69.2886ZM55.2251 61.3945C53.576 61.3945 52.2344 62.7344 52.2344 64.3812H54.231C54.231 63.8353 54.6769 63.3911 55.2251 63.3911C55.7711 63.3911 56.2152 63.8353 56.2152 64.3812H58.2118C58.2117 62.7344 56.8718 61.3945 55.2251 61.3945ZM66.5895 61.3945C64.9405 61.3945 63.5988 62.7344 63.5988 64.3812H65.5954C65.5954 63.8353 66.0414 63.3911 66.5895 63.3911C67.1379 63.3911 67.5838 63.8353 67.5838 64.3812H69.5804C69.5804 62.7344 68.2386 61.3945 66.5895 61.3945Z" fill="#70392A"/>
<path d="M61.3269 75.7256H47.3112C46.5797 75.7256 45.9208 75.4306 45.4399 74.9495C44.963 74.4727 44.6641 73.8098 44.6641 73.0825V69.9302H46.6605V73.0825C46.6606 73.1673 46.6774 73.2514 46.71 73.3297C46.7426 73.4081 46.7903 73.4792 46.8505 73.5391C46.9717 73.6563 47.1334 73.7291 47.3112 73.7291H61.3269V75.7256Z" fill="#CFCFFF"/>
<path d="M57.2344 73.729H61.3284V75.7255H57.2344V73.729Z" fill="#0CB4FB"/>
<path fill-rule="evenodd" clip-rule="evenodd" d="M69.7812 95.5246H99.4211V75.766C99.4211 74.7517 98.5926 73.9231 97.5823 73.9231H71.6202C70.6058 73.9231 69.7812 74.7515 69.7812 75.766V95.5246Z" fill="#445EA0"/>
<path d="M90.4458 83.7601V81.7635H88.763C88.6582 81.3264 88.4849 80.9087 88.2495 80.5258L89.4379 79.3374L88.0261 77.9256L86.8377 79.114C86.4548 78.8786 86.0371 78.7053 85.6 78.6005V76.9177H83.6034V78.6005C83.166 78.7053 82.7479 78.8788 82.3648 79.1146L81.1724 77.9248L79.7622 79.338L80.9535 80.5265C80.7184 80.9092 80.5453 81.3266 80.4406 81.7633H78.7578V83.7599H80.4406C80.5453 84.1967 80.7184 84.6141 80.9535 84.9967L79.7622 86.1853L81.1724 87.5985L82.3648 86.4087C82.7479 86.6444 83.166 86.8179 83.6034 86.9228V88.6055H85.6V86.9228C86.0371 86.818 86.4548 86.6447 86.8377 86.4093L88.0261 87.5977L89.4379 86.1859L88.2495 84.9974C88.4849 84.6146 88.6582 84.1969 88.763 83.7598H90.4458V83.7601ZM82.3185 82.7618C82.3185 81.5028 83.3429 80.4784 84.6019 80.4784C85.8609 80.4784 86.8852 81.5028 86.8852 82.7618C86.8852 84.0208 85.8609 85.0451 84.6019 85.0451C83.3427 85.0451 82.3185 84.0208 82.3185 82.7618Z" fill="#0CB4FB"/>
<path fill-rule="evenodd" clip-rule="evenodd" d="M42.8412 64.7368C42.8412 62.9061 44.3365 61.4108 46.1632 61.4108H44.4901C43.8273 61.4108 43.2129 61.6048 42.6917 61.9402C41.7742 62.5343 41.1641 63.5689 41.1641 64.737V66.6082C41.1641 67.7762 41.7744 68.8067 42.6917 69.4008C43.2275 69.7471 43.8521 69.931 44.4901 69.9302H46.1632C44.3365 69.9302 42.8412 68.4349 42.8412 66.6082V64.7368ZM85.9713 60.7642V44.3074C85.9713 44.0851 86.0158 43.875 86.0925 43.6851H85.9187C84.9852 43.6851 84.2254 44.4448 84.2254 45.3744V61.8311C84.2254 62.7606 84.9852 63.5204 85.9147 63.5204H89.3378V70.1726L91.0877 68.1034V62.4535H87.6646C86.7352 62.4535 85.9713 61.6937 85.9713 60.7642Z" fill="#0A92CB"/>
<path fill-rule="evenodd" clip-rule="evenodd" d="M69.7814 95.5244H99.4213V94.0251H71.5596V74.2666C71.5596 74.1494 71.5718 74.0363 71.5959 73.9231C70.5936 73.9393 69.7812 74.7597 69.7812 75.766L69.7814 95.5244Z" fill="#2E4C89"/>
<path fill-rule="evenodd" clip-rule="evenodd" d="M87.0311 91.6731L89.8762 99.76H79.3281L82.1733 91.6731H87.0311Z" fill="#2E4C89"/>
<path fill-rule="evenodd" clip-rule="evenodd" d="M80.9285 99.76H79.3281L82.1733 91.6731H83.7777L80.9285 99.76Z" fill="#253D6F"/>
<path fill-rule="evenodd" clip-rule="evenodd" d="M64.6484 102.577H99.425V98.8464H66.5157C65.4892 98.8464 64.6486 99.683 64.6486 100.709L64.6484 102.577Z" fill="#293D7C"/>
<path fill-rule="evenodd" clip-rule="evenodd" d="M64.6484 102.577H66.9641V100.71C66.9641 99.6833 67.8047 98.8467 68.8313 98.8467H66.5155C65.4891 98.8467 64.6484 99.6833 64.6484 100.71V102.577Z" fill="#1A2B63"/>
<defs>
<filter id="filter0_d_3238_2845" x="0.666667" y="0.571429" width="146.667" height="146.667" filterUnits="userSpaceOnUse" color-interpolation-filters="sRGB">
<feFlood flood-opacity="0" result="BackgroundImageFix"/>
<feColorMatrix in="SourceAlpha" type="matrix" values="0 0 0 0 0 0 0 0 0 0 0 0 0 0 0 0 0 0 127 0" result="hardAlpha"/>
<feOffset dy="1.90476"/>
<feGaussianBlur stdDeviation="6.66667"/>
<feComposite in2="hardAlpha" operator="out"/>
<feColorMatrix type="matrix" values="0 0 0 0 0.695898 0 0 0 0 0.695898 0 0 0 0 0.695898 0 0 0 0.25 0"/>
<feBlend mode="normal" in2="BackgroundImageFix" result="effect1_dropShadow_3238_2845"/>
<feBlend mode="normal" in="SourceGraphic" in2="effect1_dropShadow_3238_2845" result="shape"/>
</filter>
</defs>
</svg>
