<svg width="148" height="148" viewBox="0 0 148 148" fill="none" xmlns="http://www.w3.org/2000/svg">
<g filter="url(#filter0_d_2030_2294)">
<circle cx="74" cy="72" r="60" fill="white"/>
</g>
<path d="M101.895 45.1344C98.8128 42.0521 94.7178 41.0295 90.4727 41.0295H58.5261C54.3548 41.0295 50.1244 42.0558 47.1048 45.0753C43.9918 48.1884 43.176 52.2613 43 56.4978V88.4432C43 92.4951 44.0201 96.963 47.1048 99.8656C50.1872 102.948 54.2822 103.97 58.5273 103.97H90.4727C96.2202 103.97 101.477 101.729 104.334 96.5335C105.662 94.1206 106 91.1564 106 88.4432V56.5568C106 52.4569 105.014 48.0703 101.895 45.1344ZM96.0061 92.489C93.1502 87.0159 87.9146 88.3841 85.2383 89.7524C84.9996 89.8705 84.7621 90.049 84.5246 90.1683C78.9924 93.1424 71.4361 93.3811 63.9401 90.1683C57.634 87.4317 52.4586 82.7917 49.1277 77.4379C50.8529 78.6868 52.6973 79.8176 54.6599 80.7097C62.5718 84.4577 70.544 84.1599 76.1956 80.7097C68.1643 74.5229 61.4423 66.4916 56.326 59.948C55.3736 58.8172 54.4815 57.5683 53.7088 56.3181C59.8956 61.9106 69.5917 68.9907 73.1022 70.9533C65.7255 63.1595 59.1819 53.5225 59.4784 53.8203C71.1384 65.5392 81.9062 72.2022 81.9062 72.2022C82.3233 72.3807 82.6199 72.5591 82.8586 72.7375C83.0961 72.1432 83.2745 71.5476 83.4529 70.9533C85.2974 64.171 83.2154 56.3784 78.456 49.9529C89.2829 56.4375 95.6493 68.8111 93.0309 79.2221C92.9718 79.4608 92.9127 79.6983 92.8524 79.9357C98.3256 86.5987 96.8379 93.7379 96.0061 92.489Z" fill="black"/>
<defs>
<filter id="filter0_d_2030_2294" x="0.666667" y="0.571429" width="146.667" height="146.667" filterUnits="userSpaceOnUse" color-interpolation-filters="sRGB">
<feFlood flood-opacity="0" result="BackgroundImageFix"/>
<feColorMatrix in="SourceAlpha" type="matrix" values="0 0 0 0 0 0 0 0 0 0 0 0 0 0 0 0 0 0 127 0" result="hardAlpha"/>
<feOffset dy="1.90476"/>
<feGaussianBlur stdDeviation="6.66667"/>
<feComposite in2="hardAlpha" operator="out"/>
<feColorMatrix type="matrix" values="0 0 0 0 0.695898 0 0 0 0 0.695898 0 0 0 0 0.695898 0 0 0 0.25 0"/>
<feBlend mode="normal" in2="BackgroundImageFix" result="effect1_dropShadow_2030_2294"/>
<feBlend mode="normal" in="SourceGraphic" in2="effect1_dropShadow_2030_2294" result="shape"/>
</filter>
</defs>
</svg>
