<svg width="100" height="100" viewBox="0 0 100 100" fill="none" xmlns="http://www.w3.org/2000/svg">
<path d="M49.7601 86.3849C49.4224 86.3846 49.098 86.2528 48.8558 86.0174C48.6137 85.7819 48.4728 85.4614 48.4631 85.1237C48.4582 84.9534 48.487 84.7838 48.5477 84.6245C48.6085 84.4653 48.7 84.3196 48.817 84.1958C48.9341 84.0719 49.0744 83.9723 49.2299 83.9027C49.3854 83.833 49.5532 83.7947 49.7235 83.7899C50.4412 83.7572 51.0442 84.3128 51.0757 85.0293C51.1079 85.7452 50.5516 86.3514 49.835 86.3828L49.7976 86.3842C49.7852 86.3849 49.7727 86.3849 49.7601 86.3849ZM44.5413 86.1893C44.4901 86.1893 44.4397 86.1868 44.3878 86.1809L44.3845 86.1801C43.6713 86.1087 43.1549 85.4735 43.2265 84.7596C43.298 84.0464 43.9383 83.5274 44.6508 83.5983L44.691 83.6023C45.4028 83.6863 45.9121 84.3313 45.8281 85.0431C45.7912 85.3586 45.6398 85.6496 45.4026 85.8609C45.1655 86.0721 44.859 86.189 44.5413 86.1893ZM54.9672 85.7891C54.6668 85.7888 54.3758 85.6842 54.1439 85.4932C53.912 85.3023 53.7536 85.0367 53.6956 84.742C53.6626 84.5747 53.6628 84.4027 53.6963 84.2355C53.7298 84.0684 53.7959 83.9096 53.8909 83.768C53.9858 83.6265 54.1077 83.505 54.2496 83.4106C54.3915 83.3162 54.5507 83.2507 54.7179 83.2178L54.7421 83.2131C54.9095 83.1811 55.0816 83.1824 55.2485 83.2169C55.4155 83.2515 55.5739 83.3185 55.715 83.4143C55.856 83.5101 55.9767 83.6327 56.0703 83.7752C56.1639 83.9177 56.2286 84.0772 56.2605 84.2446C56.3251 84.5826 56.2528 84.9325 56.0595 85.2173C55.8662 85.502 55.5677 85.6983 55.2297 85.763L55.2198 85.7647C55.1365 85.7808 55.0519 85.789 54.9672 85.7891ZM39.3921 85.2005C39.2792 85.2005 39.1643 85.1854 39.0494 85.1547L39.0424 85.1526C38.3502 84.9684 37.9368 84.2577 38.1204 83.5655C38.2085 83.2329 38.425 82.9489 38.7224 82.7759C39.0198 82.6029 39.3737 82.5551 39.7064 82.643L39.7332 82.6502C39.8976 82.6951 40.0516 82.7719 40.1863 82.8763C40.3211 82.9806 40.4339 83.1105 40.5184 83.2585C40.6029 83.4065 40.6575 83.5697 40.6789 83.7388C40.7003 83.9079 40.6882 84.0795 40.6433 84.2439C40.5684 84.5185 40.4054 84.7609 40.1793 84.9337C39.9532 85.1066 39.6767 85.2003 39.3921 85.2005ZM60.0247 84.4027C59.7582 84.4027 59.4981 84.3208 59.2798 84.168C59.0614 84.0151 58.8954 83.7988 58.8042 83.5484C58.6868 83.2249 58.7025 82.868 58.8481 82.5561C58.9936 82.2442 59.257 82.0029 59.5804 81.8851L59.6023 81.8779C60.2758 81.6359 61.0194 81.9854 61.2621 82.66C61.5048 83.3345 61.1538 84.078 60.4794 84.3207L60.4681 84.3247C60.326 84.3763 60.1759 84.4026 60.0247 84.4027ZM34.4488 83.4303C34.2661 83.4302 34.0856 83.3911 33.9193 83.3156L33.9015 83.3077C33.7463 83.2373 33.6064 83.1371 33.49 83.0126C33.3735 82.8882 33.2826 82.7421 33.2226 82.5826C33.1626 82.4231 33.1346 82.2533 33.1403 82.083C33.1459 81.9126 33.185 81.7451 33.2553 81.5899C33.3257 81.4346 33.4259 81.2948 33.5503 81.1783C33.6747 81.0618 33.8208 80.971 33.9803 80.911C34.1398 80.851 34.3096 80.823 34.4799 80.8286C34.6502 80.8342 34.8178 80.8733 34.973 80.9437C35.6264 81.2388 35.9237 82.0104 35.6291 82.664C35.5271 82.8919 35.3614 83.0854 35.152 83.2213C34.9426 83.3573 34.6984 83.4298 34.4488 83.4303ZM64.8053 82.2579C64.5698 82.2582 64.3387 82.1944 64.1368 82.0734C63.9348 81.9523 63.7696 81.7786 63.6589 81.5709C63.5786 81.4205 63.5287 81.2557 63.512 81.0861C63.4954 80.9164 63.5124 80.7451 63.562 80.582C63.6116 80.4189 63.6929 80.2671 63.8011 80.1354C63.9094 80.0037 64.0426 79.8946 64.193 79.8144C64.4947 79.6487 64.8499 79.6095 65.1804 79.7054C65.511 79.8014 65.79 80.0247 65.956 80.3262C66.3012 80.9541 66.0727 81.7434 65.4442 82.0886L65.4148 82.105C65.2272 82.2053 65.018 82.2578 64.8053 82.2579ZM76.5925 70.6563L76.601 70.6621L76.464 70.5644L76.5925 70.6563ZM16.6829 64.9991C16.4245 64.999 16.1721 64.922 15.9577 64.7778C15.7433 64.6336 15.5768 64.4287 15.4794 64.1895L15.476 64.1802C15.2026 63.5176 15.518 62.7584 16.1801 62.4854C16.843 62.2118 17.602 62.5274 17.875 63.1894L17.8842 63.2124C18.1546 63.8764 17.8343 64.6336 17.1703 64.9033C17.0108 64.9682 16.8448 64.9991 16.6829 64.9991ZM81.1039 62.5084C80.8994 62.5084 80.6978 62.4601 80.5155 62.3674C80.3332 62.2747 80.1753 62.1402 80.0548 61.9749C79.9343 61.8097 79.8546 61.6183 79.8221 61.4164C79.7895 61.2144 79.8052 61.0077 79.8677 60.813C80.0798 60.1312 80.8029 59.746 81.4859 59.9535C82.1715 60.1621 82.5587 60.8845 82.3514 61.5693L82.335 61.6207C82.2489 61.8791 82.0837 62.1039 81.8628 62.2632C81.6419 62.4225 81.3765 62.5083 81.1041 62.5084H81.1039ZM15.0957 60.0025C14.8041 60.0022 14.521 59.9037 14.2921 59.7228C14.0633 59.542 13.902 59.2895 13.8341 59.0058L13.8301 58.9888C13.7502 58.6539 13.8066 58.301 13.9869 58.0076C14.1671 57.7143 14.4565 57.5046 14.7914 57.4245C14.9572 57.3849 15.1291 57.3783 15.2975 57.4052C15.4658 57.4321 15.6272 57.4918 15.7724 57.5811C15.9176 57.6704 16.0437 57.7874 16.1437 57.9255C16.2436 58.0636 16.3154 58.22 16.3548 58.3858L16.3589 58.4028C16.4388 58.7375 16.3825 59.0903 16.2024 59.3835C16.0222 59.6767 15.733 59.8864 15.3983 59.9664C15.2992 59.9902 15.1976 60.0024 15.0957 60.0025ZM82.2977 57.4035C82.2229 57.4035 82.1475 57.397 82.0708 57.3832C81.7344 57.3238 81.4349 57.1343 81.2374 56.8556C81.0399 56.5769 80.9602 56.2316 81.0156 55.8945C81.1246 55.189 81.7827 54.7023 82.4887 54.8061C83.1973 54.9109 83.6875 55.5676 83.5832 56.277L83.5746 56.3307C83.5215 56.631 83.3645 56.903 83.1311 57.0992C82.8976 57.2953 82.6026 57.4031 82.2977 57.4035ZM14.2945 54.8192C13.6285 54.8192 13.0623 54.3114 13.0032 53.6362L12.9993 53.5824C12.9792 53.2387 13.0964 52.9012 13.3252 52.6439C13.5539 52.3866 13.8755 52.2307 14.2191 52.2104C14.9283 52.1671 15.5405 52.7071 15.5897 53.4158C15.6468 54.127 15.1193 54.7537 14.4072 54.8146C14.3698 54.8178 14.3321 54.8193 14.2945 54.8192ZM82.6951 52.1763C82.5247 52.1764 82.3559 52.1428 82.1984 52.0776C82.0409 52.0124 81.8978 51.9168 81.7773 51.7963C81.6568 51.6758 81.5612 51.5327 81.496 51.3752C81.4308 51.2177 81.3973 51.0489 81.3974 50.8784V50.7834C81.3954 50.6117 81.4275 50.4413 81.4919 50.2822C81.5562 50.123 81.6515 49.9782 81.7722 49.8561C81.8929 49.734 82.0367 49.6371 82.1951 49.5709C82.3535 49.5048 82.5235 49.4707 82.6952 49.4707C82.8669 49.4707 83.0368 49.5048 83.1953 49.5709C83.3537 49.6371 83.4974 49.734 83.6181 49.8561C83.7388 49.9782 83.8341 50.123 83.8985 50.2822C83.9628 50.4413 83.9949 50.6117 83.993 50.7834V50.8005C83.993 50.8096 83.993 50.8188 83.9923 50.8274C83.993 50.8385 83.993 50.8497 83.993 50.8615V50.8784C83.9931 51.0489 83.9595 51.2177 83.8943 51.3752C83.8291 51.5327 83.7335 51.6758 83.613 51.7963C83.4925 51.9169 83.3494 52.0125 83.1919 52.0777C83.0344 52.1429 82.8656 52.1764 82.6951 52.1763ZM14.2912 49.5795C14.2539 49.5795 14.2158 49.5774 14.1776 49.5742C13.8353 49.5446 13.5187 49.3804 13.2973 49.1176C13.0759 48.8549 12.9679 48.515 12.9968 48.1726C13.0465 47.464 13.6527 46.9241 14.3674 46.9686C14.711 46.9888 15.0325 47.1445 15.2612 47.4017C15.4899 47.6589 15.6071 47.9964 15.587 48.3399L15.5825 48.3937C15.5546 48.717 15.4065 49.0182 15.1674 49.2377C14.9284 49.4572 14.6157 49.5792 14.2912 49.5795ZM82.2878 46.8722C81.9829 46.8719 81.6879 46.7641 81.4545 46.568C81.2212 46.3718 81.0643 46.0997 81.0116 45.7994L81.0023 45.7457C80.9524 45.405 81.0398 45.0585 81.2453 44.7823C81.4508 44.5061 81.7575 44.3227 82.0981 44.2726C82.8034 44.1684 83.4642 44.6572 83.5697 45.3644C83.6248 45.7012 83.5451 46.0462 83.3476 46.3246C83.1502 46.6031 82.851 46.7925 82.5149 46.8519C82.4399 46.8654 82.3639 46.8723 82.2878 46.8722ZM15.0786 44.3974C14.9788 44.3974 14.877 44.3856 14.7761 44.3613C14.4417 44.2815 14.1527 44.0724 13.9723 43.7797C13.792 43.4871 13.7351 43.1349 13.8141 42.8003C13.8882 42.4671 14.0907 42.1764 14.3775 41.9913C14.6644 41.8062 15.0127 41.7416 15.3469 41.8115C16.0483 41.9585 16.4984 42.6461 16.3513 43.3476L16.3395 43.4006C16.198 43.9964 15.6658 44.3974 15.0786 44.3974ZM81.0969 41.7754C80.823 41.7746 80.5562 41.6879 80.3342 41.5274C80.1122 41.367 79.9462 41.1409 79.8595 40.8811L79.845 40.8358C79.7948 40.6729 79.7771 40.5017 79.7931 40.332C79.8091 40.1623 79.8584 39.9974 79.9381 39.8467C80.0179 39.6961 80.1266 39.5627 80.258 39.4541C80.3894 39.3455 80.5409 39.2638 80.7038 39.2139C80.8667 39.1636 81.0379 39.146 81.2076 39.162C81.3773 39.1779 81.5422 39.2272 81.6928 39.307C81.8435 39.3868 81.9769 39.4954 82.0855 39.6268C82.1941 39.7582 82.2757 39.9097 82.3257 40.0727L82.3264 40.0747C82.5528 40.755 82.1835 41.4828 81.503 41.709C81.3722 41.7532 81.235 41.7756 81.0969 41.7754ZM16.6518 39.3931C16.4391 39.393 16.2297 39.3407 16.042 39.2407C15.8543 39.1407 15.694 38.9961 15.5753 38.8197C15.4566 38.6432 15.383 38.4402 15.3611 38.2287C15.3393 38.0171 15.3697 37.8034 15.4498 37.6064L15.4564 37.5906C15.5205 37.4327 15.615 37.2889 15.7347 37.1675C15.8544 37.0461 15.9968 36.9495 16.1538 36.8832C16.3108 36.8168 16.4793 36.782 16.6497 36.7808C16.8202 36.7796 16.9892 36.812 17.1471 36.8761C17.466 37.0056 17.7204 37.2566 17.8543 37.5737C17.9881 37.8908 17.9906 38.2481 17.861 38.567L17.8545 38.5833C17.7572 38.8226 17.5909 39.0274 17.3767 39.1716C17.1624 39.3158 16.9101 39.3929 16.6518 39.3929V39.3931ZM79.1283 36.9142C78.8887 36.9141 78.6538 36.8482 78.4492 36.7235C78.2446 36.5989 78.0782 36.4204 77.9683 36.2076L77.9486 36.1694C77.8734 36.0164 77.8291 35.8501 77.8181 35.68C77.8072 35.5099 77.8299 35.3393 77.8849 35.178C77.9399 35.0166 78.0262 34.8677 78.1388 34.7397C78.2513 34.6117 78.3881 34.5071 78.5411 34.432C79.184 34.1158 79.9616 34.3809 80.2785 35.0239L80.2792 35.0264C80.6084 35.663 80.356 36.441 79.7189 36.7699C79.5364 36.8647 79.3339 36.9142 79.1283 36.9142ZM18.976 34.6911C18.7379 34.6914 18.5043 34.6256 18.3014 34.501C18.0083 34.3224 17.7979 34.0349 17.7164 33.7015C17.6348 33.3681 17.6888 33.0159 17.8664 32.7222C18.0388 32.428 18.32 32.2134 18.6493 32.1249C18.9786 32.0364 19.3295 32.081 19.6262 32.249C19.7788 32.3356 19.9122 32.4522 20.0185 32.5918C20.1247 32.7313 20.2016 32.891 20.2445 33.0611C20.2873 33.2312 20.2953 33.4082 20.2678 33.5815C20.2404 33.7547 20.1781 33.9206 20.0847 34.0691C19.969 34.2594 19.8061 34.4165 19.6119 34.5255C19.4177 34.6344 19.1987 34.6915 18.976 34.6911ZM76.4337 32.4118C76.2217 32.412 76.0129 32.3603 75.8256 32.2611C75.6382 32.1619 75.478 32.0183 75.3591 31.8429C74.9425 31.2597 75.0807 30.4546 75.6648 30.0379C76.2475 29.6213 77.0623 29.7624 77.4788 30.3456L77.5065 30.3851C77.6998 30.67 77.772 31.0199 77.7072 31.358C77.6425 31.6961 77.4462 31.9947 77.1614 32.1881C76.9469 32.3342 76.6933 32.4121 76.4337 32.4118ZM21.9915 30.4007C21.6888 30.4009 21.3956 30.2951 21.1628 30.1017C20.8979 29.8817 20.7314 29.5655 20.6996 29.2227C20.6679 28.8798 20.7737 28.5384 20.9936 28.2735L21.0047 28.2604C21.2256 27.9989 21.5409 27.8353 21.8818 27.8051C22.2228 27.775 22.5619 27.8807 22.8253 28.0994C23.0886 28.318 23.255 28.6319 23.288 28.9726C23.3211 29.3133 23.2183 29.6532 23.0019 29.9185L22.9908 29.9316C22.8691 30.0786 22.7165 30.197 22.5437 30.2781C22.371 30.3592 22.1824 30.4011 21.9915 30.4007ZM73.0901 28.374C72.9152 28.3743 72.742 28.3392 72.5811 28.2706C72.4201 28.202 72.2748 28.1015 72.1539 27.9751C71.6518 27.4633 71.6591 26.6397 72.1715 26.138C72.6827 25.6366 73.5035 25.6438 74.0047 26.1556L74.0266 26.1773C74.1446 26.3003 74.2373 26.4453 74.2993 26.6041C74.3613 26.7628 74.3914 26.9323 74.3879 27.1027C74.3845 27.2731 74.3474 27.4412 74.279 27.5973C74.2105 27.7534 74.1119 27.8945 73.9889 28.0125C73.7476 28.2451 73.4253 28.3747 73.0901 28.374ZM25.6239 26.6187C25.3604 26.6189 25.1031 26.5389 24.8862 26.3893C24.6693 26.2397 24.5031 26.0276 24.4096 25.7812C24.3162 25.5349 24.2999 25.2659 24.3631 25.0101C24.4262 24.7543 24.5657 24.5237 24.763 24.3491L24.7682 24.3448C25.3017 23.8677 26.1226 23.9111 26.6008 24.4444C27.0785 24.9772 27.0365 25.7953 26.5043 26.2744L26.4833 26.2934C26.2463 26.5034 25.9405 26.619 25.6239 26.6187ZM69.1711 24.89C68.8957 24.8902 68.6273 24.8024 68.4053 24.6394L68.3615 24.6058C68.0898 24.3944 67.9132 24.0838 67.8705 23.7423C67.8278 23.4008 67.9225 23.0562 68.1337 22.7845C68.3446 22.5133 68.6544 22.3368 68.9953 22.2937C69.3361 22.2506 69.6801 22.3445 69.9518 22.5547C70.1695 22.7184 70.3302 22.9464 70.4111 23.2064C70.492 23.4664 70.4891 23.7453 70.4028 24.0036C70.3164 24.2619 70.151 24.4865 69.93 24.6455C69.7089 24.8046 69.4434 24.8901 69.1711 24.89ZM29.7863 23.4327C29.5058 23.4328 29.2327 23.342 29.0081 23.174C28.7835 23.0059 28.6194 22.7696 28.5403 22.5005C28.4613 22.2313 28.4715 21.9438 28.5696 21.681C28.6676 21.4181 28.8482 21.1941 29.0842 21.0425C29.3691 20.8543 29.7167 20.786 30.0516 20.8523C30.3865 20.9186 30.6818 21.1142 30.8735 21.3967C30.9693 21.5377 31.0363 21.6962 31.0708 21.8631C31.1053 22.03 31.1065 22.202 31.0744 22.3694C31.0424 22.5368 30.9777 22.6962 30.884 22.8386C30.7903 22.9809 30.6694 23.1034 30.5284 23.199L30.483 23.2293C30.275 23.3624 30.0332 23.4329 29.7863 23.4327ZM64.7651 22.0411C64.5537 22.0411 64.3455 21.9891 64.1589 21.8896L64.128 21.8724C63.5001 21.5273 63.2712 20.738 63.6162 20.1101C63.9612 19.4822 64.7507 19.2531 65.3787 19.5983L65.3826 19.6003C66.0091 19.9421 66.2459 20.7287 65.9075 21.3573C65.7966 21.5638 65.6319 21.7364 65.4308 21.8568C65.2296 21.9772 64.9997 22.0408 64.7653 22.0409L64.7651 22.0411ZM34.3851 20.9184C34.1352 20.9185 33.8905 20.8465 33.6804 20.711C33.4704 20.5756 33.3039 20.3824 33.2009 20.1546C33.1307 19.9994 33.0918 19.8319 33.0864 19.6616C33.0809 19.4914 33.1091 19.3217 33.1692 19.1623C33.2293 19.003 33.3203 18.857 33.4368 18.7328C33.5534 18.6085 33.6932 18.5085 33.8484 18.4383L33.8787 18.4252C34.5348 18.1371 35.2997 18.437 35.5878 19.0937C35.7256 19.4091 35.7325 19.7664 35.607 20.0869C35.4815 20.4074 35.2339 20.665 34.9186 20.803C34.751 20.8788 34.5691 20.9182 34.3851 20.9184Z" fill="#A7C7D3"/>
<path d="M58.4877 76.0562L38.9474 56.5161C37.7225 55.2916 37.7212 53.3102 38.9442 52.0879C39.4084 51.6222 40.0085 51.3159 40.658 51.2133C41.6154 51.0591 42.6316 51.351 43.3723 52.0918L38.3405 47.0599C38.0492 46.7697 37.8181 46.4247 37.6605 46.045C37.5028 45.6652 37.4218 45.258 37.4219 44.8468C37.4219 44.6801 37.4351 44.5128 37.462 44.3462C37.565 43.6965 37.8714 43.0963 38.3371 42.6318C38.7956 42.1714 39.3871 41.8666 40.0281 41.7603C40.4553 41.6887 40.8927 41.7065 41.3126 41.8126C41.7326 41.9188 42.1259 42.111 42.4677 42.3771L40.553 40.4626C40.2614 40.1718 40.0301 39.8264 39.8724 39.446C39.7146 39.0656 39.6335 38.6579 39.6337 38.2461C39.6329 38.0757 39.6469 37.9056 39.6757 37.7377C39.7791 37.0916 40.0844 36.495 40.5478 36.0331C41.0126 35.5664 41.614 35.2598 42.2648 35.1578C42.7544 35.0785 43.2558 35.1168 43.7277 35.2696C44.1996 35.4223 44.6283 35.6851 44.9786 36.0363L47.1713 38.2291C46.8203 37.8788 46.5577 37.45 46.4049 36.9782C46.2522 36.5064 46.2138 36.005 46.2928 35.5154C46.3949 34.8655 46.7015 34.265 47.1679 33.801C48.3891 32.5798 50.3726 32.5812 51.5963 33.8048L64.295 46.5036L64.3303 46.453C64.9513 45.8304 65.7082 45.3601 66.5416 45.0791C68.5381 44.4058 70.8366 44.8657 72.4296 46.4596L78.3505 52.3805C79.4878 53.5176 80.1278 55.0593 80.1299 56.6676L80.1333 60.3721C80.1351 62.1045 80.8244 63.7654 82.0498 64.9899L83.3701 66.3101L68.268 81.4122L66.5802 79.7246C65.4582 78.6029 63.9668 77.9272 62.3837 77.8232C60.9137 77.7264 59.529 77.0984 58.4877 76.0562Z" fill="#FECBAA"/>
<path d="M67.2825 82.3931L84.4246 65.2511C84.5588 65.1168 84.7183 65.0102 84.8937 64.9375C85.0692 64.8648 85.2573 64.8274 85.4472 64.8274C85.6371 64.8274 85.8252 64.8648 86.0006 64.9375C86.1761 65.0102 86.3355 65.1168 86.4698 65.2511L92.5744 71.3557C93.1393 71.9206 93.1393 72.8366 92.5744 73.4008L75.433 90.5428C74.8682 91.1077 73.9521 91.1077 73.3879 90.5428L67.2825 84.4382C66.7183 83.8733 66.7183 82.9573 67.2825 82.3931Z" fill="#FDD559"/>
<path d="M84.8803 72.9454C85.3875 73.4527 86.2082 73.4533 86.7142 72.9474C87.2201 72.4415 87.2194 71.6201 86.7128 71.1135C86.2055 70.6063 85.3849 70.6058 84.8789 71.1117C84.636 71.3551 84.4997 71.685 84.5 72.0288C84.5003 72.3727 84.637 72.7024 84.8803 72.9454Z" fill="#FF8812"/>
<path d="M68.6615 50.8751L64.2891 46.5035L64.3243 46.453C64.9454 45.8303 65.7023 45.36 66.5356 45.079L70.4967 49.04C70.74 49.2834 70.8766 49.6135 70.8766 49.9576C70.8766 50.3018 70.74 50.6318 70.4967 50.8752C70.3762 50.9958 70.2332 51.0915 70.0757 51.1568C69.9183 51.2221 69.7495 51.2557 69.5791 51.2557C69.4086 51.2557 69.2399 51.2221 69.0824 51.1568C68.9249 51.0915 68.7819 50.9958 68.6615 50.8752V50.8751Z" fill="#FFAE85"/>
<path d="M41.5152 76.0582L61.0555 56.518C62.2803 55.293 62.2817 53.3122 61.0594 52.0897C60.5951 51.6236 59.9947 51.3171 59.3449 51.2146C58.3875 51.0604 57.3713 51.353 56.6305 52.0931L61.6624 47.0619C61.9537 46.7716 62.1849 46.4265 62.3425 46.0466C62.5001 45.6667 62.5812 45.2594 62.581 44.8481C62.581 44.6821 62.5677 44.5141 62.5409 44.3482C62.438 43.6985 62.1316 43.0982 61.6657 42.6337C61.2073 42.1734 60.6158 41.8685 59.9748 41.7623C59.5476 41.6906 59.1102 41.7085 58.6903 41.8146C58.2703 41.9208 57.877 42.113 57.5352 42.3791L59.4499 40.4639C59.7415 40.1733 59.9728 39.828 60.1306 39.4477C60.2883 39.0674 60.3694 38.6598 60.3692 38.2481C60.37 38.0775 60.356 37.9071 60.3272 37.739C60.224 37.0928 59.9187 36.496 59.4551 36.0342C58.99 35.568 58.3887 35.2617 57.7381 35.1596C57.2485 35.0802 56.747 35.1184 56.2751 35.2712C55.8032 35.4239 55.3744 35.6868 55.0243 36.0381L52.8316 38.2311C53.1826 37.8806 53.4452 37.4517 53.598 36.9798C53.7507 36.5079 53.7891 36.0064 53.7101 35.5167C53.6077 34.8668 53.3012 34.2663 52.8349 33.8021C51.6138 32.581 49.6303 32.5825 48.4066 33.8061L35.7078 46.5047L35.6726 46.455C35.0515 45.8323 34.2946 45.362 33.4613 45.081C31.4641 44.4078 29.1663 44.8677 27.5733 46.4609L21.6524 52.3825C20.515 53.5195 19.8751 55.0613 19.8729 56.6695L19.8689 60.3733C19.8678 62.1059 19.1787 63.7672 17.953 64.9919L16.6328 66.3121L31.7349 81.4142L33.4226 79.7266C34.5446 78.6049 36.036 77.9292 37.6192 77.8252C39.0892 77.7284 40.4739 77.1004 41.5152 76.0582Z" fill="#FECBAA"/>
<path d="M32.7156 82.3945L15.5735 65.2529C15.4393 65.1186 15.2798 65.012 15.1044 64.9393C14.9289 64.8666 14.7409 64.8292 14.5509 64.8292C14.361 64.8292 14.173 64.8666 13.9975 64.9393C13.822 65.012 13.6626 65.1186 13.5283 65.2529L7.42369 71.3576C7.28937 71.4918 7.18281 71.6513 7.11012 71.8267C7.03742 72.0022 7 72.1902 7 72.3802C7 72.5701 7.03742 72.7582 7.11012 72.9336C7.18281 73.1091 7.28937 73.2685 7.42369 73.4028L24.5651 90.5448C24.6994 90.6792 24.8589 90.7857 25.0344 90.8584C25.2099 90.9311 25.398 90.9686 25.588 90.9686C25.778 90.9686 25.9661 90.9311 26.1416 90.8584C26.3171 90.7857 26.4766 90.6792 26.6109 90.5448L32.7156 84.4402C32.8499 84.3058 32.9565 84.1464 33.0292 83.9708C33.1019 83.7953 33.1393 83.6072 33.1393 83.4172C33.1393 83.2272 33.1019 83.0391 33.0292 82.8636C32.9565 82.6881 32.8499 82.5288 32.7156 82.3945Z" fill="#FF84A7"/>
<path d="M26.8613 84.6934C27.3686 84.1861 27.3691 83.3654 26.8632 82.8595C26.3574 82.3529 25.5359 82.3536 25.0293 82.8608C24.522 83.3673 24.5215 84.1888 25.0275 84.6947C25.2709 84.9377 25.6008 85.074 25.9447 85.0737C26.2886 85.0735 26.6183 84.9367 26.8613 84.6934Z" fill="#EF6085"/>
<path d="M31.333 50.8773L35.7047 46.5048L35.6695 46.455C35.0484 45.8323 34.2915 45.362 33.4582 45.0811L29.4971 49.0414C29.2538 49.285 29.1172 49.6151 29.1172 49.9594C29.1172 50.3036 29.2538 50.6338 29.4971 50.8773C29.6176 50.9979 29.7607 51.0936 29.9182 51.1589C30.0757 51.2241 30.2446 51.2577 30.4151 51.2577C30.5856 51.2577 30.7544 51.2241 30.9119 51.1589C31.0694 51.0936 31.2125 50.9979 31.333 50.8773Z" fill="#FFAE85"/>
<path d="M62.4978 29.2283V56.8625C62.4978 58.5946 61.0982 59.9962 59.3693 59.9962C58.6857 59.9962 58.0525 59.7763 57.5381 59.4024C57.1359 59.1122 56.8084 58.7306 56.5828 58.289C56.3571 57.8473 56.2397 57.3583 56.2403 56.8624V63.9782C56.2411 64.4741 56.1239 64.9632 55.8982 65.4048C55.6726 65.8465 55.345 66.228 54.9425 66.5179C54.4106 66.9048 53.7696 67.1128 53.1118 67.1118C52.4354 67.1118 51.8101 66.8973 51.2996 66.5323C50.9468 66.2809 50.6501 65.9589 50.4282 65.5868C50.2064 65.2147 50.0643 64.8005 50.011 64.3706V67.0791C50.011 67.9444 49.6594 68.7299 49.0939 69.2954C48.9739 69.4167 48.8437 69.5273 48.7047 69.6261C48.1745 70.0099 47.5365 70.2159 46.882 70.2147C46.2235 70.2157 45.5818 70.0073 45.0495 69.6196C44.6472 69.3294 44.3197 68.9477 44.094 68.5059C43.8683 68.0642 43.751 67.5751 43.7516 67.0791V63.9782C43.7521 64.4741 43.6347 64.963 43.409 65.4046C43.1834 65.8462 42.8559 66.2278 42.4537 66.5179C41.9221 66.9052 41.281 67.1132 40.6232 67.1118C38.8956 67.1118 37.4941 65.7084 37.4941 63.9782V46.0191L37.4336 46.0296C36.5542 46.0305 35.6866 45.828 34.8985 45.4378C33.0108 44.5015 31.7109 42.5514 31.7109 40.2983V31.9242C31.7112 30.3159 32.3489 28.7732 33.4845 27.6343L36.1011 25.0131C37.3251 23.787 38.0123 22.1252 38.0118 20.3927V18.5255H59.3687V20.9118C59.3691 22.4985 59.946 24.0309 60.9919 25.2239C61.9631 26.3318 62.4982 27.755 62.4978 29.2283Z" fill="#FEDFC5"/>
<path d="M61.0612 52.0897C60.5967 51.6238 59.9964 51.3174 59.3467 51.2146C58.3893 51.0602 57.3731 51.353 56.6323 52.0937L61.6642 47.0619C62.0155 46.7118 62.2785 46.2831 62.4312 45.8112C62.584 45.3393 62.6222 44.8378 62.5426 44.3482C62.44 43.6985 62.1338 43.0982 61.668 42.6337C61.2095 42.1735 60.6181 41.8687 59.9773 41.7623C59.55 41.6907 59.1125 41.7085 58.6924 41.8147C58.2724 41.9208 57.8789 42.113 57.537 42.3791L59.4524 40.4639C59.7437 40.1732 59.9749 39.8278 60.1325 39.4476C60.2901 39.0673 60.3712 38.6597 60.371 38.2481C60.3719 38.0775 60.358 37.9071 60.3295 37.739C60.2257 37.0929 59.9203 36.4962 59.4569 36.0342C58.992 35.568 58.3909 35.2616 57.7404 35.1596C57.2507 35.0804 56.7492 35.1187 56.2773 35.2714C55.8053 35.4242 55.3764 35.687 55.026 36.0381L52.8334 38.2311C53.1843 37.8806 53.447 37.4517 53.5998 36.9798C53.7525 36.5079 53.7909 36.0064 53.7119 35.5167C53.6094 34.8669 53.3031 34.2665 52.8372 33.8021C51.6156 32.581 49.6321 32.5825 48.4084 33.8061L35.7096 46.5047L35.6744 46.455C35.0533 45.8323 34.2964 45.362 33.4631 45.081C32.506 44.7602 31.4814 44.6968 30.4922 44.8973C31.286 46.0974 32.3963 47.0926 33.7491 47.7638C34.121 47.9482 34.5062 48.1046 34.9014 48.2318V63.9782C34.9014 67.1374 37.4694 69.7076 40.6254 69.7076C41.0054 69.7076 41.3793 69.6707 41.7434 69.5984C42.1542 70.4401 42.7658 71.1677 43.5242 71.7172C43.9935 72.0592 44.5124 72.3274 45.0628 72.5124L61.0573 56.518C62.2821 55.293 62.2835 53.3122 61.0612 52.0897Z" fill="#FFAE85"/>
<path d="M65.0947 56.8624V45.8109C64.822 46.0026 64.5662 46.2175 64.3303 46.4532L64.2949 46.5036L51.5961 33.805C50.3725 32.5813 48.3891 32.58 47.1679 33.8011C46.7015 34.2651 46.395 34.8656 46.2928 35.5156C46.2138 36.0051 46.2522 36.5065 46.4049 36.9783C46.5577 37.4501 46.8203 37.8789 47.1713 38.2293L44.9785 36.0364C44.6282 35.6853 44.1995 35.4225 43.7276 35.2698C43.2558 35.117 42.7544 35.0787 42.2648 35.1579C41.614 35.2599 41.0125 35.5664 40.5476 36.0331C40.084 36.495 39.7786 37.0918 39.675 37.7379C39.6468 37.9059 39.633 38.0759 39.6337 38.2462C39.6337 39.0468 39.9408 39.8505 40.5528 40.4627L42.4675 42.3772C42.1257 42.1112 41.7324 41.919 41.3124 41.8128C40.8925 41.7067 40.4551 41.6888 40.0279 41.7605C39.387 41.8667 38.7956 42.1715 38.3372 42.6319C37.8714 43.0964 37.5649 43.6966 37.4619 44.3463C37.435 44.513 37.4212 44.6803 37.4219 44.8469C37.4215 45.2581 37.5025 45.6654 37.6601 46.0452C37.8178 46.425 38.0489 46.7699 38.3403 47.06L43.3722 52.0919C43.0219 51.7408 42.5932 51.478 42.1213 51.3252C41.6495 51.1725 41.1481 51.1341 40.6585 51.2134C40.0088 51.3159 39.4084 51.6222 38.944 52.088C37.7217 53.3108 37.7229 55.2919 38.9474 56.5169L52.0377 69.6067C52.3894 69.6735 52.749 69.7076 53.1132 69.7076C54.3263 69.7076 55.4864 69.3317 56.4627 68.6237C56.7112 68.4442 56.9451 68.2452 57.1621 68.0286C58.2428 66.9479 58.8379 65.5097 58.8379 63.9784V62.5676C59.0138 62.5841 59.1922 62.5919 59.3707 62.5919C62.5267 62.5919 65.0947 60.0219 65.0947 56.8624Z" fill="#FFAE85"/>
<path d="M62.4978 29.2283V56.8625C62.4978 58.5946 61.0982 59.9962 59.3693 59.9962C59.3228 59.9962 59.2723 59.9962 59.2224 59.9928C58.6167 59.9654 58.0324 59.7607 57.542 59.4042C57.5402 59.4042 57.5402 59.4024 57.5381 59.4024C57.1359 59.1122 56.8084 58.7306 56.5828 58.289C56.3571 57.8473 56.2397 57.3583 56.2403 56.8624V63.9782C56.2411 64.4741 56.1239 64.9632 55.8982 65.4048C55.6726 65.8465 55.345 66.228 54.9425 66.5179C54.4106 66.9048 53.7696 67.1128 53.1118 67.1118C52.4354 67.1118 51.8101 66.8973 51.2996 66.5323C50.9468 66.2809 50.6501 65.9589 50.4283 65.5868C50.2065 65.2147 50.0644 64.8005 50.0111 64.3706V67.0791C50.0111 67.9444 49.6594 68.7299 49.0939 69.2954C48.9739 69.4167 48.8437 69.5273 48.7047 69.6261C48.1745 70.0099 47.5365 70.2159 46.882 70.2147C46.2235 70.2157 45.5818 70.0073 45.0495 69.6196C44.6472 69.3294 44.3197 68.9477 44.094 68.5059C43.8683 68.0642 43.751 67.5751 43.7516 67.0791V63.9782C43.7521 64.4741 43.6347 64.963 43.409 65.4046C43.1834 65.8462 42.8559 66.2278 42.4537 66.5179C41.9221 66.9052 41.281 67.1132 40.6232 67.1118C38.8956 67.1118 37.4941 65.7084 37.4941 63.9782V46.0191L37.4336 46.0296C36.5542 46.0305 35.6866 45.828 34.8985 45.4378C33.0108 44.5015 31.7109 42.5514 31.7109 40.2983V31.9242C31.7112 30.3159 32.3489 28.7732 33.4845 27.6343L36.1011 25.0131C36.8515 24.2618 37.407 23.3386 37.7192 22.3236C37.9133 21.6983 38.0119 21.0474 38.0118 20.3927V18.5255H59.3687V20.9118C59.3687 21.4467 59.4265 22.0109 59.5748 22.526C59.827 23.5248 60.3127 24.4495 60.9921 25.2239C61.9545 26.323 62.4978 27.7645 62.4978 29.2283Z" fill="#FEDFC5"/>
<path d="M62.4973 29.2283V56.8625C62.4973 58.5946 61.0978 59.9962 59.3689 59.9962C59.3224 59.9962 59.2718 59.9962 59.2219 59.9928C58.6163 59.9654 58.032 59.7607 57.5416 59.4042L57.5948 32.776C57.5948 32.6152 57.5587 32.3606 57.4912 32.0373C56.2969 26.2205 51.3879 22.3238 45.4505 22.3238H37.7188C37.9128 21.6985 38.0114 21.0475 38.0114 20.3928V18.5255H59.3682V20.9118C59.3682 21.4467 59.426 22.0109 59.5743 22.526C59.8265 23.5248 60.3123 24.4495 60.9917 25.2239C61.9541 26.323 62.4973 27.7645 62.4973 29.2283Z" fill="#FECBAA"/>
<path d="M60.7591 18.5262H36.5162C36.1327 18.5261 35.7649 18.3737 35.4938 18.1025C35.2226 17.8313 35.0703 17.4635 35.0703 17.08V8.44621C35.0703 8.06271 35.2226 7.69491 35.4938 7.4237C35.7649 7.1525 36.1327 7.00009 36.5162 7H60.7588C61.1423 7 61.5102 7.15237 61.7814 7.42359C62.0526 7.6948 62.205 8.06265 62.205 8.44621V17.0801C62.205 17.4637 62.0526 17.8315 61.7814 18.1028C61.5102 18.374 61.1423 18.5264 60.7588 18.5264L60.7591 18.5262Z" fill="#83D9FF"/>
<path d="M41.9197 12.7635C41.9197 12.0462 41.3399 11.4656 40.624 11.4656C39.9081 11.4656 39.3281 12.0462 39.3281 12.7635C39.3281 13.4799 39.9081 14.0612 40.624 14.0612C41.3399 14.0612 41.9199 13.48 41.9199 12.7633L41.9197 12.7635Z" fill="#5186FF"/>
<path d="M57.5381 42.4008V59.4024C57.1356 59.1123 56.808 58.7306 56.5822 58.2889C56.3564 57.8471 56.239 57.358 56.2397 56.8619V63.9775C56.2397 64.8429 55.8905 65.627 55.3243 66.1925C55.206 66.3114 55.0781 66.4203 54.9418 66.518V42.4008C54.942 42.0566 55.0788 41.7266 55.3221 41.4833C55.5654 41.2399 55.8954 41.1031 56.2395 41.1029C56.9561 41.1029 57.5379 41.6842 57.5379 42.4008H57.5381ZM51.2996 42.4008V66.5318C50.9467 66.2805 50.6499 65.9586 50.428 65.5866C50.206 65.2146 50.0638 64.8005 50.0103 64.3706V67.0791C50.0103 67.9438 49.6592 68.7299 49.0931 69.2954C48.9732 69.4166 48.8429 69.5273 48.704 69.6261V42.4008C48.704 41.6842 49.2853 41.1029 50.0019 41.1029C50.7184 41.1029 51.2996 41.6842 51.2996 42.4008ZM45.0486 42.4008V69.6187C44.6464 69.3286 44.319 68.947 44.0934 68.5054C43.8677 68.0638 43.7503 67.5748 43.7509 67.0789V63.9773C43.7514 64.4734 43.634 64.9624 43.4084 65.4042C43.1827 65.8459 42.8552 66.2276 42.453 66.5179V42.4008C42.4532 42.0566 42.59 41.7266 42.8333 41.4832C43.0767 41.2398 43.4067 41.103 43.7509 41.1029C43.9214 41.1028 44.0902 41.1362 44.2477 41.2014C44.4052 41.2666 44.5483 41.3622 44.6688 41.4828C44.7894 41.6033 44.8849 41.7464 44.9501 41.904C45.0153 42.0615 45.0488 42.2303 45.0486 42.4008ZM37.4941 39.8359V46.0193L37.4331 46.029C36.5539 46.0303 35.6863 45.8279 34.8984 45.4378V39.836C34.8985 39.4919 35.0353 39.1618 35.2786 38.9185C35.522 38.6751 35.852 38.5383 36.1962 38.5381C36.3666 38.5381 36.5354 38.5716 36.6929 38.6368C36.8504 38.702 36.9935 38.7976 37.114 38.9181C37.2345 39.0386 37.3301 39.1817 37.3954 39.3392C37.4606 39.4966 37.4941 39.6654 37.4941 39.8359Z" fill="#FECBAA"/>
</svg>
