<svg width="50" height="49" viewBox="0 0 50 49" fill="none" xmlns="http://www.w3.org/2000/svg">
<circle cx="25.1181" cy="24.4345" r="23.9345" stroke="url(#paint0_linear_735_73)"/>
<g clip-path="url(#clip0_735_73)">
<path d="M37.4524 16.7848C36.5351 17.1872 35.5576 17.4539 34.5386 17.5834C35.5869 16.9575 36.3871 15.9739 36.7633 14.7883C35.7858 15.371 34.7066 15.7827 33.5565 16.0124C32.6284 15.0242 31.3056 14.4121 29.8626 14.4121C27.0629 14.4121 24.8089 16.6846 24.8089 19.4704C24.8089 19.8713 24.8428 20.2567 24.9261 20.6236C20.7218 20.4186 17.0017 18.4036 14.5026 15.334C14.0663 16.091 13.8104 16.9575 13.8104 17.8902C13.8104 19.6416 14.7123 21.1941 16.0566 22.0929C15.2442 22.0775 14.4471 21.8416 13.7718 21.47V21.5255C13.7718 23.983 15.5248 26.0242 17.8234 26.4944C17.4118 26.607 16.9632 26.6609 16.4976 26.6609C16.1738 26.6609 15.847 26.6424 15.5402 26.5746C16.1954 28.5773 18.0547 30.0496 20.2655 30.0974C18.545 31.4433 16.3604 32.2542 13.9954 32.2542C13.5807 32.2542 13.1829 32.2357 12.7852 32.1849C15.0253 33.6294 17.6801 34.4542 20.543 34.4542C29.8487 34.4542 34.9363 26.7457 34.9363 20.064C34.9363 19.8404 34.9286 19.6246 34.9178 19.4103C35.9215 18.698 36.7648 17.8085 37.4524 16.7848Z" fill="url(#paint1_linear_735_73)"/>
</g>
<defs>
<linearGradient id="paint0_linear_735_73" x1="0.683594" y1="0" x2="59.2669" y2="29.7219" gradientUnits="userSpaceOnUse">
<stop stop-color="#3AC3EB"/>
<stop offset="1" stop-color="#792F85"/>
</linearGradient>
<linearGradient id="paint1_linear_735_73" x1="12.7852" y1="14.4121" x2="39.5367" y2="31.1164" gradientUnits="userSpaceOnUse">
<stop stop-color="#3AC3EB"/>
<stop offset="1" stop-color="#792F85"/>
</linearGradient>
<clipPath id="clip0_735_73">
<rect width="24.6672" height="24.6672" fill="white" transform="translate(12.7852 12.1006)"/>
</clipPath>
</defs>
</svg>
