<svg width="100" height="100" viewBox="0 0 100 100" fill="none" xmlns="http://www.w3.org/2000/svg">
<path d="M67.3246 17.0118V84.3083C67.3246 86.9961 65.1458 89.1749 62.458 89.1749H14.8666C12.1788 89.1749 10 86.9961 10 84.3083V17.0102C10 14.3224 12.1788 12.1436 14.8666 12.1436H62.4562C65.145 12.1435 67.3246 14.3231 67.3246 17.0118Z" fill="#EAF6FF"/>
<path d="M67.3287 17.0116V84.3083C67.3287 86.9956 65.1486 89.1741 62.4613 89.1741H57.4329C60.1202 89.1741 62.2987 86.9956 62.2987 84.3083V17.0116C62.2987 14.3227 60.1186 12.1442 57.4297 12.1442H62.4597C65.1486 12.1442 67.3287 14.3227 67.3287 17.0116Z" fill="#C8EFFE"/>
<path d="M51.9285 19.7549V23.9396C51.9285 24.1809 51.8326 24.4123 51.662 24.5829C51.4914 24.7536 51.2599 24.8494 51.0186 24.8494H26.0427C25.8014 24.8494 25.5699 24.7536 25.3993 24.5829C25.2287 24.4123 25.1328 24.1809 25.1328 23.9396V19.7549C25.1328 19.5135 25.2287 19.2821 25.3993 19.1115C25.5699 18.9408 25.8014 18.845 26.0427 18.845H51.0185C51.138 18.8449 51.2563 18.8685 51.3667 18.9142C51.4771 18.9599 51.5774 19.0269 51.6619 19.1114C51.7465 19.1959 51.8135 19.2962 51.8592 19.4066C51.905 19.517 51.9285 19.6354 51.9285 19.7549ZM79.4182 46.4754C79.2077 46.4997 78.9945 46.4682 78.8 46.384C78.6055 46.2999 78.4366 46.1661 78.3102 45.996C78.1838 45.8259 78.1044 45.6255 78.08 45.415C78.0555 45.2045 78.0869 44.9913 78.171 44.7968L86.9709 24.4165C87.0012 24.3464 87.0174 24.271 87.0185 24.1947C87.0196 24.1183 87.0057 24.0425 86.9776 23.9716C86.9494 23.9006 86.9075 23.8359 86.8543 23.7811C86.8011 23.7263 86.7377 23.6826 86.6676 23.6523L84.2076 22.5901C83.6005 22.328 83.273 21.6315 83.5167 21.0167C83.5762 20.8663 83.6653 20.7295 83.7787 20.6142C83.8921 20.4989 84.0275 20.4076 84.1769 20.3457C84.3262 20.2837 84.4865 20.2524 84.6482 20.2536C84.8099 20.2548 84.9697 20.2885 85.1182 20.3527L89.2454 22.1348C89.3993 22.2013 89.5438 22.2922 89.659 22.414C90.006 22.7804 90.0846 23.2978 89.8972 23.7315L80.3881 45.7543C80.304 45.9492 80.1701 46.1184 79.9999 46.245C79.8296 46.3715 79.6289 46.451 79.4182 46.4754Z" fill="#7CA1B1"/>
<path d="M51.9302 19.7552V23.9399C51.9302 24.1812 51.8344 24.4126 51.6637 24.5832C51.4931 24.7538 51.2618 24.8496 51.0205 24.8496H45.8906C46.1319 24.8496 46.3633 24.7538 46.5339 24.5832C46.7045 24.4126 46.8003 24.1812 46.8003 23.9399V19.7552C46.8003 19.5139 46.7045 19.2825 46.5339 19.1119C46.3633 18.9413 46.1319 18.8455 45.8906 18.8455H51.0205C51.2618 18.8455 51.4931 18.9413 51.6637 19.1119C51.8344 19.2825 51.9302 19.5139 51.9302 19.7552Z" fill="#678D98"/>
<path d="M73.9002 46.3432L59.9813 78.5786L54.7946 77.8031L49.6094 74.1002L63.5266 41.864L69.1727 42.0076L73.9002 46.3432Z" fill="#5986CB"/>
<path d="M73.9009 46.3432L59.983 78.5778L55.8627 76.8003L55.3906 77.8921L70.4004 43.1326L73.9009 46.3432Z" fill="#4278C3"/>
<path d="M85.1105 14.3085C85.1862 14.9588 85.0891 15.6176 84.8289 16.2184L83.3711 19.5947L79.4806 18.8455L76.5078 16.6319L77.9671 13.2538C78.6068 11.774 80.0876 10.9188 81.6069 11.0061C82.0325 11.0278 82.4638 11.1267 82.8786 11.3053C84.1501 11.8543 84.9608 13.0242 85.1105 14.3085Z" fill="#99E6FC"/>
<path d="M84.8281 16.2177L83.3693 19.5941L80.8203 18.9989L82.4628 15.1969C82.7333 14.5738 82.8186 13.9168 82.7446 13.2873C82.6447 12.4243 82.2454 11.6128 81.6062 11.0057C82.0313 11.0283 82.4628 11.1265 82.8766 11.3052C84.1486 11.8543 84.9601 13.0248 85.1098 14.3081C85.1823 14.9377 85.097 15.593 84.8281 16.2177Z" fill="#62DBFB"/>
<path d="M85.1192 20.3527L73.8968 46.3432L63.5234 41.8641L74.261 17.0001C74.39 16.7016 74.6323 16.4665 74.9345 16.3465C75.2368 16.2265 75.5743 16.2315 75.8729 16.3604L85.1192 20.3527Z" fill="#80B4FB"/>
<path d="M85.1225 20.3526L73.8999 46.3432L69.7812 44.564L81.0022 18.5734L85.1225 20.3526Z" fill="#61A2F9"/>
<path d="M55.8615 76.7987V76.8003L49.6094 74.1001L55.8615 76.7987Z" fill="#5986CB"/>
<path d="M59.9821 78.5786L52.1859 85.9047C51.2158 86.8168 49.625 86.1301 49.624 84.7994L49.6218 82.6648L49.6094 74.0991L55.8636 76.8004L59.9821 78.5786Z" fill="#99E6FC"/>
<path d="M59.9767 78.5779L52.1805 85.9039C51.2112 86.8169 49.6204 86.1294 49.6188 84.7994L49.6172 82.6644L55.858 76.8003L59.9767 78.5779Z" fill="#62DBFB"/>
<path d="M58.241 33.4641H18.8404C18.1735 33.4641 17.6328 32.9236 17.6328 32.2565C17.6328 31.5895 18.1735 31.049 18.8404 31.049H58.241C58.908 31.049 59.4485 31.5895 59.4485 32.2565C59.4485 32.9236 58.908 33.4641 58.241 33.4641ZM58.241 41.0623H18.8404C18.1735 41.0623 17.6328 40.5218 17.6328 39.8547C17.6328 39.1876 18.1735 38.6471 18.8404 38.6471H58.241C58.908 38.6471 59.4485 39.1876 59.4485 39.8547C59.4485 40.5218 58.908 41.0623 58.241 41.0623ZM48.4221 48.6603H18.8404C18.1735 48.6603 17.6328 48.1198 17.6328 47.4527C17.6328 46.7857 18.1735 46.2451 18.8404 46.2451H48.4221C49.089 46.2451 49.6297 46.7857 49.6297 47.4527C49.6297 48.1198 49.089 48.6603 48.4221 48.6603ZM30.6755 56.2583H18.8404C18.1735 56.2583 17.6328 55.7178 17.6328 55.0508C17.6328 54.3837 18.1735 53.8432 18.8404 53.8432H30.6755C31.3424 53.8432 31.8831 54.3837 31.8831 55.0508C31.8831 55.7178 31.3425 56.2583 30.6755 56.2583Z" fill="#7CA1B1"/>
<path d="M31.3697 79.7955C31.2264 79.7955 31.0805 79.7913 30.9317 79.7826C29.0202 79.6712 27.8984 78.6763 26.9087 77.7986C25.9801 76.9752 25.2467 76.3248 23.8635 76.2519C21.2024 76.1139 19.885 78.4331 19.8301 78.5318C19.5085 79.1126 18.7766 79.3284 18.1934 79.0104C17.6105 78.6922 17.3919 77.967 17.7062 77.3822C17.7888 77.2283 19.7752 73.6198 23.9905 73.8403C26.2171 73.9576 27.4891 75.0854 28.5111 75.9917C29.3735 76.7564 29.9966 77.309 31.0723 77.3716C33.9324 77.541 35.2952 75.14 35.3085 75.1156C35.3852 74.9766 35.4885 74.854 35.6126 74.7549C35.7367 74.6558 35.8791 74.5822 36.0317 74.5382C36.1843 74.4943 36.3441 74.4808 36.5019 74.4987C36.6597 74.5165 36.8124 74.5653 36.9513 74.6423C37.0902 74.7192 37.2126 74.8228 37.3114 74.9471C37.4102 75.0715 37.4835 75.214 37.5272 75.3667C37.5708 75.5194 37.5839 75.6792 37.5657 75.8369C37.5476 75.9947 37.4984 76.1473 37.4212 76.286C37.3394 76.434 35.4287 79.7953 31.3697 79.7955Z" fill="#80B4FB"/>
</svg>
