<svg width="148" height="148" viewBox="0 0 148 148" fill="none" xmlns="http://www.w3.org/2000/svg">
<g filter="url(#filter0_d_1273_360)">
<circle cx="74" cy="72" r="60" fill="white"/>
</g>
<g clip-path="url(#clip0_1273_360)">
<path d="M109 46.5391V86.0605L104.84 90.2207H42.1602L38 86.0605V46.5391C38 45.3741 38.9151 44.459 40.0801 44.459H106.92C108.085 44.459 109 45.3741 109 46.5391Z" fill="#2C3B73"/>
<path d="M109 46.5391V86.0605L104.84 90.2207H73.5V44.459H106.92C108.085 44.459 109 45.3741 109 46.5391Z" fill="#293939"/>
<path d="M42.1602 48.6191H104.84V90.2207H42.1602V48.6191Z" fill="#979FEF"/>
<path d="M73.5 48.6191H104.84V90.2207H73.5V48.6191Z" fill="#737EE6"/>
<path d="M96.3789 38.0801V88.1406C96.3789 89.3053 95.4638 90.2207 94.2988 90.2207H52.6973C51.5323 90.2207 50.6172 89.3053 50.6172 88.1406V38.0801C50.6172 36.9151 51.5323 36 52.6973 36H94.2988C95.4638 36 96.3789 36.9151 96.3789 38.0801Z" fill="#EDF5FF"/>
<path d="M96.3809 38.0801V88.1406C96.3809 89.3053 95.4658 90.2207 94.3008 90.2207H73.5V36H94.3008C95.4658 36 96.3809 36.9151 96.3809 38.0801Z" fill="#D7E9FF"/>
<path d="M63.1016 92.3008H83.9023V104.92H63.1016V92.3008Z" fill="#EDF5FF"/>
<path d="M73.5 92.3008H83.9004V104.92H73.5V92.3008Z" fill="#D7E9FF"/>
<path d="M92.2227 104.92C92.2227 106.085 91.3076 107 90.1426 107H56.8613C55.6963 107 54.7812 106.085 54.7812 104.92C54.7812 103.755 55.6963 102.84 56.8613 102.84H90.1426C91.3076 102.84 92.2227 103.755 92.2227 104.92Z" fill="#D7E9FF"/>
<path d="M65.1815 54.8594C64.9083 54.8597 64.6378 54.8061 64.3854 54.7015C64.133 54.5969 63.9038 54.4434 63.7109 54.2499L59.5508 50.0898C58.7383 49.2773 58.7383 47.9609 59.5508 47.1484C60.3632 46.3359 61.6797 46.3359 62.4921 47.1484L65.1815 49.838L69.9512 45.0683C70.7636 44.2559 72.08 44.2559 72.8925 45.0683C73.705 45.8808 73.705 47.1972 72.8925 48.0097L66.6523 54.2499C66.4594 54.4434 66.2301 54.5969 65.9777 54.7015C65.7253 54.8061 65.4548 54.8597 65.1815 54.8594ZM65.1815 67.3399C64.9083 67.3402 64.6378 67.2865 64.3854 67.1819C64.133 67.0774 63.9038 66.9239 63.7109 66.7304L59.5508 62.5703C58.7383 61.7578 58.7383 60.4414 59.5508 59.6289C60.3632 58.8164 61.6797 58.8164 62.4921 59.6289L65.1815 62.3184L69.9512 57.5488C70.7636 56.7363 72.08 56.7363 72.8925 57.5488C73.705 58.3613 73.705 59.6777 72.8925 60.4902L66.6523 66.7304C66.4594 66.9239 66.2301 67.0773 65.9777 67.1819C65.7253 67.2865 65.4548 67.3402 65.1815 67.3399ZM65.1815 79.8203C64.9083 79.8207 64.6378 79.767 64.3854 79.6624C64.133 79.5578 63.9038 79.4044 63.7109 79.2109L59.5508 75.0507C58.7383 74.2383 58.7383 72.9218 59.5508 72.1094C60.3632 71.2969 61.6797 71.2969 62.4921 72.1094L65.1815 74.7989L69.9512 70.0293C70.7636 69.2168 72.08 69.2168 72.8925 70.0293C73.705 70.8418 73.705 72.1582 72.8925 72.9707L66.6523 79.2109C66.4594 79.4044 66.2301 79.5578 65.9777 79.6624C65.7253 79.767 65.4548 79.8207 65.1815 79.8203Z" fill="#979FEF"/>
<path d="M85.9805 52.7793H77.6602C76.5104 52.7793 75.5801 51.8489 75.5801 50.6992C75.5801 49.5495 76.5104 48.6191 77.6602 48.6191H85.9805C87.1302 48.6191 88.0605 49.5495 88.0605 50.6992C88.0605 51.8489 87.1302 52.7793 85.9805 52.7793ZM85.9805 65.2598H77.6602C76.5104 65.2598 75.5801 64.3294 75.5801 63.1797C75.5801 62.03 76.5104 61.0996 77.6602 61.0996H85.9805C87.1302 61.0996 88.0605 62.03 88.0605 63.1797C88.0605 64.3294 87.1302 65.2598 85.9805 65.2598ZM85.9805 77.7402H77.6602C76.5104 77.7402 75.5801 76.8099 75.5801 75.6602C75.5801 74.5104 76.5104 73.5801 77.6602 73.5801H85.9805C87.1302 73.5801 88.0605 74.5104 88.0605 75.6602C88.0605 76.8099 87.1302 77.7402 85.9805 77.7402ZM92.2207 104.92C92.2207 106.085 91.3056 107 90.1406 107H73.5V102.84H90.1406C91.3056 102.84 92.2207 103.755 92.2207 104.92Z" fill="#B0D5F7"/>
<path d="M109 86.0605V92.3008C109 93.4655 108.085 94.3809 106.92 94.3809H40.0801C38.9151 94.3809 38 93.4655 38 92.3008V86.0605H109Z" fill="#D7E9FF"/>
<path d="M109 86.0605V92.3008C109 93.4655 108.085 94.3809 106.92 94.3809H73.5V86.0605H109Z" fill="#B0D5F7"/>
</g>
<defs>
<filter id="filter0_d_1273_360" x="0.666667" y="0.571429" width="146.667" height="146.667" filterUnits="userSpaceOnUse" color-interpolation-filters="sRGB">
<feFlood flood-opacity="0" result="BackgroundImageFix"/>
<feColorMatrix in="SourceAlpha" type="matrix" values="0 0 0 0 0 0 0 0 0 0 0 0 0 0 0 0 0 0 127 0" result="hardAlpha"/>
<feOffset dy="1.90476"/>
<feGaussianBlur stdDeviation="6.66667"/>
<feComposite in2="hardAlpha" operator="out"/>
<feColorMatrix type="matrix" values="0 0 0 0 0.695898 0 0 0 0 0.695898 0 0 0 0 0.695898 0 0 0 0.25 0"/>
<feBlend mode="normal" in2="BackgroundImageFix" result="effect1_dropShadow_1273_360"/>
<feBlend mode="normal" in="SourceGraphic" in2="effect1_dropShadow_1273_360" result="shape"/>
</filter>
<clipPath id="clip0_1273_360">
<rect width="71" height="71" fill="white" transform="translate(38 36)"/>
</clipPath>
</defs>
</svg>
