<svg width="148" height="148" viewBox="0 0 148 148" fill="none" xmlns="http://www.w3.org/2000/svg">
<g filter="url(#filter0_d_2030_3541)">
<circle cx="74" cy="72" r="60" fill="white"/>
</g>
<g clip-path="url(#clip0_2030_3541)">
<path d="M89.6003 74.8075C85.8897 81.4515 84.0749 88.9172 84.2906 96.5237H85.6678C87.6953 96.5237 89.3402 98.1686 89.3402 100.196V104.328C89.3402 106.355 87.6953 108 85.6678 108H63.3273C61.2998 108 59.6548 106.355 59.6548 104.328V100.196C59.6548 98.1686 61.2998 96.5237 63.3273 96.5237H64.7044C64.9217 88.9172 63.1054 81.4515 59.3947 74.8075C58.9158 73.9491 58.9999 72.8871 59.6059 72.1113L71.0852 57.4308C71.8014 56.5143 73.2734 57.0223 73.2734 58.1867C73.2734 68.9913 73.2703 72.8137 73.2734 74.1832C73.2742 74.4047 73.2144 74.6223 73.1006 74.8124C72.9868 75.0025 72.8233 75.158 72.6276 75.2619C71.3729 75.9306 70.5191 77.2527 70.5191 78.7737C70.5191 81.0552 72.4379 82.8868 74.75 82.7445C76.6903 82.6251 78.2878 81.0751 78.4591 79.1379C78.6076 77.473 77.7277 75.9949 76.3827 75.2696C75.9803 75.0523 75.7201 74.6407 75.7217 74.1816C75.7247 72.8121 75.7217 68.9898 75.7217 58.1867C75.7217 57.0223 77.1937 56.5143 77.9098 57.4308L89.3892 72.1113C89.9951 72.8871 90.0793 73.9491 89.6003 74.8075Z" fill="#42434D"/>
<path d="M89.3416 100.196V104.328C89.3416 106.355 87.6967 108 85.6692 108H63.3287C61.3012 108 59.6562 106.355 59.6562 104.328V100.196C59.6562 98.1686 61.3012 96.5237 63.3287 96.5237H85.6692C87.6967 96.5237 89.3416 98.1686 89.3416 100.196Z" fill="#D6F4FC"/>
<path d="M69.4448 70.0352C66.753 73.4781 66.1114 78.1013 67.7574 82.1499C69.6151 86.7191 70.6484 91.5739 70.8175 96.5237H64.7058C64.9231 88.9172 63.1068 81.4515 59.3961 74.8075C58.9172 73.9491 59.0013 72.8871 59.6073 72.1113L71.0866 57.4309C71.8028 56.5143 73.2748 57.0223 73.2748 58.1868C73.2748 59.6761 73.2748 61.0327 73.2745 62.2687C73.2741 64.1279 72.6517 65.9336 71.5064 67.3983L69.4448 70.0352ZM68.9903 41.2845H48.0269C47.7023 41.2845 47.3909 41.4135 47.1613 41.643C46.9318 41.8726 46.8028 42.184 46.8028 42.5086C46.8028 42.8333 46.9318 43.1446 47.1613 43.3742C47.3909 43.6038 47.7023 43.7328 48.0269 43.7328H62.0966C49.8523 48.7832 41.9062 60.6946 41.9062 73.8772C41.9062 74.2018 42.0352 74.5132 42.2648 74.7428C42.4944 74.9723 42.8057 75.1013 43.1304 75.1013C43.455 75.1013 43.7664 74.9723 43.996 74.7428C44.2256 74.5132 44.3545 74.2018 44.3545 73.8772C44.3545 59.2302 54.8051 46.7474 69.2039 44.1959C69.8714 44.0777 70.3254 43.4347 70.19 42.7524C70.3436 41.993 69.7635 41.2845 68.9903 41.2845ZM86.9013 43.7328H100.971C101.296 43.7328 101.607 43.6038 101.837 43.3742C102.066 43.1446 102.195 42.8333 102.195 42.5086C102.195 42.184 102.066 41.8726 101.837 41.643C101.607 41.4135 101.296 41.2845 100.971 41.2845H80.0075C79.2345 41.2845 78.6543 41.9926 78.8079 42.7524C78.6726 43.4344 79.126 44.0777 79.7939 44.1959C94.1927 46.7474 104.643 59.2302 104.643 73.8772C104.643 74.2018 104.772 74.5132 105.002 74.7428C105.231 74.9723 105.543 75.1013 105.867 75.1013C106.192 75.1013 106.503 74.9723 106.733 74.7428C106.963 74.5132 107.092 74.2018 107.092 73.8772C107.092 60.6863 99.1379 48.78 86.9013 43.7328Z" fill="#4D4E59"/>
<path d="M103.417 44.9569C104.769 44.9569 105.865 43.8608 105.865 42.5086C105.865 41.1565 104.769 40.0604 103.417 40.0604C102.065 40.0604 100.969 41.1565 100.969 42.5086C100.969 43.8608 102.065 44.9569 103.417 44.9569Z" fill="#FE4F60"/>
<path d="M45.5811 44.9569C46.9332 44.9569 48.0294 43.8608 48.0294 42.5086C48.0294 41.1565 46.9332 40.0604 45.5811 40.0604C44.2289 40.0604 43.1328 41.1565 43.1328 42.5086C43.1328 43.8608 44.2289 44.9569 45.5811 44.9569Z" fill="#FE4F60"/>
<path d="M110 76.3254V79.6918C110 81.0445 108.904 82.1401 107.552 82.1401H104.185C102.833 82.1401 101.737 81.0445 101.737 79.6918V76.3254C101.737 74.9728 102.833 73.8772 104.185 73.8772H107.552C108.904 73.8772 110 74.9728 110 76.3254ZM44.8147 73.8772C46.1673 73.8772 47.2629 74.9728 47.2629 76.3254V79.6918C47.2629 81.0445 46.1673 82.1401 44.8147 82.1401H41.4483C40.0956 82.1401 39 81.0445 39 79.6918V76.3254C39 74.9728 40.0956 73.8772 41.4483 73.8772H44.8147ZM80.0086 45.569C80.0086 46.9216 78.913 48.0172 77.5603 48.0172H71.4397C70.087 48.0172 68.9914 46.9216 68.9914 45.569V39.4483C68.9914 38.0956 70.087 37 71.4397 37H77.5603C78.913 37 80.0086 38.0956 80.0086 39.4483V45.569Z" fill="#FE4F60"/>
<path d="M86.1282 101.114H67.9192C65.8909 101.114 64.2468 102.758 64.2468 104.787C64.2468 107.639 59.6562 108.136 59.6562 104.328V100.196C59.6562 98.1679 61.3004 96.5237 63.3287 96.5237H85.6692C89.4779 96.5237 88.98 101.114 86.1282 101.114Z" fill="#E8F8FC"/>
</g>
<defs>
<filter id="filter0_d_2030_3541" x="0.666667" y="0.571429" width="146.667" height="146.667" filterUnits="userSpaceOnUse" color-interpolation-filters="sRGB">
<feFlood flood-opacity="0" result="BackgroundImageFix"/>
<feColorMatrix in="SourceAlpha" type="matrix" values="0 0 0 0 0 0 0 0 0 0 0 0 0 0 0 0 0 0 127 0" result="hardAlpha"/>
<feOffset dy="1.90476"/>
<feGaussianBlur stdDeviation="6.66667"/>
<feComposite in2="hardAlpha" operator="out"/>
<feColorMatrix type="matrix" values="0 0 0 0 0.695898 0 0 0 0 0.695898 0 0 0 0 0.695898 0 0 0 0.25 0"/>
<feBlend mode="normal" in2="BackgroundImageFix" result="effect1_dropShadow_2030_3541"/>
<feBlend mode="normal" in="SourceGraphic" in2="effect1_dropShadow_2030_3541" result="shape"/>
</filter>
<clipPath id="clip0_2030_3541">
<rect width="71" height="71" fill="white" transform="translate(39 37)"/>
</clipPath>
</defs>
</svg>
