<svg width="148" height="148" viewBox="0 0 148 148" fill="none" xmlns="http://www.w3.org/2000/svg">
<g filter="url(#filter0_d_2030_2249)">
<circle cx="74" cy="72" r="60" fill="white"/>
</g>
<path d="M74.498 106.475C93.2617 106.475 108.473 91.2637 108.473 72.5C108.473 53.7363 93.2617 38.5254 74.498 38.5254C55.7344 38.5254 40.5234 53.7363 40.5234 72.5C40.5234 91.2637 55.7344 106.475 74.498 106.475Z" fill="#FFAF10"/>
<path d="M63.2148 89.6718H78.1914V96.0742H63.2148V89.6718Z" fill="#445EA0"/>
<path d="M63.2148 89.6718H65.9664V96.0742H63.2148V89.6718Z" fill="#2E4C89"/>
<path d="M85.1977 99.4023C85.1977 99.7837 84.8857 100.096 84.5043 100.096H56.9082C56.5269 100.096 56.2148 99.7837 56.2148 99.4023V96.6289C56.2148 96.2476 56.5269 95.9355 56.9082 95.9355H84.5043C84.8857 95.9355 85.1977 96.2476 85.1977 96.6289V99.4023Z" fill="#293D7C"/>
<path d="M58.9664 99.4023V96.6289C58.9664 96.2476 59.2784 95.9355 59.6597 95.9355H56.9082C56.5269 95.9355 56.2148 96.2476 56.2148 96.6289V99.4023C56.2148 99.7837 56.5269 100.096 56.9082 100.096H59.6597C59.2784 100.096 58.9664 99.7837 58.9664 99.4023Z" fill="#1A2B63"/>
<path d="M39 88.4242C39 89.1869 39.624 89.811 40.3867 89.811H82.0125V80.5267H39V88.4242Z" fill="#293D7C"/>
<path d="M41.7515 88.4242V80.5267H39V88.4242C39 89.1869 39.624 89.811 40.3867 89.811H43.1382C42.3756 89.811 41.7515 89.1869 41.7515 88.4242Z" fill="#1A2B63"/>
<path d="M82.0125 76.797C82.0125 76.4911 82.2613 76.2424 82.5672 76.2424H102.41V46.2168C102.41 45.3784 101.724 44.6926 100.886 44.6926H40.5243C39.6859 44.6926 39 45.3784 39 46.2168V80.6654H82.0125V76.797Z" fill="#445EA0"/>
<path d="M82.0109 76.797C82.0109 76.4911 82.2596 76.2423 82.5655 76.2423H99.3597V48.4344C99.3597 48.0531 99.0477 47.7411 98.6663 47.7411H42.7402C42.3589 47.7411 42.0469 48.0531 42.0469 48.4344V76.9233C42.0469 77.3047 42.3589 77.6167 42.7402 77.6167H82.0107L82.0109 76.797Z" fill="#EEF6FF"/>
<path d="M70.7064 87.216C71.7718 87.216 72.6355 86.3523 72.6355 85.2869C72.6355 84.2215 71.7718 83.3578 70.7064 83.3578C69.641 83.3578 68.7773 84.2215 68.7773 85.2869C68.7773 86.3523 69.641 87.216 70.7064 87.216Z" fill="#445EA0"/>
<path d="M96.7392 65.6185C96.7392 65.9999 96.4271 66.3119 96.0458 66.3119H74.0723C73.6909 66.3119 73.3789 65.9999 73.3789 65.6185V55.5346C73.3789 55.1533 73.6909 54.8412 74.0723 54.8412H96.0458C96.4271 54.8412 96.7392 55.1533 96.7392 55.5346V65.6185Z" fill="#FFAF10"/>
<path d="M76.1304 65.6185V55.5346C76.1304 55.1533 76.4424 54.8412 76.8238 54.8412H74.0723C73.6909 54.8412 73.3789 55.1533 73.3789 55.5346V65.6185C73.3789 65.9999 73.6909 66.3119 74.0723 66.3119H76.8238C76.4424 66.3119 76.1304 65.9999 76.1304 65.6185Z" fill="#FF9518"/>
<path d="M80.4989 70.298H74.5205C73.9461 70.298 73.4805 69.8325 73.4805 69.258C73.4805 68.6835 73.9461 68.218 74.5205 68.218H80.4989C81.0733 68.218 81.539 68.6835 81.539 69.258C81.539 69.8325 81.0733 70.298 80.4989 70.298ZM80.4989 73.4591H74.5205C73.9461 73.4591 73.4805 72.9935 73.4805 72.419C73.4805 71.8445 73.9461 71.379 74.5205 71.379H80.4989C81.0733 71.379 81.539 71.8445 81.539 72.419C81.539 72.9935 81.0733 73.4591 80.4989 73.4591ZM87.7118 70.298H83.266C82.6916 70.298 82.2259 69.8325 82.2259 69.258C82.2259 68.6835 82.6916 68.218 83.266 68.218H87.7118C88.2862 68.218 88.7518 68.6835 88.7518 69.258C88.7518 69.8325 88.2862 70.298 87.7118 70.298ZM87.7118 73.4591H83.266C82.6916 73.4591 82.2259 72.9935 82.2259 72.419C82.2259 71.8445 82.6916 71.379 83.266 71.379H87.7118C88.2862 71.379 88.7518 71.8445 88.7518 72.419C88.7518 72.9935 88.2862 73.4591 87.7118 73.4591ZM96.1003 70.298H90.4375C89.8632 70.298 89.3975 69.8325 89.3975 69.258C89.3975 68.6835 89.8632 68.218 90.4375 68.218H96.1003C96.6747 68.218 97.1404 68.6835 97.1404 69.258C97.1404 69.8325 96.6747 70.298 96.1003 70.298ZM96.1003 73.4591H90.4375C89.8632 73.4591 89.3975 72.9935 89.3975 72.419C89.3975 71.8445 89.8632 71.379 90.4375 71.379H96.1003C96.6747 71.379 97.1404 71.8445 97.1404 72.419C97.1404 72.9935 96.6747 73.4591 96.1003 73.4591Z" fill="#C3DDF4"/>
<path d="M88.8338 52.4042C88.8338 52.7856 88.5218 53.0976 88.1405 53.0976H86.6152C86.2339 53.0976 85.9219 52.7856 85.9219 52.4042V50.879C85.9219 50.4976 86.2339 50.1856 86.6152 50.1856H88.1405C88.5218 50.1856 88.8338 50.4976 88.8338 50.879V52.4042ZM92.7164 52.4042C92.7164 52.7856 92.4044 53.0976 92.023 53.0976H90.4978C90.1164 53.0976 89.8044 52.7856 89.8044 52.4042V50.879C89.8044 50.4976 90.1164 50.1856 90.4978 50.1856H92.023C92.4044 50.1856 92.7164 50.4976 92.7164 50.879V52.4042ZM96.5989 52.4042C96.5989 52.7856 96.2869 53.0976 95.9056 53.0976H94.3803C93.999 53.0976 93.6869 52.7856 93.6869 52.4042V50.879C93.6869 50.4976 93.999 50.1856 94.3803 50.1856H95.9056C96.2869 50.1856 96.5989 50.4976 96.5989 50.879V52.4042Z" fill="#EF8318"/>
<path d="M65.4723 72.6393H64.2243C63.6499 72.6393 63.1842 72.1738 63.1842 71.5993C63.1842 71.0248 63.6499 70.5593 64.2243 70.5593H65.4723C65.7481 70.5593 66.0127 70.6688 66.2077 70.8639C66.4028 71.0589 66.5123 71.3235 66.5123 71.5993C66.5123 71.8751 66.4028 72.1397 66.2077 72.3347C66.0127 72.5298 65.7481 72.6393 65.4723 72.6393ZM60.7575 72.6393H59.5094C58.935 72.6393 58.4694 72.1738 58.4694 71.5993C58.4694 71.0248 58.935 70.5593 59.5094 70.5593H60.7575C61.0333 70.5593 61.2978 70.6688 61.4929 70.8639C61.6879 71.0589 61.7975 71.3235 61.7975 71.5993C61.7975 71.8751 61.6879 72.1397 61.4929 72.3347C61.2978 72.5298 61.0333 72.6393 60.7575 72.6393ZM56.0425 72.6393H54.7944C54.2201 72.6393 53.7544 72.1738 53.7544 71.5993C53.7544 71.0248 54.2201 70.5593 54.7944 70.5593H56.0425C56.3183 70.5593 56.5829 70.6688 56.7779 70.8639C56.9729 71.0589 57.0825 71.3235 57.0825 71.5993C57.0826 71.7359 57.0557 71.8712 57.0034 71.9974C56.9512 72.1236 56.8746 72.2382 56.778 72.3348C56.6814 72.4314 56.5667 72.508 56.4405 72.5602C56.3143 72.6125 56.1791 72.6394 56.0425 72.6393ZM51.3276 72.6393H50.0796C49.5052 72.6393 49.0396 72.1738 49.0396 71.5993C49.0396 71.0248 49.5052 70.5593 50.0796 70.5593H51.3276C51.6035 70.5593 51.868 70.6688 52.0631 70.8639C52.2581 71.0589 52.3677 71.3235 52.3677 71.5993C52.3677 72.1738 51.9022 72.6393 51.3276 72.6393ZM69.5285 68.3545C69.2526 68.3545 68.9881 68.2449 68.793 68.0499C68.598 67.8549 68.4884 67.5903 68.4884 67.3145V66.0664C68.4884 65.7906 68.598 65.5261 68.793 65.331C68.9881 65.136 69.2526 65.0264 69.5285 65.0264C69.8043 65.0264 70.0688 65.136 70.2639 65.331C70.4589 65.5261 70.5685 65.7906 70.5685 66.0664V67.3145C70.5685 67.5903 70.4589 67.8549 70.2639 68.0499C70.0688 68.2449 69.8043 68.3545 69.5285 68.3545ZM69.5285 63.6397C69.2526 63.6397 68.9881 63.5301 68.793 63.3351C68.598 63.14 68.4884 62.8755 68.4884 62.5996V61.3516C68.4884 61.0758 68.598 60.8112 68.793 60.6162C68.9881 60.4211 69.2526 60.3116 69.5285 60.3116C69.8043 60.3116 70.0688 60.4211 70.2639 60.6162C70.4589 60.8112 70.5685 61.0758 70.5685 61.3516V62.5996C70.5685 62.8755 70.4589 63.14 70.2639 63.3351C70.0688 63.5301 69.8043 63.6397 69.5285 63.6397ZM69.5285 58.9248C69.2526 58.9248 68.9881 58.8153 68.793 58.6202C68.598 58.4252 68.4884 58.1606 68.4884 57.8848V56.6367C68.4884 56.3609 68.598 56.0964 68.793 55.9013C68.9881 55.7063 69.2526 55.5967 69.5285 55.5967C69.8043 55.5967 70.0688 55.7063 70.2639 55.9013C70.4589 56.0964 70.5685 56.3609 70.5685 56.6367V57.8848C70.5685 58.1606 70.4589 58.4252 70.2639 58.6202C70.0688 58.8153 69.8043 58.9248 69.5285 58.9248ZM45.9541 68.3545C45.6783 68.3545 45.4137 68.2449 45.2187 68.0499C45.0236 67.8549 44.9141 67.5903 44.9141 67.3145V66.0664C44.9141 65.7906 45.0236 65.5261 45.2187 65.331C45.4137 65.136 45.6783 65.0264 45.9541 65.0264C46.2299 65.0264 46.4945 65.136 46.6895 65.331C46.8846 65.5261 46.9941 65.7906 46.9941 66.0664V67.3145C46.9941 67.889 46.5286 68.3545 45.9541 68.3545ZM45.9541 63.6397C45.6783 63.6397 45.4137 63.5301 45.2187 63.3351C45.0236 63.14 44.9141 62.8755 44.9141 62.5996V61.3516C44.9141 61.0758 45.0236 60.8112 45.2187 60.6162C45.4137 60.4211 45.6783 60.3116 45.9541 60.3116C46.2299 60.3116 46.4945 60.4211 46.6895 60.6162C46.8846 60.8112 46.9941 61.0758 46.9941 61.3516V62.5996C46.9941 63.1742 46.5286 63.6397 45.9541 63.6397ZM45.9541 58.9248C45.6783 58.9248 45.4137 58.8153 45.2187 58.6202C45.0236 58.4252 44.9141 58.1606 44.9141 57.8848V56.6367C44.9141 56.3609 45.0236 56.0964 45.2187 55.9013C45.4137 55.7063 45.6783 55.5967 45.9541 55.5967C46.2299 55.5967 46.4945 55.7063 46.6895 55.9013C46.8846 56.0964 46.9941 56.3609 46.9941 56.6367V57.8848C46.9941 58.4593 46.5286 58.9248 45.9541 58.9248ZM65.4723 53.78H64.2243C63.6499 53.78 63.1842 53.3144 63.1842 52.7399C63.1842 52.1654 63.6499 51.6999 64.2243 51.6999H65.4723C66.0467 51.6999 66.5123 52.1654 66.5123 52.7399C66.5123 53.3144 66.0467 53.78 65.4723 53.78ZM60.7575 53.78H59.5094C58.935 53.78 58.4694 53.3144 58.4694 52.7399C58.4694 52.1654 58.935 51.6999 59.5094 51.6999H60.7575C61.3318 51.6999 61.7975 52.1654 61.7975 52.7399C61.7975 53.3144 61.3318 53.78 60.7575 53.78ZM56.0425 53.78H54.7944C54.2201 53.78 53.7544 53.3144 53.7544 52.7399C53.7544 52.1654 54.2201 51.6999 54.7944 51.6999H56.0425C56.6169 51.6999 57.0825 52.1654 57.0825 52.7399C57.0825 53.3144 56.617 53.78 56.0425 53.78ZM51.3276 53.78H50.0796C49.5052 53.78 49.0396 53.3144 49.0396 52.7399C49.0396 52.1654 49.5052 51.6999 50.0796 51.6999H51.3276C51.902 51.6999 52.3677 52.1654 52.3677 52.7399C52.3677 53.3144 51.9022 53.78 51.3276 53.78Z" fill="#69CDFF"/>
<path d="M66.7539 68.1325C66.7539 68.5139 66.4419 68.8259 66.0605 68.8259H49.4199C49.0386 68.8259 48.7266 68.5139 48.7266 68.1325V56.2067C48.7266 55.8254 49.0386 55.5134 49.4199 55.5134H66.0605C66.4419 55.5134 66.7539 55.8254 66.7539 56.2067V68.1325Z" fill="#5DC1D8"/>
<path d="M51.4782 68.1325V56.2067C51.4782 55.8254 51.7902 55.5134 52.1716 55.5134H49.4199C49.0386 55.5134 48.7266 55.8254 48.7266 56.2067V68.1325C48.7266 68.5139 49.0386 68.8259 49.4199 68.8259H52.1716C51.7902 68.8259 51.4782 68.5139 51.4782 68.1325Z" fill="#28A5A5"/>
<path d="M71.4707 53.7805C71.4707 54.1619 71.1587 54.4739 70.7773 54.4739H67.8652C67.4839 54.4739 67.1719 54.1619 67.1719 53.7805V50.8684C67.1719 50.4871 67.4839 50.175 67.8652 50.175H70.7773C71.1587 50.175 71.4707 50.4871 71.4707 50.8684V53.7805ZM48.4512 54.0579C48.4512 54.4392 48.1392 54.7512 47.7578 54.7512H44.8457C44.4644 54.7512 44.1523 54.4392 44.1523 54.0579V51.1458C44.1523 50.7644 44.4644 50.4524 44.8457 50.4524H47.7578C48.1392 50.4524 48.4512 50.7644 48.4512 51.1458V54.0579ZM71.4707 73.1771C71.4707 73.5585 71.1587 73.8705 70.7773 73.8705H67.8652C67.4839 73.8705 67.1719 73.5585 67.1719 73.1771V70.265C67.1719 69.8836 67.4839 69.5716 67.8652 69.5716H70.7773C71.1587 69.5716 71.4707 69.8836 71.4707 70.265V73.1771ZM48.4512 73.1771C48.4512 73.5585 48.1392 73.8705 47.7578 73.8705H44.8457C44.4644 73.8705 44.1523 73.5585 44.1523 73.1771V70.265C44.1523 69.8836 44.4644 69.5716 44.8457 69.5716H47.7578C48.1392 69.5716 48.4512 69.8836 48.4512 70.265V73.1771Z" fill="#52BBEF"/>
<path d="M68.7003 53.7805V50.8684C68.7003 50.4871 69.0123 50.175 69.3937 50.175H67.8652C67.4839 50.175 67.1719 50.4871 67.1719 50.8684V53.7805C67.1719 54.1619 67.4839 54.4739 67.8652 54.4739H69.3937C69.0123 54.4739 68.7003 54.1619 68.7003 53.7805ZM45.6808 54.0579V51.1458C45.6808 50.7644 45.9928 50.4524 46.3741 50.4524H44.8457C44.4644 50.4524 44.1523 50.7644 44.1523 51.1458V54.0579C44.1523 54.4392 44.4644 54.7512 44.8457 54.7512H46.3741C45.9928 54.7512 45.6808 54.4392 45.6808 54.0579ZM68.7003 73.1771V70.265C68.7003 69.8836 69.0123 69.5716 69.3937 69.5716H67.8652C67.4839 69.5716 67.1719 69.8836 67.1719 70.265V73.1771C67.1719 73.5585 67.4839 73.8705 67.8652 73.8705H69.3937C69.0123 73.8705 68.7003 73.5585 68.7003 73.1771ZM45.6808 73.1771V70.265C45.6808 69.8836 45.9928 69.5716 46.3741 69.5716H44.8457C44.4644 69.5716 44.1523 69.8836 44.1523 70.265V73.1771C44.1523 73.5585 44.4644 73.8705 44.8457 73.8705H46.3741C45.9928 73.8705 45.6808 73.5585 45.6808 73.1771Z" fill="#1E99D6"/>
<path d="M99.387 87.8611C99.3655 87.8026 99.3672 87.7693 99.3703 87.7585C99.3704 87.7585 99.3789 87.7577 99.3868 87.7577C99.4026 87.7577 99.4302 87.7609 99.4719 87.7762L105.311 89.9208V76.7972C105.311 76.4158 104.999 76.1038 104.617 76.1038H82.5684C82.187 76.1038 81.875 76.4158 81.875 76.7972V92.7167C81.875 93.0981 82.187 93.4101 82.5684 93.4101H101.425L99.387 87.8611Z" fill="#5DC1D8"/>
<path d="M84.6265 92.7165V76.797C84.6265 76.4156 84.9385 76.1036 85.3199 76.1036H82.5684C82.187 76.1036 81.875 76.4156 81.875 76.797V92.7165C81.875 93.0979 82.187 93.4099 82.5684 93.4099H85.3199C84.9385 93.4099 84.6265 93.0979 84.6265 92.7165Z" fill="#28A5A5"/>
<path d="M99.5204 87.646C99.292 87.5621 99.1736 87.6804 99.2574 87.9089L102.914 97.8631C102.997 98.0916 103.207 98.1377 103.379 97.9656L105.32 96.0246C105.403 95.9419 105.516 95.8955 105.633 95.8955C105.75 95.8955 105.863 95.9419 105.946 96.0246L108.183 98.2613C108.266 98.344 108.378 98.3904 108.496 98.3904C108.613 98.3904 108.725 98.344 108.809 98.2613L109.873 97.1972C109.955 97.114 110.002 97.0015 110.002 96.8842C110.002 96.7669 109.955 96.6544 109.873 96.5712L107.636 94.3346C107.553 94.2514 107.507 94.1389 107.507 94.0216C107.507 93.9043 107.553 93.7918 107.636 93.7086L109.577 91.7676C109.749 91.5957 109.703 91.3861 109.475 91.3022L99.5204 87.646Z" fill="#293D7C"/>
<defs>
<filter id="filter0_d_2030_2249" x="0.666667" y="0.571429" width="146.667" height="146.667" filterUnits="userSpaceOnUse" color-interpolation-filters="sRGB">
<feFlood flood-opacity="0" result="BackgroundImageFix"/>
<feColorMatrix in="SourceAlpha" type="matrix" values="0 0 0 0 0 0 0 0 0 0 0 0 0 0 0 0 0 0 127 0" result="hardAlpha"/>
<feOffset dy="1.90476"/>
<feGaussianBlur stdDeviation="6.66667"/>
<feComposite in2="hardAlpha" operator="out"/>
<feColorMatrix type="matrix" values="0 0 0 0 0.695898 0 0 0 0 0.695898 0 0 0 0 0.695898 0 0 0 0.25 0"/>
<feBlend mode="normal" in2="BackgroundImageFix" result="effect1_dropShadow_2030_2249"/>
<feBlend mode="normal" in="SourceGraphic" in2="effect1_dropShadow_2030_2249" result="shape"/>
</filter>
</defs>
</svg>
