<svg width="148" height="148" viewBox="0 0 148 148" fill="none" xmlns="http://www.w3.org/2000/svg">
<g filter="url(#filter0_d_2030_4854)">
<circle cx="74" cy="72" r="60" fill="white"/>
</g>
<path d="M98.9846 92.0862H50.0191L43.8984 100.655V104.328C43.8984 105.302 44.2854 106.236 44.9741 106.924C45.6628 107.613 46.5969 108 47.5709 108H101.433C102.407 108 103.341 107.613 104.03 106.924C104.718 106.236 105.105 105.302 105.105 104.328V100.655L98.9846 92.0862Z" fill="#3F5C6C"/>
<path d="M98.9811 66.3793V92.0862L74.4984 94.5345L50.0156 92.0862V66.3793C50.0176 65.7306 50.2761 65.109 50.7348 64.6503C51.1936 64.1915 51.8152 63.933 52.4639 63.931H96.5329C97.1816 63.933 97.8032 64.1915 98.2619 64.6503C98.7206 65.109 98.9792 65.7306 98.9811 66.3793Z" fill="#2FA8CC"/>
<path d="M96.998 63.98C87.8537 64.3472 50.0156 67.3341 50.0156 92.0862V66.3793C50.0176 65.7306 50.2761 65.109 50.7348 64.6503C51.1936 64.1915 51.8152 63.933 52.4639 63.931H96.5329C96.6896 63.9286 96.845 63.9445 96.998 63.98Z" fill="#67B9CC"/>
<path d="M105.105 100.655H85.5191L84.295 96.9827H64.7088L63.4846 100.655H43.8984L50.0191 92.0862H98.9846L105.105 100.655Z" fill="#547580"/>
<path d="M85.5189 100.655L83.0706 103.103H65.9327L63.4844 100.655L64.7085 96.9828H84.2947L85.5189 100.655Z" fill="#95A5A5"/>
<path d="M69.6018 67.2974V78.6207H59.6374L53.5412 63.931L48.8527 52.6077C48.7905 52.4591 48.7582 52.2996 48.7578 52.1384C48.7574 51.9773 48.7888 51.8176 48.8502 51.6686C48.9116 51.5197 49.0018 51.3843 49.1157 51.2702C49.2296 51.1562 49.3648 51.0658 49.5137 51.0041L59.6986 46.7931C59.9991 46.6701 60.3359 46.6706 60.6361 46.7943C60.9363 46.918 61.1756 47.1551 61.3022 47.4541L62.2325 49.7188L63.1629 51.9712L64.1055 54.2358L64.5706 55.362L65.048 56.5005L65.9784 58.7651L66.4436 59.8914L66.9087 61.0176L68.3287 64.4207L69.6018 67.2974Z" fill="#F0C419"/>
<path d="M63.1664 51.9712L57.5231 54.3215C57.3707 54.3795 57.2088 54.4085 57.0457 54.4072C56.7648 54.4039 56.4935 54.3041 56.2775 54.1245C56.0615 53.9449 55.9138 53.6964 55.8592 53.4208C55.8047 53.1452 55.8466 52.8592 55.9779 52.6109C56.1093 52.3625 56.322 52.1669 56.5805 52.0569L62.236 49.7188L63.1664 51.9712ZM65.0515 56.5005L61.6484 57.9082C61.3481 58.0316 61.0111 58.0306 60.7115 57.9055C60.4119 57.7804 60.1743 57.5414 60.0509 57.2411C59.9276 56.9408 59.9286 56.6037 60.0537 56.3042C60.1788 56.0046 60.4178 55.7669 60.7181 55.6436L64.109 54.2358L64.5741 55.362L65.0515 56.5005ZM66.9122 61.0175L61.269 63.3679C61.1208 63.4242 60.9629 63.4536 60.8038 63.4536C60.5218 63.453 60.2487 63.3552 60.0306 63.1765C59.8124 62.9979 59.6626 62.7494 59.6065 62.4731C59.5504 62.1968 59.5913 61.9096 59.7225 61.66C59.8537 61.4104 60.067 61.2137 60.3264 61.1032L65.9819 58.7651L66.4471 59.8913L66.9122 61.0175Z" fill="#B19046"/>
<path d="M79.4191 50.4656L79.3947 72.3042V78.6207H69.6016V67.2975L69.6138 50.4656C69.9123 51.2968 70.3992 52.0476 71.0363 52.6593C71.6734 53.2709 72.4435 53.7268 73.2862 53.9911C73.6816 54.0927 74.0893 54.1417 74.4981 54.138C74.9157 54.1441 75.3321 54.0905 75.7345 53.9789C76.5748 53.7136 77.3429 53.2588 77.9797 52.6497C78.6164 52.0406 79.1047 51.2933 79.4069 50.4656H79.4191Z" fill="#E64C3C"/>
<path d="M79.4103 50.4656C79.4103 50.4656 78.1739 54.138 74.5015 54.138C70.8291 54.138 69.6172 50.4656 69.6172 50.4656L71.2575 44.4183H71.2698C72.2222 45.0977 73.3459 45.4956 74.5137 45.569C75.6814 45.4964 76.8053 45.0978 77.7577 44.4183L79.4103 50.4656Z" fill="#FDD7AD"/>
<path d="M77.758 44.4183C76.8056 45.0977 75.6817 45.4964 74.514 45.569C73.3464 45.4964 72.2225 45.0977 71.2701 44.4183H71.2578L72.9594 38.1752C73.054 37.8364 73.2572 37.5381 73.5378 37.326C73.8184 37.1139 74.1608 36.9998 74.5126 37.0012C74.8643 37.0026 75.2058 37.1194 75.4847 37.3337C75.7636 37.548 75.9645 37.8479 76.0564 38.1874L77.758 44.4183Z" fill="#393F4A"/>
<path d="M75.7295 65.1551V78.6207H73.2812V65.1551C73.2812 64.8305 73.4102 64.5191 73.6398 64.2895C73.8694 64.06 74.1807 63.931 74.5054 63.931C74.83 63.931 75.1414 64.06 75.371 64.2895C75.6006 64.5191 75.7295 64.8305 75.7295 65.1551ZM75.7418 53.9788L75.7295 59.0345C75.7295 59.3591 75.6006 59.6705 75.371 59.9C75.1414 60.1296 74.83 60.2586 74.5054 60.2586C74.1807 60.2586 73.8694 60.1296 73.6398 59.9C73.4102 59.6705 73.2812 59.3591 73.2812 59.0345L73.2935 53.991C73.6889 54.0926 74.0965 54.1416 74.5054 54.1379C74.923 54.144 75.3393 54.0904 75.7418 53.9788Z" fill="#C03A2B"/>
<path d="M91.6276 65.9386C89.6779 70.3458 87.373 74.5871 84.7357 78.6207H79.3984V72.3041C80.3688 68.8998 81.6429 65.5895 83.2055 62.4131C83.2055 62.4008 83.2177 62.3886 83.23 62.3763C85.8378 63.9721 88.6678 65.1725 91.6276 65.9386Z" fill="#2980BA"/>
<path d="M93.6562 60.5401C93.3012 61.6786 92.8972 62.817 92.4566 63.931C92.1995 64.6043 91.9179 65.2775 91.6364 65.9386H91.6241C88.6644 65.1725 85.8344 63.9721 83.2266 62.3763C84.0835 60.5891 85.026 58.8386 86.0176 57.1125C88.5026 58.2265 91.0366 59.3772 93.595 60.5157C93.6195 60.5279 93.6317 60.5279 93.6562 60.5401Z" fill="#BDC3C7"/>
<path d="M93.5989 60.5157C91.0404 59.3773 88.5064 58.2266 86.0214 57.1126C86.0214 57.1126 82.9856 51.2123 88.8982 48.1642C93.0823 46.0158 95.4143 44.1808 96.5368 42.1328C96.6515 41.9358 96.8194 41.775 97.0212 41.669C97.2231 41.5629 97.4507 41.5158 97.678 41.533C97.9054 41.5503 98.1233 41.6312 98.3068 41.7665C98.4903 41.9018 98.6321 42.086 98.7158 42.2981C100.491 46.7735 102.413 55.46 93.5989 60.5157Z" fill="#A56A43"/>
<path d="M92.8272 56.8837C92.5619 56.884 92.3036 56.7981 92.0913 56.6389C91.879 56.4798 91.7242 56.2559 91.6502 56.0011C91.5761 55.7463 91.5869 55.4743 91.6809 55.2261C91.7748 54.978 91.9469 54.7671 92.1711 54.6252C92.9243 54.1314 93.572 53.4928 94.0763 52.7466C94.5807 52.0003 94.9317 51.1613 95.109 50.2783C95.1415 49.9552 95.3009 49.6583 95.5523 49.4528C95.8037 49.2474 96.1264 49.1502 96.4494 49.1827C96.7725 49.2151 97.0694 49.3746 97.2749 49.626C97.4803 49.8773 97.5775 50.2 97.545 50.5231C97.332 51.7774 96.8607 52.9738 96.1608 54.0363C95.461 55.0988 94.548 56.0042 93.4797 56.6952C93.2843 56.8183 93.0581 56.8837 92.8272 56.8837Z" fill="#805333"/>
<path d="M91.6406 79.8449H57.3648C57.0401 79.8449 56.7287 79.7159 56.4992 79.4863C56.2696 79.2568 56.1406 78.9454 56.1406 78.6207C56.1406 78.2961 56.2696 77.9847 56.4992 77.7551C56.7287 77.5256 57.0401 77.3966 57.3648 77.3966H91.6406C91.9653 77.3966 92.2766 77.5256 92.5062 77.7551C92.7358 77.9847 92.8648 78.2961 92.8648 78.6207C92.8648 78.9454 92.7358 79.2568 92.5062 79.4863C92.2766 79.7159 91.9653 79.8449 91.6406 79.8449Z" fill="#285680"/>
<defs>
<filter id="filter0_d_2030_4854" x="0.666667" y="0.571429" width="146.667" height="146.667" filterUnits="userSpaceOnUse" color-interpolation-filters="sRGB">
<feFlood flood-opacity="0" result="BackgroundImageFix"/>
<feColorMatrix in="SourceAlpha" type="matrix" values="0 0 0 0 0 0 0 0 0 0 0 0 0 0 0 0 0 0 127 0" result="hardAlpha"/>
<feOffset dy="1.90476"/>
<feGaussianBlur stdDeviation="6.66667"/>
<feComposite in2="hardAlpha" operator="out"/>
<feColorMatrix type="matrix" values="0 0 0 0 0.695898 0 0 0 0 0.695898 0 0 0 0 0.695898 0 0 0 0.25 0"/>
<feBlend mode="normal" in2="BackgroundImageFix" result="effect1_dropShadow_2030_4854"/>
<feBlend mode="normal" in="SourceGraphic" in2="effect1_dropShadow_2030_4854" result="shape"/>
</filter>
</defs>
</svg>
