<svg width="148" height="148" viewBox="0 0 148 148" fill="none" xmlns="http://www.w3.org/2000/svg">
<g filter="url(#filter0_d_3238_2927)">
<circle cx="74" cy="72" r="60" fill="white"/>
</g>
<path d="M81.1562 99.125H67.8438L69.3192 90.25H79.6808L81.1562 99.125Z" fill="#074F77"/>
<path d="M80.2333 93.5781H68.7734L69.317 90.25H79.6786L80.2333 93.5781Z" fill="#00325A"/>
<path d="M80.0469 92.4688H68.9531L69.3192 90.25H79.6808L80.0469 92.4688Z" fill="#00325A"/>
<path d="M105.562 52.5312V90.25C105.562 91.4703 104.564 92.4688 103.344 92.4688H45.6562C44.4359 92.4688 43.4375 91.4703 43.4375 90.25V52.5312C43.4375 51.3109 44.4359 50.3125 45.6562 50.3125H103.344C104.564 50.3125 105.562 51.3109 105.562 52.5312Z" fill="#01A0C8"/>
<path d="M97.7969 91.3594H102.234C102.529 91.3594 102.811 91.2425 103.019 91.0344C103.227 90.8264 103.344 90.5442 103.344 90.25C103.344 89.9558 103.227 89.6736 103.019 89.4656C102.811 89.2575 102.529 89.1406 102.234 89.1406H97.7969C97.5027 89.1406 97.2205 89.2575 97.0124 89.4656C96.8044 89.6736 96.6875 89.9558 96.6875 90.25C96.6875 90.5442 96.8044 90.8264 97.0124 91.0344C97.2205 91.2425 97.5027 91.3594 97.7969 91.3594Z" fill="#0082AA"/>
<path d="M93.3594 91.3594C93.9721 91.3594 94.4688 90.8627 94.4688 90.25C94.4688 89.6373 93.9721 89.1406 93.3594 89.1406C92.7467 89.1406 92.25 89.6373 92.25 90.25C92.25 90.8627 92.7467 91.3594 93.3594 91.3594Z" fill="#0082AA"/>
<path d="M103.344 53.6406V84.7031C103.344 85.3133 102.845 85.8125 102.234 85.8125H46.7656C46.1555 85.8125 45.6562 85.3133 45.6562 84.7031V53.6406C45.6562 53.0305 46.1555 52.5312 46.7656 52.5312H102.234C102.845 52.5312 103.344 53.0305 103.344 53.6406Z" fill="#FAB400"/>
<path d="M102.234 52.5312H46.7656C46.1555 52.5312 45.6562 53.0305 45.6562 53.6406V54.75C45.6562 54.1398 46.1555 53.6406 46.7656 53.6406H50.0938V80.2656C50.0938 80.8758 50.593 81.375 51.2031 81.375H97.7969C98.407 81.375 98.9062 80.8758 98.9062 80.2656V53.6406H102.234C102.845 53.6406 103.344 54.1398 103.344 54.75V53.6406C103.344 53.0305 102.845 52.5312 102.234 52.5312Z" fill="#DC9600"/>
<path d="M98.9062 42.5469V48.0938H50.0938V42.5469C50.0938 41.9367 50.593 41.4375 51.2031 41.4375H97.7969C98.407 41.4375 98.9062 41.9367 98.9062 42.5469Z" fill="#00325A"/>
<path d="M86.7031 103.562H62.2969C62.0027 103.562 61.7205 103.446 61.5124 103.238C61.3044 103.03 61.1875 102.747 61.1875 102.453V101.344C61.1875 100.755 61.4213 100.191 61.8374 99.7749C62.2535 99.3588 62.8178 99.125 63.4062 99.125H85.5938C86.1822 99.125 86.7465 99.3588 87.1626 99.7749C87.5787 100.191 87.8125 100.755 87.8125 101.344V102.453C87.8125 102.747 87.6956 103.03 87.4876 103.238C87.2795 103.446 86.9973 103.562 86.7031 103.562Z" fill="#01A0C8"/>
<path d="M97.7969 90.25H102.234C102.529 90.25 102.811 90.1331 103.019 89.9251C103.227 89.717 103.344 89.4348 103.344 89.1406C103.344 88.8464 103.227 88.5642 103.019 88.3562C102.811 88.1481 102.529 88.0312 102.234 88.0312H97.7969C97.5027 88.0312 97.2205 88.1481 97.0124 88.3562C96.8044 88.5642 96.6875 88.8464 96.6875 89.1406C96.6875 89.4348 96.8044 89.717 97.0124 89.9251C97.2205 90.1331 97.5027 90.25 97.7969 90.25Z" fill="#F0F0F0"/>
<path d="M93.3594 90.25C93.9721 90.25 94.4688 89.7533 94.4688 89.1406C94.4688 88.5279 93.9721 88.0312 93.3594 88.0312C92.7467 88.0312 92.25 88.5279 92.25 89.1406C92.25 89.7533 92.7467 90.25 93.3594 90.25Z" fill="#F0F0F0"/>
<path d="M98.9062 48.0938V79.1562C98.9062 79.7664 98.407 80.2656 97.7969 80.2656H51.2031C50.593 80.2656 50.0938 79.7664 50.0938 79.1562V48.0938H98.9062Z" fill="#F0F0F0"/>
<path d="M63.4018 58.928C61.5314 55.1883 63.14 58.3966 61.0676 54.2531C60.9755 54.0687 60.8339 53.9137 60.6586 53.8054C60.4833 53.697 60.2814 53.6396 60.0753 53.6396C59.8692 53.6396 59.6673 53.697 59.492 53.8054C59.3167 53.9137 59.1751 54.0687 59.083 54.2531C57.116 58.188 58.7169 54.993 56.7488 58.928L56.7422 71.3918H56.7477V75.8282C56.7477 76.4166 56.9815 76.981 57.3976 77.3971C57.8137 77.8132 58.378 78.0469 58.9665 78.0469H61.1852C61.7737 78.0469 62.338 77.8132 62.7541 77.3971C63.1702 76.981 63.404 76.4166 63.404 75.8282V71.3918H63.4095L63.4018 58.928ZM91.1439 73.6094H90.0345C90.0345 70.9614 88.9826 68.4218 87.1102 66.5494C85.2377 64.677 82.6982 63.6251 80.0502 63.6251C77.4021 63.6251 74.8626 64.677 72.9901 66.5494C71.1177 68.4218 70.0658 70.9614 70.0658 73.6094H68.9564C68.3463 73.6094 67.847 74.1087 67.847 74.7188V76.9376C67.847 77.5477 68.3463 78.0469 68.9564 78.0469H91.1439C91.7541 78.0469 92.2533 77.5477 92.2533 76.9376V74.7188C92.2533 74.1087 91.7541 73.6094 91.1439 73.6094ZM74.5033 73.6094C74.5033 70.5476 76.9883 68.0626 80.0502 68.0626C83.112 68.0626 85.597 70.5476 85.597 73.6094H74.5033ZM70.0658 60.2969H81.7752C82.544 61.6182 83.9585 62.5157 85.597 62.5157C87.3842 62.5157 90.5637 60.1572 91.9072 58.8792C92.0165 58.7764 92.1036 58.6524 92.1631 58.5148C92.2227 58.3771 92.2534 58.2287 92.2534 58.0787C92.2534 57.9287 92.2227 57.7803 92.1631 57.6427C92.1036 57.505 92.0165 57.381 91.9072 57.2783C90.5637 55.9992 87.3842 53.6407 85.597 53.6407C83.9585 53.6407 82.544 54.5382 81.7752 55.8594H70.0658C69.4773 55.8594 68.913 56.0932 68.4969 56.5093C68.0808 56.9254 67.847 57.4897 67.847 58.0782C67.847 58.6666 68.0808 59.231 68.4969 59.6471C68.913 60.0632 69.4773 60.2969 70.0658 60.2969Z" fill="#D2D2D2"/>
<path d="M95.5781 45.875C96.1908 45.875 96.6875 45.3783 96.6875 44.7656C96.6875 44.1529 96.1908 43.6562 95.5781 43.6562C94.9654 43.6562 94.4688 44.1529 94.4688 44.7656C94.4688 45.3783 94.9654 45.875 95.5781 45.875Z" fill="#C80A50"/>
<path d="M91.1406 45.875C91.7533 45.875 92.25 45.3783 92.25 44.7656C92.25 44.1529 91.7533 43.6562 91.1406 43.6562C90.5279 43.6562 90.0312 44.1529 90.0312 44.7656C90.0312 45.3783 90.5279 45.875 91.1406 45.875Z" fill="#01A0C8"/>
<path d="M86.7031 45.875C87.3158 45.875 87.8125 45.3783 87.8125 44.7656C87.8125 44.1529 87.3158 43.6562 86.7031 43.6562C86.0904 43.6562 85.5938 44.1529 85.5938 44.7656C85.5938 45.3783 86.0904 45.875 86.7031 45.875Z" fill="#FAB400"/>
<path d="M70.0625 45.875H53.4219C53.1277 45.875 52.8455 45.7581 52.6374 45.5501C52.4294 45.342 52.3125 45.0598 52.3125 44.7656C52.3125 44.4714 52.4294 44.1892 52.6374 43.9812C52.8455 43.7731 53.1277 43.6562 53.4219 43.6562H70.0625C70.3567 43.6562 70.6389 43.7731 70.8469 43.9812C71.055 44.1892 71.1719 44.4714 71.1719 44.7656C71.1719 45.0598 71.055 45.342 70.8469 45.5501C70.6389 45.7581 70.3567 45.875 70.0625 45.875Z" fill="#F0F0F0"/>
<path d="M56.7422 70.2823L56.75 57.8185H63.4018L63.4095 70.2823H56.7422Z" fill="#00325A"/>
<path d="M56.75 57.8185L59.0875 53.1436C59.1792 52.96 59.3203 52.8055 59.4948 52.6976C59.6694 52.5896 59.8706 52.5325 60.0759 52.5325C60.2812 52.5325 60.4824 52.5896 60.657 52.6976C60.8316 52.8055 60.9726 52.96 61.0644 53.1436L63.4018 57.8185H56.75Z" fill="#FAB400"/>
<path d="M57.8516 55.5976L59.0785 53.1448C59.1707 52.9605 59.3123 52.8054 59.4876 52.6971C59.6628 52.5888 59.8648 52.5314 60.0709 52.5314C60.2769 52.5314 60.4789 52.5888 60.6542 52.6971C60.8294 52.8054 60.9711 52.9605 61.0632 53.1448L62.2902 55.5976H57.8516Z" fill="#01133B"/>
<path d="M58.9609 76.9375H61.1797C61.7681 76.9375 62.3325 76.7037 62.7486 76.2876C63.1647 75.8715 63.3984 75.3072 63.3984 74.7188V72.5H56.7422V74.7188C56.7422 75.3072 56.9759 75.8715 57.392 76.2876C57.8081 76.7037 58.3725 76.9375 58.9609 76.9375Z" fill="#C8094F"/>
<path d="M58.9609 57.8163H61.1797V70.2812H58.9609V57.8163Z" fill="#F0F0F0"/>
<path d="M63.3984 72.5H56.7422V70.2812H63.3984V72.5Z" fill="#FAB400"/>
<path d="M91.1406 72.5H90.0312C90.0312 69.852 88.9793 67.3124 87.1069 65.44C85.2345 63.5675 82.6949 62.5156 80.0469 62.5156C77.3989 62.5156 74.8593 63.5675 72.9869 65.44C71.1144 67.3124 70.0625 69.852 70.0625 72.5H68.9531C68.343 72.5 67.8438 72.9992 67.8438 73.6094V75.8281C67.8438 76.4383 68.343 76.9375 68.9531 76.9375H91.1406C91.7508 76.9375 92.25 76.4383 92.25 75.8281V73.6094C92.25 72.9992 91.7508 72.5 91.1406 72.5ZM74.5 72.5C74.5 69.4381 76.985 66.9531 80.0469 66.9531C83.1088 66.9531 85.5938 69.4381 85.5938 72.5H74.5Z" fill="#00A0C8"/>
<path d="M72.2812 75.8281V76.9375H70.0625V75.8281C70.0625 75.218 70.5617 74.7188 71.1719 74.7188C71.782 74.7188 72.2812 75.218 72.2812 75.8281ZM76.7188 75.8281V76.9375H74.5V75.8281C74.5 75.218 74.9992 74.7188 75.6094 74.7188C76.2195 74.7188 76.7188 75.218 76.7188 75.8281ZM81.1562 75.8281V76.9375H78.9375V75.8281C78.9375 75.218 79.4367 74.7188 80.0469 74.7188C80.657 74.7188 81.1562 75.218 81.1562 75.8281ZM85.5938 75.8281V76.9375H83.375V75.8281C83.375 75.218 83.8742 74.7188 84.4844 74.7188C85.0945 74.7188 85.5938 75.218 85.5938 75.8281ZM90.0312 75.8281V76.9375H87.8125V75.8281C87.8125 75.218 88.3117 74.7188 88.9219 74.7188C89.532 74.7188 90.0312 75.218 90.0312 75.8281ZM85.5938 59.1875H70.0625C69.4741 59.1875 68.9097 58.9537 68.4936 58.5376C68.0775 58.1215 67.8438 57.5572 67.8438 56.9688C67.8438 56.3803 68.0775 55.816 68.4936 55.3999C68.9097 54.9838 69.4741 54.75 70.0625 54.75H85.5938V59.1875Z" fill="#00325A"/>
<path d="M81.1562 56.9688C81.1562 58.1456 81.6238 59.2743 82.456 60.1065C83.2882 60.9387 84.4169 61.4062 85.5938 61.4062C87.381 61.4062 90.5604 59.0477 91.9039 57.7697C92.0132 57.667 92.1003 57.543 92.1598 57.4054C92.2194 57.2677 92.2501 57.1193 92.2501 56.9693C92.2501 56.8193 92.2194 56.6709 92.1598 56.5333C92.1003 56.3956 92.0132 56.2716 91.9039 56.1689C90.5604 54.8898 87.381 52.5312 85.5938 52.5312C84.4169 52.5312 83.2882 52.9988 82.456 53.831C81.6238 54.6632 81.1562 55.7919 81.1562 56.9688Z" fill="#C8094F"/>
<defs>
<filter id="filter0_d_3238_2927" x="0.666667" y="0.571429" width="146.667" height="146.667" filterUnits="userSpaceOnUse" color-interpolation-filters="sRGB">
<feFlood flood-opacity="0" result="BackgroundImageFix"/>
<feColorMatrix in="SourceAlpha" type="matrix" values="0 0 0 0 0 0 0 0 0 0 0 0 0 0 0 0 0 0 127 0" result="hardAlpha"/>
<feOffset dy="1.90476"/>
<feGaussianBlur stdDeviation="6.66667"/>
<feComposite in2="hardAlpha" operator="out"/>
<feColorMatrix type="matrix" values="0 0 0 0 0.695898 0 0 0 0 0.695898 0 0 0 0 0.695898 0 0 0 0.25 0"/>
<feBlend mode="normal" in2="BackgroundImageFix" result="effect1_dropShadow_3238_2927"/>
<feBlend mode="normal" in="SourceGraphic" in2="effect1_dropShadow_3238_2927" result="shape"/>
</filter>
</defs>
</svg>
