<svg width="148" height="148" viewBox="0 0 148 148" fill="none" xmlns="http://www.w3.org/2000/svg">
<g filter="url(#filter0_d_2030_2317)">
<circle cx="74" cy="72" r="60" fill="white"/>
</g>
<path d="M97.3588 62.5348L80.7182 78.305L74.5 102.053C78.0931 104.402 82.3761 105.781 86.9805 105.781C99.597 105.781 110 95.5169 110 82.9004C110 74.0218 104.768 66.3264 97.3588 62.5348Z" fill="#25D9F8"/>
<path d="M72.442 78.3051L51.6412 62.5349C44.2322 66.3263 39 74.0218 39 82.9004C39 95.5169 49.403 105.781 62.0195 105.781C66.6239 105.781 70.9069 104.402 74.5 102.053L72.442 78.3051Z" fill="#FF641A"/>
<path d="M97.3789 62.0996C97.3789 62.2659 97.3789 62.3908 97.3373 62.5155L74.498 72.0838L51.6588 62.5155C51.6172 62.3908 51.6172 62.2659 51.6172 62.0996C51.6172 49.4942 61.8926 39.2188 74.498 39.2188C87.1035 39.2188 97.3789 49.4942 97.3789 62.0996Z" fill="#FFDA2D"/>
<path d="M97.3809 62.0996C97.3809 62.2659 97.3809 62.3908 97.3393 62.5155L74.5 72.0838V39.2188C87.1054 39.2188 97.3809 49.4942 97.3809 62.0996Z" fill="#FDBF00"/>
<path d="M86.9805 60.0195C82.3761 60.0195 78.0931 61.3985 74.5 63.748L84.8783 82.4651C92.1647 78.7364 97.1941 71.2281 97.3588 62.5348C94.2394 60.9385 90.7184 60.0195 86.9805 60.0195Z" fill="#9CDD05"/>
<path d="M62.019 60.0195C58.2811 60.0195 54.76 60.9385 51.6406 62.5348C51.8054 71.2281 56.8347 78.7364 64.1211 82.4651L74.4994 63.748C70.9063 61.3985 66.6233 60.0195 62.019 60.0195Z" fill="#FF9100"/>
<path d="M84.9023 82.9004C84.9023 90.9295 80.7422 97.9602 74.502 102.037C68.2617 97.9602 64.1016 90.9295 64.1016 82.9004C64.1016 82.7339 64.1016 82.6092 64.1432 82.4843H84.8607C84.9023 82.6092 84.9023 82.7339 84.9023 82.9004Z" fill="#979FEF"/>
<path d="M84.9004 82.9004C84.9004 90.9295 80.7402 97.9602 74.5 102.037V82.4843H84.8588C84.9004 82.6092 84.9004 82.7339 84.9004 82.9004Z" fill="#737EE6"/>
<path d="M84.8582 82.4843C81.7381 84.0651 78.2437 84.9805 74.4994 84.9805C70.7551 84.9805 67.2607 84.0651 64.1406 82.4843C64.2653 74.6217 68.3424 67.7574 74.4994 63.7635C80.6563 67.7574 84.7335 74.6217 84.8582 82.4843Z" fill="#47568C"/>
<path d="M84.8588 82.4843C81.7387 84.0651 78.2443 84.9805 74.5 84.9805V63.7635C80.6569 67.7574 84.7341 74.6217 84.8588 82.4843Z" fill="#2C3B73"/>
<defs>
<filter id="filter0_d_2030_2317" x="0.666667" y="0.571429" width="146.667" height="146.667" filterUnits="userSpaceOnUse" color-interpolation-filters="sRGB">
<feFlood flood-opacity="0" result="BackgroundImageFix"/>
<feColorMatrix in="SourceAlpha" type="matrix" values="0 0 0 0 0 0 0 0 0 0 0 0 0 0 0 0 0 0 127 0" result="hardAlpha"/>
<feOffset dy="1.90476"/>
<feGaussianBlur stdDeviation="6.66667"/>
<feComposite in2="hardAlpha" operator="out"/>
<feColorMatrix type="matrix" values="0 0 0 0 0.695898 0 0 0 0 0.695898 0 0 0 0 0.695898 0 0 0 0.25 0"/>
<feBlend mode="normal" in2="BackgroundImageFix" result="effect1_dropShadow_2030_2317"/>
<feBlend mode="normal" in="SourceGraphic" in2="effect1_dropShadow_2030_2317" result="shape"/>
</filter>
</defs>
</svg>
