<svg width="22" height="23" viewBox="0 0 22 23" fill="none" xmlns="http://www.w3.org/2000/svg">
<path fill-rule="evenodd" clip-rule="evenodd" d="M13 1.97733C12.4576 1.46954 11.7424 1.18701 10.9994 1.18701C10.2564 1.18701 9.54116 1.46954 8.99874 1.97733L8.02421 2.88964C7.74974 3.14682 7.39123 3.2956 7.01531 3.30833L5.68087 3.35233C4.93835 3.37687 4.23294 3.68281 3.70762 4.20814C3.18229 4.73346 2.87635 5.43887 2.85181 6.18139L2.80781 7.51548C2.79534 7.8916 2.64667 8.25038 2.38946 8.52508L1.47749 9.49961C0.969907 10.042 0.6875 10.757 0.6875 11.4999C0.6875 12.2427 0.969907 12.9578 1.47749 13.5002L2.38946 14.475C2.64659 14.7497 2.79509 15.1086 2.80781 15.4846L2.85181 16.8187C2.87635 17.5613 3.18229 18.2667 3.70762 18.792C4.23294 19.3173 4.93835 19.6233 5.68087 19.6478L7.01531 19.6918C7.39129 19.7044 7.74993 19.853 8.02456 20.1101L8.99943 21.0221C9.54181 21.5297 10.2569 21.8121 10.9997 21.8121C11.7426 21.8121 12.4576 21.5297 13 21.0221L13.9749 20.1101C14.2496 19.853 14.6084 19.7043 14.9845 19.6918L16.3186 19.6478C17.0611 19.6233 17.7665 19.3173 18.2918 18.792C18.8171 18.2667 19.1231 17.5613 19.1476 16.8187L19.1916 15.4846C19.2041 15.1085 19.3528 14.7498 19.61 14.475L20.5223 13.5002C21.0299 12.9578 21.3123 12.2427 21.3123 11.4999C21.3123 10.757 21.0299 10.042 20.5223 9.49961L19.61 8.52473C19.3529 8.2501 19.2042 7.89147 19.1916 7.51548L19.1476 6.18105C19.1231 5.43853 18.8171 4.73312 18.2918 4.20779C17.7665 3.68247 17.0611 3.37653 16.3186 3.35198L14.9845 3.30798C14.6083 3.29552 14.2496 3.14685 13.9749 2.88964L13 1.97733ZM9.93856 2.98108C10.2262 2.71186 10.6054 2.56208 10.9994 2.56208C11.3933 2.56208 11.7726 2.71186 12.0602 2.98108L13.0351 3.89373C13.553 4.37841 14.2294 4.65851 14.9384 4.68195L16.2728 4.7263C16.6666 4.73934 17.0406 4.90157 17.3191 5.18012C17.5977 5.45868 17.7599 5.83271 17.773 6.22642L17.8173 7.56086C17.8407 8.26985 18.1208 8.94621 18.6055 9.4642L19.5178 10.4391C19.787 10.7267 19.9368 11.1059 19.9368 11.4999C19.9368 11.8939 19.787 12.2731 19.5178 12.5607L18.6055 13.5356C18.1207 14.0535 17.8405 14.7299 17.817 15.4389L17.773 16.7734C17.7599 17.1671 17.5977 17.5411 17.3191 17.8197C17.0406 18.0982 16.6666 18.2604 16.2728 18.2735L14.9384 18.3178C14.2293 18.3412 13.5528 18.6213 13.0347 19.106L12.0602 20.0184C11.7726 20.2876 11.3933 20.4374 10.9994 20.4374C10.6054 20.4374 10.2262 20.2876 9.93856 20.0184L8.96403 19.106C8.446 18.6212 7.7695 18.3409 7.06034 18.3175L5.7259 18.2735C5.33219 18.2604 4.95815 18.0982 4.6796 17.8197C4.40105 17.5411 4.23882 17.1671 4.22577 16.7734L4.18177 15.4389C4.15832 14.7298 3.87809 14.0533 3.39321 13.5352L2.4809 12.5607C2.21169 12.2731 2.0619 11.8939 2.0619 11.4999C2.0619 11.1059 2.21169 10.7267 2.4809 10.4391L3.39321 9.46455C3.87809 8.94652 4.15832 8.27002 4.18177 7.56086L4.22577 6.22642C4.23882 5.83271 4.40105 5.45868 4.6796 5.18012C4.95815 4.90157 5.33219 4.73934 5.7259 4.7263L7.06034 4.6823C7.7695 4.65884 8.446 4.37861 8.96403 3.89373L9.93856 2.98108Z" fill="#092A35"/>
<path d="M15.2832 9.21969C15.4078 9.08658 15.4744 8.90942 15.4684 8.72718C15.4624 8.54493 15.3843 8.37253 15.2512 8.24791C15.1181 8.12328 14.9409 8.05663 14.7587 8.06263C14.5764 8.06862 14.404 8.14677 14.2794 8.27987L9.63224 13.2436L7.72065 11.2017C7.65894 11.1358 7.58485 11.0827 7.50262 11.0455C7.42039 11.0082 7.33162 10.9875 7.24138 10.9845C7.05914 10.9785 6.88197 11.0452 6.74887 11.1698C6.61576 11.2944 6.53762 11.4668 6.53162 11.6491C6.52563 11.8313 6.59227 12.0085 6.7169 12.1416L9.13037 14.7197C9.19468 14.7884 9.2724 14.8431 9.35873 14.8806C9.44506 14.918 9.53815 14.9373 9.63224 14.9373C9.72634 14.9373 9.81943 14.918 9.90576 14.8806C9.99209 14.8431 10.0698 14.7884 10.1341 14.7197L15.2832 9.21969Z" fill="#03AC00"/>
</svg>
