<svg width="84" height="84" viewBox="0 0 84 84" fill="none" xmlns="http://www.w3.org/2000/svg">
<path d="M80.338 40.832C79.6423 39.887 62.9998 17.627 41.9998 17.627C20.9998 17.627 4.35734 39.887 3.66172 40.832L2.80859 42.0001L3.66172 43.1683C4.35734 44.1133 20.9998 66.3733 41.9998 66.3733C62.9998 66.3733 79.6423 44.0608 80.338 43.1683L81.1911 42.0001L80.338 40.832ZM41.9998 64.4095C25.5542 64.4095 9.22557 46.502 5.56369 42.0001C9.22557 37.4983 25.5542 19.5908 41.9998 19.5908C58.4455 19.5908 74.7741 37.4983 78.436 42.0001C74.7741 46.502 58.4455 64.4095 41.9998 64.4095Z" fill="#9A9A9A"/>
<circle cx="41.9375" cy="41.9623" r="17.4407" stroke="#9A9A9A" stroke-width="2.0014"/>
<path d="M43.4362 29.5779C40.6438 29.2918 38.2869 30.2221 37.0915 31.0458C38.7035 32.9642 37.9311 35.4634 37.3434 36.4731C35.3283 38.7955 32.4736 37.6091 31.2981 36.7256C29.1823 39.6538 29.7448 43.8358 30.2906 45.5608C32.3056 52.2251 38.5188 54.1436 41.3735 54.2698C45.5276 54.9523 48.8801 52.8285 51.0575 50.5488C52.8308 48.6921 53.9198 46.2596 54.251 43.7136C54.5644 41.3044 54.2687 39.2579 53.6647 37.5782C52.1319 33.3156 47.9425 30.0396 43.4362 29.5779Z" stroke="#092A35" stroke-width="2.0014"/>
</svg>
