<svg width="89" height="89" viewBox="0 0 89 89" fill="none" xmlns="http://www.w3.org/2000/svg">
<circle cx="44.5" cy="44.5" r="43.5" fill="white" stroke="#D8E2E4" stroke-width="2"/>
<g clip-path="url(#clip0_2084_149)">
<path d="M45 25C41.0234 25.0053 37.2111 26.5873 34.3992 29.3992C31.5873 32.2111 30.0053 36.0234 30 40C30 50.7687 43.975 64.2563 44.5687 64.825C44.6842 64.9372 44.8389 65 45 65C45.1611 65 45.3158 64.9372 45.4312 64.825C46.025 64.2563 60 50.7687 60 40C59.9947 36.0234 58.4127 32.2111 55.6008 29.3992C52.7889 26.5873 48.9766 25.0053 45 25ZM45 46.875C43.6403 46.875 42.311 46.4718 41.1805 45.7164C40.0499 44.9609 39.1687 43.8872 38.6483 42.6309C38.128 41.3747 37.9918 39.9924 38.2571 38.6588C38.5224 37.3251 39.1772 36.1001 40.1386 35.1386C41.1001 34.1772 42.3251 33.5224 43.6588 33.2571C44.9924 32.9918 46.3747 33.128 47.6309 33.6483C48.8872 34.1687 49.9609 35.0499 50.7164 36.1805C51.4718 37.311 51.875 38.6403 51.875 40C51.8738 41.823 51.1491 43.571 49.8601 44.8601C48.571 46.1491 46.823 46.8738 45 46.875Z" fill="url(#paint0_linear_2084_149)"/>
</g>
<defs>
<linearGradient id="paint0_linear_2084_149" x1="30" y1="25" x2="69.5011" y2="40.0305" gradientUnits="userSpaceOnUse">
<stop stop-color="#3AC3EB"/>
<stop offset="1" stop-color="#792F85"/>
</linearGradient>
<clipPath id="clip0_2084_149">
<rect width="40" height="40" fill="white" transform="translate(25 25)"/>
</clipPath>
</defs>
</svg>
