<svg width="148" height="148" viewBox="0 0 148 148" fill="none" xmlns="http://www.w3.org/2000/svg">
<g filter="url(#filter0_d_3247_3134)">
<circle cx="74" cy="72" r="60" fill="white"/>
</g>
<g clip-path="url(#clip0_3247_3134)">
<path fill-rule="evenodd" clip-rule="evenodd" d="M82.6896 101.215H61.4297C63.1265 98.8142 64.5334 92.6278 63.924 87.855H80.0456C79.4362 92.6278 80.9935 98.8144 82.6896 101.215Z" fill="#CAD0D7"/>
<path fill-rule="evenodd" clip-rule="evenodd" d="M57.641 100.39H86.4783C87.961 100.39 89.174 101.603 89.174 103.086C89.174 104.568 87.961 105.781 86.4783 105.781H57.641C56.1584 105.781 54.9453 104.568 54.9453 103.086C54.9455 101.603 56.1584 100.39 57.641 100.39Z" fill="#E4E8EB"/>
<path fill-rule="evenodd" clip-rule="evenodd" d="M99.6524 45.3408C101.449 45.3408 102.905 46.7976 102.905 48.5946V85.1794C102.905 87.6253 100.923 89.6079 98.4769 89.6079H45.6472C43.2013 89.6079 41.2188 87.6253 41.2188 85.1794V49.7694C41.2188 47.3236 43.2013 45.341 45.6472 45.341L99.6524 45.3408Z" fill="#CAD0D7"/>
<path fill-rule="evenodd" clip-rule="evenodd" d="M43.7891 78.2288H100.335V48.5946C100.335 48.5049 100.318 48.416 100.284 48.3331C100.249 48.2501 100.199 48.1747 100.136 48.1113C100.072 48.0478 99.997 47.9974 99.9141 47.9631C99.8312 47.9287 99.7423 47.9111 99.6526 47.9111H45.6473C44.62 47.9111 43.7891 48.7422 43.7891 49.7693V78.2288Z" fill="#38A8D2"/>
<path fill-rule="evenodd" clip-rule="evenodd" d="M102.906 80.7991V85.1794C102.906 87.6253 100.923 89.6079 98.4771 89.6079H45.6472C43.2013 89.6079 41.2188 87.6253 41.2188 85.1794V80.7991H102.906Z" fill="#E4E8EB"/>
<path fill-rule="evenodd" clip-rule="evenodd" d="M69.627 86.1743C69.3695 86.1743 69.1226 86.072 68.9406 85.89C68.7585 85.708 68.6562 85.4611 68.6562 85.2036C68.6562 84.9462 68.7585 84.6993 68.9406 84.5172C69.1226 84.3352 69.3695 84.2329 69.627 84.2329H74.4963C74.7537 84.2329 75.0006 84.3352 75.1827 84.5172C75.3647 84.6993 75.467 84.9462 75.467 85.2036C75.467 85.4611 75.3647 85.708 75.1827 85.89C75.0006 86.072 74.7537 86.1743 74.4963 86.1743H69.627Z" fill="#CAD0D7"/>
<path fill-rule="evenodd" clip-rule="evenodd" d="M67.4453 51.2428V59.3644C67.4456 59.5116 67.5041 59.6526 67.6082 59.7567C67.7122 59.8607 67.8533 59.9193 68.0004 59.9195H76.122C76.2692 59.9193 76.4102 59.8607 76.5142 59.7567C76.6183 59.6526 76.6769 59.5116 76.6771 59.3644V51.2428C76.6769 51.0957 76.6183 50.9547 76.5142 50.8506C76.4102 50.7466 76.2692 50.688 76.122 50.6877H68.0004C67.8533 50.688 67.7122 50.7466 67.6082 50.8506C67.5041 50.9547 67.4456 51.0957 67.4453 51.2428Z" fill="#C6EA94"/>
<path fill-rule="evenodd" clip-rule="evenodd" d="M67.4453 66.7753V74.8969C67.4456 75.0441 67.5041 75.1851 67.6082 75.2891C67.7122 75.3932 67.8533 75.4518 68.0004 75.452H76.122C76.2692 75.4518 76.4102 75.3932 76.5142 75.2891C76.6183 75.1851 76.6769 75.0441 76.6771 74.8969V66.7753C76.6769 66.6282 76.6183 66.4871 76.5142 66.3831C76.4102 66.279 76.2692 66.2205 76.122 66.2202H68.0004C67.8533 66.2205 67.7122 66.279 67.6082 66.3831C67.5041 66.4871 67.4456 66.6282 67.4453 66.7753Z" fill="#66D4F1"/>
<path fill-rule="evenodd" clip-rule="evenodd" d="M49.5859 51.2428V59.3644C49.5862 59.5116 49.6448 59.6526 49.7488 59.7567C49.8529 59.8607 49.9939 59.9193 50.141 59.9195H58.2626C58.4098 59.9193 58.5508 59.8607 58.6549 59.7567C58.7589 59.6526 58.8175 59.5116 58.8177 59.3644V51.2428C58.8175 51.0957 58.7589 50.9547 58.6549 50.8506C58.5508 50.7466 58.4098 50.688 58.2626 50.6877H50.141C49.9939 50.688 49.8529 50.7466 49.7488 50.8506C49.6448 50.9547 49.5862 51.0957 49.5859 51.2428Z" fill="#FDCD56"/>
<path fill-rule="evenodd" clip-rule="evenodd" d="M49.5859 66.7753V74.8969C49.5862 75.0441 49.6448 75.1851 49.7488 75.2891C49.8529 75.3932 49.9939 75.4518 50.141 75.452H58.2626C58.4098 75.4518 58.5508 75.3932 58.6549 75.2891C58.7589 75.1851 58.8175 75.0441 58.8177 74.8969V66.7753C58.8175 66.6282 58.7589 66.4871 58.6549 66.3831C58.5508 66.279 58.4098 66.2205 58.2626 66.2202H50.141C49.9939 66.2205 49.8529 66.279 49.7488 66.3831C49.6448 66.4871 49.5862 66.6282 49.5859 66.7753Z" fill="#F76C82"/>
<path fill-rule="evenodd" clip-rule="evenodd" d="M85.3125 66.7753V74.8969C85.3128 75.0441 85.3713 75.1851 85.4754 75.2891C85.5794 75.3932 85.7205 75.4518 85.8676 75.452H93.9892C94.1363 75.4518 94.2774 75.3932 94.3814 75.2891C94.4855 75.1851 94.544 75.0441 94.5443 74.8969V66.7753C94.544 66.6282 94.4855 66.4871 94.3814 66.3831C94.2774 66.279 94.1363 66.2205 93.9892 66.2202H85.8676C85.7205 66.2205 85.5794 66.279 85.4754 66.3831C85.3713 66.4871 85.3128 66.6282 85.3125 66.7753Z" fill="#B3A4EE"/>
<path d="M99.6484 62.5641C105.915 60.4379 109.272 53.634 107.146 47.367C105.02 41.1 98.2159 37.7431 91.949 39.8693C85.682 41.9954 82.3251 48.7994 84.4513 55.0664C86.5774 61.3334 93.3814 64.6902 99.6484 62.5641Z" fill="#636C77"/>
<path fill-rule="evenodd" clip-rule="evenodd" d="M103.348 52.5403C101.757 52.5403 100.958 54.468 102.083 55.593C102.183 55.6926 102.239 55.8276 102.239 55.9683C102.239 56.1091 102.183 56.2441 102.083 56.3436L100.941 57.4863C100.841 57.5858 100.706 57.6417 100.565 57.6417C100.424 57.6417 100.289 57.5858 100.19 57.4863C99.0649 56.3612 97.1372 57.1596 97.1372 58.7507C97.1372 58.8204 97.1235 58.8894 97.0968 58.9538C97.0702 59.0182 97.0311 59.0767 96.9818 59.126C96.9325 59.1753 96.874 59.2144 96.8096 59.241C96.7452 59.2677 96.6762 59.2814 96.6065 59.2814H94.9906C94.8498 59.2814 94.7148 59.2255 94.6153 59.126C94.5158 59.0264 94.4599 58.8915 94.4599 58.7507C94.4599 57.1576 92.5337 56.3599 91.4071 57.4863C91.3076 57.5858 91.1726 57.6417 91.0318 57.6417C90.8911 57.6417 90.7561 57.5858 90.6565 57.4863L89.5139 56.3436C89.4144 56.2441 89.3585 56.1091 89.3585 55.9683C89.3585 55.8276 89.4144 55.6926 89.5139 55.593C90.6389 54.468 89.8406 52.5403 88.2494 52.5403C88.1087 52.5403 87.9737 52.4844 87.8742 52.3848C87.7747 52.2853 87.7188 52.1503 87.7188 52.0096V50.3936C87.7188 50.2529 87.7747 50.1179 87.8742 50.0184C87.9737 49.9189 88.1087 49.8629 88.2494 49.8629C89.8406 49.8629 90.6389 47.9353 89.5139 46.8102C89.4144 46.7107 89.3585 46.5757 89.3585 46.4349C89.3585 46.2942 89.4144 46.1592 89.5139 46.0596L90.6565 44.9169C90.7561 44.8174 90.8911 44.7616 91.0318 44.7616C91.1726 44.7616 91.3076 44.8174 91.4071 44.9169C92.5322 46.042 94.4599 45.2436 94.4599 43.6525C94.4599 43.5118 94.5158 43.3768 94.6153 43.2773C94.7148 43.1777 94.8498 43.1218 94.9906 43.1218H96.6065C96.7473 43.1218 96.8822 43.1777 96.9818 43.2773C97.0813 43.3768 97.1372 43.5118 97.1372 43.6525C97.1372 45.2436 99.0649 46.042 100.19 44.9169C100.289 44.8174 100.424 44.7616 100.565 44.7616C100.706 44.7616 100.841 44.8174 100.941 44.9169L102.083 46.0596C102.183 46.1592 102.239 46.2942 102.239 46.4349C102.239 46.5757 102.183 46.7107 102.083 46.8102C100.958 47.9353 101.757 49.8629 103.348 49.8629C103.417 49.8629 103.486 49.8766 103.551 49.9033C103.615 49.93 103.674 49.9691 103.723 50.0183C103.772 50.0676 103.811 50.1261 103.838 50.1905C103.865 50.2549 103.878 50.3239 103.878 50.3936V52.0096C103.878 52.0793 103.865 52.1483 103.838 52.2127C103.811 52.2771 103.772 52.3356 103.723 52.3849C103.674 52.4342 103.615 52.4733 103.551 52.4999C103.486 52.5266 103.417 52.5403 103.348 52.5403ZM95.7986 47.2531C93.618 47.2531 91.8502 49.0209 91.8502 51.2015C91.8502 53.3823 93.618 55.1501 95.7986 55.1501C97.9792 55.1501 99.7471 53.3823 99.7471 51.2015C99.747 49.0209 97.9792 47.2531 95.7986 47.2531Z" fill="#FDCD56"/>
</g>
<defs>
<filter id="filter0_d_3247_3134" x="0.666667" y="0.571429" width="146.667" height="146.667" filterUnits="userSpaceOnUse" color-interpolation-filters="sRGB">
<feFlood flood-opacity="0" result="BackgroundImageFix"/>
<feColorMatrix in="SourceAlpha" type="matrix" values="0 0 0 0 0 0 0 0 0 0 0 0 0 0 0 0 0 0 127 0" result="hardAlpha"/>
<feOffset dy="1.90476"/>
<feGaussianBlur stdDeviation="6.66667"/>
<feComposite in2="hardAlpha" operator="out"/>
<feColorMatrix type="matrix" values="0 0 0 0 0.695898 0 0 0 0 0.695898 0 0 0 0 0.695898 0 0 0 0.25 0"/>
<feBlend mode="normal" in2="BackgroundImageFix" result="effect1_dropShadow_3247_3134"/>
<feBlend mode="normal" in="SourceGraphic" in2="effect1_dropShadow_3247_3134" result="shape"/>
</filter>
<clipPath id="clip0_3247_3134">
<rect width="71" height="71" fill="white" transform="translate(39 37)"/>
</clipPath>
</defs>
</svg>
