<svg width="148" height="148" viewBox="0 0 148 148" fill="none" xmlns="http://www.w3.org/2000/svg">
<g filter="url(#filter0_d_2030_1624)">
<circle cx="74" cy="72" r="60" fill="white"/>
</g>
<g clip-path="url(#clip0_2030_1624)">
<path d="M78.9375 42.5474C87.3948 42.5474 81.5707 45.9437 88.8791 49.0339C96.1875 52.12 94.7325 45.8263 100.297 51.4659C105.865 57.0971 99.567 55.5415 102.54 62.8708C105.517 70.196 108.955 64.7199 108.888 72.5021C108.959 80.2801 105.517 74.8041 102.54 82.1334C99.5629 89.4586 105.865 87.903 100.297 93.5384C94.7325 99.178 96.1875 92.8801 88.8791 95.9703C81.5707 99.0606 87.3948 102.453 78.9375 102.453V42.5474Z" fill="#FFCA28"/>
<path d="M78.9375 42.5474V43.344C80.6524 44.5265 79.2813 46.8536 84.4429 49.0339C87.5457 50.3421 89.051 49.9606 90.1999 49.5203C89.7521 49.3795 89.3113 49.2172 88.8791 49.0339C81.5707 45.9437 87.3948 42.5474 78.9375 42.5474ZM96.6571 49.0255C95.7095 48.9333 95.0093 49.4742 93.9065 49.7593C94.4516 50.1367 95.0805 50.6734 95.8604 51.4617C101.425 57.0971 95.1309 55.5415 98.1037 62.8666C101.081 70.196 104.519 64.7199 104.452 72.5021C104.519 80.2801 101.081 74.8041 98.1037 82.1334C95.1267 89.4586 101.425 87.903 95.8604 93.5384C95.2624 94.1643 94.6084 94.7341 93.9065 95.2407C96.003 95.7858 96.6236 97.2618 100.297 93.5384C105.865 87.903 99.567 89.4586 102.544 82.1334C105.521 74.8041 108.959 80.2801 108.888 72.5021C108.955 64.7199 105.517 70.196 102.544 62.8708C99.567 55.5415 105.865 57.0971 100.297 51.4617C98.5565 49.7006 97.5041 49.1052 96.6571 49.0255ZM88.5269 95.073C87.5499 95.0059 86.2669 95.1946 84.4429 95.9661C79.2855 98.1465 80.6524 100.474 78.9375 101.656V102.453C87.3948 102.453 81.5707 99.0522 88.8749 95.9661C89.3571 95.7649 89.7932 95.6055 90.1999 95.4756C89.6668 95.2544 89.1022 95.1186 88.5269 95.073Z" fill="#ECB200"/>
<path d="M78.9365 103.581C78.9332 104.166 78.8142 104.746 78.5862 105.285C78.3582 105.825 78.0258 106.314 77.6081 106.725C77.1904 107.136 76.6956 107.46 76.1521 107.679C75.6087 107.897 75.0274 108.007 74.4416 108H44.6001C44.015 108.006 43.4345 107.897 42.8918 107.678C42.3492 107.459 41.855 107.135 41.4378 106.725C41.0206 106.315 40.6885 105.826 40.4605 105.287C40.2325 104.748 40.1132 104.17 40.1094 103.585V41.4236C40.1121 40.8378 40.2306 40.2583 40.4581 39.7185C40.6856 39.1786 41.0175 38.6891 41.4349 38.278C41.8522 37.8669 42.3467 37.5423 42.8899 37.323C43.4331 37.1037 44.0143 36.9939 44.6001 37H74.4416C76.9323 37 78.9365 38.9707 78.9365 41.4236V103.581Z" fill="#E4EFF8"/>
<path d="M75.0944 37.0629C77.7989 66.9547 52.6242 102.289 40.3555 104.981C40.9509 106.734 42.6113 108 44.5988 108H74.4403C76.931 108 78.9352 106.029 78.9352 103.581V41.4236C78.9352 39.1929 77.2706 37.3731 75.0944 37.0629Z" fill="#C4DCF0"/>
<path d="M42.3281 99.1276V43.6543H76.7191V99.1276H42.3281Z" fill="#549AD4"/>
<path d="M75.0545 43.6543C73.7546 75.2695 52.3368 92.9052 42.3281 96.9053V101.346H76.7191V43.6543H75.0545Z" fill="#3588CB"/>
<path d="M95.577 72.5021C95.577 74.6876 95.1465 76.8516 94.3102 78.8707C93.4738 80.8898 92.248 82.7244 90.7026 84.2698C89.1573 85.8151 87.3227 87.041 85.3036 87.8773C83.2845 88.7136 81.1204 89.1441 78.935 89.1441C76.7495 89.1441 74.5855 88.7136 72.5663 87.8773C70.5472 87.041 68.7126 85.8151 67.1673 84.2698C65.6219 82.7244 64.3961 80.8898 63.5598 78.8707C62.7234 76.8516 62.293 74.6876 62.293 72.5021C62.293 68.0884 64.0463 63.8554 67.1673 60.7344C70.2883 57.6135 74.5212 55.8601 78.935 55.8601C83.3487 55.8601 87.5817 57.6135 90.7026 60.7344C93.8236 63.8554 95.577 68.0884 95.577 72.5021Z" fill="#E4EFF8"/>
<path d="M78.9365 55.8601C75.5107 55.8638 72.1695 56.9247 69.3691 58.8979C66.5686 60.871 64.4453 63.6604 63.2891 66.8852C62.1328 70.1099 61.9999 73.613 62.9085 76.9161C63.8172 80.2192 65.723 83.1614 68.366 85.3411C65.8823 82.3584 64.5192 78.6015 64.5126 74.7202C64.5146 71.5672 65.4123 68.4797 67.1011 65.8171C68.7898 63.1546 71.2003 61.0265 74.0516 59.6808C76.903 58.3351 80.078 57.827 83.2069 58.2159C86.3358 58.6047 89.2899 59.8744 91.7251 61.8771C90.1657 59.9971 88.2115 58.4834 86.0013 57.4435C83.7911 56.4037 81.3791 55.8631 78.9365 55.8601Z" fill="#C4DCF0"/>
<path d="M73.3591 65.8353C73.0722 65.8449 72.8003 65.9651 72.6001 66.1707L67.0486 71.7138C66.9453 71.817 66.8633 71.9396 66.8074 72.0745C66.7514 72.2094 66.7227 72.354 66.7227 72.5C66.7227 72.6461 66.7514 72.7907 66.8074 72.9256C66.8633 73.0605 66.9453 73.183 67.0486 73.2862L72.5959 78.8336C73.6442 79.8818 75.2165 78.3094 74.1683 77.2612L69.4051 72.5021L74.1725 67.7347C74.3306 67.5778 74.4379 67.377 74.4805 67.1584C74.5231 66.9397 74.4989 66.7133 74.4112 66.5086C74.3235 66.3038 74.1763 66.1301 73.9887 66.0101C73.8011 65.89 73.5817 65.8291 73.3591 65.8353Z" fill="#C4DCF0"/>
<path d="M72.2572 65.8353C71.9689 65.8438 71.6953 65.9641 71.4941 66.1707L65.9509 71.7139C65.8476 71.8171 65.7656 71.9396 65.7097 72.0745C65.6538 72.2094 65.625 72.354 65.625 72.5C65.625 72.6461 65.6538 72.7907 65.7097 72.9256C65.7656 73.0605 65.8476 73.183 65.9509 73.2862L71.4941 78.8336C72.5423 79.8818 74.1147 78.3094 73.0665 77.2612L68.299 72.5021L73.0665 67.7347C73.2243 67.578 73.3315 67.3776 73.3741 67.1594C73.4168 66.9412 73.3931 66.7152 73.3059 66.5106C73.2187 66.306 73.0722 66.1323 72.8852 66.0119C72.6983 65.8915 72.4795 65.83 72.2572 65.8353Z" fill="#427096"/>
<path d="M86.5797 65.8352C86.3695 65.8563 86.1696 65.9369 86.0035 66.0675C85.8375 66.1982 85.7121 66.3735 85.6421 66.5728C85.5721 66.7722 85.5604 66.9874 85.6084 67.1932C85.6564 67.399 85.7621 67.5868 85.9131 67.7347L90.6721 72.5021L85.9131 77.2611C84.7977 78.301 86.433 79.9447 87.477 78.8335L93.0328 73.2862C93.1361 73.183 93.2181 73.0604 93.274 72.9255C93.3299 72.7906 93.3587 72.646 93.3587 72.5C93.3587 72.354 93.3299 72.2094 93.274 72.0745C93.2181 71.9396 93.1361 71.817 93.0328 71.7138L87.477 66.1707C87.362 66.0514 87.2217 65.9593 87.0664 65.9013C86.9111 65.8432 86.7449 65.8207 86.5797 65.8352Z" fill="#C4DCF0"/>
<path d="M85.4745 65.8352C85.2646 65.857 85.0653 65.9381 84.8998 66.069C84.7343 66.1999 84.6095 66.3752 84.54 66.5745C84.4705 66.7737 84.4592 66.9887 84.5073 67.1941C84.5555 67.3996 84.6612 67.5871 84.812 67.7346L89.5711 72.5021L84.812 77.2611C83.6967 78.301 85.3278 79.9446 86.376 78.8335L91.9275 73.2862C92.0309 73.183 92.1128 73.0604 92.1688 72.9255C92.2247 72.7906 92.2535 72.646 92.2535 72.5C92.2535 72.3539 92.2247 72.2093 92.1688 72.0744C92.1128 71.9395 92.0309 71.817 91.9275 71.7138L86.3802 66.1706C86.2647 66.0508 86.1237 65.9584 85.9676 65.9003C85.8116 65.8423 85.6445 65.82 85.4787 65.8352H85.4745Z" fill="#427096"/>
<path d="M82.2268 65.8269C82.0088 65.8347 81.798 65.9064 81.6206 66.0332C81.4431 66.1599 81.3069 66.3361 81.2288 66.5397L76.7926 77.6302C76.2392 79.0097 78.3021 79.8357 78.8556 78.4604L83.2918 67.3615C83.3635 67.1899 83.3909 67.003 83.3716 66.818C83.3523 66.633 83.2869 66.4558 83.1813 66.3026C83.0757 66.1495 82.9334 66.0253 82.7674 65.9414C82.6013 65.8576 82.4169 65.8168 82.231 65.8227L82.2268 65.8269Z" fill="#C4DCF0"/>
<path d="M81.1244 65.8268C80.9064 65.8346 80.6956 65.9063 80.5181 66.0331C80.3407 66.1598 80.2045 66.336 80.1264 66.5396L75.686 77.6301C75.1368 79.0096 77.1955 79.8356 77.749 78.4603L82.1894 67.3614C82.2612 67.1895 82.2887 67.0022 82.2692 66.8168C82.2497 66.6314 82.1839 66.454 82.0778 66.3007C81.9717 66.1474 81.8288 66.0233 81.6622 65.9398C81.4956 65.8562 81.3106 65.8201 81.1244 65.8268Z" fill="#427096"/>
<path d="M45.6502 51.4239C45.3679 51.4412 45.1028 51.5656 44.909 51.7717C44.7152 51.9778 44.6073 52.25 44.6073 52.5329C44.6073 52.8158 44.7152 53.088 44.909 53.2941C45.1028 53.5002 45.3679 53.6246 45.6502 53.642H47.8725C48.1672 53.642 48.4498 53.5249 48.6582 53.3165C48.8666 53.1081 48.9836 52.8255 48.9836 52.5308C48.9836 52.2361 48.8666 51.9535 48.6582 51.7451C48.4498 51.5367 48.1672 51.4197 47.8725 51.4197L45.6502 51.4239ZM52.3087 51.4239C52.0263 51.4412 51.7612 51.5656 51.5674 51.7717C51.3737 51.9778 51.2658 52.25 51.2658 52.5329C51.2658 52.8158 51.3737 53.088 51.5674 53.2941C51.7612 53.5002 52.0263 53.6246 52.3087 53.642H54.531C54.8257 53.642 55.1083 53.5249 55.3167 53.3165C55.5251 53.1081 55.6421 52.8255 55.6421 52.5308C55.6421 52.2361 55.5251 51.9535 55.3167 51.7451C55.1083 51.5367 54.8257 51.4197 54.531 51.4197L52.3087 51.4239ZM58.9672 51.4239C58.8158 51.4146 58.6641 51.4363 58.5215 51.4879C58.3788 51.5394 58.2482 51.6196 58.1377 51.7235C58.0273 51.8274 57.9392 51.9528 57.879 52.092C57.8188 52.2312 57.7878 52.3813 57.7878 52.5329C57.7878 52.6846 57.8188 52.8346 57.879 52.9739C57.9392 53.1131 58.0273 53.2385 58.1377 53.3424C58.2482 53.4463 58.3788 53.5265 58.5215 53.578C58.6641 53.6295 58.8158 53.6513 58.9672 53.642H61.1894C61.4841 53.642 61.7668 53.5249 61.9751 53.3165C62.1835 53.1081 62.3006 52.8255 62.3006 52.5308C62.3006 52.2361 62.1835 51.9535 61.9751 51.7451C61.7668 51.5367 61.4841 51.4197 61.1894 51.4197L58.9672 51.4239ZM65.6256 51.4239C65.4743 51.4146 65.3226 51.4363 65.1799 51.4879C65.0373 51.5394 64.9067 51.6196 64.7962 51.7235C64.6857 51.8274 64.5977 51.9528 64.5375 52.092C64.4773 52.2312 64.4463 52.3813 64.4463 52.5329C64.4463 52.6846 64.4773 52.8346 64.5375 52.9739C64.5977 53.1131 64.6857 53.2385 64.7962 53.3424C64.9067 53.4463 65.0373 53.5265 65.1799 53.578C65.3226 53.6295 65.4743 53.6513 65.6256 53.642H67.8479C68.1426 53.642 68.4252 53.5249 68.6336 53.3165C68.842 53.1081 68.9591 52.8255 68.9591 52.5308C68.9591 52.2361 68.842 51.9535 68.6336 51.7451C68.4252 51.5367 68.1426 51.4197 67.8479 51.4197L65.6256 51.4239ZM45.6502 58.0823C45.3679 58.0997 45.1028 58.2241 44.909 58.4302C44.7152 58.6363 44.6073 58.9085 44.6073 59.1914C44.6073 59.4743 44.7152 59.7465 44.909 59.9526C45.1028 60.1587 45.3679 60.2831 45.6502 60.3004H47.8725C48.1672 60.3004 48.4498 60.1834 48.6582 59.975C48.8666 59.7666 48.9836 59.484 48.9836 59.1893C48.9836 58.8946 48.8666 58.612 48.6582 58.4036C48.4498 58.1952 48.1672 58.0782 47.8725 58.0782L45.6502 58.0823ZM52.3087 58.0823C52.0263 58.0997 51.7612 58.2241 51.5674 58.4302C51.3737 58.6363 51.2658 58.9085 51.2658 59.1914C51.2658 59.4743 51.3737 59.7465 51.5674 59.9526C51.7612 60.1587 52.0263 60.2831 52.3087 60.3004H54.531C54.8257 60.3004 55.1083 60.1834 55.3167 59.975C55.5251 59.7666 55.6421 59.484 55.6421 59.1893C55.6421 58.8946 55.5251 58.612 55.3167 58.4036C55.1083 58.1952 54.8257 58.0782 54.531 58.0782L52.3087 58.0823ZM58.9672 58.0823C58.8158 58.073 58.6641 58.0948 58.5215 58.1463C58.3788 58.1979 58.2482 58.278 58.1377 58.3819C58.0273 58.4858 57.9392 58.6113 57.879 58.7505C57.8188 58.8897 57.7878 59.0397 57.7878 59.1914C57.7878 59.3431 57.8188 59.4931 57.879 59.6323C57.9392 59.7715 58.0273 59.897 58.1377 60.0009C58.2482 60.1048 58.3788 60.1849 58.5215 60.2365C58.6641 60.288 58.8158 60.3098 58.9672 60.3004H61.1894C61.4841 60.3004 61.7668 60.1834 61.9751 59.975C62.1835 59.7666 62.3006 59.484 62.3006 59.1893C62.3006 58.8946 62.1835 58.612 61.9751 58.4036C61.7668 58.1952 61.4841 58.0782 61.1894 58.0782L58.9672 58.0823ZM45.6502 64.7366C45.3555 64.7366 45.0729 64.8537 44.8645 65.0621C44.6561 65.2705 44.5391 65.5531 44.5391 65.8478C44.5391 66.1425 44.6561 66.4251 44.8645 66.6335C45.0729 66.8419 45.3555 66.9589 45.6502 66.9589H47.8725C48.1672 66.9589 48.4498 66.8419 48.6582 66.6335C48.8666 66.4251 48.9836 66.1425 48.9836 65.8478C48.9836 65.5531 48.8666 65.2705 48.6582 65.0621C48.4498 64.8537 48.1672 64.7366 47.8725 64.7366H45.6502ZM52.3087 64.7366C52.014 64.7366 51.7314 64.8537 51.523 65.0621C51.3146 65.2705 51.1975 65.5531 51.1975 65.8478C51.1975 66.1425 51.3146 66.4251 51.523 66.6335C51.7314 66.8419 52.014 66.9589 52.3087 66.9589H54.531C54.8257 66.9589 55.1083 66.8419 55.3167 66.6335C55.5251 66.4251 55.6421 66.1425 55.6421 65.8478C55.6421 65.5531 55.5251 65.2705 55.3167 65.0621C55.1083 64.8537 54.8257 64.7366 54.531 64.7366H52.3087ZM58.9672 64.7366C58.6725 64.7366 58.3898 64.8537 58.1815 65.0621C57.9731 65.2705 57.856 65.5531 57.856 65.8478C57.856 66.1425 57.9731 66.4251 58.1815 66.6335C58.3898 66.8419 58.6725 66.9589 58.9672 66.9589H60.0741C60.3688 66.9589 60.6514 66.8419 60.8598 66.6335C61.0682 66.4251 61.1853 66.1425 61.1853 65.8478C61.1853 65.5531 61.0682 65.2705 60.8598 65.0621C60.6514 64.8537 60.3688 64.7366 60.0741 64.7366H58.9672ZM58.9588 71.3909C58.8129 71.3909 58.6684 71.4197 58.5336 71.4755C58.3987 71.5313 58.2763 71.6132 58.1731 71.7164C58.0699 71.8195 57.9881 71.942 57.9322 72.0768C57.8764 72.2117 57.8476 72.3561 57.8476 72.5021C57.8476 72.648 57.8764 72.7925 57.9322 72.9273C57.9881 73.0621 58.0699 73.1846 58.1731 73.2878C58.2763 73.3909 58.3987 73.4728 58.5336 73.5286C58.6684 73.5845 58.8129 73.6132 58.9588 73.6132C59.2535 73.6132 59.5361 73.4961 59.7445 73.2878C59.9529 73.0794 60.0699 72.7968 60.0699 72.5021C60.0699 72.2074 59.9529 71.9247 59.7445 71.7164C59.5361 71.508 59.2535 71.3909 58.9588 71.3909ZM45.6502 71.3951C45.3679 71.4125 45.1028 71.5369 44.909 71.743C44.7152 71.949 44.6073 72.2213 44.6073 72.5042C44.6073 72.787 44.7152 73.0593 44.909 73.2654C45.1028 73.4714 45.3679 73.5958 45.6502 73.6132H47.8725C48.0184 73.6132 48.1629 73.5845 48.2977 73.5286C48.4325 73.4728 48.555 73.3909 48.6582 73.2878C48.7614 73.1846 48.8432 73.0621 48.8991 72.9273C48.9549 72.7925 48.9836 72.648 48.9836 72.5021C48.9836 72.3561 48.9549 72.2117 48.8991 72.0768C48.8432 71.942 48.7614 71.8195 48.6582 71.7164C48.555 71.6132 48.4325 71.5313 48.2977 71.4755C48.1629 71.4197 48.0184 71.3909 47.8725 71.3909L45.6502 71.3951ZM52.3087 71.3951C52.0263 71.4125 51.7612 71.5369 51.5674 71.743C51.3737 71.949 51.2658 72.2213 51.2658 72.5042C51.2658 72.787 51.3737 73.0593 51.5674 73.2654C51.7612 73.4714 52.0263 73.5958 52.3087 73.6132H54.531C54.6769 73.6132 54.8214 73.5845 54.9562 73.5286C55.091 73.4728 55.2135 73.3909 55.3167 73.2878C55.4198 73.1846 55.5017 73.0621 55.5575 72.9273C55.6134 72.7925 55.6421 72.648 55.6421 72.5021C55.6421 72.3561 55.6134 72.2117 55.5575 72.0768C55.5017 71.942 55.4198 71.8195 55.3167 71.7164C55.2135 71.6132 55.091 71.5313 54.9562 71.4755C54.8214 71.4197 54.6769 71.3909 54.531 71.3909L52.3087 71.3951ZM45.6502 78.0452C45.3679 78.0626 45.1028 78.187 44.909 78.3931C44.7152 78.5991 44.6073 78.8714 44.6073 79.1542C44.6073 79.4371 44.7152 79.7094 44.909 79.9154C45.1028 80.1215 45.3679 80.2459 45.6502 80.2633H47.8725C48.1672 80.2633 48.4498 80.1462 48.6582 79.9378C48.8666 79.7295 48.9836 79.4468 48.9836 79.1522C48.9836 78.8575 48.8666 78.5748 48.6582 78.3665C48.4498 78.1581 48.1672 78.041 47.8725 78.041L45.6502 78.0452ZM52.3087 78.0452C52.0263 78.0626 51.7612 78.187 51.5674 78.3931C51.3737 78.5991 51.2658 78.8714 51.2658 79.1542C51.2658 79.4371 51.3737 79.7094 51.5674 79.9154C51.7612 80.1215 52.0263 80.2459 52.3087 80.2633H54.531C54.8257 80.2633 55.1083 80.1462 55.3167 79.9378C55.5251 79.7295 55.6421 79.4468 55.6421 79.1522C55.6421 78.8575 55.5251 78.5748 55.3167 78.3665C55.1083 78.1581 54.8257 78.041 54.531 78.041L52.3087 78.0452ZM58.9672 78.0452C58.8158 78.0359 58.6641 78.0577 58.5215 78.1092C58.3788 78.1607 58.2482 78.2409 58.1377 78.3448C58.0273 78.4487 57.9392 78.5741 57.879 78.7133C57.8188 78.8525 57.7878 79.0026 57.7878 79.1542C57.7878 79.3059 57.8188 79.456 57.879 79.5952C57.9392 79.7344 58.0273 79.8598 58.1377 79.9637C58.2482 80.0676 58.3788 80.1478 58.5215 80.1993C58.6641 80.2508 58.8158 80.2726 58.9672 80.2633H60.0741C60.3688 80.2633 60.6514 80.1462 60.8598 79.9378C61.0682 79.7295 61.1853 79.4468 61.1853 79.1522C61.1853 78.8575 61.0682 78.5748 60.8598 78.3665C60.6514 78.1581 60.3688 78.041 60.0741 78.041L58.9672 78.0452ZM45.6502 84.7037C45.3679 84.721 45.1028 84.8455 44.909 85.0515C44.7152 85.2576 44.6073 85.5298 44.6073 85.8127C44.6073 86.0956 44.7152 86.3678 44.909 86.5739C45.1028 86.78 45.3679 86.9044 45.6502 86.9218H47.8725C48.0184 86.9218 48.1629 86.893 48.2977 86.8372C48.4325 86.7814 48.555 86.6995 48.6582 86.5963C48.7614 86.4931 48.8432 86.3707 48.8991 86.2358C48.9549 86.101 48.9836 85.9565 48.9836 85.8106C48.9836 85.6647 48.9549 85.5202 48.8991 85.3854C48.8432 85.2506 48.7614 85.1281 48.6582 85.0249C48.555 84.9218 48.4325 84.8399 48.2977 84.7841C48.1629 84.7282 48.0184 84.6995 47.8725 84.6995L45.6502 84.7037ZM52.3087 84.7037C52.0263 84.721 51.7612 84.8455 51.5674 85.0515C51.3737 85.2576 51.2658 85.5298 51.2658 85.8127C51.2658 86.0956 51.3737 86.3678 51.5674 86.5739C51.7612 86.78 52.0263 86.9044 52.3087 86.9218H54.531C54.6769 86.9218 54.8214 86.893 54.9562 86.8372C55.091 86.7814 55.2135 86.6995 55.3167 86.5963C55.4198 86.4931 55.5017 86.3707 55.5575 86.2358C55.6134 86.101 55.6421 85.9565 55.6421 85.8106C55.6421 85.6647 55.6134 85.5202 55.5575 85.3854C55.5017 85.2506 55.4198 85.1281 55.3167 85.0249C55.2135 84.9218 55.091 84.8399 54.9562 84.7841C54.8214 84.7282 54.6769 84.6995 54.531 84.6995L52.3087 84.7037Z" fill="#E4EFF8"/>
<path d="M58.9645 84.7037C58.8131 84.6943 58.6615 84.7161 58.5188 84.7676C58.3762 84.8192 58.2456 84.8993 58.1351 85.0032C58.0246 85.1071 57.9366 85.2326 57.8764 85.3718C57.8162 85.511 57.7852 85.661 57.7852 85.8127C57.7852 85.9644 57.8162 86.1144 57.8764 86.2536C57.9366 86.3928 58.0246 86.5183 58.1351 86.6222C58.2456 86.7261 58.3762 86.8062 58.5188 86.8578C58.6615 86.9093 58.8131 86.9311 58.9645 86.9217H61.1868C61.4815 86.9217 61.7641 86.8047 61.9725 86.5963C62.1809 86.3879 62.298 86.1053 62.298 85.8106C62.298 85.5159 62.1809 85.2333 61.9725 85.0249C61.7641 84.8165 61.4815 84.6995 61.1868 84.6995L58.9645 84.7037Z" fill="#C4DCF0"/>
<path d="M45.6484 91.3622C45.366 91.3796 45.1009 91.504 44.9072 91.7101C44.7134 91.9162 44.6055 92.1884 44.6055 92.4713C44.6055 92.7542 44.7134 93.0264 44.9072 93.2325C45.1009 93.4385 45.366 93.563 45.6484 93.5803H47.8707C48.1654 93.5803 48.448 93.4633 48.6564 93.2549C48.8648 93.0465 48.9818 92.7639 48.9818 92.4692C48.9818 92.1745 48.8648 91.8919 48.6564 91.6835C48.448 91.4751 48.1654 91.358 47.8707 91.358L45.6484 91.3622Z" fill="#E4EFF8"/>
<path d="M52.3085 91.3622C52.0262 91.3796 51.7611 91.504 51.5673 91.7101C51.3735 91.9162 51.2656 92.1884 51.2656 92.4713C51.2656 92.7542 51.3735 93.0264 51.5673 93.2325C51.7611 93.4385 52.0262 93.563 52.3085 93.5803H54.5308C54.8255 93.5803 55.1082 93.4633 55.3165 93.2549C55.5249 93.0465 55.642 92.7639 55.642 92.4692C55.642 92.1745 55.5249 91.8919 55.3165 91.6835C55.1082 91.4751 54.8255 91.358 54.5308 91.358L52.3085 91.3622ZM58.967 91.3622C58.8156 91.3529 58.664 91.3747 58.5213 91.4262C58.3787 91.4777 58.2481 91.5579 58.1376 91.6618C58.0271 91.7657 57.9391 91.8911 57.8789 92.0303C57.8187 92.1695 57.7877 92.3196 57.7877 92.4713C57.7877 92.6229 57.8187 92.773 57.8789 92.9122C57.9391 93.0514 58.0271 93.1768 58.1376 93.2807C58.2481 93.3846 58.3787 93.4648 58.5213 93.5163C58.664 93.5679 58.8156 93.5896 58.967 93.5803H61.1893C61.484 93.5803 61.7666 93.4633 61.975 93.2549C62.1834 93.0465 62.3005 92.7639 62.3005 92.4692C62.3005 92.1745 62.1834 91.8919 61.975 91.6835C61.7666 91.4751 61.484 91.358 61.1893 91.358L58.967 91.3622ZM65.6255 91.3622C65.4741 91.3529 65.3224 91.3747 65.1798 91.4262C65.0372 91.4777 64.9066 91.5579 64.7961 91.6618C64.6856 91.7657 64.5976 91.8911 64.5374 92.0303C64.4772 92.1695 64.4461 92.3196 64.4461 92.4713C64.4461 92.6229 64.4772 92.773 64.5374 92.9122C64.5976 93.0514 64.6856 93.1768 64.7961 93.2807C64.9066 93.3846 65.0372 93.4648 65.1798 93.5163C65.3224 93.5679 65.4741 93.5896 65.6255 93.5803H67.8478C68.1425 93.5803 68.4251 93.4633 68.6335 93.2549C68.8419 93.0465 68.9589 92.7639 68.9589 92.4692C68.9589 92.1745 68.8419 91.8919 68.6335 91.6835C68.4251 91.4751 68.1425 91.358 67.8478 91.358L65.6255 91.3622Z" fill="#C4DCF0"/>
</g>
<defs>
<filter id="filter0_d_2030_1624" x="0.666667" y="0.571429" width="146.667" height="146.667" filterUnits="userSpaceOnUse" color-interpolation-filters="sRGB">
<feFlood flood-opacity="0" result="BackgroundImageFix"/>
<feColorMatrix in="SourceAlpha" type="matrix" values="0 0 0 0 0 0 0 0 0 0 0 0 0 0 0 0 0 0 127 0" result="hardAlpha"/>
<feOffset dy="1.90476"/>
<feGaussianBlur stdDeviation="6.66667"/>
<feComposite in2="hardAlpha" operator="out"/>
<feColorMatrix type="matrix" values="0 0 0 0 0.695898 0 0 0 0 0.695898 0 0 0 0 0.695898 0 0 0 0.25 0"/>
<feBlend mode="normal" in2="BackgroundImageFix" result="effect1_dropShadow_2030_1624"/>
<feBlend mode="normal" in="SourceGraphic" in2="effect1_dropShadow_2030_1624" result="shape"/>
</filter>
<clipPath id="clip0_2030_1624">
<rect width="71" height="71" fill="white" transform="translate(39 37)"/>
</clipPath>
</defs>
</svg>
