<svg width="148" height="148" viewBox="0 0 148 148" fill="none" xmlns="http://www.w3.org/2000/svg">
<g filter="url(#filter0_d_1273_264)">
<circle cx="74" cy="72" r="60" fill="white"/>
</g>
<path fill-rule="evenodd" clip-rule="evenodd" d="M56.2305 104.345V40.0899C56.2304 39.9457 56.2588 39.803 56.314 39.6697C56.3691 39.5365 56.45 39.4155 56.5519 39.3135C56.6539 39.2116 56.7749 39.1307 56.9081 39.0756C57.0414 39.0204 57.1841 38.992 57.3283 38.9921H91.7519C92.0431 38.9921 92.3223 39.1077 92.5282 39.3136C92.7341 39.5195 92.8498 39.7987 92.8498 40.0899V104.345C92.8498 104.636 92.7341 104.915 92.5282 105.121C92.3223 105.327 92.0431 105.443 91.7519 105.443H57.3283C57.1842 105.443 57.0414 105.414 56.9082 105.359C56.775 105.304 56.654 105.223 56.552 105.121C56.4501 105.019 56.3692 104.898 56.314 104.765C56.2589 104.632 56.2305 104.489 56.2305 104.345Z" fill="#DAFAFF"/>
<path fill-rule="evenodd" clip-rule="evenodd" d="M76.4874 69.4872L77.846 73.4849V86.1776C77.846 87.7095 76.8719 88.9518 75.6704 88.9518H73.9803C72.7789 88.9518 71.8047 87.7097 71.8047 86.1776V73.4852L73.2134 69.4943L76.4874 69.4872Z" fill="#5D6B78"/>
<path fill-rule="evenodd" clip-rule="evenodd" d="M91.7439 106.435H57.3203C56.1678 106.435 55.2305 105.497 55.2305 104.345V40.0898C55.2305 38.9373 56.1681 38 57.3203 38H91.7439C92.8963 38 93.8337 38.9376 93.8337 40.0898V104.345C93.8337 105.497 92.8961 106.435 91.7439 106.435ZM57.3203 39.9839C57.2922 39.9839 57.2652 39.9951 57.2454 40.0149C57.2255 40.0348 57.2144 40.0617 57.2144 40.0898V104.345C57.2144 104.403 57.2619 104.451 57.3203 104.451H91.7439C91.8023 104.451 91.8498 104.403 91.8498 104.345V40.0898C91.8498 40.0617 91.8386 40.0348 91.8188 40.0149C91.7989 39.9951 91.772 39.9839 91.7439 39.9839H57.3203Z" fill="#586C7D"/>
<path fill-rule="evenodd" clip-rule="evenodd" d="M77.5474 101.344H71.5271C71.264 101.344 71.0117 101.24 70.8257 101.054C70.6397 100.868 70.5352 100.616 70.5352 100.352C70.5352 100.089 70.6397 99.837 70.8257 99.651C71.0117 99.465 71.264 99.3605 71.5271 99.3605H77.5474C77.8104 99.3605 78.0628 99.465 78.2488 99.651C78.4348 99.837 78.5393 100.089 78.5393 100.352C78.5393 100.616 78.4348 100.868 78.2488 101.054C78.0628 101.24 77.8104 101.344 77.5474 101.344Z" fill="#586C7D"/>
<path d="M74.8192 70.3097C81.7675 70.3097 87.4002 64.677 87.4002 57.7288C87.4002 50.7805 81.7675 45.1478 74.8192 45.1478C67.871 45.1478 62.2383 50.7805 62.2383 57.7288C62.2383 64.677 67.871 70.3097 74.8192 70.3097Z" fill="#B9F5FF"/>
<path fill-rule="evenodd" clip-rule="evenodd" d="M74.825 71.0537C71.2656 71.0537 67.9195 69.6677 65.4028 67.151C62.8858 64.6343 61.5 61.2879 61.5 57.7287C61.5 54.1695 62.8861 50.8232 65.4028 48.3065C67.9195 45.7898 71.2658 44.4037 74.825 44.4037C78.3845 44.4037 81.7306 45.7898 84.2473 48.3065C86.764 50.8232 88.1501 54.1695 88.1501 57.7287C88.1501 61.2879 86.764 64.6343 84.2473 67.151C81.7306 69.6674 78.3845 71.0537 74.825 71.0537ZM74.825 45.8911C68.2979 45.8911 62.9879 51.2013 62.9879 57.7285C62.9879 64.2556 68.2981 69.5656 74.825 69.5656C81.3519 69.5656 86.6621 64.2554 86.6621 57.7285C86.6621 51.2016 81.3522 45.8911 74.825 45.8911Z" fill="#586C7D"/>
<path fill-rule="evenodd" clip-rule="evenodd" d="M72.4662 61.9379C72.2886 61.9571 72.1091 61.928 71.9466 61.8536C71.7842 61.7792 71.6449 61.6623 71.5434 61.5153L69.0168 57.8555C68.8732 57.6389 68.8203 57.3746 68.8695 57.1194C68.9188 56.8642 69.0661 56.6385 69.28 56.4908C69.4939 56.3432 69.7572 56.2853 70.0132 56.3297C70.2693 56.3741 70.4978 56.5172 70.6494 56.7282L72.5475 59.4775L79.163 53.7552C79.3628 53.5886 79.6199 53.5072 79.8791 53.5283C80.1382 53.5494 80.3788 53.6715 80.5489 53.8681C80.719 54.0648 80.8051 54.3204 80.7887 54.5799C80.7722 54.8395 80.6546 55.0821 80.461 55.2558L73.0087 61.7022C72.856 61.8339 72.6668 61.9161 72.4662 61.9379Z" fill="#85BD5B"/>
<defs>
<filter id="filter0_d_1273_264" x="0.666667" y="0.571429" width="146.667" height="146.667" filterUnits="userSpaceOnUse" color-interpolation-filters="sRGB">
<feFlood flood-opacity="0" result="BackgroundImageFix"/>
<feColorMatrix in="SourceAlpha" type="matrix" values="0 0 0 0 0 0 0 0 0 0 0 0 0 0 0 0 0 0 127 0" result="hardAlpha"/>
<feOffset dy="1.90476"/>
<feGaussianBlur stdDeviation="6.66667"/>
<feComposite in2="hardAlpha" operator="out"/>
<feColorMatrix type="matrix" values="0 0 0 0 0.695898 0 0 0 0 0.695898 0 0 0 0 0.695898 0 0 0 0.25 0"/>
<feBlend mode="normal" in2="BackgroundImageFix" result="effect1_dropShadow_1273_264"/>
<feBlend mode="normal" in="SourceGraphic" in2="effect1_dropShadow_1273_264" result="shape"/>
</filter>
</defs>
</svg>
