<svg width="148" height="148" viewBox="0 0 148 148" fill="none" xmlns="http://www.w3.org/2000/svg">
<g filter="url(#filter0_d_2030_3517)">
<circle cx="74" cy="72" r="60" fill="white"/>
</g>
<path d="M74.498 103.701C91.73 103.701 105.699 89.7319 105.699 72.5C105.699 55.2681 91.73 41.2988 74.498 41.2988C57.2661 41.2988 43.2969 55.2681 43.2969 72.5C43.2969 89.7319 57.2661 103.701 74.498 103.701Z" fill="#0071BC"/>
<path d="M74.498 55.166C64.9436 55.166 57.1641 62.9455 57.1641 72.5C57.1641 82.0545 64.9436 89.834 74.498 89.834C84.0525 89.834 91.832 82.0545 91.832 72.5C91.832 62.9455 84.0525 55.166 74.498 55.166ZM74.498 57.6482C78.3531 57.6482 81.8615 59.1182 84.5102 61.5449C84.0664 61.4617 83.6227 61.4756 83.1789 61.6281C81.9725 62.0441 80.9463 63.7914 81.709 65.2613C82.0557 65.927 82.7629 66.8838 83.5117 67.8961C83.9971 68.5479 85.0648 70.9191 84.1496 74.3998C83.4979 76.8682 82.1527 81.1115 82.1527 81.1115L76.7584 65.4139H78.4641C78.8107 65.4139 79.0881 65.1365 79.0881 64.7898C79.0881 64.4432 78.8107 64.1658 78.4641 64.1658H70.227C69.8803 64.1658 69.6029 64.4432 69.6029 64.7898C69.6029 65.1365 69.8803 65.4139 70.227 65.4139H71.6414L74.1098 71.8344L70.9203 81.375L65.5537 65.4139H67.2594C67.6061 65.4139 67.8834 65.1365 67.8834 64.7898C67.8834 64.4432 67.6061 64.1658 67.2594 64.1658H62.2395C64.902 60.2275 69.4088 57.6482 74.498 57.6482ZM59.6463 72.5C59.6463 70.3783 60.09 68.3676 60.8943 66.551L68.0498 85.868C63.0854 83.4689 59.6463 78.3797 59.6463 72.5ZM70.1854 86.7139L74.817 73.8867L79.4625 86.5059C77.9094 87.0605 76.2453 87.3656 74.498 87.3656C73.0004 87.3518 71.5582 87.1299 70.1854 86.7139ZM82.3469 85.1053C83.276 82.3596 86.507 72.7912 87.1172 70.8914C87.6857 69.1025 88.1572 68.0625 88.1156 66.5787C88.9061 68.3953 89.3498 70.4061 89.3498 72.5C89.3498 77.8111 86.5486 82.4705 82.3469 85.1053Z" fill="white"/>
<defs>
<filter id="filter0_d_2030_3517" x="0.666667" y="0.571429" width="146.667" height="146.667" filterUnits="userSpaceOnUse" color-interpolation-filters="sRGB">
<feFlood flood-opacity="0" result="BackgroundImageFix"/>
<feColorMatrix in="SourceAlpha" type="matrix" values="0 0 0 0 0 0 0 0 0 0 0 0 0 0 0 0 0 0 127 0" result="hardAlpha"/>
<feOffset dy="1.90476"/>
<feGaussianBlur stdDeviation="6.66667"/>
<feComposite in2="hardAlpha" operator="out"/>
<feColorMatrix type="matrix" values="0 0 0 0 0.695898 0 0 0 0 0.695898 0 0 0 0 0.695898 0 0 0 0.25 0"/>
<feBlend mode="normal" in2="BackgroundImageFix" result="effect1_dropShadow_2030_3517"/>
<feBlend mode="normal" in="SourceGraphic" in2="effect1_dropShadow_2030_3517" result="shape"/>
</filter>
</defs>
</svg>
