<svg width="100" height="100" viewBox="0 0 100 100" fill="none" xmlns="http://www.w3.org/2000/svg">
<path d="M36.7063 69.7865L36.1816 69.0868C36.1816 69.0868 35.4819 67.5127 36.5314 65.9385L41.6037 64.889C41.6037 64.889 43.3528 66.6382 44.2273 66.9879C45.1018 67.3377 47.0259 68.0374 47.7254 68.2124C48.4251 68.2124 49.1246 68.5621 49.1246 69.2618C49.1246 69.9615 47.0257 71.011 45.9763 71.011C44.9268 71.1859 41.9534 71.1859 41.2537 70.836C40.5542 70.661 38.1056 69.7865 36.7063 69.7865Z" fill="#344A5E"/>
<path d="M49.1307 69.2618C49.1307 69.2618 48.7809 69.7865 48.2562 70.1363C47.7315 70.486 44.4082 71.1857 43.3587 71.0108C42.3093 70.8358 40.3853 69.9613 39.3359 69.7864C38.2864 69.6114 36.5373 69.4366 36.1875 69.0867V70.3112L38.8111 70.836L38.9861 70.3112L41.085 70.836C41.7847 71.1857 43.1839 71.5357 45.2828 71.1857C47.5565 70.836 49.8304 70.4862 49.1307 69.2618Z" fill="#415A6B"/>
<path d="M16.9453 50.0218C16.9453 50.0218 18.1697 54.7444 19.2192 58.0677C20.2686 61.391 20.6184 65.7636 20.2686 67.3378C19.9189 69.0869 18.6945 77.4826 18.6945 80.6309V84.6538C18.6945 84.6538 20.2686 85.7032 22.0178 85.0035C23.7669 84.3039 24.2916 82.9046 24.2916 82.9046C24.2916 82.9046 23.592 80.456 24.1167 78.7068C24.4664 76.9577 25.1661 71.0109 25.6909 69.4367C26.2156 67.8625 26.5654 66.1134 26.7403 65.0639C26.7403 64.0145 27.265 59.9916 27.265 57.8927C27.265 55.7938 27.7898 51.421 27.7898 51.421C27.7898 51.421 34.2614 51.0713 37.0599 50.3716C37.0599 50.3716 36.7101 55.2691 36.7101 57.8927V65.9386C36.7101 65.9386 37.4098 66.2884 38.809 66.2884C40.2082 66.2884 41.9574 65.4139 42.4821 65.5887C42.4821 65.5887 42.3071 59.6417 42.3071 57.5428C42.3071 55.4439 43.0068 51.2461 43.3566 49.4969C43.7064 47.7478 43.1816 45.8239 41.7824 44.7744C40.2082 43.8999 30.7632 41.801 27.6148 41.4511L24.4664 41.1013L16.9453 50.0218Z" fill="#415A6B"/>
<path d="M25.1645 22.5611C25.1645 22.5611 27.0884 27.9834 27.4384 29.9073L27.7881 31.6564L22.8906 22.3862L25.1645 22.5611Z" fill="#CED6E0"/>
<path d="M25.3359 22.7361C25.3359 22.7361 27.2599 28.1584 27.6098 30.0823C27.9596 32.0062 28.3095 33.4056 28.3095 33.4056C28.3095 33.4056 28.8342 31.6565 28.4845 29.9075C28.1347 28.1585 27.435 25.8847 26.7353 23.9605C26.0356 22.2114 25.5109 21.3369 25.5109 21.3369L25.3359 22.7361Z" fill="#344A5E"/>
<path d="M28.4863 10.8422L29.7107 11.7167C29.7107 11.7167 30.0605 13.2908 29.8857 13.9905C29.7107 14.5152 29.7107 14.5152 29.8857 15.04C30.0606 15.3897 30.7602 16.2644 30.7602 16.2644C30.7602 16.2644 30.9351 16.7891 30.5852 16.9641C30.2354 17.139 29.8855 17.139 29.8855 17.139C29.8855 17.139 30.0605 17.6638 29.8855 17.8387C29.8855 17.8387 30.2353 18.0137 29.8855 18.5384C29.5357 18.8882 30.0605 19.4129 29.8855 19.9376C29.7105 20.6373 27.2619 20.4624 26.9121 20.4624C26.2124 20.2874 23.7637 24.6602 23.7637 24.6602L20.2656 19.4127L20.6154 18.1883L22.0146 13.9905L28.4863 10.8422Z" fill="#FFD15C"/>
<path d="M29.5394 11.8916C29.5394 11.8916 30.5888 11.3669 30.7638 10.1425C30.9388 8.91807 29.0147 9.09303 27.9652 8.5683C27.0907 8.21854 23.4176 6.99413 21.1438 9.79272C18.8699 12.5913 20.619 18.3633 20.619 18.3633C20.619 18.3633 22.8929 16.9641 23.0677 15.7397C23.2427 14.5153 23.5924 13.8157 24.4669 13.9905C25.3414 14.1655 25.6913 15.7397 25.6913 15.7397L26.391 15.5647C26.391 15.5647 25.6913 14.865 26.566 13.9905C27.2657 13.116 27.9652 13.116 27.7904 12.2414C27.7904 11.3669 29.5394 11.8916 29.5394 11.8916Z" fill="#415A6B"/>
<path d="M20.6154 18.3633C20.6154 18.3633 21.4899 19.063 22.7143 19.7625C23.9387 20.4622 25.1631 21.5116 25.5129 22.2113C25.5129 22.2113 25.1631 23.9605 24.4634 25.0099L23.7637 26.0594L20.2656 19.4127L20.6154 18.3633Z" fill="#F3F3F3"/>
<path d="M23.2813 14.9626C23.4102 15.7246 23.9781 16.2639 24.5495 16.1672C25.121 16.0705 25.4797 15.3743 25.3507 14.6123C25.2217 13.8503 24.6539 13.311 24.0825 13.4077C23.511 13.5044 23.1523 14.2006 23.2813 14.9626Z" fill="#FFD15C"/>
<path d="M19.2194 20.6372C19.2194 20.6372 17.995 20.987 16.7708 22.5611C15.5464 24.1353 14.6719 25.8845 14.6719 25.8845C14.6719 25.8845 16.0711 23.7856 17.995 24.1353C19.919 24.4851 20.9686 27.6334 20.7936 28.8579C20.6187 30.0823 16.4209 37.4284 16.2461 38.8277C16.0713 40.2269 15.1966 51.9458 15.1966 51.9458C15.1966 51.9458 21.8431 53.345 24.4667 52.2956C27.0903 51.2461 27.9648 49.8469 27.9648 47.748C28.1398 45.4741 27.9648 43.2004 27.9648 43.2004C27.9648 43.2004 30.2387 43.2004 30.9382 42.5007C30.9382 42.5007 31.463 42.3258 30.0637 41.8011C28.6645 41.2763 27.6151 40.5766 27.6151 40.5766C27.6151 40.5766 27.6151 37.2533 27.79 36.3788C27.965 35.5043 28.3148 33.0555 28.1398 32.0061C27.79 30.9566 21.4933 21.5115 21.4933 21.5115L19.2194 20.6372Z" fill="#344A5E"/>
<path d="M20.2663 19.2378C20.2663 19.2378 20.2663 19.5876 20.791 19.9375C21.3157 20.2872 23.5896 23.2608 25.5135 25.7095C27.4375 28.1581 28.1372 30.257 28.3121 32.0062C28.6619 33.7553 27.7874 35.6793 27.7874 36.379C27.7874 36.379 27.9624 34.455 27.9624 33.4056C27.9624 32.3561 26.738 30.0822 26.3882 29.7325C26.0384 29.3827 21.8406 24.4852 21.8406 24.4852L22.1904 23.4358L21.3157 23.0858C21.3157 23.0858 20.4412 22.0364 19.9165 21.5117C19.2168 20.812 19.2168 20.6372 19.5667 20.2872C19.7415 19.9375 19.9165 19.4128 20.2663 19.2378ZM14.6692 25.8844C14.6692 25.8844 15.5437 23.9605 17.1179 23.6106C18.6921 23.2606 21.8405 25.0098 20.966 29.5575C20.0915 34.1053 17.6426 36.7287 17.1179 37.7782C16.5932 38.8276 15.8935 39.5273 15.8935 39.5273C15.8935 39.5273 15.7185 43.0254 16.2433 46.5237C16.768 50.022 16.9429 50.7215 16.9429 50.7215C16.9429 50.7215 16.0685 51.771 12.3954 51.771C12.3954 51.771 11.6957 45.4743 11.5209 44.0751C11.3459 42.6758 10.8212 41.2765 10.9962 40.0522C11.1711 38.8278 11.5209 37.7783 12.0456 36.3791C12.5703 34.9799 12.9201 33.2308 12.9201 33.2308C12.9201 33.2308 12.7451 31.6566 13.6198 31.3068C13.6198 31.3068 13.7948 29.9076 13.9696 29.3829C14.1445 28.8578 14.3193 26.7589 14.6692 25.8844Z" fill="#415A6B"/>
<path d="M28.4891 44.9494C28.4891 44.5996 28.4891 44.0749 28.6641 43.7249C28.839 43.3752 28.839 43.2002 28.839 44.0747C28.6641 45.8239 28.839 46.3486 28.6641 47.2231C28.6641 47.2231 30.9379 42.8503 30.4132 43.7249L29.014 47.2231C29.014 47.2231 30.7631 45.1242 30.5882 45.4739C30.5882 45.8237 29.014 47.7478 28.839 48.2725C28.6641 48.7972 29.7135 50.7212 31.9874 51.0711C29.7135 51.2461 27.7896 51.4209 27.7896 51.4209C27.7896 51.4209 28.4891 47.2232 28.4891 44.9494ZM18.5193 87.4522L17.9946 86.7525C17.9946 86.7525 17.4699 85.0034 18.6943 83.7791L23.7666 83.2544C23.7666 83.2544 25.3408 85.1783 26.2152 85.5283C27.0897 86.053 28.8389 86.9275 29.7134 87.1024C30.5879 87.2774 31.1126 87.6272 30.9378 88.3269C30.7628 89.0265 28.6639 89.7261 27.6145 89.901C26.565 89.901 23.5916 89.5513 22.8919 89.2013C22.1924 88.8516 19.9187 87.6272 18.5193 87.4522Z" fill="#344A5E"/>
<path d="M30.9385 88.1519C30.9385 88.1519 30.5887 88.6766 29.889 88.8516C29.1893 89.0266 25.8662 89.5513 24.8167 89.2014C23.7673 89.0264 22.0181 87.9769 20.9687 87.8021C20.0942 87.4524 18.345 87.1024 17.9953 86.7527L17.8203 87.9771L20.269 88.8516L20.4439 88.5018C20.4439 88.5018 21.8432 89.0266 22.5428 89.3763C23.2425 89.7261 24.6418 90.2508 26.7407 90.076C29.0144 89.7261 31.4632 89.5511 30.9385 88.1519Z" fill="#415A6B"/>
<path d="M18.6966 54.5695C18.6966 54.7444 18.6966 54.7444 18.8716 54.9192C18.8716 55.269 19.2213 55.6189 19.2213 55.7937C19.3963 56.1435 19.3963 56.8432 19.3963 56.8432L19.5713 57.7177C18.6968 57.8926 18.5218 57.3679 18.5218 57.3679L18.1719 55.0942L18.6966 54.5695Z" fill="#FFD15C"/>
<path d="M18.5187 57.368V55.619C18.5187 55.4442 18.3438 55.2693 18.3438 55.2693V56.3186C18.3438 56.6683 18.3438 56.8433 18.5187 57.0183V57.368Z" fill="#F7B64C"/>
<path d="M13.6172 58.0675C13.6172 56.8431 14.6666 55.9686 15.7161 55.9686H18.1648C19.3892 55.9686 20.2637 57.0181 20.2637 58.0675V62.4403H13.6172V58.0675ZM19.2142 58.0675C19.2142 57.5428 18.8645 57.0181 18.1648 57.0181H15.7161C15.1914 57.0181 14.6666 57.3678 14.6666 58.0675V61.2159H19.0394V58.0675H19.2142Z" fill="#4ABAA5"/>
<path d="M8.54688 59.9916V70.1364C8.54688 70.6611 9.0716 71.1858 9.59633 71.1858H24.4636C24.9884 71.1858 25.5131 70.6611 25.5131 70.1364V59.9916C25.5131 59.4669 24.9884 58.9421 24.4636 58.9421H9.59633C9.0716 58.9421 8.54688 59.4669 8.54688 59.9916Z" fill="#4ABAA5"/>
<path d="M13.7969 51.2461L16.4205 50.5464C16.4205 50.5464 16.9452 51.9456 17.1202 52.1206C17.2952 52.2955 18.1697 53.6947 18.5194 54.2195L18.6944 54.3944L18.3446 54.9192L18.5196 57.3678C18.5196 57.5428 18.5196 58.0675 18.1698 58.2423C17.8201 58.4173 17.6451 58.0674 17.6451 58.0674C17.6451 58.0674 17.6451 58.4171 17.2953 58.4171C16.9456 58.4171 16.5955 57.7178 16.5955 57.7178C16.5955 57.7178 16.5955 58.2425 16.0707 58.2425C15.721 58.2425 15.546 57.368 15.546 57.368L15.1963 57.7178C15.0213 57.7178 14.6715 57.5428 14.6715 57.0181C14.4966 56.4933 14.1468 54.0447 14.3218 53.345C14.1468 52.6455 13.7969 51.421 13.7969 51.2461Z" fill="#FFD15C"/>
<path d="M17.6454 58.0675V57.0179V57.3678C17.4705 57.7178 17.4705 57.7178 17.6454 58.0675ZM16.596 57.7178V57.193V57.543C16.421 57.5428 16.596 57.5428 16.596 57.7178ZM15.5465 57.368V56.8433V57.193C15.3715 57.193 15.5465 57.193 15.5465 57.368Z" fill="#F7B64C"/>
<path d="M21.4945 58.9421H22.8937V71.0108H21.4945V58.9421ZM11 58.9421H12.3992V71.0108H11V58.9421Z" fill="#66C6B9"/>
<path d="M91.9797 37.2535L89.1811 46.8735L86.9074 44.5996L74.139 57.368H57.8724V72.0604C57.8724 72.9349 57.1728 73.8095 56.1233 73.8095H35.4842V90.2508C35.4842 91.1253 34.7845 92 33.735 92H8.02344V88.6767H32.5106V72.0604C32.5106 71.1859 33.2103 70.3112 34.2598 70.3112H54.8991V55.4439C54.8991 54.5695 55.5987 53.6948 56.6482 53.6948H73.0897L84.8085 41.976L82.5346 39.7021L91.9797 37.2535Z" fill="#F3705A"/>
</svg>
