<svg width="39" height="39" viewBox="0 0 39 39" fill="none" xmlns="http://www.w3.org/2000/svg">
<g clip-path="url(#clip0_1098_17)">
<rect x="9.9375" y="11.2909" width="17.7758" height="17.7758" fill="white"/>
<path d="M30.8088 5.85535H8.5399C4.17078 5.85535 0.628906 9.39722 0.628906 13.7663V24.8984C0.628906 29.2676 4.17078 32.8094 8.5399 32.8094H30.8088C35.1779 32.8094 38.7198 29.2676 38.7198 24.8984V13.7663C38.7198 9.39722 35.1779 5.85535 30.8088 5.85535ZM25.4587 19.874L15.0428 24.8418C14.7652 24.9741 14.4446 24.7718 14.4446 24.4643V14.2183C14.4446 13.9065 14.7737 13.7044 15.0518 13.8453L25.4677 19.1236C25.7774 19.2805 25.772 19.7246 25.4587 19.874Z" fill="#F61C0D"/>
</g>
<defs>
<clipPath id="clip0_1098_17">
<rect width="38.0909" height="38.0909" fill="white" transform="translate(0.625 0.286865)"/>
</clipPath>
</defs>
</svg>
